<svg width="169" height="101" viewBox="0 0 169 101" fill="none" xmlns="http://www.w3.org/2000/svg">
<g filter="url(#filter0_f_4234_2933)">
<ellipse cx="84.5" cy="67.0847" rx="76.5" ry="25.5" fill="#A1C1FF" fill-opacity="0.3"/>
</g>
<path d="M124.313 72.2075H110.159C109.68 72.2075 109.29 71.8183 109.29 71.3385V27.6158C109.29 25.7735 110.786 24.2779 112.628 24.2779H121.843C123.686 24.2779 125.181 25.7735 125.181 27.6158V71.3385C125.181 71.8178 124.792 72.2075 124.312 72.2075H124.313Z" fill="#515976"/>
<path d="M124.313 72.328H110.159C109.614 72.328 109.17 71.8842 109.17 71.3389V27.6167C109.17 25.71 110.721 24.1582 112.628 24.1582H121.844C123.75 24.1582 125.302 25.7095 125.302 27.6167V71.3395C125.302 71.8848 124.858 72.3285 124.313 72.3285L124.313 72.328ZM112.628 24.3984C110.854 24.3984 109.411 25.8421 109.411 27.6161V71.3389C109.411 71.7516 109.746 72.0873 110.159 72.0873H124.313C124.725 72.0873 125.061 71.7516 125.061 71.3389V27.6167C125.061 25.8421 123.617 24.3989 121.843 24.3989H112.628L112.628 24.3984Z" fill="#001641"/>
<path d="M124.313 72.4097H110.159C109.568 72.4097 109.088 71.9294 109.088 71.3388V27.6165C109.088 25.6646 110.676 24.0762 112.628 24.0762H121.844C123.796 24.0762 125.384 25.664 125.384 27.6165V71.3393C125.384 71.9299 124.904 72.4103 124.313 72.4103L124.313 72.4097ZM112.628 24.2399C110.766 24.2399 109.252 25.7546 109.252 27.6165V71.3393C109.252 71.8393 109.659 72.2465 110.159 72.2465H124.313C124.813 72.2465 125.22 71.8398 125.22 71.3393V27.6165C125.22 25.7546 123.705 24.2399 121.843 24.2399H112.628H112.628ZM124.313 72.1695H110.159C109.701 72.1695 109.329 71.7973 109.329 71.3393V27.6165C109.329 25.7972 110.809 24.3169 112.628 24.3169H121.844C123.663 24.3169 125.144 25.7972 125.144 27.6165V71.3393C125.144 71.7973 124.771 72.1695 124.313 72.1695H124.313ZM112.628 24.4801C110.899 24.4801 109.492 25.8867 109.492 27.616V71.3388C109.492 71.7061 109.792 72.0052 110.159 72.0052H124.313C124.68 72.0052 124.979 71.7061 124.979 71.3388V27.6165C124.979 25.8873 123.573 24.4806 121.843 24.4806H112.628L112.628 24.4801Z" fill="#001641"/>
<path d="M71.9837 72.2075H26.0912C25.6119 72.2075 25.2222 71.8183 25.2222 71.3385L25.2222 27.6158C25.2222 25.7735 26.7178 24.2779 28.56 24.2779L69.5148 24.2779C71.357 24.2779 72.8527 25.7735 72.8527 27.6158V71.3385C72.8527 71.8178 72.4635 72.2075 71.9837 72.2075Z" fill="#515976"/>
<path d="M71.9838 72.328H26.0919C25.5466 72.328 25.1028 71.8842 25.1028 71.3389V27.6167C25.1028 25.71 26.6541 24.1582 28.5613 24.1582H69.515C71.4216 24.1582 72.9734 25.7095 72.9734 27.6167V71.3395C72.9734 71.8848 72.5297 72.3285 71.9844 72.3285L71.9838 72.328ZM28.5607 24.3984C26.7862 24.3984 25.343 25.8421 25.343 27.6161V71.3389C25.343 71.7516 25.6787 72.0873 26.0913 72.0873H71.9838C72.3965 72.0873 72.7322 71.7516 72.7322 71.3389V27.6167C72.7322 25.8421 71.2884 24.3989 69.5144 24.3989H28.5607V24.3984Z" fill="#001641"/>
<path d="M71.9837 72.4097H26.0917C25.5011 72.4097 25.0208 71.9294 25.0208 71.3388V27.6165C25.0208 25.6646 26.6086 24.0762 28.5611 24.0762H69.5148C71.4668 24.0762 73.0552 25.664 73.0552 27.6165V71.3393C73.0552 71.9299 72.5748 72.4103 71.9842 72.4103L71.9837 72.4097ZM28.5606 24.2399C26.6987 24.2399 25.184 25.7546 25.184 27.6165V71.3393C25.184 71.8393 25.5912 72.2465 26.0912 72.2465H71.9837C72.4837 72.2465 72.8909 71.8398 72.8909 71.3393V27.6165C72.8909 25.7546 71.3761 24.2399 69.5143 24.2399H28.5606ZM71.9837 72.1695H26.0917C25.6337 72.1695 25.2615 71.7973 25.2615 71.3393V27.6165C25.2615 25.7972 26.7418 24.3169 28.5611 24.3169H69.5148C71.3341 24.3169 72.8144 25.7972 72.8144 27.6165V71.3393C72.8144 71.7973 72.4416 72.1695 71.9842 72.1695H71.9837ZM28.5606 24.4801C26.8313 24.4801 25.4247 25.8867 25.4247 27.616V71.3388C25.4247 71.7061 25.7238 72.0052 26.0912 72.0052H71.9837C72.351 72.0052 72.6501 71.7061 72.6501 71.3388V27.6165C72.6501 25.8873 71.2435 24.4806 69.5143 24.4806H28.5606V24.4801Z" fill="#001641"/>
<path d="M38.2247 72.2075H24.0709C23.5917 72.2075 23.2019 71.8183 23.2019 71.3385L23.2019 27.6158C23.2019 25.7735 24.6976 24.2779 26.5398 24.2779H35.7553C37.5975 24.2779 39.0931 25.7735 39.0931 27.6158L39.0931 71.3385C39.0931 71.8178 38.704 72.2075 38.2242 72.2075H38.2247Z" fill="#515976"/>
<path d="M38.2246 72.328H24.0709C23.5256 72.328 23.0818 71.8842 23.0818 71.3389V27.6167C23.0818 25.71 24.6331 24.1582 26.5403 24.1582H35.7558C37.6624 24.1582 39.2143 25.7095 39.2143 27.6167V71.3395C39.2143 71.8848 38.7705 72.3285 38.2252 72.3285L38.2246 72.328ZM26.5403 24.3984C24.7657 24.3984 23.3225 25.8421 23.3225 27.6161V71.3389C23.3225 71.7516 23.6582 72.0873 24.0709 72.0873H38.2246C38.6373 72.0873 38.973 71.7516 38.973 71.3389V27.6167C38.973 25.8421 37.5292 24.3989 35.7552 24.3989H26.5403V24.3984Z" fill="#001641"/>
<path d="M38.2247 72.4097H24.0709C23.4803 72.4097 23 71.9294 23 71.3388V27.6165C23 25.6646 24.5879 24.0762 26.5404 24.0762H35.7559C37.7078 24.0762 39.2962 25.664 39.2962 27.6165V71.3393C39.2962 71.9299 38.8159 72.4103 38.2253 72.4103L38.2247 72.4097ZM26.5404 24.2399C24.6785 24.2399 23.1638 25.7546 23.1638 27.6165V71.3393C23.1638 71.8393 23.5704 72.2465 24.0709 72.2465H38.2247C38.7247 72.2465 39.1319 71.8398 39.1319 71.3393V27.6165C39.1319 25.7546 37.6172 24.2399 35.7553 24.2399H26.5404ZM38.2247 72.1695H24.0709C23.613 72.1695 23.2407 71.7973 23.2407 71.3393V27.6165C23.2407 25.7972 24.7211 24.3169 26.5404 24.3169H35.7559C37.5752 24.3169 39.0555 25.7972 39.0555 27.6165V71.3393C39.0555 71.7973 38.6827 72.1695 38.2253 72.1695H38.2247ZM26.5404 24.4801C24.8111 24.4801 23.4045 25.8867 23.4045 27.616V71.3388C23.4045 71.7061 23.7036 72.0052 24.0709 72.0052H38.2247C38.5921 72.0052 38.8912 71.7061 38.8912 71.3388V27.6165C38.8912 25.8873 37.4846 24.4806 35.7553 24.4806H26.5404V24.4801Z" fill="#001641"/>
<path d="M45.1652 51.0649L53.8676 3.73516C54.2442 1.68824 56.0269 0.201904 58.1061 0.201904H133.845C136.578 0.201904 138.621 2.71607 138.065 5.39453L129.285 50.5583L45.1652 51.0643V51.0649Z" fill="#515976"/>
<path d="M45.1651 51.1849C45.1296 51.1849 45.0958 51.1691 45.0729 51.1418C45.0499 51.1145 45.0401 51.078 45.0467 51.043L53.7496 3.71384C54.1366 1.60961 55.9685 0.0817871 58.106 0.0817871H133.845C135.183 0.0817871 136.435 0.677305 137.28 1.7155C138.126 2.75588 138.455 4.10576 138.182 5.41907L129.403 50.5812C129.392 50.6375 129.343 50.6784 129.286 50.6784L45.1657 51.1844H45.1651V51.1849ZM58.106 0.321959C56.0848 0.321959 54.3517 1.76681 53.986 3.75697L45.3098 50.9437L129.186 50.4388L137.946 5.37158C138.204 4.12759 137.893 2.85086 137.093 1.86725C136.294 0.885272 135.11 0.321959 133.845 0.321959H58.106Z" fill="#001641"/>
<path d="M45.1663 51.2669H45.1652C45.1051 51.2669 45.0489 51.2407 45.0101 51.1949C44.9714 51.1485 44.955 51.0879 44.9665 51.0284L53.6689 3.69865C54.063 1.55566 55.9292 0 58.1061 0H133.845C135.208 0 136.483 0.606435 137.343 1.66428C138.205 2.72377 138.54 4.09821 138.262 5.43608L129.484 50.5972C129.465 50.6916 129.383 50.7604 129.287 50.7609L45.1663 51.2669ZM58.1061 0.163754C56.0084 0.163754 54.2098 1.66319 53.8299 3.72867L45.1275 51.0579C45.1253 51.0693 45.1286 51.0808 45.1357 51.0895C45.1428 51.0982 45.1537 51.1032 45.1652 51.1032H45.1657L129.285 50.5972C129.303 50.5972 129.319 50.5841 129.323 50.566L138.101 5.40387C138.369 4.11349 138.047 2.78873 137.216 1.76799C136.387 0.7489 135.158 0.1643 133.845 0.1643H58.1061V0.163754ZM45.211 51.0262L45.229 50.929L53.9052 3.74232C54.2786 1.71341 56.045 0.240172 58.1061 0.240172H133.845C135.135 0.240172 136.342 0.814402 137.157 1.81548C137.973 2.8182 138.29 4.12059 138.027 5.38804L129.254 50.5197H129.187L45.2121 51.0257L45.211 51.0262ZM58.1061 0.403926C56.1241 0.403926 54.4254 1.8204 54.0663 3.77179L45.4081 50.8613L129.118 50.3575L137.866 5.35638C138.119 4.13642 137.814 2.8837 137.03 1.91919C136.247 0.956322 135.086 0.403926 133.845 0.403926H58.1061Z" fill="#001641"/>
<path d="M127.263 24.109C127.255 24.109 127.247 24.1084 127.238 24.1062C127.174 24.0926 127.132 24.0293 127.145 23.9643L131.695 1.94927C131.708 1.88431 131.772 1.84283 131.837 1.85593C131.902 1.86958 131.944 1.93289 131.93 1.99785L127.38 24.0129C127.368 24.0697 127.319 24.109 127.263 24.109Z" fill="#001641"/>
<path d="M127.263 24.1908C127.249 24.1908 127.236 24.1891 127.223 24.1869C127.113 24.164 127.043 24.057 127.065 23.9479L131.615 1.93281C131.637 1.82419 131.744 1.75323 131.854 1.77561C131.963 1.79854 132.033 1.90552 132.011 2.01469L127.461 24.0297C127.442 24.1231 127.358 24.1908 127.263 24.1908ZM131.813 1.935C131.796 1.935 131.779 1.94755 131.776 1.96556L127.226 23.9806C127.222 24.0014 127.235 24.0215 127.256 24.0259C127.273 24.0297 127.297 24.0166 127.301 23.9959L131.851 1.98085C131.855 1.96011 131.842 1.93991 131.821 1.93554C131.819 1.93554 131.815 1.935 131.813 1.935Z" fill="#001641"/>
<path d="M39.0938 72.2079V46.028C39.0938 44.004 40.8246 42.3638 42.9594 42.3638H114.573V72.2079H39.0938Z" fill="#515976"/>
<path d="M114.573 72.328H39.0936C39.027 72.328 38.9735 72.2745 38.9735 72.2079V46.0281C38.9735 43.9413 40.7617 42.2432 42.9593 42.2432H114.573C114.64 42.2432 114.693 42.2967 114.693 42.3632V72.2074C114.693 72.2739 114.639 72.3274 114.573 72.3274V72.328ZM39.2137 72.0873H114.453V42.4833H42.9593C40.8938 42.4833 39.2137 44.0734 39.2137 46.0275V72.0873Z" fill="#001641"/>
<path d="M114.573 72.4099H39.0932C38.9818 72.4099 38.8912 72.3193 38.8912 72.2079V46.0281C38.8912 43.896 40.716 42.1619 42.9589 42.1619H114.573C114.684 42.1619 114.775 42.2525 114.775 42.3638V72.2079C114.775 72.3193 114.684 72.4099 114.573 72.4099H114.573ZM42.9594 42.3251C40.8066 42.3251 39.0555 43.9861 39.0555 46.0275V72.2074C39.0555 72.2287 39.0725 72.2456 39.0937 72.2456H114.573C114.595 72.2456 114.611 72.2287 114.611 72.2074V42.3633C114.611 42.342 114.595 42.3251 114.573 42.3251H42.9594ZM114.535 72.1692H39.132V46.0275C39.132 44.0281 40.8492 42.4015 42.9594 42.4015H114.535V72.1692H114.535ZM39.2957 72.0054H114.371V42.5652H42.9594C40.9392 42.5652 39.2957 44.1187 39.2957 46.0275V72.0054Z" fill="#001641"/>
<path d="M109.351 47.1279H45.1653C45.0987 47.1279 45.0452 47.0744 45.0452 47.0078C45.0452 46.9412 45.0992 46.8877 45.1653 46.8877H109.351C109.418 46.8877 109.471 46.9412 109.471 47.0078C109.471 47.0744 109.417 47.1279 109.351 47.1279Z" fill="#001641"/>
<path d="M109.351 47.2096H45.1652C45.0539 47.2096 44.9633 47.119 44.9633 47.0076C44.9633 46.8963 45.0539 46.8057 45.1652 46.8057H109.351C109.463 46.8057 109.553 46.8963 109.553 47.0076C109.553 47.119 109.463 47.2096 109.351 47.2096ZM45.1652 46.9694C45.1439 46.9694 45.127 46.9863 45.127 47.0076C45.127 47.0289 45.1445 47.0458 45.1652 47.0458H109.351C109.372 47.0458 109.389 47.0289 109.389 47.0076C109.389 46.9863 109.372 46.9694 109.351 46.9694H45.1652Z" fill="#001641"/>
<path d="M72.1916 12.0441C72.1916 12.0441 72.9482 12.8115 81.471 22.027L107.41 22.4522C110.05 22.5909 112.624 22.3469 115.129 23.1913C115.129 23.1913 116.871 18.5063 120.985 18.3267C127.774 18.0298 131.791 21.777 129.98 28.009C128.634 32.6421 122.574 34.1481 122.574 34.1481L124.587 36.8762C126.243 39.1207 124.642 42.2959 121.855 42.2959L106.006 42.5716C105.06 42.5716 104.279 41.4144 104.494 40.493L90.0108 41.0809C90.0108 41.0809 89.2286 41.6491 88.3629 41.9935C87.4016 42.3762 85.5741 42.5077 85.5741 42.5077L77.1272 42.5208L73.7877 50.7811C73.4062 51.7254 72.4455 52.3029 71.4335 52.1965C70.041 52.0502 69.1071 50.6948 69.4651 49.3395L71.2397 42.3625L68.1164 50.4132C67.8009 51.227 66.9799 51.7281 66.1126 51.637C64.9308 51.5131 64.1399 50.3608 64.4472 49.2118L67.2971 38.5514C67.6699 37.1568 68.6649 36.0127 69.993 35.451C69.993 35.451 71.1818 27.5439 68.4586 23.5892C66.9777 21.4386 72.1906 12.043 72.1906 12.043L72.1916 12.0441Z" fill="#D7E3FF"/>
<path d="M71.2408 42.4831C71.2271 42.4831 71.2129 42.4809 71.1993 42.4754C71.137 42.4525 71.1054 42.3832 71.1283 42.321L72.315 39.1136C72.9116 37.6524 74.1867 36.5967 75.7287 36.285L80.4372 35.3336C80.5027 35.32 80.5654 35.3625 80.5785 35.4275C80.5916 35.4924 80.5496 35.5558 80.4847 35.5694L75.7762 36.5208C74.3139 36.8161 73.1037 37.8183 72.5393 39.2009L71.3537 42.4045C71.3357 42.4531 71.2899 42.4831 71.2408 42.4831Z" fill="#515976"/>
<path d="M71.2407 42.565C71.2162 42.565 71.1927 42.5606 71.1703 42.5524C71.0661 42.5142 71.0126 42.3974 71.0513 42.2931L72.2385 39.0857C72.8461 37.5978 74.1441 36.5219 75.7128 36.2053L80.4213 35.2539C80.4743 35.243 80.5283 35.2539 80.5731 35.2834C80.6184 35.3134 80.6489 35.3587 80.6593 35.4122C80.6811 35.5214 80.6107 35.6284 80.5015 35.6502L75.7931 36.6016C74.3575 36.8914 73.1697 37.8751 72.6157 39.232L71.4312 42.4329C71.4018 42.512 71.3259 42.565 71.2418 42.565H71.2407ZM80.4612 35.4138C80.4612 35.4138 80.4562 35.4138 80.4535 35.4144L75.7445 36.3658C74.2298 36.6715 72.976 37.7108 72.3908 39.1452L71.2047 42.3499C71.1976 42.3695 71.2074 42.3919 71.2271 42.399C71.2446 42.4056 71.268 42.3996 71.2762 42.3766L72.4618 39.1731C73.0377 37.7626 74.2702 36.7424 75.7598 36.4411L80.4682 35.4897C80.489 35.4853 80.5021 35.4651 80.4983 35.4444C80.4961 35.434 80.4906 35.4253 80.4819 35.4198C80.4781 35.4171 80.471 35.4138 80.4612 35.4138Z" fill="#515976"/>
<path d="M69.2741 25.5744C69.2741 25.5744 73.6021 28.1476 79.9754 21.3381C79.9754 21.3381 75.6469 27.6678 71.981 28.5984C69.2255 29.2982 69.2741 25.5744 69.2741 25.5744Z" fill="#515976"/>
<path d="M71.3303 28.8064C70.8974 28.8064 70.5208 28.6814 70.2042 28.432C69.1392 27.5925 69.1523 25.6552 69.1534 25.5728C69.154 25.5297 69.1775 25.4904 69.2146 25.4697C69.2517 25.4484 69.2975 25.4489 69.3347 25.4708C69.345 25.4773 70.4176 26.0952 72.2407 25.8878C73.9307 25.6956 76.6288 24.736 79.8864 21.2557C79.9295 21.2099 80.0005 21.205 80.0491 21.2443C80.0982 21.2836 80.1086 21.354 80.0731 21.4058C79.8951 21.6657 75.6768 27.784 72.0088 28.7153C71.7691 28.7764 71.5421 28.8064 71.3292 28.8064H71.3303ZM69.3996 25.7721C69.4253 26.277 69.5683 27.6252 70.3538 28.2436C70.7642 28.5668 71.3013 28.647 71.9509 28.4822C74.5044 27.8337 77.4246 24.4735 78.9055 22.5767C76.1037 25.1842 73.7757 25.9604 72.2478 26.1296C70.7779 26.2922 69.791 25.9478 69.3996 25.7721Z" fill="#515976"/>
<path d="M92.5549 27.8647C92.4971 27.8647 92.4463 27.8227 92.4365 27.7643C91.9534 24.8342 90.7864 22.8015 86.6598 22.4057C86.5938 22.3992 86.5452 22.3408 86.5517 22.2747C86.5583 22.2087 86.6167 22.1585 86.6827 22.1666C90.9622 22.5771 92.1729 24.6857 92.6739 27.725C92.6849 27.7905 92.6406 27.8522 92.5751 27.8631C92.5686 27.8642 92.562 27.8647 92.5555 27.8647H92.5549Z" fill="#515976"/>
<path d="M92.5549 27.9468C92.4556 27.9468 92.3721 27.8758 92.3557 27.7776C91.8786 24.8846 90.7264 22.8781 86.6516 22.4872C86.5408 22.4763 86.4589 22.3775 86.4698 22.2667C86.4753 22.2121 86.5026 22.1614 86.5452 22.1275C86.5872 22.0937 86.6402 22.079 86.6926 22.0855C91.0222 22.5009 92.2476 24.6351 92.7547 27.7121C92.7727 27.8218 92.6979 27.9261 92.5882 27.9446C92.5779 27.9462 92.5659 27.9468 92.5549 27.9468ZM86.6696 22.2482C86.6593 22.2482 86.6522 22.252 86.6478 22.2558C86.6396 22.2624 86.6341 22.2722 86.6331 22.2831C86.6309 22.3038 86.6467 22.3229 86.6674 22.3246C90.8464 22.7252 92.0282 24.7836 92.5173 27.7514C92.5205 27.7716 92.5397 27.7869 92.5604 27.783C92.5822 27.7792 92.5964 27.7596 92.5931 27.7388C92.0981 24.7367 90.9027 22.6537 86.6751 22.2487L86.6696 22.2482Z" fill="#515976"/>
<path d="M121.235 32.2014C119.237 32.2014 116.642 31.5354 115.455 29.4836C113.908 26.8095 114.976 23.4427 114.987 23.4089C115.008 23.3461 115.076 23.3112 115.138 23.3319C115.202 23.3527 115.236 23.4203 115.215 23.4837C115.205 23.5164 114.17 26.7838 115.663 29.3635C117.041 31.7461 120.43 32.1741 122.371 31.8809C123.361 31.7314 124.055 31.3968 124.139 31.0283C124.198 30.7696 123.93 30.5234 123.694 30.363C122.989 29.8815 122.584 29.2685 122.49 28.5409C122.285 26.9563 123.615 25.3996 123.672 25.3341C123.715 25.2839 123.791 25.2784 123.841 25.3221C123.892 25.3657 123.897 25.4416 123.853 25.4918C123.84 25.5071 122.536 27.0338 122.728 28.5109C122.813 29.167 123.185 29.7232 123.83 30.1643C124.369 30.5322 124.424 30.8662 124.375 31.0818C124.265 31.5616 123.53 31.9492 122.408 32.1189C122.058 32.1719 121.66 32.2019 121.237 32.2019L121.235 32.2014Z" fill="#515976"/>
<path d="M121.235 32.2831C120.237 32.2831 116.865 32.0844 115.384 29.5244C113.818 26.8176 114.898 23.4175 114.909 23.3837C114.925 23.3324 114.961 23.2909 115.009 23.2663C115.057 23.2417 115.112 23.2374 115.164 23.2543C115.27 23.2887 115.328 23.4028 115.294 23.5092C115.283 23.5414 114.26 26.7755 115.734 29.3225C117.092 31.6696 120.44 32.0899 122.36 31.7995C123.301 31.657 123.985 31.3399 124.06 31.0097C124.111 30.7848 123.824 30.5501 123.648 30.43C122.923 29.9349 122.506 29.3028 122.409 28.5506C122.199 26.93 123.552 25.3465 123.61 25.2799C123.645 25.239 123.694 25.2144 123.748 25.2106C123.801 25.2068 123.854 25.2243 123.895 25.2592C123.936 25.2941 123.96 25.3438 123.964 25.3973C123.968 25.4513 123.95 25.5032 123.915 25.5441C123.903 25.5589 122.623 27.0638 122.81 28.4993C122.892 29.1314 123.251 29.6685 123.877 30.0954C124.454 30.4889 124.509 30.8585 124.454 31.0992C124.337 31.6128 123.576 32.0239 122.42 32.1985C122.051 32.2542 121.653 32.2826 121.236 32.2826L121.235 32.2831ZM115.101 23.4077C115.093 23.4077 115.087 23.4099 115.084 23.412C115.078 23.4148 115.069 23.4213 115.065 23.4344C115.054 23.4677 113.997 26.8007 115.525 29.4426C116.962 31.9261 120.259 32.1194 121.235 32.1194C121.644 32.1194 122.034 32.0915 122.395 32.037C123.466 31.8754 124.193 31.502 124.293 31.0626C124.355 30.7892 124.179 30.5015 123.783 30.2308C123.117 29.7761 122.734 29.2007 122.646 28.5206C122.45 27.0119 123.776 25.453 123.79 25.4371C123.799 25.4268 123.8 25.4153 123.799 25.4093C123.799 25.4033 123.796 25.3924 123.786 25.3831C123.776 25.3738 123.764 25.3733 123.758 25.3738C123.752 25.3738 123.741 25.3765 123.732 25.3869C123.676 25.4513 122.368 26.9808 122.569 28.5293C122.661 29.2329 123.054 29.8268 123.739 30.2941C124.107 30.5452 124.273 30.805 124.218 31.0457C124.125 31.4534 123.421 31.8039 122.383 31.9611C120.419 32.258 116.99 31.8219 115.591 29.4038C114.08 26.7919 115.126 23.4906 115.137 23.4579C115.144 23.4377 115.133 23.4159 115.113 23.4093C115.108 23.4082 115.104 23.4077 115.101 23.4077Z" fill="#515976"/>
<path d="M104.505 40.4495H104.503C104.437 40.4484 104.384 40.3944 104.384 40.3278C104.385 40.2792 104.408 39.1171 105.218 37.6176C105.963 36.2405 107.545 34.3131 110.852 32.9501C112.549 32.2509 114.451 31.967 116.504 32.1057C116.57 32.1101 116.62 32.1674 116.616 32.234C116.612 32.3 116.555 32.3486 116.488 32.3459C114.471 32.2094 112.606 32.4872 110.944 33.1723C104.75 35.7241 104.626 40.2846 104.625 40.3305C104.624 40.3965 104.57 40.4495 104.505 40.4495Z" fill="#515976"/>
<path d="M104.505 40.5311H104.503C104.391 40.5295 104.302 40.4378 104.303 40.327C104.303 40.2773 104.327 39.095 105.146 37.5787C105.897 36.19 107.491 34.2463 110.821 32.8746C112.529 32.171 114.443 31.8844 116.509 32.0241C116.621 32.0318 116.705 32.1284 116.697 32.2392C116.689 32.3495 116.597 32.4319 116.484 32.4275C114.478 32.2916 112.625 32.5678 110.974 33.2479C104.847 35.7725 104.708 40.2861 104.707 40.3314C104.705 40.4416 104.615 40.5311 104.505 40.5311ZM115.504 32.1535C113.841 32.1535 112.291 32.4455 110.883 33.0258C107.598 34.3795 106.029 36.291 105.291 37.6562C104.49 39.1371 104.467 40.2806 104.466 40.3281C104.466 40.3494 104.483 40.3668 104.504 40.3668C104.525 40.3668 104.542 40.3499 104.542 40.3292C104.542 40.2828 104.668 35.6688 110.911 33.0967C112.585 32.4068 114.463 32.1268 116.492 32.2643C116.514 32.2649 116.532 32.2496 116.533 32.2288C116.535 32.2075 116.519 32.1895 116.497 32.1879C116.162 32.165 115.83 32.1541 115.503 32.1541L115.504 32.1535Z" fill="#515976"/>
<path d="M90.1254 41.0999C90.0915 41.0999 90.0577 41.0857 90.0337 41.0579C89.9905 41.0077 89.9966 40.9318 90.0468 40.8887C92.8994 38.4498 89.8372 33.0498 89.8055 32.9952C89.7722 32.9379 89.7919 32.8642 89.8497 32.8309C89.9076 32.7976 89.9807 32.8172 90.014 32.8751C90.1461 33.1038 93.2072 38.5022 90.2029 41.071C90.18 41.0901 90.1527 41.0999 90.1248 41.0999H90.1254Z" fill="#515976"/>
<path d="M90.1253 41.1819C90.0663 41.1819 90.0101 41.1563 89.9713 41.1109C89.9364 41.07 89.9195 41.0176 89.9233 40.9641C89.9277 40.9101 89.9522 40.8615 89.9937 40.826C92.7901 38.4352 89.7655 33.0897 89.735 33.0357C89.7082 32.9893 89.7011 32.9347 89.7148 32.8823C89.729 32.8299 89.7623 32.7868 89.8092 32.7595C89.8556 32.7322 89.9102 32.7251 89.9626 32.7393C90.015 32.7535 90.0581 32.7868 90.0854 32.8337C90.2186 33.0646 93.313 38.5198 90.2568 41.1328C90.2202 41.1639 90.1738 41.1814 90.1258 41.1814L90.1253 41.1819ZM89.9102 32.8965C89.9047 32.8965 89.8982 32.8976 89.8911 32.9014C89.8791 32.9085 89.8747 32.9189 89.8731 32.9249C89.8714 32.9309 89.8698 32.9418 89.8769 32.9538C89.9086 33.009 92.9986 38.4718 90.1002 40.9505C90.0898 40.9592 90.0871 40.9707 90.0871 40.9767C90.0871 40.9827 90.087 40.9941 90.0963 41.0045C90.1062 41.0165 90.1193 41.0182 90.1258 41.0182C90.1324 41.0182 90.1416 41.0165 90.1509 41.0089C93.105 38.4832 90.0745 33.1422 89.944 32.9162C89.9369 32.9042 89.9266 32.8998 89.9206 32.8982C89.9184 32.8976 89.9146 32.8971 89.9107 32.8971L89.9102 32.8965Z" fill="#515976"/>
<path d="M62.2768 13.9312L61.4684 14.6817C60.3188 15.7494 59.6409 17.2308 59.583 18.8007L59.5699 19.1577C59.5426 19.9071 59.8139 20.6375 60.3237 21.1877L61.3194 22.2613L58.9706 26.9371C58.6813 27.5129 58.7801 28.2089 59.2189 28.6827L59.6431 29.1401C60.2779 29.8251 61.2102 30.151 62.1316 30.0107L63.0104 29.877C63.3805 30.9223 64.5322 31.4643 65.571 31.0817C66.5409 30.7247 67.3619 30.0511 67.9023 29.1701L69.1408 27.151C70.8291 24.3989 71.6986 21.2215 71.6479 17.9906L71.6135 15.7854C71.6135 15.7854 68.2702 12.0884 68.0748 11.9814C67.9601 11.9187 66.3985 12.2145 65.1283 12.47C64.0611 12.6845 63.0748 13.1905 62.2768 13.9312Z" fill="#D7E3FF"/>
<path d="M69.3658 26.8934C69.3456 26.8934 69.3248 26.8885 69.3057 26.877C69.2484 26.8438 69.2288 26.7706 69.2621 26.7127C70.1643 25.1527 70.8084 23.4661 71.1758 21.7002C71.1894 21.6353 71.2522 21.5938 71.3177 21.6069C71.3827 21.6206 71.4242 21.6844 71.4111 21.7494C71.0382 23.5403 70.3854 25.251 69.47 26.8334C69.4477 26.8721 69.4073 26.8934 69.3658 26.8934Z" fill="#515976"/>
<path d="M69.3657 26.9752C69.3302 26.9752 69.2953 26.966 69.2647 26.9479C69.1687 26.8923 69.1354 26.7684 69.1911 26.6718C70.089 25.1194 70.7298 23.4409 71.0955 21.6833C71.1179 21.5746 71.2249 21.5042 71.334 21.5266C71.4432 21.5495 71.5136 21.6565 71.4913 21.7657C71.1168 23.5653 70.4607 25.2842 69.5409 26.8743C69.5049 26.9365 69.4378 26.9752 69.3657 26.9752ZM71.2931 21.686C71.2751 21.686 71.2593 21.698 71.256 21.7166C70.887 23.4911 70.2396 25.186 69.333 26.7536C69.3226 26.7716 69.3286 26.7957 69.3472 26.806C69.3625 26.8148 69.3865 26.8153 69.3996 26.7918C70.3106 25.2171 70.9601 23.5146 71.3308 21.7318C71.3351 21.7111 71.3215 21.6909 71.3008 21.6865C71.298 21.6865 71.2953 21.686 71.2931 21.686Z" fill="#515976"/>
<path d="M63.0073 13.3865L63.7862 12.4225C64.2098 11.8979 64.8195 11.5573 65.4881 11.4705L66.9232 11.285L67.7135 10.5508C68.2719 10.0322 69.0285 9.78279 69.7861 9.86685L70.2643 9.9198C71.3041 10.035 72.2162 10.6698 72.6873 11.6054L74.3477 14.9045C74.6665 15.5382 74.8445 16.2336 74.8685 16.9421L75.0082 21.0419L73.5557 20.9464C72.2648 20.8618 71.059 20.2679 70.2026 19.2958L65.9892 14.5125C65.469 13.9219 64.7441 13.5519 63.9614 13.4771L63.0067 13.3859L63.0073 13.3865Z" fill="#D7E3FF"/>
<path d="M75.0092 21.162C75.0092 21.162 75.0038 21.162 75.0016 21.162L73.5491 21.0664C72.2172 20.9791 70.9967 20.3781 70.1135 19.3754L65.9002 14.5922C65.3985 14.0223 64.7064 13.6691 63.9509 13.5971L63.1153 13.5174C63.0492 13.5114 63.0006 13.4524 63.0072 13.3864C63.0137 13.3204 63.0721 13.2696 63.1382 13.2783L63.9739 13.358C64.7899 13.4355 65.5383 13.8176 66.0803 14.4333L70.2937 19.2166C71.1348 20.1713 72.2964 20.7433 73.5644 20.8268L74.8842 20.9136L74.7489 16.9464C74.7254 16.2597 74.5496 15.5725 74.2407 14.9584L73.7751 14.0338C73.7451 13.9743 73.7691 13.9022 73.8286 13.8722C73.8881 13.8422 73.9601 13.8662 73.9901 13.9257L74.4557 14.8504C74.7805 15.495 74.965 16.2172 74.9896 16.9377L75.1293 21.0375C75.1304 21.0714 75.1173 21.1041 75.0927 21.1281C75.0704 21.15 75.0403 21.162 75.0092 21.162Z" fill="#515976"/>
<path d="M75.0092 21.2437H74.9994L73.5436 21.1476C72.1899 21.0586 70.9497 20.4484 70.0518 19.4293L65.8384 14.6466C65.3504 14.0926 64.6774 13.7487 63.9433 13.6788L63.1076 13.5991C63.0541 13.5942 63.0055 13.5686 62.9711 13.5265C62.9367 13.485 62.9209 13.4326 62.9258 13.3786C62.9307 13.324 62.9586 13.2727 63.0011 13.2389C63.0432 13.205 63.095 13.1903 63.1485 13.1968L63.982 13.2765C64.8188 13.3562 65.5857 13.7476 66.1425 14.3791L70.3559 19.1624C71.1823 20.1007 72.3242 20.6629 73.5709 20.7448L74.8001 20.8256L74.668 16.949C74.6451 16.2743 74.4726 15.5986 74.1686 14.9954L73.703 14.0707C73.6528 13.9714 73.6932 13.8497 73.7925 13.7994C73.8924 13.7492 74.0141 13.7896 74.0638 13.889L74.5294 14.8136C74.8591 15.4686 75.0468 16.2023 75.072 16.9353L75.2117 21.0352C75.2139 21.0919 75.1915 21.1476 75.1506 21.1875C75.1129 21.224 75.0621 21.2437 75.0092 21.2437ZM63.1245 13.3589C63.1141 13.3589 63.1076 13.3628 63.1032 13.366C63.095 13.3726 63.0896 13.383 63.0885 13.3933C63.0874 13.407 63.0934 13.4168 63.0972 13.4212C63.101 13.4255 63.1092 13.4337 63.1229 13.4348L63.9585 13.5145C64.7342 13.5882 65.4454 13.9517 65.9612 14.5369L70.1746 19.3196C71.0436 20.3059 72.2439 20.8971 73.554 20.9828L75.0086 21.0783C75.0185 21.0783 75.0283 21.0745 75.0354 21.0674C75.043 21.0597 75.0474 21.0494 75.0468 21.0385L74.9071 16.9386C74.8831 16.2296 74.7013 15.5194 74.382 14.8851L73.9164 13.9605C73.9071 13.9414 73.8837 13.9343 73.8645 13.9435C73.846 13.9528 73.8383 13.9763 73.8476 13.9949L74.3132 14.9195C74.6276 15.544 74.8061 16.2432 74.8301 16.9413L74.9688 20.9986L73.5589 20.9058C72.269 20.8212 71.0873 20.2393 70.2319 19.2683L66.0186 14.485C65.4896 13.8846 64.7609 13.5129 63.9656 13.437L63.1299 13.3573H63.1245V13.3589Z" fill="#515976"/>
<path d="M61.4195 29.2829C61.3567 29.2829 61.3038 29.2344 61.2999 29.1705C61.2956 29.1045 61.3458 29.0471 61.4118 29.0428L63.5439 28.9003C64.4953 28.837 65.3305 28.2955 65.7775 27.4527L67.6541 23.9102C67.6853 23.8512 67.7578 23.8289 67.8168 23.86C67.8752 23.8911 67.8976 23.9637 67.867 24.0226L65.9904 27.5652C65.5041 28.4827 64.5958 29.0712 63.5603 29.1405L61.4282 29.2829C61.4282 29.2829 61.4228 29.2829 61.42 29.2829H61.4195Z" fill="#515976"/>
<path d="M61.4194 29.3649C61.3135 29.3649 61.2251 29.2819 61.218 29.176C61.2104 29.0652 61.295 28.9686 61.4063 28.961L63.5384 28.8185C64.4614 28.7568 65.2715 28.2317 65.7049 27.414L67.5815 23.8715C67.6333 23.7733 67.7561 23.7356 67.8544 23.7874C67.9532 23.8398 67.9909 23.9621 67.9385 24.0604L66.0618 27.6029C65.5624 28.5456 64.629 29.1504 63.5651 29.2213L61.4194 29.3644V29.3649ZM67.76 23.9283C67.7463 23.9283 67.7332 23.9359 67.7261 23.949L65.8495 27.4916C65.3894 28.36 64.5297 28.9173 63.5493 28.9828L61.4172 29.1253C61.396 29.1269 61.3801 29.1449 61.3818 29.1662C61.3829 29.1864 61.3998 29.2022 61.42 29.2022H61.4249L63.5548 29.0598C64.5619 28.9926 65.445 28.42 65.9177 27.5281L67.7944 23.9856C67.8042 23.967 67.7971 23.9436 67.7785 23.9337C67.7725 23.9305 67.7665 23.9294 67.7605 23.9294L67.76 23.9283Z" fill="#515976"/>
<path d="M141.98 72.2075H111.987C111.507 72.2075 111.118 71.8183 111.118 71.3385V27.6158C111.118 25.7735 112.613 24.2779 114.455 24.2779H139.51C141.353 24.2779 142.848 25.7735 142.848 27.6158V71.3385C142.848 71.8178 142.459 72.2075 141.979 72.2075H141.98Z" fill="#515976"/>
<path d="M141.98 72.3278H111.986C111.441 72.3278 110.997 71.884 110.997 71.3387V27.6165C110.997 26.0936 112.017 24.729 113.477 24.2988C113.54 24.2797 113.607 24.3163 113.626 24.3802C113.644 24.444 113.608 24.5106 113.544 24.5292C112.186 24.9293 111.237 26.1989 111.237 27.6165V71.3393C111.237 71.7519 111.573 72.0876 111.986 72.0876H141.979C142.392 72.0876 142.728 71.7519 142.728 71.3393V27.6165C142.728 25.8419 141.284 24.3987 139.509 24.3987L130.489 24.3583C130.422 24.3583 130.369 24.3038 130.369 24.2377C130.369 24.1717 130.423 24.1182 130.489 24.1182L139.509 24.1586C141.416 24.1586 142.967 25.7099 142.967 27.617V71.3398C142.967 71.8851 142.524 72.3289 141.978 72.3289L141.98 72.3278Z" fill="#001641"/>
<path d="M141.98 72.4096H111.986C111.396 72.4096 110.916 71.9292 110.916 71.3386V27.6164C110.916 26.0575 111.959 24.6606 113.454 24.2201C113.504 24.2049 113.559 24.2103 113.607 24.236C113.655 24.2616 113.69 24.3047 113.705 24.3571C113.72 24.409 113.714 24.4636 113.688 24.5111C113.663 24.5586 113.62 24.593 113.568 24.6082C112.244 24.9985 111.319 26.2354 111.319 27.6169V71.3397C111.319 71.7071 111.619 72.0062 111.986 72.0062H141.98C142.347 72.0062 142.647 71.7071 142.647 71.3397V27.6164C142.647 25.8872 141.239 24.4805 139.51 24.4805L130.489 24.4401C130.378 24.4396 130.288 24.3484 130.288 24.2371C130.288 24.1263 130.379 24.0356 130.49 24.0356L139.51 24.076C141.462 24.076 143.05 25.6639 143.05 27.6164V71.3392C143.05 71.9298 142.57 72.4101 141.979 72.4101L141.98 72.4096ZM113.511 24.3752C113.508 24.3752 113.504 24.3752 113.501 24.3768C112.075 24.7971 111.079 26.129 111.079 27.6158V71.3386C111.079 71.8386 111.486 72.2458 111.986 72.2458H141.98C142.48 72.2458 142.887 71.8392 142.887 71.3386V27.6164C142.887 25.7545 141.372 24.2398 139.51 24.2398L130.49 24.1994C130.469 24.1994 130.452 24.2163 130.451 24.2376C130.451 24.2589 130.468 24.2758 130.49 24.2764L139.51 24.3168C141.329 24.3168 142.81 25.7971 142.81 27.6164V71.3392C142.81 71.7971 142.437 72.1694 141.979 72.1694H111.986C111.528 72.1694 111.155 71.7971 111.155 71.3392V27.6164C111.155 26.1628 112.128 24.8615 113.521 24.451C113.534 24.4472 113.541 24.4379 113.544 24.4325C113.547 24.427 113.551 24.4166 113.547 24.4035C113.543 24.3899 113.533 24.3833 113.528 24.3801C113.525 24.3779 113.519 24.3757 113.511 24.3757V24.3752Z" fill="#001641"/>
<path d="M124.119 72.2075H109.965C109.486 72.2075 109.096 71.8183 109.096 71.3385V27.6158C109.096 25.7735 110.592 24.2779 112.434 24.2779H121.65C123.492 24.2779 124.987 25.7735 124.987 27.6158V71.3385C124.987 71.8178 124.598 72.2075 124.118 72.2075H124.119Z" fill="#515976"/>
<path d="M124.119 72.3277H109.966C109.42 72.3277 108.977 71.8839 108.977 71.3386V42.518C108.977 42.4514 109.031 42.3979 109.097 42.3979C109.163 42.3979 109.217 42.4514 109.217 42.518V71.3386C109.217 71.7513 109.553 72.087 109.966 72.087H124.119C124.532 72.087 124.868 71.7513 124.868 71.3386V27.6164C124.868 25.8418 123.424 24.3986 121.649 24.3986C121.582 24.3986 121.529 24.3451 121.529 24.2785C121.529 24.2119 121.583 24.1584 121.649 24.1584C123.556 24.1584 125.108 25.7097 125.108 27.6169V71.3397C125.108 71.885 124.664 72.3288 124.119 72.3288V72.3277Z" fill="#001641"/>
<path d="M124.119 72.4097H109.966C109.375 72.4097 108.895 71.9293 108.895 71.3387V42.5181C108.895 42.4067 108.985 42.3161 109.097 42.3161C109.208 42.3161 109.299 42.4067 109.299 42.5181V71.3387C109.299 71.7061 109.598 72.0052 109.966 72.0052H124.119C124.487 72.0052 124.786 71.7061 124.786 71.3387V27.6165C124.786 25.8872 123.379 24.4806 121.649 24.4806C121.538 24.4806 121.447 24.39 121.447 24.2786C121.447 24.1673 121.538 24.0767 121.649 24.0767C123.601 24.0767 125.19 25.6645 125.19 27.617V71.3398C125.19 71.9304 124.71 72.4107 124.119 72.4107V72.4097ZM109.097 42.4798C109.075 42.4798 109.059 42.4968 109.059 42.5181V71.3387C109.059 71.8387 109.466 72.2459 109.966 72.2459H124.119C124.619 72.2459 125.026 71.8392 125.026 71.3387V27.6165C125.026 25.7546 123.511 24.2399 121.649 24.2399C121.628 24.2399 121.611 24.2568 121.611 24.2781C121.611 24.2994 121.628 24.3163 121.649 24.3163C123.469 24.3163 124.95 25.7966 124.95 27.6159V71.3387C124.95 71.7967 124.577 72.1689 124.119 72.1689H109.966C109.508 72.1689 109.135 71.7967 109.135 71.3387V42.5181C109.135 42.4968 109.117 42.4798 109.097 42.4798Z" fill="#001641"/>
<defs>
<filter id="filter0_f_4234_2933" x="0.15" y="33.7347" width="168.7" height="66.7" filterUnits="userSpaceOnUse" color-interpolation-filters="sRGB">
<feFlood flood-opacity="0" result="BackgroundImageFix"/>
<feBlend mode="normal" in="SourceGraphic" in2="BackgroundImageFix" result="shape"/>
<feGaussianBlur stdDeviation="3.925" result="effect1_foregroundBlur_4234_2933"/>
</filter>
</defs>
</svg>
