<svg width="513" height="512" viewBox="0 0 513 512" fill="none" xmlns="http://www.w3.org/2000/svg">
	<path d="M403.494 251.036C408.692 235.157 396.688 218.9 379.77 218.9L198.013 218.522C196.595 218.522 195.461 219.373 195.083 220.602L128.448 435.912C127.692 438.275 129.866 440.922 132.513 440.922L258.032 441.394C272.965 441.394 286.576 438.464 299.052 432.415C311.434 426.46 322.776 418.332 332.889 408.124C343.003 397.916 351.793 386.196 359.165 372.869C366.537 359.542 372.587 345.648 377.123 330.998L403.494 250.942V251.036ZM456.234 330.809C448.389 356.045 437.331 379.674 422.964 401.697C408.692 423.719 392.341 442.906 374.099 459.258C355.857 475.609 336.197 488.558 315.215 497.915C294.232 507.273 273.154 511.998 251.982 511.998L31.4737 511.526C28.8272 511.526 26.6533 508.879 27.4094 506.517L139.034 149.336C139.412 148.107 140.547 147.256 141.964 147.256L348.485 147.729H417.955C465.213 147.729 499.051 192.719 485.251 237.237L456.14 330.714L456.234 330.809Z"
		  fill="white"/>
	<path d="M88.0901 124.005L5.29297 41.5861C4.25328 40.641 3.02455 40.7355 2.93004 40.7355C1.32324 40.7355 0 42.0587 0 43.6655V406.045C0 407.651 1.32324 408.975 2.93004 408.975C4.15876 408.975 5.29297 408.124 5.67104 406.99C5.76555 406.895 5.76555 406.706 5.86007 406.517C5.86007 406.423 6.0491 405.667 6.0491 405.572L89.6024 131.567C90.642 128.637 90.6421 126.557 88.0901 124.005Z"
		  fill="white"/>
	<path d="M40.8309 5.57569L127.976 93.7603C130.055 95.8397 132.04 96.3123 135.159 96.3123H509.447C511.999 96.3123 513.417 93.0042 510.96 90.6412L424.476 3.11824C420.696 -0.567933 420.412 -0.000829861 416.253 -0.000829861H42.8158C41.209 -0.000829861 39.8857 1.32241 39.8857 2.92921C39.8857 3.02372 39.7912 4.34696 40.9254 5.48117C40.8309 5.38665 40.8309 5.48117 40.9254 5.48117L40.8309 5.57569Z"
		  fill="white"/>
</svg>
