<svg width="548" height="548" viewBox="0 0 548 548" fill="none" xmlns="http://www.w3.org/2000/svg">
<path d="M347.399 151.028H150.574C149.259 151.028 148.163 151.795 147.725 153.001V153.11C147.615 153.658 126.793 222.139 126.793 222.139C126.136 224.331 127.889 226.851 130.3 226.96C130.3 226.96 130.3 226.96 130.41 226.96H215.89C219.068 226.96 221.151 231.014 218.849 232.987L135.67 308.919C134.684 309.795 134.465 311.329 135.122 312.644L157.04 358.992C157.917 360.964 160.218 361.841 161.972 360.964C170.301 356.91 179.068 354.938 188.164 354.938C196.602 354.938 203.726 356.472 209.534 359.649C215.342 362.717 219.836 366.991 223.123 372.25C226.411 377.619 228.274 383.755 228.712 390.986C229.151 398.218 228.164 405.778 225.644 413.777C223.233 421.447 219.507 428.898 214.466 436.02C209.424 443.142 203.945 449.716 197.041 454.756C121.204 508.774 77.5871 453.661 62.9019 443.251C60.9293 441.827 58.5183 442.484 57.8608 444.457L41.9701 493.763C41.751 494.53 41.751 495.407 42.1893 496.283C46.7921 506.144 53.0388 514.801 60.8197 522.142C69.4774 530.25 79.6693 536.495 91.3955 541.097C103.122 545.699 116.382 548 130.958 548C149.698 548 168.218 544.384 186.849 537.262C205.37 530.14 222.685 520.279 238.795 507.898C254.795 495.407 269.042 481.053 281.316 464.727C293.59 448.401 302.686 430.98 308.604 412.243C315.837 389.562 317.59 368.415 313.864 348.802C310.138 329.189 301.371 312.973 287.453 300.153C278.576 292.264 267.507 286.566 254.247 282.951C251.507 282.184 250.302 278.896 252.055 277.143L340.166 189.597C340.495 189.268 340.714 188.83 340.823 188.392L351.125 155.959C351.892 153.548 349.81 151.028 347.399 151.028Z" fill="white"/>
<path d="M543.458 151.028H421.922C420.388 151.028 419.182 151.905 418.744 153.22L397.812 221.591C397.045 224.111 399.347 226.96 402.086 226.96H436.388C439.237 226.96 441.429 229.809 440.662 232.329L347.291 535.728C346.524 538.248 348.825 541.097 351.565 541.097H426.854C428.388 541.097 429.594 540.221 430.032 538.906L547.842 156.397C548.609 153.877 546.307 151.028 543.458 151.028Z" fill="white"/>
<path d="M94.2478 132.511L5.69871 44.5267C4.6028 43.5405 3.28772 43.6501 3.17812 43.6501C1.42468 43.6501 0 45.0745 0 46.8276V434.157C0 435.911 1.42468 437.335 3.17812 437.335C4.49321 437.335 5.69871 436.458 6.13707 435.253C6.24666 435.144 6.24666 434.924 6.35625 434.705C6.35625 434.596 6.57543 433.829 6.57543 433.719L95.8917 140.62C96.9876 137.442 96.9876 135.251 94.2478 132.511Z" fill="white"/>
<path d="M43.7294 5.95787L136.991 100.298C139.183 102.489 141.374 103.037 144.662 103.037H544.996C547.736 103.037 549.27 99.5306 546.64 97.0105L454.036 3.32819C449.981 -0.616331 449.653 0.0410887 445.269 0.0410887C445.269 0.0410887 45.9212 0.0410887 45.8116 0.0410887C44.0581 0.0410887 42.6335 1.4655 42.6335 3.21862C42.6335 3.32819 42.5239 4.7526 43.7294 5.95787C43.6198 5.95787 43.6198 5.8483 43.7294 5.95787Z" fill="white"/>
</svg>
