<svg id="Logo" xmlns="http://www.w3.org/2000/svg" viewBox="0 0 800 107.5">
  <title>logo_WebStorm</title>
  <g>
    <g>
      <path d="M172.73,150.6h23.91l21,68.67,22.75-69h19.12l22.75,69,21-68.67h23.32L292,252.74H272.55l-22.89-66.35-22.89,66.35H207.36Z" transform="translate(-50 -146.25)"/>
      <path d="M311.81,213.62v-0.29c0-22.17,15.79-40.42,38.39-40.42,25.93,0,37.81,20.14,37.81,42.16,0,1.74-.14,3.77-0.29,5.8h-54c2.17,10,9.13,15.21,19,15.21,7.39,0,12.75-2.32,18.83-8l12.6,11.16c-7.24,9-17.67,14.49-31.73,14.49C329,253.75,311.81,237.38,311.81,213.62Zm54.76-6.52c-1.3-9.85-7.1-16.52-16.37-16.52s-15.07,6.52-16.81,16.52h33.18Z" transform="translate(-50 -146.25)"/>
      <path d="M413.65,241.87V252h-22V146.25h22v39.26c5.36-7.24,12.75-12.6,24.2-12.6,18.11,0,35.35,14.2,35.35,40.13v0.29c0,25.93-17,40.13-35.35,40.13C426.11,253.46,418.87,248.1,413.65,241.87Zm37.52-28.54V213c0-12.89-8.69-21.44-19-21.44s-18.83,8.55-18.83,21.44v0.29c0,12.89,8.55,21.44,18.83,21.44S451.18,226.37,451.18,213.33Z" transform="translate(-50 -146.25)"/>
      <path d="M470.29,237.23l13.18-15.79c9.13,7.53,18.69,12.31,30.28,12.31,9.13,0,14.63-3.62,14.63-9.56V223.9c0-5.65-3.48-8.55-20.43-12.89-20.43-5.22-33.61-10.87-33.61-31v-0.29c0-18.4,14.78-30.57,35.49-30.57,14.78,0,27.38,4.64,37.67,12.89l-11.59,16.81c-9-6.23-17.82-10-26.37-10s-13,3.91-13,8.84V178c0,6.66,4.35,8.84,21.88,13.33,20.57,5.36,32.16,12.75,32.16,30.42V222c0,20.14-15.36,31.44-37.23,31.44A64.53,64.53,0,0,1,470.29,237.23Z" transform="translate(-50 -146.25)"/>
      <path d="M556.06,230v-36.8h-9.27V174.36h9.27V154.51h22v19.85h18.26v18.83H578.08v33.18c0,5.07,2.17,7.53,7.1,7.53A22.39,22.39,0,0,0,596,231.15v17.68a32.47,32.47,0,0,1-17.39,4.49C565.18,253.32,556.06,248,556.06,230Z" transform="translate(-50 -146.25)"/>
      <path d="M594.88,213.62v-0.29c0-22.31,18-40.42,42.16-40.42s41.87,17.82,41.87,40.13v0.29c0,22.31-18,40.42-42.16,40.42S594.88,235.93,594.88,213.62Zm62.3,0v-0.29c0-11.45-8.26-21.44-20.43-21.44-12.6,0-20.14,9.71-20.14,21.15v0.29c0,11.44,8.26,21.44,20.43,21.44C649.64,234.77,657.18,225.06,657.18,213.62Z" transform="translate(-50 -146.25)"/>
      <path d="M681.8,174.36h22V190c4.49-10.72,11.73-17.68,24.77-17.1v23h-1.16c-14.63,0-23.62,8.84-23.62,27.38V252h-22V174.36Z" transform="translate(-50 -146.25)"/>
      <path d="M731.49,174.36h22v11c5.07-6.52,11.73-12.46,22.89-12.46,10.14,0,17.82,4.49,21.88,12.31,6.81-8,14.92-12.31,25.5-12.31,16.37,0,26.22,9.85,26.22,28.54V252H828V208.69c0-10.43-4.64-15.79-12.89-15.79s-13.33,5.36-13.33,15.79V252h-22V208.69c0-10.43-4.64-15.79-12.89-15.79s-13.33,5.36-13.33,15.79V252h-22V174.36Z" transform="translate(-50 -146.25)"/>
    </g>
    <g>
      <rect y="5.22" width="101.4" height="101.4"/>
      <path d="M90.17,185.83l3.24-4a11.31,11.31,0,0,0,7.43,3.08c2.24,0,3.59-.91,3.59-2.4v-0.07c0-1.41-.85-2.14-5-3.22-5-1.31-8.25-2.72-8.25-7.76v-0.08c0-4.6,3.63-7.65,8.71-7.65a14.23,14.23,0,0,1,9.25,3.23l-2.85,4.21a11.52,11.52,0,0,0-6.47-2.5c-2.1,0-3.2,1-3.2,2.21V171c0,1.67,1.07,2.22,5.37,3.34,5,1.34,7.9,3.19,7.9,7.62V182c0,5-3.77,7.87-9.14,7.87a15.67,15.67,0,0,1-10.56-4.06" transform="translate(-50 -146.25)" fill="#fff"/>
      <polygon points="35.22 17.94 31.46 32.69 27.15 17.94 22.86 17.94 18.55 32.69 14.79 17.94 8.9 17.94 16.12 43.24 20.87 43.24 25.01 28.6 29.1 43.24 33.9 43.24 41.12 17.94 35.22 17.94" fill="#fff"/>
      <rect x="9.51" y="87.62" width="38.02" height="6.34" fill="#fff"/>
    </g>
  </g>
</svg>
