<?xml version="1.0" encoding="UTF-8" standalone="no"?>
<svg version="1.1" xmlns="http://www.w3.org/2000/svg" xmlns:xlink="http://www.w3.org/1999/xlink" width="512" height="512" viewBox="0 0 512 512" fill="@{icon-color}">
  <path d="M 352.00,0.00L 160.00,0.00 L 64.00,64.00l0.00,128.00 l 384.00,0.00 L 448.00,64.00 L 352.00,0.00z M 320.00,160.00l-32.00,0.00 l0.00-21.333 C 288.00,132.80, 283.20,128.00, 277.333,128.00l-42.666,0.00 c-5.866,0.00-10.667,4.80-10.667,10.667L 224.00,160.00 l-32.00,0.00 l0.00-53.333 C 192.00,100.80, 196.801,96.00, 202.667,96.00l 106.665,0.00 c 5.867,0.00, 10.668,4.80, 10.668,10.667 L 320.00,160.00 zM 64.00,352.001l 384.00,0.00 L 448.00,224.00 L 64.00,224.00 L 64.00,352.001 z M 192.00,266.666c0.00-5.867, 4.801-10.666, 10.667-10.666l 106.665,0.00 c 5.867,0.00, 10.668,4.799, 10.668,10.666L 320.00,320.00 l-32.00,0.00 l0.00-21.334 c0.00-5.867-4.80-10.666-10.667-10.666l-42.666,0.00 c-5.866,0.00-10.667,4.799-10.667,10.666L 224.00,320.00 l-32.00,0.00 L 192.00,266.666 zM 64.00,512.00l 384.00,0.00 L 448.00,384.001 L 64.00,384.001 L 64.00,512.00 z M 192.00,426.666c0.00-5.867, 4.801-10.666, 10.667-10.666l 106.665,0.00 c 5.867,0.00, 10.668,4.799, 10.668,10.666 L 320.00,480.00 l-32.00,0.00 l0.00-21.334 c0.00-5.867-4.80-10.666-10.667-10.666l-42.666,0.00 c-5.866,0.00-10.667,4.799-10.667,10.666L 224.00,480.00 l-32.00,0.00 L 192.00,426.666 z"/>
</svg>
