<?xml version="1.0" encoding="UTF-8" standalone="no"?>
<!-- Generator: IcoMoon.io -->

<svg
   xmlns:dc="http://purl.org/dc/elements/1.1/"
   xmlns:cc="http://creativecommons.org/ns#"
   xmlns:rdf="http://www.w3.org/1999/02/22-rdf-syntax-ns#"
   xmlns:svg="http://www.w3.org/2000/svg"
   xmlns="http://www.w3.org/2000/svg"
   xmlns:sodipodi="http://sodipodi.sourceforge.net/DTD/sodipodi-0.dtd"
   xmlns:inkscape="http://www.inkscape.org/namespaces/inkscape"
   viewBox="0 0 512 512"
   fill="#515d6e"
   id="svg2"
   version="1.1"
   inkscape:version="0.48.3.1 r9886"
   sodipodi:docname="cabinet.svg">
  <metadata
     id="metadata73">
    <rdf:RDF>
      <cc:Work
         rdf:about="">
        <dc:format>image/svg+xml</dc:format>
        <dc:type
           rdf:resource="http://purl.org/dc/dcmitype/StillImage" />
      </cc:Work>
    </rdf:RDF>
  </metadata>
  <defs
     id="defs71" />
  <sodipodi:namedview
     pagecolor="#ffffff"
     bordercolor="#666666"
     borderopacity="1"
     objecttolerance="10"
     gridtolerance="10"
     guidetolerance="10"
     inkscape:pageopacity="0"
     inkscape:pageshadow="2"
     inkscape:window-width="640"
     inkscape:window-height="480"
     id="namedview69"
     showgrid="false"
     inkscape:zoom="0.4609375"
     inkscape:cx="256"
     inkscape:cy="256"
     inkscape:window-x="0"
     inkscape:window-y="25"
     inkscape:window-maximized="0"
     inkscape:current-layer="svg2" />
  <path
     d="M 352.00,0.00L 160.00,0.00 L 64.00,64.00l0.00,128.00 l 384.00,0.00 L 448.00,64.00 L 352.00,0.00z M 320.00,160.00l-32.00,0.00 l0.00-21.333 C 288.00,132.80, 283.20,128.00, 277.333,128.00l-42.666,0.00 c-5.866,0.00-10.667,4.80-10.667,10.667L 224.00,160.00 l-32.00,0.00 l0.00-53.333 C 192.00,100.80, 196.801,96.00, 202.667,96.00l 106.665,0.00 c 5.867,0.00, 10.668,4.80, 10.668,10.667 L 320.00,160.00 zM 64.00,352.001l 384.00,0.00 L 448.00,224.00 L 64.00,224.00 L 64.00,352.001 z M 192.00,266.666c0.00-5.867, 4.801-10.666, 10.667-10.666l 106.665,0.00 c 5.867,0.00, 10.668,4.799, 10.668,10.666L 320.00,320.00 l-32.00,0.00 l0.00-21.334 c0.00-5.867-4.80-10.666-10.667-10.666l-42.666,0.00 c-5.866,0.00-10.667,4.799-10.667,10.666L 224.00,320.00 l-32.00,0.00 L 192.00,266.666 zM 64.00,512.00l 384.00,0.00 L 448.00,384.001 L 64.00,384.001 L 64.00,512.00 z M 192.00,426.666c0.00-5.867, 4.801-10.666, 10.667-10.666l 106.665,0.00 c 5.867,0.00, 10.668,4.799, 10.668,10.666 L 320.00,480.00 l-32.00,0.00 l0.00-21.334 c0.00-5.867-4.80-10.666-10.667-10.666l-42.666,0.00 c-5.866,0.00-10.667,4.799-10.667,10.666L 224.00,480.00 l-32.00,0.00 L 192.00,426.666 z"
     id="path67" />
</svg>
