<?xml version="1.0" encoding="UTF-8" standalone="no"?>
<svg version="1.1" xmlns="http://www.w3.org/2000/svg" xmlns:xlink="http://www.w3.org/1999/xlink" width="512" height="512" viewBox="0 0 512 512" fill="@{icon-color}">
  <path d="m 448,64 -48,0 0,16 c 0,17.645 -14.355,32 -32,32 -17.645,0 -32,-14.355 -32,-32 l 0,-16 -160,0 0,16 c 0,17.645 -14.355,32 -32,32 -17.645,0 -32,-14.355 -32,-32 l 0,-16 -48,0 C 46.4,64 32,78.4 32,96 l 0,352 c 0,17.6 14.4,32 32,32 l 384,0 c 17.6,0 32,-14.4 32,-32 L 480,96 C 480,78.4 465.6,64 448,64 z m 0,383.942 c -0.017,0.02 -0.038,0.041 -0.058,0.058 L 64.057,448 C 64.037,447.983 64.016,447.962 64,447.942 L 64,160 448,160 z M 144,96 c 8.836,0 16,-7.164 16,-16 l 0,-64 C 160,7.164 152.836,0 144,0 135.164,0 128,7.164 128,16 l 0,64 c 0,8.836 7.164,16 16,16 z m 224,0 c 8.836,0 16,-7.164 16,-16 l 0,-64 C 384,7.164 376.836,0 368,0 359.164,0 352,7.164 352,16 l 0,64 c 0,8.836 7.164,16 16,16 z m 68,396 -360,0 C 58.4,492 44,481.6 44,464 l 0,16 c 0,17.6 14.4,32 32,32 l 360,0 c 17.6,0 32,-14.4 32,-32 l 0,-16 c 0,17.6 -14.4,28 -32,28 z"/>
</svg>
