<?xml version="1.0" encoding="UTF-8" standalone="no"?>
<!-- Generator: IcoMoon.io -->

<svg
   xmlns:dc="http://purl.org/dc/elements/1.1/"
   xmlns:cc="http://creativecommons.org/ns#"
   xmlns:rdf="http://www.w3.org/1999/02/22-rdf-syntax-ns#"
   xmlns:svg="http://www.w3.org/2000/svg"
   xmlns="http://www.w3.org/2000/svg"
   xmlns:sodipodi="http://sodipodi.sourceforge.net/DTD/sodipodi-0.dtd"
   xmlns:inkscape="http://www.inkscape.org/namespaces/inkscape"
   viewBox="0 0 512 512"
   fill="#515d6e"
   id="svg2"
   version="1.1"
   inkscape:version="0.48.3.1 r9886"
   sodipodi:docname="close.svg">
  <metadata
     id="metadata73">
    <rdf:RDF>
      <cc:Work
         rdf:about="">
        <dc:format>image/svg+xml</dc:format>
        <dc:type
           rdf:resource="http://purl.org/dc/dcmitype/StillImage" />
      </cc:Work>
    </rdf:RDF>
  </metadata>
  <defs
     id="defs71" />
  <sodipodi:namedview
     pagecolor="#ffffff"
     bordercolor="#666666"
     borderopacity="1"
     objecttolerance="10"
     gridtolerance="10"
     guidetolerance="10"
     inkscape:pageopacity="0"
     inkscape:pageshadow="2"
     inkscape:window-width="640"
     inkscape:window-height="480"
     id="namedview69"
     showgrid="false"
     inkscape:zoom="0.4609375"
     inkscape:cx="256"
     inkscape:cy="256"
     inkscape:window-x="0"
     inkscape:window-y="25"
     inkscape:window-maximized="0"
     inkscape:current-layer="svg2" />
  <path
     d="M 507.331,411.33c-0.002-0.002-0.004-0.004-0.006-0.005L 352.003,256.00l 155.322-155.325c 0.002-0.002, 0.004-0.003, 0.006-0.005 c 1.672-1.673, 2.881-3.627, 3.656-5.708c 2.123-5.688, 0.912-12.341-3.662-16.915L 433.952,4.674c-4.574-4.573-11.225-5.783-16.914-3.66 c-2.08,0.775-4.035,1.984-5.709,3.655c0.00,0.002-0.002,0.003-0.004,0.005L 256.001,160.00L 100.677,4.675 c-0.002-0.002-0.003-0.003-0.005-0.005c-1.673-1.671-3.627-2.88-5.707-3.655c-5.69-2.124-12.341-0.913-16.915,3.66L 4.676,78.049 c-4.574,4.574-5.784,11.226-3.661,16.914c 0.776,2.08, 1.985,4.036, 3.656,5.708c 0.002,0.001, 0.003,0.003, 0.005,0.005L 160.001,256.00 L 4.676,411.326c-0.001,0.002-0.003,0.003-0.004,0.005c-1.671,1.673-2.88,3.627-3.657,5.707c-2.124,5.688-0.913,12.341, 3.661,16.915 l 73.374,73.373c 4.575,4.574, 11.226,5.784, 16.915,3.661c 2.08-0.776, 4.035-1.985, 5.708-3.656c 0.001-0.002, 0.003-0.003, 0.005-0.005 l 155.324-155.325l 155.324,155.325c 0.002,0.001, 0.004,0.003, 0.006,0.004c 1.674,1.672, 3.627,2.881, 5.707,3.657 c 5.689,2.123, 12.342,0.913, 16.914-3.661l 73.373-73.374c 4.574-4.574, 5.785-11.227, 3.662-16.915 C 510.212,414.957, 509.003,413.003, 507.331,411.33z"
     id="path67" />
</svg>
