<?xml version="1.0" encoding="utf-8"?>
<svg version="1.1" xmlns="http://www.w3.org/2000/svg" xmlns:xlink="http://www.w3.org/1999/xlink" width="256" height="256" viewBox="0 0 256 256" fill="@{icon-color}">
	<path d="M233.447 152.563c-13.431-23.263-5.354-53.076 18.038-66.622l-25.156-43.573c-7.188 4.214-15.544 6.63-24.462 6.63-26.884 0-48.677-21.936-48.677-48.998h-50.315c0.067 8.352-2.019 16.82-6.489 24.563-13.431 23.264-43.289 31.176-66.716 17.689l-25.156 43.573c7.242 4.118 13.512 10.147 17.971 17.87 13.41 23.227 5.378 52.98-17.927 66.556l25.157 43.573c7.163-4.174 15.479-6.564 24.35-6.564 26.799 0 48.536 21.798 48.675 48.739h50.314c-0.022-8.268 2.068-16.643 6.492-24.304 13.409-23.226 43.194-31.149 66.603-17.753l25.156-43.572c-7.195-4.117-13.423-10.125-17.858-17.807zM128 179.833c-28.627 0-51.834-23.206-51.834-51.834 0-28.627 23.207-51.834 51.834-51.834 28.627 0 51.833 23.207 51.833 51.834-0 28.628-23.206 51.834-51.833 51.834z" />
</svg>
