<?xml version="1.0" encoding="utf-8"?>
<!-- Generated by IcoMoon.io -->
<!DOCTYPE svg PUBLIC "-//W3C//DTD SVG 1.1//EN" "http://www.w3.org/Graphics/SVG/1.1/DTD/svg11.dtd">
<svg version="1.1" xmlns="http://www.w3.org/2000/svg" xmlns:xlink="http://www.w3.org/1999/xlink" width="256" height="256" viewBox="0 0 256 256">
	<path d="M176 0c-44.183 0-80 35.817-80 80 0 5.007 0.465 9.904 1.344 14.656l-97.344 97.344v48c0 8.837 7.163 16 16 16h16v-16h32v-32h32v-32h32l20.761-20.761c8.502 3.079 17.674 4.761 27.239 4.761 44.183 0 80-35.817 80-80s-35.817-80-80-80zM199.969 80.031c-13.255 0-24-10.745-24-24s10.745-24 24-24 24 10.745 24 24-10.745 24-24 24z" fill="#515d6e" />
</svg>
