<?xml version="1.0" encoding="UTF-8" standalone="no"?>
<!-- Generator: IcoMoon.io -->

<svg
   xmlns:dc="http://purl.org/dc/elements/1.1/"
   xmlns:cc="http://creativecommons.org/ns#"
   xmlns:rdf="http://www.w3.org/1999/02/22-rdf-syntax-ns#"
   xmlns:svg="http://www.w3.org/2000/svg"
   xmlns="http://www.w3.org/2000/svg"
   xmlns:sodipodi="http://sodipodi.sourceforge.net/DTD/sodipodi-0.dtd"
   xmlns:inkscape="http://www.inkscape.org/namespaces/inkscape"
   viewBox="0 0 512 512"
   fill="#515d6e"
   id="svg2"
   version="1.1"
   inkscape:version="0.48.3.1 r9886"
   sodipodi:docname="lock2.svg">
  <metadata
     id="metadata73">
    <rdf:RDF>
      <cc:Work
         rdf:about="">
        <dc:format>image/svg+xml</dc:format>
        <dc:type
           rdf:resource="http://purl.org/dc/dcmitype/StillImage" />
      </cc:Work>
    </rdf:RDF>
  </metadata>
  <defs
     id="defs71" />
  <sodipodi:namedview
     pagecolor="#ffffff"
     bordercolor="#666666"
     borderopacity="1"
     objecttolerance="10"
     gridtolerance="10"
     guidetolerance="10"
     inkscape:pageopacity="0"
     inkscape:pageshadow="2"
     inkscape:window-width="640"
     inkscape:window-height="480"
     id="namedview69"
     showgrid="false"
     inkscape:zoom="0.4609375"
     inkscape:cx="256"
     inkscape:cy="256"
     inkscape:window-x="0"
     inkscape:window-y="25"
     inkscape:window-maximized="0"
     inkscape:current-layer="svg2" />
  <path
     d="M 296.00,224.00l-8.00,0.00 l0.00-96.00 c0.00-52.935-43.065-96.00-96.00-96.00l-64.00,0.00 c-52.935,0.00-96.00,43.065-96.00,96.00l0.00,96.00 l-8.00,0.00 c-13.20,0.00-24.00,10.80-24.00,24.00l0.00,240.00 c0.00,13.20, 10.80,24.00, 24.00,24.00l 272.00,0.00 c 13.20,0.00, 24.00-10.80, 24.00-24.00L 320.00,248.00 C 320.00,234.80, 309.20,224.00, 296.00,224.00z M 192.00,448.00l-64.00,0.00 l 13.92-69.60 C 133.516,372.634, 128.00,362.963, 128.00,352.00c0.00-17.673, 14.327-32.00, 32.00-32.00c 17.673,0.00, 32.00,14.327, 32.00,32.00c0.00,10.963-5.516,20.634-13.92,26.40L 192.00,448.00 z M 224.00,224.00L 96.00,224.00 l0.00-96.00 c0.00-17.645, 14.355-32.00, 32.00-32.00l 64.00,0.00 c 17.645,0.00, 32.00,14.355, 32.00,32.00L 224.00,224.00 z"
     id="path67" />
</svg>
