<?xml version="1.0" encoding="UTF-8" standalone="no"?>
<svg version="1.1" xmlns="http://www.w3.org/2000/svg" xmlns:xlink="http://www.w3.org/1999/xlink" width="674.71185" height="512" viewBox="0 0 674.71185 512" fill="@{icon-color}">
  <path d="M 562.2656,0 112.46472,0 C 50.611297,0 0,38.405 0,85.345 L 0,426.656 C 0,473.625 50.611297,512 112.46472,512 l 449.80088,0 c 61.85473,0 112.44626,-38.375 112.44626,-85.345 l 0,-341.31 C 674.71186,38.405 624.12033,0 562.2656,0 z m -441.93232,443.313 -50.903848,-38.627 168.677968,-128 19.27673,14.627 -137.05085,152 z M 101.05655,99.314 120.33328,84.686 337.35593,217.373 554.3799,84.686 573.65531,99.314 337.35593,310.627 101.05655,99.314 z m 453.32335,343.999 -137.05084,-152 19.27541,-14.627 168.67796,128 -50.90253,38.627 z"/>
</svg>
