<?xml version="1.0" encoding="UTF-8" standalone="no"?>
<!-- Generator: IcoMoon.io -->

<svg
   xmlns:dc="http://purl.org/dc/elements/1.1/"
   xmlns:cc="http://creativecommons.org/ns#"
   xmlns:rdf="http://www.w3.org/1999/02/22-rdf-syntax-ns#"
   xmlns:svg="http://www.w3.org/2000/svg"
   xmlns="http://www.w3.org/2000/svg"
   xmlns:sodipodi="http://sodipodi.sourceforge.net/DTD/sodipodi-0.dtd"
   xmlns:inkscape="http://www.inkscape.org/namespaces/inkscape"
   viewBox="0 0 674.71185 512"
   id="svg2"
   version="1.1"
   fill="#515d6e"
   inkscape:version="0.48.3.1 r9886"
   sodipodi:docname="mail3.svg">
  <metadata
     id="metadata73">
    <rdf:RDF>
      <cc:Work
         rdf:about="">
        <dc:format>image/svg+xml</dc:format>
        <dc:type
           rdf:resource="http://purl.org/dc/dcmitype/StillImage" />
      </cc:Work>
    </rdf:RDF>
  </metadata>
  <defs
     id="defs71" />
  <sodipodi:namedview
     pagecolor="#ffffff"
     bordercolor="#666666"
     borderopacity="1"
     objecttolerance="10"
     gridtolerance="10"
     guidetolerance="10"
     inkscape:pageopacity="0"
     inkscape:pageshadow="2"
     inkscape:window-width="640"
     inkscape:window-height="480"
     id="namedview69"
     showgrid="false"
     fit-margin-top="0"
     fit-margin-left="0"
     fit-margin-right="0"
     fit-margin-bottom="0"
     inkscape:zoom="0.4609375"
     inkscape:cx="256"
     inkscape:cy="256"
     inkscape:window-x="0"
     inkscape:window-y="25"
     inkscape:window-maximized="0"
     inkscape:current-layer="svg2" />
  <path
     d="M 562.2656,0 112.46472,0 C 50.611297,0 0,38.405 0,85.345 L 0,426.656 C 0,473.625 50.611297,512 112.46472,512 l 449.80088,0 c 61.85473,0 112.44626,-38.375 112.44626,-85.345 l 0,-341.31 C 674.71186,38.405 624.12033,0 562.2656,0 z m -441.93232,443.313 -50.903848,-38.627 168.677968,-128 19.27673,14.627 -137.05085,152 z M 101.05655,99.314 120.33328,84.686 337.35593,217.373 554.3799,84.686 573.65531,99.314 337.35593,310.627 101.05655,99.314 z m 453.32335,343.999 -137.05084,-152 19.27541,-14.627 168.67796,128 -50.90253,38.627 z"
     id="path67"
     inkscape:connector-curvature="0" />
</svg>
