<?xml version="1.0" encoding="UTF-8" standalone="no"?>
<svg version="1.1" xmlns="http://www.w3.org/2000/svg" xmlns:xlink="http://www.w3.org/1999/xlink" width="512" height="512" viewBox="0 0 512 512" fill="@{icon-color}">
  <path d="M 496.131,435.698L 374.855,332.551c-12.537-11.283-25.945-16.463-36.776-15.963C 366.707,283.054, 384.00,239.549, 384.00,192.00 C 384.00,85.961, 298.039,0.00, 192.00,0.00C 85.962,0.00,0.00,85.961,0.00,192.00c0.00,106.039, 85.961,192.00, 192.00,192.00c 47.549,0.00, 91.054-17.293, 124.588-45.922 c-0.50,10.831, 4.68,24.239, 15.963,36.776l 103.147,121.276c 17.661,19.623, 46.511,21.277, 64.11,3.678S 515.754,453.359, 496.131,435.698z M 192.00,320.00c-70.692,0.00-128.00-57.308-128.00-128.00S 121.308,64.00, 192.00,64.00s 128.00,57.308, 128.00,128.00S 262.693,320.00, 192.00,320.00z"/>
</svg>
