<?xml version="1.0" encoding="UTF-8" standalone="no"?>
<svg version="1.1" xmlns="http://www.w3.org/2000/svg" xmlns:xlink="http://www.w3.org/1999/xlink" width="512" height="512" viewBox="0 0 512 512" fill="@{icon-color}">
  <path d="M 320.00,73.294l0.00,67.979 c 18.103,7.902, 34.75,19.204, 49.137,33.59C 399.358,205.083, 416.00,245.263, 416.00,288.00 s-16.643,82.917-46.863,113.137C 338.917,431.357, 298.738,448.00, 256.00,448.00s-82.917-16.643-113.137-46.863 C 112.643,370.917, 96.00,330.737, 96.00,288.00s 16.643-82.917, 46.863-113.137c 14.387-14.387, 31.034-25.689, 49.137-33.591L 192.00,73.294 C 99.476,100.834, 32.00,186.53, 32.00,288.00c0.00,123.712, 100.289,224.00, 224.00,224.00c 123.712,0.00, 224.00-100.288, 224.00-224.00 C 480.00,186.53, 412.525,100.834, 320.00,73.294zM 224.00,0.00L 288.00,0.00L 288.00,256.00L 224.00,256.00z"/>
</svg>
