<?xml version="1.0" encoding="UTF-8" standalone="no"?>
<!-- Generator: IcoMoon.io -->

<svg
   xmlns:dc="http://purl.org/dc/elements/1.1/"
   xmlns:cc="http://creativecommons.org/ns#"
   xmlns:rdf="http://www.w3.org/1999/02/22-rdf-syntax-ns#"
   xmlns:svg="http://www.w3.org/2000/svg"
   xmlns="http://www.w3.org/2000/svg"
   xmlns:sodipodi="http://sodipodi.sourceforge.net/DTD/sodipodi-0.dtd"
   xmlns:inkscape="http://www.inkscape.org/namespaces/inkscape"
   viewBox="0 0 512 512"
   fill="#515d6e"
   id="svg2"
   version="1.1"
   inkscape:version="0.48.3.1 r9886"
   sodipodi:docname="switch.svg">
  <metadata
     id="metadata73">
    <rdf:RDF>
      <cc:Work
         rdf:about="">
        <dc:format>image/svg+xml</dc:format>
        <dc:type
           rdf:resource="http://purl.org/dc/dcmitype/StillImage" />
      </cc:Work>
    </rdf:RDF>
  </metadata>
  <defs
     id="defs71" />
  <sodipodi:namedview
     pagecolor="#ffffff"
     bordercolor="#666666"
     borderopacity="1"
     objecttolerance="10"
     gridtolerance="10"
     guidetolerance="10"
     inkscape:pageopacity="0"
     inkscape:pageshadow="2"
     inkscape:window-width="640"
     inkscape:window-height="480"
     id="namedview69"
     showgrid="false"
     inkscape:zoom="0.4609375"
     inkscape:cx="256"
     inkscape:cy="256"
     inkscape:window-x="0"
     inkscape:window-y="25"
     inkscape:window-maximized="0"
     inkscape:current-layer="svg2" />
  <path
     d="M 320.00,73.294l0.00,67.979 c 18.103,7.902, 34.75,19.204, 49.137,33.59C 399.358,205.083, 416.00,245.263, 416.00,288.00 s-16.643,82.917-46.863,113.137C 338.917,431.357, 298.738,448.00, 256.00,448.00s-82.917-16.643-113.137-46.863 C 112.643,370.917, 96.00,330.737, 96.00,288.00s 16.643-82.917, 46.863-113.137c 14.387-14.387, 31.034-25.689, 49.137-33.591L 192.00,73.294 C 99.476,100.834, 32.00,186.53, 32.00,288.00c0.00,123.712, 100.289,224.00, 224.00,224.00c 123.712,0.00, 224.00-100.288, 224.00-224.00 C 480.00,186.53, 412.525,100.834, 320.00,73.294zM 224.00,0.00L 288.00,0.00L 288.00,256.00L 224.00,256.00z"
     id="path67" />
</svg>
