<?xml version="1.0" encoding="UTF-8" standalone="no"?>
<svg version="1.1" xmlns="http://www.w3.org/2000/svg" xmlns:xlink="http://www.w3.org/1999/xlink" width="512" height="512" viewBox="0 0 512 512" fill="@{icon-color}">
  <path d="M 384.00,32.00l-64.00,0.00 c-52.935,0.00-96.00,43.065-96.00,96.00l0.00,96.00 L 24.00,224.00 c-13.20,0.00-24.00,10.80-24.00,24.00l0.00,240.00 c0.00,13.20, 10.80,24.00, 24.00,24.00l 272.00,0.00 c 13.20,0.00, 24.00-10.80, 24.00-24.00L 320.00,248.00 c0.00-13.20-10.80-24.00-24.00-24.00l-8.00,0.00 l0.00-96.00 c0.00-17.645, 14.355-32.00, 32.00-32.00l 64.00,0.00 c 17.645,0.00, 32.00,14.355, 32.00,32.00l0.00,96.00 l 64.00,0.00 l0.00-96.00 C 480.00,75.065, 436.935,32.00, 384.00,32.00z M 192.00,448.00l-64.00,0.00 l 13.92-69.60C 133.516,372.634, 128.00,362.963, 128.00,352.00c0.00-17.673, 14.327-32.00, 32.00-32.00c 17.673,0.00, 32.00,14.327, 32.00,32.00 c0.00,10.963-5.516,20.634-13.92,26.40L 192.00,448.00z"/>
</svg>
