<?xml version="1.0" encoding="UTF-8" standalone="no"?>
<svg version="1.1" xmlns="http://www.w3.org/2000/svg" xmlns:xlink="http://www.w3.org/1999/xlink" width="512" height="512" viewBox="0 0 512 512" fill="@{icon-color}">
<path d="M 311.413,351.368c-11.055-1.759-11.307-32.157-11.307-32.157s 32.484-32.158, 39.564-75.401 c 19.045,0.00, 30.809-45.973, 11.761-62.148C 352.226,164.635, 375.911,48.00, 256.00,48.00c-119.911,0.00-96.225,116.635-95.432,133.662 c-19.047,16.175-7.285,62.148, 11.761,62.148c 7.079,43.243, 39.564,75.401, 39.564,75.401s-0.252,30.398-11.307,32.157 C 164.976,357.034, 32.00,415.685, 32.00,480.00l 224.00,0.00 l 224.00,0.00 C 480.00,415.685, 347.024,357.034, 311.413,351.368z" ></path>
</svg>
