<?xml version="1.0" encoding="UTF-8" standalone="no"?>
<svg version="1.1" xmlns="http://www.w3.org/2000/svg" xmlns:xlink="http://www.w3.org/1999/xlink" width="512" height="512" viewBox="0 0 512 512" fill="@{icon-color}">
  <path d="M 367.497,402.687c-9.476-1.494-9.692-27.327-9.692-27.327s 27.844-27.328, 33.912-64.076 c 16.326,0.00, 26.407-39.069, 10.082-52.814c 0.681-14.47, 20.984-113.588-81.799-113.588c-102.782,0.00-82.479,99.118-81.799,113.588 c-16.327,13.745-6.244,52.814, 10.081,52.814c 6.067,36.748, 33.913,64.076, 33.913,64.076s-0.216,25.833-9.692,27.327 C 241.979,407.503, 128.00,457.345, 128.00,512.00l 192.00,0.00 l 192.00,0.00 C 512.00,457.345, 398.021,407.503, 367.497,402.687zM 172.027,411.405c 22.047-13.575, 48.813-26.154, 70.769-33.712c-7.876-11.216-16.647-26.468-22.165-44.531 c-7.703-6.283-13.972-15.266-17.999-26.301c-4.033-11.052-5.561-23.426-4.304-34.842c 0.902-8.196, 3.239-15.833, 6.825-22.544 c-2.175-23.293-3.707-69.017, 26.224-102.366c 11.607-12.933, 26.278-22.23, 43.85-27.843C 272.09,86.886, 255.647,48.881, 192.00,48.881 c-102.782,0.00-82.479,99.118-81.799,113.588c-16.327,13.745-6.244,52.814, 10.081,52.814c 6.067,36.748, 33.913,64.076, 33.913,64.076 s-0.216,25.833-9.692,27.327C 113.979,311.503,0.00,361.345,0.00,416.00l 164.798,0.00 C 167.153,414.463, 169.551,412.93, 172.027,411.405z"/>
</svg>
