<?xml version="1.0" encoding="utf-8"?>
<!-- Generator: Adobe Illustrator 27.8.0, SVG Export Plug-In . SVG Version: 6.00 Build 0)  -->
<svg version="1.1" id="Layer_2_00000109733484558031751480000005632669012941692061_"
	 xmlns="http://www.w3.org/2000/svg" x="0px" y="0px" viewBox="0 0 500 500"
	 style="enable-background:new 0 0 500 500;" xml:space="preserve">
	<g>
	<g>
		<path d="M86,120.9L5.2,40.6c-1-0.9-2.2-0.8-2.3-0.8c-1.6,0-2.9,1.3-2.9,2.9v353.7l0,0c0,1.6,1.3,2.9,2.9,2.9
			c1.2,0,2.3-0.8,2.7-1.9c0.1-0.1,0.1-0.3,0.2-0.5c0-0.1,0.2-0.8,0.2-0.9l81.5-267.6C88.5,125.4,88.5,123.4,86,120.9z"
			  fill="#C00003"/>
		<path d="M498.8,88.5L414.3,3c-3.7-3.6-4-3-8-3c0,0-364.4,0-364.5,0c-1.6,0-2.9,1.3-2.9,2.9c0,0.1-0.1,1.3,0.9,2.4
			l0.1,0.1L125,91.5c2,2,4,2.5,7,2.5h365.3C499.8,94,501.1,90.8,498.8,88.5z" fill="#C00003"/>
	</g>
		<path d="M499.9,146.5L392.4,495.6c-0.4,1.1-0.7,1.9-0.9,2.5c-0.4,1-1.2,1.7-2.3,1.9c-0.2,0-0.6,0-0.6,0H29.7
		c-1.6,0-2.9-1.3-2.9-2.9c0-0.4,0.2-1.1,0.2-1.1l107.2-350.6c0.1-0.5,0.3-1.1,0.5-1.6c0.4-1.1,1.4-1.9,2.6-1.9c1.5,0,359,0,359,0
		C499.2,141.9,500.5,143.7,499.9,146.5z" fill="#C00003"/>
</g>
</svg>
