<svg x="0px" y="0px" fill="none" xmlns="http://www.w3.org/2000/svg">
	<symbol id="logo" viewBox="0 0 1999 308">
		<path d="M753.202 178.742C753.202 151.67 773.577 119.376 808.311 119.376H833.851L824.714 148.889C814.044 184.247 797.017 206.098 776.301 206.098C761.375 206.098 753.145 195.655 753.145 178.742H753.202ZM623.232 163.986C610.462 205.53 629.929 234.135 674.085 234.135C680.498 234.135 689.011 233.511 691.452 232.887C692.644 232.603 693.268 231.979 693.892 230.446L701.498 204.622C701.781 203.09 701.498 201.841 699.341 202.182C692.644 202.806 686.571 203.431 681.066 203.431C658.874 203.431 649.737 191.455 656.434 169.888L671.928 119.433H716.992C718.184 119.433 719.149 118.808 719.716 117.276L727.605 91.1115C727.889 89.5792 727.321 88.6711 725.448 88.6711H681.293L687.082 69.6013C687.366 68.3526 687.082 67.4445 686.174 66.5365L662.734 45.0261C661.542 43.7775 660.009 44.1181 659.385 45.9342L623.175 164.042L623.232 163.986ZM468.006 164.894C454.895 207.063 475.895 234.703 508.813 234.703C527.713 234.703 542.582 225.452 553.253 210.411L552.969 229.765C552.969 231.638 553.877 232.206 555.409 232.206H576.409C577.941 232.206 578.565 231.581 579.133 230.049L621.416 91.3386C622.04 89.4656 621.132 88.5576 619.6 88.5576H589.462C587.93 88.5576 587.022 89.1819 586.738 90.7143L568.803 149.172C557.566 185.496 539.915 206.098 521.299 206.098C502.683 206.098 494.794 191.342 501.832 168.583L525.556 91.3953C526.18 89.5224 525.272 88.6143 523.74 88.6143H493.603C492.07 88.6143 491.446 89.2386 490.878 90.771L468.063 164.894H468.006ZM365.449 163.986C352.679 205.53 372.146 234.135 416.302 234.135C422.715 234.135 431.228 233.511 433.669 232.887C434.861 232.603 435.485 231.979 436.109 230.446L443.715 204.622C443.998 203.09 443.715 201.841 441.558 202.182C434.861 202.806 428.788 203.431 423.283 203.431C401.091 203.431 391.954 191.455 398.651 169.888L414.145 119.433H459.209C460.401 119.433 461.649 118.808 461.933 117.276L469.822 91.1115C470.106 89.5792 469.538 88.6711 467.665 88.6711H423.226L429.015 69.6013C429.299 68.3526 429.015 67.4445 428.107 66.5365L404.667 45.0261C403.475 43.7775 401.943 44.1181 401.318 45.9342L365.392 164.042L365.449 163.986ZM765.404 234.76C783.055 234.76 797.641 226.757 808.652 210.468V229.822C808.652 231.354 809.56 232.262 811.092 232.262H832.092C833.624 232.262 834.249 231.638 834.816 230.106L877.439 91.0548C877.723 89.5224 877.156 88.2738 875.623 88.2738H809.276C744.461 88.2738 719.205 145.199 719.205 182.091C719.205 214.384 739.013 234.703 765.461 234.703L765.404 234.76Z"/>
		<path d="M195.012 84.8116H84.5094C83.7716 84.8116 83.1472 85.2657 82.9202 85.9468C82.8635 86.2873 71.1719 124.767 71.1719 124.767C70.8313 126.016 71.7962 127.435 73.1583 127.492H121.23C122.99 127.492 124.181 129.762 122.876 130.897L76.1663 173.52C75.5988 174.031 75.4853 174.882 75.8826 175.62L88.1985 201.614C88.7093 202.749 89.9579 203.203 90.9795 202.749C95.6334 200.479 100.571 199.344 105.679 199.344C110.39 199.344 114.419 200.195 117.655 202.012C120.89 203.714 123.444 206.155 125.26 209.106C127.133 212.114 128.154 215.576 128.381 219.606C128.608 223.692 128.098 227.892 126.679 232.376C125.317 236.689 123.217 240.889 120.379 244.862C117.541 248.835 114.476 252.524 110.617 255.362C68.0503 285.669 43.5887 254.737 35.3024 248.892C34.1673 248.097 32.8619 248.438 32.4647 249.573L23.5541 277.269C23.4405 277.723 23.4405 278.177 23.6676 278.688C26.2783 284.25 29.7404 289.074 34.1106 293.218C38.9915 297.758 44.6671 301.277 51.2507 303.831C57.8343 306.442 65.2693 307.69 73.4421 307.69C83.9418 307.69 94.3848 305.647 104.828 301.674C115.214 297.701 124.919 292.139 134 285.215C142.967 278.177 150.97 270.118 157.894 260.98C164.762 251.843 169.87 242.024 173.218 231.524C177.304 218.811 178.269 206.949 176.169 195.939C174.069 184.928 169.132 175.847 161.356 168.639C156.362 164.212 150.175 161.034 142.74 158.991C141.208 158.537 140.527 156.721 141.492 155.756L190.926 106.606C190.926 106.606 191.21 106.152 191.266 105.925L197.055 87.7062C197.509 86.344 196.318 84.9252 194.955 84.9252L195.012 84.8116Z"/>
		<path d="M305.061 84.8116H236.841C235.99 84.8116 235.308 85.3224 235.081 86.0603L223.333 124.427C222.879 125.846 224.184 127.435 225.717 127.435H244.957C246.546 127.435 247.795 129.024 247.341 130.443L194.899 300.766C194.445 302.185 195.75 303.774 197.282 303.774H239.565C240.416 303.774 241.098 303.263 241.325 302.525L307.445 87.8197C307.899 86.4008 306.593 84.8116 305.004 84.8116H305.061Z"/>
		<path d="M52.8961 74.4249L3.1783 24.9909C2.55399 24.4233 1.81617 24.4801 1.75942 24.4801C0.794576 24.4801 0 25.2747 0 26.2395V243.67C0 244.634 0.794576 245.429 1.75942 245.429C2.49724 245.429 3.1783 244.918 3.40533 244.237C3.46208 244.18 3.46208 244.067 3.51884 243.953C3.51884 243.897 3.63235 243.443 3.63235 243.386L53.8041 78.9653C54.4284 77.2059 54.4284 75.9573 52.8961 74.4249Z"/>
		<path d="M24.5747 3.36742L76.9032 56.3202C78.1518 57.5689 79.3437 57.8526 81.2166 57.8526H305.968C307.5 57.8526 308.352 55.8662 306.876 54.4473L254.888 1.89178C252.618 -0.321679 252.448 0.018853 249.95 0.018853H25.7098C24.745 0.018853 23.9504 0.813429 23.9504 1.77827C23.9504 1.83503 23.8936 2.6296 24.5747 3.31067C24.5179 3.25391 24.5179 3.31067 24.5747 3.31067V3.36742Z"/>
		<path d="M1009.68 203.642C1003.27 207.82 996.149 209.938 988.383 209.938C982.381 209.938 976.673 208.644 971.26 206.055C965.847 203.466 961.14 199.877 957.138 195.405C953.137 190.933 949.96 185.637 947.665 179.635C945.37 173.634 944.193 167.22 944.193 160.454C944.193 153.687 945.37 147.215 947.665 141.213C949.96 135.211 953.137 130.033 957.138 125.62C961.14 121.207 965.847 117.736 971.26 115.264C976.673 112.734 982.381 111.499 988.383 111.499C995.384 111.499 1001.92 113.146 1008.04 116.441C1014.1 119.736 1019.16 124.267 1023.16 130.092L1043.57 114.205C1036.93 105.203 1028.75 98.083 1018.92 92.8462C1009.09 87.6095 998.385 85.0793 986.794 85.0793C976.791 85.0793 967.435 87.0211 958.727 90.9045C950.019 94.788 942.428 100.142 936.015 106.968C929.542 113.734 924.482 121.796 920.716 130.975C916.951 140.213 915.068 149.98 915.068 160.395C915.068 170.809 916.951 180.577 920.716 189.815C924.482 199.053 929.601 207.055 936.015 213.822C942.487 220.647 950.019 226.002 958.727 229.885C967.435 233.768 976.791 235.71 986.794 235.71C998.797 235.71 1009.92 232.827 1020.1 227.178C1030.28 221.53 1038.63 213.822 1045.05 204.231L1025.22 186.814C1021.22 193.816 1015.98 199.406 1009.62 203.642H1009.68Z"/>
		<path d="M1173.55 88.3743L1169.08 104.261C1163.26 97.671 1156.67 92.7873 1149.25 89.6688C1141.84 86.5502 1134.13 85.0204 1126.13 85.0204C1116.13 85.0204 1106.77 86.9621 1098.06 90.8456C1089.35 94.729 1081.76 100.083 1075.23 106.909C1068.76 113.676 1063.58 121.737 1059.76 130.916C1055.93 140.154 1054.05 149.921 1054.05 160.336C1054.05 170.751 1055.93 180.518 1059.76 189.756C1063.58 198.994 1068.7 206.996 1075.23 213.763C1081.7 220.588 1089.35 225.943 1098.06 229.826C1106.77 233.709 1116.13 235.651 1126.13 235.651C1134.13 235.651 1142.01 233.945 1149.84 230.532C1157.61 227.119 1164.02 222.118 1169.02 215.528L1173.49 232.062H1198.15V88.2566H1173.49L1173.55 88.3743ZM1165.14 179.635C1162.96 185.637 1159.96 190.874 1156.14 195.405C1152.31 199.935 1147.84 203.466 1142.6 206.055C1137.37 208.644 1131.89 209.938 1126.07 209.938C1120.24 209.938 1114.77 208.644 1109.53 206.055C1104.36 203.466 1099.83 199.876 1096 195.405C1092.18 190.933 1089.18 185.637 1087 179.635C1084.82 173.634 1083.7 167.22 1083.7 160.453C1083.7 153.687 1084.82 147.214 1087 141.213C1089.18 135.211 1092.18 129.974 1096 125.444C1099.77 120.972 1104.3 117.382 1109.53 114.794C1114.71 112.205 1120.24 110.91 1126.07 110.91C1131.89 110.91 1137.37 112.205 1142.6 114.794C1147.78 117.382 1152.31 120.972 1156.14 125.444C1159.9 129.974 1162.9 135.211 1165.14 141.213C1167.32 147.214 1168.43 153.628 1168.43 160.453C1168.43 167.279 1167.32 173.693 1165.14 179.635Z"/>
		<path d="M1252.63 13.0001H1223.51V232.18H1252.63V13.0001Z"/>
		<path d="M1405.62 133.564C1402.21 122.443 1397.44 113.323 1391.32 106.085C1385.2 98.8479 1378.02 93.5523 1369.67 90.1984C1361.37 86.7857 1352.31 85.0793 1342.48 85.0793C1332.66 85.0793 1323.89 87.0211 1315.48 90.9045C1307.06 94.788 1299.71 100.142 1293.41 106.968C1287.11 113.734 1282.11 121.796 1278.41 130.975C1274.7 140.213 1272.87 149.98 1272.87 160.395C1272.87 170.809 1274.82 180.577 1278.7 189.815C1282.58 199.053 1287.94 207.055 1294.76 213.822C1301.53 220.647 1309.53 226.002 1318.59 229.885C1327.71 233.768 1337.48 235.71 1347.9 235.71C1359.9 235.71 1370.96 233.592 1381.08 229.414C1391.2 225.237 1399.73 219.588 1406.74 212.586L1388.73 194.581C1384.14 199.17 1378.55 202.877 1372.08 205.702C1365.55 208.526 1358.55 209.879 1350.9 209.879C1345.31 209.879 1339.95 208.997 1334.83 207.173C1329.71 205.349 1325.12 202.818 1321.01 199.523C1316.89 196.228 1313.36 192.286 1310.36 187.814C1307.36 183.342 1305.12 178.459 1303.71 173.222H1410.62C1410.62 157.806 1408.91 144.567 1405.5 133.446L1405.62 133.564ZM1303.53 147.568C1304.71 142.39 1306.59 137.565 1309.06 133.152C1311.59 128.739 1314.53 124.914 1318.06 121.737C1321.54 118.559 1325.36 116.029 1329.48 114.264C1333.6 112.44 1337.95 111.557 1342.54 111.557C1348.19 111.557 1353.07 112.499 1357.43 114.441C1361.72 116.323 1365.49 118.912 1368.67 122.207C1371.84 125.503 1374.37 129.386 1376.2 133.74C1377.96 138.153 1379.08 142.743 1379.49 147.568H1303.53Z"/>
		<path d="M1537.42 96.4943C1531.71 92.0813 1525.59 89.0805 1518.94 87.4918C1512.35 85.9031 1506.41 85.0793 1501.23 85.0793C1493.23 85.0793 1485.82 86.5504 1478.99 89.5512C1472.22 92.552 1466.4 96.3767 1461.57 100.966L1455.57 88.3744H1432.45V232.18H1461.57V144.508C1461.57 138.506 1462.87 133.446 1465.34 129.327C1467.81 125.208 1470.87 121.854 1474.52 119.089C1478.11 116.382 1481.99 114.441 1486.05 113.264C1490.11 112.087 1493.82 111.44 1497 111.44C1501.23 111.44 1505.23 112.028 1509.18 113.087C1513.12 114.146 1516.59 116.029 1519.71 118.618C1522.83 121.207 1525.3 124.679 1527.18 128.974C1529.06 133.269 1530.06 138.506 1530.06 144.743V232.121H1557.72V145.037C1557.72 132.622 1555.78 122.561 1551.84 114.735C1547.95 106.968 1543.13 100.849 1537.42 96.4355V96.4943Z"/>
		<path d="M1690.05 103.967C1684.64 97.9653 1678.22 93.3169 1670.87 89.9631C1663.46 86.668 1654.75 85.0205 1644.74 85.0205C1634.74 85.0205 1625.5 86.9622 1617.09 90.8456C1608.68 94.7291 1601.38 100.084 1595.14 106.909C1588.96 113.676 1584.08 121.737 1580.55 130.916C1577.02 140.095 1575.31 149.921 1575.31 160.336C1575.31 170.751 1577.08 180.518 1580.55 189.756C1584.02 198.994 1588.9 206.996 1595.14 213.763C1601.32 220.588 1608.68 225.943 1617.09 229.826C1625.5 233.71 1634.68 235.651 1644.74 235.651C1654.81 235.651 1662.87 234.004 1670.28 230.709C1677.69 227.414 1684.28 222.883 1690.11 217.058L1696.11 232.062H1719.24V13.0001H1690.11V103.967H1690.05ZM1686.4 182.342C1684.23 188.52 1681.11 193.698 1677.22 197.817C1673.34 201.936 1668.81 204.996 1663.69 206.996C1658.57 208.997 1652.98 209.997 1646.98 209.997C1640.98 209.997 1635.62 208.702 1630.39 206.114C1625.21 203.525 1620.68 199.935 1616.85 195.463C1613.03 190.992 1610.03 185.696 1607.79 179.694C1605.56 173.693 1604.5 167.279 1604.5 160.512C1604.5 153.746 1605.62 147.273 1607.79 141.272C1609.97 135.27 1612.97 130.092 1616.85 125.679C1620.68 121.266 1625.21 117.794 1630.39 115.323C1635.62 112.793 1641.15 111.557 1646.98 111.557C1652.81 111.557 1658.57 112.44 1663.69 114.088C1668.81 115.794 1673.34 118.618 1677.22 122.502C1681.11 126.385 1684.23 131.445 1686.4 137.682C1688.58 143.861 1689.7 151.51 1689.7 160.512C1689.7 168.927 1688.58 176.223 1686.4 182.46V182.342Z"/>
		<path d="M1850.92 104.261C1845.1 97.671 1838.5 92.7873 1831.09 89.6688C1823.68 86.5502 1815.97 85.0204 1807.97 85.0204C1797.96 85.0204 1788.61 86.9621 1779.9 90.8456C1771.19 94.729 1763.6 100.083 1757.07 106.909C1750.6 113.676 1745.42 121.737 1741.6 130.916C1737.77 140.154 1735.89 149.921 1735.89 160.336C1735.89 170.751 1737.77 180.518 1741.6 189.756C1745.42 198.994 1750.54 206.996 1757.07 213.763C1763.54 220.588 1771.19 225.943 1779.9 229.826C1788.61 233.709 1797.96 235.651 1807.97 235.651C1815.97 235.651 1823.85 233.945 1831.68 230.532C1839.45 227.119 1845.86 222.118 1850.86 215.528L1855.33 232.062H1879.99V88.2566H1855.33L1850.86 104.143L1850.92 104.261ZM1847.04 179.635C1844.86 185.637 1841.86 190.874 1838.03 195.405C1834.21 199.935 1829.74 203.466 1824.5 206.055C1819.26 208.644 1813.79 209.938 1807.97 209.938C1802.14 209.938 1796.67 208.644 1791.43 206.055C1786.25 203.466 1781.72 199.876 1777.9 195.405C1774.07 190.933 1771.07 185.637 1768.9 179.635C1766.72 173.634 1765.6 167.22 1765.6 160.453C1765.6 153.687 1766.72 147.214 1768.9 141.213C1771.07 135.211 1774.07 129.974 1777.9 125.444C1781.67 120.972 1786.2 117.382 1791.43 114.794C1796.61 112.205 1802.14 110.91 1807.97 110.91C1813.79 110.91 1819.26 112.205 1824.5 114.794C1829.68 117.382 1834.21 120.972 1838.03 125.444C1841.8 129.974 1844.8 135.211 1847.04 141.213C1849.21 147.214 1850.33 153.628 1850.33 160.453C1850.33 167.279 1849.21 173.693 1847.04 179.635Z"/>
		<path d="M1976.25 85.0792C1966.42 85.0792 1958.25 86.7856 1951.77 90.316C1945.3 93.7876 1940 98.4948 1936 104.261L1930 88.3743H1906.88V232.18H1936L1936.3 146.92C1936.3 142.095 1937.36 137.565 1939.48 133.269C1941.59 128.974 1944.42 125.208 1948.01 122.031C1951.6 118.853 1955.95 116.265 1960.95 114.382C1965.95 112.499 1971.37 111.498 1977.13 111.498C1978.96 111.498 1980.66 111.675 1982.25 112.087C1983.84 112.499 1985.25 112.852 1986.43 113.264C1987.84 113.852 1989.25 114.44 1990.61 115.029L1998.14 87.727C1989.9 85.903 1982.6 85.0204 1976.19 85.0204L1976.25 85.0792Z"/>
	</symbol>
</svg>