<svg x="0px" y="0px" xmlns="http://www.w3.org/2000/svg">
	<symbol id="logo" viewBox="0 0 2591 512">
		<path d="m 1769.27,19.28 v 373.91 h -39.41 l -10.21,-25.614 c -9.93,9.924 -21.17,17.674 -33.84,23.345 -12.66,5.671 -27.13,8.507 -43.48,8.507 -16.35,0 -32.79,-3.308 -47.16,-10.019 -14.37,-6.711 -26.84,-15.784 -37.43,-27.41 -10.59,-11.625 -18.81,-25.236 -24.86,-41.02 -5.95,-15.69 -8.98,-32.42 -8.98,-50.189 0,-17.769 3.03,-34.499 8.98,-50.189 6.05,-15.69 14.27,-29.395 24.86,-41.02 10.59,-11.626 23.06,-20.794 37.43,-27.41 14.37,-6.616 30.05,-10.019 47.16,-10.019 17.11,0 31.95,2.836 44.52,8.412 12.67,5.671 23.53,13.611 32.8,23.818 V 19.28 h 49.71 z m -123.16,335.914 c 10.31,0 19.76,-1.701 28.55,-5.104 8.79,-3.403 16.44,-8.601 23.15,-15.595 6.71,-6.995 11.91,-15.785 15.69,-26.371 3.78,-10.586 5.68,-23.062 5.68,-37.429 0,-15.406 -1.9,-28.355 -5.68,-38.941 -3.78,-10.586 -8.98,-19.187 -15.69,-25.897 -6.71,-6.617 -14.36,-11.437 -23.15,-14.367 -8.7,-2.93 -18.24,-4.348 -28.55,-4.348 -10.3,0 -19.37,2.174 -28.26,6.427 -8.88,4.254 -16.63,10.114 -23.15,17.675 -6.53,7.467 -11.63,16.352 -15.41,26.654 -3.78,10.208 -5.67,21.172 -5.67,32.797 0,11.626 1.89,22.59 5.67,32.798 3.78,10.208 8.88,19.187 15.41,26.843 6.52,7.656 14.17,13.799 23.15,18.147 8.89,4.443 18.34,6.616 28.26,6.616 z m 302.17,-164.933 c -2.08,-0.661 -4.44,-1.323 -7.18,-2.079 -2.74,-0.756 -5.67,-1.04 -8.7,-1.04 -9.92,0 -19.09,1.607 -27.59,4.915 -8.51,3.214 -15.88,7.562 -22.03,13.044 -6.14,5.482 -10.96,11.814 -14.55,19.187 -3.59,7.372 -5.39,15.122 -5.39,23.345 l -0.47,145.463 h -49.72 V 147.823 h 39.42 l 10.2,27.127 c 6.81,-9.925 15.79,-17.864 26.85,-23.819 11.05,-5.954 25.04,-8.979 41.68,-8.979 10.96,0 23.34,1.512 37.43,4.632 l -12.76,46.597 c -2.37,-1.04 -4.82,-2.08 -7.19,-3.025 z m 79.5,-95.746 c -8.89,0 -16.36,-3.12 -22.59,-9.452 -6.15,-6.332 -9.17,-13.894 -9.17,-22.779 0,-8.884 3.12,-16.445 9.17,-22.495 6.14,-6.143 13.7,-9.262 22.59,-9.262 8.88,0 16.35,3.119 22.59,9.262 6.14,6.144 9.16,13.61 9.16,22.495 0,8.885 -3.12,16.447 -9.16,22.78 -6.15,6.332 -13.71,9.45 -22.59,9.45 z m 25.52,298.58 h -50.19 V 147.823 h 49.71 l 0.48,245.366 z m 194.22,10e-4 h -66.06 L 2080.04,147.729 h 53.78 l 80.91,195.179 80.9,-195.179 h 53.78 z m 236.3,6.143 c -17.77,0 -34.4,-3.308 -49.9,-10.019 -15.51,-6.711 -29.12,-15.784 -40.74,-27.41 -11.63,-11.626 -20.8,-25.236 -27.41,-41.02 -6.62,-15.69 -9.93,-32.42 -9.93,-50.189 0,-17.769 3.12,-34.499 9.46,-50.189 6.33,-15.69 14.83,-29.395 25.61,-41.02 10.77,-11.626 23.35,-20.794 37.71,-27.41 14.37,-6.616 29.68,-10.019 46.13,-10.019 16.44,0 32.13,2.93 46.31,8.696 14.08,5.765 26.46,14.839 36.86,27.126 10.4,12.287 18.53,27.883 24.39,46.881 5.76,18.903 8.69,41.587 8.69,67.863 h -182.32 c 2.46,8.885 6.14,17.108 11.34,24.858 5.2,7.75 11.15,14.367 18.15,19.943 6.99,5.671 14.84,10.019 23.53,13.044 8.7,3.119 17.87,4.631 27.41,4.631 12.95,0 25.05,-2.363 36.11,-7.183 11.06,-4.726 20.51,-11.059 28.45,-18.904 l 30.72,30.718 c -12.01,11.909 -26.56,21.55 -43.77,28.639 -17.29,7.183 -36.1,10.775 -56.61,10.775 z m -9.26,-212.002 c -7.85,0 -15.31,1.512 -22.31,4.631 -6.99,3.025 -13.51,7.372 -19.47,12.76 -5.95,5.387 -11.06,12.004 -15.41,19.47 -4.25,7.467 -7.37,15.69 -9.45,24.575 h 129.59 c -0.67,-8.223 -2.56,-16.068 -5.68,-23.535 -3.11,-7.467 -7.37,-14.083 -12.76,-19.754 -5.48,-5.671 -11.9,-10.113 -19.18,-13.327 -7.28,-3.213 -15.79,-4.915 -25.33,-4.915 z M 403.494,251.036 C 408.692,235.157 396.688,218.9 379.77,218.9 l -181.757,-0.378 c -1.418,0 -2.552,0.851 -2.93,2.08 l -66.635,215.31 c -0.756,2.363 1.418,5.01 4.065,5.01 l 125.519,0.472 c 14.933,0 28.544,-2.93 41.02,-8.979 12.382,-5.955 23.724,-14.083 33.837,-24.291 10.114,-10.208 18.904,-21.928 26.276,-35.255 7.372,-13.327 13.422,-27.221 17.958,-41.871 l 26.371,-80.056 z m 52.74,79.773 c -7.845,25.236 -18.903,48.865 -33.27,70.888 -14.272,22.022 -30.623,41.209 -48.865,57.561 -18.242,16.351 -37.902,29.3 -58.884,38.657 -20.983,9.358 -42.061,14.083 -63.233,14.083 L 31.474,511.526 c -2.647,0 -4.82,-2.647 -4.065,-5.009 L 139.034,149.336 c 0.378,-1.229 1.513,-2.08 2.93,-2.08 l 206.521,0.473 h 69.47 c 47.258,0 81.096,44.99 67.296,89.508 L 456.14,330.714 Z M 88.09,124.005 5.293,41.586 C 4.253,40.641 3.025,40.736 2.93,40.736 A 2.945,2.945 0 0 0 0,43.666 v 362.379 a 2.945,2.945 0 0 0 2.93,2.93 c 1.229,0 2.363,-0.851 2.741,-1.985 0.095,-0.095 0.095,-0.284 0.19,-0.473 0,-0.094 0.188,-0.85 0.188,-0.945 L 89.602,131.567 c 1.04,-2.93 1.04,-5.01 -1.512,-7.562 z M 40.83,5.576 127.976,93.76 c 2.079,2.08 4.064,2.552 7.183,2.552 h 374.288 c 2.552,0 3.97,-3.308 1.513,-5.67 L 424.476,3.117 C 420.696,-0.568 420.412,0 416.253,0 H 42.816 a 2.945,2.945 0 0 0 -2.93,2.93 c 0,0.095 -0.095,1.418 1.04,2.552 -0.095,-0.094 -0.095,0 0,0 l -0.095,0.095 z m 1230.05,296.311 c 0,-46.219 34.78,-101.417 94.04,-101.417 h 43.67 L 1393,250.847 c -18.15,60.397 -47.26,97.731 -82.61,97.731 -25.43,0 -39.51,-17.864 -39.51,-46.786 z m -221.93,-25.236 c -21.83,70.888 11.44,119.753 86.77,119.753 10.87,0 25.42,-1.04 29.58,-2.079 2.08,-0.568 3.12,-1.607 4.16,-4.159 l 12.95,-44.14 c 0.47,-2.646 0,-4.726 -3.59,-4.159 -11.44,1.04 -21.83,2.08 -31.19,2.08 -37.9,0 -53.5,-20.51 -42.06,-57.278 l 26.46,-86.105 h 76.94 c 2.08,0 3.59,-1.04 4.63,-3.686 l 13.52,-44.612 c 0.47,-2.647 -0.47,-4.159 -3.59,-4.159 h -75.33 l 9.83,-32.608 c 0.47,-2.08 0,-3.687 -1.52,-5.293 l -39.98,-36.767 c -2.08,-2.08 -4.63,-1.607 -5.67,1.606 l -61.81,201.7 z m -265.024,1.606 c -22.306,71.928 13.516,119.187 69.659,119.187 32.231,0 57.656,-15.785 75.898,-41.493 l -0.473,33.081 c 0,3.119 1.513,4.158 4.159,4.158 h 35.822 c 2.552,0 3.686,-1.039 4.631,-3.686 l 72.208,-236.86 c 1.04,-3.119 -0.56,-4.726 -3.12,-4.726 h -51.413 c -2.552,0 -4.159,1.04 -4.631,3.686 l -30.624,99.81 c -19.187,62.004 -49.338,97.164 -81.096,97.164 -31.757,0 -45.179,-25.236 -33.27,-64.083 l 40.548,-131.851 c 1.04,-3.119 -0.472,-4.726 -3.119,-4.726 h -51.417 c -2.647,0 -3.686,1.04 -4.632,3.686 l -38.941,126.559 z m -175.14,-1.606 c -21.834,70.888 11.436,119.753 86.767,119.753 10.869,0 25.425,-1.04 29.584,-2.079 2.079,-0.568 3.119,-1.607 4.158,-4.159 l 12.949,-44.14 c 0.473,-2.646 0,-4.726 -3.591,-4.159 -11.437,1.04 -21.834,2.08 -31.191,2.08 -37.902,0 -53.497,-20.51 -42.06,-57.278 l 26.464,-86.105 h 76.937 c 2.08,0 4.159,-1.04 4.632,-3.686 l 13.516,-44.612 c 0.472,-2.647 -0.473,-4.159 -3.592,-4.159 h -75.897 l 9.83,-32.608 c 0.472,-2.08 0,-3.687 -1.513,-5.293 l -39.98,-36.767 c -2.08,-2.08 -4.632,-1.607 -5.672,1.606 l -61.341,201.7 z m 682.884,120.793 c 30.15,0 55.11,-13.611 73.82,-41.493 v 33.081 c 0,2.646 1.51,4.158 4.16,4.158 h 35.82 c 2.55,0 3.59,-1.039 4.63,-3.686 l 72.78,-237.427 c 0.47,-2.647 -0.57,-4.726 -3.12,-4.726 h -113.32 c -110.68,0 -153.88,97.164 -153.88,160.207 0,55.198 33.74,89.791 79.02,89.791 z"/>
	</symbol>
</svg>