<svg viewBox="0 0 146.403 183.092" version="1.1" id="svg5" xmlns="http://www.w3.org/2000/svg">
	<defs id="defs2">
		<path id="rect238178" d="M187.787 37.448H529.2v34.525H187.787z"/>
		<path id="rect73314" d="M72.828 234.303h408.471v241.736H72.828z"/>
		<path id="rect51654" d="M140.09 549.232h104.313v56.662H140.09z"/>
		<path id="rect73314-2" d="M72.828 234.303h408.471v241.736H72.828z"/>
		<path id="rect51654-3" d="M140.09 549.232h104.313v56.662H140.09z"/>
		<path id="rect73314-5" d="M72.828 234.303h408.471v241.736H72.828z"/>
		<path id="rect51654-35" d="M140.09 549.232h104.313v56.662H140.09z"/>
		<path id="rect73314-4" d="M72.828 234.303h408.471v241.736H72.828z"/>
		<path id="rect51654-5" d="M140.09 549.232h104.313v56.662H140.09z"/>
		<clipPath id="clip0_27_837">
			<path fill="#fff" transform="translate(.5)" id="rect901" d="M0 0h307v37H0z"/>
		</clipPath>
		<clipPath id="clip0_27_837-2">
			<path fill="#fff" transform="translate(.5)" id="rect901-9" d="M0 0h307v37H0z"/>
		</clipPath>
		<clipPath id="clip0_27_837-3">
			<path fill="#fff" transform="translate(.5)" id="rect901-6" d="M0 0h307v37H0z"/>
		</clipPath>
		<linearGradient id="linearGradient12167">
			<stop offset="0" id="stop12165" stop-color="#000" stop-opacity="1"/>
		</linearGradient>
	</defs>
	<g id="layer1" display="inline">
		<path id="rect858" display="inline" fill="#850122" fill-opacity="1" stroke-width=".265"
			  d="M0 0h146.403v183.092H0z"/>
		<g id="g911" fill="#fff">
			<path id="rect9611" style="-inkscape-stroke:none"
				  d="M402.176 121.55v2.274h3.78v-2.273zm9.072 0v2.274h3.78v-2.273zm9.072 0v2.274h3.78v-2.273zm9.073 0v2.274h3.779v-2.273zm9.064 0v2.274h3.78v-2.273zm9.072 0v2.274h3.78v-2.273zm9.073 0v2.274h3.779v-2.273zm-136.28.05v2.273h3.78V121.6zm9.073 0v2.273h3.779V121.6zm9.072 0v2.273h3.78V121.6zm9.066 0v2.273h3.78V121.6zm9.072 0v2.273h3.78V121.6zm9.073 0v2.273h3.779V121.6zm9.072 0v2.273h3.78V121.6zm9.072 0v2.273h3.78V121.6zm9.065 0v2.273h3.779V121.6zm-256.053.017v2.274h3.78v-2.274zm9.305.002v2.274h3.779v-2.274zm9.072 0v2.274h3.78v-2.274zm9.064 0v2.274h3.78v-2.274zm9.073 0v2.274h3.779v-2.274zm-81.7.057c-.079 1.344-.068.77 0 2.273h3.78v-2.273zm91.385 0v2.273h3.781v-2.273zm9.072 0v2.273h3.782v-2.273zm9.073 0v2.273h3.781v-2.273zm9.066 0v2.273h3.78v-2.273zm9.072 0v2.273h3.78v-2.273zm9.073 0v2.273h3.779v-2.273zm9.072 0v2.273h3.78v-2.273zm9.55 0v2.273h3.779v-2.273zm9.064 0v2.273h3.78v-2.273zm9.072 0v2.273h3.78v-2.273zm9.056 0v2.273h3.78v-2.273zm9.072 0v2.273h3.782v-2.273zm9.073 0v2.273h3.78v-2.273zm9.066 0v2.273h3.78v-2.273zm8.611 0v2.273h3.78v-2.273zm-209.607.031v2.273h3.781v-2.273zm9.072 0v2.273h3.781v-2.273zm9.067 0v2.273h3.779v-2.273zm9.072 0v2.273h3.78v-2.273zm-40.772.436c-1.252.477-2.09.966-3.214 1.689l1.015 2.236a17.15 17.15 0 0 1 3.158-1.601zm377.612.189-.584 2.193a16.84 16.84 0 0 1 3.3 1.262l1.026-2.016a19.118 19.118 0 0 0-3.742-1.439zm-385.12 4.213a21.05 21.05 0 0 0-2.353 3.219l1.947 1.158a18.816 18.816 0 0 1 2.106-2.871zm393.056-.305-1.543 1.66a18.502 18.502 0 0 1 2.364 2.664l1.83-1.336a20.717 20.717 0 0 0-2.65-2.988zm-398.401 7.026a22.22 22.22 0 0 0-.768 3.896l2.258.236a20.03 20.03 0 0 1 .688-3.505zm403.811-.243-2.111.826a19.88 19.88 0 0 1 .996 3.432l2.223-.435a21.97 21.97 0 0 0-1.108-3.823zm-.25 8.05v3.779h2.266v-3.78zm-405.38.04v3.78h2.266v-3.78zm405.37 8.12v3.779h2.265v-3.78zm-405.334.185v3.78h2.265v-3.78zm.01 8.842v3.779h2.267v-3.78zm405.324.045v3.779h2.265v-3.78zm-405.237 8.72v3.78h2.266v-3.78zm405.237.023v3.78h2.265v-3.78zm-405.366 8.688v3.78h2.268v-3.78zm405.366-.159v3.78h2.265v-3.78zm-402.479 7.214-2.215.502a21.835 21.835 0 0 0 1.233 3.787l2.082-.893a19.59 19.59 0 0 1-1.1-3.396zm401.505.375a19.79 19.79 0 0 1-.797 3.477l2.155.709a22.18 22.18 0 0 0 .892-3.883zm-397.993 6.541-1.795 1.389a20.58 20.58 0 0 0 2.746 2.9l1.492-1.713a18.287 18.287 0 0 1-2.443-2.576zm394.405.05a18.62 18.62 0 0 1-2.191 2.807l1.639 1.557a20.863 20.863 0 0 0 2.464-3.137zm-5.52 4.526a16.883 16.883 0 0 1-3.21 1.485l.732 2.148a19.1 19.1 0 0 0 3.639-1.684zm-382.877.233-.96 2.052a18.913 18.913 0 0 0 3.802 1.3l.501-2.208a16.653 16.653 0 0 1-3.343-1.144zm7.178 1.916v2.392h3.78v-2.392zm8.615 0v2.392h3.779v-2.392zm9.066 0v2.392h3.78v-2.392zm9.393 0v2.392h3.779v-2.392zm9.06 0v2.392h3.78v-2.392zm9.072 0v2.392h3.78v-2.392zm9.073 0v2.392h3.78v-2.392zm9.064 0v2.392h3.78v-2.392zm9.112 0v2.392h3.779v-2.392zm9.24 0v2.392h3.78v-2.392zm9.324 0v2.392h3.78v-2.392zm274.512.078c-.339.004-.688.02-1.045.054l.22 2.26c1.082-.106 2.659-.214 3.973-.401l-.54-2.286c-.824.209-1.47.228-2.608.373zm-265.301.047v2.267h3.78v-2.267zm8.955 0v2.267h3.781v-2.267zm9.072 0v2.267h3.782v-2.267zm9.073 0v2.267h3.78v-2.267zm9.074 0v2.267h3.78v-2.267zm9.072 0v2.267h3.78v-2.267zm9.064 0v2.267h3.78v-2.267zm9.66 0v2.267h3.778v-2.267zm9.071 0v2.267h3.78v-2.267zm9.073 0v2.267h3.779v-2.267zm8.886 0v2.267h3.78v-2.267zm9.332 0v2.267h3.78v-2.267zm9.073 0v2.267h3.781v-2.267zm9.072 0v2.267h3.781v-2.267zm9.388 0v2.267h3.781v-2.267zm9.074 0v2.267h3.78v-2.267zm9.065 0v2.267h3.779v-2.267zm9.182 0v2.267h3.779v-2.267zm9.072 0v2.267h3.78v-2.267zm9.4 0v2.267h3.78v-2.267zm9.072 0v2.267h3.78v-2.267zm9.065 0v2.267h3.78v-2.267zm9.072 0v2.267h3.78v-2.267zm9.072 0v2.267h3.78v-2.267zm9.073 0v2.267h3.779v-2.267zm9.072 0v2.267h3.78v-2.267zm9.066 0v2.267h3.78v-2.267zm9.073 0v2.267h3.779v-2.267zm9.072 0v2.267h3.78v-2.267z"
				  transform="scale(.26458)" color="#000" display="inline" stroke-width="3.78"
				  stroke-dasharray="3.77953,5.29134"/>
			<g id="g12794" transform="translate(24 35.353) scale(.34664)">
				<path d="M6.01 35.22H.864c-.472 0-.864-.37-.864-.833V19.521c0-.232.098-.446.276-.6.17-.164.4-.24.632-.224 1.772.103 7.648.532 9.117 1.87a.86.86 0 0 1 .268.678c-.392 4.298-3.348 13.03-3.473 13.4a.855.855 0 0 1-.81.574Zm-4.292-1.656h3.66c.64-1.939 2.698-8.373 3.152-11.984-1.078-.506-4.06-.97-6.812-1.175Z"
					  id="path12737"/>
				<path d="M22.98 38.47c-1.122 0-2.119-.308-3.552-.831L6.598 33.52c-.454-.146-.695-.61-.543-1.047.15-.428.632-.66 1.086-.523l12.857 4.135c3.098 1.132 3.347 1.21 10.55-1.63l8.503-3.723c-.943-1.107-2.466-1.621-3.97-1.252l-6.572 1.578c-.454.103-.926-.154-1.032-.6a.813.813 0 0 1 .623-.996l6.57-1.587c2.583-.617 5.218.55 6.411 2.84a.83.83 0 0 1 .036.652.856.856 0 0 1-.454.472l-9.429 4.134c-4.479 1.768-6.518 2.497-8.254 2.497z"
					  id="path12744"/>
				<path d="M40.307 13.68H12.866a.847.847 0 0 1-.855-.833V7.889c0-.455.383-.824.855-.824h27.44c.473 0 .855.369.855.824v4.958a.847.847 0 0 1-.854.832zM13.72 12.023h25.732V8.72H13.72Z"
					  id="path12755"/>
				<path d="M26.586 8.72a.868.868 0 0 1-.757-.437.793.793 0 0 1 .045-.85c.151-.214 3.73-5.326 7.577-5.326 1.683 0 2.903.986 2.903 2.333 0 1.15-.9 2.248-2.485 3.011-1.745.84-4.193 1.27-7.283 1.27zm6.865-4.958c-1.799 0-3.802 1.793-5.084 3.252 2.422-.163 3.89-.635 4.737-1.038 1.14-.55 1.54-1.167 1.54-1.536 0-.403-.49-.678-1.193-.678z"
					  id="path12764"/>
				<path d="M26.586 8.72c-3.09 0-5.538-.428-7.283-1.269-1.576-.763-2.484-1.861-2.484-3.011 0-1.347 1.22-2.333 2.912-2.333 3.837 0 7.416 5.112 7.567 5.327a.794.794 0 0 1 .045.85.868.868 0 0 1-.757.437zm-6.855-4.958c-.704 0-1.194.275-1.194.678 0 .369.401.987 1.532 1.536.846.403 2.315.875 4.737 1.038-1.292-1.459-3.295-3.252-5.076-3.252z"
					  id="path12771"/>
				<path d="M24.743 31.788a6.06 6.06 0 0 1-1.175-.111l-7.444-1.433a.824.824 0 0 1-.667-.97c.089-.454.552-.737 1.006-.651l7.443 1.432c.615.12 1.265.103 1.879-.043l1.647-.394c-.107-1.51-.872-2.23-2.769-2.685L9.251 23.63c-.463-.103-.757-.54-.65-.986.098-.446.56-.721 1.024-.627l15.43 3.303c2.849.686 4.104 2.127 4.104 4.675v.266a.824.824 0 0 1-.65.798l-2.306.558c-.472.111-.97.171-1.46.171z"
					  id="path12748"/>
				<path d="M38.588 29.378a.847.847 0 0 1-.854-.832V13.678H15.439v9.908a.841.841 0 0 1-.855.832c-.472 0-.864-.369-.864-.832v-10.74c0-.455.392-.824.864-.824h24.004c.481 0 .864.37.864.824v15.698c0 .455-.383.833-.864.833z"
					  id="path12750"/>
				<path d="M26.586 26.898a.847.847 0 0 1-.855-.832V7.89c0-.455.383-.824.855-.824s.855.369.855.824v18.177a.847.847 0 0 1-.855.833z"
					  id="path12759"/>
			</g>
			<text xml:space="preserve"
				  style="line-height:1.25;-inkscape-font-specification:'Noto Sans, Bold';font-variant-ligatures:normal;font-variant-caps:normal;font-variant-numeric:normal;font-variant-east-asian:normal"
				  x="43" y="45.259" id="card-label" font-style="normal" font-variant="normal" font-weight="700"
				  font-stretch="normal" font-size="6.6" fill-opacity="1" stroke="none"
				  stroke-width=".183">GIFT CARD</text>
		</g>
		<text xml:space="preserve" transform="matrix(.51418 0 0 .66089 6.097 -222.41)" id="price"
			  style="line-height:1.15;-inkscape-font-specification:'Noto Sans Bold';white-space:pre;shape-inside:url(#rect51654)"
			  y="594.744" x="140.09" font-style="normal" font-variant="normal" font-weight="700" font-stretch="normal"
			  font-size="52.928" letter-spacing="0" fill="#fff" fill-opacity="1" stroke="none"><tspan x="140.09" y="594.744" id="tspan1712">€XX</tspan></text>
		<text xml:space="preserve" id="message"
			  style="line-height:1.4;-inkscape-font-specification:'Noto Sans Mono CJK HK';text-align:start;white-space:pre;shape-inside:url(#rect73314-4)"
			  transform="matrix(.26458 0 0 .26459 -.269 -1.58)" x="1.013" y="0" font-style="normal"
			  font-variant="normal" font-weight="400" font-stretch="normal" font-size="26.667"
			  letter-spacing="0" word-spacing="0" writing-mode="lr-tb"
			  display="inline" fill="#fff" fill-opacity="1" stroke="none"><tspan x="72.828" y="263.103" id="tspan1714">Lorem ipsum dolor sit amet, </tspan>
			<tspan x="72.828" y="300.436" id="tspan1716">consetetur sadipscing elitr, </tspan>
			<tspan x="72.828" y="337.769" id="tspan1718">sed diam nonumy eirmod tempor </tspan>
			<tspan x="72.828" y="375.102" id="tspan1720">invidunt ut labore et dolore </tspan>
			<tspan x="72.828" y="412.436" id="tspan1722">magna aliquyam erat, sed diam </tspan>
			<tspan x="72.828" y="449.769" id="tspan1724">voluptua. At vero eos et </tspan>
		</text>
		<g clip-path="url(#clip0_27_837)" id="g899" transform="matrix(.35287 0 0 .35841 18.754 10.759)" display="inline"
		   fill="#fff">
			<path d="M.589 26.25c0 .22.28.22.342 0l4.594-14.903c.063-.17.063-.28-.085-.427L.871 6.41c-.108-.12-.28-.059-.28.086v19.752Z"
				  id="path887"/>
			<path d="M67.912 20.329c0-2.475 1.89-5.41 5.105-5.41h2.376l-.852 2.692c-1.011 3.205-2.571 5.213-4.483 5.213-1.39 0-2.146-.95-2.146-2.498m-12.052-1.35c-1.182 3.789.622 6.398 4.716 6.398.596 0 1.376-.049 1.62-.109a.295.295 0 0 0 .22-.207l.707-2.363c.036-.135 0-.244-.207-.23a17.79 17.79 0 0 1-1.695.108c-2.06 0-2.9-1.096-2.29-3.058l1.438-4.605h4.18c.108 0 .207-.06.256-.194l.744-2.39c.036-.134-.037-.23-.195-.23h-4.107l.537-1.741c.036-.122.012-.194-.086-.28l-2.169-1.962c-.122-.108-.257-.072-.306.086L55.86 18.98Zm-14.39.086c-1.208 3.85.73 6.372 3.778 6.372 1.754 0 3.133-.84 4.118-2.218l-.023 1.767c0 .171.085.22.23.22h1.949c.148 0 .207-.062.256-.194l3.924-12.659c.049-.158-.013-.256-.184-.256H52.74c-.135 0-.208.06-.257.194l-1.669 5.338c-1.036 3.301-2.68 5.19-4.397 5.19-1.718 0-2.449-1.352-1.804-3.423l2.206-7.043c.049-.158-.013-.256-.184-.256h-2.778c-.135 0-.208.06-.257.194l-2.133 6.776zm-9.505-.086c-1.182 3.789.622 6.398 4.716 6.398.596 0 1.376-.049 1.62-.109a.299.299 0 0 0 .22-.207l.707-2.363c.037-.135-.012-.244-.207-.23a17.77 17.77 0 0 1-1.695.108c-2.06 0-2.9-1.096-2.29-3.058l1.438-4.605h4.18c.109 0 .207-.06.256-.194l.744-2.39c.036-.134-.036-.23-.194-.23h-4.108l.537-1.741c.036-.122.013-.195-.086-.28l-2.169-1.962c-.121-.108-.256-.072-.305.086L31.965 18.98Zm37.066 6.458c1.633 0 2.986-.73 4.01-2.218v1.767c0 .145.085.22.22.22h1.948c.135 0 .207-.062.257-.194l3.96-12.672c.036-.135-.037-.243-.172-.243H73.1c-6.007 0-8.347 5.19-8.347 8.554-.013 2.936 1.827 4.788 4.278 4.788"
				  id="path889"/>
			<path d="m2.82 4.304 4.825 4.851c.109.109.22.145.389.145H28.6c.148 0 .23-.17.086-.306L23.92 4.193c-.108-.11-.22-.171-.45-.171H2.928c-.194 0-.22.17-.109.28"
				  id="path891"/>
			<path d="M2.113 31.855c-.024.11.023.22.17.22h20.058c.194 0 .28-.085.342-.256l6.069-19.471c.062-.195-.026-.257-.195-.257H8.441c-.171 0-.22.062-.28.194l-6.043 19.57Z"
				  id="path893"/>
			<path d="M94.227 12.047h1.029l-4.094 13.397H90.13z" id="path895"/>
			<path d="M300.103 25.418a.185.185 0 0 0 .169-.124l1.477-4.722a.837.837 0 0 1 .119-.225l6.463-8.214c.044-.057.023-.102-.05-.102h-1.635a.288.288 0 0 0-.207.104l-4.937 6.507c-.044.057-.085.047-.095-.026l-.856-6.455a.152.152 0 0 0-.147-.127h-1.41c-.072 0-.122.057-.109.127l1.257 8.106c.01.07 0 .184-.021.251l-1.536 4.778c-.021.068.018.125.09.125h1.428zm-10.122.04c.332-.053 1.011-.24 1.516-.413l.14-1.334c.008-.073-.041-.112-.109-.088-.253.095-.868.254-1.37.352a7.774 7.774 0 0 1-1.527.15c-1.026 0-1.793-.329-2.306-.984-.446-.35-.707-1.553-.588-2.69.023-.443.21-1.353.42-2.034.114-.462.489-1.325.839-1.931.208-.42.767-1.148 1.249-1.622.293-.347 1.029-.85 1.646-1.125a4.982 4.982 0 0 1 2.049-.412c.387-.023 1.027.065 1.433.197.28.078.768.285 1.086.459l.754-1.275a.127.127 0 0 0-.046-.176c-.21-.15-.804-.373-1.33-.498a7.543 7.543 0 0 0-1.744-.186c-.668-.057-1.868.168-2.679.505-.562.179-1.537.795-2.179 1.378-.454.355-1.192 1.242-1.651 1.978-.334.469-.824 1.518-1.099 2.345-.212.547-.453 1.638-.536 2.438-.143.739-.016 1.96.285 2.729.135.565.785 1.36 1.454 1.772.383.342 1.497.62 2.485.62a9.517 9.517 0 0 0 1.806-.15m-14.626-8.446c.345-.55.679-1.096.998-1.64a35.55 35.55 0 0 0 .855-1.529h.029c.015 0 .023.057.018.13-.018.191-.049.813-.065 1.389a57.694 57.694 0 0 0-.026 1.575l.005 2.682c0 .073-.057.13-.129.13h-3.286c-.073 0-.099-.05-.06-.11l1.664-2.627zm-5.439 8.401a.266.266 0 0 0 .2-.108l2.474-3.944a.265.265 0 0 1 .2-.11h4.26c.073 0 .13.058.132.13l.065 3.903c0 .072.06.13.132.13h1.392a.125.125 0 0 0 .127-.13l-.239-13.13a.13.13 0 0 0-.132-.13h-1.503c-.072 0-.16.05-.199.109l-8.541 13.172c-.039.06-.013.108.059.108h1.578zm-8.624 0a.266.266 0 0 0 .2-.108l8.393-13.17c.039-.06.01-.108-.06-.108h-1.596a.258.258 0 0 0-.197.108l-5.169 8.347a92.074 92.074 0 0 0-.977 1.622c-.2.332-.552.967-.786 1.415h-.018s-.01-.057 0-.127c.026-.17.055-.49.073-.83.013-.22.031-.68.044-1.03.01-.234.015-.695.015-1.032l.047-8.347a.128.128 0 0 0-.129-.13h-1.392a.128.128 0 0 0-.13.13l.037 13.13c0 .073.057.13.129.13h1.524zm-10.352 0a.183.183 0 0 0 .168-.124l4.18-13.14c.021-.068-.018-.125-.091-.125h-1.391a.185.185 0 0 0-.169.124l-4.179 13.141c-.021.067.018.124.09.124zm-10.917-6.955c-.073 0-.112-.054-.091-.124l1.511-4.722a.19.19 0 0 1 .168-.124h1.296c.637-.052 1.472.15 1.865.45.34.118.55.833.469 1.595-.007.29-.155.818-.331 1.181-.091.257-.425.671-.744.928-.187.19-.713.456-1.179.601-.277.12-1.011.215-1.635.215h-1.332zm-2.452 6.955a.185.185 0 0 0 .169-.124l1.666-5.284a.188.188 0 0 1 .168-.124h1.936c.073 0 .142.057.161.127l1.269 5.281c.016.07.088.127.161.127h1.578c.073 0 .114-.057.096-.125l-1.524-5.656a.13.13 0 0 1 .091-.158c.534-.102 1.394-.5 1.923-.894.391-.234.93-.86 1.207-1.397.218-.337.446-1.125.513-1.762.205-.824-.137-1.957-.764-2.532-.282-.477-1.627-.863-3.003-.863h-2.815a.184.184 0 0 0-.168.124L236.071 25.3c-.02.067.018.124.091.124h1.41zm-10.912-6.636c-.073 0-.111-.054-.091-.124l1.604-5.059a.192.192 0 0 1 .169-.124h1.295c.638-.057 1.467.166 1.851.497.331.148.536.866.458 1.605 0 .528-.3 1.344-.668 1.819-.2.355-.858.824-1.47 1.05-.367.186-1.316.336-2.117.336h-1.034zm-2.363 6.636a.184.184 0 0 0 .168-.124l1.578-4.983a.192.192 0 0 1 .169-.125h1.07c.668.034 1.819-.1 2.573-.3.531-.096 1.399-.5 1.941-.9.397-.23.969-.89 1.28-1.471.244-.353.505-1.247.586-1.998.098-.49.002-1.309-.21-1.827-.083-.378-.599-.925-1.156-1.218-.295-.244-1.316-.44-2.278-.44h-2.889a.182.182 0 0 0-.168.124l-4.162 13.14c-.021.068.018.125.091.125h1.409zm-31.052 0a.184.184 0 0 0 .168-.124l2.262-7.152c.073-.218.221-.692.327-1.06.073-.246.21-.726.308-1.068a40.087 40.087 0 0 0 .441-1.697h.028c.016 0 .044.057.063.125l2.91 10.85c.018.07.09.124.163.124h1.521a.182.182 0 0 0 .168-.125l4.16-13.14c.02-.068-.019-.125-.091-.125h-1.335a.184.184 0 0 0-.168.125l-2.312 7.245a70.736 70.736 0 0 0-.772 2.617c-.114.42-.205.778-.272 1.078h-.028c-.016 0-.044-.057-.063-.124l-2.876-10.814a.175.175 0 0 0-.163-.124h-1.521a.185.185 0 0 0-.169.124l-4.162 13.141c-.02.067.019.124.091.124h1.317zm-13.535-1.744c-.337-.152-.777-.728-.982-1.285-.184-.326-.264-1.228-.181-2.016.028-.435.184-1.275.347-1.876.091-.407.368-1.164.619-1.687.148-.36.539-1.003.874-1.436.209-.303.694-.8 1.083-1.106.243-.226.811-.544 1.264-.713a4.102 4.102 0 0 1 1.433-.254c.723-.111 1.711.33 2.203.985.43.34.679 1.578.552 2.765-.026.415-.179 1.233-.342 1.827-.093.402-.366 1.156-.609 1.687-.148.365-.526 1.013-.845 1.443-.199.303-.674.804-1.065 1.117-.246.228-.806.557-1.249.73-.282.146-.915.263-1.415.263-.482.051-1.238-.15-1.687-.451m3.504 1.63c.43-.107 1.205-.498 1.731-.874.363-.22 1.005-.821 1.435-1.34.301-.32.804-1.093 1.12-1.725.228-.4.575-1.306.775-2.027.152-.461.342-1.466.422-2.241.269-1.195-.114-2.926-.86-3.864-.747-.938-1.882-1.407-3.405-1.407-.472-.036-1.366.104-1.993.308-.428.104-1.215.503-1.762.892-.379.23-1.042.845-1.485 1.368-.308.327-.832 1.107-1.169 1.744-.241.404-.609 1.316-.824 2.034-.163.464-.36 1.467-.44 2.242-.145.746-.018 1.985.28 2.765.127.575.798 1.38 1.497 1.8.397.348 1.581.628 2.644.628.492.036 1.401-.104 2.029-.309m-37.067.127a.185.185 0 0 0 .169-.124l2.262-7.152c.072-.218.22-.692.326-1.06.073-.246.21-.726.309-1.068a32.409 32.409 0 0 0 .44-1.697h.029c.015 0 .044.057.062.125l2.91 10.85c.018.07.091.124.163.124h1.524a.183.183 0 0 0 .168-.125l4.162-13.14c.021-.068-.018-.125-.091-.125h-1.334a.185.185 0 0 0-.169.125l-2.311 7.245a65.89 65.89 0 0 0-.772 2.617c-.114.42-.205.778-.272 1.078h-.029c-.015 0-.044-.057-.062-.124l-2.876-10.814a.176.176 0 0 0-.164-.124h-1.521a.183.183 0 0 0-.168.124l-4.159 13.141c-.021.067.018.124.09.124h1.317zm-10.824-6.955c-.072 0-.111-.054-.091-.124l1.514-4.722a.19.19 0 0 1 .168-.124h1.296c.637-.052 1.472.15 1.866.45.339.118.549.833.469 1.595-.008.29-.156.818-.332 1.181-.091.257-.425.671-.744.928-.186.19-.712.456-1.179.601-.277.12-1.01.215-1.635.215zm-2.454 6.955a.185.185 0 0 0 .169-.124l1.666-5.284a.188.188 0 0 1 .168-.124h1.936c.073 0 .142.057.161.127l1.269 5.281c.019.07.088.127.161.127h1.578c.073 0 .114-.057.096-.125l-1.524-5.656a.13.13 0 0 1 .091-.158c.71-.192 1.394-.5 1.923-.894.391-.234.93-.86 1.205-1.397.217-.337.445-1.125.513-1.762.205-.824-.137-1.957-.765-2.532-.282-.477-1.627-.863-3.003-.863h-2.814a.185.185 0 0 0-.169.124L131.363 25.3c-.02.067.018.124.091.124h1.41zm-9.261-.383c.546-.194 1.402-.928 1.907-1.64.368-.423.909-1.558 1.213-2.532l2.765-8.71c.02-.067-.019-.124-.091-.124h-1.41a.184.184 0 0 0-.168.124l-2.731 8.578c-.14.523-.532 1.36-.871 1.865-.195.376-.765.887-1.272 1.143-.508.257-1.133.384-1.869.384-.637.07-1.469-.2-1.858-.601-.334-.21-.547-.949-.474-1.651.005-.112.067-.456.137-.77.042-.21.153-.611.244-.899l2.563-8.051c.02-.068-.018-.125-.091-.125h-1.41a.184.184 0 0 0-.168.125l-2.534 7.958c-.081.236-.203.681-.273.995a7.425 7.425 0 0 0-.139.788c-.112.567-.006 1.474.238 2.026.241.55.658.97 1.246 1.257.329.238 1.345.43 2.27.43.77.065 2.014-.192 2.778-.573m-16.017.386a.185.185 0 0 0 .169-.124l3.705-11.661a.192.192 0 0 1 .169-.124h3.415a.185.185 0 0 0 .169-.125l.378-1.233c.021-.068-.021-.125-.091-.125h-8.779a.185.185 0 0 0-.169.125l-.396 1.233c-.021.068.018.125.091.125h3.415c.072 0 .111.054.091.124l-3.688 11.661c-.021.067.018.124.091.124h1.428z"
				  id="path897"/>
		</g>
	</g>
</svg>