<svg width="35" height="35" viewBox="0 0 35 35" xmlns="http://www.w3.org/2000/svg">
	<path d="M34.8209 21.3496C34.7539 20.9484 34.4764 20.6202 34.0936 20.4876C34.0854 20.4842 34.0765 20.4815 34.0676 20.4787C34.0156 20.4616 28.8532 18.7705 26.4833 15.665C25.0375 13.7708 23.3115 12.3236 22.1179 11.4439C20.8225 10.4882 19.2811 9.81898 17.6582 9.50795L16.5481 9.29536C16.5365 9.29331 16.5242 9.29126 16.5126 9.28921C16.0737 9.1812 15.6383 9.1272 15.2158 9.1272H7.31089C5.75984 9.1272 4.27442 9.78822 3.23538 10.9401L0.710919 13.74C0.201652 14.304 -0.0478549 15.0326 0.00751508 15.7901C0.0628851 16.5475 0.416296 17.231 1.00144 17.7143L5.07558 21.0817C5.27382 21.245 5.52401 21.3353 5.78035 21.3353C5.85418 21.3353 5.92664 21.3271 5.99705 21.3127L3.61819 31.7353C3.45891 32.4038 3.59495 33.1345 3.99279 33.7409C4.41456 34.3848 5.08242 34.8285 5.82547 34.9583C7.20288 35.1996 8.4846 34.3458 8.94259 32.8823L11.1827 25.9583L13.4276 32.8871C13.8275 34.1838 14.8802 35.0007 16.0812 35C16.2364 35 16.3936 34.9864 16.5522 34.9583C17.2891 34.8291 17.9495 34.4033 18.3637 33.7894C18.7697 33.1879 18.9106 32.466 18.7595 31.7571C18.7581 31.7517 18.7574 31.7469 18.7561 31.7414L18.6091 31.0975C18.6241 31.0975 18.6385 31.0988 18.6535 31.0988C19.0493 31.0988 19.4171 30.8856 19.6119 30.5458C19.6283 30.5178 21.2559 27.776 23.3969 27.776C24.0866 27.776 24.4209 27.9017 24.8085 28.0473C25.2029 28.1957 25.6937 28.3802 26.4176 28.3802C27.618 28.3802 30.1158 28.3802 31.8145 25.2077C32.5678 23.8003 34.3752 22.4324 34.3909 22.4201C34.7252 22.1706 34.8893 21.7604 34.8202 21.3503L34.8209 21.3496ZM16.5515 32.5658C16.4681 32.6895 16.3307 32.7763 16.1756 32.8037C15.7271 32.8823 15.5385 32.3047 15.518 32.2384C15.5159 32.2322 15.5145 32.2261 15.5125 32.2206L12.945 24.2952C12.8301 23.9424 12.7276 23.5808 12.6387 23.2192L12.245 21.6142C12.1253 21.1247 11.6865 20.7809 11.1827 20.7809C10.6789 20.7809 10.24 21.1254 10.1204 21.6148L9.75811 23.0962C9.6501 23.5405 9.52432 23.9848 9.3835 24.4182L6.86109 32.2144C6.85973 32.2185 6.85836 32.222 6.85767 32.2261C6.80982 32.3799 6.62116 32.8775 6.20349 32.8044C6.05652 32.7784 5.91433 32.6806 5.8241 32.5426C5.75643 32.4387 5.72772 32.3266 5.74822 32.2425L5.75164 32.2288L8.30755 21.0297C8.3096 21.0194 8.31165 21.0099 8.3137 20.9996L8.71701 18.9742C8.71975 18.9612 8.7218 18.9475 8.72453 18.9338C8.91388 17.754 9.07453 16.2528 8.62951 15.1106C8.41009 14.548 7.77641 14.2691 7.21314 14.4885C6.65055 14.7079 6.37165 15.3416 6.59108 15.9049C6.8734 16.6302 6.64782 18.0664 6.56784 18.5674L6.41813 19.3187L2.41303 16.0088C2.29546 15.9117 2.22778 15.7805 2.21616 15.6287C2.20523 15.477 2.25308 15.3362 2.35493 15.2234L4.87939 12.4234C5.4994 11.7357 6.38532 11.342 7.31089 11.342H15.2158C16.1414 11.342 17.0273 11.7364 17.6473 12.4241L20.1718 15.2241C20.2736 15.3375 20.3222 15.477 20.3105 15.6294C20.2989 15.7819 20.2312 15.9131 20.1143 16.0102L16.0395 19.3768C16.0183 19.3939 15.9992 19.4123 15.9801 19.4315L15.8071 18.564C15.5214 16.7683 15.7511 16.1763 15.829 16.0368C16.1236 15.5091 15.9343 14.8433 15.4072 14.5487C14.8802 14.2541 14.2137 14.4434 13.9191 14.9704C13.4399 15.829 13.3544 17.0868 13.6504 18.9297C13.6525 18.9434 13.6552 18.9564 13.6579 18.9701L14.0612 20.9955C14.0633 21.0058 14.0653 21.0153 14.0674 21.0256L16.6226 32.2192C16.6541 32.3737 16.6014 32.4933 16.5522 32.5672L16.5515 32.5658ZM29.8636 24.1619C28.791 26.1654 27.4198 26.1654 26.4183 26.1654C26.0964 26.1654 25.9159 26.0978 25.5878 25.974C25.0983 25.7902 24.4899 25.5612 23.3976 25.5612C21.9607 25.5612 20.5252 26.2222 19.2476 27.4731C18.7472 27.9626 18.3575 28.4575 18.0923 28.83L16.3663 21.2683C16.4859 21.3113 16.6131 21.3353 16.7443 21.3353C17.002 21.3353 17.2522 21.245 17.4491 21.0817L21.5239 17.7143C22.1097 17.2304 22.4624 16.5468 22.5185 15.7887C22.554 15.2999 22.4631 14.8228 22.2574 14.3949C23.0674 15.1065 23.9445 15.9862 24.7237 17.0068C26.5844 19.4452 29.6585 21.0625 31.6231 21.9081C31.0065 22.5199 30.3195 23.3115 29.8643 24.1612L29.8636 24.1619Z"
	/>
	<path d="M11.1861 7.6561C13.297 7.6561 15.0141 5.93895 15.0141 3.82805C15.0141 1.71715 13.297 0 11.1861 0C9.07519 0 7.35803 1.71715 7.35803 3.82805C7.35803 5.93895 9.07519 7.6561 11.1861 7.6561ZM11.1861 2.18746C12.0905 2.18746 12.8267 2.92367 12.8267 3.82805C12.8267 4.73243 12.0905 5.46864 11.1861 5.46864C10.2817 5.46864 9.54549 4.73243 9.54549 3.82805C9.54549 2.92367 10.2817 2.18746 11.1861 2.18746Z"
	/>
</svg>
