<?xml version="1.0" encoding="UTF-8" standalone="no"?>
<svg
   xmlns:dc="http://purl.org/dc/elements/1.1/"
   xmlns:cc="http://creativecommons.org/ns#"
   xmlns:rdf="http://www.w3.org/1999/02/22-rdf-syntax-ns#"
   xmlns="http://www.w3.org/2000/svg"
   xmlns:sodipodi="http://sodipodi.sourceforge.net/DTD/sodipodi-0.dtd"
   xmlns:inkscape="http://www.inkscape.org/namespaces/inkscape"
   xml:space="preserve"
   enable-background="new 0 0 1280 800"
   viewBox="0 0 1054.473 236.49001"
   y="0px"
   x="0px"
   id="Ebene_1"
   version="1.1"
   inkscape:version="0.91 r13725"
   sodipodi:docname="logo-dark-large.svg"><metadata
     id="metadata27"><rdf:RDF><cc:Work
         rdf:about=""><dc:format>image/svg+xml</dc:format><dc:type
           rdf:resource="http://purl.org/dc/dcmitype/StillImage" /><dc:title></dc:title></cc:Work></rdf:RDF></metadata><defs
     id="defs25" /><sodipodi:namedview
     pagecolor="#ffffff"
     bordercolor="#666666"
     borderopacity="1"
     objecttolerance="10"
     gridtolerance="10"
     guidetolerance="10"
     inkscape:pageopacity="0"
     inkscape:pageshadow="2"
     inkscape:window-width="1855"
     inkscape:window-height="1007"
     id="namedview42"
     showgrid="false"
     inkscape:zoom="0.484375"
     inkscape:cx="66.583281"
     inkscape:cy="-92.701545"
     inkscape:window-x="41"
     inkscape:window-y="55"
     inkscape:window-maximized="0"
     inkscape:current-layer="Ebene_1"
     fit-margin-top="0"
     fit-margin-left="0"
     fit-margin-right="0"
     fit-margin-bottom="0" />
    <g style="fill:#4A4A4A;fill-opacity:1"
     id="g9"
     transform="translate(-132.628,-222.799)">
        <path
       style="fill:#4A4A4A;fill-opacity:1"
       id="path11"
       d="m 494.016,299.858 -42.696,0 0,-8.082 94.178,0 0,8.082 -42.696,0 0,121.939 -8.785,0 0,-121.939 z"
       inkscape:connector-curvature="0" />
        <path
       style="fill:#4A4A4A;fill-opacity:1"
       id="path13"
       d="m 543.209,396.496 0,-66.943 8.434,0 0,65.889 c 0,14.057 6.15,20.908 20.206,20.908 12.827,0 23.544,-6.676 34.965,-17.57 l 0,-69.228 8.434,0 0,92.245 -8.434,0 0,-15.285 c -10.191,9.662 -22.139,17.219 -35.668,17.219 -19.152,-10e-4 -27.937,-10.543 -27.937,-27.235 z"
       inkscape:connector-curvature="0" />
        <path
       style="fill:#4A4A4A;fill-opacity:1"
       id="path15"
       d="m 652.319,401.24 0,-64.133 -16.165,0 0,-7.555 16.165,0 0,-33.56 8.434,0 0,33.56 24.071,0 0,7.555 -24.071,0 0,62.902 c 0,9.84 3.339,15.463 14.935,15.463 3.515,0 7.028,-0.352 9.664,-1.23 l 0,7.906 c -2.987,0.527 -6.501,0.879 -10.366,0.879 -15.287,0 -22.667,-6.15 -22.667,-21.787 z"
       inkscape:connector-curvature="0" />
        <path
       style="fill:#4A4A4A;fill-opacity:1"
       id="path17"
       d="m 703.27,400.537 c 0,-17.57 14.935,-30.749 63.43,-38.831 l 0,-5.623 c 0,-14.056 -7.38,-21.084 -20.03,-21.084 -15.287,0 -25.478,5.974 -35.845,15.287 l -4.919,-5.271 c 11.421,-10.542 23.192,-17.395 40.938,-17.395 19.152,0 28.289,10.894 28.289,27.937 l 0,43.399 c 0,11.246 0.703,18.097 2.636,22.841 l -8.961,0 c -1.23,-3.865 -2.108,-8.434 -2.108,-13.705 -11.245,9.664 -23.545,15.287 -37.426,15.287 -16.868,0 -26.004,-8.785 -26.004,-22.842 z m 63.429,-0.703 0,-31.803 c -44.98,7.907 -54.996,18.976 -54.996,31.978 0,10.367 6.853,15.99 18.273,15.99 13.706,10e-4 26.18,-5.974 36.723,-16.165 z"
       inkscape:connector-curvature="0" />
    </g>
    <g style="fill:#4A4A4A;fill-opacity:1"
     id="g19"
     transform="translate(-132.628,-222.799)">
        <path
       style="fill:#4A4A4A;fill-opacity:1"
       id="path21"
       d="m 803.951,421.797 0,-92.772 15.286,0 0,13.881 c 8.083,-7.907 19.68,-15.813 34.79,-15.813 17.746,0 27.41,10.191 27.41,27.762 l 0,66.943 -15.111,0 0,-63.604 c 0,-12.299 -5.271,-18.098 -17.043,-18.098 -11.069,0 -20.382,5.798 -30.046,14.935 l 0,66.768 -15.286,0 z"
       inkscape:connector-curvature="0" />
        <path
       style="fill:#4A4A4A;fill-opacity:1"
       id="path23"
       d="m 903.572,375.411 c 0,-31.978 20.382,-48.319 43.224,-48.319 22.666,0 43.048,16.341 43.048,48.319 0,31.802 -20.382,48.319 -43.048,48.319 -22.666,0 -43.224,-16.517 -43.224,-48.319 z m 70.986,0 c 0,-19.328 -9.313,-35.316 -27.762,-35.316 -17.746,0 -27.937,14.408 -27.937,35.316 0,19.679 9.137,35.493 27.937,35.493 17.57,0 27.762,-14.233 27.762,-35.493 z"
       inkscape:connector-curvature="0" />
        <path
       style="fill:#4A4A4A;fill-opacity:1"
       id="path25"
       d="m 1019.535,399.307 0,-57.807 -16.165,0 0,-12.475 16.165,0 0,-33.032 15.11,0 0,33.032 24.072,0 0,12.475 -24.072,0 0,54.469 c 0,9.84 3.163,14.76 14.408,14.76 3.338,0 7.028,-0.527 9.488,-1.23 l 0,12.475 c -2.636,0.527 -8.435,1.055 -13.178,1.055 -19.503,-0.002 -25.828,-7.556 -25.828,-23.722 z"
       inkscape:connector-curvature="0" />
        <path
       style="fill:#4A4A4A;fill-opacity:1"
       id="path27"
       d="m 1075.057,399.834 c 0,-18.801 15.988,-32.154 62.023,-38.655 l 0,-4.217 c 0,-11.597 -6.149,-17.219 -17.57,-17.219 -14.057,0 -24.423,6.15 -33.56,14.056 l -7.907,-9.488 c 10.718,-9.839 24.599,-17.219 43.048,-17.219 22.139,0 30.924,11.597 30.924,30.924 l 0,40.939 c 0,11.246 0.703,18.097 2.636,22.841 l -15.462,0 c -1.229,-3.865 -2.108,-7.555 -2.108,-12.826 -10.366,9.664 -21.963,14.232 -35.844,14.232 -15.99,10e-4 -26.18,-8.432 -26.18,-23.368 z m 62.023,-2.108 0,-26.004 c -35.316,5.623 -47.089,14.232 -47.089,25.829 0,8.961 5.974,13.706 15.638,13.706 12.299,-0.001 22.842,-5.097 31.451,-13.531 z"
       inkscape:connector-curvature="0" />
    </g>
    <g style="fill:#4A4A4A;fill-opacity:1"
     id="g29"
     transform="translate(-132.628,-222.799)">
        <path
       style="fill:#4A4A4A;fill-opacity:1"
       id="path31"
       d="m 1148.893,294.804 c 0,-10.646 8.5,-19.228 19.145,-19.228 10.645,0 19.063,8.582 19.063,19.228 0,10.728 -8.418,19.31 -19.063,19.31 -10.645,0 -19.145,-8.583 -19.145,-19.31 z m 35.978,0 c 0,-9.325 -7.51,-17.082 -16.834,-17.082 -9.324,0 -16.834,7.757 -16.834,17.082 0,9.407 7.51,17.081 16.834,17.081 9.324,0 16.834,-7.674 16.834,-17.081 z m -23.766,-11.058 7.18,0 c 4.785,0 7.426,2.146 7.426,5.776 0,3.466 -1.897,5.198 -4.785,5.776 l 5.445,9.902 -2.723,0 -5.281,-9.572 -4.869,0 0,9.572 -2.393,0 0,-21.454 z m 7.097,9.654 c 3.136,0 5.116,-0.907 5.116,-3.796 0,-2.641 -1.98,-3.548 -5.199,-3.548 l -4.621,0 0,7.344 4.704,0 z"
       inkscape:connector-curvature="0" />
    </g>
    <g id="g33"
     style="fill:#840010"
     transform="translate(-132.62802,-222.799)">
      <path
         d="m 155.503,222.799 c -12.64,0 -22.875,10.246 -22.875,22.872 v 211.23 c 0,0.801 0.046,1.608 0.123,2.388 8.5,-3.167 17.524,-6.629 27.054,-10.436 66.336,-26.48 120.569,-48.994 120.618,-74.415 0,-0.814 -0.056,-1.636 -0.172,-2.458 -3.43,-25.098 -63.407,-32.879 -63.324,-44.381 0.007,-0.611 0.18,-1.25 0.548,-1.889 7.205,-12.619 35.743,-12.015 46.253,-12.907 10.519,-0.913 35.206,-0.724 36.399,-8.244 0.035,-0.232 0.057,-0.463 0.057,-0.695 0.028,-6.987 -16.977,-9.726 -16.977,-9.726 0,0 20.635,3.083 20.579,11.11 0,0.393 -0.048,0.8 -0.158,1.214 -2.222,8.624 -20.379,10.246 -32.386,10.835 -11.356,0.569 -28.648,1.861 -28.707,7.408 -0.007,0.323 0.049,0.66 0.165,1.004 2.71,8.11 66.09,12.015 106.64,33.061 23.335,12.099 34.94,32.422 40.263,53.418 v -166.52 c 0,-12.626 -10.243,-22.872 -22.869,-22.872 H 155.503 z"
         id="a"
         inkscape:connector-curvature="0" />
    </g>
</svg>
