<svg x="0px" y="0px" xmlns="http://www.w3.org/2000/svg">
	<symbol id="logo" viewBox="0 0 1408 309">
		<path d="M305.76 89.5037H264.83C264.319 89.5037 263.865 89.674 263.467 90.0714L161.736 188.623C160.771 189.531 159.125 189.248 158.614 187.999L129.037 90.5823C128.753 89.8443 128.072 89.3901 127.277 89.3901H85.3814C84.5299 89.3901 83.7918 89.9578 83.508 90.7526L17.5987 306.193C17.2013 307.442 18.1664 308.634 19.4721 308.634H62.4465C63.2981 308.634 64.0361 308.066 64.3199 307.271L106.045 171.025C106.613 169.322 108.941 169.151 109.679 170.854L138.177 236.082C138.461 236.764 139.142 237.275 139.937 237.275H163.156C163.666 237.275 164.121 237.104 164.518 236.707L233.266 169.265C234.685 167.845 237.013 169.322 236.445 171.195L195.117 306.249C194.776 307.498 195.684 308.69 196.99 308.69H240.021C240.873 308.69 241.611 308.123 241.895 307.328L307.804 91.9448C308.145 90.6958 307.236 89.5037 305.931 89.5037H305.76Z"/>
		<path d="M52.9091 75.4818L3.17909 25.9788C2.55462 25.4111 1.81662 25.4679 1.75985 25.4679C0.794772 25.4679 0 26.2627 0 27.2277V244.882C0 245.847 0.794772 246.642 1.75985 246.642C2.49786 246.642 3.17909 246.131 3.40617 245.449C3.46294 245.393 3.46294 245.279 3.51971 245.166C3.51971 245.109 3.63324 244.655 3.63324 244.598L53.8174 80.0233C54.4419 78.2635 54.4419 77.0145 52.9091 75.4818Z"
		/>
		<path d="M24.5247 4.34958L76.8661 57.3155C78.115 58.5644 79.3072 58.8482 81.1806 58.8482H305.988C307.52 58.8482 308.372 56.8613 306.896 55.4421L254.952 2.87357C252.681 0.659564 252.511 1.00018 250.013 1.00018H25.7168C24.7517 1.00018 23.957 1.79495 23.957 2.76003C23.957 2.8168 23.9002 3.61157 24.5814 4.29281C24.5247 4.23604 24.5247 4.29281 24.5814 4.29281L24.5247 4.34958Z"
		/>
		<path d="M753.387 179.767C753.387 152.688 773.767 120.386 808.51 120.386H834.057L824.917 149.906C814.244 185.274 797.213 207.13 776.492 207.13C761.562 207.13 753.33 196.684 753.33 179.767H753.387ZM623.385 165.007C610.612 206.562 630.084 235.174 674.251 235.174C680.666 235.174 689.181 234.55 691.622 233.925C692.814 233.641 693.439 233.017 694.063 231.484L701.67 205.654C701.954 204.121 701.67 202.872 699.513 203.213C692.814 203.837 686.74 204.462 681.233 204.462C659.036 204.462 649.897 192.483 656.595 170.911L672.093 120.443H717.168C718.36 120.443 719.326 119.819 719.893 118.286L727.784 92.1151C728.068 90.5823 727.5 89.674 725.627 89.674H681.46L687.251 70.5994C687.535 69.3505 687.251 68.4422 686.342 67.5339L662.897 46.0183C661.705 44.7693 660.172 45.11 659.547 46.9266L623.328 165.064L623.385 165.007ZM468.121 165.915C455.007 208.095 476.012 235.742 508.938 235.742C527.842 235.742 542.716 226.488 553.388 211.444L553.105 230.803C553.105 232.676 554.013 233.244 555.546 233.244H576.55C578.083 233.244 578.708 232.619 579.275 231.087L621.569 92.3421C622.193 90.4688 621.285 89.5604 619.752 89.5604H589.607C588.075 89.5604 587.166 90.1849 586.882 91.7177L568.943 150.19C557.703 186.523 540.048 207.13 521.427 207.13C502.807 207.13 494.916 192.37 501.955 169.605L525.685 92.3989C526.309 90.5255 525.401 89.6172 523.868 89.6172H493.724C492.191 89.6172 491.567 90.2417 490.999 91.7744L468.178 165.915H468.121ZM365.538 165.007C352.765 206.562 372.237 235.174 416.404 235.174C422.819 235.174 431.334 234.55 433.775 233.925C434.967 233.641 435.592 233.017 436.216 231.484L443.823 205.654C444.107 204.121 443.823 202.872 441.666 203.213C434.967 203.837 428.893 204.462 423.386 204.462C401.19 204.462 392.05 192.483 398.748 170.911L414.247 120.443H459.322C460.514 120.443 461.763 119.819 462.046 118.286L469.937 92.1151C470.221 90.5823 469.654 89.674 467.78 89.674H423.33L429.12 70.5994C429.404 69.3505 429.12 68.4422 428.212 67.5339L404.766 46.0183C403.574 44.7693 402.041 45.11 401.417 46.9266L365.482 165.064L365.538 165.007ZM765.593 235.799C783.248 235.799 797.838 227.794 808.851 211.501V230.86C808.851 232.392 809.759 233.301 811.292 233.301H832.297C833.829 233.301 834.454 232.676 835.022 231.143L877.656 92.0583C877.939 90.5255 877.372 89.2766 875.839 89.2766H809.475C744.645 89.2766 719.382 146.216 719.382 183.116C719.382 215.418 739.195 235.742 765.649 235.742L765.593 235.799Z"
		/>
		<path d="M953.935 233.068H928.471C927.471 233.068 926.647 232.245 926.647 231.245V91.159C926.647 90.1593 927.471 89.3359 928.471 89.3359H948.584C949.29 89.3359 949.936 89.7476 950.23 90.3357L954.582 99.2161C955.17 100.392 956.641 100.569 957.523 99.6277C960.757 96.2167 964.463 93.2762 968.638 90.6298C973.637 87.5128 979.753 85.9837 986.928 85.9837C989.751 85.9837 992.868 86.3366 996.397 87.0423C999.925 87.748 1003.51 88.9243 1007.22 90.6298C1010.92 92.3353 1014.45 94.6289 1017.86 97.5106C1020.57 99.8042 1022.98 102.686 1025.04 106.097C1025.74 107.273 1027.39 107.332 1028.15 106.097C1031.51 100.98 1036.09 96.5108 1042.03 92.6881C1048.91 88.1597 1056.32 85.9249 1064.09 85.9249C1069.26 85.9249 1074.79 86.6895 1080.61 88.3361C1086.38 89.924 1091.85 92.9234 1096.79 97.3341C1101.78 101.745 1105.9 107.861 1109.08 115.624C1112.25 123.387 1113.9 133.502 1113.9 145.911V231.128C1113.9 232.127 1113.08 232.951 1112.08 232.951H1088.43C1087.43 232.951 1086.61 232.127 1086.61 231.128V145.617C1086.61 133.208 1084.02 124.563 1078.97 119.682C1073.85 114.801 1067.15 112.331 1058.74 112.331C1052.33 112.331 1046.74 115.036 1041.92 120.447C1037.09 125.857 1034.68 134.385 1034.68 145.97V231.186C1034.68 232.186 1033.86 233.01 1032.86 233.01H1009.22C1008.22 233.01 1007.39 232.186 1007.39 231.186V145.676C1007.39 133.267 1004.81 124.622 999.749 119.741C994.632 114.86 987.928 112.39 979.518 112.39C973.519 112.39 968.285 114.683 963.757 119.329C959.228 123.916 956.582 131.15 955.817 140.913V231.245C955.817 232.245 954.994 233.068 953.994 233.068H953.935Z"/>
		<path d="M1284.39 91.1593V231.246C1284.39 232.245 1283.57 233.069 1282.57 233.069H1261.16C1260.34 233.069 1259.63 232.539 1259.4 231.716L1256.22 219.954C1255.81 218.542 1254.04 218.19 1253.04 219.307C1248.4 224.6 1242.75 228.658 1236.05 231.598C1228.23 235.009 1220.35 236.715 1212.35 236.715C1202.35 236.715 1193 234.774 1184.3 230.893C1175.59 227.011 1168.01 221.659 1161.48 214.837C1154.95 208.015 1149.83 200.017 1146.01 190.843C1142.19 181.61 1140.31 171.847 1140.31 161.438C1140.31 151.028 1142.19 141.266 1146.01 132.032C1149.83 122.799 1154.95 114.801 1161.48 108.038C1168.01 101.275 1175.59 95.8641 1184.3 91.9826C1193 88.1011 1202.35 86.1604 1212.35 86.1604C1220.35 86.1604 1228.05 87.6895 1235.46 90.8064C1241.93 93.5117 1247.81 97.5696 1253.1 102.98C1254.1 103.98 1255.75 103.627 1256.16 102.274L1259.4 90.7476C1259.63 89.9831 1260.34 89.395 1261.16 89.395H1282.57C1283.57 89.395 1284.39 90.2183 1284.39 91.2181V91.1593ZM1212.35 210.897C1218.11 210.897 1223.64 209.603 1228.87 207.016C1234.05 204.428 1238.58 200.841 1242.4 196.371C1246.16 191.901 1249.16 186.608 1251.4 180.61C1253.57 174.611 1254.69 168.201 1254.69 161.379C1254.69 154.557 1253.57 148.205 1251.4 142.148C1249.22 136.149 1246.22 130.915 1242.4 126.387C1238.58 121.917 1234.11 118.33 1228.87 115.742C1223.64 113.154 1218.17 111.861 1212.35 111.861C1206.53 111.861 1201.06 113.154 1195.82 115.742C1190.59 118.33 1186.12 121.917 1182.3 126.387C1178.47 130.915 1175.47 136.149 1173.3 142.148C1171.12 148.146 1170 154.557 1170 161.379C1170 168.201 1171.12 174.611 1173.3 180.61C1175.47 186.608 1178.47 191.843 1182.3 196.371C1186.06 200.899 1190.59 204.428 1195.82 207.016C1201.06 209.603 1206.53 210.897 1212.35 210.897Z"/>
		<path d="M1329.67 58.1078C1323.91 58.1078 1319.15 55.873 1315.33 51.3446C1312.91 48.4629 1311.38 44.7579 1311.15 40.994C1310.68 34.9954 1312.5 30.0553 1316.5 26.0562C1320.09 22.4688 1324.5 20.6456 1329.73 20.6456C1334.97 20.6456 1339.32 22.4688 1342.97 26.0562C1346.97 30.0553 1348.73 35.0542 1348.32 40.994C1348.02 44.7579 1346.55 48.4629 1344.14 51.3446C1340.32 55.873 1335.56 58.1078 1329.79 58.1078H1329.67ZM1342.85 233.069H1317.09C1316.09 233.069 1315.27 232.245 1315.27 231.245V91.1592C1315.27 90.1595 1316.09 89.3361 1317.09 89.3361H1342.55C1343.55 89.3361 1344.38 90.1595 1344.38 91.1592L1344.67 231.245C1344.67 232.245 1343.85 233.069 1342.85 233.069Z"/>
		<path d="M1407.72 15.8231V231.245C1407.72 232.245 1406.89 233.069 1405.89 233.069H1380.43C1379.43 233.069 1378.6 232.245 1378.6 231.245V15.8231C1378.6 14.8233 1379.43 14 1380.43 14H1405.89C1406.89 14 1407.72 14.8233 1407.72 15.8231Z"/>
	</symbol>
</svg>