<svg width="28" height="36" viewBox="0 0 28 36" xmlns="http://www.w3.org/2000/svg">
	<path d="M10.4219 8.13383C12.5266 8.13383 14.2387 6.42173 14.2387 4.31704C14.2387 2.21235 12.5266 0.500244 10.4219 0.500244C8.31721 0.500244 6.6051 2.21235 6.6051 4.31704C6.6051 6.42173 8.31721 8.13383 10.4219 8.13383ZM10.4219 2.68127C11.3236 2.68127 12.0577 3.41532 12.0577 4.31704C12.0577 5.21876 11.3236 5.95281 10.4219 5.95281C9.52018 5.95281 8.78613 5.21876 8.78613 4.31704C8.78613 3.41532 9.52018 2.68127 10.4219 2.68127Z"/>
	<path d="M14.0635 16.9357C13.4992 16.9357 13.0412 17.3937 13.0412 17.958V32.5068C13.0412 33.0303 12.6152 33.4556 12.0911 33.4556C11.5669 33.4556 11.145 33.0296 11.145 32.5068V21.7728C11.145 21.2084 10.687 20.7504 10.1227 20.7504C9.55834 20.7504 9.10033 21.2084 9.10033 21.7728V32.5068C9.10033 33.0303 8.67503 33.4556 8.15226 33.4556C7.6295 33.4556 7.20215 33.0296 7.20215 32.5068V14.5638C7.20215 13.6246 6.94793 12.9785 6.32429 12.3344C4.99114 10.9597 4.39749 10.3333 3.4985 9.38659C3.27086 9.14668 3.02276 8.88495 2.73787 8.58574C2.21442 8.03299 2.04062 7.60769 2.04812 6.89954C2.04812 6.89545 2.04812 6.89204 2.04812 6.88795L2.04403 3.12841C2.04403 2.81284 2.30098 2.55589 2.61723 2.55589C2.93348 2.55589 3.18907 2.81284 3.18907 3.12841V6.36655C3.18907 7.11764 3.42285 7.68675 3.94834 8.21224C4.41589 8.67776 4.98092 9.24346 5.5398 9.80235C5.90853 10.1711 6.27454 10.5371 6.60782 10.8704C7.11696 11.3795 7.80807 11.6603 8.55371 11.6603H12.7495C12.9062 11.6603 13.0528 11.7223 13.1618 11.8348C13.5558 12.239 14.2032 12.2478 14.6074 11.8539C15.0116 11.4599 15.0204 10.8124 14.6265 10.4083C14.129 9.89708 13.4624 9.61628 12.7495 9.61628H8.55371C8.35469 9.61628 8.1768 9.54812 8.05344 9.42476C7.72015 9.09147 7.35414 8.72615 6.9861 8.35742C6.42585 7.79717 5.86014 7.23078 5.39258 6.76527C5.26377 6.63645 5.23378 6.58397 5.23378 6.36723V3.12909C5.23446 1.68484 4.0608 0.510498 2.61791 0.510498C1.17503 0.510498 0 1.68484 0 3.12909L0.00408942 6.88454C-0.00749727 8.12432 0.366685 9.0533 1.25545 9.99251C1.54103 10.2931 1.78844 10.5541 2.01608 10.794C2.91917 11.7462 3.51622 12.3753 4.85687 13.7575C5.09065 13.9988 5.15881 14.1344 5.15881 14.5638V32.5061C5.15881 34.1569 6.50218 35.4996 8.15363 35.4996C8.90744 35.4996 9.59719 35.2188 10.124 34.7567C10.6502 35.2188 11.3393 35.4996 12.0931 35.4996C13.7445 35.4996 15.0879 34.1569 15.0879 32.5061V17.9573C15.0879 17.393 14.6299 16.935 14.0656 16.935L14.0635 16.9357Z"/>
	<path d="M26.9486 4.33402H26.3032V1.53344C26.3032 1.19538 26.1362 0.879136 25.8574 0.688978C25.5787 0.49882 25.2229 0.457926 24.9087 0.58129L19.2476 2.79708H16.3652C15.8008 2.79708 15.3428 3.25509 15.3428 3.81943V6.89399C15.3428 7.45833 15.8008 7.91635 16.3652 7.91635H19.2476L24.9087 10.1315C25.0293 10.1785 25.1554 10.2017 25.2808 10.2017C25.4839 10.2017 25.685 10.141 25.8574 10.0238C26.1362 9.83361 26.3032 9.51736 26.3032 9.1793V6.37873H26.9486C27.513 6.37873 27.971 5.92071 27.971 5.35637C27.971 4.79203 27.513 4.33402 26.9486 4.33402ZM18.4174 5.87164H17.3869V4.84179H18.4174V5.87164ZM24.2585 7.68121L20.4621 6.19607V4.51736L24.2585 3.03154V7.68121Z"/>
	<path d="M17.9014 8.69482C16.4585 8.69482 15.2849 9.86849 15.2849 11.3107V13.0235C15.2849 13.5878 15.7429 14.0458 16.3072 14.0458C16.8716 14.0458 17.3296 13.5878 17.3296 13.0235V11.3107C17.3296 10.9958 17.5859 10.7395 17.9014 10.7395C18.217 10.7395 18.4712 10.9958 18.4712 11.3107V16.2473C18.4712 16.5622 18.2156 16.8178 17.9014 16.8178C17.7004 16.8178 17.562 16.7203 17.4829 16.6413C16.7857 15.9324 15.1145 14.1815 15.0974 14.1637C14.7076 13.7555 14.0608 13.7398 13.6518 14.1297C13.2436 14.5195 13.2279 15.1663 13.6178 15.5753C13.6866 15.6475 15.3162 17.3549 16.0271 18.0773C16.5287 18.5837 17.194 18.8625 17.9007 18.8625C19.3423 18.8625 20.5152 17.6895 20.5152 16.2473V11.3107C20.5152 9.86849 19.3423 8.69482 17.9007 8.69482H17.9014Z"/>
</svg>
