<svg xmlns="http://www.w3.org/2000/svg" width="61" height="60" viewBox="0 0 61 60" fill="none">
  <path fill-rule="evenodd" clip-rule="evenodd" d="M24.8137 19.8435C24.8137 11.0673 31.9407 4 40.9773 4C49.9673 4 57.387 10.9986 57.387 19.8201C57.387 28.637 49.9721 35.6672 40.9773 35.6672C39.0062 35.6672 37.3448 35.415 35.635 34.8039C35.5757 34.8455 35.51 34.8909 35.4364 34.9411C35.0792 35.1847 34.4611 35.5873 33.743 35.742C33.3597 35.825 33.008 35.7897 32.8461 35.7707C32.6385 35.7463 32.4295 35.7054 32.2464 35.6647C31.891 35.5857 31.4863 35.474 31.1396 35.3783L31.1131 35.371C30.9205 35.3178 30.7443 35.2694 30.5845 35.2272C30.6349 35.3388 30.6944 35.4638 30.7634 35.6049C30.7882 35.6556 30.8154 35.7107 30.8442 35.7689C30.9778 36.0392 31.1456 36.3785 31.2688 36.6811C31.3474 36.8744 31.4361 37.1184 31.4947 37.3844C31.5497 37.6336 31.6099 38.0379 31.5122 38.4961C31.3973 39.0353 31.1121 39.5166 30.8904 39.841C30.6382 40.2098 30.3226 40.5838 29.9745 40.9253C29.3574 41.5305 28.3115 42.3551 27.0702 42.4997C26.2894 42.5907 25.5995 42.3539 25.1899 42.1915C25.0298 42.128 24.8742 42.0594 24.7341 41.9956C24.7426 42.0159 24.7511 42.0362 24.7594 42.0564C24.8947 42.3859 25.1197 42.9744 25.1065 43.6482C25.0803 45.2441 24.1453 46.2114 23.4873 46.8174C23.1236 47.1575 22.6574 47.5801 22.0821 47.891C21.4434 48.2362 20.7514 48.4058 19.962 48.3963L19.9609 48.3962C19.3443 48.3884 18.6804 48.2453 18.2592 48.1546C18.2067 48.1432 18.1579 48.1327 18.1134 48.1234C17.8673 48.0717 17.702 48.0408 17.5762 48.0262C17.5673 48.0252 17.559 48.0243 17.5514 48.0235C17.5523 48.0305 17.5531 48.0377 17.554 48.0452C17.578 48.2393 17.6009 48.3649 17.6297 48.5233C17.6571 48.6739 17.6899 48.8542 17.7341 49.1513C17.845 49.895 18.0892 51.6683 16.7858 52.9462C16.5349 53.1933 16.3397 53.3989 16.0818 53.6706C15.9892 53.7681 15.8886 53.8742 15.7744 53.9936C15.3508 54.437 14.7929 55.0098 13.8736 55.9052L13.8689 55.9098L13.8649 55.9136C13.1295 56.6208 12.2332 56.535 11.8632 56.4632C11.4449 56.3821 11.0715 56.2083 10.8029 56.0653C10.2429 55.7672 9.64242 55.33 9.11688 54.9131C8.04781 54.065 6.96494 53.0399 6.52137 52.5761C5.8431 51.867 4.87598 50.4636 4.87598 48.7832L4.87598 48.782C4.87636 48.1871 5.00195 47.5989 5.24458 47.0557C5.48129 46.5257 5.82425 46.0501 6.25205 45.6583C6.51145 45.4021 7.49359 44.2978 9.00284 42.562C10.5026 40.8371 12.4409 38.5848 14.5007 36.1814C18.2914 31.7588 22.4854 26.8347 25.0993 23.7658C24.8129 22.4291 24.8133 21.1012 24.8137 19.9666C24.8137 19.9253 24.8137 19.8843 24.8137 19.8435ZM17.539 47.8461C17.5391 47.8461 17.539 47.8476 17.5389 47.8503C17.5389 47.8474 17.539 47.8461 17.539 47.8461ZM30.3889 34.6933C30.389 34.6933 30.3895 34.6958 30.39 34.7005C30.3891 34.6956 30.3888 34.6932 30.3889 34.6933ZM29.9401 35.0809C29.9415 35.081 29.9429 35.0812 29.9445 35.0814C29.9173 35.0799 29.9136 35.0778 29.9401 35.0809ZM40.9773 7.75078C33.9558 7.75078 28.5645 13.1947 28.5645 19.8435C28.5645 21.4288 28.5824 22.5792 28.9412 23.6118C29.1595 24.2401 29.0287 24.937 28.5974 25.4433C28.4067 25.6672 28.2043 25.9049 27.9911 26.1552C25.3803 29.2205 21.161 34.1743 17.3486 38.6224C15.287 41.0277 13.3419 43.288 11.8333 45.023C10.3667 46.7098 9.22513 48.0029 8.83705 48.3764C8.82133 48.3915 8.80535 48.4063 8.78912 48.4209C8.73807 48.4667 8.69723 48.5227 8.66926 48.5854C8.64136 48.6478 8.62688 48.7154 8.62676 48.7838C8.6269 48.9085 8.66891 49.1069 8.79685 49.3619C8.92301 49.6134 9.0919 49.8372 9.23184 49.9835C9.56186 50.3285 10.5185 51.2373 11.4479 51.9746C11.6709 52.1515 11.8751 52.3046 12.0554 52.4313C12.4903 51.9971 12.8048 51.6723 13.0626 51.4025C13.1552 51.3056 13.2436 51.2124 13.3301 51.1212C13.5765 50.8616 13.8067 50.6189 14.0711 50.3558C14.0772 50.2772 14.0812 50.0859 14.0244 49.7044C14.0143 49.637 13.9932 49.5132 13.9682 49.3663C13.9203 49.0852 13.8581 48.7198 13.8316 48.5051C13.7866 48.141 13.7049 47.3797 14.0178 46.6496C14.2845 46.0271 14.6534 45.4316 15.2494 44.9883C15.8284 44.5577 16.4395 44.4144 16.8203 44.3342C17.2778 44.2379 17.7104 44.2658 18.0085 44.3004C18.3215 44.3367 18.6354 44.4004 18.8845 44.4527C18.918 44.4598 18.9507 44.4666 18.9824 44.4733C19.508 44.5838 19.7885 44.6429 20.0077 44.6457C20.1908 44.6479 20.2489 44.6182 20.2988 44.5913C20.4091 44.5316 20.5683 44.4119 20.9304 44.0731C20.9342 44.0695 20.9381 44.066 20.9419 44.0625C21.2035 43.8218 21.3004 43.7014 21.3416 43.6347C21.3431 43.6324 21.3443 43.6302 21.3455 43.6282C21.3345 43.5957 21.317 43.5476 21.2899 43.4815C21.2506 43.3859 21.2077 43.29 21.1507 43.1625C21.1391 43.1366 21.127 43.1094 21.1142 43.0806C21.0449 42.9253 20.9585 42.7295 20.8794 42.5216C20.7288 42.1259 20.5362 41.5194 20.5761 40.8219C20.6206 40.0442 20.9433 39.3109 21.5558 38.7111C22.2465 38.0346 23.0821 37.7858 23.878 37.8187C24.5717 37.8473 25.1853 38.0881 25.5769 38.257C25.7514 38.3323 25.928 38.4146 26.074 38.4827C26.1012 38.4954 26.1272 38.5076 26.152 38.5191C26.3255 38.5997 26.4564 38.6588 26.5723 38.7048C26.619 38.7233 26.6568 38.7369 26.6864 38.7468C26.7173 38.7321 26.758 38.7107 26.8086 38.6799C26.9699 38.5819 27.1589 38.4331 27.348 38.2476C27.4818 38.1164 27.5987 37.9834 27.6921 37.8633C27.6421 37.7568 27.583 37.6368 27.5119 37.4927C27.4759 37.4195 27.4367 37.3402 27.3942 37.2532C27.2272 36.9119 27.0102 36.4571 26.8579 35.9888C26.7171 35.556 26.5411 34.8533 26.7113 34.0956L26.7127 34.0897C26.7133 34.0867 26.714 34.0836 26.7147 34.0806C26.8146 33.6525 27.0311 33.3057 27.1568 33.1204C27.3118 32.892 27.4971 32.6686 27.6931 32.4669C28.0075 32.1435 28.6459 31.5659 29.4789 31.3848C29.8631 31.3013 30.2158 31.3367 30.378 31.3557C30.5856 31.3801 30.7945 31.4211 30.9776 31.4617C31.3331 31.5407 31.7378 31.6524 32.0845 31.7481L32.111 31.7554C32.4911 31.8603 32.8073 31.9471 33.0596 32.0031C33.0629 32.0038 33.0661 32.0046 33.0693 32.0053C33.1381 31.9649 33.2214 31.9117 33.323 31.8424C33.4411 31.7619 33.5557 31.6793 33.6896 31.5828C33.7261 31.5566 33.7639 31.5293 33.8037 31.5007C33.9735 31.3787 34.182 31.2306 34.395 31.098C34.9172 30.7728 35.5657 30.7244 36.1304 30.9685C37.6879 31.6418 39.0838 31.9164 40.9773 31.9164C48.0405 31.9164 53.6362 26.4283 53.6362 19.8201C53.6362 13.2165 48.0453 7.75078 40.9773 7.75078ZM33.2839 32.0455C33.2826 32.0454 33.2811 32.0452 33.2796 32.045C33.3068 32.0465 33.3105 32.0487 33.2839 32.0455ZM27.8879 37.5685C27.888 37.5683 27.8872 37.5702 27.8852 37.5744C27.8868 37.5706 27.8878 37.5686 27.8879 37.5685ZM44.2592 15.2524C43.8883 15.2524 43.5257 15.3623 43.2173 15.5684C42.9089 15.7745 42.6685 16.0674 42.5266 16.4101C42.3846 16.7527 42.3475 17.1298 42.4198 17.4936C42.4922 17.8574 42.6708 18.1916 42.9331 18.4538C43.1954 18.7161 43.5295 18.8947 43.8933 18.9671C44.2571 19.0395 44.6342 19.0023 44.9769 18.8604C45.3196 18.7184 45.6125 18.4781 45.8185 18.1697C46.0246 17.8612 46.1346 17.4987 46.1346 17.1277C46.1346 16.6304 45.937 16.1533 45.5853 15.8016C45.2336 15.4499 44.7566 15.2524 44.2592 15.2524ZM41.1335 12.4497C42.0587 11.8315 43.1465 11.5016 44.2592 11.5016C45.7514 11.5016 47.1824 12.0943 48.2375 13.1494C49.2926 14.2045 49.8854 15.6356 49.8854 17.1277C49.8854 18.2405 49.5554 19.3283 48.9372 20.2535C48.319 21.1787 47.4403 21.8998 46.4123 22.3257C45.3842 22.7515 44.253 22.8629 43.1616 22.6458C42.0702 22.4287 41.0677 21.8929 40.2809 21.1061C39.4941 20.3192 38.9582 19.3167 38.7411 18.2254C38.5241 17.134 38.6355 16.0027 39.0613 14.9747C39.4871 13.9467 40.2083 13.068 41.1335 12.4497Z" fill="#850122"/>
</svg>