<svg width="60" height="60" viewBox="0 0 60 60" fill="none" xmlns="http://www.w3.org/2000/svg">
<path d="M32.0418 7.69569C31.9864 7.6959 31.9322 7.67861 31.8872 7.64626L29.7684 6.11022L27.6496 7.64626C27.6044 7.6791 27.5498 7.69668 27.4939 7.69648C27.438 7.69627 27.3836 7.67829 27.3386 7.64513C27.2935 7.61197 27.2602 7.56536 27.2434 7.51202C27.2267 7.45868 27.2273 7.40138 27.2452 7.34841L28.0715 4.90087L25.9299 3.4322C25.8835 3.40043 25.8485 3.35465 25.83 3.30156C25.8114 3.24847 25.8104 3.19084 25.8269 3.13711C25.8435 3.08337 25.8768 3.03634 25.922 3.00289C25.9672 2.96943 26.0219 2.95131 26.0782 2.95116H28.7203L29.5177 0.497353C29.5348 0.444376 29.5683 0.398201 29.6134 0.365452C29.6584 0.332703 29.7127 0.315063 29.7684 0.315063C29.8241 0.315063 29.8783 0.332703 29.9234 0.365452C29.9684 0.398201 30.002 0.444376 30.0191 0.497353L30.8165 2.95199H33.4586C33.5149 2.95196 33.5698 2.96996 33.6151 3.00335C33.6604 3.03674 33.6939 3.08376 33.7105 3.13754C33.7272 3.19131 33.7262 3.24901 33.7077 3.30219C33.6892 3.35536 33.6542 3.40121 33.6077 3.43303L31.4652 4.90087L32.2911 7.34775C32.3045 7.38737 32.3082 7.4296 32.3021 7.47096C32.2959 7.51232 32.28 7.55161 32.2557 7.58561C32.2313 7.6196 32.1992 7.64731 32.162 7.66645C32.1249 7.68559 32.0837 7.69561 32.0418 7.69569Z" fill="#FEDC59"/>
<path d="M32.0418 59.3953C31.9864 59.3955 31.9322 59.3783 31.8872 59.3459L29.7684 57.8099L27.6496 59.3459C27.6044 59.3787 27.5498 59.3963 27.4939 59.3961C27.438 59.3959 27.3836 59.3779 27.3386 59.3448C27.2935 59.3116 27.2602 59.265 27.2434 59.2117C27.2267 59.1583 27.2273 59.101 27.2452 59.0481L28.0715 56.6005L25.9299 55.1319C25.8835 55.1001 25.8485 55.0543 25.83 55.0012C25.8114 54.9481 25.8104 54.8905 25.8269 54.8368C25.8435 54.783 25.8768 54.736 25.922 54.7025C25.9672 54.6691 26.0219 54.651 26.0782 54.6508H28.7203L29.5177 52.197C29.5348 52.144 29.5683 52.0978 29.6134 52.0651C29.6584 52.0323 29.7127 52.0147 29.7684 52.0147C29.8241 52.0147 29.8783 52.0323 29.9234 52.0651C29.9684 52.0978 30.002 52.144 30.0191 52.197L30.8165 54.6516H33.4586C33.5149 54.6516 33.5698 54.6696 33.6151 54.703C33.6604 54.7364 33.6939 54.7834 33.7105 54.8372C33.7272 54.891 33.7262 54.9487 33.7077 55.0018C33.6892 55.055 33.6542 55.1009 33.6077 55.1327L31.4652 56.6005L32.2911 59.0474C32.3045 59.087 32.3082 59.1292 32.3021 59.1706C32.2959 59.212 32.28 59.2513 32.2557 59.2853C32.2313 59.3192 32.1992 59.347 32.162 59.3661C32.1249 59.3852 32.0837 59.3953 32.0418 59.3953Z" fill="#FEDC59"/>
<path d="M46.6411 11.3452C46.5856 11.3454 46.5315 11.3281 46.4864 11.2957L44.3676 9.7597L42.2489 11.2957C42.2036 11.3286 42.1491 11.3462 42.0932 11.346C42.0372 11.3457 41.9828 11.3278 41.9378 11.2946C41.8928 11.2614 41.8595 11.2148 41.8427 11.1615C41.8259 11.1082 41.8265 11.0509 41.8444 10.9979L42.6708 8.55034L40.5291 7.08168C40.4827 7.0499 40.4477 7.00412 40.4292 6.95103C40.4107 6.89794 40.4096 6.84032 40.4262 6.78658C40.4428 6.73285 40.4761 6.68582 40.5213 6.65236C40.5665 6.61891 40.6212 6.60078 40.6774 6.60064H43.3195L44.1169 4.14683C44.1341 4.09385 44.1676 4.04768 44.2126 4.01493C44.2577 3.98218 44.3119 3.96454 44.3676 3.96454C44.4233 3.96454 44.4776 3.98218 44.5226 4.01493C44.5677 4.04768 44.6012 4.09385 44.6184 4.14683L45.4157 6.60146H48.0579C48.1142 6.60143 48.169 6.61943 48.2143 6.65282C48.2597 6.68621 48.2931 6.73324 48.3098 6.78701C48.3265 6.84079 48.3255 6.89849 48.307 6.95166C48.2885 7.00483 48.2534 7.05069 48.207 7.0825L46.0645 8.55034L46.8903 10.9972C46.9037 11.0368 46.9075 11.0791 46.9013 11.1204C46.8952 11.1618 46.8792 11.2011 46.8549 11.2351C46.8305 11.2691 46.7985 11.2968 46.7613 11.3159C46.7241 11.3351 46.6829 11.3451 46.6411 11.3452Z" fill="#FEDC59"/>
<path d="M17.4426 11.3452C17.3871 11.3454 17.3329 11.3281 17.2879 11.2957L15.1691 9.7597L13.0503 11.2957C13.0051 11.3286 12.9505 11.3462 12.8946 11.346C12.8387 11.3457 12.7843 11.3278 12.7393 11.2946C12.6942 11.2614 12.6609 11.2148 12.6441 11.1615C12.6274 11.1082 12.628 11.0509 12.6459 10.9979L13.4722 8.55034L11.3306 7.08168C11.2842 7.0499 11.2492 7.00412 11.2307 6.95103C11.2121 6.89794 11.2111 6.84032 11.2277 6.78658C11.2442 6.73285 11.2775 6.68582 11.3227 6.65236C11.3679 6.61891 11.4226 6.60078 11.4789 6.60064H14.121L14.9184 4.14683C14.9355 4.09385 14.9691 4.04768 15.0141 4.01493C15.0591 3.98218 15.1134 3.96454 15.1691 3.96454C15.2248 3.96454 15.2791 3.98218 15.3241 4.01493C15.3691 4.04768 15.4027 4.09385 15.4198 4.14683L16.2172 6.60146H18.8593C18.9156 6.60143 18.9705 6.61943 19.0158 6.65282C19.0611 6.68621 19.0946 6.73324 19.1112 6.78701C19.1279 6.84079 19.1269 6.89849 19.1084 6.95166C19.0899 7.00483 19.0549 7.05069 19.0084 7.0825L16.866 8.55034L17.6918 10.9972C17.7052 11.0368 17.709 11.0791 17.7028 11.1204C17.6966 11.1618 17.6807 11.2011 17.6564 11.2351C17.632 11.2691 17.5999 11.2968 17.5627 11.3159C17.5256 11.3351 17.4844 11.3451 17.4426 11.3452Z" fill="#FEDC59"/>
<path d="M46.6411 55.1378C46.5856 55.138 46.5315 55.1207 46.4864 55.0884L44.3676 53.5524L42.2489 55.0884C42.2036 55.1212 42.1491 55.1388 42.0932 55.1386C42.0372 55.1384 41.9828 55.1204 41.9378 55.0873C41.8928 55.0541 41.8595 55.0075 41.8427 54.9542C41.8259 54.9008 41.8265 54.8435 41.8444 54.7906L42.6708 52.343L40.5291 50.8743C40.4827 50.8426 40.4477 50.7968 40.4292 50.7437C40.4107 50.6906 40.4096 50.633 40.4262 50.5792C40.4428 50.5255 40.4761 50.4785 40.5213 50.445C40.5665 50.4116 40.6212 50.3934 40.6774 50.3933H43.3195L44.1169 47.9395C44.1341 47.8865 44.1676 47.8403 44.2126 47.8076C44.2577 47.7748 44.3119 47.7572 44.3676 47.7572C44.4233 47.7572 44.4776 47.7748 44.5226 47.8076C44.5677 47.8403 44.6012 47.8865 44.6184 47.9395L45.4157 50.3941H48.0579C48.1142 50.3941 48.169 50.4121 48.2143 50.4455C48.2597 50.4789 48.2931 50.5259 48.3098 50.5797C48.3265 50.6335 48.3255 50.6912 48.307 50.7443C48.2885 50.7975 48.2534 50.8433 48.207 50.8752L46.0645 52.343L46.8903 54.7899C46.9037 54.8295 46.9075 54.8717 46.9013 54.9131C46.8952 54.9545 46.8792 54.9938 46.8549 55.0277C46.8305 55.0617 46.7985 55.0894 46.7613 55.1086C46.7241 55.1277 46.6829 55.1378 46.6411 55.1378Z" fill="#FEDC59"/>
<path d="M17.4426 55.1378C17.3871 55.138 17.3329 55.1207 17.2879 55.0884L15.1691 53.5524L13.0503 55.0884C13.0051 55.1212 12.9505 55.1388 12.8946 55.1386C12.8387 55.1384 12.7843 55.1204 12.7393 55.0873C12.6942 55.0541 12.6609 55.0075 12.6441 54.9542C12.6274 54.9008 12.628 54.8435 12.6459 54.7906L13.4722 52.343L11.3306 50.8743C11.2842 50.8426 11.2492 50.7968 11.2307 50.7437C11.2121 50.6906 11.2111 50.633 11.2277 50.5792C11.2442 50.5255 11.2775 50.4785 11.3227 50.445C11.3679 50.4116 11.4226 50.3934 11.4789 50.3933H14.121L14.9184 47.9395C14.9355 47.8865 14.9691 47.8403 15.0141 47.8076C15.0591 47.7748 15.1134 47.7572 15.1691 47.7572C15.2248 47.7572 15.2791 47.7748 15.3241 47.8076C15.3691 47.8403 15.4027 47.8865 15.4198 47.9395L16.2172 50.3941H18.8593C18.9156 50.3941 18.9705 50.4121 19.0158 50.4455C19.0611 50.4789 19.0946 50.5259 19.1112 50.5797C19.1279 50.6335 19.1269 50.6912 19.1084 50.7443C19.0899 50.7975 19.0549 50.8433 19.0084 50.8752L16.866 52.343L17.6918 54.7899C17.7052 54.8295 17.709 54.8717 17.7028 54.9131C17.6966 54.9545 17.6807 54.9938 17.6564 55.0277C17.632 55.0617 17.5999 55.0894 17.5627 55.1086C17.5256 55.1277 17.4844 55.1378 17.4426 55.1378Z" fill="#FEDC59"/>
<path d="M9.53669 21.6843C9.48121 21.6845 9.42707 21.6672 9.382 21.6349L7.26324 20.0988L5.14448 21.6349C5.09921 21.6677 5.04468 21.6853 4.98876 21.6851C4.93284 21.6849 4.87843 21.6669 4.83341 21.6337C4.78838 21.6006 4.75507 21.5539 4.73828 21.5006C4.7215 21.4473 4.72211 21.39 4.74003 21.337L5.56638 18.8895L3.42472 17.4208C3.37833 17.389 3.34332 17.3432 3.3248 17.2901C3.30628 17.2371 3.30523 17.1794 3.32179 17.1257C3.33835 17.072 3.37166 17.0249 3.41686 16.9915C3.46205 16.958 3.51676 16.9399 3.57299 16.9397H6.21514L7.0125 14.4859C7.02967 14.433 7.06319 14.3868 7.10824 14.354C7.15328 14.3213 7.20754 14.3036 7.26324 14.3036C7.31893 14.3036 7.37319 14.3213 7.41824 14.354C7.46328 14.3868 7.4968 14.433 7.51398 14.4859L8.31133 16.9406H10.9535C11.0098 16.9405 11.0646 16.9585 11.1099 16.9919C11.1553 17.0253 11.1887 17.0724 11.2054 17.1261C11.222 17.1799 11.2211 17.2376 11.2026 17.2908C11.1841 17.3439 11.149 17.3898 11.1026 17.4216L8.96009 18.8895L9.78595 21.3363C9.79933 21.376 9.80309 21.4182 9.79693 21.4595C9.79076 21.5009 9.77485 21.5402 9.7505 21.5742C9.72614 21.6082 9.69405 21.6359 9.65688 21.655C9.6197 21.6742 9.5785 21.6842 9.53669 21.6843Z" fill="#FEDC59"/>
<path d="M6.4962 33.8503C6.44072 33.8506 6.38658 33.8333 6.34151 33.8009L4.22275 32.2649L2.10399 33.8009C2.05872 33.8338 2.00419 33.8513 1.94827 33.8511C1.89235 33.8509 1.83795 33.833 1.79292 33.7998C1.74789 33.7666 1.71458 33.72 1.69779 33.6667C1.68101 33.6133 1.68162 33.556 1.69954 33.5031L2.52589 31.0555L0.384235 29.5869C0.337845 29.5551 0.302833 29.5093 0.284314 29.4562C0.265794 29.4031 0.264739 29.3455 0.281301 29.2918C0.297863 29.238 0.331175 29.191 0.37637 29.1576C0.421565 29.1241 0.476274 29.106 0.532504 29.1058H3.17465L3.97201 26.652C3.98919 26.599 4.0227 26.5529 4.06775 26.5201C4.11279 26.4874 4.16705 26.4697 4.22275 26.4697C4.27844 26.4697 4.3327 26.4874 4.37775 26.5201C4.42279 26.5529 4.45631 26.599 4.47349 26.652L5.27084 29.1066H7.91299C7.96929 29.1066 8.02412 29.1246 8.06945 29.158C8.11478 29.1914 8.14823 29.2384 8.16489 29.2922C8.18156 29.346 8.18057 29.4037 8.16207 29.4568C8.14357 29.51 8.10853 29.5559 8.06208 29.5877L5.9196 31.0555L6.74546 33.5024C6.75884 33.542 6.7626 33.5843 6.75644 33.6256C6.75027 33.667 6.73436 33.7063 6.71001 33.7403C6.68565 33.7743 6.65357 33.802 6.61639 33.8211C6.57921 33.8403 6.53802 33.8503 6.4962 33.8503Z" fill="#FEDC59"/>
<path d="M55.1532 21.6843C55.0977 21.6845 55.0436 21.6672 54.9985 21.6349L52.8798 20.0988L50.761 21.6349C50.7157 21.6677 50.6612 21.6853 50.6053 21.6851C50.5494 21.6849 50.495 21.6669 50.4499 21.6337C50.4049 21.6006 50.3716 21.5539 50.3548 21.5006C50.338 21.4473 50.3386 21.39 50.3566 21.337L51.1829 18.8895L49.0413 17.4208C48.9949 17.389 48.9599 17.3432 48.9413 17.2901C48.9228 17.2371 48.9218 17.1794 48.9383 17.1257C48.9549 17.072 48.9882 17.0249 49.0334 16.9915C49.0786 16.958 49.1333 16.9399 49.1895 16.9397H51.8317L52.629 14.4859C52.6462 14.433 52.6797 14.3868 52.7248 14.354C52.7698 14.3213 52.8241 14.3036 52.8798 14.3036C52.9355 14.3036 52.9897 14.3213 53.0348 14.354C53.0798 14.3868 53.1133 14.433 53.1305 14.4859L53.9279 16.9406H56.57C56.6263 16.9405 56.6811 16.9585 56.7265 16.9919C56.7718 17.0253 56.8052 17.0724 56.8219 17.1261C56.8386 17.1799 56.8376 17.2376 56.8191 17.2908C56.8006 17.3439 56.7656 17.3898 56.7191 17.4216L54.5766 18.8895L55.4025 21.3363C55.4159 21.376 55.4196 21.4182 55.4135 21.4595C55.4073 21.5009 55.3914 21.5402 55.367 21.5742C55.3427 21.6082 55.3106 21.6359 55.2734 21.655C55.2362 21.6742 55.195 21.6842 55.1532 21.6843Z" fill="#FEDC59"/>
<path d="M57.5874 33.8503C57.532 33.8506 57.4778 33.8333 57.4327 33.8009L55.314 32.2649L53.1952 33.8009C53.15 33.8338 53.0954 33.8513 53.0395 33.8511C52.9836 33.8509 52.9292 33.833 52.8842 33.7998C52.8391 33.7666 52.8058 33.72 52.789 33.6667C52.7722 33.6133 52.7729 33.556 52.7908 33.5031L53.6171 31.0555L51.4755 29.5869C51.4291 29.5551 51.3941 29.5093 51.3756 29.4562C51.357 29.4031 51.356 29.3455 51.3725 29.2918C51.3891 29.238 51.4224 29.191 51.4676 29.1576C51.5128 29.1241 51.5675 29.106 51.6237 29.1058H54.2659L55.0632 26.652C55.0804 26.599 55.1139 26.5529 55.159 26.5201C55.204 26.4874 55.2583 26.4697 55.314 26.4697C55.3697 26.4697 55.4239 26.4874 55.469 26.5201C55.514 26.5529 55.5475 26.599 55.5647 26.652L56.3621 29.1066H59.0042C59.0605 29.1066 59.1154 29.1246 59.1607 29.158C59.206 29.1914 59.2395 29.2384 59.2561 29.2922C59.2728 29.346 59.2718 29.4037 59.2533 29.4568C59.2348 29.51 59.1998 29.5559 59.1533 29.5877L57.0108 31.0555L57.8367 33.5024C57.8501 33.542 57.8538 33.5843 57.8477 33.6256C57.8415 33.667 57.8256 33.7063 57.8012 33.7403C57.7769 33.7743 57.7448 33.802 57.7076 33.8211C57.6705 33.8403 57.6293 33.8503 57.5874 33.8503Z" fill="#FEDC59"/>
<path d="M9.53696 46.014C9.48148 46.0142 9.42735 45.9969 9.38227 45.9646L7.26351 44.4285L5.14475 45.9646C5.09949 45.9974 5.04495 46.015 4.98903 46.0148C4.93311 46.0146 4.87871 45.9966 4.83368 45.9634C4.78866 45.9303 4.75534 45.8837 4.73856 45.8303C4.72177 45.777 4.72238 45.7197 4.74031 45.6667L5.56666 43.2192L3.425 41.7505C3.37861 41.7187 3.3436 41.6729 3.32508 41.6199C3.30656 41.5668 3.3055 41.5091 3.32206 41.4554C3.33863 41.4017 3.37194 41.3546 3.41713 41.3212C3.46233 41.2877 3.51704 41.2696 3.57327 41.2695H6.21542L7.01277 38.8157C7.02995 38.7627 7.06346 38.7165 7.10851 38.6838C7.15356 38.651 7.20782 38.6334 7.26351 38.6334C7.3192 38.6334 7.37347 38.651 7.41851 38.6838C7.46356 38.7165 7.49707 38.7627 7.51425 38.8157L8.31161 41.2703H10.9538C11.0101 41.2703 11.0649 41.2883 11.1102 41.3216C11.1555 41.355 11.189 41.4021 11.2057 41.4558C11.2223 41.5096 11.2213 41.5673 11.2028 41.6205C11.1843 41.6737 11.1493 41.7195 11.1028 41.7513L8.96036 43.2192L9.78622 45.6661C9.7996 45.7057 9.80337 45.7479 9.7972 45.7893C9.79104 45.8306 9.77512 45.8699 9.75077 45.9039C9.72642 45.9379 9.69433 45.9656 9.65715 45.9847C9.61998 46.0039 9.57878 46.0139 9.53696 46.014Z" fill="#FEDC59"/>
<path d="M55.1535 46.014C55.098 46.0142 55.0438 45.9969 54.9988 45.9646L52.88 44.4285L50.7613 45.9646C50.716 45.9974 50.6615 46.015 50.6055 46.0148C50.5496 46.0146 50.4952 45.9966 50.4502 45.9634C50.4052 45.9303 50.3718 45.8837 50.3551 45.8303C50.3383 45.777 50.3389 45.7197 50.3568 45.6667L51.1832 43.2192L49.0415 41.7505C48.9951 41.7187 48.9601 41.6729 48.9416 41.6199C48.9231 41.5668 48.922 41.5091 48.9386 41.4554C48.9551 41.4017 48.9884 41.3546 49.0336 41.3212C49.0788 41.2877 49.1335 41.2696 49.1898 41.2695H51.8319L52.6293 38.8157C52.6464 38.7627 52.68 38.7165 52.725 38.6838C52.7701 38.651 52.8243 38.6334 52.88 38.6334C52.9357 38.6334 52.99 38.651 53.035 38.6838C53.0801 38.7165 53.1136 38.7627 53.1308 38.8157L53.9281 41.2703H56.5703C56.6266 41.2703 56.6814 41.2883 56.7267 41.3216C56.772 41.355 56.8055 41.4021 56.8222 41.4558C56.8388 41.5096 56.8378 41.5673 56.8193 41.6205C56.8008 41.6737 56.7658 41.7195 56.7193 41.7513L54.5769 43.2192L55.4027 45.6661C55.4161 45.7057 55.4199 45.7479 55.4137 45.7893C55.4075 45.8306 55.3916 45.8699 55.3673 45.9039C55.3429 45.9379 55.3108 45.9656 55.2737 45.9847C55.2365 46.0039 55.1953 46.0139 55.1535 46.014Z" fill="#FEDC59"/>
<path d="M42.7452 21.125C42.3703 20.4848 41.587 19.6478 39.982 19.2969C39.136 19.1124 38.1474 19.0777 37.0353 19.1935C36.7329 19.2245 36.4211 19.2673 36.1003 19.3211C35.9764 19.342 35.8512 19.3643 35.7255 19.3885C35.6373 19.4049 35.5488 19.4222 35.4597 19.4409C35.632 19.948 35.7255 20.4925 35.7255 21.0584V21.7127C35.9728 21.6581 36.2189 21.6102 36.4636 21.5692C36.8729 21.5004 37.2643 21.4539 37.6325 21.4293C37.8481 21.4147 38.0557 21.4075 38.2548 21.4075C39.5534 21.4075 40.4866 21.7146 40.8234 22.2909C41.3003 23.1065 40.7438 24.7346 39.3704 26.5398C38.8403 27.2365 38.2109 27.9391 37.4996 28.6339C37.2075 28.0639 36.7396 27.6028 36.1683 27.3263C35.7295 27.088 35.2289 26.9526 34.697 26.9526H34.6187V21.0584C34.6187 20.5814 34.5525 20.1198 34.4286 19.6828C33.8408 17.6115 31.9624 16.0919 29.7422 16.0919C27.0536 16.0919 24.8661 18.32 24.8661 21.0584V24.1919C22.2066 25.9908 19.9547 28.0316 18.4207 30.0478C17.4903 31.2708 16.8613 32.4367 16.5517 33.5125C16.0901 35.1173 16.4394 36.2172 16.8139 36.8578C17.3386 37.755 18.2646 38.3806 19.4917 38.6663C20.0339 38.793 20.6365 38.8563 21.2949 38.8563C21.439 38.8563 21.5853 38.8531 21.7347 38.8472V40.4752C21.7347 42.111 23.0365 43.4369 24.6424 43.4369H34.9202C36.5262 43.4369 37.828 42.111 37.828 40.4752V31.3956C39.1307 30.2679 40.2539 29.0973 41.1384 27.935C42.0688 26.712 42.6978 25.5465 43.0074 24.4703C43.469 22.8655 43.1197 21.7656 42.7452 21.125ZM21.7347 30.0018V36.5667C20.2016 36.6451 19.1132 36.3375 18.7357 35.6919C18.2584 34.8763 18.8153 33.2482 20.1887 31.4434C20.6418 30.8479 21.1679 30.2478 21.7553 29.6523C21.7418 29.7671 21.7347 29.8838 21.7347 30.0018ZM29.7816 37.7122C28.4449 37.7122 27.361 36.6082 27.361 35.2467C27.361 33.8852 28.4449 32.7812 29.7816 32.7812C31.1182 32.7812 32.2022 33.8852 32.2022 35.2467C32.2022 36.6082 31.1182 37.7122 29.7816 37.7122ZM32.3815 27.0274H27.1028V25.439C27.2487 25.3474 27.3954 25.2572 27.543 25.1674C27.5448 25.1665 27.5466 25.1651 27.5484 25.1642C28.7697 24.4234 30.0034 23.7759 31.2131 23.2364V20.8944C31.2131 20.8525 31.2122 20.8106 31.2099 20.7691C29.8572 21.3218 28.4735 22.0021 27.1028 22.7931V21.0584C27.1028 19.5762 28.287 18.3701 29.7422 18.3701C31.1974 18.3701 32.3815 19.5762 32.3815 21.0584V27.0274Z" fill="#013E85"/>
</svg>
