<svg width="31" height="31" viewBox="0 0 31 31" fill="none" xmlns="http://www.w3.org/2000/svg">
<path d="M16.6591 4.42274C16.6308 4.42285 16.6033 4.41405 16.5803 4.39759L15.5019 3.61577L14.4235 4.39759C14.4004 4.4143 14.3727 4.42325 14.3442 4.42315C14.3158 4.42304 14.2881 4.41389 14.2652 4.39701C14.2422 4.38014 14.2253 4.35641 14.2167 4.32926C14.2082 4.30211 14.2085 4.27295 14.2176 4.24599L14.6382 3.00023L13.5482 2.25271C13.5245 2.23653 13.5067 2.21323 13.4973 2.18621C13.4879 2.15919 13.4873 2.12986 13.4958 2.10251C13.5042 2.07516 13.5211 2.05122 13.5441 2.03419C13.5672 2.01717 13.595 2.00794 13.6236 2.00786H14.9684L15.3743 0.75892C15.383 0.731956 15.4001 0.708453 15.423 0.691785C15.4459 0.675116 15.4736 0.666138 15.5019 0.666138C15.5303 0.666138 15.5579 0.675116 15.5808 0.691785C15.6037 0.708453 15.6208 0.731956 15.6295 0.75892L16.0354 2.00828H17.3802C17.4089 2.00827 17.4368 2.01743 17.4598 2.03443C17.4829 2.05142 17.4999 2.07536 17.5084 2.10273C17.5169 2.1301 17.5164 2.15947 17.507 2.18653C17.4976 2.21359 17.4797 2.23693 17.4561 2.25313L16.3656 3.00023L16.7859 4.24565C16.7927 4.26582 16.7947 4.28731 16.7915 4.30836C16.7884 4.32941 16.7803 4.34941 16.7679 4.36671C16.7555 4.38402 16.7392 4.39812 16.7202 4.40786C16.7013 4.4176 16.6804 4.4227 16.6591 4.42274Z" fill="#013E85"/>
<path d="M16.6591 30.737C16.6308 30.7371 16.6033 30.7283 16.5803 30.7118L15.5019 29.93L14.4235 30.7118C14.4004 30.7285 14.3727 30.7375 14.3442 30.7374C14.3158 30.7373 14.2881 30.7281 14.2652 30.7112C14.2422 30.6943 14.2253 30.6706 14.2167 30.6435C14.2082 30.6163 14.2085 30.5872 14.2176 30.5602L14.6382 29.3144L13.5482 28.5669C13.5245 28.5507 13.5067 28.5274 13.4973 28.5004C13.4879 28.4734 13.4873 28.4441 13.4958 28.4167C13.5042 28.3894 13.5211 28.3654 13.5441 28.3484C13.5672 28.3314 13.595 28.3221 13.6236 28.3221H14.9684L15.3743 27.0731C15.383 27.0462 15.4001 27.0227 15.423 27.006C15.4459 26.9893 15.4736 26.9803 15.5019 26.9803C15.5303 26.9803 15.5579 26.9893 15.5808 27.006C15.6037 27.0227 15.6208 27.0462 15.6295 27.0731L16.0354 28.3225H17.3802C17.4089 28.3225 17.4368 28.3316 17.4598 28.3486C17.4829 28.3656 17.4999 28.3896 17.5084 28.4169C17.5169 28.4443 17.5164 28.4737 17.507 28.5007C17.4976 28.5278 17.4797 28.5511 17.4561 28.5673L16.3656 29.3144L16.7859 30.5599C16.7927 30.58 16.7947 30.6015 16.7915 30.6226C16.7884 30.6436 16.7803 30.6636 16.7679 30.6809C16.7555 30.6982 16.7392 30.7123 16.7202 30.7221C16.7013 30.7318 16.6804 30.7369 16.6591 30.737Z" fill="#013E85"/>
<path d="M24.0899 6.28029C24.0617 6.2804 24.0341 6.27159 24.0112 6.25513L22.9328 5.47332L21.8543 6.25513C21.8313 6.27184 21.8035 6.28079 21.7751 6.28069C21.7466 6.28059 21.7189 6.27143 21.696 6.25456C21.6731 6.23768 21.6561 6.21395 21.6476 6.1868C21.639 6.15965 21.6394 6.13049 21.6485 6.10353L22.0691 4.85777L20.979 4.11025C20.9554 4.09408 20.9376 4.07078 20.9281 4.04375C20.9187 4.01673 20.9182 3.9874 20.9266 3.96005C20.935 3.9327 20.952 3.90876 20.975 3.89174C20.998 3.87471 21.0258 3.86548 21.0545 3.86541H22.3993L22.8051 2.61646C22.8139 2.5895 22.8309 2.566 22.8539 2.54933C22.8768 2.53266 22.9044 2.52368 22.9328 2.52368C22.9611 2.52368 22.9887 2.53266 23.0116 2.54933C23.0346 2.566 23.0516 2.5895 23.0604 2.61646L23.4662 3.86583H24.811C24.8397 3.86581 24.8676 3.87498 24.8907 3.89197C24.9138 3.90896 24.9308 3.9329 24.9393 3.96027C24.9477 3.98764 24.9472 4.01701 24.9378 4.04407C24.9284 4.07114 24.9106 4.09448 24.8869 4.11067L23.7964 4.85777L24.2168 6.1032C24.2236 6.12336 24.2255 6.14485 24.2224 6.1659C24.2192 6.18695 24.2111 6.20696 24.1987 6.22426C24.1863 6.24156 24.17 6.25566 24.1511 6.26541C24.1322 6.27515 24.1112 6.28025 24.0899 6.28029Z" fill="#013E85"/>
<path d="M9.22822 6.28029C9.19998 6.2804 9.17243 6.27159 9.14949 6.25513L8.07106 5.47332L6.99264 6.25513C6.9696 6.27184 6.94184 6.28079 6.91338 6.28069C6.88492 6.28059 6.85723 6.27143 6.83431 6.25456C6.81139 6.23768 6.79443 6.21395 6.78589 6.1868C6.77735 6.15965 6.77766 6.13049 6.78678 6.10353L7.20738 4.85777L6.1173 4.11025C6.09369 4.09408 6.07587 4.07078 6.06645 4.04375C6.05702 4.01673 6.05648 3.9874 6.06491 3.96005C6.07334 3.9327 6.0903 3.90876 6.1133 3.89174C6.1363 3.87471 6.16415 3.86548 6.19277 3.86541H7.53759L7.94344 2.61646C7.95218 2.5895 7.96924 2.566 7.99217 2.54933C8.0151 2.53266 8.04272 2.52368 8.07106 2.52368C8.09941 2.52368 8.12703 2.53266 8.14996 2.54933C8.17288 2.566 8.18994 2.5895 8.19869 2.61646L8.60453 3.86583H9.94935C9.97801 3.86581 10.0059 3.87498 10.029 3.89197C10.0521 3.90896 10.0691 3.9329 10.0776 3.96027C10.0861 3.98764 10.0855 4.01701 10.0761 4.04407C10.0667 4.07114 10.0489 4.09448 10.0252 4.11067L8.93474 4.85777L9.35509 6.1032C9.3619 6.12336 9.36382 6.14485 9.36068 6.1659C9.35754 6.18695 9.34944 6.20696 9.33705 6.22426C9.32465 6.24156 9.30832 6.25566 9.2894 6.26541C9.27048 6.27515 9.24951 6.28025 9.22822 6.28029Z" fill="#013E85"/>
<path d="M24.0899 28.57C24.0617 28.5701 24.0341 28.5613 24.0112 28.5448L22.9328 27.763L21.8543 28.5448C21.8313 28.5615 21.8035 28.5705 21.7751 28.5704C21.7466 28.5703 21.7189 28.5611 21.696 28.5442C21.6731 28.5274 21.6561 28.5036 21.6476 28.4765C21.639 28.4493 21.6394 28.4202 21.6485 28.3932L22.0691 27.1474L20.979 26.3999C20.9554 26.3837 20.9376 26.3604 20.9281 26.3334C20.9187 26.3064 20.9182 26.2771 20.9266 26.2497C20.935 26.2224 20.952 26.1984 20.975 26.1814C20.998 26.1644 21.0258 26.1552 21.0545 26.1551H22.3993L22.8051 24.9061C22.8139 24.8792 22.8309 24.8557 22.8539 24.839C22.8768 24.8223 22.9044 24.8134 22.9328 24.8134C22.9611 24.8134 22.9887 24.8223 23.0116 24.839C23.0346 24.8557 23.0516 24.8792 23.0604 24.9061L23.4662 26.1555H24.811C24.8397 26.1555 24.8676 26.1646 24.8907 26.1816C24.9138 26.1986 24.9308 26.2226 24.9393 26.2499C24.9477 26.2773 24.9472 26.3067 24.9378 26.3337C24.9284 26.3608 24.9106 26.3841 24.8869 26.4003L23.7964 27.1474L24.2168 28.3929C24.2236 28.413 24.2255 28.4345 24.2224 28.4556C24.2192 28.4766 24.2111 28.4966 24.1987 28.5139C24.1863 28.5312 24.17 28.5453 24.1511 28.5551C24.1322 28.5648 24.1112 28.5699 24.0899 28.57Z" fill="#013E85"/>
<path d="M9.22822 28.57C9.19998 28.5701 9.17243 28.5613 9.14949 28.5448L8.07106 27.763L6.99264 28.5448C6.9696 28.5615 6.94184 28.5705 6.91338 28.5704C6.88492 28.5703 6.85723 28.5611 6.83431 28.5442C6.81139 28.5274 6.79443 28.5036 6.78589 28.4765C6.77735 28.4493 6.77766 28.4202 6.78678 28.3932L7.20738 27.1474L6.1173 26.3999C6.09369 26.3837 6.07587 26.3604 6.06645 26.3334C6.05702 26.3064 6.05648 26.2771 6.06491 26.2497C6.07334 26.2224 6.0903 26.1984 6.1133 26.1814C6.1363 26.1644 6.16415 26.1552 6.19277 26.1551H7.53759L7.94344 24.9061C7.95218 24.8792 7.96924 24.8557 7.99217 24.839C8.0151 24.8223 8.04272 24.8134 8.07106 24.8134C8.09941 24.8134 8.12703 24.8223 8.14996 24.839C8.17288 24.8557 8.18994 24.8792 8.19869 24.9061L8.60453 26.1555H9.94935C9.97801 26.1555 10.0059 26.1646 10.029 26.1816C10.0521 26.1986 10.0691 26.2226 10.0776 26.2499C10.0861 26.2773 10.0855 26.3067 10.0761 26.3337C10.0667 26.3608 10.0489 26.3841 10.0252 26.4003L8.93474 27.1474L9.35509 28.3929C9.3619 28.413 9.36382 28.4345 9.36068 28.4556C9.35754 28.4766 9.34944 28.4966 9.33705 28.5139C9.32465 28.5312 9.30832 28.5453 9.2894 28.5551C9.27048 28.5648 9.24951 28.5699 9.22822 28.57Z" fill="#013E85"/>
<path d="M5.20424 11.5427C5.176 11.5428 5.14844 11.534 5.1255 11.5175L4.04708 10.7357L2.96865 11.5175C2.94561 11.5342 2.91785 11.5432 2.88939 11.5431C2.86093 11.543 2.83324 11.5338 2.81032 11.5169C2.7874 11.5001 2.77045 11.4763 2.7619 11.4492C2.75336 11.422 2.75367 11.3929 2.76279 11.3659L3.1834 10.1202L2.09332 9.37264C2.06971 9.35647 2.05188 9.33317 2.04246 9.30614C2.03303 9.27912 2.03249 9.24979 2.04092 9.22244C2.04935 9.19509 2.06631 9.17115 2.08931 9.15413C2.11232 9.1371 2.14016 9.12787 2.16878 9.1278H3.51361L3.91945 7.87885C3.92819 7.85189 3.94525 7.82839 3.96818 7.81172C3.99111 7.79505 4.01873 7.78607 4.04708 7.78607C4.07542 7.78607 4.10304 7.79505 4.12597 7.81172C4.1489 7.82839 4.16596 7.85189 4.1747 7.87885L4.58054 9.12822H5.92537C5.95402 9.1282 5.98193 9.13737 6.005 9.15436C6.02807 9.17136 6.0451 9.19529 6.05358 9.22266C6.06207 9.25003 6.06156 9.2794 6.05215 9.30646C6.04273 9.33353 6.02489 9.35687 6.00125 9.37306L4.91075 10.1202L5.3311 11.3656C5.33792 11.3857 5.33983 11.4072 5.33669 11.4283C5.33356 11.4493 5.32546 11.4693 5.31306 11.4866C5.30067 11.5039 5.28433 11.5181 5.26541 11.5278C5.24649 11.5375 5.22552 11.5426 5.20424 11.5427Z" fill="#013E85"/>
<path d="M3.65663 17.735C3.62839 17.7351 3.60084 17.7263 3.57789 17.7098L2.49947 16.928L1.42104 17.7098C1.398 17.7266 1.37025 17.7355 1.34178 17.7354C1.31332 17.7353 1.28563 17.7261 1.26271 17.7093C1.2398 17.6924 1.22284 17.6687 1.2143 17.6415C1.20575 17.6144 1.20606 17.5852 1.21519 17.5582L1.63579 16.3125L0.54571 15.565C0.522098 15.5488 0.504277 15.5255 0.494851 15.4985C0.485425 15.4714 0.484888 15.4421 0.493318 15.4148C0.501748 15.3874 0.518703 15.3635 0.541707 15.3464C0.56471 15.3294 0.592557 15.3202 0.621177 15.3201H1.966L2.37184 14.0712C2.38059 14.0442 2.39765 14.0207 2.42057 14.004C2.4435 13.9874 2.47112 13.9784 2.49947 13.9784C2.52781 13.9784 2.55543 13.9874 2.57836 14.004C2.60129 14.0207 2.61835 14.0442 2.62709 14.0712L3.03294 15.3205H4.37776C4.40641 15.3205 4.43432 15.3297 4.45739 15.3467C4.48047 15.3637 4.49749 15.3876 4.50597 15.415C4.51446 15.4424 4.51395 15.4717 4.50454 15.4988C4.49512 15.5258 4.47729 15.5492 4.45364 15.5654L3.36315 16.3125L3.7835 17.5579C3.79031 17.5781 3.79222 17.5996 3.78909 17.6206C3.78595 17.6417 3.77785 17.6617 3.76545 17.679C3.75306 17.6963 3.73673 17.7104 3.7178 17.7201C3.69888 17.7299 3.67791 17.735 3.65663 17.735Z" fill="#013E85"/>
<path d="M28.4225 11.5427C28.3943 11.5428 28.3667 11.534 28.3438 11.5175L27.2653 10.7357L26.1869 11.5175C26.1639 11.5342 26.1361 11.5432 26.1077 11.5431C26.0792 11.543 26.0515 11.5338 26.0286 11.5169C26.0057 11.5001 25.9887 11.4763 25.9802 11.4492C25.9716 11.422 25.9719 11.3929 25.9811 11.3659L26.4017 10.1202L25.3116 9.37264C25.288 9.35647 25.2701 9.33317 25.2607 9.30614C25.2513 9.27912 25.2508 9.24979 25.2592 9.22244C25.2676 9.19509 25.2846 9.17115 25.3076 9.15413C25.3306 9.1371 25.3584 9.12787 25.387 9.1278H26.7319L27.1377 7.87885C27.1465 7.85189 27.1635 7.82839 27.1864 7.81172C27.2094 7.79505 27.237 7.78607 27.2653 7.78607C27.2937 7.78607 27.3213 7.79505 27.3442 7.81172C27.3672 7.82839 27.3842 7.85189 27.393 7.87885L27.7988 9.12822H29.1436C29.1723 9.1282 29.2002 9.13737 29.2233 9.15436C29.2463 9.17136 29.2634 9.19529 29.2718 9.22266C29.2803 9.25003 29.2798 9.2794 29.2704 9.30646C29.261 9.33353 29.2432 9.35687 29.2195 9.37306L28.129 10.1202L28.5494 11.3656C28.5562 11.3857 28.5581 11.4072 28.555 11.4283C28.5518 11.4493 28.5437 11.4693 28.5313 11.4866C28.5189 11.5039 28.5026 11.5181 28.4837 11.5278C28.4648 11.5375 28.4438 11.5426 28.4225 11.5427Z" fill="#013E85"/>
<path d="M29.6615 17.735C29.6333 17.7351 29.6057 17.7263 29.5828 17.7098L28.5044 16.928L27.4259 17.7098C27.4029 17.7266 27.3751 17.7355 27.3467 17.7354C27.3182 17.7353 27.2905 17.7261 27.2676 17.7093C27.2447 17.6924 27.2277 17.6687 27.2192 17.6415C27.2106 17.6144 27.2109 17.5852 27.2201 17.5582L27.6407 16.3125L26.5506 15.565C26.527 15.5488 26.5092 15.5255 26.4997 15.4985C26.4903 15.4714 26.4898 15.4421 26.4982 15.4148C26.5066 15.3874 26.5236 15.3635 26.5466 15.3464C26.5696 15.3294 26.5974 15.3202 26.6261 15.3201H27.9709L28.3767 14.0712C28.3855 14.0442 28.4025 14.0207 28.4255 14.004C28.4484 13.9874 28.476 13.9784 28.5044 13.9784C28.5327 13.9784 28.5603 13.9874 28.5832 14.004C28.6062 14.0207 28.6232 14.0442 28.632 14.0712L29.0378 15.3205H30.3826C30.4113 15.3205 30.4392 15.3297 30.4623 15.3467C30.4853 15.3637 30.5024 15.3876 30.5109 15.415C30.5193 15.4424 30.5188 15.4717 30.5094 15.4988C30.5 15.5258 30.4822 15.5492 30.4585 15.5654L29.368 16.3125L29.7884 17.5579C29.7952 17.5781 29.7971 17.5996 29.794 17.6206C29.7908 17.6417 29.7827 17.6617 29.7703 17.679C29.7579 17.6963 29.7416 17.7104 29.7227 17.7201C29.7038 17.7299 29.6828 17.735 29.6615 17.735Z" fill="#013E85"/>
<path d="M5.20436 23.926C5.17612 23.9261 5.14857 23.9173 5.12562 23.9009L4.0472 23.1191L2.96877 23.9009C2.94573 23.9176 2.91798 23.9265 2.88951 23.9264C2.86105 23.9263 2.83336 23.9172 2.81044 23.9003C2.78753 23.8834 2.77057 23.8597 2.76203 23.8326C2.75348 23.8054 2.75379 23.7762 2.76292 23.7493L3.18352 22.5035L2.09344 21.756C2.06983 21.7398 2.05201 21.7165 2.04258 21.6895C2.03315 21.6625 2.03262 21.6332 2.04105 21.6058C2.04948 21.5785 2.06643 21.5545 2.08944 21.5375C2.11244 21.5205 2.14029 21.5112 2.16891 21.5112H3.51373L3.91957 20.2622C3.92832 20.2353 3.94538 20.2117 3.9683 20.1951C3.99123 20.1784 4.01885 20.1694 4.0472 20.1694C4.07554 20.1694 4.10316 20.1784 4.12609 20.1951C4.14902 20.2117 4.16608 20.2353 4.17482 20.2622L4.58067 21.5116H5.92549C5.95414 21.5116 5.98205 21.5207 6.00512 21.5377C6.0282 21.5547 6.04522 21.5787 6.0537 21.606C6.06219 21.6334 6.06168 21.6628 6.05227 21.6898C6.04285 21.7169 6.02502 21.7402 6.00137 21.7564L4.91088 22.5035L5.33123 23.7489C5.33804 23.7691 5.33995 23.7906 5.33682 23.8117C5.33368 23.8327 5.32558 23.8527 5.31318 23.87C5.30079 23.8873 5.28446 23.9014 5.26553 23.9112C5.24661 23.9209 5.22564 23.926 5.20436 23.926Z" fill="#013E85"/>
<path d="M28.4226 23.9261C28.3944 23.9262 28.3668 23.9174 28.3439 23.9009L27.2655 23.1191L26.187 23.9009C26.164 23.9177 26.1362 23.9266 26.1078 23.9265C26.0793 23.9264 26.0516 23.9172 26.0287 23.9004C26.0058 23.8835 25.9888 23.8598 25.9803 23.8326C25.9717 23.8055 25.9721 23.7763 25.9812 23.7493L26.4018 22.5036L25.3117 21.7561C25.2881 21.7399 25.2703 21.7166 25.2608 21.6896C25.2514 21.6625 25.2509 21.6332 25.2593 21.6059C25.2677 21.5785 25.2847 21.5546 25.3077 21.5375C25.3307 21.5205 25.3585 21.5113 25.3872 21.5112H26.732L27.1378 20.2623C27.1466 20.2353 27.1636 20.2118 27.1866 20.1951C27.2095 20.1785 27.2371 20.1695 27.2655 20.1695C27.2938 20.1695 27.3214 20.1785 27.3444 20.1951C27.3673 20.2118 27.3843 20.2353 27.3931 20.2623L27.7989 21.5116H29.1437C29.1724 21.5116 29.2003 21.5208 29.2234 21.5378C29.2465 21.5548 29.2635 21.5787 29.272 21.6061C29.2804 21.6335 29.2799 21.6628 29.2705 21.6899C29.2611 21.717 29.2433 21.7403 29.2196 21.7565L28.1291 22.5036L28.5495 23.749C28.5563 23.7692 28.5582 23.7907 28.5551 23.8117C28.5519 23.8328 28.5438 23.8528 28.5314 23.8701C28.5191 23.8874 28.5027 23.9015 28.4838 23.9112C28.4649 23.921 28.4439 23.9261 28.4226 23.9261Z" fill="#013E85"/>
<path d="M22.107 11.2581C21.9162 10.9323 21.5175 10.5062 20.7005 10.3277C20.2699 10.2337 19.7667 10.2161 19.2007 10.275C19.0468 10.2908 18.888 10.3126 18.7248 10.3399C18.6617 10.3506 18.598 10.362 18.534 10.3743C18.4891 10.3826 18.444 10.3914 18.3987 10.4009C18.4864 10.6591 18.534 10.9362 18.534 11.2242V11.5573C18.6599 11.5294 18.7851 11.5051 18.9097 11.4842C19.118 11.4492 19.3173 11.4255 19.5046 11.413C19.6144 11.4056 19.72 11.4019 19.8214 11.4019C20.4824 11.4019 20.9573 11.5582 21.1288 11.8516C21.3715 12.2667 21.0883 13.0954 20.3892 14.0142C20.1194 14.3688 19.7991 14.7264 19.437 15.0801C19.2883 14.79 19.0502 14.5553 18.7594 14.4145C18.536 14.2932 18.2812 14.2243 18.0105 14.2243H17.9707V11.2242C17.9707 10.9814 17.937 10.7465 17.8739 10.5241C17.5747 9.46979 16.6186 8.69635 15.4886 8.69635C14.1201 8.69635 13.0067 9.83042 13.0067 11.2242V12.8191C11.6531 13.7347 10.5068 14.7735 9.72609 15.7997C9.25248 16.4222 8.93234 17.0157 8.77478 17.5632C8.5398 18.38 8.71763 18.9399 8.90821 19.266C9.17529 19.7226 9.64662 20.041 10.2712 20.1864C10.5472 20.2509 10.8539 20.2832 11.189 20.2832C11.2623 20.2832 11.3368 20.2815 11.4128 20.2785V21.1072C11.4128 21.9397 12.0754 22.6146 12.8929 22.6146H18.1241C18.9416 22.6146 19.6041 21.9397 19.6041 21.1072V16.4857C20.2672 15.9118 20.8389 15.316 21.2891 14.7243C21.7627 14.1019 22.0828 13.5086 22.2404 12.9608C22.4754 12.144 22.2975 11.5842 22.107 11.2581ZM11.4128 15.7763V19.1178C10.6325 19.1577 10.0786 19.0011 9.88638 18.6725C9.64343 18.2574 9.92691 17.4287 10.6259 16.5101C10.8566 16.207 11.1244 15.9015 11.4233 15.5984C11.4165 15.6569 11.4128 15.7162 11.4128 15.7763ZM15.5086 19.7008C14.8283 19.7008 14.2766 19.1389 14.2766 18.4459C14.2766 17.7529 14.8283 17.191 15.5086 17.191C16.189 17.191 16.7407 17.7529 16.7407 18.4459C16.7407 19.1389 16.189 19.7008 15.5086 19.7008ZM16.832 14.2624H14.1452V13.4539C14.2194 13.4073 14.2941 13.3614 14.3692 13.3157C14.3701 13.3152 14.371 13.3145 14.372 13.314C14.9936 12.937 15.6215 12.6074 16.2372 12.3328V11.1408C16.2372 11.1194 16.2368 11.0981 16.2356 11.077C15.5471 11.3583 14.8428 11.7045 14.1452 12.1072V11.2242C14.1452 10.4698 14.7479 9.85593 15.4886 9.85593C16.2293 9.85593 16.832 10.4698 16.832 11.2242V14.2624Z" fill="#013E85"/>
</svg>
