<svg width="60" height="60" viewBox="0 0 60 60" fill="none" xmlns="http://www.w3.org/2000/svg">
<path d="M31.7772 7.69569C31.7217 7.6959 31.6676 7.67861 31.6225 7.64626L29.5038 6.11022L27.385 7.64626C27.3397 7.6791 27.2852 7.69668 27.2293 7.69648C27.1734 7.69627 27.119 7.67829 27.0739 7.64513C27.0289 7.61197 26.9956 7.56536 26.9788 7.51202C26.962 7.45868 26.9626 7.40138 26.9806 7.34841L27.8069 4.90087L25.6653 3.4322C25.6189 3.40043 25.5839 3.35465 25.5653 3.30156C25.5468 3.24847 25.5458 3.19084 25.5623 3.13711C25.5789 3.08337 25.6122 3.03634 25.6574 3.00289C25.7026 2.96943 25.7573 2.95131 25.8135 2.95116H28.4557L29.253 0.497353C29.2702 0.444376 29.3037 0.398201 29.3488 0.365452C29.3938 0.332703 29.4481 0.315063 29.5038 0.315063C29.5595 0.315063 29.6137 0.332703 29.6588 0.365452C29.7038 0.398201 29.7373 0.444376 29.7545 0.497353L30.5519 2.95199H33.194C33.2503 2.95196 33.3051 2.96996 33.3505 3.00335C33.3958 3.03674 33.4292 3.08376 33.4459 3.13754C33.4626 3.19131 33.4616 3.24901 33.4431 3.30219C33.4246 3.35536 33.3896 3.40121 33.3431 3.43303L31.2006 4.90087L32.0265 7.34775C32.0399 7.38737 32.0436 7.4296 32.0375 7.47096C32.0313 7.51232 32.0154 7.55161 31.991 7.58561C31.9667 7.6196 31.9346 7.64731 31.8974 7.66645C31.8602 7.68559 31.819 7.69561 31.7772 7.69569Z" fill="#FEDC59"/>
<path d="M31.7772 59.3953C31.7217 59.3955 31.6676 59.3782 31.6225 59.3458L29.5038 57.8098L27.385 59.3458C27.3397 59.3787 27.2852 59.3963 27.2293 59.3961C27.1734 59.3959 27.119 59.3779 27.0739 59.3447C27.0289 59.3116 26.9956 59.2649 26.9788 59.2116C26.962 59.1583 26.9626 59.101 26.9806 59.048L27.8069 56.6005L25.6653 55.1318C25.6189 55.1 25.5839 55.0542 25.5653 55.0011C25.5468 54.9481 25.5458 54.8904 25.5623 54.8367C25.5789 54.783 25.6122 54.7359 25.6574 54.7025C25.7026 54.669 25.7573 54.6509 25.8135 54.6507H28.4557L29.253 52.1969C29.2702 52.144 29.3037 52.0978 29.3488 52.065C29.3938 52.0323 29.4481 52.0146 29.5038 52.0146C29.5595 52.0146 29.6137 52.0323 29.6588 52.065C29.7038 52.0978 29.7373 52.144 29.7545 52.1969L30.5519 54.6516H33.194C33.2503 54.6515 33.3051 54.6695 33.3505 54.7029C33.3958 54.7363 33.4292 54.7833 33.4459 54.8371C33.4626 54.8909 33.4616 54.9486 33.4431 55.0018C33.4246 55.0549 33.3896 55.1008 33.3431 55.1326L31.2006 56.6005L32.0265 59.0473C32.0399 59.087 32.0436 59.1292 32.0375 59.1705C32.0313 59.2119 32.0154 59.2512 31.991 59.2852C31.9667 59.3192 31.9346 59.3469 31.8974 59.366C31.8602 59.3852 31.819 59.3952 31.7772 59.3953Z" fill="#FEDC59"/>
<path d="M46.3765 11.3451C46.321 11.3453 46.2668 11.328 46.2218 11.2957L44.103 9.75964L41.9843 11.2957C41.939 11.3285 41.8845 11.3461 41.8285 11.3459C41.7726 11.3457 41.7182 11.3277 41.6732 11.2945C41.6282 11.2614 41.5948 11.2148 41.5781 11.1614C41.5613 11.1081 41.5619 11.0508 41.5798 10.9978L42.4062 8.55028L40.2645 7.08162C40.2181 7.04984 40.1831 7.00406 40.1646 6.95097C40.1461 6.89788 40.145 6.84026 40.1616 6.78652C40.1781 6.73279 40.2114 6.68576 40.2566 6.6523C40.3018 6.61885 40.3565 6.60072 40.4128 6.60058H43.0549L43.8523 4.14677C43.8694 4.09379 43.903 4.04762 43.948 4.01487C43.9931 3.98212 44.0473 3.96448 44.103 3.96448C44.1587 3.96448 44.213 3.98212 44.258 4.01487C44.3031 4.04762 44.3366 4.09379 44.3538 4.14677L45.1511 6.6014H47.7933C47.8496 6.60137 47.9044 6.61937 47.9497 6.65276C47.995 6.68615 48.0285 6.73318 48.0452 6.78695C48.0618 6.84073 48.0608 6.89843 48.0423 6.9516C48.0238 7.00477 47.9888 7.05063 47.9423 7.08244L45.7999 8.55028L46.6257 10.9972C46.6391 11.0368 46.6429 11.079 46.6367 11.1204C46.6305 11.1617 46.6146 11.201 46.5903 11.235C46.5659 11.269 46.5338 11.2967 46.4967 11.3159C46.4595 11.335 46.4183 11.345 46.3765 11.3451Z" fill="#FEDC59"/>
<path d="M17.1779 11.3451C17.1224 11.3453 17.0683 11.328 17.0232 11.2957L14.9045 9.75964L12.7857 11.2957C12.7404 11.3285 12.6859 11.3461 12.63 11.3459C12.5741 11.3457 12.5197 11.3277 12.4746 11.2945C12.4296 11.2614 12.3963 11.2148 12.3795 11.1614C12.3627 11.1081 12.3633 11.0508 12.3813 10.9978L13.2076 8.55028L11.066 7.08162C11.0196 7.04984 10.9846 7.00406 10.966 6.95097C10.9475 6.89788 10.9465 6.84026 10.963 6.78652C10.9796 6.73279 11.0129 6.68576 11.0581 6.6523C11.1033 6.61885 11.158 6.60072 11.2142 6.60058H13.8564L14.6537 4.14677C14.6709 4.09379 14.7044 4.04762 14.7495 4.01487C14.7945 3.98212 14.8488 3.96448 14.9045 3.96448C14.9602 3.96448 15.0144 3.98212 15.0595 4.01487C15.1045 4.04762 15.138 4.09379 15.1552 4.14677L15.9526 6.6014H18.5947C18.651 6.60137 18.7058 6.61937 18.7512 6.65276C18.7965 6.68615 18.83 6.73318 18.8466 6.78695C18.8633 6.84073 18.8623 6.89843 18.8438 6.9516C18.8253 7.00477 18.7903 7.05063 18.7438 7.08244L16.6013 8.55028L17.4272 10.9972C17.4406 11.0368 17.4443 11.079 17.4382 11.1204C17.432 11.1617 17.4161 11.201 17.3917 11.235C17.3674 11.269 17.3353 11.2967 17.2981 11.3159C17.2609 11.335 17.2197 11.345 17.1779 11.3451Z" fill="#FEDC59"/>
<path d="M46.3765 55.1378C46.321 55.138 46.2668 55.1207 46.2218 55.0884L44.103 53.5524L41.9843 55.0884C41.939 55.1212 41.8845 55.1388 41.8285 55.1386C41.7726 55.1384 41.7182 55.1204 41.6732 55.0873C41.6282 55.0541 41.5948 55.0075 41.5781 54.9542C41.5613 54.9008 41.5619 54.8435 41.5798 54.7906L42.4062 52.343L40.2645 50.8743C40.2181 50.8426 40.1831 50.7968 40.1646 50.7437C40.1461 50.6906 40.145 50.633 40.1616 50.5792C40.1781 50.5255 40.2114 50.4785 40.2566 50.445C40.3018 50.4116 40.3565 50.3934 40.4128 50.3933H43.0549L43.8523 47.9395C43.8694 47.8865 43.903 47.8403 43.948 47.8076C43.9931 47.7748 44.0473 47.7572 44.103 47.7572C44.1587 47.7572 44.213 47.7748 44.258 47.8076C44.3031 47.8403 44.3366 47.8865 44.3538 47.9395L45.1511 50.3941H47.7933C47.8496 50.3941 47.9044 50.4121 47.9497 50.4455C47.995 50.4789 48.0285 50.5259 48.0452 50.5797C48.0618 50.6335 48.0608 50.6912 48.0423 50.7443C48.0238 50.7975 47.9888 50.8433 47.9423 50.8752L45.7999 52.343L46.6257 54.7899C46.6391 54.8295 46.6429 54.8717 46.6367 54.9131C46.6305 54.9545 46.6146 54.9938 46.5903 55.0277C46.5659 55.0617 46.5338 55.0894 46.4967 55.1086C46.4595 55.1277 46.4183 55.1378 46.3765 55.1378Z" fill="#FEDC59"/>
<path d="M17.1779 55.1378C17.1224 55.138 17.0683 55.1207 17.0232 55.0884L14.9045 53.5524L12.7857 55.0884C12.7404 55.1212 12.6859 55.1388 12.63 55.1386C12.5741 55.1384 12.5197 55.1204 12.4746 55.0873C12.4296 55.0541 12.3963 55.0075 12.3795 54.9542C12.3627 54.9008 12.3633 54.8435 12.3813 54.7906L13.2076 52.343L11.066 50.8743C11.0196 50.8426 10.9846 50.7968 10.966 50.7437C10.9475 50.6906 10.9465 50.633 10.963 50.5792C10.9796 50.5255 11.0129 50.4785 11.0581 50.445C11.1033 50.4116 11.158 50.3934 11.2142 50.3933H13.8564L14.6537 47.9395C14.6709 47.8865 14.7044 47.8403 14.7495 47.8076C14.7945 47.7748 14.8488 47.7572 14.9045 47.7572C14.9602 47.7572 15.0144 47.7748 15.0595 47.8076C15.1045 47.8403 15.138 47.8865 15.1552 47.9395L15.9526 50.3941H18.5947C18.651 50.3941 18.7058 50.4121 18.7512 50.4455C18.7965 50.4789 18.83 50.5259 18.8466 50.5797C18.8633 50.6335 18.8623 50.6912 18.8438 50.7443C18.8253 50.7975 18.7903 50.8433 18.7438 50.8752L16.6013 52.343L17.4272 54.7899C17.4406 54.8295 17.4443 54.8717 17.4382 54.9131C17.432 54.9545 17.4161 54.9938 17.3917 55.0277C17.3674 55.0617 17.3353 55.0894 17.2981 55.1086C17.2609 55.1277 17.2197 55.1378 17.1779 55.1378Z" fill="#FEDC59"/>
<path d="M9.27206 21.6843C9.21658 21.6846 9.16245 21.6673 9.11737 21.6349L6.99861 20.0989L4.87985 21.6349C4.83458 21.6677 4.78005 21.6853 4.72413 21.6851C4.66821 21.6849 4.61381 21.6669 4.56878 21.6338C4.52376 21.6006 4.49044 21.554 4.47366 21.5007C4.45687 21.4473 4.45748 21.39 4.47541 21.3371L5.30176 18.8895L3.1601 17.4209C3.11371 17.3891 3.0787 17.3433 3.06018 17.2902C3.04166 17.2371 3.0406 17.1795 3.05716 17.1258C3.07373 17.072 3.10704 17.025 3.15223 16.9915C3.19743 16.9581 3.25214 16.94 3.30837 16.9398H5.95052L6.74787 14.486C6.76505 14.433 6.79856 14.3868 6.84361 14.3541C6.88866 14.3214 6.94292 14.3037 6.99861 14.3037C7.0543 14.3037 7.10857 14.3214 7.15361 14.3541C7.19866 14.3868 7.23217 14.433 7.24935 14.486L8.04671 16.9406H10.6889C10.7452 16.9406 10.8 16.9586 10.8453 16.992C10.8906 17.0254 10.9241 17.0724 10.9408 17.1262C10.9574 17.18 10.9564 17.2377 10.9379 17.2908C10.9194 17.344 10.8844 17.3899 10.8379 17.4217L8.69546 18.8895L9.52132 21.3364C9.5347 21.376 9.53847 21.4182 9.5323 21.4596C9.52614 21.501 9.51022 21.5403 9.48587 21.5743C9.46152 21.6082 9.42943 21.636 9.39225 21.6551C9.35508 21.6742 9.31388 21.6843 9.27206 21.6843Z" fill="#FEDC59"/>
<path d="M6.23158 33.8503C6.17609 33.8506 6.12196 33.8333 6.07688 33.8009L3.95812 32.2649L1.83936 33.8009C1.7941 33.8338 1.73956 33.8513 1.68364 33.8511C1.62772 33.8509 1.57332 33.833 1.52829 33.7998C1.48327 33.7666 1.44995 33.72 1.43317 33.6667C1.41638 33.6133 1.417 33.556 1.43492 33.5031L2.26127 31.0555L0.119609 29.5869C0.0732196 29.5551 0.0382073 29.5093 0.0196881 29.4562C0.00116884 29.4031 0.000113218 29.3455 0.0166755 29.2918C0.0332378 29.238 0.0665499 29.191 0.111745 29.1576C0.15694 29.1241 0.211649 29.106 0.267878 29.1058H2.91003L3.70738 26.652C3.72456 26.599 3.75808 26.5529 3.80312 26.5201C3.84817 26.4874 3.90243 26.4697 3.95812 26.4697C4.01381 26.4697 4.06808 26.4874 4.11312 26.5201C4.15817 26.5529 4.19168 26.599 4.20886 26.652L5.00622 29.1066H7.64837C7.70466 29.1066 7.75949 29.1246 7.80482 29.158C7.85015 29.1914 7.8836 29.2384 7.90027 29.2922C7.91693 29.346 7.91595 29.4037 7.89745 29.4568C7.87894 29.51 7.8439 29.5559 7.79746 29.5877L5.65497 31.0555L6.48083 33.5024C6.49421 33.542 6.49798 33.5843 6.49181 33.6256C6.48565 33.667 6.46973 33.7063 6.44538 33.7403C6.42103 33.7743 6.38894 33.802 6.35176 33.8211C6.31459 33.8403 6.27339 33.8503 6.23158 33.8503Z" fill="#FEDC59"/>
<path d="M54.8886 21.6843C54.8331 21.6846 54.779 21.6673 54.7339 21.6349L52.6151 20.0989L50.4964 21.6349C50.4511 21.6677 50.3966 21.6853 50.3407 21.6851C50.2847 21.6849 50.2303 21.6669 50.1853 21.6338C50.1403 21.6006 50.107 21.554 50.0902 21.5007C50.0734 21.4473 50.074 21.39 50.0919 21.3371L50.9183 18.8895L48.7766 17.4209C48.7302 17.3891 48.6952 17.3433 48.6767 17.2902C48.6582 17.2371 48.6571 17.1795 48.6737 17.1258C48.6903 17.072 48.7236 17.025 48.7688 16.9915C48.814 16.9581 48.8687 16.94 48.9249 16.9398H51.567L52.3644 14.486C52.3816 14.433 52.4151 14.3868 52.4601 14.3541C52.5052 14.3214 52.5594 14.3037 52.6151 14.3037C52.6708 14.3037 52.7251 14.3214 52.7701 14.3541C52.8152 14.3868 52.8487 14.433 52.8659 14.486L53.6632 16.9406H56.3054C56.3617 16.9406 56.4165 16.9586 56.4618 16.992C56.5072 17.0254 56.5406 17.0724 56.5573 17.1262C56.574 17.18 56.573 17.2377 56.5545 17.2908C56.536 17.344 56.5009 17.3899 56.4545 17.4217L54.312 18.8895L55.1379 21.3364C55.1512 21.376 55.155 21.4182 55.1488 21.4596C55.1427 21.501 55.1268 21.5403 55.1024 21.5743C55.078 21.6082 55.046 21.636 55.0088 21.6551C54.9716 21.6742 54.9304 21.6843 54.8886 21.6843Z" fill="#FEDC59"/>
<path d="M57.3228 33.8503C57.2673 33.8506 57.2132 33.8333 57.1681 33.8009L55.0494 32.2649L52.9306 33.8009C52.8853 33.8338 52.8308 33.8513 52.7749 33.8511C52.719 33.8509 52.6646 33.833 52.6195 33.7998C52.5745 33.7666 52.5412 33.72 52.5244 33.6667C52.5076 33.6133 52.5082 33.556 52.5262 33.5031L53.3525 31.0555L51.2108 29.5869C51.1645 29.5551 51.1294 29.5093 51.1109 29.4562C51.0924 29.4031 51.0914 29.3455 51.1079 29.2918C51.1245 29.238 51.1578 29.191 51.203 29.1576C51.2482 29.1241 51.3029 29.106 51.3591 29.1058H54.0013L54.7986 26.652C54.8158 26.599 54.8493 26.5529 54.8944 26.5201C54.9394 26.4874 54.9937 26.4697 55.0494 26.4697C55.1051 26.4697 55.1593 26.4874 55.2044 26.5201C55.2494 26.5529 55.2829 26.599 55.3001 26.652L56.0975 29.1066H58.7396C58.7959 29.1066 58.8507 29.1246 58.8961 29.158C58.9414 29.1914 58.9748 29.2384 58.9915 29.2922C59.0082 29.346 59.0072 29.4037 58.9887 29.4568C58.9702 29.51 58.9351 29.5559 58.8887 29.5877L56.7462 31.0555L57.5721 33.5024C57.5855 33.542 57.5892 33.5843 57.5831 33.6256C57.5769 33.667 57.561 33.7063 57.5366 33.7403C57.5123 33.7743 57.4802 33.802 57.443 33.8211C57.4058 33.8403 57.3646 33.8503 57.3228 33.8503Z" fill="#FEDC59"/>
<path d="M9.27234 46.014C9.21686 46.0143 9.16272 45.997 9.11764 45.9646L6.99889 44.4286L4.88013 45.9646C4.83486 45.9975 4.78033 46.015 4.72441 46.0148C4.66849 46.0146 4.61408 45.9967 4.56906 45.9635C4.52403 45.9303 4.49072 45.8837 4.47393 45.8304C4.45715 45.777 4.45776 45.7197 4.47568 45.6668L5.30203 43.2192L3.16037 41.7506C3.11398 41.7188 3.07897 41.673 3.06045 41.6199C3.04193 41.5668 3.04088 41.5092 3.05744 41.4555C3.074 41.4017 3.10731 41.3547 3.15251 41.3212C3.1977 41.2878 3.25241 41.2697 3.30864 41.2695H5.95079L6.74815 38.8157C6.76532 38.7627 6.79884 38.7166 6.84389 38.6838C6.88893 38.6511 6.94319 38.6334 6.99889 38.6334C7.05458 38.6334 7.10884 38.6511 7.15389 38.6838C7.19893 38.7166 7.23245 38.7627 7.24962 38.8157L8.04698 41.2703H10.6891C10.7454 41.2703 10.8003 41.2883 10.8456 41.3217C10.8909 41.3551 10.9244 41.4021 10.941 41.4559C10.9577 41.5097 10.9567 41.5674 10.9382 41.6205C10.9197 41.6737 10.8847 41.7196 10.8382 41.7514L8.69574 43.2192L9.5216 45.6661C9.53498 45.7057 9.53874 45.748 9.53258 45.7893C9.52641 45.8307 9.5105 45.87 9.48614 45.904C9.46179 45.938 9.4297 45.9657 9.39253 45.9848C9.35535 46.0039 9.31415 46.014 9.27234 46.014Z" fill="#FEDC59"/>
<path d="M54.8888 46.014C54.8334 46.0143 54.7792 45.997 54.7341 45.9646L52.6154 44.4286L50.4966 45.9646C50.4514 45.9975 50.3968 46.015 50.3409 46.0148C50.285 46.0146 50.2306 45.9967 50.1856 45.9635C50.1405 45.9303 50.1072 45.8837 50.0904 45.8304C50.0736 45.777 50.0743 45.7197 50.0922 45.6668L50.9185 43.2192L48.7769 41.7506C48.7305 41.7188 48.6955 41.673 48.677 41.6199C48.6584 41.5668 48.6574 41.5092 48.6739 41.4555C48.6905 41.4017 48.7238 41.3547 48.769 41.3212C48.8142 41.2878 48.8689 41.2697 48.9251 41.2695H51.5673L52.3646 38.8157C52.3818 38.7627 52.4153 38.7166 52.4604 38.6838C52.5054 38.6511 52.5597 38.6334 52.6154 38.6334C52.6711 38.6334 52.7253 38.6511 52.7704 38.6838C52.8154 38.7166 52.8489 38.7627 52.8661 38.8157L53.6635 41.2703H56.3056C56.3619 41.2703 56.4168 41.2883 56.4621 41.3217C56.5074 41.3551 56.5409 41.4021 56.5575 41.4559C56.5742 41.5097 56.5732 41.5674 56.5547 41.6205C56.5362 41.6737 56.5012 41.7196 56.4547 41.7514L54.3122 43.2192L55.1381 45.6661C55.1515 45.7057 55.1552 45.748 55.1491 45.7893C55.1429 45.8307 55.127 45.87 55.1026 45.904C55.0783 45.938 55.0462 45.9657 55.009 45.9848C54.9719 46.0039 54.9307 46.014 54.8888 46.014Z" fill="#FEDC59"/>
<path d="M43.4806 21.125C43.1057 20.4848 42.3224 19.6478 40.7173 19.2969C39.8714 19.1124 38.8827 19.0777 37.7706 19.1935C37.4682 19.2245 37.1564 19.2673 36.8357 19.3211C36.7118 19.342 36.5865 19.3643 36.4608 19.3885C36.3727 19.4049 36.2841 19.4222 36.1951 19.4409C36.3673 19.948 36.4608 20.4925 36.4608 21.0584V21.7127C36.7082 21.6581 36.9542 21.6102 37.1989 21.5692C37.6083 21.5004 37.9997 21.4539 38.3678 21.4293C38.5835 21.4147 38.791 21.4075 38.9901 21.4075C40.2888 21.4075 41.2219 21.7146 41.5588 22.2909C42.0356 23.1065 41.4791 24.7346 40.1058 26.5398C39.5757 27.2365 38.9463 27.9391 38.235 28.6339C37.9429 28.0639 37.4749 27.6028 36.9037 27.3263C36.4648 27.088 35.9643 26.9526 35.4324 26.9526H35.3541V21.0584C35.3541 20.5814 35.2879 20.1198 35.1639 19.6828C34.5761 17.6115 32.6977 16.0919 30.4775 16.0919C27.789 16.0919 25.6015 18.32 25.6015 21.0584V24.1919C22.942 25.9908 20.69 28.0316 19.1561 30.0478C18.2256 31.2708 17.5966 32.4367 17.2871 33.5125C16.8254 35.1173 17.1748 36.2172 17.5492 36.8578C18.074 37.755 19 38.3806 20.227 38.6663C20.7692 38.793 21.3718 38.8563 22.0303 38.8563C22.1743 38.8563 22.3206 38.8531 22.47 38.8472V40.4752C22.47 42.111 23.7718 43.4369 25.3778 43.4369H35.6556C37.2616 43.4369 38.5633 42.111 38.5633 40.4752V31.3956C39.866 30.2679 40.9893 29.0973 41.8737 27.935C42.8042 26.712 43.4332 25.5465 43.7427 24.4703C44.2044 22.8655 43.855 21.7656 43.4806 21.125ZM22.47 30.0018V36.5667C20.937 36.6451 19.8486 36.3375 19.471 35.6919C18.9937 34.8763 19.5507 33.2482 20.924 31.4434C21.3772 30.8479 21.9033 30.2478 22.4906 29.6523C22.4772 29.7671 22.47 29.8838 22.47 30.0018ZM30.5169 37.7122C29.1802 37.7122 28.0963 36.6082 28.0963 35.2467C28.0963 33.8852 29.1802 32.7812 30.5169 32.7812C31.8536 32.7812 32.9375 33.8852 32.9375 35.2467C32.9375 36.6082 31.8536 37.7122 30.5169 37.7122ZM33.1169 27.0274H27.8382V25.439C27.984 25.3474 28.1308 25.2572 28.2784 25.1674C28.2802 25.1665 28.282 25.1651 28.2838 25.1642C29.505 24.4234 30.7388 23.7759 31.9484 23.2364V20.8944C31.9484 20.8525 31.9475 20.8106 31.9453 20.7691C30.5925 21.3218 29.2089 22.0021 27.8382 22.7931V21.0584C27.8382 19.5762 29.0223 18.3701 30.4775 18.3701C31.9328 18.3701 33.1169 19.5762 33.1169 21.0584V27.0274Z" fill="white"/>
</svg>
