<svg width="12" height="12" viewBox="0 0 12 12" fill="none" xmlns="http://www.w3.org/2000/svg">
<path d="M6.82031 0.147251C7.19977 0.00129786 7.61767 -0.0374779 8.02051 0.0368996C8.42339 0.111315 8.79352 0.295499 9.08398 0.56522C9.37438 0.834923 9.57222 1.17847 9.65234 1.55252C9.73244 1.9266 9.69136 2.31442 9.53418 2.66678C9.48186 2.78404 9.41701 2.89528 9.3418 2.99979H10.6152C11.3799 2.99979 12 3.57584 12 4.28592V5.57206C11.9998 6.13142 11.6144 6.60532 11.0771 6.78202V10.2859C11.0771 10.7405 10.8822 11.1764 10.5361 11.4978C10.1899 11.8193 9.7201 12.0008 9.23047 12.0008H2.76953C2.2799 12.0008 1.81009 11.8193 1.46387 11.4978C1.11776 11.1764 0.922852 10.7405 0.922852 10.2859V6.78202C0.385643 6.60532 0.000167241 6.13141 0 5.57206V4.28592C1.56103e-05 3.57584 0.620073 2.99979 1.38477 2.99979H2.6582C2.583 2.89528 2.51813 2.78403 2.46582 2.66678C2.30865 2.31443 2.26756 1.92659 2.34766 1.55252C2.42778 1.1785 2.62566 0.834913 2.91602 0.56522C3.20648 0.295499 3.57661 0.111316 3.97949 0.0368996C4.38237 -0.0375096 4.80019 0.0012824 5.17969 0.147251C5.50092 0.270867 5.78269 0.466877 6 0.716587C6.21729 0.466907 6.49913 0.27087 6.82031 0.147251ZM1.8457 6.85721V10.2859C1.8457 10.5132 1.94314 10.7316 2.11621 10.8924C2.28932 11.0531 2.52472 11.1433 2.76953 11.1433H5.53809V6.85721H1.8457ZM6.46191 6.85721V11.1433H9.23047C9.47528 11.1433 9.71068 11.0531 9.88379 10.8924C10.0569 10.7316 10.1543 10.5132 10.1543 10.2859V6.85721H6.46191ZM6.46191 5.99979H10.6152C10.87 5.99979 11.0769 5.80859 11.0771 5.57206V4.28592C11.0771 4.04924 10.8701 3.85721 10.6152 3.85721H6.46191V5.99979ZM1.38477 3.85721C1.12987 3.85721 0.922867 4.04924 0.922852 4.28592V5.57206C0.923064 5.80859 1.13 5.99979 1.38477 5.99979H5.53809V3.85721H1.38477ZM4.15918 0.87772C3.9355 0.919107 3.72964 1.02093 3.56836 1.17069C3.40705 1.32051 3.29745 1.51173 3.25293 1.71952C3.20842 1.92732 3.23106 2.1429 3.31836 2.33866C3.40561 2.53427 3.55366 2.70141 3.74316 2.81913C3.93291 2.93686 4.15656 2.99979 4.38477 2.99979H5.53809V1.9285C5.53806 1.71668 5.47045 1.50991 5.34375 1.33377C5.21696 1.15758 5.03701 1.01936 4.82617 0.938267C4.61539 0.857238 4.38293 0.836392 4.15918 0.87772ZM7.84082 0.87772C7.61703 0.836384 7.38464 0.857201 7.17383 0.938267C6.96299 1.01936 6.78304 1.15758 6.65625 1.33377C6.52958 1.5099 6.46194 1.7167 6.46191 1.9285V2.99979H7.61523C7.84344 2.99979 8.06709 2.93686 8.25684 2.81913C8.44639 2.70141 8.59437 2.5343 8.68164 2.33866C8.76895 2.14289 8.79159 1.92734 8.74707 1.71952C8.70254 1.51171 8.59298 1.32051 8.43164 1.17069C8.27033 1.0209 8.06455 0.919092 7.84082 0.87772Z" fill="white"/>
</svg>
