<svg width="14" height="14" viewBox="0 0 14 14" fill="none" xmlns="http://www.w3.org/2000/svg">
<path d="M7.95703 0.171193C8.39979 0.000892706 8.88739 -0.0435548 9.35742 0.0432637C9.82739 0.13008 10.2588 0.344859 10.5977 0.659475C10.9365 0.97415 11.1672 1.37535 11.2607 1.81182C11.3541 2.24818 11.3064 2.70059 11.123 3.11162C11.0619 3.24866 10.9854 3.37818 10.8975 3.50029H12.3848C13.2768 3.50037 13.9999 4.17194 14 5.00029V6.50029C14 7.15321 13.55 7.70633 12.9229 7.9124V12.0003C12.9229 12.5307 12.6958 13.0393 12.292 13.4144C11.8881 13.7894 11.3406 14.0002 10.7695 14.0003H3.23047C2.65932 14.0002 2.11187 13.7894 1.70801 13.4144C1.30412 13.0393 1.07715 12.5307 1.07715 12.0003V7.9124C0.45005 7.70632 0 7.15321 0 6.50029V5.00029C6.10478e-05 4.17195 0.723189 3.50037 1.61523 3.50029H3.10254C3.01458 3.37818 2.9381 3.24866 2.87695 3.11162C2.6936 2.70059 2.64586 2.24818 2.73926 1.81182C2.83275 1.37535 3.06347 0.974149 3.40234 0.659475C3.74119 0.344861 4.17261 0.130076 4.64258 0.0432637C5.11261 -0.0435548 5.60021 0.000892677 6.04297 0.171193C6.41783 0.315407 6.74642 0.544847 7 0.836232C7.25359 0.544841 7.58216 0.315406 7.95703 0.171193ZM2.15332 8.00029V12.0003C2.15332 12.2653 2.26705 12.5198 2.46875 12.7073C2.67065 12.8948 2.94494 13.0002 3.23047 13.0003H6.46191V8.00029H2.15332ZM7.53809 8.00029V13.0003H10.7695C11.055 13.0002 11.3284 12.8948 11.5303 12.7073C11.7322 12.5198 11.8457 12.2655 11.8457 12.0003V8.00029H7.53809ZM7.53809 7.00029H12.3848C12.6821 7.00022 12.9229 6.7764 12.9229 6.50029V5.00029C12.9228 4.72424 12.682 4.50037 12.3848 4.50029H7.53809V7.00029ZM1.61523 4.50029C1.31796 4.50037 1.07721 4.72424 1.07715 5.00029V6.50029C1.07715 6.7764 1.31792 7.00022 1.61523 7.00029H6.46191V4.50029H1.61523ZM4.85254 1.02471C4.59152 1.07297 4.35128 1.19175 4.16309 1.36651C3.97503 1.54122 3.84688 1.76389 3.79492 2.00615C3.74298 2.24864 3.77018 2.5004 3.87207 2.72881C3.97391 2.957 4.14607 3.15206 4.36719 3.28936C4.58852 3.42669 4.84904 3.50027 5.11523 3.50029H6.46191V2.25029C6.4619 2.00308 6.38228 1.76151 6.23438 1.55596C6.08649 1.35047 5.87675 1.18963 5.63086 1.09502C5.38488 1.00041 5.11367 0.976477 4.85254 1.02471ZM9.14746 1.02471C8.88633 0.976477 8.61512 1.00041 8.36914 1.09502C8.12325 1.18963 7.91352 1.35047 7.76562 1.55596C7.61772 1.76151 7.5381 2.00308 7.53809 2.25029V3.50029H8.88477C9.15095 3.50026 9.41148 3.42668 9.63281 3.28936C9.85393 3.15206 10.0261 2.95699 10.1279 2.72881C10.2298 2.5004 10.257 2.24864 10.2051 2.00615C10.1531 1.76389 10.025 1.54122 9.83691 1.36651C9.64872 1.19175 9.40847 1.07298 9.14746 1.02471Z" fill="white"/>
</svg>
