<svg width="477" height="393" viewBox="0 0 477 393" fill="none" xmlns="http://www.w3.org/2000/svg">
<path d="M175.476 147.253C175.656 146.875 175.808 146.492 175.94 146.109C179.943 146.633 183.997 146.534 187.976 145.858C188.056 146.236 188.156 146.615 188.284 146.988C190.029 151.98 195.65 154.249 200.84 152.06C206.025 149.872 208.817 144.052 207.066 139.06C206.934 138.687 206.778 138.337 206.607 137.997C209.971 135.572 213.042 132.664 215.696 129.331C216.027 129.521 216.372 129.695 216.737 129.842C221.638 131.823 227.585 129.313 230.017 124.235C232.449 119.158 230.447 113.438 225.541 111.457C225.177 111.311 224.803 111.193 224.429 111.098C225.314 107.052 225.574 103.01 225.248 99.0908C225.636 98.9773 226.028 98.8449 226.412 98.6842C231.597 96.4955 234.388 90.6761 232.638 85.6841C230.892 80.692 225.271 78.4229 220.081 80.6116C219.694 80.7771 219.324 80.9615 218.97 81.1647C216.822 78.0163 214.163 75.2036 211.036 72.8494C211.253 72.4995 211.461 72.1403 211.641 71.7621C214.073 66.6849 212.072 60.9649 207.165 58.9841C202.264 57.0034 196.317 59.5136 193.885 64.5907C193.705 64.9689 193.554 65.3518 193.422 65.7347C189.419 65.21 185.364 65.3093 181.386 65.9853C181.305 65.6071 181.206 65.2289 181.078 64.8554C179.332 59.8634 173.712 57.5943 168.522 59.783C163.336 61.9718 160.545 67.7911 162.296 72.7832C162.423 73.1566 162.584 73.5065 162.754 73.8468C159.391 76.2719 156.32 79.1792 153.666 82.512C153.335 82.3229 152.989 82.148 152.625 82.0015C147.724 80.0207 141.777 82.5309 139.345 87.6081C136.913 92.6852 138.914 98.4053 143.821 100.386C144.185 100.533 144.559 100.651 144.932 100.745C144.048 104.792 143.787 108.834 144.114 112.753C143.726 112.866 143.333 112.999 142.95 113.159C137.765 115.348 134.973 121.167 136.724 126.159C138.47 131.151 144.09 133.421 149.28 131.232C149.668 131.066 150.037 130.877 150.392 130.679C152.54 133.827 155.199 136.64 158.326 138.994C158.109 139.344 157.9 139.703 157.721 140.081C155.289 145.159 157.29 150.879 162.196 152.859C167.098 154.84 173.045 152.33 175.476 147.253ZM168.195 99.2609C172.713 89.8346 183.756 85.1688 192.859 88.8466C201.966 92.5245 205.685 103.147 201.166 112.578C196.648 122.004 185.606 126.67 176.503 122.992C167.396 119.314 163.677 108.692 168.195 99.2609Z" fill="#013E85"/>
<path d="M115.275 98.1213C116.293 96.5424 117.314 94.8689 117.745 92.8314C118.176 90.7939 117.854 88.279 116.595 87.0924C115.706 86.251 114.514 86.199 113.662 85.2866C112.498 84.048 112.347 81.5662 112.896 79.6611C113.44 77.756 114.518 76.2716 115.521 74.7778C118.237 70.7123 120.612 66.0275 121.686 60.6572C122.76 55.2917 122.386 49.1556 120.025 44.6789C117.665 40.1974 113.123 37.8999 109.484 40.1264C106.797 41.7716 105.042 45.388 103.429 48.82C99.3646 57.4805 95.2816 66.1882 92.1969 75.6145C89.1122 85.0408 87.04 95.2991 87.2293 105.671C87.2955 109.443 87.6882 113.305 88.975 116.619C90.2666 119.933 92.5896 122.623 95.2674 122.954C99.5964 123.488 101.257 117.106 104.006 113.721C107.975 108.833 111.741 103.619 115.275 98.1166V98.1213Z" fill="#CCE7FF"/>
<path d="M95.7831 123.465C95.5939 123.465 95.4046 123.45 95.2059 123.427C92.5565 123.1 89.9969 120.557 88.5303 116.794C87.3996 113.896 86.8366 110.365 86.7514 105.685C86.5811 96.2824 88.2606 86.1139 91.7427 75.4727C94.8416 65.9991 98.9861 57.1684 102.998 48.6262C104.488 45.4541 106.343 41.5021 109.234 39.7293C110.757 38.7933 112.503 38.557 114.272 39.0439C116.733 39.7152 118.98 41.6912 120.437 44.4614C122.694 48.7396 123.328 54.8331 122.14 60.7565C121.184 65.5169 119.145 70.1922 115.905 75.0425L115.611 75.4774C114.727 76.7916 113.813 78.1483 113.34 79.7982C112.862 81.4575 112.933 83.8353 113.998 84.9699C114.381 85.3764 114.859 85.5939 115.37 85.8208C115.89 86.0572 116.43 86.2982 116.912 86.7568C118.398 88.1608 118.62 90.9452 118.199 92.9354C117.759 95.006 116.747 96.6936 115.663 98.3813C112.12 103.898 108.316 109.16 104.361 114.029C103.566 115.007 102.842 116.284 102.142 117.518C100.481 120.444 98.7684 123.469 95.7736 123.469L95.7831 123.465ZM112.503 39.7388C111.528 39.7388 110.587 40.0035 109.73 40.5283C107.076 42.1545 105.293 45.96 103.854 49.0233C99.8566 57.5419 95.7216 66.3442 92.6416 75.7658C89.1926 86.3077 87.5273 96.3675 87.6976 105.666C87.778 110.233 88.3269 113.66 89.4103 116.449C90.7492 119.891 93.0154 122.202 95.3195 122.486C98.0446 122.822 99.639 120.014 101.328 117.045C102.047 115.773 102.795 114.464 103.637 113.424C107.568 108.583 111.353 103.345 114.878 97.8613C115.914 96.2493 116.879 94.642 117.286 92.7274C117.669 90.931 117.442 88.5343 116.278 87.4281C115.909 87.083 115.469 86.8797 114.996 86.6717C114.424 86.4164 113.832 86.1517 113.321 85.6081C111.94 84.1379 111.897 81.4291 112.441 79.5287C112.957 77.7371 113.913 76.3141 114.835 74.9432L115.124 74.513C118.294 69.7668 120.29 65.2049 121.218 60.5627C122.363 54.8426 121.762 48.9854 119.604 44.8963C118.284 42.3955 116.198 40.5424 114.026 39.9468C113.515 39.805 113.004 39.7341 112.503 39.7341V39.7388Z" fill="black"/>
<path d="M67.8931 103.085C64.4015 95.5779 64.1035 84.5349 68.7021 78.3232C70.5851 75.7799 73.3859 73.3973 73.069 69.7573C72.9459 68.3343 72.3262 67.1005 71.6591 66.0227C69.2651 62.1557 66.048 59.4895 63.4175 55.944C60.7822 52.3985 58.6627 47.3403 59.4717 42.3435C60.1672 38.0416 62.9869 34.8223 66.0527 33.8674C69.1185 32.9172 72.3546 33.9383 75.2027 35.8009C83.7518 41.3933 89.0743 54.1145 90.8674 67.1194C92.6653 80.1243 91.4399 93.5452 90.0111 106.645C89.6894 109.585 89.3298 112.634 88.1281 115.083C83.2551 125.043 70.8643 109.472 67.8931 103.08V103.085Z" fill="#CCE7FF"/>
<path d="M83.7471 118.803C83.7471 118.803 83.714 118.803 83.6951 118.803C77.8379 118.747 69.8991 108.521 67.4626 103.283C64.0798 96.0129 63.479 84.5822 68.3236 78.0396C68.7116 77.5196 69.1421 76.9948 69.5537 76.489C71.167 74.5319 72.8324 72.5086 72.5958 69.7951C72.4728 68.3911 71.8152 67.1714 71.2569 66.2685C69.8896 64.0561 68.2054 62.1983 66.5779 60.4019C65.3856 59.0877 64.1508 57.7262 63.0342 56.2229C61.4824 54.1335 57.9814 48.5883 58.9986 42.2631C59.6799 38.0369 62.457 34.482 65.906 33.4136C68.792 32.5154 72.0943 33.2056 75.4582 35.4038C83.3781 40.5849 89.3156 52.4174 91.3358 67.0533C93.1289 80.0298 91.9556 93.2096 90.4795 106.692C90.1862 109.363 89.8266 112.686 88.5539 115.286C87.4137 117.617 85.8004 118.794 83.7471 118.794V118.803ZM68.4656 33.9809C67.7181 33.9809 66.9516 34.0849 66.1899 34.3212C63.0768 35.2856 60.5599 38.5427 59.9354 42.4191C58.9702 48.3898 62.3151 53.6702 63.796 55.6651C64.8841 57.1306 66.1047 58.4732 67.2781 59.7732C68.934 61.6026 70.6466 63.4936 72.0612 65.7769C72.6763 66.7696 73.4001 68.1169 73.5421 69.7195C73.8117 72.8206 72.0186 74.9952 70.2871 77.0941C69.8613 77.6141 69.4591 78.101 69.0853 78.6068C64.4488 84.8658 65.0592 95.871 68.3236 102.891C70.7649 108.143 78.4577 117.811 83.7045 117.863C83.7187 117.863 83.7329 117.863 83.7471 117.863C85.4314 117.863 86.723 116.889 87.7023 114.884C88.904 112.431 89.2541 109.197 89.538 106.602C91.0046 93.1812 92.1732 80.0676 90.3943 67.1951C88.412 52.824 82.6305 41.2373 74.9377 36.2074C73.2677 35.1154 70.9447 33.9903 68.4608 33.9903L68.4656 33.9809Z" fill="black"/>
<path d="M80.8469 110.431C80.705 110.431 80.5678 110.37 80.4732 110.252C75.8225 104.309 75.8887 94.2212 76.3429 88.7328C76.5463 86.2746 76.8586 83.788 77.1661 81.3865C77.7953 76.4133 78.4435 71.2747 78.1313 66.2023C77.6913 59.0782 74.4315 50.9992 69.2604 50.0538C69.0049 50.0065 68.8346 49.7607 68.8819 49.5054C68.9292 49.2501 69.1705 49.0752 69.4307 49.1272C75.1317 50.172 78.5996 58.4826 79.0728 66.1503C79.3945 71.3078 78.7368 76.4937 78.1029 81.5094C77.8001 83.9014 77.4878 86.3786 77.2844 88.8131C76.8397 94.1597 76.764 103.983 81.2159 109.67C81.3768 109.873 81.339 110.171 81.1355 110.332C81.0504 110.398 80.9463 110.431 80.8422 110.431H80.8469Z" fill="black"/>
<path d="M83.2456 82.6535C84.5939 78.3138 86.6094 74.1301 86.6046 69.398C86.5952 62.5434 82.4744 57.3528 79.5647 51.8549C74.351 41.9984 72.6668 28.2183 76.2766 17.0334C79.8865 5.84384 89.1311 -1.6348 97.6707 0.98887C100.765 1.93906 103.816 4.31691 105.278 8.26423C106.963 12.8072 106.229 18.3382 105.141 23.2262C104.053 28.1143 102.629 33.0922 103.055 38.1835C103.812 47.208 110.09 53.6324 111.405 62.5292C112.772 71.7712 108.467 80.6727 104.001 87.7164C101.484 91.6874 98.8251 95.5638 96.7624 100.045C94.4015 105.184 94.1224 109.769 93.2992 115.551C92.4192 121.706 89.4764 122.415 86.6046 118C83.8843 113.816 82.3372 107.86 81.6654 102.362C80.8611 95.7576 81.3389 88.8132 83.2503 82.6535H83.2456Z" fill="#CCE7FF"/>
<path d="M90.1293 121.304C89.1453 121.304 87.778 120.685 86.2025 118.26C82.9096 113.192 81.6512 106.162 81.1922 102.418C80.3596 95.5969 80.9273 88.5248 82.7961 82.5116C83.132 81.4338 83.5105 80.3465 83.8795 79.297C84.9913 76.1392 86.1363 72.8773 86.1315 69.3933C86.1268 64.1412 83.5956 59.8063 81.1497 55.6084C80.4778 54.4549 79.7776 53.2589 79.1484 52.0676C73.613 41.6013 72.3072 27.7881 75.8271 16.8821C79.631 5.09688 89.2825 -2.08393 97.8079 0.539738C101.475 1.66957 104.356 4.4256 105.718 8.10346C107.53 12.9915 106.603 18.8109 105.6 23.3349C105.444 24.0393 105.278 24.7437 105.113 25.4528C104.152 29.5892 103.164 33.8674 103.518 38.1504C103.906 42.7926 105.751 46.6643 107.705 50.7581C109.437 54.3982 111.23 58.1611 111.869 62.463C113.345 72.4424 108.311 81.7978 104.394 87.9717C103.963 88.6477 103.533 89.319 103.102 89.995C101.03 93.219 98.8866 96.5565 97.1882 100.249C95.2389 104.484 94.728 108.38 94.1319 112.885C94.0136 113.773 93.8953 114.681 93.7581 115.622C93.1572 119.834 91.719 121.011 90.6214 121.252C90.47 121.285 90.3044 121.304 90.1246 121.304H90.1293ZM94.1981 0.946288C87.1156 0.946288 79.8723 7.42746 76.7308 17.1799C73.2865 27.859 74.5639 41.3839 79.9858 51.6374C80.6056 52.8098 81.3011 53.9964 81.9681 55.1451C84.4804 59.447 87.073 63.8954 87.0777 69.4027C87.0777 73.0475 85.9044 76.3897 84.769 79.6232C84.4047 80.6632 84.0262 81.7411 83.695 82.8C81.8688 88.6902 81.3105 95.6158 82.129 102.31C82.9002 108.63 84.627 114.114 86.9926 117.749C88.199 119.607 89.448 120.548 90.4179 120.335C91.5439 120.089 92.4192 118.321 92.8213 115.494C92.9538 114.558 93.0768 113.651 93.1904 112.767C93.7959 108.186 94.3164 104.224 96.3224 99.8562C98.0445 96.1027 100.207 92.7416 102.298 89.4892C102.728 88.8179 103.159 88.1466 103.589 87.4706C107.422 81.4243 112.356 72.2722 110.927 62.6048C110.312 58.4401 108.552 54.7433 106.849 51.1647C104.947 47.1701 102.979 43.0431 102.577 38.226C102.203 33.7965 103.216 29.4426 104.19 25.2353C104.356 24.5309 104.517 23.8266 104.673 23.1269C105.652 18.7305 106.556 13.0861 104.829 8.42965C103.57 5.02597 100.907 2.47794 97.5241 1.43793C96.4264 1.10229 95.3146 0.936833 94.1934 0.936833L94.1981 0.946288Z" fill="black"/>
<path d="M90.2381 115.523C90.082 115.523 89.9259 115.442 89.836 115.3C86.4012 109.746 86.7608 101.44 88.2463 95.5118C89.2966 91.3186 90.9194 87.428 92.4854 83.6651C93.3417 81.6087 94.2312 79.4814 95.0118 77.3352C97.7275 69.866 98.4656 63.3281 97.2118 57.8917C96.3933 54.3367 94.7847 51.4247 93.0815 48.3377C91.9839 46.3523 90.8484 44.2959 89.9637 42.074C86.5952 33.6405 87.1061 22.3233 91.2033 14.5468C91.3263 14.3152 91.6102 14.2253 91.842 14.3483C92.0738 14.4712 92.1637 14.7548 92.0407 14.9864C88.0618 22.536 87.5698 33.527 90.8437 41.7242C91.7095 43.8893 92.8308 45.9221 93.9142 47.8839C95.5748 50.8905 97.2922 53.9964 98.1391 57.6789C99.4354 63.295 98.6832 70.0173 95.906 77.6566C95.1159 79.8217 94.2265 81.9632 93.3654 84.0291C91.8089 87.7589 90.2003 91.6212 89.1689 95.7434C87.7306 101.482 87.3663 109.5 90.645 114.804C90.7822 115.026 90.7112 115.319 90.4889 115.456C90.4132 115.504 90.328 115.527 90.2429 115.527L90.2381 115.523Z" fill="black"/>
<path d="M116.169 116.373H67.6754L70.9825 157.166H112.867L116.169 116.373Z" fill="#4282FF"/>
<path d="M49.929 217.278C49.6688 217.278 49.4559 217.066 49.4559 216.806V157.166C49.4559 156.906 49.6688 156.693 49.929 156.693H131.621C131.882 156.693 132.094 156.906 132.094 157.166C132.094 157.426 131.882 157.638 131.621 157.638H50.4022V216.806C50.4022 217.066 50.1893 217.278 49.929 217.278Z" fill="#4282FF"/>
<path d="M288.129 385.685C287.968 385.685 287.812 385.604 287.722 385.458C287.585 385.236 287.661 384.942 287.883 384.81C317.159 367.12 343.554 369.347 343.815 369.366C344.075 369.389 344.264 369.621 344.24 369.881C344.217 370.141 343.98 370.33 343.725 370.307C343.464 370.278 317.363 368.099 288.371 385.618C288.295 385.666 288.21 385.685 288.125 385.685H288.129Z" fill="black"/>
<path d="M150.696 235.398L171.556 161.236L167.884 132.574C167.884 132.574 194.44 113.471 175.724 98.5514C157.007 83.6367 147.271 102.811 133.584 104.446C119.897 106.087 108.163 109.131 98.5592 137.145C88.955 165.159 62.5885 226.913 62.5885 226.913L150.696 235.398Z" fill="black"/>
<path d="M405.116 77.2531C407.685 47.9342 385.978 24.1652 356.636 24.1652C327.293 24.1652 301.424 47.9342 298.859 77.2531C296.29 106.572 317.997 130.341 347.339 130.341C376.682 130.341 402.551 106.572 405.116 77.2531Z" fill="#4282FF"/>
<path d="M348.863 111.039C346.776 111.039 344.68 110.879 342.589 110.548C341.298 110.344 340.418 109.134 340.621 107.844C340.824 106.553 342.036 105.674 343.327 105.877C355.354 107.773 367.593 103.376 375.267 94.3944C379.449 89.4969 381.995 83.635 382.827 76.96C382.988 75.6647 384.166 74.7476 385.467 74.9084C386.764 75.0691 387.682 76.2509 387.521 77.5462C386.574 85.1525 383.66 91.8558 378.863 97.4672C371.468 106.118 360.369 111.039 348.863 111.039Z" fill="white"/>
<path d="M353.92 102.445L344.325 108.496L350.386 118.083L343.744 116.58L337.688 106.997L347.278 100.946L353.92 102.445Z" fill="white"/>
<path d="M318.801 79.6168C318.711 79.6168 318.617 79.6121 318.522 79.6026C317.226 79.4513 316.294 78.2789 316.45 76.9789C317.013 72.1571 319.534 60.0126 330.686 51.3994C341.809 42.8098 354.502 43.4196 361.078 44.5495C362.365 44.7717 363.231 45.9913 363.009 47.2819C362.786 48.5677 361.57 49.4281 360.274 49.2106C354.464 48.2131 343.27 47.6553 333.581 55.1434C323.575 62.8726 321.536 74.2324 321.152 77.532C321.01 78.7328 319.989 79.6215 318.806 79.6215L318.801 79.6168Z" fill="white"/>
<path d="M349.662 52.5954L359.304 46.6153L353.315 36.9857L359.943 38.5363L365.928 48.1658L356.295 54.1459L349.662 52.5954Z" fill="white"/>
<path d="M473.192 176.83H211.012L214.347 151.51H476.527L473.192 176.83Z" fill="white"/>
<path d="M473.192 177.302H211.012C210.875 177.302 210.747 177.246 210.657 177.142C210.567 177.038 210.525 176.905 210.544 176.768L213.879 151.449C213.912 151.212 214.111 151.037 214.347 151.037H476.527C476.664 151.037 476.792 151.094 476.882 151.198C476.972 151.302 477.015 151.434 476.996 151.571L473.66 176.891C473.627 177.127 473.428 177.302 473.192 177.302ZM211.551 176.357H472.78L475.988 151.983H214.759L211.551 176.357Z" fill="black"/>
<path d="M464.799 171.19H221.018C220.881 171.19 220.753 171.133 220.664 171.029C220.574 170.925 220.531 170.793 220.55 170.656L222.272 157.561C222.305 157.325 222.504 157.15 222.74 157.15H466.521C466.658 157.15 466.786 157.206 466.876 157.31C466.966 157.414 467.008 157.547 466.989 157.684L465.267 170.779C465.234 171.015 465.035 171.19 464.799 171.19ZM221.558 170.244H464.382L465.982 158.095H223.157L221.558 170.244Z" fill="#4282FF"/>
<path d="M221.018 170.717L222.745 157.622H396.439L394.717 170.717H221.018Z" fill="#4282FF"/>
<path d="M192.756 309.059L173.249 375.857L32.981 362.483L36.4395 321.648L8.79553 321.133L34.3956 255.886C42.7934 234.486 61.3488 218.706 83.8311 213.846C114.55 207.209 157.693 197.892 183.265 192.389C194.293 190.016 205.724 193.925 212.986 202.553C226.777 218.942 248.564 244.848 260.061 263.852L198.282 316.784L192.756 309.059Z" fill="#013E85"/>
<path d="M81.8015 323.005C81.7447 323.005 81.6832 322.996 81.6264 322.972C81.3851 322.873 81.2668 322.598 81.3615 322.357L93.1041 293.109C93.2035 292.868 93.4779 292.75 93.7192 292.845C93.9604 292.944 94.0787 293.218 93.9841 293.459L82.2415 322.707C82.1658 322.892 81.9907 323.005 81.8015 323.005Z" fill="black"/>
<path d="M338.228 229.584C340.925 216.413 330.162 219.368 330.162 219.368C332.011 208.561 321.433 207.653 321.433 207.653C332.764 194.185 335.834 180.741 328.936 181.483C323.609 182.055 299.655 207.318 288.991 218.829C285.618 222.474 282.779 226.572 280.565 231.016L259.498 273.288L254.989 268.196L201.021 314.439C213.861 332.304 229.389 344.528 243.024 352.693C261.617 363.821 285.717 356.938 295.705 337.721C314.043 302.441 331.865 249.727 331.865 249.727C335.262 249.727 339.189 243.378 339.189 243.378C345.869 231.144 338.228 229.588 338.228 229.588V229.584Z" fill="white"/>
<path d="M262.218 358.517C255.448 358.517 248.782 356.682 242.783 353.094C225.831 342.95 211.652 330.035 200.638 314.713C200.486 314.501 200.534 314.207 200.747 314.051C200.959 313.9 201.253 313.947 201.409 314.16C212.347 329.377 226.432 342.203 243.27 352.281C252.131 357.581 262.478 358.952 272.414 356.139C282.382 353.317 290.505 346.694 295.289 337.494C313.399 302.649 331.24 250.095 331.42 249.566C331.505 249.32 331.775 249.188 332.021 249.268C332.267 249.353 332.399 249.618 332.319 249.868C332.139 250.398 314.279 303.018 296.131 337.929C291.225 347.365 282.898 354.153 272.674 357.046C269.211 358.025 265.705 358.512 262.223 358.512L262.218 358.517Z" fill="black"/>
<path d="M259.502 273.76C259.37 273.76 259.237 273.704 259.148 273.6L254.639 268.508C254.464 268.315 254.483 268.012 254.681 267.842C254.875 267.672 255.178 267.686 255.348 267.884L259.394 272.451L280.149 230.808C282.382 226.326 285.244 222.185 288.651 218.507C301.396 204.751 323.576 181.587 328.889 181.015C331.004 180.783 332.012 181.804 332.489 182.693C334.737 186.905 330.294 197.617 322.336 207.308C323.846 207.597 326.982 208.495 329.017 211.128C330.554 213.118 331.136 215.685 330.734 218.763C332.092 218.531 335.12 218.285 337.173 220.204C339.037 221.949 339.577 224.989 338.777 229.253C339.52 229.517 340.987 230.245 341.819 232.028C343.073 234.722 342.33 238.617 339.61 243.6C339.487 243.827 339.198 243.912 338.966 243.789C338.739 243.666 338.654 243.378 338.777 243.146C341.313 238.509 342.065 234.798 340.963 232.425C340.045 230.453 338.157 230.047 338.138 230.047C338.015 230.023 337.907 229.948 337.84 229.844C337.769 229.74 337.746 229.612 337.769 229.489C338.616 225.348 338.2 222.459 336.53 220.899C334.254 218.772 330.332 219.817 330.294 219.826C330.138 219.869 329.972 219.826 329.849 219.722C329.731 219.614 329.674 219.453 329.703 219.292C330.237 216.186 329.755 213.634 328.274 211.714C325.833 208.552 321.442 208.131 321.4 208.126C321.225 208.112 321.073 207.999 321.002 207.838C320.936 207.677 320.964 207.488 321.078 207.351C329.958 196.795 333.483 186.565 331.657 183.142C331.16 182.206 330.285 181.819 328.993 181.96C325.388 182.348 310.565 196.251 289.346 219.155C286.001 222.767 283.191 226.832 280.996 231.233L259.928 273.505C259.857 273.647 259.72 273.741 259.569 273.765C259.55 273.765 259.526 273.765 259.507 273.765L259.502 273.76Z" fill="black"/>
<path d="M249.364 296.745C249.302 296.745 249.241 296.73 249.179 296.707C248.938 296.608 248.824 296.329 248.928 296.088L258.107 274.351C258.206 274.11 258.485 273.997 258.726 274.101C258.968 274.2 259.081 274.479 258.977 274.72L249.799 296.456C249.723 296.636 249.548 296.745 249.364 296.745Z" fill="black"/>
<path d="M305.063 227.976C303.62 227.976 302.172 227.882 300.734 227.693C300.474 227.66 300.294 227.423 300.327 227.163C300.36 226.903 300.597 226.719 300.857 226.757C306.459 227.489 312.179 226.742 317.402 224.591C319.394 223.769 322.776 221.939 323.046 218.909C323.221 216.924 321.849 214.768 319.706 213.667C317.596 212.579 315.107 212.471 312.95 212.518C306.118 212.65 299.272 214.324 293.15 217.349C292.914 217.463 292.634 217.368 292.516 217.136C292.398 216.9 292.497 216.621 292.729 216.503C298.974 213.416 305.962 211.709 312.931 211.577C315.207 211.535 317.842 211.648 320.141 212.835C322.232 213.912 324.238 216.238 323.988 219.004C323.756 221.618 321.542 223.915 317.761 225.475C313.731 227.135 309.406 227.986 305.063 227.986V227.976Z" fill="black"/>
<path d="M310.39 243.151C309.047 243.151 307.845 242.626 307.126 241.719C306.236 240.593 306.208 239.067 306.265 238.012C306.482 233.923 308.119 229.995 310.863 226.96C311.039 226.766 311.337 226.752 311.531 226.927C311.725 227.102 311.739 227.399 311.564 227.593C308.962 230.472 307.414 234.193 307.206 238.064C307.159 238.963 307.173 240.258 307.864 241.132C308.436 241.856 309.501 242.262 310.641 242.196C311.767 242.13 312.832 241.671 313.816 241.184C321.745 237.27 327.749 229.456 329.49 220.791C329.542 220.535 329.793 220.37 330.048 220.422C330.304 220.474 330.469 220.725 330.417 220.98C328.624 229.924 322.422 237.993 314.232 242.035C313.21 242.541 311.989 243.066 310.693 243.141C310.589 243.146 310.485 243.151 310.386 243.151H310.39Z" fill="black"/>
<path d="M321.068 246.583C320.68 246.583 320.302 246.555 319.928 246.493C318.419 246.252 316.985 245.368 316.091 244.12C315.367 243.113 315.074 241.95 315.263 240.849C315.306 240.593 315.547 240.419 315.807 240.461C316.063 240.504 316.238 240.749 316.195 241.005C316.011 242.097 316.456 243 316.858 243.562C317.596 244.593 318.831 245.359 320.075 245.552C322.024 245.86 324.2 245.24 326.727 243.657C331.619 240.593 335.361 235.904 337.268 230.458C337.353 230.212 337.623 230.08 337.869 230.17C338.115 230.26 338.247 230.524 338.157 230.77C336.18 236.419 332.3 241.279 327.228 244.456C324.967 245.874 322.937 246.569 321.068 246.569V246.583Z" fill="black"/>
<path d="M327.47 251.197C326.315 251.197 325.336 250.942 324.551 250.436C323.292 249.623 322.431 247.822 323.24 246.328C323.363 246.096 323.652 246.011 323.879 246.134C324.111 246.257 324.196 246.545 324.073 246.772C323.548 247.746 324.172 249.065 325.066 249.642C325.937 250.204 327.143 250.379 328.652 250.162C332.716 249.58 337.159 246.507 338.763 243.165C338.876 242.929 339.16 242.829 339.392 242.943C339.629 243.056 339.728 243.34 339.614 243.572C337.883 247.164 333.128 250.469 328.785 251.093C328.321 251.159 327.881 251.192 327.465 251.192L327.47 251.197Z" fill="black"/>
<path d="M198.277 391.419H33.4116C14.9129 392.156 -3.67094 370.628 1.05072 350.026C2.49844 344.443 3.57714 339.971 4.29154 336.946C5.56894 331.519 6.51989 327.127 8.79083 321.133C9.11255 320.287 9.39169 319.587 9.58093 319.124C15.703 318.977 22.3928 319.223 29.5747 319.809C41.0618 320.75 67.7974 323.123 79.7056 327.921L73.5883 345.748L140.586 346.722C155.271 346.722 167.794 356.021 179.376 365.045C187.23 371.167 194.648 379.719 198.277 391.419Z" fill="white"/>
<path d="M198.277 392.123L35.6021 391.892C24.7063 391.892 14.558 387.008 7.76888 378.494C0.979716 369.98 -1.52305 359.008 0.908749 348.391L1.31089 346.793C3.31216 338.875 6.05148 328.035 9.13144 318.973C9.2166 318.727 9.48627 318.594 9.73229 318.675C9.97831 318.76 10.1108 319.029 10.0304 319.275C6.96458 328.3 4.22526 339.125 2.22873 347.025L1.82659 348.613C-0.538974 358.933 1.89755 369.616 8.50693 377.903C15.1163 386.195 24.9949 390.946 35.6021 390.946L197.6 391.178C194.766 383.486 189.094 372.807 177.985 364.35L176.31 363.074C176.102 362.913 176.064 362.62 176.22 362.412C176.377 362.204 176.675 362.161 176.883 362.322L178.558 363.599C190.158 372.434 195.926 383.647 198.717 391.495C198.769 391.641 198.745 391.802 198.655 391.925C198.566 392.052 198.424 392.123 198.267 392.123H198.277Z" fill="black"/>
<path d="M179.859 385.59C179.674 385.59 179.494 385.477 179.419 385.297C176.05 377.024 169.639 370.822 160.877 367.347C160.636 367.253 160.518 366.974 160.612 366.733C160.707 366.492 160.986 366.374 161.227 366.468C170.236 370.037 176.831 376.424 180.299 384.938C180.398 385.179 180.28 385.453 180.038 385.552C179.982 385.576 179.92 385.585 179.859 385.585V385.59Z" fill="black"/>
<path d="M159.974 385.59C159.794 385.59 159.619 385.486 159.543 385.311C156.43 378.329 150.242 372.713 142.994 370.283C142.748 370.198 142.611 369.933 142.696 369.683C142.781 369.437 143.046 369.305 143.297 369.385C150.795 371.9 157.192 377.71 160.409 384.928C160.518 385.165 160.409 385.448 160.168 385.552C160.106 385.581 160.04 385.595 159.974 385.595V385.59Z" fill="black"/>
<path d="M331.813 392.36H134.326C131.601 392.36 129.392 390.152 129.392 387.429V386.266C129.392 380.91 133.74 376.566 139.1 376.566H346.044L344.383 382.735C342.855 388.412 337.698 392.36 331.813 392.36Z" fill="black"/>
<path d="M337.59 385.212H215.465C210.251 385.212 206.419 380.319 207.673 375.261L230.756 282.222C231.646 278.644 234.858 276.134 238.548 276.134H360.673C365.886 276.134 369.719 281.026 368.465 286.085L345.382 379.123C344.492 382.702 341.28 385.212 337.59 385.212Z" fill="black"/>
<path d="M337.59 385.448H215.465C212.906 385.448 210.535 384.295 208.955 382.281C207.38 380.267 206.826 377.691 207.441 375.209L230.524 282.17C231.442 278.478 234.74 275.902 238.544 275.902H360.668C363.228 275.902 365.598 277.055 367.178 279.069C368.753 281.083 369.307 283.659 368.692 286.141L345.609 379.18C344.691 382.872 341.393 385.448 337.59 385.448ZM238.544 276.37C234.957 276.37 231.844 278.8 230.983 282.279L207.9 375.318C207.318 377.658 207.839 380.087 209.324 381.988C210.81 383.888 213.048 384.976 215.46 384.976H337.585C341.176 384.976 344.284 382.546 345.145 379.066L368.228 286.028C368.81 283.688 368.29 281.258 366.804 279.358C365.319 277.457 363.081 276.37 360.668 276.37H238.544Z" fill="black"/>
<path d="M300.162 312.033C300.162 314.259 298.354 316.061 296.131 316.061C293.907 316.061 292.1 314.255 292.1 312.033C292.1 309.811 293.907 308.005 296.131 308.005C298.354 308.005 300.162 309.811 300.162 312.033Z" fill="#4282FF"/>
<path d="M130.948 166.871L113.391 206.996L99.2783 210.514C99.2783 210.514 128.871 229.636 145.17 225.433C161.095 221.33 165.031 206.287 162.533 196.861L151.538 198.932L156.137 183.01C156.137 183.01 148.217 156.981 130.948 166.871Z" fill="white"/>
<path d="M99.2783 210.981C99.0654 210.981 98.8714 210.84 98.8193 210.622C98.7578 210.367 98.9092 210.112 99.1647 210.05L113.055 206.59L130.518 166.677C130.56 166.582 130.627 166.507 130.717 166.455C135.036 163.978 139.176 163.495 143.013 165.018C152.177 168.648 156.421 182.287 156.596 182.868C156.624 182.958 156.624 183.048 156.596 183.138L152.21 198.322L162.448 196.393C162.704 196.346 162.954 196.511 163.002 196.771C163.049 197.026 162.883 197.277 162.623 197.324L151.628 199.395C151.467 199.423 151.302 199.371 151.188 199.248C151.079 199.125 151.037 198.955 151.084 198.799L155.645 183.015C155.186 181.596 150.937 169.178 142.658 165.897C139.143 164.502 135.329 164.942 131.317 167.202L113.822 207.181C113.765 207.313 113.647 207.417 113.505 207.45L99.3918 210.967C99.354 210.977 99.3161 210.981 99.2783 210.981Z" fill="black"/>
<path d="M147.493 210.981C147.446 210.981 147.394 210.972 147.346 210.958C147.1 210.877 146.963 210.608 147.044 210.362L150.261 200.544C150.341 200.298 150.606 200.156 150.857 200.241C151.103 200.321 151.24 200.591 151.16 200.837L147.943 210.655C147.876 210.854 147.692 210.981 147.493 210.981Z" fill="black"/>
<path d="M125.735 154.665C125.735 154.665 111.513 134.143 114.073 129.426C116.632 124.708 122.073 126.646 122.073 126.646C122.073 126.646 143.169 88.7706 153.734 103.766C153.734 103.766 160.144 92.3775 169.469 98.3151C178.79 104.253 176.192 111.632 170.221 116.548C170.221 116.548 176.239 127.695 171.04 133.34C165.84 138.984 171.787 152.419 175.795 154.008C175.795 154.008 187.788 180.263 176.135 187.714C164.478 195.164 141.565 196.435 135.334 167.381L125.735 154.665Z" fill="black"/>
<path d="M133.044 156.376L135.329 167.377C135.329 167.377 123.965 170.695 119.485 161.751C115.373 153.544 122.707 145.952 130.48 152.174C131.8 153.228 132.694 154.722 133.039 156.371L133.044 156.376Z" fill="white"/>
<path d="M130.598 168.431C126.804 168.431 121.737 167.306 119.064 161.964C116.992 157.832 117.616 153.275 120.578 150.883C122.754 149.124 126.577 148.444 130.778 151.81C132.169 152.92 133.139 154.509 133.503 156.282L135.793 167.282C135.845 167.523 135.698 167.764 135.462 167.83C135.414 167.845 133.333 168.431 130.598 168.431ZM124.741 150.372C123.431 150.372 122.205 150.784 121.174 151.62C119.035 153.346 117.73 157.189 119.911 161.543C123.738 169.178 132.694 167.537 134.776 167.036L132.581 156.475C132.259 154.92 131.407 153.526 130.191 152.547C128.394 151.105 126.492 150.372 124.746 150.372H124.741Z" fill="black"/>
<path d="M132.093 164.063C131.932 164.063 131.776 163.982 131.686 163.836C130.262 161.467 127.551 159.926 124.784 159.907C124.524 159.907 124.311 159.69 124.315 159.43C124.315 159.17 124.509 158.957 124.793 158.962C127.883 158.986 130.906 160.706 132.5 163.349C132.637 163.571 132.562 163.864 132.339 163.997C132.264 164.044 132.179 164.063 132.098 164.063H132.093Z" fill="black"/>
<path d="M171.068 129.336C171.068 129.336 154.557 131.411 148.193 135.86C144.872 138.181 143.391 142.35 144.508 146.245C145.629 150.16 147.124 154.934 148.657 158.451C149.703 160.853 152.257 162.224 154.836 161.77C160.125 160.848 169.469 158.655 175.79 154.008L171.068 129.341V129.336Z" fill="white"/>
<path d="M153.847 162.328C151.434 162.328 149.215 160.91 148.222 158.636C146.627 154.977 145.071 149.947 144.049 146.373C142.88 142.289 144.437 137.906 147.919 135.472C154.306 131.009 170.33 128.953 171.007 128.868C171.262 128.839 171.485 129.005 171.532 129.246L176.254 153.913C176.287 154.093 176.216 154.272 176.069 154.381C169.621 159.123 160.045 161.335 154.916 162.229C154.557 162.29 154.202 162.323 153.847 162.323V162.328ZM170.685 129.865C168.031 130.234 154.084 132.319 148.458 136.247C145.307 138.45 143.898 142.416 144.957 146.113C146.414 151.2 147.839 155.402 149.088 158.258C150.048 160.465 152.376 161.718 154.751 161.302C159.737 160.432 168.977 158.305 175.265 153.8L170.68 129.865H170.685Z" fill="black"/>
<path d="M339.87 201.234C357.212 201.234 371.27 187.191 371.27 169.868C371.27 152.545 357.212 138.502 339.87 138.502C322.528 138.502 308.47 152.545 308.47 169.868C308.47 187.191 322.528 201.234 339.87 201.234Z" fill="#CCE7FF"/>
<path d="M339.865 201.706C322.289 201.706 307.992 187.425 307.992 169.868C307.992 152.311 322.289 138.029 339.865 138.029C357.441 138.029 371.739 152.311 371.739 169.868C371.739 187.425 357.441 201.706 339.865 201.706ZM339.865 138.975C322.81 138.975 308.938 152.835 308.938 169.868C308.938 186.9 322.814 200.761 339.865 200.761C356.916 200.761 370.793 186.9 370.793 169.868C370.793 152.835 356.916 138.975 339.865 138.975Z" fill="black"/>
<path d="M350.909 160.429H341.455V174.122L346.245 169.419C346.52 169.162 346.886 169.021 347.265 169.026C347.644 169.031 348.007 169.181 348.275 169.444C348.543 169.708 348.696 170.064 348.701 170.436C348.706 170.809 348.562 171.168 348.301 171.438L341.028 178.581C340.755 178.849 340.386 178.999 340 178.999C339.614 178.999 339.245 178.849 338.972 178.581L331.699 171.438C331.438 171.168 331.294 170.809 331.299 170.436C331.304 170.064 331.457 169.708 331.725 169.444C331.993 169.181 332.356 169.031 332.735 169.026C333.114 169.021 333.48 169.162 333.755 169.419L338.545 174.122V160.429H329.091C327.741 160.43 326.447 160.957 325.493 161.895C324.538 162.832 324.001 164.103 324 165.429V184C324.001 185.326 324.538 186.597 325.493 187.534C326.447 188.471 327.741 188.999 329.091 189H350.909C352.259 188.999 353.553 188.471 354.507 187.534C355.462 186.597 355.999 185.326 356 184V165.429C355.999 164.103 355.462 162.832 354.507 161.895C353.553 160.957 352.259 160.43 350.909 160.429ZM341.455 150.429C341.455 150.05 341.301 149.686 341.029 149.418C340.756 149.151 340.386 149 340 149C339.614 149 339.244 149.151 338.971 149.418C338.699 149.686 338.545 150.05 338.545 150.429V160.429H341.455V150.429Z" fill="#013E85"/>
</svg>
