<svg width="560" height="374" viewBox="0 0 560 374" fill="none" xmlns="http://www.w3.org/2000/svg">
<g clip-path="url(#clip0_13_1988)">
<path d="M494.68 261.31H118.59L103.08 263.57V269.36C103.08 276.34 108.74 282 115.72 282H487.51C494.49 282 500.15 276.34 500.15 269.36V264.73L494.69 261.31H494.68Z" fill="#FFCCCC"/>
<path d="M485.73 43.73H488.55C494.95 43.73 500.14 48.92 500.14 55.32V264.72H103.08V55.32C103.08 48.92 108.27 43.73 114.67 43.73H485.73Z" fill="#FFCCCC"/>
<path d="M500.14 265.18H103.08C102.83 265.18 102.63 264.98 102.63 264.73V55.32C102.63 48.68 108.03 43.28 114.67 43.28H488.55C495.19 43.28 500.59 48.68 500.59 55.32V264.72C500.59 264.97 500.39 265.17 500.14 265.17V265.18ZM103.53 264.28H499.69V55.32C499.69 49.18 494.69 44.18 488.55 44.18H114.67C108.53 44.18 103.53 49.18 103.53 55.32V264.27V264.28Z" fill="#FFCCCC"/>
<path d="M487.5 282.45H115.71C108.49 282.45 102.62 276.58 102.62 269.36C102.62 269.11 102.82 268.91 103.07 268.91C103.32 268.91 103.52 269.11 103.52 269.36C103.52 276.08 108.99 281.55 115.71 281.55H487.5C493.26 281.55 498.29 277.46 499.44 271.82C499.49 271.58 499.73 271.42 499.97 271.47C500.21 271.52 500.37 271.76 500.32 272C499.08 278.06 493.69 282.45 487.5 282.45Z" fill="#FFCCCC"/>
<path d="M486.3 251.96H116.91C116.66 251.96 116.46 251.76 116.46 251.51V56.95C116.46 56.7 116.66 56.5 116.91 56.5H486.3C486.55 56.5 486.75 56.7 486.75 56.95V251.51C486.75 251.76 486.55 251.96 486.3 251.96ZM117.36 251.06H485.85V57.4H117.36V251.06Z" fill="#FFCCCC"/>
<path d="M485.99 57.05H116.23V251.42H485.99V57.05Z" fill="#111111"/>
<path d="M374.09 282H229.14V309.8C229.14 330.53 218.39 349.77 200.73 360.63L195.22 364.02V373.56H374.09V282.01V282Z" fill="#FFCCCC"/>
<path d="M374.09 374H195.22C194.97 374 194.77 373.8 194.77 373.55V364.01C194.77 363.85 194.85 363.71 194.98 363.63L200.49 360.24C217.88 349.54 228.68 330.21 228.68 309.79V281.99C228.68 281.74 228.88 281.54 229.13 281.54H374.08C374.33 281.54 374.53 281.74 374.53 281.99V373.54C374.53 373.79 374.33 373.99 374.08 373.99L374.09 374ZM195.66 373.1H373.63V282.45H229.58V309.8C229.58 320.05 226.94 330.19 221.94 339.13C216.94 348.07 209.69 355.64 200.96 361.01L195.66 364.27V373.11V373.1Z" fill="#FFCCCC"/>
<path d="M365.72 364.46H195.22C194.97 364.46 194.77 364.26 194.77 364.01C194.77 363.76 194.97 363.56 195.22 363.56H365.72C365.97 363.56 366.17 363.76 366.17 364.01C366.17 364.26 365.97 364.46 365.72 364.46Z" fill="#FFCCCC"/>
<path d="M291.75 0.669983H86.3203C80.2452 0.669983 75.3203 5.59485 75.3203 11.67V143.98C75.3203 150.055 80.2452 154.98 86.3203 154.98H291.75C297.825 154.98 302.75 150.055 302.75 143.98V11.67C302.75 5.59485 297.825 0.669983 291.75 0.669983Z" fill="white"/>
<path d="M292.1 155.43H85.9701C79.8501 155.43 74.8701 150.45 74.8701 144.33V28.26C74.8701 28.01 75.0701 27.81 75.3201 27.81C75.5701 27.81 75.7701 28.01 75.7701 28.26V144.33C75.7701 149.96 80.3501 154.53 85.9701 154.53H292.1C297.73 154.53 302.3 149.95 302.3 144.33V28.26C302.3 28.01 302.5 27.81 302.75 27.81C303 27.81 303.2 28.01 303.2 28.26V144.33C303.2 150.45 298.22 155.43 292.1 155.43Z" fill="#410002"/>
<path d="M292.1 0H85.9703C80.0903 0 75.3203 4.77 75.3203 10.65V24.76H302.75V10.65C302.75 4.77 297.98 0 292.1 0Z" fill="#FFEDEA"/>
<path d="M89.6638 16.299C91.4613 15.5585 92.3181 13.501 91.5776 11.7035C90.8371 9.90605 88.7797 9.04919 86.9822 9.78969C85.1847 10.5302 84.3278 12.5876 85.0683 14.3851C85.8088 16.1826 87.8663 17.0395 89.6638 16.299Z" fill="#850122"/>
<path d="M103.287 13.8607C103.736 11.9691 102.565 10.0722 100.674 9.62402C98.7821 9.1758 96.8853 10.3459 96.4371 12.2376C95.9888 14.1293 97.159 16.0261 99.0507 16.4743C100.942 16.9226 102.839 15.7524 103.287 13.8607Z" fill="#850122"/>
<path d="M113.882 15.5421C115.256 14.1675 115.256 11.9387 113.882 10.5641C112.507 9.18944 110.278 9.18944 108.904 10.5641C107.529 11.9387 107.529 14.1675 108.904 15.5421C110.278 16.9168 112.507 16.9168 113.882 15.5421Z" fill="#850122"/>
<path d="M175.53 105.16C191.469 105.16 204.39 92.2389 204.39 76.3C204.39 60.3611 191.469 47.44 175.53 47.44C159.591 47.44 146.67 60.3611 146.67 76.3C146.67 92.2389 159.591 105.16 175.53 105.16Z" fill="#850122"/>
<path d="M175.53 105.61C159.37 105.61 146.22 92.46 146.22 76.3C146.22 60.14 159.37 46.99 175.53 46.99C183.65 46.99 191.48 50.4 197.01 56.36C197.18 56.54 197.17 56.83 196.99 57C196.81 57.17 196.52 57.16 196.35 56.98C190.99 51.21 183.4 47.9 175.53 47.9C159.87 47.9 147.12 60.64 147.12 76.31C147.12 91.98 159.86 104.72 175.53 104.72C191.2 104.72 203.94 91.98 203.94 76.31C203.94 71.54 202.74 66.83 200.46 62.67C200.34 62.45 200.42 62.18 200.64 62.06C200.86 61.94 201.13 62.02 201.25 62.24C203.6 66.53 204.84 71.39 204.84 76.31C204.84 92.47 191.69 105.62 175.53 105.62V105.61Z" fill="white"/>
<path d="M176.19 91.81C176.04 91.81 175.91 91.74 175.82 91.62L158 66.67C157.86 66.47 157.9 66.19 158.1 66.04C158.3 65.9 158.58 65.94 158.73 66.14L176.19 90.58L206.88 47.81C207.02 47.61 207.31 47.56 207.51 47.71C207.71 47.86 207.76 48.14 207.61 48.34L176.55 91.62C176.47 91.74 176.33 91.81 176.18 91.81H176.19Z" fill="#E99497"/>
<path d="M176.19 94.81C177.847 94.81 179.19 93.4669 179.19 91.81C179.19 90.1532 177.847 88.81 176.19 88.81V94.81ZM175.82 91.62L173.379 93.3636C173.392 93.3826 173.406 93.4014 173.42 93.42L175.82 91.62ZM158 66.67L155.542 68.3904C155.548 68.3982 155.553 68.4059 155.559 68.4136L158 66.67ZM158.1 66.04L156.379 63.5823C156.353 63.6011 156.326 63.6203 156.3 63.64L158.1 66.04ZM158.73 66.14L161.171 64.3961C161.157 64.3773 161.144 64.3586 161.13 64.34L158.73 66.14ZM176.19 90.58L173.749 92.3239C174.311 93.1113 175.219 93.579 176.187 93.58C177.154 93.581 178.063 93.1152 178.627 92.329L176.19 90.58ZM206.88 47.81L209.317 49.559C209.324 49.5495 209.331 49.54 209.338 49.5304L206.88 47.81ZM207.61 48.34L205.21 46.54C205.197 46.5568 205.185 46.5738 205.173 46.5909L207.61 48.34ZM176.55 91.62L174.113 89.8709C174.092 89.8989 174.073 89.9272 174.054 89.9559L176.55 91.62ZM176.18 88.81C174.523 88.81 173.18 90.1532 173.18 91.81C173.18 93.4669 174.523 94.81 176.18 94.81V88.81ZM176.19 88.81C177.054 88.81 177.787 89.2423 178.22 89.82L173.42 93.42C174.033 94.2377 175.026 94.81 176.19 94.81V88.81ZM178.261 89.8764L160.441 64.9264L155.559 68.4136L173.379 93.3636L178.261 89.8764ZM160.458 64.9496C161.228 66.0499 161.02 67.6001 159.9 68.44L156.3 63.64C154.78 64.7799 154.492 66.8901 155.542 68.3904L160.458 64.9496ZM159.82 68.4977C158.72 69.2679 157.17 69.0599 156.33 67.94L161.13 64.34C159.99 62.8202 157.88 62.5321 156.379 63.5823L159.82 68.4977ZM156.289 67.8839L173.749 92.3239L178.631 88.8361L161.171 64.3961L156.289 67.8839ZM178.627 92.329L209.317 49.559L204.442 46.061L173.752 88.831L178.627 92.329ZM209.338 49.5304C208.516 50.7037 206.881 50.9887 205.71 50.11L209.31 45.31C207.738 44.1314 205.523 44.5164 204.422 46.0896L209.338 49.5304ZM205.71 50.11C204.682 49.3394 204.294 47.7614 205.21 46.54L210.01 50.14C211.226 48.5186 210.737 46.3807 209.31 45.31L205.71 50.11ZM205.173 46.5909L174.113 89.8709L178.987 93.3692L210.047 50.0892L205.173 46.5909ZM174.054 89.9559C174.579 89.1675 175.419 88.81 176.18 88.81V94.81C177.241 94.81 178.36 94.3125 179.046 93.2841L174.054 89.9559ZM176.18 94.81H176.19V88.81H176.18V94.81Z" fill="#E99497"/>
<path d="M410.17 70.68L413.23 70.95L414.49 60.58C414.49 60.58 419.47 48.63 427.18 59.84L426.16 74.06L428.9 74.98C428.9 74.98 426.46 81.22 418.43 79.59C411.61 78.21 409.12 75.31 410.17 70.67V70.68Z" fill="#E99497"/>
<path d="M427.79 75.06C427.79 75.06 427.69 75.06 427.65 75.04L426.02 74.49C425.83 74.42 425.7 74.24 425.71 74.03L426.72 59.97C424.51 56.8 422.35 55.3 420.32 55.51C417.17 55.84 415.16 60.16 414.92 60.7L413.67 71.01C413.64 71.25 413.42 71.43 413.18 71.4L411.38 71.24C411.13 71.22 410.95 71 410.97 70.75C410.99 70.5 411.21 70.32 411.46 70.34L412.83 70.46L414.03 60.52C414.03 60.52 414.05 60.44 414.06 60.4C414.15 60.18 416.35 55.01 420.22 54.61C422.64 54.36 425.1 56.03 427.55 59.58C427.61 59.66 427.64 59.77 427.63 59.87L426.63 73.74L427.93 74.18C428.17 74.26 428.29 74.51 428.21 74.75C428.15 74.94 427.97 75.06 427.78 75.06H427.79Z" fill="#410002"/>
<path d="M437.16 44.61C437.11 42.89 435.73 38.9 434.75 37.49C433.77 36.08 431.85 35.21 430.27 35.88C427.94 32.92 424.17 31.03 420.42 31.33C416.66 31.62 413.1 34.27 412.08 37.9C411.06 41.53 412.92 45.85 416.4 47.29C416 50.59 418.19 53.86 421.17 55.33C423.86 56.65 429.65 57.42 431.73 54.69C434.35 51.27 437.34 50.78 437.16 44.62V44.61Z" fill="#410002"/>
<path d="M414.55 44.49C414.55 44.49 407.22 53.84 410.18 58.51C411.94 61.28 419.15 64.7 426.25 58.91C426.25 58.91 429.54 60.12 431.37 56.94C433.2 53.76 431.89 51.94 428.38 53.48C428.38 53.48 424.51 54.14 427.08 49.74C428.2 47.83 427.03 45.4 423.52 43.08C417.17 38.89 417.27 40.85 414.55 44.48V44.49Z" fill="#E99497"/>
<path d="M418.04 62.52C417.35 62.52 416.72 62.46 416.15 62.37C413.02 61.86 410.7 60.19 409.79 58.75C406.71 53.88 413.84 44.66 414.19 44.21C414.55 43.73 414.87 43.26 415.15 42.86C417.2 39.88 418.19 39.03 423.76 42.71C427.41 45.12 428.76 47.76 427.46 49.97C426.44 51.71 426.59 52.41 426.77 52.67C427.06 53.1 427.91 53.08 428.25 53.04C430.68 51.99 431.75 52.62 432.17 53.09C432.92 53.92 432.76 55.4 431.76 57.16C430.07 60.09 427.22 59.63 426.35 59.41C423.28 61.84 420.35 62.52 418.04 62.52ZM418.48 41.17C417.4 41.17 416.83 42.01 415.89 43.37C415.6 43.79 415.28 44.26 414.91 44.76C414.84 44.85 407.81 53.91 410.56 58.26C411.33 59.48 413.46 61.01 416.3 61.47C418.62 61.85 422.17 61.65 425.96 58.55C426.08 58.45 426.25 58.42 426.4 58.48C426.52 58.52 429.36 59.51 430.97 56.71C431.75 55.35 431.95 54.2 431.5 53.69C431.06 53.2 429.96 53.27 428.56 53.89C428.53 53.9 428.49 53.92 428.45 53.92C428.38 53.93 426.73 54.2 426.03 53.18C425.49 52.39 425.7 51.19 426.69 49.51C427.71 47.77 426.46 45.56 423.27 43.45C420.84 41.85 419.46 41.16 418.48 41.16V41.17Z" fill="#410002"/>
<path d="M426.88 57.09C426.76 57.09 426.64 57.04 426.55 56.95C426.38 56.77 426.39 56.48 426.57 56.31C427.45 55.5 428.75 55.2 429.89 55.56C430.13 55.63 430.26 55.89 430.18 56.12C430.11 56.36 429.85 56.49 429.62 56.41C428.8 56.15 427.82 56.37 427.19 56.96C427.1 57.04 426.99 57.08 426.88 57.08V57.09Z" fill="#410002"/>
<path d="M323.41 26.26C321.61 26.55 321 27.5 321.37 29.52C321.53 30.41 322.56 31.06 322.72 31.95C322.93 33.08 322.04 33.78 321.13 33.69C320.22 33.6 317.4 30.18 317.41 28.78C317.41 27.98 318.59 25.74 319.42 25.14C319.42 25.14 321.64 25.09 322.35 25.54C323.06 25.99 323.22 26.12 323.22 26.12L323.4 26.26H323.41Z" fill="#E99497"/>
<path d="M321.29 34.14C321.22 34.14 321.15 34.14 321.08 34.13C319.95 34.01 316.95 30.37 316.96 28.76C316.96 27.85 317.9 25.67 318.89 24.96C319.09 24.82 319.37 24.86 319.52 25.06C319.67 25.26 319.62 25.54 319.42 25.69C318.71 26.2 317.87 28.1 317.87 28.76C317.87 29.97 320.53 33.13 321.18 33.22C321.52 33.26 321.85 33.14 322.06 32.91C322.27 32.69 322.34 32.38 322.27 32.02C322.21 31.7 321.91 31.34 321.61 30.99C321.22 30.53 320.82 30.05 320.74 29.46C320.55 28.08 321.06 26.7 321.96 26.1C322.53 25.73 323.19 25.72 323.79 26.08C324 26.21 324.07 26.49 323.94 26.7C323.81 26.91 323.53 26.98 323.32 26.85C323.02 26.67 322.73 26.67 322.45 26.85C321.93 27.19 321.47 28.17 321.63 29.33C321.67 29.66 321.99 30.04 322.3 30.4C322.67 30.84 323.05 31.3 323.15 31.85C323.27 32.49 323.11 33.08 322.71 33.52C322.35 33.91 321.83 34.13 321.28 34.13L321.29 34.14Z" fill="#410002"/>
<path d="M322.72 27.99C320.92 28.28 320.31 29.23 320.68 31.25C320.84 32.14 321.87 32.79 322.03 33.68C322.24 34.81 321.35 35.51 320.44 35.42C319.53 35.33 316.71 31.91 316.72 30.51C316.72 29.71 317.9 27.47 318.73 26.87C318.73 26.87 320.95 26.82 321.66 27.27C322.37 27.72 322.53 27.85 322.53 27.85L322.71 27.99H322.72Z" fill="#E99497"/>
<path d="M320.61 35.87C320.54 35.87 320.47 35.87 320.4 35.86C319.27 35.74 316.27 32.1 316.28 30.5C316.28 29.59 317.22 27.41 318.21 26.7C318.41 26.56 318.69 26.6 318.84 26.8C318.99 27 318.94 27.28 318.74 27.43C318.03 27.94 317.19 29.84 317.19 30.5C317.19 31.71 319.85 34.87 320.5 34.96C320.84 34.99 321.17 34.88 321.38 34.65C321.59 34.42 321.66 34.12 321.59 33.76C321.53 33.44 321.23 33.08 320.93 32.73C320.54 32.27 320.14 31.79 320.06 31.2C319.89 29.92 320.47 28.57 321.48 27.9C322.16 27.45 322.92 27.42 323.56 27.8C323.77 27.93 323.84 28.2 323.71 28.42C323.58 28.63 323.31 28.7 323.09 28.57C322.66 28.31 322.25 28.47 321.97 28.65C321.35 29.06 320.8 30.02 320.95 31.07C320.99 31.4 321.31 31.78 321.62 32.14C321.99 32.58 322.37 33.03 322.47 33.59C322.59 34.23 322.43 34.82 322.03 35.26C321.67 35.65 321.15 35.87 320.6 35.87H320.61Z" fill="#410002"/>
<path d="M321.35 27.13C320.93 27.37 319.98 28.54 319.76 28.95C319.44 29.55 319.14 30.24 319.22 31C319.32 31.93 320.21 32.74 320.26 33.67C320.32 34.86 319.31 35.44 318.4 35.22C317.48 35 315.1 31.11 315.3 29.68C315.42 28.86 315.9 27.45 316.83 26.95L321.36 27.13H321.35Z" fill="#E99497"/>
<path d="M318.78 35.71C318.62 35.71 318.45 35.69 318.28 35.65C317.13 35.37 314.42 31.01 314.66 29.36C314.8 28.43 315.52 27.12 316.61 26.55C316.83 26.43 317.1 26.52 317.22 26.74C317.34 26.96 317.25 27.23 317.03 27.35C316.25 27.76 315.65 28.78 315.55 29.49C315.37 30.72 317.82 34.57 318.5 34.77C318.85 34.85 319.2 34.78 319.46 34.57C319.71 34.37 319.83 34.06 319.81 33.68C319.79 33.19 319.41 32.49 319.07 31.87C318.85 31.47 318.64 31.09 318.51 30.73C318.22 29.99 318.39 29.19 319.02 28.35C319.1 28.24 319.18 28.12 319.26 28C319.69 27.35 320.33 26.37 321.48 26.69C321.72 26.76 321.86 27 321.79 27.24C321.72 27.48 321.47 27.62 321.24 27.55C320.8 27.43 320.52 27.73 320.01 28.49C319.92 28.63 319.83 28.76 319.74 28.88C319.31 29.47 319.18 29.96 319.35 30.4C319.47 30.7 319.66 31.06 319.87 31.43C320.27 32.17 320.69 32.93 320.72 33.63C320.75 34.29 320.51 34.87 320.04 35.26C319.69 35.55 319.25 35.7 318.79 35.7L318.78 35.71Z" fill="#410002"/>
<path d="M333.82 51.75L331.12 40.57C331.12 40.57 319.42 40.58 318.99 40.57C317.65 40.52 314.58 35.98 316.25 34.87C317.92 33.76 319.63 36.98 320.43 36.79C320.9 36.68 322.94 36.14 323.63 35.72C324.23 35.35 325.34 34.69 325.24 34C325.19 33.69 324.94 32.2 324.51 30.14C324.15 28.39 322.14 27.01 320.35 27C316.85 26.98 313.58 26.98 310.05 26.98C309.07 26.98 308.39 26.25 308.34 25.83C308.23 24.88 308.36 24.18 309.04 23.65C309.73 23.11 310.87 22.92 312.52 22.91C317.04 22.89 324.66 22.88 330.83 22.88C336.75 22.88 342.08 26.5 344.25 32.01L350.06 46.75L333.82 51.78V51.75Z" fill="#E99497"/>
<path d="M334.49 54.63C334.29 54.63 334.1 54.49 334.05 54.29L330.78 41.05C328.37 41.24 320.43 41.86 320.01 41.84C318.68 41.79 316.09 38.51 315.54 36.54C315.2 35.33 315.61 34.76 316.01 34.49C317.36 33.59 318.67 34.83 319.53 35.65C319.8 35.9 320.2 36.29 320.36 36.34C321 36.18 322.82 35.68 323.4 35.33C324.2 34.84 324.82 34.19 324.78 33.88C324.74 33.57 324.51 32.28 324.08 30.22C323.78 28.77 322.01 27.45 320.36 27.44C319.3 27.44 318.24 27.44 317.19 27.44C314.8 27.44 312.33 27.45 309.85 27.35C308.97 27.31 308.33 26.72 308.09 26.15C307.61 25.02 307.85 23.74 308.65 23.12C309.48 22.47 310.89 22.46 312.52 22.46C316.15 22.45 322.14 22.43 330.83 22.43H330.84C336.99 22.43 342.41 26.12 344.67 31.84L350.48 46.58C350.57 46.81 350.46 47.07 350.23 47.16C350 47.25 349.74 47.14 349.65 46.91L343.84 32.17C341.72 26.8 336.63 23.33 330.85 23.33C322.15 23.33 316.16 23.35 312.54 23.36C311.07 23.36 309.81 23.37 309.22 23.83C308.74 24.2 308.62 25.05 308.93 25.8C309.06 26.11 309.41 26.43 309.9 26.45C312.35 26.55 314.82 26.55 317.2 26.54C318.26 26.54 319.31 26.54 320.38 26.54C322.48 26.55 324.59 28.16 324.98 30.04C325.41 32.12 325.64 33.44 325.69 33.76C325.84 34.82 324.35 35.82 323.89 36.11C323.04 36.63 320.58 37.23 320.56 37.23C320.02 37.36 319.54 36.9 318.93 36.31C317.99 35.42 317.22 34.78 316.53 35.24C316.25 35.42 316.32 35.92 316.43 36.3C316.98 38.27 319.44 40.92 320.07 40.94C320.52 40.94 326.9 40.45 331.1 40.12C331.31 40.1 331.52 40.25 331.57 40.46L334.93 54.08C334.99 54.32 334.84 54.57 334.6 54.62C334.56 54.62 334.53 54.63 334.49 54.63Z" fill="#410002"/>
<path d="M348.89 36.34C357.59 51.4 364.41 63.69 364.41 63.69C364.41 63.69 392.28 67.85 401.04 69.39C409.08 70.8 408.94 96.35 408.94 96.35C408.94 96.35 399.98 96.85 383.74 94.18C373.47 92.49 351.94 88.68 345.89 79.87C339.78 70.97 328.96 46.12 329.18 44.93C338.16 40.85 343.43 37.96 348.89 36.35V36.34Z" fill="white"/>
<path d="M365.88 67.3C365.7 67.3 365.54 67.2 365.47 67.02C365.32 66.65 365.14 66.3 364.96 65.92C364.75 65.49 364.5 64.99 364.25 64.4C364.15 64.17 364.26 63.91 364.49 63.81C364.72 63.71 364.98 63.82 365.08 64.05C365.32 64.62 365.55 65.08 365.76 65.52C365.95 65.91 366.13 66.27 366.3 66.66C366.4 66.89 366.29 67.15 366.06 67.25C366 67.27 365.94 67.29 365.89 67.29L365.88 67.3Z" fill="#410002"/>
<path d="M441.62 147.27L441.45 150.68H374.52C377.16 135.24 383.79 94.48 383.79 94.48C383.79 94.48 378.95 72.33 387.38 70.87C394.41 69.66 398.43 68.43 410.18 70.5C410.3 71.6 410.56 72.68 411.07 73.66C412.06 75.55 413.99 76.8599 415.95 77.5899C417.83 78.2899 419.89 78.59 421.9 78.44C423.7 78.31 425.54 77.7799 427.05 76.7699C427.75 76.3099 428.35 75.7499 428.85 75.0999C440.45 78.3999 447.58 81.31 452.29 90.16C458.35 101.56 461.41 121.35 457.07 132.57C453.8 141.02 447.56 145.73 441.63 147.25L441.62 147.27Z" fill="white"/>
<path d="M383.73 94.63C383.73 94.63 383.69 94.63 383.67 94.63C383.42 94.6 383.25 94.38 383.28 94.13L383.7 90.75C383.73 90.5 383.96 90.33 384.2 90.36C384.45 90.39 384.62 90.61 384.59 90.86L384.17 94.24C384.14 94.47 383.95 94.64 383.72 94.64L383.73 94.63Z" fill="#410002"/>
<path d="M437.03 148.14C422.62 148.14 413.79 135.84 413.69 135.7C413.55 135.5 413.6 135.22 413.8 135.07C414 134.93 414.28 134.98 414.43 135.18C414.53 135.33 424.96 149.84 441.54 146.83C441.78 146.79 442.02 146.95 442.06 147.19C442.1 147.43 441.94 147.67 441.7 147.71C440.08 148 438.53 148.14 437.03 148.14Z" fill="#410002"/>
<path d="M441.06 128.95C440.95 128.95 440.85 128.91 440.76 128.84L427.76 117.4C427.57 117.24 427.56 116.95 427.72 116.76C427.89 116.57 428.17 116.56 428.36 116.72L441.36 128.16C441.55 128.32 441.56 128.61 441.4 128.8C441.31 128.9 441.19 128.95 441.06 128.95Z" fill="#410002"/>
<path d="M437.11 125.32C436.86 125.32 436.66 125.12 436.66 124.87L436.56 103.7C436.56 103.45 436.76 103.25 437.01 103.25C437.26 103.25 437.46 103.45 437.46 103.7L437.56 124.87C437.56 125.12 437.36 125.32 437.11 125.32Z" fill="#410002"/>
<path d="M387.77 79.54L415.24 85.04C415.63 85.12 415.93 85.45 415.96 85.84L419.35 123.09C419.4 123.69 418.86 124.18 418.27 124.06L390.8 118.56C390.41 118.48 390.11 118.15 390.08 117.76L386.69 80.51C386.64 79.91 387.18 79.42 387.77 79.54Z" fill="#410002"/>
<path d="M396.39 109.75C395.44 108.38 394.96 107 395.96 105.94C396.96 104.88 398.91 104.98 399.79 106.13C399.12 105.34 398.43 104.53 398.13 103.54C397.82 102.55 398 101.34 398.82 100.71C399.54 100.16 400.58 100.19 401.41 100.56C401.82 100.74 402.19 100.99 402.54 101.27C402.28 100.63 402.33 99.81 402.78 99.25C403.54 98.3 404.96 98.12 406.12 98.49C407.28 98.86 408.23 99.67 409.15 100.46C415.3 105.75 427.41 116.42 427.41 116.42C427.38 118.46 416.98 132.89 413.72 135C412.06 134.12 400.94 120.86 396.79 115.55C396.09 114.66 395.38 113.72 395.16 112.61C394.94 111.5 395.37 110.18 396.41 109.74L396.39 109.75Z" fill="#E99497"/>
<path d="M409.62 108.62C409.51 108.62 409.4 108.58 409.31 108.5C407.08 106.43 404.87 104.28 402.72 102.13C402.54 101.95 402.55 101.67 402.72 101.49C402.9 101.31 403.18 101.32 403.36 101.49C405.5 103.64 407.7 105.77 409.92 107.84C410.1 108.01 410.11 108.29 409.94 108.48C409.85 108.57 409.73 108.62 409.61 108.62H409.62Z" fill="#410002"/>
<path d="M405.45 112.73C405.33 112.73 405.21 112.68 405.12 112.59L399.52 106.6C399.35 106.42 399.36 106.13 399.54 105.96C399.72 105.79 400.01 105.8 400.18 105.98L405.78 111.97C405.95 112.15 405.94 112.44 405.76 112.61C405.67 112.69 405.56 112.73 405.45 112.73Z" fill="#410002"/>
<path d="M401.61 116.02C401.49 116.02 401.38 115.98 401.29 115.89C399.56 114.13 397.89 112.28 396.33 110.37C396.17 110.18 396.2 109.89 396.39 109.74C396.58 109.58 396.87 109.61 397.02 109.8C398.56 111.69 400.21 113.52 401.92 115.26C402.09 115.44 402.09 115.72 401.92 115.9C401.83 115.99 401.72 116.03 401.6 116.03L401.61 116.02Z" fill="#410002"/>
<path d="M323.595 150.675C323.593 150.677 323.595 150.68 323.597 150.68H547.55C554.178 150.68 559.55 156.053 559.55 162.68V299.28C559.55 306.37 553.79 312.13 546.7 312.13H323.22C316.13 312.13 310.37 306.37 310.37 299.28V163.9C310.37 156.602 316.296 150.674 323.593 150.67C323.596 150.67 323.597 150.673 323.595 150.675Z" fill="#FFEDEA"/>
<path d="M547.88 312.58H322.04C315.36 312.58 309.92 307.14 309.92 300.46V162.35C309.92 155.67 315.36 150.23 322.04 150.23H547.88C554.56 150.23 560 155.67 560 162.35V300.46C560 307.14 554.56 312.58 547.88 312.58ZM322.04 151.13C315.85 151.13 310.82 156.16 310.82 162.35V300.46C310.82 306.65 315.85 311.68 322.04 311.68H547.88C554.07 311.68 559.1 306.65 559.1 300.46V162.35C559.1 156.16 554.07 151.13 547.88 151.13H322.04Z" fill="#410002"/>
<path d="M433.53 270.16C449.469 270.16 462.39 257.239 462.39 241.3C462.39 225.361 449.469 212.44 433.53 212.44C417.591 212.44 404.67 225.361 404.67 241.3C404.67 257.239 417.591 270.16 433.53 270.16Z" fill="#850122"/>
<path d="M433.53 270.61C417.37 270.61 404.22 257.46 404.22 241.3C404.22 225.14 417.37 211.99 433.53 211.99C441.65 211.99 449.48 215.4 455.01 221.36C455.18 221.54 455.17 221.83 454.99 222C454.81 222.17 454.52 222.16 454.35 221.98C448.99 216.21 441.4 212.9 433.53 212.9C417.87 212.9 405.12 225.64 405.12 241.31C405.12 256.98 417.86 269.72 433.53 269.72C449.2 269.72 461.94 256.98 461.94 241.31C461.94 236.54 460.74 231.83 458.46 227.67C458.34 227.45 458.42 227.18 458.64 227.06C458.86 226.94 459.13 227.02 459.25 227.24C461.6 231.53 462.84 236.39 462.84 241.31C462.84 257.47 449.69 270.62 433.53 270.62V270.61Z" fill="white"/>
<path d="M434.19 256.81C434.04 256.81 433.91 256.74 433.82 256.62L416 231.67C415.86 231.47 415.9 231.19 416.1 231.04C416.3 230.9 416.58 230.94 416.73 231.14L434.19 255.58L464.88 212.81C465.02 212.61 465.31 212.56 465.51 212.71C465.71 212.86 465.76 213.14 465.61 213.34L434.55 256.62C434.47 256.74 434.33 256.81 434.18 256.81H434.19Z" fill="#E99497"/>
<path d="M434.19 259.81C435.847 259.81 437.19 258.467 437.19 256.81C437.19 255.153 435.847 253.81 434.19 253.81V259.81ZM433.82 256.62L431.379 258.364C431.392 258.383 431.406 258.401 431.42 258.42L433.82 256.62ZM416 231.67L413.542 233.39C413.548 233.398 413.553 233.406 413.559 233.414L416 231.67ZM416.1 231.04L414.379 228.582C414.353 228.601 414.326 228.62 414.3 228.64L416.1 231.04ZM416.73 231.14L419.171 229.396C419.157 229.377 419.144 229.359 419.13 229.34L416.73 231.14ZM434.19 255.58L431.749 257.324C432.311 258.111 433.219 258.579 434.187 258.58C435.154 258.581 436.063 258.115 436.627 257.329L434.19 255.58ZM464.88 212.81L467.317 214.559C467.324 214.55 467.331 214.54 467.338 214.53L464.88 212.81ZM465.61 213.34L463.21 211.54C463.197 211.557 463.185 211.574 463.173 211.591L465.61 213.34ZM434.55 256.62L432.113 254.871C432.092 254.899 432.073 254.927 432.054 254.956L434.55 256.62ZM434.18 253.81C432.523 253.81 431.18 255.153 431.18 256.81C431.18 258.467 432.523 259.81 434.18 259.81V253.81ZM434.19 253.81C435.054 253.81 435.787 254.242 436.22 254.82L431.42 258.42C432.033 259.238 433.026 259.81 434.19 259.81V253.81ZM436.261 254.876L418.441 229.926L413.559 233.414L431.379 258.364L436.261 254.876ZM418.458 229.95C419.228 231.05 419.02 232.6 417.9 233.44L414.3 228.64C412.78 229.78 412.492 231.89 413.542 233.39L418.458 229.95ZM417.82 233.498C416.72 234.268 415.17 234.06 414.33 232.94L419.13 229.34C417.99 227.82 415.88 227.532 414.379 228.582L417.82 233.498ZM414.289 232.884L431.749 257.324L436.631 253.836L419.171 229.396L414.289 232.884ZM436.627 257.329L467.317 214.559L462.442 211.061L431.752 253.831L436.627 257.329ZM467.338 214.53C466.516 215.704 464.881 215.989 463.71 215.11L467.31 210.31C465.738 209.131 463.523 209.516 462.422 211.09L467.338 214.53ZM463.71 215.11C462.682 214.339 462.294 212.761 463.21 211.54L468.01 215.14C469.226 213.519 468.737 211.381 467.31 210.31L463.71 215.11ZM463.173 211.591L432.113 254.871L436.987 258.369L468.047 215.089L463.173 211.591ZM432.054 254.956C432.579 254.168 433.419 253.81 434.18 253.81V259.81C435.241 259.81 436.36 259.313 437.046 258.284L432.054 254.956ZM434.18 259.81H434.19V253.81H434.18V259.81Z" fill="#E99497"/>
<path d="M559.55 177.29H310.37C310.12 177.29 309.92 177.09 309.92 176.84C309.92 176.59 310.12 176.39 310.37 176.39H559.55C559.8 176.39 560 176.59 560 176.84C560 177.09 559.8 177.29 559.55 177.29Z" fill="#410002"/>
<path d="M331.935 165.186C332.292 162.984 330.797 160.908 328.594 160.551C326.392 160.193 324.317 161.689 323.959 163.891C323.602 166.094 325.097 168.169 327.3 168.526C329.502 168.884 331.577 167.388 331.935 165.186Z" fill="white"/>
<path d="M58.6197 99.31C59.1297 100.55 60.0497 101.65 61.2997 102.18C62.6097 102.74 64.4697 102.64 65.1597 101.18C65.2797 100.92 65.3597 100.65 65.4097 100.37C65.4897 100.29 65.5397 100.18 65.5497 100.04C65.6397 98.52 64.9097 97.01 63.7297 96.07C62.5597 95.13 60.8297 94.66 59.4397 95.43C58.0197 96.21 58.0797 97.98 58.6197 99.3V99.31Z" fill="#410002"/>
<path d="M75.7098 137.66L81.6498 116.52L80.5998 108.35C80.5998 108.35 88.1698 102.9 82.8298 98.65C77.4998 94.4 74.7198 99.86 70.8198 100.33C66.9198 100.8 63.5798 101.67 60.8398 109.65C58.0998 117.64 50.5898 135.24 50.5898 135.24L75.6898 137.66H75.7098Z" fill="#410002"/>
<path d="M110.15 177.8H79.9897L82.1397 160.28L98.6598 157.07L110.15 177.8Z" fill="#850122"/>
<path d="M110.15 178.25H79.98C79.85 178.25 79.73 178.19 79.64 178.1C79.55 178 79.5099 177.87 79.5299 177.75L81.68 160.23C81.7 160.04 81.85 159.88 82.04 159.84L98.5599 156.63C98.7499 156.59 98.95 156.68 99.04 156.85L110.53 177.58C110.61 177.72 110.6 177.89 110.53 178.03C110.45 178.17 110.3 178.25 110.14 178.25H110.15ZM80.5 177.35H109.39L98.43 157.57L82.55 160.66L80.5 177.35Z" fill="#410002"/>
<path d="M83.4499 162.69L103.68 162.26C103.68 162.26 96.8399 148.23 92.5399 139.94C90.4899 135.99 86.8699 133.08 82.5699 131.95C75.4499 130.08 63.5499 127.98 51.3699 130.31C48.7199 130.82 46.3699 132.32 44.8199 134.52C40.6899 140.37 32.3799 152.91 30.6099 161.3H52.7999L48.7799 175.35L81.3799 175.16L83.4599 162.68L83.4499 162.69Z" fill="white"/>
<path d="M56.0601 160.3C56.0601 160.3 55.9901 160.3 55.9501 160.29C55.7101 160.23 55.5601 159.98 55.6301 159.74L59.4001 144.98C59.4601 144.74 59.7001 144.59 59.9501 144.66C60.1901 144.72 60.3401 144.97 60.2701 145.21L56.5001 159.97C56.4501 160.17 56.2701 160.31 56.0601 160.31V160.3Z" fill="#410002"/>
<path d="M83.4599 163.14C83.4599 163.14 83.4099 163.14 83.3899 163.14C83.1399 163.1 82.9799 162.87 83.0199 162.62C83.5199 159.59 83.8499 156.64 82.3099 153.86C80.6799 150.92 80.1199 146.08 80.0999 145.88C80.0699 145.63 80.2499 145.41 80.4999 145.38C80.7499 145.36 80.9699 145.53 80.9999 145.78C80.9999 145.83 81.5599 150.64 83.0999 153.43C84.7799 156.46 84.42 159.7 83.91 162.77C83.87 162.99 83.6799 163.15 83.4699 163.15L83.4599 163.14Z" fill="#410002"/>
<path d="M97.7098 180.61H44.7098C37.9098 180.61 32.8698 174.29 34.3898 167.66L35.9098 161C35.9098 161 47.6398 158.22 55.2998 161.31L53.6998 167.73H78.5498C83.2698 167.73 87.8998 169.22 91.6298 172.12C94.1598 174.09 96.5398 176.84 97.7098 180.61Z" fill="#850122"/>
<path d="M97.7097 181.06H44.7097C41.3297 181.06 38.1797 179.54 36.0797 176.9C33.9697 174.26 33.1997 170.85 33.9497 167.56L35.4697 160.9C35.5297 160.66 35.7697 160.51 36.0097 160.56C36.2497 160.62 36.3997 160.86 36.3497 161.1L34.8297 167.76C34.1397 170.79 34.8497 173.91 36.7797 176.34C38.7097 178.77 41.5997 180.16 44.7097 180.16H97.0897C96.0497 177.21 94.1197 174.63 91.3597 172.48C89.5697 171.08 87.5397 170 85.3297 169.27C85.0897 169.19 84.9697 168.94 85.0397 168.7C85.1097 168.46 85.3697 168.34 85.6097 168.41C87.9197 169.18 90.0397 170.31 91.9097 171.77C94.9997 174.18 97.0997 177.11 98.1397 180.48C98.1797 180.62 98.1597 180.77 98.0697 180.88C97.9897 180.99 97.8497 181.06 97.7097 181.06Z" fill="#410002"/>
<path d="M91.0199 178.91C90.8399 178.91 90.6699 178.8 90.5999 178.63C89.5399 176.03 87.1999 173.94 84.4999 173.18C84.2599 173.11 84.1199 172.86 84.1899 172.62C84.2599 172.38 84.5099 172.24 84.7499 172.31C87.7099 173.15 90.2799 175.44 91.4399 178.29C91.5299 178.52 91.4199 178.78 91.1899 178.88C91.1299 178.9 91.0799 178.91 91.0199 178.91Z" fill="#410002"/>
<path d="M85.4001 179.03C85.2301 179.03 85.0601 178.93 84.9901 178.76C84.0201 176.59 82.1001 174.84 79.8501 174.09C79.6101 174.01 79.4901 173.76 79.5701 173.52C79.6501 173.28 79.9101 173.16 80.1401 173.24C82.6301 174.07 84.7501 176 85.8201 178.4C85.9201 178.63 85.8201 178.89 85.5901 178.99C85.5301 179.02 85.4701 179.03 85.4101 179.03H85.4001Z" fill="#410002"/>
<path d="M75.0401 130.35C75.0401 130.35 80.8701 135.19 75.7001 137.67C70.5301 140.15 63.1001 129.3 63.1001 129.3C64.6601 128.82 65.8801 127.58 66.3201 126.01L69.2601 115.62L77.4301 119.72L75.0301 130.36L75.0401 130.35Z" fill="#850122"/>
<path d="M69.7703 113.09C69.7703 113.09 67.7903 109.74 65.6203 110.42C62.3103 111.45 62.5303 117.36 67.9803 117.07C67.9803 117.07 74.4203 125.3 80.6103 123.02C86.8003 120.74 82.2603 106.81 81.0603 104.43C81.0603 104.43 72.8503 103.34 72.2303 108.29C71.8703 111.17 72.5703 113.1 69.7703 113.1V113.09Z" fill="#850122"/>
<path d="M78.3201 123.87C73.2401 123.87 68.6501 118.61 67.7601 117.52C64.7401 117.58 63.3301 115.8 63.0501 114.22C62.7101 112.34 63.7601 110.51 65.4801 109.98C67.6201 109.32 69.4801 111.83 70.0101 112.63C71.5201 112.56 71.5501 111.82 71.6401 110C71.6701 109.47 71.6901 108.87 71.7701 108.22C71.9201 107.04 72.4601 106.08 73.3901 105.36C76.0301 103.32 80.8901 103.94 81.1001 103.97C81.2501 103.99 81.3801 104.08 81.4401 104.21C82.4201 106.15 85.5401 115.52 83.5701 120.52C83.0001 121.97 82.0501 122.95 80.7401 123.43C79.9201 123.73 79.1101 123.86 78.3001 123.86L78.3201 123.87ZM67.9801 116.62C68.1201 116.62 68.2501 116.68 68.3301 116.79C68.3901 116.87 74.6501 124.73 80.4501 122.59C81.5201 122.19 82.2701 121.41 82.7501 120.19C84.4601 115.86 81.9201 107.37 80.7601 104.84C79.7801 104.75 75.9901 104.5 73.9601 106.08C73.2201 106.65 72.8001 107.39 72.6801 108.33C72.6001 108.94 72.5801 109.53 72.5501 110.04C72.4601 111.91 72.3801 113.53 69.7801 113.53C69.6201 113.53 69.4701 113.45 69.3901 113.31C68.8901 112.47 67.2601 110.37 65.7601 110.84C64.2901 111.3 63.7301 112.84 63.9501 114.06C64.1901 115.38 65.3701 116.75 67.9601 116.61H67.9801V116.62Z" fill="#410002"/>
<path d="M68.6202 115.46C68.5102 115.46 68.4002 115.42 68.3102 115.34C67.6102 114.68 66.5902 114.38 65.6402 114.57C65.4002 114.62 65.1602 114.46 65.1102 114.22C65.0602 113.98 65.2202 113.74 65.4602 113.69C66.6902 113.45 68.0202 113.83 68.9302 114.69C69.1102 114.86 69.1202 115.15 68.9502 115.33C68.8602 115.42 68.7402 115.47 68.6202 115.47V115.46Z" fill="#410002"/>
<path d="M134.01 180.89H74.4798C73.6598 180.89 72.9897 180.22 72.9897 179.4V179.05C72.9897 177.43 74.2997 176.12 75.9197 176.12H138.3L137.8 177.98C137.34 179.69 135.79 180.88 134.01 180.88V180.89Z" fill="#410002"/>
<path d="M135.75 178.73H98.9397C97.3697 178.73 96.2097 177.25 96.5897 175.73L103.55 147.66C103.82 146.58 104.79 145.82 105.9 145.82H142.71C144.28 145.82 145.44 147.3 145.06 148.82L138.1 176.89C137.83 177.97 136.86 178.73 135.75 178.73Z" fill="#410002"/>
<path d="M135.75 178.96H98.9399C98.1199 178.96 97.3599 178.59 96.8599 177.94C96.3599 177.29 96.1799 176.47 96.3799 175.67L103.34 147.6C103.63 146.42 104.69 145.59 105.91 145.59H142.72C143.54 145.59 144.3 145.96 144.8 146.6C145.3 147.25 145.48 148.07 145.28 148.87L138.32 176.94C138.03 178.12 136.97 178.95 135.75 178.95V178.96ZM105.89 146.05C104.88 146.05 104 146.74 103.76 147.72L96.7999 175.79C96.6399 176.45 96.7799 177.13 97.1999 177.67C97.6199 178.21 98.2499 178.51 98.9299 178.51H135.74C136.75 178.51 137.63 177.82 137.87 176.84L144.83 148.77C144.99 148.11 144.85 147.42 144.43 146.89C144.01 146.36 143.38 146.05 142.7 146.05H105.89Z" fill="#410002"/>
<path d="M124.47 156.66C124.47 157.33 123.93 157.88 123.25 157.88C122.57 157.88 122.03 157.34 122.03 156.66C122.03 155.98 122.57 155.44 123.25 155.44C123.93 155.44 124.47 155.98 124.47 156.66Z" fill="white"/>
<path d="M157.73 180.89H8.8502C4.211 180.89 0.450195 184.651 0.450195 189.29V284.9C0.450195 289.539 4.211 293.3 8.8502 293.3H157.73C162.369 293.3 166.13 289.539 166.13 284.9V189.29C166.13 184.651 162.369 180.89 157.73 180.89Z" fill="#FFEDEA"/>
<path d="M158.37 293.75H8.21C3.68 293.75 0 290.07 0 285.54V198.66C0 198.41 0.2 198.21 0.45 198.21C0.7 198.21 0.9 198.41 0.9 198.66V285.54C0.9 289.57 4.18 292.85 8.21 292.85H158.37C162.4 292.85 165.68 289.57 165.68 285.54V198.66C165.68 198.41 165.88 198.21 166.13 198.21C166.38 198.21 166.58 198.41 166.58 198.66V285.54C166.58 290.07 162.9 293.75 158.37 293.75Z" fill="#410002"/>
<path d="M73.5299 266.16C89.4688 266.16 102.39 253.239 102.39 237.3C102.39 221.361 89.4688 208.44 73.5299 208.44C57.591 208.44 44.6699 221.361 44.6699 237.3C44.6699 253.239 57.591 266.16 73.5299 266.16Z" fill="#850122"/>
<path d="M73.5297 266.61C57.3697 266.61 44.2197 253.46 44.2197 237.3C44.2197 221.14 57.3697 207.99 73.5297 207.99C81.6497 207.99 89.4797 211.4 95.0097 217.36C95.1797 217.54 95.1697 217.83 94.9897 218C94.8097 218.17 94.5197 218.16 94.3497 217.98C88.9897 212.21 81.3997 208.9 73.5297 208.9C57.8697 208.9 45.1197 221.64 45.1197 237.31C45.1197 252.98 57.8597 265.72 73.5297 265.72C89.1997 265.72 101.94 252.98 101.94 237.31C101.94 232.54 100.74 227.83 98.4597 223.67C98.3397 223.45 98.4197 223.18 98.6397 223.06C98.8597 222.94 99.1297 223.02 99.2497 223.24C101.6 227.53 102.84 232.39 102.84 237.31C102.84 253.47 89.6897 266.62 73.5297 266.62V266.61Z" fill="white"/>
<path d="M74.1899 252.81C74.0399 252.81 73.9099 252.74 73.8199 252.62L55.9999 227.67C55.8599 227.47 55.8999 227.19 56.0999 227.04C56.2999 226.9 56.5799 226.94 56.7299 227.14L74.1899 251.58L104.88 208.81C105.02 208.61 105.31 208.56 105.51 208.71C105.71 208.86 105.76 209.14 105.61 209.34L74.5499 252.62C74.4699 252.74 74.3299 252.81 74.1799 252.81H74.1899Z" fill="#E99497"/>
<path d="M74.1899 255.81C75.8467 255.81 77.1899 254.467 77.1899 252.81C77.1899 251.153 75.8467 249.81 74.1899 249.81V255.81ZM73.8199 252.62L71.3786 254.364C71.3921 254.383 71.4059 254.401 71.4199 254.42L73.8199 252.62ZM55.9999 227.67L53.5422 229.39C53.5476 229.398 53.5531 229.406 53.5586 229.414L55.9999 227.67ZM56.0999 227.04L54.3795 224.582C54.3526 224.601 54.3261 224.62 54.2999 224.64L56.0999 227.04ZM56.7299 227.14L59.1709 225.396C59.1575 225.377 59.1438 225.359 59.1299 225.34L56.7299 227.14ZM74.1899 251.58L71.7488 253.324C72.3113 254.111 73.2191 254.579 74.1867 254.58C75.1544 254.581 76.0631 254.115 76.6273 253.329L74.1899 251.58ZM104.88 208.81L107.317 210.559C107.324 210.55 107.331 210.54 107.338 210.53L104.88 208.81ZM105.61 209.34L103.21 207.54C103.197 207.557 103.185 207.574 103.173 207.591L105.61 209.34ZM74.5499 252.62L72.1125 250.871C72.0924 250.899 72.0728 250.927 72.0537 250.956L74.5499 252.62ZM74.1799 249.81C72.523 249.81 71.1799 251.153 71.1799 252.81C71.1799 254.467 72.523 255.81 74.1799 255.81V249.81ZM74.1899 249.81C75.0541 249.81 75.7866 250.242 76.2199 250.82L71.4199 254.42C72.0331 255.238 73.0257 255.81 74.1899 255.81V249.81ZM76.2611 250.876L58.4411 225.926L53.5586 229.414L71.3786 254.364L76.2611 250.876ZM58.4576 225.95C59.2278 227.05 59.0197 228.6 57.8999 229.44L54.2999 224.64C52.78 225.78 52.492 227.89 53.5422 229.39L58.4576 225.95ZM57.8203 229.498C56.72 230.268 55.1698 230.06 54.3299 228.94L59.1299 225.34C57.99 223.82 55.8798 223.532 54.3795 224.582L57.8203 229.498ZM54.2888 228.884L71.7488 253.324L76.6309 249.836L59.1709 225.396L54.2888 228.884ZM76.6273 253.329L107.317 210.559L102.442 207.061L71.7525 249.831L76.6273 253.329ZM107.338 210.53C106.516 211.704 104.881 211.989 103.71 211.11L107.31 206.31C105.738 205.131 103.523 205.516 102.422 207.09L107.338 210.53ZM103.71 211.11C102.682 210.339 102.294 208.761 103.21 207.54L108.01 211.14C109.226 209.519 108.737 207.381 107.31 206.31L103.71 211.11ZM103.173 207.591L72.1125 250.871L76.9872 254.369L108.047 211.089L103.173 207.591ZM72.0537 250.956C72.5793 250.168 73.4189 249.81 74.1799 249.81V255.81C75.2409 255.81 76.3604 255.313 77.046 254.284L72.0537 250.956ZM74.1799 255.81H74.1899V249.81H74.1799V255.81Z" fill="#E99497"/>
<path d="M158.37 180.89H8.2102C3.9202 180.89 0.450195 184.36 0.450195 188.65V195.62H166.13V188.65C166.13 184.36 162.66 180.89 158.37 180.89Z" fill="white"/>
<path d="M17.3301 191.3H10.3001C8.8101 191.3 7.6001 190.08 7.6001 188.6C7.6001 187.12 8.8201 185.9 10.3001 185.9H17.3301C18.8201 185.9 20.0301 187.12 20.0301 188.6C20.0301 190.08 18.8101 191.3 17.3301 191.3Z" fill="#850122"/>
<path d="M33.2901 191.3H26.2601C24.7701 191.3 23.5601 190.08 23.5601 188.6C23.5601 187.12 24.7801 185.9 26.2601 185.9H33.2901C34.7801 185.9 35.9901 187.12 35.9901 188.6C35.9901 190.08 34.7701 191.3 33.2901 191.3Z" fill="#850122"/>
<path d="M13.3699 174.79C13.1199 174.79 12.9199 174.59 12.9199 174.34V169.84C12.9199 169.59 13.1199 169.39 13.3699 169.39C13.6199 169.39 13.8199 169.59 13.8199 169.84V174.34C13.8199 174.59 13.6199 174.79 13.3699 174.79ZM13.3699 165.79C13.1199 165.79 12.9199 165.59 12.9199 165.34V160.84C12.9199 160.59 13.1199 160.39 13.3699 160.39C13.6199 160.39 13.8199 160.59 13.8199 160.84V165.34C13.8199 165.59 13.6199 165.79 13.3699 165.79ZM13.3699 156.78C13.1199 156.78 12.9199 156.58 12.9199 156.33V151.83C12.9199 151.58 13.1199 151.38 13.3699 151.38C13.6199 151.38 13.8199 151.58 13.8199 151.83V156.33C13.8199 156.58 13.6199 156.78 13.3699 156.78ZM13.3699 147.78C13.1199 147.78 12.9199 147.58 12.9199 147.33V142.83C12.9199 142.58 13.1199 142.38 13.3699 142.38C13.6199 142.38 13.8199 142.58 13.8199 142.83V147.33C13.8199 147.58 13.6199 147.78 13.3699 147.78ZM13.3699 138.78C13.1199 138.78 12.9199 138.58 12.9199 138.33V133.83C12.9199 133.58 13.1199 133.38 13.3699 133.38C13.6199 133.38 13.8199 133.58 13.8199 133.83V138.33C13.8199 138.58 13.6199 138.78 13.3699 138.78ZM13.3699 129.78C13.1199 129.78 12.9199 129.58 12.9199 129.33V124.83C12.9199 124.58 13.1199 124.38 13.3699 124.38C13.6199 124.38 13.8199 124.58 13.8199 124.83V129.33C13.8199 129.58 13.6199 129.78 13.3699 129.78ZM13.3699 120.78C13.1199 120.78 12.9199 120.58 12.9199 120.33V115.83C12.9199 115.58 13.1199 115.38 13.3699 115.38C13.6199 115.38 13.8199 115.58 13.8199 115.83V120.33C13.8199 120.58 13.6199 120.78 13.3699 120.78ZM13.3699 111.78C13.1199 111.78 12.9199 111.58 12.9199 111.33V106.83C12.9199 106.58 13.1199 106.38 13.3699 106.38C13.6199 106.38 13.8199 106.58 13.8199 106.83V111.33C13.8199 111.58 13.6199 111.78 13.3699 111.78ZM13.3699 102.78C13.1199 102.78 12.9199 102.58 12.9199 102.33V97.83C12.9199 97.58 13.1199 97.38 13.3699 97.38C13.6199 97.38 13.8199 97.58 13.8199 97.83V102.33C13.8199 102.58 13.6199 102.78 13.3699 102.78ZM13.3699 93.77C13.1199 93.77 12.9199 93.57 12.9199 93.32V88.82C12.9199 88.57 13.1199 88.37 13.3699 88.37C13.6199 88.37 13.8199 88.57 13.8199 88.82V93.32C13.8199 93.57 13.6199 93.77 13.3699 93.77ZM13.3699 84.77C13.1199 84.77 12.9199 84.57 12.9199 84.32V79.82C12.9199 79.57 13.1199 79.37 13.3699 79.37C13.6199 79.37 13.8199 79.57 13.8199 79.82V84.32C13.8199 84.57 13.6199 84.77 13.3699 84.77ZM13.3699 75.77C13.1199 75.77 12.9199 75.57 12.9199 75.32V70.82C12.9199 70.57 13.1199 70.37 13.3699 70.37C13.6199 70.37 13.8199 70.57 13.8199 70.82V75.32C13.8199 75.57 13.6199 75.77 13.3699 75.77ZM13.3699 66.77C13.1199 66.77 12.9199 66.57 12.9199 66.32V61.82C12.9199 61.57 13.1199 61.37 13.3699 61.37C13.6199 61.37 13.8199 61.57 13.8199 61.82V66.32C13.8199 66.57 13.6199 66.77 13.3699 66.77ZM13.3699 57.77C13.1199 57.77 12.9199 57.57 12.9199 57.32V52.82C12.9199 52.57 13.1199 52.37 13.3699 52.37C13.6199 52.37 13.8199 52.57 13.8199 52.82V57.32C13.8199 57.57 13.6199 57.77 13.3699 57.77ZM65.7199 51.6H61.2199C60.9699 51.6 60.7699 51.4 60.7699 51.15C60.7699 50.9 60.9699 50.7 61.2199 50.7H65.7199C65.9699 50.7 66.1699 50.9 66.1699 51.15C66.1699 51.4 65.9699 51.6 65.7199 51.6ZM56.7099 51.6H52.2099C51.9599 51.6 51.7599 51.4 51.7599 51.15C51.7599 50.9 51.9599 50.7 52.2099 50.7H56.7099C56.9599 50.7 57.1599 50.9 57.1599 51.15C57.1599 51.4 56.9599 51.6 56.7099 51.6ZM47.7099 51.6H43.2099C42.9599 51.6 42.7599 51.4 42.7599 51.15C42.7599 50.9 42.9599 50.7 43.2099 50.7H47.7099C47.9599 50.7 48.1599 50.9 48.1599 51.15C48.1599 51.4 47.9599 51.6 47.7099 51.6ZM38.7099 51.6H34.2099C33.9599 51.6 33.7599 51.4 33.7599 51.15C33.7599 50.9 33.9599 50.7 34.2099 50.7H38.7099C38.9599 50.7 39.1599 50.9 39.1599 51.15C39.1599 51.4 38.9599 51.6 38.7099 51.6ZM29.7099 51.6H25.2099C24.9599 51.6 24.7599 51.4 24.7599 51.15C24.7599 50.9 24.9599 50.7 25.2099 50.7H29.7099C29.9599 50.7 30.1599 50.9 30.1599 51.15C30.1599 51.4 29.9599 51.6 29.7099 51.6ZM20.7099 51.6H16.2099C15.9599 51.6 15.7599 51.4 15.7599 51.15C15.7599 50.9 15.9599 50.7 16.2099 50.7H20.7099C20.9599 50.7 21.1599 50.9 21.1599 51.15C21.1599 51.4 20.9599 51.6 20.7099 51.6Z" fill="#E99497"/>
<path d="M15.53 174.9C15.53 176.09 14.56 177.06 13.37 177.06C12.18 177.06 11.21 176.09 11.21 174.9C11.21 173.71 12.18 172.74 13.37 172.74C14.56 172.74 15.53 173.71 15.53 174.9Z" fill="#E99497"/>
<path d="M66.3299 53.31C67.5229 53.31 68.4899 52.3429 68.4899 51.15C68.4899 49.9571 67.5229 48.99 66.3299 48.99C65.137 48.99 64.1699 49.9571 64.1699 51.15C64.1699 52.3429 65.137 53.31 66.3299 53.31Z" fill="#E99497"/>
<path d="M524.29 142.01C524.04 142.01 523.84 141.81 523.84 141.56V139.12C523.84 138.87 524.04 138.67 524.29 138.67C524.54 138.67 524.74 138.87 524.74 139.12V141.56C524.74 141.81 524.54 142.01 524.29 142.01ZM524.29 135.07C524.04 135.07 523.84 134.87 523.84 134.62V130.12C523.84 129.87 524.04 129.67 524.29 129.67C524.54 129.67 524.74 129.87 524.74 130.12V134.62C524.74 134.87 524.54 135.07 524.29 135.07ZM524.29 126.07C524.04 126.07 523.84 125.87 523.84 125.62V121.12C523.84 120.87 524.04 120.67 524.29 120.67C524.54 120.67 524.74 120.87 524.74 121.12V125.62C524.74 125.87 524.54 126.07 524.29 126.07ZM524.29 117.07C524.04 117.07 523.84 116.87 523.84 116.62V112.12C523.84 111.87 524.04 111.67 524.29 111.67C524.54 111.67 524.74 111.87 524.74 112.12V116.62C524.74 116.87 524.54 117.07 524.29 117.07ZM524.29 108.06C524.04 108.06 523.84 107.86 523.84 107.61V103.11C523.84 102.86 524.04 102.66 524.29 102.66C524.54 102.66 524.74 102.86 524.74 103.11V107.61C524.74 107.86 524.54 108.06 524.29 108.06ZM524.29 99.06C524.04 99.06 523.84 98.86 523.84 98.61V94.11C523.84 93.86 524.04 93.66 524.29 93.66C524.54 93.66 524.74 93.86 524.74 94.11V98.61C524.74 98.86 524.54 99.06 524.29 99.06ZM524.29 90.06C524.04 90.06 523.84 89.86 523.84 89.61V85.11C523.84 84.86 524.04 84.66 524.29 84.66C524.54 84.66 524.74 84.86 524.74 85.11V89.61C524.74 89.86 524.54 90.06 524.29 90.06ZM524.29 81.06C524.04 81.06 523.84 80.86 523.84 80.61V76.11C523.84 75.86 524.04 75.66 524.29 75.66C524.54 75.66 524.74 75.86 524.74 76.11V80.61C524.74 80.86 524.54 81.06 524.29 81.06ZM524.29 72.06C524.04 72.06 523.84 71.86 523.84 71.61V67.11C523.84 66.86 524.04 66.66 524.29 66.66C524.54 66.66 524.74 66.86 524.74 67.11V71.61C524.74 71.86 524.54 72.06 524.29 72.06ZM524.29 63.06C524.04 63.06 523.84 62.86 523.84 62.61V58.11C523.84 57.86 524.04 57.66 524.29 57.66C524.54 57.66 524.74 57.86 524.74 58.11V62.61C524.74 62.86 524.54 63.06 524.29 63.06ZM524.29 54.06C524.04 54.06 523.84 53.86 523.84 53.61V49.11C523.84 48.86 524.04 48.66 524.29 48.66C524.54 48.66 524.74 48.86 524.74 49.11V53.61C524.74 53.86 524.54 54.06 524.29 54.06ZM524.29 45.05C524.04 45.05 523.84 44.85 523.84 44.6V40.1C523.84 39.85 524.04 39.65 524.29 39.65C524.54 39.65 524.74 39.85 524.74 40.1V44.6C524.74 44.85 524.54 45.05 524.29 45.05ZM524.29 36.05C524.04 36.05 523.84 35.85 523.84 35.6V31.1C523.84 30.85 524.04 30.65 524.29 30.65C524.54 30.65 524.74 30.85 524.74 31.1V35.6C524.74 35.85 524.54 36.05 524.29 36.05ZM524.29 27.05C524.04 27.05 523.84 26.85 523.84 26.6V22.1C523.84 21.85 524.04 21.65 524.29 21.65C524.54 21.65 524.74 21.85 524.74 22.1V26.6C524.74 26.85 524.54 27.05 524.29 27.05ZM524.29 18.05C524.04 18.05 523.84 17.85 523.84 17.6V13.1C523.84 12.85 524.04 12.65 524.29 12.65C524.54 12.65 524.74 12.85 524.74 13.1V17.6C524.74 17.85 524.54 18.05 524.29 18.05ZM519.85 13.5H515.35C515.1 13.5 514.9 13.3 514.9 13.05C514.9 12.8 515.1 12.6 515.35 12.6H519.85C520.1 12.6 520.3 12.8 520.3 13.05C520.3 13.3 520.1 13.5 519.85 13.5ZM510.84 13.5H506.34C506.09 13.5 505.89 13.3 505.89 13.05C505.89 12.8 506.09 12.6 506.34 12.6H510.84C511.09 12.6 511.29 12.8 511.29 13.05C511.29 13.3 511.09 13.5 510.84 13.5ZM501.84 13.5H497.34C497.09 13.5 496.89 13.3 496.89 13.05C496.89 12.8 497.09 12.6 497.34 12.6H501.84C502.09 12.6 502.29 12.8 502.29 13.05C502.29 13.3 502.09 13.5 501.84 13.5ZM492.84 13.5H488.34C488.09 13.5 487.89 13.3 487.89 13.05C487.89 12.8 488.09 12.6 488.34 12.6H492.84C493.09 12.6 493.29 12.8 493.29 13.05C493.29 13.3 493.09 13.5 492.84 13.5ZM483.84 13.5H479.34C479.09 13.5 478.89 13.3 478.89 13.05C478.89 12.8 479.09 12.6 479.34 12.6H483.84C484.09 12.6 484.29 12.8 484.29 13.05C484.29 13.3 484.09 13.5 483.84 13.5ZM474.84 13.5H470.34C470.09 13.5 469.89 13.3 469.89 13.05C469.89 12.8 470.09 12.6 470.34 12.6H474.84C475.09 12.6 475.29 12.8 475.29 13.05C475.29 13.3 475.09 13.5 474.84 13.5ZM465.84 13.5H461.34C461.09 13.5 460.89 13.3 460.89 13.05C460.89 12.8 461.09 12.6 461.34 12.6H465.84C466.09 12.6 466.29 12.8 466.29 13.05C466.29 13.3 466.09 13.5 465.84 13.5ZM456.84 13.5H452.34C452.09 13.5 451.89 13.3 451.89 13.05C451.89 12.8 452.09 12.6 452.34 12.6H456.84C457.09 12.6 457.29 12.8 457.29 13.05C457.29 13.3 457.09 13.5 456.84 13.5ZM447.84 13.5H443.34C443.09 13.5 442.89 13.3 442.89 13.05C442.89 12.8 443.09 12.6 443.34 12.6H447.84C448.09 12.6 448.29 12.8 448.29 13.05C448.29 13.3 448.09 13.5 447.84 13.5ZM438.83 13.5H434.33C434.08 13.5 433.88 13.3 433.88 13.05C433.88 12.8 434.08 12.6 434.33 12.6H438.83C439.08 12.6 439.28 12.8 439.28 13.05C439.28 13.3 439.08 13.5 438.83 13.5ZM429.83 13.5H425.33C425.08 13.5 424.88 13.3 424.88 13.05C424.88 12.8 425.08 12.6 425.33 12.6H429.83C430.08 12.6 430.28 12.8 430.28 13.05C430.28 13.3 430.08 13.5 429.83 13.5ZM420.83 13.5H416.33C416.08 13.5 415.88 13.3 415.88 13.05C415.88 12.8 416.08 12.6 416.33 12.6H420.83C421.08 12.6 421.28 12.8 421.28 13.05C421.28 13.3 421.08 13.5 420.83 13.5ZM411.83 13.5H407.33C407.08 13.5 406.88 13.3 406.88 13.05C406.88 12.8 407.08 12.6 407.33 12.6H411.83C412.08 12.6 412.28 12.8 412.28 13.05C412.28 13.3 412.08 13.5 411.83 13.5ZM402.83 13.5H398.33C398.08 13.5 397.88 13.3 397.88 13.05C397.88 12.8 398.08 12.6 398.33 12.6H402.83C403.08 12.6 403.28 12.8 403.28 13.05C403.28 13.3 403.08 13.5 402.83 13.5ZM393.83 13.5H389.33C389.08 13.5 388.88 13.3 388.88 13.05C388.88 12.8 389.08 12.6 389.33 12.6H393.83C394.08 12.6 394.28 12.8 394.28 13.05C394.28 13.3 394.08 13.5 393.83 13.5ZM384.83 13.5H380.33C380.08 13.5 379.88 13.3 379.88 13.05C379.88 12.8 380.08 12.6 380.33 12.6H384.83C385.08 12.6 385.28 12.8 385.28 13.05C385.28 13.3 385.08 13.5 384.83 13.5ZM375.82 13.5H371.32C371.07 13.5 370.87 13.3 370.87 13.05C370.87 12.8 371.07 12.6 371.32 12.6H375.82C376.07 12.6 376.27 12.8 376.27 13.05C376.27 13.3 376.07 13.5 375.82 13.5ZM366.82 13.5H362.32C362.07 13.5 361.87 13.3 361.87 13.05C361.87 12.8 362.07 12.6 362.32 12.6H366.82C367.07 12.6 367.27 12.8 367.27 13.05C367.27 13.3 367.07 13.5 366.82 13.5ZM357.82 13.5H353.32C353.07 13.5 352.87 13.3 352.87 13.05C352.87 12.8 353.07 12.6 353.32 12.6H357.82C358.07 12.6 358.27 12.8 358.27 13.05C358.27 13.3 358.07 13.5 357.82 13.5ZM348.82 13.5H344.32C344.07 13.5 343.87 13.3 343.87 13.05C343.87 12.8 344.07 12.6 344.32 12.6H348.82C349.07 12.6 349.27 12.8 349.27 13.05C349.27 13.3 349.07 13.5 348.82 13.5ZM339.82 13.5H335.32C335.07 13.5 334.87 13.3 334.87 13.05C334.87 12.8 335.07 12.6 335.32 12.6H339.82C340.07 12.6 340.27 12.8 340.27 13.05C340.27 13.3 340.07 13.5 339.82 13.5ZM330.82 13.5H326.32C326.07 13.5 325.87 13.3 325.87 13.05C325.87 12.8 326.07 12.6 326.32 12.6H330.82C331.07 12.6 331.27 12.8 331.27 13.05C331.27 13.3 331.07 13.5 330.82 13.5ZM321.82 13.5H317.32C317.07 13.5 316.87 13.3 316.87 13.05C316.87 12.8 317.07 12.6 317.32 12.6H321.82C322.07 12.6 322.27 12.8 322.27 13.05C322.27 13.3 322.07 13.5 321.82 13.5ZM312.81 13.5H308.31C308.06 13.5 307.86 13.3 307.86 13.05C307.86 12.8 308.06 12.6 308.31 12.6H312.81C313.06 12.6 313.26 12.8 313.26 13.05C313.26 13.3 313.06 13.5 312.81 13.5Z" fill="#E99497"/>
<path d="M310.06 13.01C310.06 14.2 309.09 15.17 307.9 15.17C306.71 15.17 305.74 14.2 305.74 13.01C305.74 11.82 306.71 10.85 307.9 10.85C309.09 10.85 310.06 11.82 310.06 13.01Z" fill="#E99497"/>
<path d="M526.46 143.72C526.46 144.91 525.49 145.88 524.3 145.88C523.11 145.88 522.14 144.91 522.14 143.72C522.14 142.53 523.11 141.56 524.3 141.56C525.49 141.56 526.46 142.53 526.46 143.72Z" fill="#E99497"/>
<path d="M431.15 348.63H426.65C426.4 348.63 426.2 348.43 426.2 348.18C426.2 347.93 426.4 347.73 426.65 347.73H431.15C431.4 347.73 431.6 347.93 431.6 348.18C431.6 348.43 431.4 348.63 431.15 348.63ZM422.15 348.63H417.65C417.4 348.63 417.2 348.43 417.2 348.18C417.2 347.93 417.4 347.73 417.65 347.73H422.15C422.4 347.73 422.6 347.93 422.6 348.18C422.6 348.43 422.4 348.63 422.15 348.63ZM413.15 348.63H408.65C408.4 348.63 408.2 348.43 408.2 348.18C408.2 347.93 408.4 347.73 408.65 347.73H413.15C413.4 347.73 413.6 347.93 413.6 348.18C413.6 348.43 413.4 348.63 413.15 348.63ZM404.15 348.63H399.65C399.4 348.63 399.2 348.43 399.2 348.18C399.2 347.93 399.4 347.73 399.65 347.73H404.15C404.4 347.73 404.6 347.93 404.6 348.18C404.6 348.43 404.4 348.63 404.15 348.63ZM395.15 348.63H390.65C390.4 348.63 390.2 348.43 390.2 348.18C390.2 347.93 390.4 347.73 390.65 347.73H395.15C395.4 347.73 395.6 347.93 395.6 348.18C395.6 348.43 395.4 348.63 395.15 348.63ZM386.14 348.63H381.64C381.39 348.63 381.19 348.43 381.19 348.18C381.19 347.93 381.39 347.73 381.64 347.73H386.14C386.39 347.73 386.59 347.93 386.59 348.18C386.59 348.43 386.39 348.63 386.14 348.63ZM377.14 348.63H372.64C372.39 348.63 372.19 348.43 372.19 348.18C372.19 347.93 372.39 347.73 372.64 347.73H377.14C377.39 347.73 377.59 347.93 377.59 348.18C377.59 348.43 377.39 348.63 377.14 348.63ZM368.14 348.63H363.64C363.39 348.63 363.19 348.43 363.19 348.18C363.19 347.93 363.39 347.73 363.64 347.73H368.14C368.39 347.73 368.59 347.93 368.59 348.18C368.59 348.43 368.39 348.63 368.14 348.63ZM359.14 348.63H354.64C354.39 348.63 354.19 348.43 354.19 348.18C354.19 347.93 354.39 347.73 354.64 347.73H359.14C359.39 347.73 359.59 347.93 359.59 348.18C359.59 348.43 359.39 348.63 359.14 348.63ZM350.14 348.63H345.64C345.39 348.63 345.19 348.43 345.19 348.18C345.19 347.93 345.39 347.73 345.64 347.73H350.14C350.39 347.73 350.59 347.93 350.59 348.18C350.59 348.43 350.39 348.63 350.14 348.63ZM341.14 348.63H336.64C336.39 348.63 336.19 348.43 336.19 348.18C336.19 347.93 336.39 347.73 336.64 347.73H341.14C341.39 347.73 341.59 347.93 341.59 348.18C341.59 348.43 341.39 348.63 341.14 348.63ZM332.14 348.63H327.64C327.39 348.63 327.19 348.43 327.19 348.18C327.19 347.93 327.39 347.73 327.64 347.73H332.14C332.39 347.73 332.59 347.93 332.59 348.18C332.59 348.43 332.39 348.63 332.14 348.63ZM323.13 348.63H318.63C318.38 348.63 318.18 348.43 318.18 348.18C318.18 347.93 318.38 347.73 318.63 347.73H323.13C323.38 347.73 323.58 347.93 323.58 348.18C323.58 348.43 323.38 348.63 323.13 348.63ZM314.13 348.63H309.63C309.38 348.63 309.18 348.43 309.18 348.18C309.18 347.93 309.38 347.73 309.63 347.73H314.13C314.38 347.73 314.58 347.93 314.58 348.18C314.58 348.43 314.38 348.63 314.13 348.63ZM305.13 348.63H300.63C300.38 348.63 300.18 348.43 300.18 348.18C300.18 347.93 300.38 347.73 300.63 347.73H305.13C305.38 347.73 305.58 347.93 305.58 348.18C305.58 348.43 305.38 348.63 305.13 348.63ZM296.13 348.63H291.63C291.38 348.63 291.18 348.43 291.18 348.18C291.18 347.93 291.38 347.73 291.63 347.73H296.13C296.38 347.73 296.58 347.93 296.58 348.18C296.58 348.43 296.38 348.63 296.13 348.63ZM287.13 348.63H282.63C282.38 348.63 282.18 348.43 282.18 348.18C282.18 347.93 282.38 347.73 282.63 347.73H287.13C287.38 347.73 287.58 347.93 287.58 348.18C287.58 348.43 287.38 348.63 287.13 348.63ZM278.13 348.63H273.63C273.38 348.63 273.18 348.43 273.18 348.18C273.18 347.93 273.38 347.73 273.63 347.73H278.13C278.38 347.73 278.58 347.93 278.58 348.18C278.58 348.43 278.38 348.63 278.13 348.63ZM269.13 348.63H264.63C264.38 348.63 264.18 348.43 264.18 348.18C264.18 347.93 264.38 347.73 264.63 347.73H269.13C269.38 347.73 269.58 347.93 269.58 348.18C269.58 348.43 269.38 348.63 269.13 348.63ZM260.13 348.63H255.63C255.38 348.63 255.18 348.43 255.18 348.18C255.18 347.93 255.38 347.73 255.63 347.73H260.13C260.38 347.73 260.58 347.93 260.58 348.18C260.58 348.43 260.38 348.63 260.13 348.63ZM251.12 348.63H246.62C246.37 348.63 246.17 348.43 246.17 348.18C246.17 347.93 246.37 347.73 246.62 347.73H251.12C251.37 347.73 251.57 347.93 251.57 348.18C251.57 348.43 251.37 348.63 251.12 348.63ZM242.12 348.63H237.62C237.37 348.63 237.17 348.43 237.17 348.18C237.17 347.93 237.37 347.73 237.62 347.73H242.12C242.37 347.73 242.57 347.93 242.57 348.18C242.57 348.43 242.37 348.63 242.12 348.63ZM233.12 348.63H228.62C228.37 348.63 228.17 348.43 228.17 348.18C228.17 347.93 228.37 347.73 228.62 347.73H233.12C233.37 347.73 233.57 347.93 233.57 348.18C233.57 348.43 233.37 348.63 233.12 348.63ZM224.12 348.63H219.62C219.37 348.63 219.17 348.43 219.17 348.18C219.17 347.93 219.37 347.73 219.62 347.73H224.12C224.37 347.73 224.57 347.93 224.57 348.18C224.57 348.43 224.37 348.63 224.12 348.63ZM215.12 348.63H210.62C210.37 348.63 210.17 348.43 210.17 348.18C210.17 347.93 210.37 347.73 210.62 347.73H215.12C215.37 347.73 215.57 347.93 215.57 348.18C215.57 348.43 215.37 348.63 215.12 348.63ZM206.12 348.63H201.62C201.37 348.63 201.17 348.43 201.17 348.18C201.17 347.93 201.37 347.73 201.62 347.73H206.12C206.37 347.73 206.57 347.93 206.57 348.18C206.57 348.43 206.37 348.63 206.12 348.63ZM197.12 348.63H192.62C192.37 348.63 192.17 348.43 192.17 348.18C192.17 347.93 192.37 347.73 192.62 347.73H197.12C197.37 347.73 197.57 347.93 197.57 348.18C197.57 348.43 197.37 348.63 197.12 348.63ZM188.11 348.63H183.61C183.36 348.63 183.16 348.43 183.16 348.18C183.16 347.93 183.36 347.73 183.61 347.73H188.11C188.36 347.73 188.56 347.93 188.56 348.18C188.56 348.43 188.36 348.63 188.11 348.63ZM179.11 348.63H174.61C174.36 348.63 174.16 348.43 174.16 348.18C174.16 347.93 174.36 347.73 174.61 347.73H179.11C179.36 347.73 179.56 347.93 179.56 348.18C179.56 348.43 179.36 348.63 179.11 348.63ZM170.11 348.63H165.61C165.36 348.63 165.16 348.43 165.16 348.18C165.16 347.93 165.36 347.73 165.61 347.73H170.11C170.36 347.73 170.56 347.93 170.56 348.18C170.56 348.43 170.36 348.63 170.11 348.63ZM161.11 348.63H156.61C156.36 348.63 156.16 348.43 156.16 348.18C156.16 347.93 156.36 347.73 156.61 347.73H161.11C161.36 347.73 161.56 347.93 161.56 348.18C161.56 348.43 161.36 348.63 161.11 348.63ZM152.11 348.63H147.61C147.36 348.63 147.16 348.43 147.16 348.18C147.16 347.93 147.36 347.73 147.61 347.73H152.11C152.36 347.73 152.56 347.93 152.56 348.18C152.56 348.43 152.36 348.63 152.11 348.63ZM143.11 348.63H138.61C138.36 348.63 138.16 348.43 138.16 348.18C138.16 347.93 138.36 347.73 138.61 347.73H143.11C143.36 347.73 143.56 347.93 143.56 348.18C143.56 348.43 143.36 348.63 143.11 348.63ZM134.11 348.63H129.61C129.36 348.63 129.16 348.43 129.16 348.18C129.16 347.93 129.36 347.73 129.61 347.73H134.11C134.36 347.73 134.56 347.93 134.56 348.18C134.56 348.43 134.36 348.63 134.11 348.63ZM125.1 348.63H120.6C120.35 348.63 120.15 348.43 120.15 348.18C120.15 347.93 120.35 347.73 120.6 347.73H125.1C125.35 347.73 125.55 347.93 125.55 348.18C125.55 348.43 125.35 348.63 125.1 348.63ZM116.1 348.63H111.6C111.35 348.63 111.15 348.43 111.15 348.18C111.15 347.93 111.35 347.73 111.6 347.73H116.1C116.35 347.73 116.55 347.93 116.55 348.18C116.55 348.43 116.35 348.63 116.1 348.63ZM108.48 347.25C108.23 347.25 108.03 347.05 108.03 346.8V342.3C108.03 342.05 108.23 341.85 108.48 341.85C108.73 341.85 108.93 342.05 108.93 342.3V346.8C108.93 347.05 108.73 347.25 108.48 347.25ZM432.19 345.17C431.94 345.17 431.74 344.97 431.74 344.72V340.22C431.74 339.97 431.94 339.77 432.19 339.77C432.44 339.77 432.64 339.97 432.64 340.22V344.72C432.64 344.97 432.44 345.17 432.19 345.17ZM108.48 338.25C108.23 338.25 108.03 338.05 108.03 337.8V333.3C108.03 333.05 108.23 332.85 108.48 332.85C108.73 332.85 108.93 333.05 108.93 333.3V337.8C108.93 338.05 108.73 338.25 108.48 338.25ZM432.19 336.17C431.94 336.17 431.74 335.97 431.74 335.72V331.22C431.74 330.97 431.94 330.77 432.19 330.77C432.44 330.77 432.64 330.97 432.64 331.22V335.72C432.64 335.97 432.44 336.17 432.19 336.17ZM108.48 329.25C108.23 329.25 108.03 329.05 108.03 328.8V324.3C108.03 324.05 108.23 323.85 108.48 323.85C108.73 323.85 108.93 324.05 108.93 324.3V328.8C108.93 329.05 108.73 329.25 108.48 329.25ZM432.19 327.17C431.94 327.17 431.74 326.97 431.74 326.72V322.97C431.74 322.72 431.94 322.52 432.19 322.52C432.44 322.52 432.64 322.72 432.64 322.97V326.72C432.64 326.97 432.44 327.17 432.19 327.17ZM108.48 320.25C108.23 320.25 108.03 320.05 108.03 319.8V315.3C108.03 315.05 108.23 314.85 108.48 314.85C108.73 314.85 108.93 315.05 108.93 315.3V319.8C108.93 320.05 108.73 320.25 108.48 320.25ZM108.48 311.25C108.23 311.25 108.03 311.05 108.03 310.8V306.3C108.03 306.05 108.23 305.85 108.48 305.85C108.73 305.85 108.93 306.05 108.93 306.3V310.8C108.93 311.05 108.73 311.25 108.48 311.25Z" fill="#E99497"/>
<path d="M434.35 321.49C434.35 322.68 433.38 323.65 432.19 323.65C431 323.65 430.03 322.68 430.03 321.49C430.03 320.3 431 319.33 432.19 319.33C433.38 319.33 434.35 320.3 434.35 321.49Z" fill="#E99497"/>
<path d="M108.48 306.72C109.673 306.72 110.64 305.753 110.64 304.56C110.64 303.367 109.673 302.4 108.48 302.4C107.287 302.4 106.32 303.367 106.32 304.56C106.32 305.753 107.287 306.72 108.48 306.72Z" fill="#E99497"/>
</g>
<defs>
<clipPath id="clip0_13_1988">
<rect width="560" height="374" fill="white"/>
</clipPath>
</defs>
</svg>
