<svg xmlns="http://www.w3.org/2000/svg" width="369" height="217" viewBox="0 0 369 217" fill="none">
<g id="4_new 1">
<g id="Infill">
<path id="vec0" d="M141.578 161.438C141.806 160.745 141.211 160.075 140.559 160.181C138.28 158.672 136.202 156.857 133.899 155.369C131.549 153.689 129.136 152.096 126.776 150.432C125.914 149.881 125.13 148.97 124.114 148.739C124.101 148.498 123.999 148.27 123.767 148.114C122.508 147.353 122.03 149.277 121.41 150.017C120.722 151.073 119.918 152.149 119.047 153.178C117.834 154.317 113.779 158.397 112.414 155.963C110.446 152.879 111.73 148.806 113.11 145.704C113.424 144.699 115.367 141.859 114.819 141.119C114.595 140.727 114.149 140.622 113.771 140.742C113.755 140.73 113.738 140.719 113.722 140.709C112.627 140.054 111.516 139.428 110.476 138.688C106.996 136.16 103.447 133.666 99.7253 131.511C99.4965 131.378 99.2346 131.344 98.9926 131.387C98.5844 131.213 98.0563 131.314 97.8263 131.757C95.824 135.303 93.32 138.657 91.266 142.216C90.2142 143.806 89.2164 145.435 88.3362 147.128C88.3352 147.129 88.3352 147.131 88.334 147.132C88.2383 147.204 88.1558 147.297 88.092 147.413C87.5188 148.683 89.3495 148.951 90.0657 149.565C92.254 151.018 94.7029 152.616 95.6678 155.176C95.8835 156.228 95.2135 157.228 94.3696 157.797C91.7138 159.315 88.4969 157.694 85.928 156.676C85.3174 156.383 84.7221 156.063 84.1677 155.674C83.7826 155.466 83.413 155.557 83.161 155.783C82.524 155.741 82.0223 156.588 81.6031 157.053C79.1068 160.001 76.682 163.005 74.4817 166.182C74.1978 166.634 73.6158 166.865 73.5663 167.447C73.5454 167.608 73.5751 167.761 73.6411 167.896C73.3661 168.253 73.3276 168.793 73.794 169.152C75.9493 170.746 78.329 171.997 80.5228 173.531C83.5581 175.779 86.7113 177.844 90.0536 179.603C87.7872 183.201 85.4967 187.236 85.6396 191.598C85.9059 194.498 87.6661 197.397 90.5651 198.26C96.2761 199.815 101.14 194.002 104.287 189.992C104.686 189.489 105.092 188.991 105.513 188.507C108.581 190.615 111.671 192.685 114.854 194.621C117.285 196.287 119.624 198.159 122.139 199.671C122.5 199.755 122.823 199.595 123.019 199.335C123.418 199.477 123.904 199.315 124.102 198.921C124.656 197.813 125.214 196.704 125.811 195.618C127.21 193.117 128.359 190.489 129.592 187.902C129.957 186.939 130.662 185.99 130.711 184.943C131.023 184.59 131.096 184.02 130.615 183.646C128.833 182.517 127.062 181.373 125.436 180.023C123.62 178.576 121.608 177.185 120.501 175.083C119.698 173.295 119.84 171.016 122.09 170.547C128.468 169.191 134.133 175.753 135.14 173.87C135.99 173.683 136.276 172.19 136.781 171.535C137.669 169.864 138.391 168.11 139.199 166.4C139.944 164.728 141.019 163.185 141.578 161.438ZM361.583 173.5C361.752 174.408 361.448 175.37 361.357 176.287C361.021 178.311 360.081 180.268 359.038 182.053C352.281 191.223 341.498 195.988 330.832 199.11C327.397 200.099 323.856 200.637 320.344 201.263C315.768 202.199 311.174 203.059 306.519 203.48C302.166 203.757 297.869 203.949 293.523 203.786C293.398 203.676 293.235 203.605 293.035 203.599C292.363 203.589 291.688 203.598 291.014 203.598C264.649 203.597 238.284 203.599 211.918 203.6C212.796 203.19 213.639 202.486 214.305 201.97C217.059 199.589 218.586 196.148 220.133 192.925C222.056 188.56 223.152 183.904 224.348 179.303C227.46 167.462 229.583 155.363 231.25 143.24C231.602 139.836 231.677 136.412 231.82 132.994H231.821V132.962C231.821 132.929 231.822 132.895 231.822 132.861C231.829 132.431 231.84 132.003 231.86 131.575C231.866 131.455 231.87 131.334 231.876 131.212C231.889 130.928 231.906 130.64 231.95 130.362C231.987 129.744 232.029 129.124 232.077 128.506C232.406 123.536 232.041 118.567 231.814 113.602C231.608 107.547 231.236 101.411 229.256 95.6376C228.816 94.5007 228.484 92.9312 227.868 91.6313C244.305 93.7545 259.494 101.558 273.052 110.826C280.882 116.314 288.424 122.251 294.63 129.575C304.879 140.407 312.814 153.425 317.717 167.524C318.166 168.608 319.766 167.862 319.349 166.838C317.855 162.48 316.016 158.253 313.922 154.149C313.287 152.824 312.619 151.517 311.92 150.23C318.369 154.818 323.169 161.328 327.194 168.097C327.766 169.098 329.3 168.177 328.721 167.196C326.305 163.401 323.985 159.481 320.952 156.134C318.831 153.695 316.464 151.451 313.884 149.496C315.646 149.879 317.371 150.403 319.025 151.153C322.337 152.531 325.707 153.992 328.508 156.369C329.095 156.854 330.044 156.274 329.917 155.537C329.508 154.51 328.244 154.021 327.419 153.335C323.421 150.957 319.107 148.943 314.586 147.805C313.364 147.561 312.129 147.391 310.905 147.164C310.722 147.132 310.531 147.097 310.338 147.079C310.229 147.011 310.119 146.945 310.009 146.879C305.791 139.834 300.66 133.363 295.011 127.377C288.016 119.299 279.376 112.861 270.488 107.013C261.869 101.383 252.745 96.4158 242.883 93.3483C237.519 91.6633 231.924 89.9991 226.287 89.681C226.056 89.539 225.803 89.4279 225.524 89.3531C220.917 88.2502 219.187 93.7578 217.685 97.0497C215.582 101.465 214.622 106.248 213.474 110.966C212.332 115.046 211.479 119.2 211.152 123.428C211.187 123.766 211.086 124.172 210.987 124.583C207.603 123.407 204.274 122.071 201.068 120.467C190.163 115.81 179.526 109.961 167.661 108.163C165.329 107.89 162.827 107.943 160.753 109.175C160.624 109.253 160.499 109.337 160.378 109.424C160.255 109.243 160.052 109.106 159.764 109.064C156.844 108.541 154.024 107.585 151.148 106.869C149.611 106.607 145.254 104.815 144.283 106.22C144.268 106.252 144.253 106.284 144.239 106.317C143.827 106.326 143.437 106.588 143.393 107.19C142.829 107.964 142.195 108.681 141.6 109.432C141.191 110.085 141.487 110.944 141.397 111.678C141.365 112.176 141.267 112.667 141.097 113.135C140.763 113.133 140.39 113.09 139.976 113.002C138.106 112.52 137.076 110.079 136.72 108.333C136.169 106.002 137.136 103.394 133.645 103.815C129.939 103.433 126.22 103.115 122.496 102.988C121.746 102.978 120.345 102.835 119.867 103.435C119.58 103.584 119.386 103.866 119.367 104.183C119.023 104.954 118.605 105.693 118.195 106.429C117.977 106.89 117.503 107.532 117.347 108.118C117.251 108.217 117.178 108.343 117.141 108.495C117.076 108.739 117.12 108.988 117.247 109.193C117.479 110.222 117.544 111.288 117.666 112.335C117.808 113.083 117.666 113.996 118.143 114.629C120.132 116.239 124.262 114.234 127.18 116.562C127.231 116.633 127.283 116.697 127.336 116.753C126.442 117.849 124.96 118.188 123.666 118.737C122.635 119.118 121.739 119.363 120.6 119.491C119.51 119.686 116.343 119.335 116.061 120.61C116.054 120.665 116.047 120.719 116.042 120.774C115.923 120.916 115.848 121.094 115.843 121.286C115.485 121.902 115.106 122.506 114.747 123.122C114.396 123.728 114.09 124.356 113.78 124.983C113.493 125.372 113.3 125.869 113.494 126.266C113.412 127.62 113.473 128.975 113.507 130.331C113.513 131.564 113.538 132.797 113.665 134.024C113.675 134.285 113.736 134.536 113.928 134.726C114.218 135.044 114.681 135.045 115.019 134.848C115.074 134.856 115.131 134.859 115.193 134.859C119.452 135.739 123.845 136.224 128.174 136.718C129.863 136.815 131.483 137.328 133.14 137.574C133.143 137.98 133.187 138.397 133.169 138.715C133.565 145.095 135.634 151.047 142.258 152.948C142.256 153.801 142.701 154.943 142.964 155.513C143.375 156.565 143.86 157.578 144.411 158.55C143.927 159.101 144.256 160.021 144.283 160.704C144.38 162.392 144.758 164.047 145.421 165.603C146.966 168.545 148.699 171.441 150.642 174.141C152.801 176.663 155.537 178.723 158.541 180.13C159.372 180.551 160.222 180.918 161.085 181.242C161.175 181.571 161.313 181.89 161.438 182.206C163.513 186.449 166.839 190.282 171.344 191.977C173.138 192.673 175.082 192.872 176.989 192.967C180.839 193.254 184.695 193.197 188.549 193.33C192.853 193.478 197.153 193.585 201.458 193.989C203.364 194.25 205.273 194.475 207.183 194.659C207.172 197.643 207.273 200.968 209.211 203.38C209.305 203.464 209.398 203.537 209.494 203.6C172.566 203.602 135.637 203.604 98.7085 203.598C98.6447 203.588 98.5765 203.583 98.505 203.588C92.805 203.592 87.1038 203.593 81.4038 203.596H80.8163C77.2374 203.596 73.6586 203.597 70.0786 203.596C69.6572 203.596 69.2359 203.593 68.8134 203.591C68.6693 203.567 68.5395 203.57 68.4251 203.597H63.4259C63.4832 203.35 63.5327 203.1 63.5975 202.86C64.0607 200.637 64.4469 198.398 64.855 196.164C65.6251 191.785 66.6703 187.453 67.0488 183.013C67.5076 179.055 68.0115 175.106 68.6628 171.176C69.4912 164.885 69.7212 158.534 69.7959 152.194C70.0325 143.228 70.1315 134.188 68.7673 125.301C68.6991 124.993 68.6319 124.684 68.5671 124.376C69.2679 123.764 69.8344 122.504 70.2052 121.881C71.6421 119.24 73.1944 116.58 73.6851 113.57C73.8908 112.411 72.1547 112.076 71.9204 113.223C71.412 115.977 70.1018 118.479 68.7001 120.895C69.1457 117.473 69.1336 114.01 69.1908 110.565C69.1545 108.597 69.1479 106.593 68.6858 104.671C68.4185 103.525 66.689 103.905 66.9288 105.047C67.6307 108.496 67.3634 112.062 67.3018 115.56C67.2699 116.203 67.2446 116.847 67.2116 117.49C66.6307 114.554 65.9849 111.633 65.0498 108.779C64.1949 106.077 63.0794 103.472 61.9814 100.861C61.5985 100.065 61.3114 98.4419 60.1011 98.946C59.3794 99.3125 59.627 100.123 59.9526 100.681C60.7041 102.451 61.4445 104.227 62.1607 106.013C62.8428 107.713 63.3962 109.456 63.9111 111.21C64.7604 114.261 65.4469 117.355 65.9563 120.481C66.469 123.314 67.2622 126.101 67.4932 128.98C68.4361 138.182 68.1731 147.426 67.9442 156.655C67.8254 163.313 67.1631 169.929 66.0673 176.493C65.6624 179.825 65.2653 183.159 64.8572 186.492C64.2939 189.947 63.5237 193.362 62.9407 196.815C62.4995 199.077 62.1771 201.402 61.539 203.597H59.7105C43.2167 203.598 26.7228 203.603 10.2301 203.601C9.93856 203.595 9.64595 203.596 9.35441 203.598C9.46993 203.266 9.4072 202.88 9.06064 202.622C7.90105 193.53 6.37733 184.442 5.61486 175.292C4.96467 166.538 5.84043 157.755 5.46189 148.988C5.24404 142.642 5.00867 136.287 5.42012 129.943C6.13744 122.942 6.85252 115.891 8.22666 108.985C9.92971 101.179 12.0806 93.3297 16.2337 86.4298C19.0843 82.2111 22.1923 78.0705 25.8218 74.4891C28.68 72.0116 31.8661 69.8797 35.225 68.1429C37.3384 67.1733 39.6125 66.7187 41.8722 66.24C45.5963 65.3055 49.2676 63.9925 53.1149 63.6722C54.2316 63.6535 55.3483 63.7548 56.4254 64.0541C56.6817 64.1125 56.9392 64.0288 57.1328 63.8659C62.2838 64.5736 67.3347 65.9549 72.0434 68.187C76.7808 70.4719 81.3576 73.2234 85.6185 76.3602C85.6559 76.4604 85.7109 76.5616 85.7891 76.664C86.1785 77.0932 86.6417 77.4432 87.063 77.8395C89.5615 80.0925 92.6255 81.7599 95.4838 83.5264C100.536 86.1964 106.377 86.9295 112.012 87.2498C119.117 87.4732 127.68 86.1327 133.967 82.7274C135.339 81.9206 140.133 79.5356 139.681 77.7063C139.644 77.5941 139.589 77.4983 139.52 77.418C139.645 77.1946 139.668 76.9139 139.515 76.6145C139.049 75.4038 138.637 74.1304 138.205 72.8614C138.781 73.1453 139.457 72.5301 140.084 72.3144C142.859 71.3502 145.82 71.1059 148.714 70.6954C164.311 68.8023 180.115 67.2648 195.763 69.4352C243.285 75.8287 292.514 88.5266 328.622 121.864C339.347 130.932 348.709 141.688 355.808 153.828C357.952 157.768 359.788 161.908 360.884 166.268C361.435 168.364 361.383 170.624 361.665 172.772C361.528 172.968 361.478 173.22 361.582 173.5L361.583 173.5Z" fill="url(#paint0_linear_3071_548)"/>
<path id="vec1" d="M168.611 132.665C168.601 132.687 168.591 132.709 168.583 132.731C168.377 132.691 168.16 132.688 167.959 132.713C163.487 132.32 159.075 131.428 154.572 131.365C154.21 131.264 153.884 131.318 153.63 131.46C152.569 131.789 153.179 133.174 153.194 134.006C153.371 135.6 153.433 137.204 153.319 138.804C153.192 141.16 152.329 143.389 151.373 145.522C150.484 147.482 148.619 148.998 146.379 148.736C143.859 148.639 141.576 147.354 140.018 145.396C138.816 144.182 138.135 142.621 137.848 140.949C137.513 138.694 137.316 136.409 137.355 134.129C137.316 133.496 137.48 132.715 136.945 132.251C136.834 132.155 136.713 132.097 136.59 132.07C136.464 131.898 136.262 131.771 135.983 131.742C134.567 131.655 133.153 131.519 131.748 131.327C127.091 130.773 122.499 129.716 117.828 129.312C117.846 128.734 117.761 128.096 117.79 127.667C117.805 125.616 117.713 123.566 117.75 121.517C119.58 121.277 121.456 121.383 123.232 120.796C124.898 120.186 126.692 119.667 128.112 118.561C129.982 116.903 131.03 113.298 128.642 111.634C126.63 110.323 124.058 110.806 121.811 110.237C121.751 108.403 121.402 106.592 121.289 104.765C121.694 104.756 122.102 104.763 122.504 104.767C126.549 104.827 130.57 105.413 134.603 105.588C134.759 108.255 135.153 111.107 137.061 113.134C138.037 114.51 139.646 114.93 141.249 114.917C141.575 115.039 141.847 115.008 142.074 114.867C145.277 114.396 146.24 110.324 145.898 107.494C148.606 107.929 151.221 108.802 153.887 109.431C155.592 109.904 157.282 110.411 159.023 110.739C157.303 112.982 157.053 116.282 158.759 118.667C160.957 122.081 164.193 124.569 167.627 126.712C167.675 127.007 167.745 127.304 167.761 127.557C167.967 129.293 168.285 130.939 168.611 132.665V132.665Z" style="fill: var(--tertiary-fixed-dim);"/>
<path id="vec2" d="M181.314 134.512C180.747 134.893 180.181 135.28 179.606 135.65C175.443 137.832 171.02 139.854 166.26 140.113C164.154 140.163 162.512 138.803 160.728 137.741C160.467 137.546 160.215 137.341 159.973 137.129C162.016 137.325 164.061 137.507 166.105 137.687C166.57 137.774 166.915 137.687 167.148 137.511C167.991 137.363 168.638 135.899 169.233 135.376C169.524 134.987 169.88 134.623 170.075 134.175C170.149 134.011 170.168 133.838 170.144 133.674C170.723 133.055 170.181 131.439 170.029 130.635C169.867 129.783 169.732 128.832 169.601 127.9C170.41 128.375 171.223 128.836 172.028 129.291C175.05 131.148 178.249 132.758 181.314 134.512L181.314 134.512Z" fill="url(#paint1_linear_3071_548)"/>
<path id="vec3" d="M230.076 132.668C229.941 135.378 229.813 138.086 229.713 140.798C229.07 147.708 227.737 154.535 226.501 161.358C225.319 168.471 223.545 175.459 221.707 182.426C220.997 185.207 219.764 189.526 217.981 193.434C217.644 193.302 217.202 193.342 216.828 193.404C212.271 193.384 207.874 193.034 203.294 192.392C199.42 191.917 195.511 191.769 191.612 191.638C186.709 191.424 181.928 191.501 177.005 191.178C170.664 191.17 166.15 187.37 163.29 181.967C167.207 183.091 171.345 183.469 175.398 183.77C182.417 184.49 189.483 184.136 196.514 184.684C197.099 184.78 197.66 184.538 198.246 184.6C199.023 184.624 199.419 183.579 198.865 183.063C198.342 182.615 197.558 182.807 196.935 182.903C193.38 182.668 189.824 182.509 186.261 182.48C179.553 182.414 172.817 182.001 166.203 180.839C161.012 179.84 155.987 177.337 152.376 173.43C150.407 171.009 148.977 168.192 147.348 165.539C146.691 164.193 146.232 162.728 146.129 161.228C146.125 161.204 146.121 161.181 146.119 161.156C148.573 164.429 151.833 167.086 155.526 168.925C158.081 170.526 160.896 171.591 163.791 172.4C165.691 172.964 167.644 173.412 169.63 173.481C179.105 173.401 188.451 171.466 197.719 169.664C198.903 169.474 198.593 167.711 197.457 167.878C196.178 168.155 194.907 168.458 193.605 168.616C185.701 170.122 177.718 171.623 169.647 171.676C164.925 171.279 160.236 169.65 156.174 167.231C152.118 165.102 148.341 162.027 146.152 157.942C145.384 156.458 144.498 154.981 144.103 153.346C145.538 153.551 147.142 153.51 148.252 152.708C148.264 152.706 148.275 152.704 148.286 152.701C150.435 155.901 153.676 158.267 157.176 159.818C159.709 161.042 162.361 162.215 165.212 162.329C169.072 162.34 172.983 162.348 176.707 161.202C183.283 159.402 189.736 157.177 196.352 155.529C197.02 155.355 197.718 155.215 198.333 154.895C199.373 154.303 198.496 152.765 197.473 153.307C193.936 154.362 190.315 155.193 186.798 156.344C182.171 157.695 177.598 159.295 172.862 160.222C170.294 160.562 167.669 160.536 165.082 160.527C162.736 160.365 160.545 159.438 158.444 158.441C157.012 157.75 155.549 157.099 154.243 156.185C152.929 155.22 151.715 154.104 150.611 152.905C150.225 152.503 149.955 151.826 149.544 151.39C149.75 151.059 149.945 150.743 150.143 150.546C150.62 149.741 151.58 148.909 151.985 147.96C151.985 147.959 151.986 147.959 151.986 147.958C152.509 147.305 152.935 146.564 153.24 145.779C154.423 143.15 155.228 140.352 155.183 137.449C155.188 137.188 155.187 136.928 155.182 136.668C155.716 136.726 156.311 136.7 156.716 136.808C156.866 136.824 157.015 136.839 157.164 136.853C159.096 139.084 162.495 141.362 165.374 141.869C169.176 141.998 172.868 140.76 176.296 139.214C178.916 138.185 181.312 136.742 183.62 135.146C184.277 134.718 183.992 133.613 183.226 133.528C183.204 133.525 183.182 133.523 183.16 133.521C182.74 133.031 181.923 132.838 181.397 132.489C180.503 132.027 179.606 131.572 178.72 131.094C173.917 128.211 168.757 125.823 164.438 122.213C161.976 120.062 158.46 117.072 159.639 113.431C160.488 110.661 162.976 109.835 165.596 109.822C164.633 111.033 165.093 112.975 167.158 114.566C170.391 117.366 174.715 118.584 178.898 119C181.434 119.161 184.669 117.228 183.782 114.767C189.229 117.001 194.545 119.608 199.953 121.902C204.111 123.992 208.469 125.639 212.883 127.099C217.336 128.905 221.872 130.503 226.505 131.783C227.682 132.135 228.875 132.423 230.076 132.668L230.076 132.668Z" fill="url(#paint2_linear_3071_548)"/>
<path id="vec4" d="M177.608 115.187C177.695 115.929 178.079 116.593 178.492 117.201C174.873 116.689 171.159 115.684 168.338 113.247C167.725 112.651 166.466 111.759 167.033 110.805C167.63 110.487 168.517 110.423 169.238 110.498C169.71 110.595 170.227 110.922 170.66 110.535C173.258 111.089 175.794 111.827 178.289 112.684C177.786 113.356 177.579 114.344 177.608 115.187Z" style="fill: var(--primary-fixed-dim);"/>
<path id="vec5" d="M181.932 115.081C182.552 115.914 181.393 116.732 180.666 116.952C180.632 116.916 180.595 116.882 180.554 116.85C179.674 116.065 179.028 114.829 179.736 113.737C180.63 113.654 181.418 114.416 181.932 115.081Z" style="fill: var(--primary-fixed);"/>
<path id="vec6" d="M122.611 53.6454C122.839 52.383 121.789 51.1767 120.516 51.1932C118.849 51.2296 117.153 52.0792 116.196 53.4583C115.095 54.9486 115.742 57.0618 117.734 57.1487C118.816 57.2599 119.862 56.7888 120.687 56.0899C121.67 55.7278 122.375 54.6349 122.611 53.6454ZM129.721 47.6515C129.761 48.139 129.769 48.6277 129.75 49.1164C129.645 51.7986 128.752 54.2298 127.379 56.4058C127.237 56.2528 127.064 56.1053 126.854 55.9644C124.952 55.1411 122.219 56.8669 121.286 58.5322C120.843 59.5051 121.132 60.9645 122.214 61.3696C122.429 61.4433 122.665 61.4808 122.916 61.4852C121.55 62.6782 120.078 63.7469 118.603 64.6902C115.72 66.3841 112.386 68.1109 108.948 67.5606C107.344 67.0719 106.189 65.6412 105.18 64.3699C103.362 61.7659 104.375 58.3858 106.011 55.9578C106.168 55.6387 106.419 55.3536 106.657 55.0641C106.842 55.1147 107.03 55.1588 107.213 55.2017C110.672 55.8049 115.056 52.4821 116.103 49.2616C116.106 49.2506 116.11 49.2396 116.114 49.2275C116.54 49.3793 116.988 49.4696 117.439 49.4861C120.32 49.5191 123.25 47.9904 125.043 45.7671C126.339 46.9107 127.992 47.6778 129.721 47.6514V47.6515Z" fill="url(#paint3_linear_3071_548)"/>
<path id="vec7" d="M117.479 54.8111C117.645 53.5542 122.007 51.8603 120.553 53.9261C120.206 53.9525 119.996 54.2574 119.767 54.4852C119.323 54.9134 118.785 55.2898 118.158 55.368C117.777 55.3779 117.255 55.3119 117.479 54.8111Z" style="fill: var(--primary-fixed);"/>
<path id="vec8" d="M126.027 57.5329C126.032 57.5352 126.036 57.5373 126.04 57.5406C125.538 58.7381 124.287 59.4855 123.038 59.71C122.992 59.711 122.946 59.7144 122.899 59.7077C122.859 59.5185 122.832 59.3104 122.962 59.1509C123.696 58.3023 124.846 57.4845 126.019 57.5296C126.022 57.5307 126.025 57.5318 126.027 57.5329Z" style="fill: var(--primary-fixed);"/>
<path id="vec9" d="M95.1783 77.3254C95.1331 77.4112 95.1002 77.5102 95.0782 77.6203C94.6106 78.5052 94.0396 79.2525 93.4818 80.0978C93.4499 80.1308 93.4213 80.166 93.3938 80.2023C91.9141 79.2878 90.4662 78.3247 89.1097 77.2483C89.1295 77.0061 89.0437 76.7519 88.8061 76.5405C88.3649 76.1917 87.9205 75.8483 87.4727 75.5115C87.7686 75.1637 88.0459 74.7807 88.3242 74.5682C88.9766 73.7967 89.6697 73.0658 90.3717 72.3406C90.4465 72.652 90.551 72.9536 90.6808 73.2332C91.7051 75.0646 93.3587 76.3534 95.1783 77.3253L95.1783 77.3254Z" style="fill: var(--secondary-fixed);"/>
<path id="vec10" d="M105.867 80.7571C105.871 80.7823 105.876 80.8088 105.884 80.8351C105.76 81.544 105.569 82.2407 105.404 82.9406C105.348 83.4448 105.004 84.1282 104.916 84.7203C102.139 84.214 99.3821 83.4876 96.8407 82.2582C96.2059 81.8851 95.5678 81.5109 94.9319 81.1323C95.0166 81.0156 95.0914 80.8924 95.1563 80.7757C95.6987 79.9106 96.4248 79.0588 96.7857 78.0825C97.9167 78.6317 99.0971 79.073 100.327 79.3692C102.15 79.8964 103.991 80.4412 105.867 80.7571Z" style="fill: var(--secondary-fixed);"/>
<path id="vec11" d="M118.126 85.2873V85.2972C114.333 85.6516 110.495 85.5009 106.714 85.0121C106.961 84.3463 107.031 83.4559 107.227 82.9661C107.291 82.4092 107.626 81.6454 107.669 80.9806C107.91 80.9993 108.153 81.0125 108.396 81.0202C111.543 81.1082 114.688 80.9178 117.791 80.4501C117.935 82.0878 118.086 83.6044 118.126 85.2873Z" style="fill: var(--secondary-fixed);"/>
<path id="vec12" d="M128.754 81.0763C128.873 81.7092 128.995 82.3431 129.118 82.9738C127.341 83.6077 125.503 84.0711 123.65 84.3958C122.411 84.6907 121.161 84.9208 119.906 85.0935C119.897 84.0513 119.759 83.0089 119.697 81.9689C119.619 81.3856 119.658 80.7483 119.567 80.1518C121.478 79.7974 123.37 79.3351 125.235 78.7672C126.153 78.4469 127.084 78.1497 128.005 77.8306C128.271 78.9091 128.535 79.9878 128.754 81.0763Z" style="fill: var(--secondary-fixed);"/>
<path id="vec13" d="M137.941 77.4321C137.953 77.4563 137.966 77.4795 137.98 77.5015C137.903 77.6181 137.854 77.759 137.848 77.923C136.516 79.3835 134.72 80.2761 133.019 81.2304C132.298 81.6266 131.559 81.9866 130.804 82.3112C130.528 80.8573 130.244 79.4089 129.87 77.977C129.791 77.7315 129.741 77.4696 129.69 77.2066C130.858 76.7355 131.987 76.1808 133.029 75.4455C134.237 74.6839 135.438 73.7396 136.188 72.509C136.774 74.1512 137.293 75.8164 137.941 77.4321Z" style="fill: var(--secondary-fixed);"/>
</g>
<g id="Outline">
<path id="vec14" d="M120.553 53.9262C122.007 51.8604 117.645 53.5542 117.479 54.8111C117.256 55.3119 117.777 55.3779 118.158 55.3681C118.785 55.2899 119.323 54.9135 119.767 54.4854C119.996 54.2576 120.206 53.9527 120.553 53.9263L120.553 53.9262ZM120.517 51.1934C121.789 51.1769 122.839 52.3832 122.611 53.6456C122.375 54.635 121.67 55.728 120.687 56.0901C119.862 56.789 118.816 57.26 117.734 57.1488C115.742 57.0619 115.095 54.9487 116.196 53.4584C117.153 52.0793 118.849 51.2297 120.517 51.1934Z" style="fill: var(--il-outline);"/>
<path id="vec15" d="M126.041 57.5406C126.036 57.5373 126.032 57.5351 126.027 57.5329C126.025 57.5318 126.022 57.5307 126.02 57.5296C124.846 57.4845 123.696 58.3022 122.962 59.1508C122.833 59.3104 122.859 59.5184 122.9 59.7078C122.946 59.7144 122.992 59.7111 123.038 59.71C124.287 59.4855 125.538 58.738 126.041 57.5406ZM129.75 49.1164C129.769 48.6277 129.761 48.1391 129.721 47.6514C127.992 47.6779 126.339 46.9107 125.043 45.7671C123.251 47.9904 120.32 49.5192 117.439 49.4862C116.988 49.4697 116.54 49.3794 116.114 49.2275C116.11 49.2396 116.106 49.2506 116.103 49.2617C115.056 52.4821 110.672 55.8049 107.213 55.2017C107.029 55.1588 106.842 55.1148 106.657 55.0641C106.419 55.3536 106.168 55.6386 106.011 55.9578C104.375 58.3858 103.362 61.7658 105.18 64.3699C106.189 65.6411 107.344 67.0719 108.948 67.5606C112.386 68.1109 115.72 66.384 118.603 64.6902C120.078 63.7469 121.55 62.6782 122.916 61.4851C122.665 61.4807 122.429 61.4433 122.214 61.3696C121.131 60.9645 120.843 59.5052 121.286 58.5321C122.218 56.8669 124.952 55.1411 126.854 55.9644C127.064 56.1052 127.237 56.2527 127.379 56.4058C128.752 54.2298 129.645 51.7985 129.75 49.1163L129.75 49.1164ZM134.603 31.7607C136.498 35.4357 138.822 40.5447 136.086 44.2946C136.01 44.4223 135.93 44.5466 135.846 44.6677C134.856 45.9422 133.136 46.8194 131.513 47.3179C131.601 48.6596 131.481 50.1124 131.43 50.6485C130.628 56.3739 126.647 61.1066 122.123 64.4502C118.431 67.1116 114.064 69.7894 109.345 69.435C106.91 69.2743 105.13 67.237 103.725 65.4309C101.777 62.7245 102.184 58.9747 103.826 56.2198C104.182 55.5319 104.587 54.8749 105.034 54.2453C104.982 54.1936 104.931 54.1374 104.884 54.0791C104.732 53.8513 104.523 53.5233 104.334 53.1601C102.43 51.1867 103.198 46.9845 104.487 44.8856C105.443 43.2974 106.838 41.8281 108.576 41.138C108.068 39.7842 108.53 38.0122 108.846 36.6749C109.252 35.1913 110.12 33.8001 111.382 32.9031C109.12 30.3221 108.081 26.7099 108.358 23.3046C106.276 24.1784 102.772 24.491 101.829 24.3854C98.1136 24.1488 94.5138 22.3371 92.2607 19.3489C91.8602 18.8658 91.583 18.3132 91.3211 17.7553C91.1032 18.2318 90.8546 18.6369 90.6445 18.8625C88.2637 21.6801 85.1315 23.429 81.3722 23.1626C79.4766 23.1395 77.6778 22.4494 76.0671 21.4886C75.7316 21.2948 75.3619 21.1099 75.0066 20.9008C74.9317 21.3939 74.8305 21.8506 74.7832 22.1511C73.9405 24.8378 72.4519 27.465 69.9667 28.9265C69.1074 29.3789 68.1524 29.8687 67.1689 29.9953C67.5034 31.7342 66.9126 34.0092 66.3405 35.5314C65.9455 36.6386 65.1853 37.5752 64.2182 38.2257C64.3744 38.3644 64.5054 38.5261 64.5967 38.6957C65.8729 40.777 65.5692 43.6187 64.391 45.7154C66.104 46.3318 66.9511 48.369 67.0479 50.217C67.2284 52.9773 64.5076 55.1664 61.8694 55.0146C58.8594 55.0156 56.5083 51.3682 58.1707 48.7245C56.0462 47.6459 55.1386 45.5371 55.2695 43.2346C55.2387 41.3634 55.9054 39.2118 57.2597 37.8162C52.7743 35.2374 55.1022 27.5793 58.8549 25.2856C58.9979 25.1865 59.1806 25.0765 59.3874 24.9675C58.5073 23.0084 58.4028 20.6354 59.1157 18.6246C60.481 15.0222 63.3162 11.7127 67.1778 10.798C68.2296 10.5845 69.3341 10.6329 70.3705 10.9224C70.9404 8.9027 72.9955 6.01029 73.6117 5.34773C75.7086 2.85591 78.8265 1.06629 82.1238 0.991497C85.0568 1.18409 87.596 3.09807 89.6533 5.0627C89.7677 5.19253 89.935 5.36977 90.1242 5.57886C90.6776 4.61693 91.6986 3.58562 92.176 3.22905C94.9077 1.21053 98.5758 0.127486 101.94 0.844013C106.334 1.85767 110.129 4.79309 112.069 8.88519C112.244 9.21755 112.544 9.84163 112.825 10.5636C113.544 10.2665 114.379 10.1058 114.875 10.0849C117.852 9.72275 120.694 11.0864 122.984 12.8827C127.204 15.938 130.612 21.2848 131.418 26.4489C131.461 26.9035 131.545 27.7939 131.527 28.7019C132.786 29.1235 133.913 30.8173 134.603 31.7605L134.603 31.7607Z" style="fill: var(--il-outline);"/>
<path id="vec16" d="M140.56 160.181C141.211 160.075 141.806 160.745 141.578 161.438C141.019 163.185 139.945 164.728 139.199 166.4C138.391 168.11 137.669 169.864 136.782 171.536C136.277 172.19 135.991 173.683 135.14 173.87C134.133 175.753 128.469 169.191 122.09 170.547C119.84 171.016 119.698 173.295 120.501 175.083C121.608 177.185 123.62 178.576 125.437 180.023C127.063 181.373 128.833 182.517 130.615 183.646C131.096 184.02 131.023 184.59 130.711 184.943C130.662 185.99 129.957 186.939 129.592 187.902C128.36 190.489 127.21 193.117 125.812 195.618C125.214 196.705 124.656 197.813 124.102 198.921C123.904 199.315 123.418 199.477 123.019 199.335C122.824 199.595 122.5 199.755 122.139 199.671C119.624 198.16 117.285 196.287 114.854 194.621C111.671 192.685 108.581 190.615 105.513 188.507C105.092 188.991 104.686 189.489 104.287 189.992C101.14 194.003 96.2763 199.815 90.5653 198.26C87.6663 197.397 85.906 194.498 85.6398 191.598C85.4967 187.236 87.7873 183.201 90.0537 179.603C86.7114 177.844 83.5583 175.78 80.5228 173.531C78.3291 171.997 75.9494 170.746 73.7942 169.152C73.3277 168.793 73.3662 168.253 73.6412 167.896C73.5752 167.761 73.5455 167.608 73.5664 167.447C73.6159 166.866 74.1979 166.634 74.4818 166.182C76.6821 163.005 79.1069 160.001 81.6032 157.053C82.0224 156.588 82.5241 155.742 83.1611 155.783C83.413 155.557 83.7827 155.466 84.1677 155.674C84.7222 156.063 85.3174 156.383 85.928 156.676C88.4969 157.694 91.7138 159.315 94.3696 157.798C95.2135 157.228 95.8835 156.228 95.6679 155.176C94.703 152.616 92.254 151.018 90.0657 149.565C89.3495 148.951 87.5188 148.683 88.092 147.413C88.1558 147.298 88.2383 147.204 88.334 147.132C88.3351 147.131 88.3351 147.129 88.3363 147.128C89.2164 145.435 90.2142 143.806 91.266 142.216C93.32 138.657 95.8241 135.303 97.8264 131.757C98.0563 131.314 98.5844 131.213 98.9926 131.387C99.2346 131.344 99.4964 131.378 99.7253 131.511C103.447 133.666 106.996 136.16 110.476 138.688C111.516 139.428 112.627 140.054 113.722 140.709C113.738 140.719 113.755 140.73 113.771 140.742C114.149 140.622 114.595 140.727 114.819 141.119C115.367 141.859 113.424 144.699 113.11 145.704C111.73 148.806 110.447 152.879 112.414 155.963C113.779 158.397 117.834 154.317 119.047 153.178C119.918 152.149 120.722 151.073 121.41 150.017C122.03 149.276 122.508 147.353 123.767 148.114C123.999 148.27 124.101 148.498 124.114 148.739C125.129 148.971 125.914 149.881 126.776 150.432C129.136 152.096 131.549 153.689 133.899 155.37C136.202 156.858 138.28 158.672 140.559 160.181H140.56Z" style="fill: var(--il-outline);"/>
<path id="vec17" d="M137.98 77.5015C137.967 77.4795 137.953 77.4564 137.941 77.4322C137.293 75.8165 136.774 74.1512 136.189 72.5091C135.438 73.7396 134.237 74.684 133.029 75.4456C130.688 77.0976 127.906 77.8362 125.235 78.7673C119.782 80.4292 114.094 81.1787 108.396 81.0202C105.637 80.9311 102.962 80.132 100.327 79.3693C99.0467 79.0612 97.8199 78.5956 96.6472 78.0144C96.59 78.0012 96.5306 77.9814 96.4712 77.9561C94.1641 76.9248 91.9439 75.4918 90.6809 73.2334C90.5511 72.9538 90.4466 72.6522 90.3717 72.3408C89.6698 73.0661 88.9767 73.7969 88.3243 74.5684C88.0459 74.7809 87.7687 75.1638 87.4727 75.5117C87.9205 75.8484 88.365 76.1919 88.8062 76.5407C89.0438 76.7521 89.1296 77.0063 89.1098 77.2485C91.5126 79.1537 94.2003 80.7055 96.8408 82.2585C99.8377 83.708 103.136 84.4586 106.41 84.9726C112.139 85.7409 118.004 85.7409 123.65 84.3959C126.903 83.8258 130.117 82.8275 133.019 81.2305C134.72 80.2763 136.516 79.3837 137.848 77.9231C137.854 77.7592 137.903 77.6183 137.98 77.5016L137.98 77.5015ZM144.11 109.647C144.148 109.469 144.167 109.288 144.17 109.105C143.835 109.508 143.483 109.901 143.164 110.311C143.189 110.721 143.185 111.516 143.085 112.336C143.616 111.732 143.913 110.809 144.11 109.647ZM168.583 132.731C168.591 132.709 168.601 132.687 168.611 132.665C168.285 130.939 167.967 129.292 167.761 127.557C167.745 127.304 167.676 127.006 167.627 126.711C164.194 124.569 160.957 122.081 158.759 118.667C157.054 116.282 157.303 112.982 159.023 110.739C157.282 110.411 155.592 109.904 153.887 109.431C151.221 108.802 148.606 107.929 145.898 107.493C146.24 110.324 145.277 114.396 142.075 114.867C141.847 115.007 141.575 115.039 141.249 114.917C139.647 114.93 138.037 114.51 137.061 113.134C135.153 111.107 134.759 108.255 134.603 105.588C130.57 105.413 126.549 104.827 122.505 104.767C122.102 104.763 121.694 104.756 121.289 104.765C121.402 106.592 121.751 108.403 121.812 110.237C124.058 110.807 126.63 110.323 128.643 111.634C131.03 113.298 129.983 116.903 128.112 118.562C126.692 119.668 124.899 120.186 123.232 120.796C121.456 121.384 119.58 121.277 117.75 121.517C117.714 123.566 117.805 125.616 117.79 127.667C117.761 128.096 117.847 128.735 117.828 129.312C122.499 129.716 127.091 130.773 131.748 131.328C133.153 131.519 134.567 131.656 135.983 131.743C136.262 131.771 136.464 131.898 136.59 132.071C136.714 132.097 136.835 132.155 136.946 132.251C137.48 132.716 137.316 133.496 137.355 134.129C137.316 136.409 137.513 138.694 137.848 140.949C138.135 142.621 138.816 144.182 140.018 145.396C141.576 147.354 143.859 148.639 146.38 148.736C148.62 148.998 150.484 147.483 151.373 145.522C152.329 143.389 153.192 141.161 153.32 138.804C153.433 137.204 153.371 135.6 153.194 134.007C153.179 133.175 152.569 131.789 153.63 131.46C153.884 131.318 154.211 131.264 154.573 131.365C159.076 131.428 163.487 132.32 167.96 132.713C168.16 132.688 168.378 132.691 168.583 132.731L168.583 132.731ZM178.493 117.201C178.079 116.594 177.695 115.929 177.608 115.187C177.579 114.344 177.786 113.357 178.289 112.684C175.794 111.827 173.258 111.089 170.66 110.536C170.227 110.922 169.71 110.595 169.238 110.498C168.517 110.423 167.631 110.487 167.033 110.805C166.467 111.76 167.725 112.651 168.338 113.248C171.159 115.684 174.873 116.689 178.493 117.201ZM179.606 135.65C180.181 135.28 180.747 134.894 181.315 134.512C178.25 132.758 175.05 131.148 172.028 129.291C171.224 128.836 170.411 128.375 169.601 127.9C169.732 128.832 169.867 129.783 170.029 130.635C170.181 131.439 170.723 133.055 170.145 133.674C170.169 133.838 170.149 134.011 170.075 134.175C169.881 134.623 169.524 134.987 169.234 135.376C168.638 135.899 167.992 137.363 167.149 137.511C166.916 137.687 166.57 137.774 166.106 137.687C164.062 137.507 162.016 137.325 159.973 137.129C160.215 137.341 160.467 137.546 160.728 137.741C162.513 138.803 164.154 140.163 166.26 140.113C171.02 139.854 175.443 137.832 179.606 135.65ZM180.667 116.952C181.393 116.732 182.552 115.914 181.932 115.081C181.418 114.416 180.63 113.654 179.736 113.737C179.028 114.829 179.674 116.065 180.554 116.85C180.595 116.882 180.632 116.916 180.667 116.952ZM229.713 140.798C229.814 138.086 229.941 135.378 230.077 132.668C228.875 132.424 227.683 132.135 226.505 131.783C221.873 130.503 217.336 128.905 212.883 127.099C208.469 125.639 204.111 123.992 199.954 121.902C194.545 119.608 189.229 117.002 183.782 114.768C184.669 117.229 181.434 119.161 178.899 119.001C174.716 118.585 170.391 117.366 167.159 114.566C165.094 112.976 164.634 111.033 165.596 109.822C162.977 109.836 160.488 110.661 159.639 113.431C158.461 117.072 161.977 120.063 164.438 122.213C168.757 125.823 173.917 128.212 178.72 131.094C179.606 131.572 180.504 132.028 181.397 132.49C181.923 132.839 182.74 133.031 183.161 133.521C183.183 133.523 183.205 133.525 183.227 133.529C183.992 133.613 184.277 134.719 183.62 135.147C181.312 136.743 178.916 138.185 176.297 139.215C172.868 140.76 169.176 141.998 165.374 141.869C162.495 141.362 159.096 139.085 157.164 136.854C157.015 136.839 156.866 136.824 156.717 136.809C156.311 136.701 155.717 136.726 155.182 136.669C155.187 136.929 155.189 137.188 155.183 137.449C155.228 140.353 154.423 143.15 153.24 145.78C152.935 146.565 152.51 147.305 151.986 147.958C151.986 147.959 151.985 147.959 151.985 147.96C151.58 148.909 150.621 149.741 150.143 150.547C149.945 150.743 149.75 151.059 149.545 151.391C149.955 151.827 150.226 152.503 150.611 152.905C151.715 154.104 152.929 155.22 154.243 156.185C155.549 157.1 157.013 157.75 158.444 158.441C160.545 159.439 162.736 160.365 165.082 160.527C167.669 160.536 170.294 160.562 172.862 160.222C177.598 159.295 182.171 157.695 186.798 156.345C190.315 155.193 193.936 154.362 197.473 153.307C198.496 152.765 199.373 154.303 198.333 154.895C197.718 155.215 197.021 155.355 196.352 155.529C189.736 157.177 183.283 159.402 176.707 161.202C172.983 162.349 169.072 162.34 165.212 162.329C162.361 162.215 159.709 161.042 157.177 159.818C153.676 158.267 150.435 155.901 148.286 152.702C148.275 152.704 148.264 152.706 148.252 152.708C147.142 153.511 145.538 153.551 144.103 153.347C144.498 154.981 145.384 156.458 146.152 157.942C148.341 162.027 152.118 165.102 156.174 167.231C160.236 169.65 164.925 171.279 169.647 171.676C177.718 171.624 185.701 170.122 193.606 168.617C194.907 168.458 196.178 168.155 197.457 167.878C198.593 167.711 198.903 169.474 197.719 169.664C188.451 171.466 179.105 173.401 169.631 173.481C167.644 173.412 165.691 172.964 163.791 172.401C160.896 171.592 158.081 170.526 155.526 168.925C151.833 167.086 148.573 164.429 146.119 161.157C146.121 161.181 146.125 161.204 146.129 161.228C146.232 162.728 146.691 164.193 147.348 165.539C148.977 168.192 150.407 171.009 152.377 173.43C155.987 177.337 161.012 179.84 166.204 180.839C172.817 182.001 179.553 182.414 186.261 182.48C189.824 182.509 193.38 182.668 196.935 182.903C197.559 182.807 198.342 182.615 198.866 183.063C199.419 183.579 199.023 184.624 198.246 184.6C197.66 184.538 197.099 184.78 196.515 184.684C189.483 184.136 182.417 184.49 175.398 183.77C171.345 183.469 167.207 183.091 163.29 181.967C166.15 187.37 170.664 191.17 177.005 191.178C181.928 191.501 186.709 191.424 191.612 191.638C195.511 191.769 199.42 191.917 203.294 192.392C207.874 193.034 212.271 193.384 216.828 193.404C217.202 193.342 217.645 193.302 217.981 193.434C219.765 189.526 220.997 185.207 221.708 182.426C223.545 175.459 225.319 168.471 226.501 161.358C227.738 154.535 229.07 147.708 229.714 140.798L229.713 140.798ZM361.357 176.287C361.449 175.37 361.752 174.408 361.583 173.5C361.478 173.219 361.529 172.967 361.665 172.771C361.384 170.624 361.435 168.364 360.884 166.268C359.788 161.908 357.952 157.768 355.808 153.828C348.71 141.688 339.347 130.932 328.623 121.864C292.515 88.5265 243.285 75.8286 195.763 69.4351C180.115 67.2647 164.311 68.8022 148.714 70.6953C145.821 71.1059 142.859 71.3502 140.084 72.3143C139.457 72.5301 138.782 73.1453 138.205 72.8613C138.638 74.1304 139.049 75.4038 139.516 76.6145C139.669 76.9139 139.645 77.1945 139.52 77.4179C139.589 77.4983 139.644 77.594 139.682 77.7063C140.134 79.5355 135.339 81.9206 133.967 82.7274C127.681 86.1327 119.117 87.4732 112.012 87.2498C106.377 86.9295 100.536 86.1965 95.4843 83.5264C92.6261 81.7599 89.5621 80.0925 87.0636 77.8395C86.6422 77.4433 86.179 77.0933 85.7896 76.664C85.7115 76.5617 85.6565 76.4604 85.619 76.3603C81.358 73.2235 76.7813 70.4719 72.0439 68.187C67.3352 65.9549 62.2843 64.5737 57.1333 63.8659C56.9396 64.0288 56.6822 64.1125 56.4259 64.0541C55.3488 63.7548 54.2321 63.6535 53.1154 63.6723C49.2681 63.9925 45.5969 65.3056 41.8727 66.24C39.613 66.7188 37.3389 67.1734 35.2255 68.1431C31.8666 69.8798 28.6805 72.0117 25.8222 74.4892C22.1927 78.0706 19.0848 82.2112 16.2342 86.4299C12.0811 93.3297 9.9302 101.179 8.22715 108.985C6.85302 115.891 6.13793 122.942 5.42062 129.943C5.00917 136.287 5.2446 142.642 5.46246 148.988C5.84092 157.755 4.96516 166.538 5.61542 175.292C6.37783 184.443 7.90155 193.53 9.06114 202.622C9.4077 202.88 9.47042 203.267 9.3549 203.598C9.64644 203.596 9.93906 203.594 10.2307 203.601C26.7234 203.603 43.2173 203.598 59.7111 203.597H61.5396C62.1777 201.402 62.5 199.078 62.9412 196.815C63.5242 193.362 64.2944 189.947 64.8577 186.492C65.2658 183.159 65.663 179.825 66.0679 176.493C67.1637 169.929 67.826 163.313 67.9448 156.655C68.1736 147.426 68.4365 138.182 67.4937 128.98C67.2627 126.101 66.4695 123.314 65.9568 120.481C65.4474 117.355 64.7609 114.261 63.9115 111.21C63.3967 109.456 62.8433 107.713 62.1612 106.013C61.4449 104.227 60.7045 102.452 59.9531 100.681C59.6275 100.123 59.3799 99.3128 60.1016 98.9462C61.3119 98.4421 61.599 100.066 61.9818 100.861C63.0798 103.472 64.1954 106.077 65.0502 108.779C65.9854 111.633 66.6312 114.554 67.2121 117.491C67.2451 116.847 67.2704 116.203 67.3024 115.56C67.3639 112.062 67.6314 108.496 66.9295 105.047C66.6896 103.906 68.419 103.525 68.6864 104.672C69.1485 106.593 69.1551 108.598 69.1914 110.566C69.1342 114.01 69.1463 117.473 68.7007 120.895C70.1023 118.479 71.4126 115.977 71.9209 113.223C72.1553 112.077 73.8913 112.411 73.6856 113.57C73.195 116.58 71.6426 119.241 70.2058 121.881C69.835 122.504 69.2684 123.764 68.5676 124.376C68.6325 124.684 68.6996 124.994 68.7678 125.302C70.132 134.188 70.0331 143.229 69.7965 152.194C69.7217 158.534 69.4917 164.886 68.6633 171.176C68.012 175.106 67.5081 179.055 67.0493 183.013C66.6708 187.453 65.6257 191.785 64.8555 196.164C64.4474 198.399 64.0612 200.637 63.598 202.861C63.5331 203.1 63.4835 203.35 63.4263 203.597H68.4255C68.54 203.57 68.6697 203.567 68.8139 203.591C69.2363 203.593 69.6577 203.596 70.079 203.596C73.659 203.597 77.2379 203.596 80.8167 203.596H81.4042C87.1042 203.593 92.8054 203.592 98.5054 203.588C98.5769 203.584 98.6451 203.588 98.7089 203.598C135.637 203.604 172.566 203.602 209.494 203.6C209.399 203.537 209.305 203.464 209.212 203.38C207.273 200.968 207.172 197.643 207.183 194.659C205.273 194.475 203.364 194.25 201.459 193.989C197.154 193.586 192.853 193.478 188.549 193.33C184.695 193.197 180.839 193.254 176.99 192.967C175.082 192.872 173.138 192.673 171.345 191.977C166.84 190.283 163.514 186.449 161.439 182.206C161.313 181.89 161.176 181.571 161.086 181.242C160.222 180.918 159.373 180.551 158.541 180.13C155.537 178.723 152.801 176.663 150.643 174.141C148.7 171.441 146.966 168.545 145.421 165.603C144.758 164.047 144.38 162.392 144.284 160.704C144.256 160.021 143.927 159.101 144.411 158.55C143.86 157.579 143.375 156.565 142.964 155.513C142.702 154.943 142.256 153.801 142.258 152.948C135.634 151.047 133.566 145.095 133.17 138.715C133.187 138.397 133.143 137.98 133.14 137.574C131.483 137.328 129.864 136.815 128.174 136.719C123.846 136.224 119.453 135.739 115.193 134.86C115.131 134.86 115.074 134.856 115.019 134.849C114.681 135.046 114.218 135.045 113.929 134.726C113.736 134.536 113.676 134.285 113.666 134.024C113.538 132.797 113.513 131.564 113.507 130.332C113.473 128.976 113.413 127.62 113.494 126.266C113.3 125.87 113.493 125.372 113.78 124.984C114.09 124.356 114.396 123.728 114.747 123.123C115.106 122.506 115.485 121.902 115.843 121.287C115.849 121.094 115.923 120.916 116.042 120.774C116.048 120.719 116.054 120.665 116.061 120.61C116.344 119.335 119.51 119.686 120.6 119.491C121.739 119.363 122.635 119.118 123.666 118.738C124.96 118.188 126.442 117.849 127.337 116.753C127.284 116.697 127.231 116.633 127.18 116.562C124.263 114.234 120.133 116.239 118.144 114.629C117.666 113.996 117.808 113.084 117.666 112.335C117.544 111.289 117.479 110.222 117.247 109.193C117.12 108.988 117.076 108.739 117.141 108.495C117.179 108.343 117.251 108.217 117.347 108.118C117.503 107.532 117.977 106.89 118.195 106.429C118.606 105.693 119.024 104.954 119.367 104.183C119.387 103.866 119.58 103.584 119.868 103.436C120.345 102.835 121.747 102.978 122.496 102.988C126.22 103.115 129.94 103.433 133.645 103.815C137.136 103.394 136.169 106.002 136.72 108.333C137.077 110.079 138.106 112.52 139.977 113.002C140.39 113.09 140.763 113.133 141.098 113.135C141.267 112.668 141.365 112.176 141.397 111.678C141.487 110.944 141.191 110.086 141.6 109.432C142.196 108.681 142.829 107.965 143.394 107.19C143.438 106.588 143.827 106.326 144.24 106.317C144.253 106.284 144.268 106.252 144.284 106.22C145.254 104.815 149.612 106.608 151.149 106.87C154.025 107.585 156.844 108.541 159.764 109.064C160.052 109.106 160.255 109.244 160.378 109.424C160.499 109.337 160.625 109.253 160.753 109.175C162.827 107.943 165.329 107.89 167.661 108.163C179.527 109.961 190.163 115.81 201.068 120.467C204.274 122.071 207.603 123.408 210.987 124.583C211.086 124.172 211.188 123.766 211.152 123.428C211.479 119.2 212.333 115.046 213.475 110.966C214.622 106.248 215.583 101.465 217.685 97.0497C219.187 93.7577 220.918 88.2502 225.524 89.3531C225.803 89.4279 226.056 89.5391 226.288 89.681C231.925 89.9991 237.519 91.6632 242.884 93.3483C252.746 96.4157 261.869 101.383 270.488 107.013C279.376 112.861 288.016 119.299 295.011 127.377C300.66 133.363 305.792 139.834 310.01 146.879C310.12 146.945 310.23 147.011 310.339 147.079C310.531 147.097 310.723 147.132 310.905 147.164C312.13 147.391 313.364 147.561 314.587 147.805C319.107 148.943 323.421 150.957 327.419 153.334C328.244 154.021 329.508 154.51 329.918 155.537C330.044 156.274 329.096 156.854 328.508 156.369C325.707 153.992 322.337 152.531 319.026 151.153C317.371 150.403 315.646 149.878 313.885 149.495C316.465 151.451 318.831 153.695 320.952 156.134C323.985 159.481 326.306 163.401 328.722 167.196C329.3 168.177 327.767 169.097 327.195 168.097C323.169 161.328 318.369 154.818 311.921 150.23C312.619 151.517 313.287 152.824 313.922 154.149C316.017 158.253 317.855 162.479 319.349 166.838C319.766 167.862 318.167 168.608 317.718 167.524C312.814 153.425 304.88 140.406 294.63 129.575C288.424 122.251 280.883 116.314 273.053 110.826C259.494 101.558 244.305 93.7543 227.869 91.6312C228.485 92.931 228.817 94.5005 229.257 95.6375C231.236 101.411 231.608 107.547 231.815 113.602C232.042 118.567 232.407 123.536 232.078 128.505C232.029 129.124 231.988 129.744 231.95 130.362C231.906 130.639 231.89 130.928 231.877 131.212C231.871 131.334 231.867 131.455 231.86 131.575C231.84 132.003 231.829 132.431 231.823 132.861C231.823 132.895 231.822 132.929 231.822 132.962V132.994H231.82C231.677 136.412 231.603 139.836 231.251 143.239C229.584 155.363 227.46 167.462 224.348 179.302C223.152 183.904 222.056 188.56 220.133 192.925C218.587 196.147 217.059 199.589 214.306 201.97C213.639 202.486 212.796 203.19 211.918 203.6C238.284 203.599 264.65 203.596 291.014 203.598C291.689 203.598 292.363 203.589 293.035 203.599C293.236 203.605 293.398 203.676 293.524 203.786C297.87 203.949 302.167 203.757 306.519 203.48C311.174 203.059 315.768 202.199 320.344 201.263C323.857 200.637 327.397 200.099 330.832 199.11C341.498 195.988 352.281 191.223 359.038 182.053C360.081 180.268 361.022 178.311 361.357 176.287L361.357 176.287ZM363.165 169.826C363.192 171.134 364.109 174.432 363.345 175.242C363.088 178.205 361.606 181.429 360.073 183.663C357.656 186.58 354.904 189.293 351.874 191.571C349.502 193.246 346.925 194.601 344.349 195.928C337.346 199.21 329.914 201.594 322.254 202.724C317.574 203.579 312.925 204.642 308.18 205.092C303.419 205.63 298.609 205.598 293.823 205.602C292.708 205.546 291.594 205.492 290.482 205.402C290.437 205.398 290.391 205.391 290.349 205.379C289.99 205.376 289.631 205.375 289.273 205.375C225.756 205.379 162.239 205.362 98.7222 205.375C98.6837 205.381 98.6441 205.385 98.6034 205.386C94.9046 205.386 91.2069 205.382 87.5081 205.38C85.4882 205.38 83.4671 205.379 81.4472 205.379C77.1532 205.38 72.8604 205.382 68.5663 205.383C68.5498 205.382 68.5333 205.38 68.5169 205.378H68.5147C52.0967 205.375 35.6788 205.374 19.262 205.37C15.6501 205.369 12.0382 205.368 8.42744 205.377C7.54837 205.428 7.27224 204.347 7.74311 203.846C6.76176 202.747 7.02031 200.398 6.74858 199.069C6.40973 195.369 5.82997 191.739 5.27873 188.078C4.43272 182.107 3.66917 176.101 3.58995 170.062C3.51627 163.22 3.93211 156.382 3.68789 149.541C3.33146 140.479 3.08062 131.417 4.44151 122.43C5.55817 112.379 7.26677 102.324 11.0899 92.9126C13.0823 87.3181 16.5863 82.4776 20.35 77.9485C24.4757 72.4377 31.222 67.3451 37.8186 65.3266C43.1193 64.3614 48.2064 62.1161 53.6238 61.8915C53.8724 61.9135 54.2101 61.9234 54.5809 61.9421C54.8549 61.8254 55.1871 61.7869 55.5172 61.8584C62.0676 62.5474 68.4751 64.358 74.3654 67.3142C78.4107 69.4912 82.3086 71.7872 86.0074 74.4352C86.2802 74.137 86.5971 73.8585 86.7984 73.6142C88.0295 72.1823 89.3651 70.8527 90.6579 69.4814C90.791 69.2381 90.9505 69.0775 91.1189 68.985C91.2047 68.9025 91.2982 68.8243 91.3994 68.7517C93.7747 67.4948 96.9762 68.941 99.3492 69.6795C101.448 70.495 103.633 71.052 105.849 71.4438C105.913 71.4096 105.981 71.3821 106.054 71.3645C106.327 71.2963 106.63 71.3733 106.848 71.5516C107.075 71.6122 107.299 71.665 107.524 71.7101C108.047 71.7838 108.572 71.8499 109.097 71.9093C109.125 71.9171 109.155 71.9225 109.185 71.9281C109.42 71.9457 109.656 71.9567 109.892 71.9644C110.196 71.9589 110.509 71.9434 110.79 71.9787C111.117 71.9797 111.447 71.9753 111.78 71.971C114.789 71.8345 117.787 71.3843 120.671 70.5005C123.672 69.4175 126.547 67.9988 129.555 66.9301C131.098 66.4194 132.853 65.8801 134.429 66.5405C135.486 66.9125 136.247 67.7853 136.618 68.8099C136.667 68.8947 136.713 68.9894 136.753 69.095C137.144 69.9414 137.486 70.823 137.806 71.7178C139.247 69.0312 156.365 68.2531 158.52 67.7754C170.723 66.6395 182.979 65.8691 195.171 67.5663C220.252 70.8979 245.221 76.0026 269.134 84.3794C283.92 90.0686 298.226 97.1016 311.388 105.951C319.37 111.243 326.543 117.646 333.682 124.003C345.377 134.606 361.678 153.795 363.165 169.826L363.165 169.826Z" style="fill: var(--il-outline);"/>
<path id="vec18" d="M143.336 113.053C142.302 112.992 142.403 111.784 142.463 111.031C142.475 109.995 142.666 108.943 143.964 109.156C144.79 109.411 144.633 110.402 144.488 111.058C144.323 111.796 144.38 113.071 143.336 113.053Z" style="fill: var(--il-outline);"/>
<path id="vec19" d="M93.6035 81.6083C93.0322 81.2705 93.0605 80.5428 93.4824 80.0982C94.0403 79.2527 94.6102 78.5052 95.0783 77.6203C95.3185 76.3898 97.0895 76.6807 96.8413 77.9256C96.5035 78.9671 95.727 79.8651 95.1567 80.7757C94.8457 81.3352 94.3092 82.0279 93.6036 81.6083H93.6035Z" style="fill: var(--il-outline);"/>
<path id="vec20" d="M105.539 85.8497C104.235 85.3836 105.302 83.8639 105.405 82.9407C105.569 82.2406 105.76 81.544 105.884 80.8357C105.685 80.1086 106.549 79.485 107.193 79.8711C108.196 80.5297 107.334 82.0364 107.228 82.9661C106.866 83.8664 106.936 86.1176 105.539 85.8497Z" style="fill: var(--il-outline);"/>
<path id="vec21" d="M118.126 85.2876C118.085 83.5373 117.923 81.9654 117.774 80.2516C117.58 79.9769 117.552 79.6003 117.726 79.2925C118.05 78.7063 118.91 78.7189 119.275 79.2584C119.733 80.059 119.578 81.0785 119.697 81.9692C119.762 83.0716 119.915 84.1767 119.906 85.282C119.889 86.4424 118.134 86.4499 118.126 85.2876ZM118.855 80.536C118.966 80.4908 119.072 80.4132 119.149 80.3205C119.064 80.412 118.964 80.4848 118.855 80.536Z" style="fill: var(--il-outline);"/>
<path id="vec22" d="M129.974 84.2295C129.442 84.17 129.205 83.6923 129.174 83.2614C129.031 82.5342 128.893 81.8051 128.753 81.0768C128.476 79.695 128.125 78.3293 127.791 76.9613C127.222 76.0779 128.414 75.1076 129.169 75.8505C129.661 76.432 129.644 77.2757 129.87 77.977C130.263 79.4816 130.557 81.0052 130.847 82.5324C131.108 83.2893 130.991 84.3001 129.974 84.2295Z" style="fill: var(--il-outline);"/>
</g>
<g id="neg.-Outlines">
<path id="vec23" d="M136.052 42.803C136.049 42.8087 136.045 42.8141 136.041 42.8193C136.045 42.8139 136.048 42.8085 136.052 42.803Z" style="fill: var(--il-ne-outline);"/>
<path id="vec24" d="M61.8687 55.0144C58.8586 55.0154 56.5075 51.368 58.1699 48.7243C56.0455 47.6458 55.1378 45.537 55.2687 43.2344C55.2379 41.3634 55.9046 39.2116 57.2589 37.816C52.7735 35.2373 55.1015 27.5792 58.8542 25.2855C58.9972 25.1864 59.1798 25.0764 59.3867 24.9674C58.5065 23.0083 58.402 20.6354 59.1149 18.6245C60.4802 15.0221 63.3154 11.7126 67.177 10.798C68.2288 10.5844 69.3334 10.6329 70.3697 10.9223C70.9396 8.90271 72.9948 6.01024 73.6108 5.34767C75.7078 2.85586 78.8257 1.06623 82.1229 0.991375C85.056 1.18396 87.5952 3.09794 89.6525 5.06258C89.767 5.19248 89.9342 5.36965 90.1234 5.5788C90.6768 4.61688 91.6977 3.58557 92.1752 3.22893C94.9069 1.2104 98.575 0.127364 101.939 0.84389C106.333 1.85755 110.128 4.7929 112.069 8.88506C112.244 9.21743 112.543 9.84151 112.824 10.5635C113.543 10.2663 114.378 10.1056 114.874 10.0848C117.851 9.72263 120.693 11.0863 122.984 12.8826C127.204 15.9379 130.611 21.2847 131.417 26.4488C131.46 26.9034 131.544 27.7937 131.526 28.7018C132.785 29.1233 133.913 30.8172 134.602 31.7604C135.749 33.9837 137.051 36.7298 137.297 39.3833C137.297 39.3877 137.297 39.3933 137.296 39.3977C137.262 39.7411 137.225 40.0867 137.157 40.4257C137.114 40.5995 137.067 40.7712 137.009 40.9397C136.847 41.3656 136.648 41.7772 136.439 42.1822C136.317 42.4067 136.179 42.6214 136.032 42.8305C136.035 42.8268 136.038 42.8231 136.041 42.8193C136.035 42.8271 136.03 42.8348 136.025 42.8426C135.804 43.1464 135.572 43.4413 135.323 43.7231C135.142 43.9157 134.953 44.0995 134.755 44.2745C134.527 44.4616 134.287 44.6356 134.039 44.7984C133.832 44.925 133.62 45.0416 133.402 45.1495C132.81 45.4125 132.188 45.6063 131.568 45.7989C131.558 45.8022 131.547 45.8054 131.537 45.8087L131.432 45.768L131.183 45.6756L130.948 45.5897L130.724 45.5126L130.518 45.4422L130.331 45.3816L130.163 45.3277L130.014 45.2803L129.879 45.2363L129.755 45.1945L129.636 45.1527L129.52 45.1086L129.402 45.0625L129.28 45.014L129.151 44.9612L129.012 44.904L128.862 44.8435L128.699 44.7775L128.521 44.707L128.33 44.6344L128.128 44.5617L127.917 44.4891L127.702 44.4219L127.489 44.3614L127.282 44.3108L127.084 44.2678L126.895 44.2326L126.718 44.2051L126.548 44.1831L126.386 44.1644L126.229 44.1489L126.075 44.1346L125.922 44.1225L125.769 44.1104L125.614 44.0983L125.457 44.0873L125.296 44.0763L125.133 44.0663L124.968 44.0575L124.802 44.0487L124.637 44.041L124.475 44.0355L124.32 44.0311L124.171 44.0278H124.026L123.89 44.0289L123.761 44.0322L123.639 44.0366L123.523 44.0443L123.411 44.052L123.305 44.062L123.202 44.073L123.102 44.0851L123.007 44.0983L122.913 44.1137L122.822 44.1302L122.733 44.1489L122.646 44.1698L122.561 44.193L122.477 44.2194L122.395 44.248L122.315 44.2799L122.235 44.3152L122.158 44.3537L122.084 44.3944L122.011 44.4384L121.943 44.4858L121.876 44.5353L121.812 44.5859L121.75 44.6399L121.692 44.6938L121.635 44.7488L121.58 44.805L121.528 44.8622L121.476 44.9194L121.427 44.9766L121.379 45.0339L121.334 45.09L121.291 45.1428L121.25 45.1956L121.208 45.2484L121.167 45.2991L121.125 45.3497L121.083 45.4014L121.039 45.4521L120.993 45.5038L120.946 45.5566L120.897 45.6073L120.845 45.659L120.792 45.7086L120.737 45.7581L120.681 45.8065L120.621 45.8528L120.561 45.8979L120.497 45.9419L120.432 45.9837L120.366 46.0244L120.297 46.0629L120.227 46.0982L120.154 46.1323L120.079 46.1653L120.003 46.1939L119.927 46.2204L119.849 46.2446L119.77 46.2655L119.692 46.283L119.614 46.2985L119.535 46.3116L119.456 46.3215L119.378 46.3292L119.299 46.3347L119.221 46.3391L119.142 46.3424L118.981 46.3468L118.899 46.3479L118.815 46.3501L118.729 46.3512L118.555 46.3578L118.467 46.3622L118.291 46.3732L118.203 46.3798L118.115 46.3886L118.027 46.3963L117.939 46.4062L117.851 46.415L117.762 46.4248L117.672 46.4359L117.581 46.4469L117.49 46.459L117.399 46.4722L117.308 46.4865L117.216 46.5019L117.125 46.5195L117.035 46.5404L116.944 46.5635L116.854 46.59L116.765 46.6207L116.678 46.6571L116.594 46.6967L116.511 46.7407L116.432 46.7902L116.355 46.8453L116.278 46.9047L116.202 46.9696L116.126 47.0378L116.05 47.1115L115.973 47.1897L115.895 47.2722L115.815 47.3592L115.73 47.4495L115.642 47.5441L115.55 47.641L115.453 47.7411L115.353 47.8435L115.248 47.9459L115.14 48.0482L115.03 48.1494L114.918 48.2507L114.806 48.3509L114.693 48.4499L114.58 48.549L114.469 48.6469L114.36 48.7449L114.255 48.844L114.151 48.943L114.05 49.0421L113.953 49.14L113.861 49.2369L113.772 49.3327L113.685 49.4284L113.6 49.5209L113.517 49.6144L113.433 49.7057L113.351 49.796L113.266 49.8851L113.18 49.9721L113.093 50.0558L113.003 50.1372L112.909 50.2165L112.813 50.2914L112.714 50.3607L112.612 50.4245L112.509 50.4839L112.404 50.5368L112.299 50.5841L112.193 50.627L112.086 50.6656L111.98 50.7019L111.871 50.7371L111.762 50.7724L111.542 50.8406L111.431 50.8769L111.321 50.9132L111.21 50.9528L111.1 50.9935L110.991 51.0353L110.883 51.0805L110.777 51.1267L110.673 51.174L110.569 51.2235L110.467 51.2742L110.367 51.3248L110.267 51.3743L110.168 51.425L109.967 51.5263L109.866 51.5769L109.764 51.6264L109.661 51.6759L109.558 51.7255L109.455 51.7739L109.354 51.8212L109.253 51.8686L109.154 51.9159L109.057 51.9632L108.96 52.0094L108.865 52.0568L108.773 52.1019L108.681 52.1481L108.591 52.1933L108.502 52.2373L108.413 52.2803L108.324 52.321L108.234 52.3606L108.142 52.3991L108.049 52.4344L107.952 52.4674L107.851 52.5004L107.746 52.5301L107.637 52.5599L107.524 52.5874L107.408 52.6138L107.289 52.6391L107.168 52.6633L107.047 52.6875L106.923 52.7107L106.8 52.736L106.678 52.7613L106.556 52.7867L106.437 52.8142L106.319 52.8417L106.204 52.8703L106.092 52.8989L105.979 52.9275L105.869 52.9572L105.759 52.987L105.649 53.0167L105.605 53.0288C105.551 52.9908 105.498 52.9516 105.446 52.911C105.302 52.7888 105.16 52.6634 105.028 52.5269C104.896 52.3784 104.771 52.2243 104.654 52.0658C104.529 51.8787 104.417 51.6861 104.309 51.489C104.153 51.1764 104.013 50.855 103.889 50.5282C103.759 50.1771 103.638 49.826 103.547 49.4628C103.484 49.1755 103.436 48.8893 103.399 48.5988C103.38 48.3845 103.368 48.1692 103.36 47.9536C103.581 46.7854 103.996 45.6834 104.486 44.8852C105.442 43.297 106.837 41.8277 108.576 41.1376C108.067 39.7838 108.53 38.0118 108.845 36.6746C109.251 35.1909 110.119 33.7998 111.381 32.9027C109.119 30.3218 108.081 26.7096 108.358 23.3042C106.275 24.1781 102.771 24.4907 101.828 24.385C98.1131 24.1484 94.5133 22.3368 92.2601 19.3486C91.8596 18.8654 91.5824 18.3129 91.3206 17.7549C91.1028 18.2315 90.8541 18.6365 90.6439 18.8621C88.2631 21.6797 85.131 23.4286 81.3716 23.1622C79.476 23.1391 77.6772 22.449 76.0666 21.4882C75.731 21.2944 75.3614 21.1096 75.006 20.9005C74.9312 21.3936 74.83 21.8503 74.7827 22.1508C73.94 24.8374 72.4514 27.4646 69.9661 28.9262C69.1068 29.3785 68.1519 29.8683 67.1683 29.9949C67.5028 31.7339 66.912 34.0089 66.3399 35.5311C65.9449 36.6383 65.1847 37.575 64.2176 38.2254C64.3738 38.3641 64.5048 38.5259 64.5961 38.6954C65.8723 40.7767 65.5686 43.6185 64.3903 45.7152C66.1033 46.3316 66.9505 48.3688 67.0473 50.2168C67.2222 52.8868 64.683 55.0221 62.1284 55.0221C62.0425 55.0221 61.9556 55.0198 61.8687 55.0144Z" style="fill: var(--il-ne-outline);"/>
<path id="vec25" d="M110.735 73.8825C108.07 73.3867 105.375 72.9646 102.765 72.2216C100.565 71.5705 98.4079 70.6842 96.1212 70.3798C95.2449 70.3432 94.3494 70.1566 93.4794 70.278C92.2051 70.9394 93.6063 72.6231 92.2014 73.0009C90.9861 73.1891 90.954 71.634 91.1023 70.792C91.3815 69.315 92.7252 68.2246 94.2443 68.4631C97.6801 68.4746 100.856 69.824 104.104 70.7705C107.911 71.4923 111.812 72.8295 115.698 71.9124C118.766 71.2232 121.727 70.1168 124.575 68.7932C126.679 67.8873 128.714 66.7555 130.987 66.3324C133.619 65.7021 136.382 66.8796 136.614 69.8311C137.014 72.0068 134.158 71.8295 134.85 70.0608C134.222 64.7141 124.545 71.1919 121.758 71.9168C118.239 73.1703 114.516 74.4382 110.735 73.8825Z" style="fill: var(--il-ne-outline);"/>
<path id="vec26" d="M116.586 47.7721C115.877 47.6249 114.869 47.6243 114.533 46.864C114.317 46.3218 114.752 45.677 115.325 45.6543C115.651 45.6275 115.898 45.8326 116.203 45.8898C118.117 46.4437 119.973 45.596 121.383 44.3146C122.128 43.6484 122.914 42.9924 123.432 42.1246C123.695 41.7086 124.273 41.5941 124.681 41.8594C126.275 42.9782 122.479 45.7084 121.614 46.416C120.192 47.503 118.372 48.0976 116.586 47.772L116.586 47.7721Z" style="fill: var(--il-ne-outline);"/>
<path id="vec27" d="M117.895 47.4078C116.72 47.3329 116.806 45.5625 117.994 45.6049C119.641 45.7656 120.99 44.7963 122.198 43.8034C122.657 43.4292 123.072 43.0067 123.448 42.5493C123.584 41.8407 124.569 41.6041 125.037 42.148C126.153 43.4682 122.559 45.7687 121.612 46.4591C120.527 47.2055 119.193 47.4538 117.895 47.4079L117.895 47.4078Z" style="fill: var(--il-ne-outline);"/>
<path id="vec28" d="M107.252 53.8576C107.248 53.8565 107.244 53.8555 107.239 53.8544C107.069 53.8004 106.903 53.7378 106.739 53.6684C106.444 53.5319 106.16 53.379 105.882 53.2127C105.732 53.1192 105.586 53.0201 105.446 52.9101C105.301 52.789 105.16 52.6624 105.027 52.527C104.895 52.3785 104.772 52.2244 104.653 52.0648C104.53 51.8788 104.417 51.6851 104.31 51.4891C104.205 51.282 104.11 51.0709 104.02 50.8569C104.044 50.6139 104.167 50.388 104.426 50.2267C104.938 49.8304 105.739 50.1166 105.854 50.7539C106.621 51.5144 107.753 51.8501 108.792 51.5034C110.21 51.2777 111.366 50.4292 112.259 49.333C112.822 48.6329 113.388 47.9253 113.812 47.1295C114.076 46.4691 114.454 45.4433 115.358 45.779C116.157 46.0916 115.967 47.0469 115.588 47.6248C114.934 49.2173 113.815 50.5822 112.573 51.7576C111.319 52.9507 109.653 53.904 107.912 53.904C107.693 53.904 107.473 53.889 107.253 53.8574L107.252 53.8576Z" style="fill: var(--il-ne-outline);"/>
<path id="vec29" d="M117.722 47.9388C117.312 47.9069 116.897 47.842 116.499 47.7375C115.975 47.601 115.339 47.5316 114.964 47.1046C114.161 46.1976 115.561 44.9545 116.362 45.856C119.658 47.0147 122.023 44.5071 124.038 42.3229C124.766 41.4185 126.128 42.4422 125.472 43.3977C123.482 45.6623 120.977 48.1611 117.722 47.9389L117.722 47.9388Z" style="fill: var(--il-ne-outline);"/>
<path id="vec30" d="M129.263 46.1112C129.303 46.1123 129.341 46.1134 129.381 46.1145C129.305 46.1125 129.228 46.1113 129.152 46.1104C128.079 45.8159 127.049 45.3555 126.208 44.6132C125.77 44.2357 125.168 43.9033 124.991 43.331C124.722 42.6056 125.58 41.8583 126.254 42.2666C127.17 43.1251 128.125 44.0045 129.39 44.272C130.552 44.8168 131.862 44.4095 132.953 43.8746C133.24 43.6556 133.507 43.4102 133.781 43.1735C134.436 42.6577 135.182 43.1815 135.244 43.807C135.088 43.9695 134.926 44.1257 134.755 44.2753C134.527 44.4624 134.288 44.6363 134.039 44.7981C133.832 44.9258 133.621 45.0413 133.403 45.1492C132.81 45.4133 132.188 45.6071 131.568 45.7996C131.233 45.8998 130.89 45.9824 130.545 46.0451C130.291 46.0837 130.038 46.1089 129.779 46.1177C129.757 46.1179 129.734 46.1179 129.712 46.1179C129.562 46.1179 129.413 46.115 129.263 46.1111L129.263 46.1112Z" style="fill: var(--il-ne-outline);"/>
<path id="vec31" d="M129.764 46.1189H129.761C129.77 46.1189 129.78 46.1189 129.79 46.1178H129.801H129.8H129.819C129.794 46.1186 129.769 46.1188 129.745 46.1194C129.751 46.1192 129.757 46.1189 129.764 46.1189Z" style="fill: var(--il-ne-outline);"/>
<path id="vec32" d="M126.152 44.3821C125.453 43.8923 123.903 43.5875 124.45 42.4351C124.89 41.6415 125.766 42.0631 126.351 42.4329C127.095 42.7862 127.737 43.3111 128.446 43.725C129.337 44.1069 130.295 44.2577 131.242 44.0386C131.959 43.8614 132.879 43.277 133.335 44.1971C133.531 44.7148 133.342 45.0753 132.973 45.3275C132.513 45.5058 132.039 45.6531 131.568 45.7996C131.56 45.8018 131.553 45.8039 131.546 45.8061C131.113 45.8767 130.697 45.9059 130.417 45.9218C130.348 45.9247 130.278 45.9262 130.209 45.9262C128.714 45.9263 127.332 45.2533 126.152 44.3821Z" style="fill: var(--il-ne-outline);"/>
<path id="vec33" d="M124.917 43.9165C124.122 43.6943 122.707 43.7894 122.924 42.5771C123.365 41.2613 124.94 42.3024 125.882 42.2634C126.364 42.3023 126.723 42.7594 126.679 43.2352C126.595 44.1399 125.588 44.149 124.917 43.9165Z" style="fill: var(--il-ne-outline);"/>
</g>
</g>
<defs>
<linearGradient id="paint0_linear_3071_548" x1="183.43" y1="63.67" x2="183.43" y2="203.846" gradientUnits="userSpaceOnUse">
<stop style="stop-color: var(--secondary-fixed-dim);"/>
<stop offset="1" style="stop-color: var(--primary-fixed-dim);"/>
</linearGradient>
<linearGradient id="paint1_linear_3071_548" x1="171" y1="68" x2="171" y2="208" gradientUnits="userSpaceOnUse">
<stop style="stop-color: var(--secondary-fixed-dim);"/>
<stop offset="1" style="stop-color: var(--primary-fixed-dim);"/>
</linearGradient>
<linearGradient id="paint2_linear_3071_548" x1="187.09" y1="109.822" x2="187.09" y2="193.434" gradientUnits="userSpaceOnUse">
<stop style="stop-color: var(--primary-fixed);"/>
<stop offset="1" style="stop-color: var(--primary-fixed-dim);"/>
</linearGradient>
<linearGradient id="paint3_linear_3071_548" x1="116.986" y1="45.7671" x2="116.986" y2="67.6649" gradientUnits="userSpaceOnUse">
<stop style="stop-color: var(--primary-fixed);"/>
<stop offset="1" style="stop-color: var(--primary-fixed-dim);"/>
</linearGradient>
</defs>
</svg>