<svg xmlns="http://www.w3.org/2000/svg" width="369" height="217" viewBox="0 0 369 217" fill="none">
<g id="2_new 1">
<g id="Infill">
<path id="vec0" d="M336.485 158.948C336.384 159.103 336.338 159.304 336.375 159.549C332.831 164.334 328.103 167.822 323.262 171.232C318.806 174.472 314.404 177.717 309.714 180.65C298.631 187.913 286.895 193.975 274.492 198.654C269.521 201.052 264.325 202.782 259.041 204.341C251.168 206.972 243.222 209.509 235.034 210.951C225.881 212.491 215.986 212.908 207.546 208.469C202.576 205.849 197.875 202.729 192.966 199.989C188.949 196.676 184.432 194.01 179.911 191.418C176.776 189.154 173.324 187.401 170.011 185.417C166.727 183.495 163.597 181.337 160.309 179.423C156.25 177.086 152.372 174.403 148.163 172.349C148.122 172.308 148.076 172.271 148.024 172.24C146.492 171.33 144.87 170.577 143.241 169.856C141.213 168.955 139.139 167.846 136.874 167.786C134.993 167.691 133.326 168.568 131.661 169.321C129.627 170.35 127.534 171.264 125.532 172.355C122.959 173.702 120.509 175.26 118.027 176.762C117.017 177.363 115.99 177.937 114.992 178.556C114.855 178.616 114.732 178.697 114.626 178.794C112.201 175.037 109.891 171.204 107.689 167.308C101.476 157.098 96.2223 146.321 91.5521 135.31C88.9303 128.9 85.9698 122.591 84.1237 115.899C83.1324 112.751 82.0245 109.629 81.6494 106.331C81.459 105.788 81.5151 104.613 81.3523 103.691C87.774 95.8512 95.2442 88.8215 103.398 82.8374C108.248 79.0391 113.62 76.0224 118.979 73.0187C121.32 71.6331 123.992 70.4113 126.627 69.6189C133.018 67.5024 139.778 67.0632 146.453 66.6758C149.103 66.5427 151.75 66.6814 154.397 66.8189C156.323 66.919 158.248 67.0192 160.176 67.0159C168.698 67.2746 177.206 68.4335 185.439 70.648C185.831 70.9221 186.451 70.9485 186.899 71.1257C188.175 71.4856 189.45 71.8532 190.704 72.2858C198.939 74.9955 207.103 78.0068 214.671 82.286C220.008 84.8648 225.035 87.9652 229.836 91.4399C235.68 95.5639 241.267 100.626 245.808 106.225C245.657 106.411 245.533 106.622 245.444 106.855C245.088 107.709 245.152 108.676 245.007 109.568C245.092 110.494 246.41 110.629 246.753 109.8C247.088 108.996 246.546 106.928 247.941 107.136C248.708 107.738 248.183 108.979 248.154 109.906C247.895 111.094 247.916 112.375 247.843 113.561C247.972 114.342 247.454 115.473 248.337 115.911C249.85 116.395 249.644 114.533 249.626 113.591C249.701 113.065 249.657 111.48 249.886 110.324C249.98 110.119 250.047 109.876 250.091 109.613C250.091 109.613 250.092 109.612 250.092 109.611C250.332 109.048 250.72 108.8 251.36 109.261C252.078 109.659 251.936 110.713 252.121 111.455C252.121 111.458 252.122 111.462 252.123 111.467C252.147 111.68 252.246 111.885 252.409 112.03C252.779 112.37 253.384 112.341 253.764 112.028C255.221 110.252 253.726 106.562 253.101 104.573C251.894 100.693 245.37 92.8916 247.308 89.3751C249.305 86.7038 253.598 85.9906 256.405 87.7175C256.476 87.865 256.55 88.0114 256.628 88.1566C259.431 93.9899 264.96 98.3407 266.569 104.787C267.729 109.678 268.194 114.911 266.081 119.617C265.585 120.657 265.094 121.709 264.377 122.618C264.254 122.755 264.09 122.858 263.947 122.975C260.517 123.698 257.072 124.347 253.601 124.859C249.431 125.609 245.227 126.194 240.986 126.278C238.525 126.22 235.989 126.834 233.574 126.239C233.378 125.821 233.047 125.677 232.722 125.713C231.948 123.985 230.271 121.776 229.807 121.074C227.509 118 224.75 115.321 222.029 112.631C215.49 106.057 207.12 101.253 198.213 98.7215C191.087 96.8274 183.557 96.9407 176.261 97.5725C173.39 97.8928 170.545 98.3947 167.682 98.77C167.095 98.7832 166.417 98.6202 166.153 99.3224C165.975 99.7737 166.232 100.295 166.678 100.463C167.557 100.766 168.515 100.391 169.415 100.325C171.721 99.9773 174.029 99.6427 176.345 99.3565C180.63 98.87 184.961 98.9295 189.265 99.1188C201.383 99.8089 212.901 105.943 221.344 114.496C225.232 118.357 229.294 122.321 231.475 127.446C231.68 127.894 232.239 128.086 232.676 127.877C232.715 127.862 232.751 127.844 232.785 127.824C234.54 128.714 237.17 128.078 239.046 128.119C243.149 128.032 247.246 127.751 251.295 127.057C255.325 126.37 259.367 125.734 263.381 124.955C267.316 124.124 271.193 123.008 275.19 122.482C278.416 122.005 281.6 121.279 284.816 120.745C285.227 120.926 285.578 120.832 285.882 120.576C286.296 120.512 286.71 120.453 287.126 120.399C291.33 120.095 295.432 119.143 299.595 118.572C305.509 118.119 311.363 117.891 317.286 118.721C321.991 119.432 326.332 121.403 326.549 126.755C327.054 129.366 327.294 132.364 325.282 134.431C324.738 135.076 324.171 135.696 323.582 136.293C323.808 132.706 318.587 130.707 315.141 130.619C307.973 130.217 299.021 133.277 294.361 138.877C292.142 141.334 292.342 145.42 294.334 147.956C295.429 149.327 297.077 149.968 298.775 150.213C297.818 150.504 296.856 150.77 295.884 151.013C292.864 151.985 289.833 152.936 286.715 153.536C280.448 154.525 274.345 156.318 268.162 157.75C266.667 158.152 265.182 158.59 263.7 159.037C263.657 159.044 263.612 159.052 263.567 159.067C263.547 159.076 263.528 159.085 263.508 159.095C263.16 159.2 262.812 159.305 262.464 159.411C262.276 159.468 262.122 159.589 262.015 159.742C261.611 159.911 261.208 160.082 260.817 160.281C257.425 161.913 254.766 164.803 252.545 167.782C252.085 168.689 250.236 170.092 251.497 171.008C252.18 171.405 252.721 170.777 253.005 170.205C253.676 169.2 254.46 168.129 255.291 167.1C256.381 165.91 257.505 164.703 258.762 163.677C258.039 165.128 257.545 166.701 257.299 168.272C257.233 169.06 256.78 170.314 257.918 170.5C259.313 170.547 258.919 168.683 259.189 167.773C259.563 166.163 260.248 164.629 261.071 163.202C261.31 162.632 262.049 162.12 262.323 161.543C262.945 161.293 263.58 161.066 264.16 160.751C265.892 160.228 267.627 159.714 269.381 159.263C276.048 157.601 282.722 156.008 289.472 154.738C294.27 153.417 299.069 152.053 303.77 150.42C308.164 148.672 312.367 146.484 316.448 144.102C318.664 142.922 320.64 141.383 322.512 139.723C323.03 140.318 323.648 140.824 324.339 141.189C324.256 141.864 324.385 142.677 324.466 143.165C324.74 144.295 325.163 145.362 325.709 146.362C326.566 148.737 327.544 151.059 328.682 153.318C330.188 155.918 332.908 157.652 335.638 158.756C335.918 158.825 336.201 158.889 336.485 158.948H336.485Z" fill="url(#paint0_linear_3069_312)"/>
<path id="vec1" d="M165.736 65.4024C165.735 65.4508 165.737 65.4992 165.745 65.5454C164.866 65.4739 163.987 65.4101 163.109 65.3506C157.655 65.2582 152.209 64.7409 146.755 64.8641C144.258 65.005 141.75 65.147 139.253 65.376C139.252 65.3716 139.249 65.366 139.247 65.3616C138.482 62.7862 138.085 60.0467 138.148 57.3326C138.029 56.2672 138.851 53.6081 136.948 54.0373C136.052 54.439 136.542 55.6013 136.389 56.3696C136.336 57.6859 136.364 59.0078 136.479 60.3208C136.07 59.7199 135.59 59.1674 135.015 58.7249C134.075 58.0194 132.992 59.4315 133.916 60.1503C134.325 60.4607 134.655 60.8646 134.964 61.2707C135.831 62.6399 136.51 64.1246 137.199 65.5862C133.888 65.9627 130.606 66.5339 127.406 67.5013C124.197 68.3796 121.112 69.6783 118.247 71.3722C112.818 74.4264 107.291 77.5059 102.37 81.3768C99.7399 83.2611 97.2117 85.2665 94.7792 87.3753C94.8177 86.3803 94.7825 85.4206 94.8331 84.9704C94.8826 82.7516 94.8144 80.5371 94.6306 78.3326C96.7144 76.4197 98.017 67.3263 97.7991 65.8471C97.6704 64.676 95.9068 64.8664 96.0092 66.0331C95.9585 69.1182 95.3655 72.2417 94.2885 75.1518C93.6889 70.6326 92.6184 66.1773 91.1244 61.8552C90.703 60.7545 89.0593 61.3973 89.4477 62.4869C91.3323 68.22 92.7383 74.2075 92.9704 80.2785C92.9936 83.1841 93.2466 86.1195 92.7823 89.002C92.7482 89.0725 92.7207 89.1462 92.6998 89.221C88.2056 93.311 84.0392 97.7519 80.1413 102.428C79.7276 102.518 79.5296 102.849 79.4856 103.222C75.6141 107.929 72.01 112.866 68.6137 117.918C60.3921 129.729 54.3048 142.761 47.7082 155.498C46.3813 158.07 45.2856 160.738 44.313 163.456C42.5417 163.929 39.0267 168.916 38.0761 169.696C36.7614 171.119 35.5864 172.658 34.4851 174.251C33.9373 175.269 32.0064 176.874 33.3827 177.911C34.0836 178.274 34.6326 177.648 34.7536 177.022C36.0892 174.979 37.5106 172.978 39.1455 171.162C40.5526 169.652 41.8332 168.03 43.2612 166.54C42.2204 169.721 41.2875 172.941 40.2885 176.124C39.4128 178.618 39.042 181.235 38.702 183.847C38.6536 184.327 39.031 184.764 39.5052 184.806C39.5316 184.808 39.558 184.809 39.5833 184.809C40.0289 184.809 40.4238 184.457 40.4645 184.002C40.5977 182.596 40.8749 181.349 41.096 179.883C42.4965 174.693 44.0653 169.537 45.8465 164.448C47.7069 158.837 50.6796 153.733 53.3552 148.493C59.9376 134.572 67.7785 121.207 77.229 109.036C78.0552 107.896 78.9035 106.773 79.7726 105.663C79.9839 107.294 80.2347 108.92 80.6318 110.517C83.7211 122.114 88.629 133.074 93.4489 144.03C99.1632 156.772 106.331 168.807 113.668 180.678C119.722 189.39 125.614 198.44 133.687 205.456C136.862 208.125 139.821 211.201 143.377 213.361C139.152 213.357 134.929 213.36 130.705 213.361C94.7824 213.359 58.8594 213.358 22.9376 213.37C17.7172 213.372 12.4969 213.368 7.27654 213.368C7.04881 212.31 7.06422 211.212 6.94978 210.136C6.5889 205.461 6.34359 200.779 6.07842 196.098C5.35887 180.258 6.13561 164.362 8.05212 148.625C10.7003 132.931 14.6598 117.465 19.7338 102.371C21.0254 97.7332 22.8957 93.3318 24.9927 89.0063C26.7463 85.1443 28.1666 81.1424 30.3824 77.4828C33.0756 73.0968 35.4223 68.5105 38.3609 64.2764C41.4479 59.5537 44.5659 54.8441 47.8829 50.2787C51.4563 46.0842 55.6414 42.3652 59.9309 38.8498C64.4988 35.3928 69.5795 32.5653 75.1199 31.0222C78.2092 30.0702 81.4471 29.1193 84.7047 29.6244C85.2823 29.6343 86.092 30.0118 86.7136 29.9722C88.9646 30.5951 90.9372 31.9896 92.8174 33.3467C96.2114 35.6305 98.5108 39.1129 100.706 42.4907C103.899 47.9619 109.03 52.3633 115.192 54.0516C115.653 54.1991 116.17 53.8657 116.289 53.4056C116.523 52.4095 115.384 52.2301 114.681 52.0088C113.846 51.7986 113.055 51.4618 112.287 51.0777C108.687 49.2848 105.506 46.5762 103.27 43.1774C103.014 42.7878 102.759 42.3949 102.503 42.0008C104.128 42.8494 105.963 43.0872 107.761 43.3062C107.885 43.2984 108.035 43.3018 108.201 43.3095C109.625 43.4415 111.065 43.4008 112.492 43.3733C112.839 43.3557 113.229 43.3436 113.547 43.1895C113.608 43.1609 113.665 43.1257 113.714 43.086C114.368 42.9473 115.018 42.7976 115.664 42.6271C116.097 42.5126 116.526 42.3563 116.941 42.1824C117.371 42.0041 117.803 41.828 118.226 41.6321C118.686 41.4185 119.138 41.1984 119.579 40.9475C120.02 40.6965 120.437 40.4148 120.851 40.122C121.642 39.5608 122.328 38.8453 122.974 38.1277C123.607 37.4255 124.168 36.6595 124.707 35.8868C124.976 35.5038 125.241 35.1164 125.482 34.7158C125.728 34.3063 125.978 33.8881 126.163 33.4478C126.357 32.9834 126.532 32.5167 126.653 32.0259C126.784 31.4976 126.885 30.9626 126.941 30.4212C126.997 29.8852 126.99 29.3426 126.91 28.811C126.953 28.7922 126.997 28.7757 127.041 28.7582C127.443 28.6261 127.849 28.5237 128.263 28.4346C128.74 28.3564 129.216 28.3003 129.695 28.2585C130.201 28.231 130.707 28.2166 131.215 28.22C131.657 28.2233 132.098 28.2463 132.54 28.2705C132.767 28.2915 132.997 28.3003 133.222 28.3366C133.467 28.3762 133.712 28.4148 133.957 28.4544C134.203 28.5105 134.448 28.5667 134.693 28.6228C134.925 28.6767 135.152 28.7582 135.38 28.8275C135.809 28.9573 136.233 29.1037 136.658 29.249C137.583 29.5836 138.502 29.9326 139.419 30.2902C140.299 30.6336 141.161 31.0122 142.017 31.4117C142.397 31.6099 142.777 31.8035 143.149 32.0138C143.582 32.2581 144.014 32.5025 144.443 32.7512C144.9 33.0153 145.352 33.2872 145.803 33.5602C146.152 33.7726 146.489 34.0015 146.829 34.225C147.422 34.6366 148.01 35.0537 148.595 35.4785C149.138 35.8747 149.652 36.3095 150.167 36.7421C150.529 37.0778 150.887 37.4135 151.231 37.7657C151.587 38.131 151.936 38.5019 152.281 38.8795C152.944 39.6081 153.605 40.3378 154.258 41.0763C155.103 42.0823 155.916 43.1103 156.693 44.1712C156.897 44.4762 157.104 44.7788 157.298 45.0914C157.521 45.4557 157.745 45.82 157.971 46.1843C158.403 46.8832 158.847 47.5766 159.255 48.2898C160.053 49.6887 160.807 51.1074 161.534 52.5448C162.149 53.7786 162.743 55.0168 163.204 56.3166L163.214 56.3452C163.222 56.3672 163.23 56.3882 163.237 56.4101C163.257 56.4718 163.288 56.5565 163.318 56.6413L163.331 56.6787C163.35 56.7481 163.375 56.8174 163.4 56.8845C163.746 57.9246 164.078 58.968 164.431 60.0059C164.382 60.7554 164.969 61.7702 165.09 62.4207C165.28 63.0612 165.506 63.7084 165.633 64.3687C165.623 64.4458 165.62 64.5283 165.627 64.6186C165.657 64.7694 165.69 64.9202 165.725 65.0699C165.734 65.1799 165.737 65.2911 165.736 65.4022L165.736 65.4024Z" fill="url(#paint1_linear_3069_312)"/>
<path id="vec2" d="M111.748 31.4063C114.267 31.7321 114.232 26.678 112.03 26.3369C110.983 26.3105 110.028 27.3451 110.145 28.4094C110.176 29.5386 110.532 31.0386 111.748 31.4063ZM119.11 31.0871C121.33 31.1026 121.214 26.0067 119.029 26.0242C116.487 26.1794 116.785 30.8197 119.11 31.0871ZM125.151 29.2689C125.163 29.3856 125.172 29.5022 125.177 29.62C125.176 29.8423 125.163 30.0625 125.142 30.2847C125.082 30.7558 124.993 31.2181 124.882 31.6792C124.811 31.9169 124.734 32.1503 124.651 32.3847C124.497 32.7457 124.327 33.0936 124.141 33.4402C123.72 34.1391 123.264 34.8105 122.789 35.473C122.261 36.1786 121.706 36.8521 121.102 37.4927C120.701 37.8922 120.286 38.2654 119.846 38.6209C119.526 38.8465 119.204 39.0622 118.874 39.2724C118.554 39.4551 118.233 39.6378 117.899 39.7941C117.546 39.957 117.193 40.1166 116.839 40.2729C116.317 40.4886 115.796 40.69 115.259 40.8672C114.384 41.095 113.501 41.2888 112.615 41.467C112.523 41.4858 112.437 41.5188 112.359 41.565C112.182 41.5705 112.004 41.5771 111.825 41.5826C111.752 41.5595 111.674 41.5463 111.592 41.5463C111.476 41.5463 111.362 41.5661 111.258 41.6024C111.115 41.6068 110.972 41.6101 110.829 41.6134C110.328 41.3735 109.534 41.5562 108.99 41.5463C107.441 41.5121 105.875 41.2799 104.386 40.854C103.286 40.3586 102.123 39.8986 101.198 39.1117C101.169 39.0456 101.131 38.9796 101.082 38.9146C100.289 37.9802 99.9998 36.7905 99.464 35.7294C99.4552 35.7184 99.4464 35.7074 99.4387 35.6964C99.42 35.5302 99.4112 35.3651 99.4045 35.1989C99.4298 34.2898 99.5487 33.3862 99.6465 32.4837C99.6938 32.1359 99.7599 31.7969 99.839 31.4557C99.9633 31.0011 100.103 30.5564 100.265 30.1151C100.398 29.7872 100.542 29.4658 100.702 29.1488C100.871 28.8528 101.05 28.5688 101.242 28.287C101.461 28.0009 101.687 27.729 101.93 27.4637C102.588 26.8199 103.277 26.2112 103.987 25.6246C104.242 25.4188 104.498 25.2074 104.772 25.0259C105.051 24.8409 105.331 24.6615 105.615 24.4866C106.47 23.9913 107.349 23.5422 108.252 23.1427C109.01 22.8378 109.772 22.5484 110.555 22.3118C110.897 22.2271 111.236 22.1621 111.585 22.1093C112.396 21.9981 113.202 21.8572 114.012 21.7296C114.434 21.679 114.853 21.6437 115.278 21.6283C115.954 21.6306 116.623 21.6646 117.297 21.7296C117.62 21.778 117.94 21.833 118.261 21.8969C118.516 21.9651 118.765 22.0377 119.017 22.1192C119.266 22.2215 119.507 22.3283 119.75 22.4439C120.438 22.8302 121.089 23.2693 121.738 23.7206C122.069 23.9671 122.388 24.2225 122.699 24.4954C122.956 24.7485 123.198 25.0071 123.429 25.2823C123.558 25.4639 123.682 25.6466 123.802 25.8338C124.117 26.383 124.396 26.9432 124.652 27.5221C124.794 27.8787 124.92 28.2342 125.028 28.6029C125.075 28.8252 125.117 29.0453 125.151 29.2688L125.151 29.2689Z" fill="url(#paint2_linear_3069_312)"/>
<path id="vec3" d="M226.705 73.558C226.192 76.7674 224.935 79.8866 224.151 83.0454C224.103 83.5693 223.701 84.3607 223.535 85.0606C221.49 83.829 219.397 82.6778 217.254 81.6179C208.262 76.5231 198.601 72.7733 188.723 69.7895C188.829 69.5341 188.904 69.2568 188.974 69.0257C189.668 67.2526 190.158 65.4201 190.658 63.5864C191.066 63.9728 191.555 64.2886 191.995 64.4746C197.742 66.9643 203.874 68.4666 209.958 69.8865C212.78 70.6514 215.618 71.3271 218.457 72.0228C221.194 72.5786 223.9 73.4492 226.704 73.5582L226.705 73.558Z" fill="url(#paint3_linear_3069_312)"/>
<path id="vec4" d="M267.536 49.4664C268.228 50.0674 269.212 51.4596 268.191 52.1729C267.544 52.5515 266.818 52.7407 266.089 52.9003C261.898 51.0986 255.107 52.2025 251.203 52.1332C247.779 52.1904 244.341 52.2091 240.922 52.0341C240.458 51.9615 240.008 52.3115 239.932 52.7693C239.823 53.3988 240.403 53.8798 241.007 53.8138C242.409 53.893 243.814 53.9348 245.22 53.9172C248.426 53.9712 251.627 53.9238 254.83 53.8027C257.111 53.7533 261.915 53.3152 264.93 54.3662C265.139 54.7075 265.491 54.8098 265.897 54.7922C266.542 55.1521 267.039 55.6221 267.321 56.2307C267.577 57.2654 266.125 57.4855 265.455 57.896C262.879 59.1749 259.834 59.3631 257 59.6295C249.49 60.6817 241.93 61.1615 234.352 61.2937C231.595 61.3916 228.85 61.68 226.109 61.9827C223.085 62.1532 221.803 63.6446 220.935 66.4391C220.614 67.838 219.875 69.0817 219.525 70.474C215.746 69.588 212.002 68.516 208.225 67.6553C204.855 66.8783 201.515 65.989 198.23 64.9038C198.301 64.7981 198.351 64.677 198.375 64.546C198.639 63.4938 199.02 62.4747 199.298 61.4269C199.937 58.8591 200.893 56.3772 202.102 54.0241C203.139 52.1102 204.291 50.2974 205.742 48.6619C208.026 46.6115 210.812 45.1366 213.602 43.8918C219.368 41.9217 225.284 40.4326 231.143 38.764C234.006 38.151 237.044 36.7378 239.977 37.5985C241.056 37.9859 241.936 38.8246 242.145 39.9648C239.306 40.5393 236.483 41.061 233.588 41.6092C233.364 41.6565 233.139 41.7093 232.916 41.7621C232.875 41.3692 232.719 40.9895 232.41 40.6439C231.555 39.9572 230.386 41.104 231.124 41.9416C229.611 46.7018 221.184 49.4864 216.603 49.7901C215.414 49.8166 214.224 49.8397 213.047 49.6658C212.564 49.5876 212.095 49.9365 212.021 50.4186C211.916 51.7261 213.584 51.506 214.459 51.6006C220.285 51.7867 226.342 49.7758 230.706 45.873C231.246 45.3194 231.947 44.5292 232.416 43.6783C232.469 43.6739 232.522 43.6674 232.578 43.6541C233.456 43.4538 234.334 43.248 235.22 43.0873C240.209 42.3422 245.092 40.7551 250.175 40.8751C252.07 41.0478 254.518 40.5933 255.872 42.2233C255.751 42.3455 255.678 42.4864 255.648 42.6316C251.019 42.6823 246.39 42.7593 241.786 43.27C240.638 43.1511 240.41 44.8262 241.528 45.0387C244.327 44.8857 247.142 44.5235 249.962 44.4983C252.158 44.4278 254.356 44.4883 256.552 44.408C258.624 44.5059 262.503 43.8565 262.88 46.6775C261.935 46.6565 260.989 46.6599 260.063 46.6169C257.201 46.6455 254.339 46.6786 251.48 46.858C248.873 47.0099 246.279 47.3389 243.66 47.3026C243.062 47.3093 242.464 47.2982 241.866 47.2828C241.334 47.0462 240.659 47.3928 240.548 48.0015C240.482 49.571 242.572 48.958 243.574 49.0812C247.36 49.0878 251.116 48.5617 254.9 48.4682C257.588 48.5816 265.822 47.8507 267.536 49.4665L267.536 49.4664Z" fill="url(#paint4_linear_3069_312)"/>
<path id="vec5" d="M309.142 111.9C309.498 113.384 309.77 114.954 310.271 116.409C305.35 116.34 300.399 116.429 295.564 117.378C292.738 117.979 289.869 118.306 287.001 118.619C287.257 117.944 287.464 117.281 287.658 116.904C289.295 112.954 288.532 108.576 286.703 104.835C284.185 98.6841 280.04 93.3339 277.807 87.0494C276.588 82.7537 274.949 75.9584 280.103 73.6218C284.951 72.1271 291.714 73.1188 296.307 75.1935C296.351 75.2122 296.395 75.2321 296.439 75.2518C295.072 76.5825 296.144 80.4424 297.604 83.272C300.105 87.9486 303.226 92.394 306.962 96.1603C307.121 96.2813 307.282 96.3419 307.438 96.354C306.987 101.561 307.94 106.839 309.142 111.9Z" fill="url(#paint5_linear_3069_312)"/>
<path id="vec6" d="M284.612 104.532C287.197 109.795 287.586 113.65 284.883 118.931C280.372 119.683 275.892 120.617 271.371 121.313C269.822 121.675 268.271 122.031 266.719 122.375C267.45 121.102 268.019 119.584 268.312 118.774C269.224 115.936 269.664 112.953 269.257 109.984C268.923 107.095 268.516 104.155 267.345 101.47C265.655 97.2577 261.774 93.4463 259.293 89.3376C260.138 88.5506 259.056 87.6768 258.477 87.1209C258.294 86.9272 258.101 86.7479 257.9 86.5827C256.903 84.0711 256.663 81.4032 257.911 78.437C260.303 74.2756 265.957 71.6924 270.649 73.0362C270.203 74.3394 270.426 75.8516 270.684 77.1757C271.383 80.7847 273.119 84.1437 275.625 86.8271C275.72 86.9438 275.824 87.0274 275.933 87.0825C276.236 88.0675 276.582 89.024 276.954 89.9254C279.326 94.8881 282.305 99.5349 284.612 104.532Z" fill="url(#paint6_linear_3069_312)"/>
<path id="vec7" d="M311.944 132.441C316.882 131.814 326.434 134.372 319.06 139.817C318.278 139.812 317.959 140.41 318.069 140.916C315.987 142.375 313.781 143.663 311.516 144.833C309.718 145.815 307.883 146.719 306.013 147.538C306.049 147.417 306.079 147.291 306.103 147.16C306.302 145.837 305.304 144.648 304.359 143.842C301.731 141.66 298.124 141.272 294.832 141.602C297.346 136.158 306.28 132.959 311.944 132.441Z" style="fill: var(--primary-fixed-dim);"/>
<path id="vec8" d="M300.909 143.922C304.476 145.262 306.128 148.302 301.007 148.526C297.544 148.72 294.69 147.278 294.585 143.484C296.671 143.126 298.889 143.295 300.909 143.922L300.909 143.922Z" style="fill: var(--primary-fixed-dim);"/>
<path id="vec9" d="M328.529 103.321C327.993 104.812 327.398 106.315 327.334 107.91C327.238 108.155 327.222 108.371 327.261 108.553C326.337 109.043 325.38 109.465 324.45 109.936C323.638 110.354 322.85 110.82 322.028 111.215C320.204 111.634 318.611 112.765 317.51 114.824C317.326 115.323 316.963 116.128 316.884 116.832C315.687 116.664 314.452 116.55 313.207 116.462C312.867 116.455 312.527 116.448 312.187 116.44C312.163 116.38 312.14 116.319 312.117 116.259C311.88 115.614 311.693 114.948 311.51 114.284C311.071 112.537 310.73 110.758 310.326 109.002C309.197 103.513 308.258 97.0706 310.305 91.716C310.375 91.5432 310.451 91.3726 310.532 91.2053C310.637 91.2108 310.752 91.1999 310.881 91.169C311.447 91.0083 311.53 90.4569 311.389 89.7713C313.215 87.2486 316.253 85.6164 319.4 85.7341C321.499 85.6362 323.472 86.2327 325.19 87.3268C325.156 87.362 325.124 87.4005 325.093 87.4434C323.373 92.1772 325.856 99.2586 328.529 103.321H328.529Z" fill="url(#paint7_linear_3069_312)"/>
<path id="vec10" d="M332.076 97.8433C331.894 98.0931 331.713 98.344 331.531 98.5939C331.294 99.0165 330.886 99.3973 330.706 99.853C330.232 100.325 329.795 100.836 329.43 101.392C328.969 100.598 328.578 99.7617 328.158 98.9472C326.926 95.6618 325.762 92.0309 326.587 88.5133C326.607 88.4803 326.625 88.4484 326.641 88.4154C326.708 88.4748 326.775 88.5343 326.841 88.5948C328.751 89.9651 330.077 92.1542 330.968 94.3268C331.288 95.1479 331.587 95.9777 331.814 96.8285C331.872 97.1631 331.927 97.5483 332.076 97.8433Z" style="fill: var(--primary-fixed-dim);"/>
<path id="vec11" d="M309.124 88.7917C309.236 88.9821 309.318 89.2342 309.394 89.5027C308.703 90.6286 308.182 91.8998 307.874 93.2943C307.801 93.6575 307.735 94.0218 307.678 94.3872C306.49 93.236 305.534 91.858 304.48 90.5857C302.487 88.0796 300.731 85.3841 299.233 82.5533C298.476 80.8924 297.735 79.2514 297.56 77.4045C297.316 75.7283 299.064 76.9114 299.813 77.2559C299.835 77.267 299.859 77.2791 299.882 77.2912C302.221 79.0389 304.202 81.2765 306.093 83.5053C307.396 85.0814 308.328 86.9195 309.124 88.7917Z" style="fill: var(--primary-fixed-dim);"/>
<path id="vec12" d="M349.739 175.503C353.669 172.844 348.476 181.667 347.98 182.57C345.641 186.502 342.612 189.729 339.402 193.011C337.504 194.971 335.49 196.982 332.913 198.008C332.694 197.506 332.876 196.972 333.063 196.492C333.94 193.684 335.981 191.523 337.492 189.057C338.156 188.153 338.861 187.277 339.578 186.415C339.775 186.178 339.826 185.863 339.744 185.584C340.601 184.242 341.717 183.11 342.8 181.955C344.895 179.599 347.135 177.297 349.739 175.503L349.739 175.503Z" style="fill: var(--secondary-fixed);"/>
<path id="vec13" d="M346.456 132.764C352.666 136.24 355.221 141.042 351.413 147.61C349.874 150.547 348.019 153.356 344.354 153.423C339.893 153.615 335.002 153.281 331.47 150.243C329.978 149.044 328.453 147.532 327.427 145.801C327.278 145.397 327.127 144.995 326.976 144.597C326.899 144.402 326.782 144.263 326.647 144.172C326.366 143.405 326.199 142.605 326.182 141.778C327.173 141.908 328.098 141.806 328.957 141.527C329.214 141.578 329.497 141.532 329.73 141.384C331.561 140.877 333.298 140.114 335.015 139.31C335.524 139.111 336.048 138.965 336.562 138.787C336.671 138.748 336.764 138.696 336.841 138.636C337.718 138.357 338.521 136.814 338.973 136.194C339.99 134.647 340.793 132.973 341.353 131.225C341.686 131.489 342.085 131.296 342.462 131.328C343.894 131.452 345.191 132.131 346.456 132.764L346.456 132.764Z" style="fill: var(--secondary-fixed);"/>
<path id="vec14" d="M335.182 123.521C335.785 126.497 335.762 129.644 334.614 132.494C333.053 135.9 329.944 141.333 325.471 139.728C324.943 139.522 324.492 139.182 324.097 138.778C324.014 138.702 323.935 138.605 323.853 138.503C324.2 138.179 324.543 137.854 324.885 137.528C327.949 134.72 329.333 131.782 328.512 127.597C328.202 120.745 324.002 118.204 318.687 117.137C318.701 116.959 318.727 116.784 318.772 116.608C319.313 114.784 320.393 113.71 321.72 113.2H321.722C322.015 113.182 322.328 113.082 322.645 112.943C324.54 112.589 326.756 113.164 328.602 114.23C331.553 115.768 334.73 120.216 335.182 123.521L335.182 123.521Z" style="fill: var(--secondary-fixed);"/>
<path id="vec15" d="M337.194 98.7766C347.082 96.8483 350.189 109.207 347.732 116.662C346.833 118.937 345.487 121.118 343.447 122.53C343.092 122.753 342.543 122.914 342.16 123.176C342.158 123.15 342.155 123.122 342.151 123.096C341.511 118.754 339.216 114.804 335.945 111.911C334.353 110.119 332.035 109.238 329.82 108.476C329.562 108.385 329.326 108.323 329.109 108.286C329.111 108.245 329.111 108.201 329.109 108.157C329.135 106.966 329.554 105.838 329.937 104.723C330.794 101.205 333.745 99.2973 337.194 98.7767L337.194 98.7766Z" style="fill: var(--secondary-fixed);"/>
<path id="vec16" d="M333.281 111.984C332.694 112.313 332.102 112.954 331.53 113.092C331.149 113.124 330.782 113.118 330.518 113.292C329.662 112.682 328.732 112.174 327.722 111.804C327.1 111.571 326.475 111.385 325.857 111.255C326.606 110.892 327.363 110.541 328.101 110.153C328.248 110.149 328.416 110.117 328.598 110.046C330.244 110.386 331.836 111.118 333.281 111.984Z" style="fill: var(--secondary-fixed-dim);"/>
<path id="vec17" d="M338.065 117.122C337.715 117.255 337.357 117.507 337.069 117.73C336.514 118.104 336.004 118.553 335.418 118.879C335.404 118.883 335.39 118.886 335.377 118.892C334.509 117.384 333.466 115.951 332.229 114.735C332.537 114.624 332.83 114.468 333.095 114.288C333.531 113.96 334.305 113.621 334.634 113.138C335.381 113.857 336.092 114.619 336.792 115.382C337.261 115.933 337.686 116.515 338.065 117.122Z" style="fill: var(--secondary-fixed-dim);"/>
<path id="vec18" d="M340.453 124.975C339.893 124.96 339.232 125.123 338.764 125.088C338.326 125.104 337.726 125.096 337.301 125.286C337.139 123.644 336.762 122.024 336.192 120.494C336.679 120.246 337.16 119.839 337.519 119.6C337.927 119.312 338.338 119.028 338.761 118.762C338.815 118.737 338.866 118.709 338.915 118.676C339.848 120.64 340.36 122.794 340.453 124.975Z" style="fill: var(--secondary-fixed-dim);"/>
<path id="vec19" d="M340.432 126.796C340.401 127.279 340.349 127.762 340.277 128.241C340.061 129.506 339.679 130.731 339.182 131.911C338.42 131.734 337.642 131.476 336.857 131.397C337.235 129.935 337.406 128.419 337.39 126.902C337.963 127.069 338.807 126.803 339.377 126.849C339.681 126.824 340.069 126.836 340.432 126.796Z" style="fill: var(--secondary-fixed-dim);"/>
<path id="vec20" d="M338.404 133.558C337.995 134.343 337.544 135.106 337.066 135.844C336.856 136.252 336.368 136.643 336.036 137.06C336.016 137.065 335.996 137.071 335.976 137.077C335.114 137.314 334.295 137.659 333.483 138.024C334.659 136.505 335.59 134.749 336.28 133.18C336.335 133.178 336.391 133.171 336.45 133.159C337.107 133.219 337.762 133.388 338.404 133.558L338.404 133.558Z" style="fill: var(--secondary-fixed-dim);"/>
<path id="vec21" d="M355.583 121.125C356.942 122.942 357.95 125.062 357.862 127.377C357.599 130.305 356.87 133.334 355.036 135.693C354.661 136.163 354.226 136.572 353.762 136.947C353.615 136.759 353.47 136.569 353.327 136.377C353.252 136.214 353.156 136.092 353.049 136.005C351.915 134.448 350.414 133.117 348.846 132.1C346.739 130.875 344.323 129.337 341.802 129.595C342.166 128.003 342.331 126.366 342.276 124.725C342.591 124.849 342.984 124.787 343.408 124.612C343.433 124.605 343.459 124.597 343.484 124.586C343.479 124.59 343.474 124.592 343.469 124.594C343.48 124.589 343.492 124.584 343.505 124.579C343.498 124.582 343.491 124.584 343.484 124.586C343.517 124.57 343.55 124.552 343.582 124.535C343.583 124.535 343.585 124.534 343.587 124.532C343.722 124.469 343.86 124.394 343.999 124.312C346.828 122.764 349.329 120.622 351.548 118.248C351.869 118.416 352.262 118.538 352.569 118.678C353.778 119.2 354.844 120.03 355.583 121.125L355.583 121.125Z" style="fill: var(--secondary-fixed);"/>
<path id="vec22" d="M336.965 95.3735C338.101 94.9761 339.291 94.8132 340.484 94.8308C340.264 95.1963 340.026 95.5518 339.729 95.8533C339.385 96.0261 339.079 96.3827 339.071 96.7757C337.548 96.7713 335.993 97.0464 334.558 97.5604C335.004 96.9771 335.423 96.3751 335.906 95.8214C335.907 95.8204 335.908 95.8192 335.909 95.8181C336.262 95.6959 336.622 95.4603 336.965 95.3735Z" style="fill: var(--secondary-fixed-dim);"/>
<path id="vec23" d="M347.195 97.1278C346.613 97.5846 346.071 98.1074 345.407 98.4409C345.238 98.4673 345.08 98.529 344.946 98.6203C344.486 98.2802 343.996 97.9776 343.475 97.7145C342.748 97.3657 341.961 97.1191 341.141 96.9672C341.68 96.3806 342.149 95.5474 342.437 95.0103C342.567 95.0312 342.697 95.0543 342.827 95.0796C344.422 95.4604 345.904 96.167 347.195 97.1279L347.195 97.1278Z" style="fill: var(--secondary-fixed-dim);"/>
<path id="vec24" d="M350.864 101.538C351.151 101.925 351.404 102.33 351.625 102.75C350.64 102.93 349.668 103.199 348.664 103.235C348.079 102.023 347.333 100.9 346.423 99.9344C347.171 99.5184 347.942 98.803 348.385 98.4761C348.454 98.4243 348.513 98.3693 348.56 98.311C349.491 99.2454 350.273 100.334 350.864 101.538Z" style="fill: var(--secondary-fixed-dim);"/>
<path id="vec25" d="M353.172 108.934C353.188 109.268 353.195 109.602 353.189 109.937C352.836 109.892 352.423 109.983 352.084 110.062C351.602 110.201 350.868 110.125 350.294 110.24C350.289 110.03 350.282 109.821 350.272 109.613C350.19 108.064 349.893 106.474 349.374 104.963C350.345 104.863 351.302 104.611 352.264 104.456C352.293 104.455 352.32 104.454 352.348 104.45C352.829 105.889 353.056 107.423 353.172 108.934Z" style="fill: var(--secondary-fixed-dim);"/>
<path id="vec26" d="M353.058 111.716C353.041 111.842 353.022 111.969 353.002 112.094C352.855 112.63 352.615 113.318 352.944 113.74C352.415 114.663 351.674 115.444 350.968 116.236C350.349 116.946 349.702 117.63 349.027 118.282C349.891 116.324 350.228 114.171 350.294 112.014C350.756 112.058 351.307 111.937 351.72 111.92C352.093 111.854 352.614 111.831 353.058 111.715L353.058 111.716Z" style="fill: var(--secondary-fixed-dim);"/>
<path id="vec27" d="M357.564 117.227C357.495 117.245 357.427 117.274 357.364 117.312C356.753 117.702 356.138 118.084 355.447 118.317C355.448 118.319 355.45 118.321 355.452 118.324C355.442 118.328 355.433 118.332 355.424 118.338C355.151 118.112 354.866 117.901 354.568 117.708C354.019 117.349 353.413 117.094 352.81 116.841C353.165 116.431 353.512 116.015 353.851 115.596C354.021 115.654 354.225 115.664 354.455 115.604C355.499 115.942 356.562 116.509 357.564 117.227Z" style="fill: var(--secondary-fixed-dim);"/>
<path id="vec28" d="M361.75 121.827C361.476 121.852 361.199 121.966 360.992 122.153C360.363 122.671 359.607 122.94 358.88 123.253C358.354 122 357.665 120.78 356.796 119.725C357.292 119.495 357.757 119.173 358.218 118.901C358.502 118.726 358.682 118.434 358.69 118.122C359.925 119.201 361.003 120.492 361.75 121.827Z" style="fill: var(--secondary-fixed-dim);"/>
<path id="vec29" d="M362.454 123.405C363.207 125.913 363.126 128.058 362.482 130.099C361.724 129.812 360.92 129.627 360.173 129.307C359.969 129.196 359.73 129.102 359.49 129.047C359.686 127.692 359.727 126.322 359.445 124.983C360.388 124.712 361.4 123.995 362.101 123.576C362.233 123.551 362.353 123.49 362.454 123.405Z" style="fill: var(--secondary-fixed-dim);"/>
<path id="vec30" d="M361.828 131.768C361.237 133.039 360.45 134.297 359.537 135.608C359.483 135.673 359.429 135.738 359.375 135.803C358.896 135.361 358.405 134.866 357.82 134.64C358.338 133.596 358.729 132.482 359.033 131.368C359.076 131.189 359.117 131.008 359.158 130.827C360.038 131.169 360.937 131.461 361.828 131.768Z" style="fill: var(--secondary-fixed-dim);"/>
<path id="vec31" d="M357.345 136.428C357.629 136.642 357.899 136.872 358.164 137.109C357.43 137.819 356.622 138.449 355.719 138.933C355.641 138.969 355.558 139.007 355.473 139.044C355.283 138.813 355.09 138.582 354.9 138.352C355.095 138.181 355.279 138.014 355.446 137.889C355.981 137.402 356.448 136.857 356.86 136.271C356.952 136.301 357.055 136.317 357.17 136.314C357.228 136.351 357.286 136.388 357.345 136.428Z" style="fill: var(--secondary-fixed-dim);"/>
<path id="vec32" d="M356.472 143.386C356.954 144.46 357.259 145.663 356.981 146.834C356.899 147.115 356.811 147.393 356.713 147.67C356.037 147.083 355.324 146.537 354.615 145.989C354.492 145.873 354.365 145.799 354.238 145.757C354.644 144.624 354.918 143.509 355.006 142.493C355.046 142.11 355.057 141.731 355.042 141.357C355.514 141.949 355.97 142.558 356.379 143.216C356.4 143.245 356.422 143.273 356.444 143.297C356.452 143.327 356.461 143.356 356.472 143.386Z" style="fill: var(--secondary-fixed-dim);"/>
<path id="vec33" d="M353.544 147.438C354.38 148.072 355.21 148.722 355.986 149.428C355.358 150.733 354.556 151.96 353.604 153.043C353.022 152.223 352.414 151.386 351.641 150.767C352.351 149.738 353.005 148.599 353.544 147.438L353.544 147.438Z" style="fill: var(--secondary-fixed-dim);"/>
<path id="vec34" d="M351.355 151.171C351.226 151.408 351.097 151.645 350.967 151.882C350.861 151.995 350.753 152.109 350.646 152.223C350.624 152.207 350.603 152.192 350.581 152.177C351.229 152.835 351.784 153.579 352.33 154.324C351.299 155.239 350.137 155.995 348.865 156.534C348.802 156.422 348.73 156.331 348.653 156.26C348.67 156.127 348.654 155.981 348.595 155.826C348.384 155.338 348.165 154.851 347.964 154.358C348.415 154.144 348.847 153.883 349.258 153.563C349.971 152.914 350.685 152.094 351.355 151.171Z" style="fill: var(--secondary-fixed-dim);"/>
<path id="vec35" d="M347.196 156.83C347.183 156.915 347.181 157.005 347.196 157.098C346.971 157.155 346.745 157.205 346.515 157.249C344.98 157.613 343.392 157.751 341.799 157.727C341.793 157.693 341.784 157.659 341.773 157.625C341.544 156.849 341.352 156.041 341.136 155.25C342.813 155.302 344.589 155.332 346.242 154.948C346.478 155.487 346.818 156.035 346.932 156.458C346.997 156.619 347.089 156.742 347.196 156.83Z" style="fill: var(--secondary-fixed-dim);"/>
<path id="vec36" d="M339.19 155.116C339.535 155.914 339.696 156.781 339.925 157.627C338.804 157.527 337.69 157.357 336.6 157.142C336.455 157.096 336.311 157.048 336.168 156.997C336.166 156.989 336.164 156.98 336.162 156.971C335.92 156.176 335.908 155.319 335.799 154.491C336.905 154.796 338.049 154.996 339.19 155.116Z" style="fill: var(--secondary-fixed-dim);"/>
<path id="vec37" d="M333.918 154.037C334.027 154.712 334.091 155.396 334.189 156.074C332.99 155.378 331.896 154.484 330.97 153.481C330.432 152.699 329.965 151.872 329.544 151.015C330.558 151.887 331.66 152.66 332.801 153.323C333.128 153.496 333.462 153.655 333.804 153.8C333.829 153.878 333.867 153.957 333.918 154.037Z" style="fill: var(--secondary-fixed-dim);"/>
<path id="vec38" d="M355.337 178.259C355.352 178.337 355.378 178.418 355.416 178.499C355.13 179.612 354.788 180.71 354.391 181.791C353.759 181.207 353.097 180.655 352.433 180.106C352.197 179.912 351.925 179.671 351.624 179.545C351.844 179.079 352.054 178.608 352.254 178.133C352.511 177.511 352.817 176.807 352.949 176.103C353.766 176.796 354.553 177.527 355.337 178.259Z" style="fill: var(--secondary-fixed-dim);"/>
<path id="vec39" d="M353.559 183.452C353.6 183.494 353.642 183.53 353.684 183.562C353.279 184.501 352.832 185.421 352.346 186.32C351.481 185.416 350.272 184.065 349.302 183.808C349.841 182.943 350.349 182.058 350.823 181.156C350.874 181.184 350.928 181.206 350.982 181.223C351.877 181.922 352.734 182.672 353.559 183.452Z" style="fill: var(--secondary-fixed-dim);"/>
<path id="vec40" d="M350.41 186.877C350.718 187.178 351.076 187.53 351.438 187.898C350.748 189.028 349.995 190.116 349.179 191.156C348.692 190.581 348.194 190.016 347.679 189.464C347.288 189.043 346.875 188.649 346.454 188.258C346.389 188.2 346.321 188.156 346.251 188.123C346.979 187.209 347.673 186.268 348.33 185.302C348.476 185.473 348.692 185.585 348.963 185.583C349.473 185.979 349.941 186.436 350.411 186.877L350.41 186.877Z" style="fill: var(--secondary-fixed-dim);"/>
<path id="vec41" d="M347.873 192.377C347.93 192.436 347.988 192.486 348.047 192.527C347.304 193.476 346.514 194.39 345.677 195.256C345.048 194.554 344.427 193.844 343.809 193.133C343.523 192.771 343.145 192.275 342.714 192.107C343.554 191.255 344.365 190.374 345.144 189.464C345.146 189.467 345.149 189.471 345.152 189.475C346.126 190.379 347.015 191.362 347.873 192.377Z" style="fill: var(--secondary-fixed-dim);"/>
<path id="vec42" d="M342.073 193.821C342.836 194.728 343.616 195.619 344.407 196.502C343.342 197.488 342.207 198.399 341.001 199.216C340.968 199.237 340.934 199.258 340.901 199.279C340.379 198.548 339.829 197.839 339.269 197.139C339.089 196.868 338.841 196.563 338.565 196.344C339.618 195.373 340.599 194.317 341.595 193.267C341.666 193.509 341.829 193.72 342.073 193.821Z" style="fill: var(--secondary-fixed-dim);"/>
<path id="vec43" d="M337.505 197.81C338.134 198.588 338.751 199.371 339.339 200.178C338.53 200.607 337.701 201 336.865 201.378C336.596 201.499 336.326 201.618 336.052 201.73C335.741 201.388 335.352 201.093 335.078 200.728C334.697 200.343 334.33 199.938 333.957 199.541C334.327 199.368 334.683 199.151 335.009 198.974C335.784 198.549 336.501 198.061 337.18 197.528C337.26 197.647 337.37 197.746 337.505 197.81Z" style="fill: var(--secondary-fixed-dim);"/>
<path id="vec44" d="M361.191 203.985C361.707 206.76 360.795 209.77 358.891 211.841C358.596 212.135 358.293 212.436 357.941 212.66C357.832 212.697 357.731 212.752 357.641 212.821C357.38 212.671 357.124 212.513 356.87 212.35C357.357 211.949 357.764 211.425 358.029 210.897C358.785 209.492 359.627 207.93 359.511 206.291C359.631 205.61 359.861 204.366 359.859 203.213C360.272 203.441 360.682 203.679 361.084 203.926C361.12 203.949 361.155 203.969 361.191 203.985L361.191 203.985Z" style="fill: var(--secondary-fixed-dim);"/>
<path id="vec45" d="M357.971 202.366C358.171 203.554 358.008 204.799 357.739 206.027C357.708 206.131 357.663 206.225 357.574 206.291C357.223 206.615 357.246 207.201 357.564 207.536C357.111 208.622 356.437 210.928 355.169 211.229C354.027 210.826 355.412 207.263 355.609 206.334C356.104 204.888 356.815 203.393 357.97 202.366H357.971L357.971 202.366Z" style="fill: var(--secondary-fixed);"/>
<path id="vec46" d="M274.902 75.9804C275.029 76.1466 275.2 76.2435 275.383 76.2798C274.671 78.3149 274.647 80.7582 275.032 83.2314C273.327 80.4798 271.957 77.1955 272.262 73.9168C272.266 73.8409 272.28 73.7693 272.303 73.7022C272.321 73.7121 272.34 73.7209 272.357 73.7308C273.263 74.4021 274.181 75.1076 274.902 75.9804H274.902Z" style="fill: var(--primary-fixed-dim);"/>
</g>
<g id="Outlines">
<path id="vec47" d="M112.03 26.3369C114.233 26.678 114.267 31.7321 111.748 31.4064C110.532 31.0388 110.176 29.5386 110.145 28.4093C110.028 27.345 110.983 26.3105 112.03 26.3369Z" style="fill: var(--il-outline);"/>
<path id="vec48" d="M119.11 31.0874C116.785 30.82 116.486 26.1798 119.029 26.0245C121.214 26.0065 121.329 31.1026 119.11 31.0874Z" style="fill: var(--il-outline);"/>
<path id="vec49" d="M125.177 29.62C125.172 29.5022 125.163 29.3856 125.151 29.2689C125.116 29.0455 125.075 28.8254 125.027 28.603C124.92 28.2344 124.794 27.8788 124.652 27.5222C124.396 26.9433 124.116 26.3831 123.802 25.8338C123.682 25.6467 123.558 25.464 123.429 25.2824C123.198 25.0073 122.956 24.7486 122.698 24.4955C122.388 24.2225 122.069 23.9673 121.738 23.7207C121.089 23.2695 120.438 22.8302 119.75 22.444C119.507 22.3284 119.266 22.2217 119.017 22.1193C118.765 22.0379 118.515 21.9652 118.261 21.897C117.94 21.8332 117.62 21.7782 117.296 21.7297C116.623 21.6648 115.954 21.6306 115.278 21.6285C114.853 21.6439 114.434 21.6791 114.011 21.7297C113.202 21.8574 112.396 21.9982 111.584 22.1094C111.236 22.1622 110.897 22.2272 110.555 22.3119C109.772 22.5485 109.01 22.838 108.252 23.1429C107.349 23.5424 106.47 23.9915 105.615 24.4867C105.331 24.6617 105.05 24.8411 104.772 25.026C104.498 25.2076 104.242 25.4189 103.986 25.6247C103.277 26.2114 102.588 26.82 101.93 27.4639C101.687 27.7291 101.46 28.0011 101.242 28.2872C101.05 28.5689 100.871 28.8529 100.701 29.1489C100.542 29.466 100.398 29.7873 100.265 30.1153C100.103 30.5566 99.9631 31.0013 99.8388 31.4558C99.7596 31.797 99.6936 32.136 99.6463 32.4838C99.5484 33.3863 99.4295 34.2899 99.4042 35.199C99.4109 35.3652 99.4196 35.5303 99.4384 35.6965C99.4461 35.7076 99.4549 35.7185 99.4637 35.7295C99.9995 36.7905 100.289 37.9804 101.082 38.9148C101.13 38.9797 101.169 39.0457 101.198 39.1117C102.123 39.8987 103.286 40.3588 104.386 40.854C105.874 41.28 107.441 41.5122 108.99 41.5463C109.534 41.5562 110.328 41.3735 110.828 41.6134C110.971 41.6101 111.115 41.6069 111.257 41.6024C111.362 41.5661 111.475 41.5463 111.592 41.5463C111.673 41.5463 111.751 41.5595 111.825 41.5826C112.003 41.5771 112.182 41.5705 112.359 41.565C112.437 41.5188 112.523 41.4858 112.615 41.4671C113.501 41.2888 114.384 41.0951 115.259 40.8673C115.796 40.6901 116.317 40.4887 116.839 40.273C117.193 40.1167 117.546 39.9571 117.899 39.7942C118.232 39.6379 118.554 39.4552 118.874 39.2725C119.204 39.0622 119.525 38.8465 119.845 38.6209C120.285 38.2654 120.7 37.8923 121.102 37.4928C121.706 36.8523 122.26 36.1786 122.788 35.4731C123.264 34.8106 123.72 34.1392 124.14 33.4403C124.326 33.0936 124.497 32.7458 124.651 32.3847C124.733 32.1503 124.81 31.9169 124.882 31.6792C124.993 31.2181 125.082 30.7558 125.142 30.2847C125.162 30.0624 125.176 29.8423 125.177 29.6199L125.177 29.62ZM165.745 65.5454C165.737 65.4992 165.735 65.4508 165.736 65.4024C165.737 65.2912 165.734 65.18 165.725 65.07C165.69 64.9203 165.657 64.7695 165.627 64.6187C165.621 64.5285 165.623 64.446 165.634 64.3689C165.506 63.7085 165.281 63.0613 165.09 62.4208C164.969 61.7704 164.382 60.7555 164.431 60.006C164.078 58.9682 163.746 57.9247 163.4 56.8846C163.375 56.8175 163.35 56.7482 163.331 56.6789L163.318 56.6414C163.288 56.5567 163.257 56.4719 163.238 56.4103C163.23 56.3883 163.222 56.3673 163.215 56.3454L163.205 56.3167C162.744 55.0169 162.15 53.7787 161.535 52.5449C160.807 51.1075 160.054 49.6888 159.255 48.2899C158.847 47.5767 158.403 46.8833 157.971 46.1844C157.746 45.8201 157.521 45.4558 157.298 45.0915C157.104 44.779 156.897 44.4763 156.694 44.1714C155.916 43.1104 155.103 42.0824 154.258 41.0764C153.606 40.3379 152.944 39.6082 152.281 38.8796C151.937 38.5021 151.588 38.1311 151.231 37.7658C150.887 37.4136 150.529 37.0779 150.167 36.7422C149.653 36.3097 149.139 35.8749 148.595 35.4787C148.01 35.0538 147.423 34.6367 146.829 34.2251C146.49 34.0017 146.152 33.7727 145.803 33.5603C145.352 33.2873 144.9 33.0155 144.443 32.7513C144.014 32.5026 143.582 32.2582 143.149 32.0139C142.778 31.8037 142.397 31.61 142.017 31.4119C141.161 31.0123 140.299 30.6337 139.419 30.2903C138.502 29.9326 137.584 29.5838 136.658 29.2492C136.234 29.1039 135.809 28.9575 135.38 28.8276C135.152 28.7583 134.926 28.6768 134.693 28.6229C134.448 28.5668 134.203 28.5107 133.957 28.4545C133.712 28.4149 133.467 28.3764 133.223 28.3367C132.997 28.3004 132.767 28.2916 132.54 28.2707C132.098 28.2465 131.657 28.2233 131.215 28.2201C130.708 28.2168 130.202 28.231 129.695 28.2586C129.216 28.3004 128.74 28.3565 128.263 28.4347C127.849 28.5238 127.443 28.6262 127.041 28.7583C126.997 28.7759 126.953 28.7924 126.91 28.8111C126.99 29.3427 126.997 29.8853 126.942 30.4213C126.886 30.9628 126.784 31.4977 126.653 32.0261C126.532 32.5169 126.358 32.9836 126.163 33.448C125.978 33.8883 125.728 34.3065 125.482 34.716C125.241 35.1166 124.976 35.504 124.707 35.887C124.168 36.6597 123.607 37.4257 122.974 38.1279C122.329 38.8455 121.642 39.561 120.851 40.1222C120.437 40.415 120.021 40.6967 119.579 40.9477C119.138 41.1986 118.686 41.4187 118.226 41.6323C117.804 41.8282 117.371 42.0043 116.941 42.1826C116.526 42.3565 116.097 42.5128 115.664 42.6273C115.018 42.7979 114.368 42.9475 113.714 43.0862C113.665 43.1259 113.609 43.1611 113.547 43.1897C113.229 43.3437 112.84 43.3559 112.492 43.3735C111.065 43.401 109.625 43.4417 108.201 43.3097C108.035 43.302 107.886 43.2987 107.761 43.3064C105.964 43.0873 104.129 42.8496 102.504 42.001C102.759 42.3951 103.014 42.788 103.27 43.1776C105.506 46.5763 108.688 49.285 112.287 51.0779C113.055 51.462 113.846 51.7988 114.681 52.009C115.384 52.2303 116.523 52.4097 116.289 53.4057C116.17 53.8658 115.653 54.1993 115.192 54.0518C109.03 52.3635 103.9 47.9621 100.706 42.4909C98.511 39.1131 96.2117 35.6307 92.8177 33.3469C90.9374 31.9899 88.9648 30.5954 86.7139 29.9725C86.0923 30.0121 85.2825 29.6345 84.7049 29.6247C81.4473 29.1195 78.2095 30.0704 75.1202 31.0225C69.5797 32.5656 64.4991 35.3931 59.9312 38.8501C55.6416 42.3655 51.4565 46.0845 47.8831 50.279C44.5661 54.8443 41.4482 59.5539 38.3611 64.2767C35.4226 68.5108 33.0759 73.0971 30.3826 77.4831C28.1669 81.1427 26.7465 85.1445 24.9929 89.0066C22.896 93.3321 21.0256 97.7335 19.734 102.371C14.66 117.465 10.7005 132.931 8.05237 148.625C6.13586 164.362 5.35912 180.258 6.07867 196.098C6.34385 200.779 6.58915 205.461 6.95004 210.136C7.06441 211.212 7.04906 212.311 7.27679 213.368C12.4971 213.368 17.7175 213.373 22.9378 213.37C58.8597 213.358 94.7826 213.359 130.706 213.362C134.929 213.361 139.153 213.357 143.377 213.362C139.822 211.201 136.862 208.125 133.687 205.456C125.614 198.441 119.722 189.39 113.668 180.679C106.331 168.807 99.1635 156.772 93.4491 144.03C88.6293 133.074 83.7214 122.114 80.6321 110.517C80.235 108.92 79.9841 107.295 79.7729 105.663C78.9037 106.773 78.0555 107.897 77.2293 109.036C67.7788 121.208 59.9379 134.572 53.3555 148.493C50.6799 153.733 47.7072 158.837 45.8468 164.448C44.0656 169.537 42.4968 174.694 41.0962 179.883C40.8751 181.349 40.5978 182.596 40.4648 184.003C40.4241 184.457 40.0291 184.809 39.5835 184.809C39.5582 184.809 39.5318 184.808 39.5054 184.806C39.0312 184.764 38.6539 184.327 38.7022 183.847C39.0422 181.236 39.413 178.618 40.2887 176.124C41.2876 172.941 42.2205 169.721 43.2613 166.54C41.8333 168.03 40.5527 169.653 39.1456 171.163C37.5107 172.979 36.0893 174.98 34.7537 177.022C34.6327 177.649 34.0837 178.274 33.3828 177.912C32.0065 176.874 33.9373 175.269 34.4852 174.251C35.5865 172.658 36.7615 171.12 38.0762 169.697C39.0267 168.916 42.5419 163.929 44.3131 163.456C45.2857 160.739 46.3815 158.071 47.7083 155.499C54.3049 142.761 60.3922 129.73 68.6138 117.918C72.01 112.866 75.6142 107.93 79.4857 103.222C79.5297 102.849 79.7278 102.518 80.1415 102.429C84.0394 97.7523 88.2057 93.3113 92.7 89.2214C92.7209 89.1465 92.7484 89.0728 92.7825 89.0023C93.2468 86.1198 92.9938 83.1844 92.9706 80.2788C92.7385 74.2077 91.3325 68.2204 89.4479 62.4872C89.0595 61.3976 90.7032 60.7549 91.1245 61.8555C92.6186 66.1776 93.6891 70.6329 94.2887 75.1521C95.3657 72.2421 95.9587 69.1185 96.0094 66.0335C95.907 64.8668 97.6706 64.6764 97.7993 65.8474C98.0171 67.3267 96.7146 76.42 94.6308 78.3329C94.8146 80.5374 94.8828 82.7519 94.8333 84.9708C94.7826 85.4209 94.8179 86.3807 94.7794 87.3756C97.2119 85.2668 99.7401 83.2615 102.371 81.3772C107.292 77.5063 112.818 74.4268 118.247 71.3725C121.112 69.6786 124.197 68.3799 127.406 67.5016C130.607 66.5341 133.888 65.9629 137.199 65.5866C136.51 64.1249 135.831 62.6402 134.964 61.271C134.655 60.8649 134.325 60.461 133.916 60.1506C132.992 59.4319 134.076 58.0198 135.015 58.7253C135.59 59.1677 136.07 59.7202 136.479 60.3211C136.364 59.0081 136.336 57.6862 136.389 56.3699C136.542 55.6016 136.053 54.4394 136.948 54.0377C138.851 53.6084 138.029 56.2675 138.148 57.3329C138.086 60.0471 138.483 62.7865 139.247 65.362C139.25 65.3664 139.252 65.3718 139.253 65.3762C141.75 65.1473 144.259 65.0053 146.755 64.8645C152.21 64.7412 157.656 65.2585 163.109 65.351C163.987 65.4104 164.866 65.4742 165.745 65.5458L165.745 65.5454ZM224.151 83.0453C224.935 79.8866 226.192 76.7674 226.705 73.5579C223.9 73.449 221.194 72.5784 218.458 72.0226C215.618 71.3269 212.78 70.6512 209.958 69.8862C203.874 68.4665 197.742 66.9641 191.995 64.4744C191.555 64.2885 191.066 63.9725 190.658 63.5862C190.158 65.4199 189.668 67.2524 188.974 69.0255C188.904 69.2566 188.829 69.534 188.723 69.7893C198.6 72.773 208.262 76.5229 217.254 81.6177C219.397 82.6776 221.49 83.8288 223.535 85.0604C223.701 84.3604 224.103 83.5691 224.151 83.0452L224.151 83.0453ZM268.191 52.1729C269.212 51.4596 268.228 50.0674 267.536 49.4664C265.822 47.8507 257.589 48.5815 254.9 48.4681C251.116 48.5617 247.36 49.0878 243.575 49.0812C242.572 48.9579 240.482 49.571 240.548 48.0014C240.659 47.3928 241.335 47.0461 241.866 47.2827C242.465 47.2982 243.062 47.3092 243.66 47.3026C246.279 47.3389 248.873 47.0098 251.48 46.8579C254.339 46.6785 257.201 46.6455 260.063 46.6169C260.989 46.6598 261.936 46.6565 262.881 46.6774C262.503 43.8565 258.624 44.5058 256.552 44.4079C254.356 44.4883 252.158 44.4277 249.962 44.4982C247.143 44.5235 244.327 44.8856 241.528 45.0386C240.411 44.8262 240.638 43.151 241.786 43.2699C246.39 42.7592 251.02 42.6822 255.648 42.6315C255.679 42.4863 255.751 42.3454 255.872 42.2232C254.518 40.5932 252.07 41.0478 250.176 40.875C245.092 40.755 240.209 42.3421 235.22 43.0873C234.334 43.2479 233.456 43.4538 232.578 43.6541C232.522 43.6673 232.469 43.6739 232.417 43.6783C231.947 44.5291 231.246 45.3193 230.706 45.873C226.342 49.7758 220.285 51.7866 214.46 51.6006C213.584 51.5059 211.916 51.726 212.021 50.4185C212.095 49.9365 212.564 49.5876 213.047 49.6657C214.224 49.8396 215.414 49.8165 216.603 49.7901C221.184 49.4863 229.611 46.7017 231.124 41.9415C230.386 41.104 231.555 39.9571 232.41 40.6439C232.719 40.9895 232.875 41.3692 232.916 41.7621C233.139 41.7093 233.364 41.6565 233.588 41.6092C236.483 41.0611 239.306 40.5394 242.145 39.9648C241.936 38.8245 241.056 37.9859 239.977 37.5985C237.044 36.7378 234.006 38.151 231.143 38.764C225.284 40.4326 219.368 41.9217 213.602 43.8918C210.812 45.1366 208.026 46.6115 205.742 48.6619C204.291 50.2974 203.139 52.1102 202.102 54.0242C200.893 56.3773 199.937 58.8591 199.298 61.427C199.02 62.4748 198.639 63.494 198.375 64.5461C198.351 64.6771 198.301 64.7982 198.23 64.9038C201.515 65.989 204.855 66.8783 208.225 67.6554C212.002 68.5161 215.746 69.5881 219.525 70.4741C219.875 69.0818 220.614 67.8381 220.935 66.4392C221.803 63.6447 223.085 62.1534 226.109 61.9828C228.85 61.6801 231.595 61.3917 234.352 61.2938C241.93 61.1617 249.49 60.6818 257 59.6296C259.834 59.3632 262.879 59.175 265.455 57.8961C266.125 57.4855 267.577 57.2654 267.321 56.2308C267.039 55.6222 266.542 55.1522 265.897 54.7923C265.491 54.8099 265.139 54.7075 264.93 54.3663C261.914 53.3153 257.111 53.7533 254.83 53.8028C251.627 53.9239 248.426 53.9712 245.22 53.9173C243.814 53.9349 242.409 53.8931 241.007 53.8138C240.403 53.8799 239.823 53.3989 239.932 52.7694C240.008 52.3115 240.458 51.9615 240.922 52.0341C244.341 52.2091 247.779 52.1904 251.203 52.1332C255.106 52.2025 261.898 51.0986 266.088 52.9003C266.818 52.7407 267.544 52.5514 268.191 52.1729H268.191ZM284.883 118.931C287.586 113.65 287.197 109.795 284.612 104.532C282.305 99.5349 279.326 94.888 276.954 89.9252C275.201 85.6769 274.005 80.2145 275.383 76.2797C275.2 76.2434 275.029 76.1465 274.902 75.9804C274.181 75.1076 273.263 74.4021 272.357 73.7307C267.424 71.0705 260.602 73.7538 257.911 78.437C256.663 81.4031 256.903 84.071 257.9 86.5827C258.101 86.7477 258.294 86.9271 258.476 87.1209C259.056 87.6767 260.138 88.5506 259.293 89.3375C261.774 93.4461 265.655 97.2577 267.345 101.47C268.516 104.155 268.923 107.095 269.257 109.984C269.664 112.953 269.224 115.936 268.312 118.774C268.019 119.584 267.45 121.102 266.719 122.375C268.271 122.03 269.821 121.675 271.371 121.313C275.892 120.617 280.372 119.683 284.883 118.931ZM310.271 116.409C309.77 114.953 309.498 113.384 309.142 111.9C307.704 105.844 306.621 99.4787 307.874 93.2943C308.182 91.8998 308.703 90.6286 309.394 89.5027C309.318 89.2341 309.236 88.9821 309.124 88.7917C308.328 86.9196 307.396 85.0815 306.093 83.5054C303.31 80.2256 300.333 76.928 296.307 75.1935C291.714 73.1188 284.951 72.1271 280.103 73.6218C274.949 75.9584 276.588 82.7536 277.807 87.0494C280.04 93.3339 284.185 98.6841 286.703 104.835C288.532 108.576 289.295 112.954 287.658 116.904C287.464 117.281 287.257 117.944 287.001 118.619C289.869 118.306 292.738 117.979 295.563 117.378C300.399 116.429 305.349 116.34 310.271 116.409ZM336.375 159.549C336.176 158.254 338.343 158.195 338.322 159.479C338.275 160.373 337.456 160.984 336.977 161.675C335.958 162.93 334.87 164.142 333.689 165.244C329.403 169.313 324.452 172.525 319.713 175.991C309.097 183.451 298.084 190.51 286.13 195.64C282.212 197.521 278.199 199.18 274.136 200.716C270.03 202.761 265.706 204.233 261.297 205.465C248.439 209.689 235.214 214.262 221.504 213.707C213.921 213.827 206.847 210.637 200.642 206.511C196.272 204.012 191.821 201.64 187.989 198.355C180.863 194.029 173.882 189.63 166.661 185.481C160.264 181.466 153.832 177.318 147.153 173.817C146.969 173.769 146.823 173.677 146.714 173.56C146.228 173.291 145.736 172.91 145.309 172.792C143.162 171.87 140.635 170.316 138.157 169.785C138.218 169.94 138.273 170.095 138.325 170.249C143.424 179.745 147.506 189.816 151.152 199.956C152.965 204.609 154.423 215.189 148.524 215.191C148.322 215.191 148.112 215.178 147.893 215.152C142.037 215.17 136.18 215.164 130.323 215.161C94.4103 215.164 58.4974 215.165 22.5854 215.152C17.3387 215.149 12.093 215.154 6.84736 215.154C6.5569 215.154 6.29504 215.01 6.13112 214.79C6.0563 214.739 5.98478 214.673 5.91881 214.589C4.96937 212.935 5.3863 210.788 5.0684 208.947C4.80106 204.894 4.5634 200.836 4.33675 196.781C3.64695 183.885 4.1992 170.987 5.23779 158.126C6.63944 140.698 11.3988 123.68 16.2957 106.978C17.6357 103.247 18.748 99.4402 20.0527 95.697C21.4445 92.1861 23.2377 88.8346 24.6647 85.339C26.2082 81.5452 27.9498 77.8361 30.1897 74.3967C32.1491 71.031 33.9688 67.5805 36.1791 64.3656C40.0099 58.7029 43.5195 52.754 47.9092 47.5018C51.2614 44.0249 54.8017 40.6978 58.5522 37.6545C64.6 32.9119 71.7082 29.6364 79.2344 28.0944C80.0387 27.8699 81.9936 27.674 83.8057 27.7356C81.6812 24.9048 79.2916 20.6399 80.7406 17.8576C81.7648 16.298 83.9915 15.6519 85.7783 16.0955C85.2469 14.7758 84.9279 13.4364 85.0114 12.1388C85.413 8.73891 89.6552 8.10279 91.8611 10.2853C91.9844 10.3767 92.1053 10.4702 92.2242 10.5682C91.8513 9.10326 91.7137 7.73073 92.0592 6.82608C93.2056 3.70909 97.9319 3.03443 100.177 5.32926C100.751 5.85205 101.264 6.42988 101.729 7.04619C102.086 5.0023 103.553 3.75203 106.047 3.8346C109.258 4.03274 111.134 6.68082 112.281 9.50723C113.156 7.92785 115.37 7.40946 116.977 8.28888C118.035 8.85238 118.855 9.77583 119.548 10.7344C122.615 15.192 124.401 20.4034 125.945 25.551C126.073 25.912 126.217 26.2665 126.33 26.6329C126.358 26.7408 126.368 26.842 126.364 26.9367V26.9378C126.383 26.9851 126.402 27.0324 126.421 27.0798C126.475 27.0622 126.528 27.0445 126.58 27.027C127.044 26.8728 127.527 26.7474 128.008 26.667C128.944 26.5118 129.892 26.4227 130.84 26.426C131.818 26.4304 132.803 26.4513 133.77 26.6043C134.001 26.6406 134.232 26.6725 134.46 26.7254C134.712 26.7826 134.974 26.8255 135.221 26.9004C135.676 27.0368 136.13 27.1722 136.58 27.3241C137.505 27.6377 138.423 27.969 139.333 28.3246C140.234 28.6767 141.143 29.0202 142.02 29.4307C142.534 29.6707 143.037 29.9194 143.539 30.1825C143.983 30.4158 144.418 30.669 144.854 30.9166C145.654 31.3689 146.449 31.8356 147.216 32.3397C148.059 32.8933 148.88 33.4756 149.695 34.0688C150.508 34.6609 151.265 35.3246 151.999 36.0114C152.666 36.6354 153.274 37.3266 153.889 38.0024C154.228 38.3744 154.565 38.7475 154.902 39.1217C154.951 39.1756 155.001 39.2285 155.046 39.2857C155.057 39.2978 155.068 39.311 155.081 39.3243C155.086 39.3308 155.091 39.3375 155.097 39.3441L155.1 39.3463C155.101 39.3474 155.103 39.3485 155.104 39.3507C155.111 39.3595 155.12 39.3694 155.129 39.3793C155.149 39.4024 155.17 39.4256 155.191 39.4486C155.206 39.4662 155.221 39.485 155.228 39.4905C155.918 40.2753 156.579 41.0809 157.218 41.9075C157.821 42.6867 158.393 43.4846 158.909 44.3233C159.412 45.1411 159.931 45.95 160.421 46.7755C160.94 47.6494 161.442 48.5321 161.922 49.428C162.488 50.4802 163.03 51.5467 163.555 52.6198C163.833 53.1899 164.1 53.7644 164.354 54.3456C164.605 54.919 164.808 55.5166 165.013 56.1077C165.025 56.1385 165.036 56.1693 165.045 56.2001L165.065 56.2574C165.266 56.8352 165.443 57.4207 165.635 58.0018C165.834 58.6093 166.036 59.2159 166.206 59.7111C166.262 59.874 166.318 60.038 166.367 60.1789C166.559 60.7292 166.747 61.2795 166.933 61.8309C166.991 62.0048 166.981 62.1864 166.92 62.3526C166.937 62.4021 166.954 62.4516 166.97 62.5022C167.041 62.6178 167.085 62.7488 167.097 62.8875C167.32 63.5919 167.524 64.3623 167.534 64.993C167.565 65.1173 167.598 65.2406 167.631 65.3639C167.663 65.4871 167.672 65.6027 167.66 65.7094C172.753 66.175 177.833 66.8937 182.776 68.177C183.341 68.3498 184.713 68.6724 186.394 69.1005H186.395C186.586 69.1324 186.78 69.1852 186.962 69.2469C186.984 69.2524 187.006 69.2579 187.029 69.2634C187.36 68.264 187.723 67.2779 188.062 66.2818C188.508 64.7244 188.945 63.1527 189.335 61.5865C189.436 61.1705 189.776 60.9592 190.133 60.9371C190.216 60.8447 190.314 60.7544 190.428 60.6675C192.524 59.6153 195.075 60.3967 197.338 60.2812C197.469 60.2592 197.599 60.258 197.723 60.2746C198.642 57.1169 199.864 54.0429 201.608 51.244C203.114 48.739 205.017 46.4431 207.61 45.0156C209.286 44.0283 210.974 43.0312 212.777 42.286C214.567 41.6003 216.444 41.137 218.268 40.5536C223.709 38.9071 229.201 37.3982 234.716 36.0213C236.528 35.5953 238.462 35.2442 240.282 35.8165C242.001 36.3228 243.616 37.8185 243.903 39.6015C244.01 39.5796 244.116 39.5575 244.222 39.5344C247.47 38.9797 250.822 38.9202 254.089 39.344C255.416 39.4816 256.663 40.2134 257.409 41.3229C257.65 41.6652 257.753 42.1407 257.706 42.5809C260.755 42.5523 264.382 42.9991 264.687 46.5784C264.693 46.6445 264.693 46.7082 264.687 46.7677C265.726 46.8591 266.75 47.0396 267.729 47.4061C270.523 48.8105 271.84 53.0611 268.113 54.2036C268.106 54.2046 268.101 54.2057 268.094 54.2079C268.283 54.3929 268.458 54.592 268.618 54.8056C270.665 58.0613 266.747 59.4216 264.302 60.2823C261.572 61.1695 258.68 61.1695 255.861 61.5602C250.176 62.2766 244.46 62.8358 238.728 62.9249C235.851 63.0053 232.969 63.0493 230.104 63.3498C228.584 63.516 227.056 63.6107 225.547 63.8539C224.377 63.9299 223.637 64.6563 223.159 65.6843C222.914 66.196 222.741 66.7321 222.575 67.2703C223.986 67.8206 225.349 68.5569 226.524 69.5057C227.247 69.9944 227.998 70.9618 228.22 71.8291C228.283 71.8665 228.341 71.915 228.395 71.9722C229.226 72.6986 227.749 76.4308 227.583 77.6161C227.062 79.4058 226.493 81.1822 226.005 82.9828C225.704 83.6234 225.581 85.2005 225.073 86.0073C229.733 88.9361 234.14 92.2688 238.321 95.8425C241.438 98.8935 244.728 101.853 247.375 105.331C248.087 105.217 248.838 105.41 249.375 105.993C249.645 106.206 249.864 106.699 250.002 107.297C250.745 107.071 251.585 107.265 252.28 107.716C250.291 99.6419 239.356 90.1369 249.213 85.6915C251.161 84.9298 253.522 84.7252 255.568 85.3547C254.889 82.5052 255.253 79.3981 256.727 76.8557C258.037 74.8713 260.078 73.457 262.075 72.2254C265.691 70.6493 270.28 70.1408 273.694 72.4577C274.361 73.0883 275.565 73.8048 276.157 74.66C277.447 72.6238 279.747 71.2678 283.48 71.1677C291.344 70.7242 299.647 73.2248 304.83 79.3982C306.823 81.4718 308.748 83.6675 309.96 86.3013C310.076 86.6161 310.366 87.1741 310.661 87.8047C313.546 84.5898 318.078 83.1359 322.673 84.2586C324.602 84.6779 326.275 85.7752 327.769 87.0277C330.114 88.7018 331.663 91.1848 332.711 93.8329C332.988 94.8895 334.65 97.8931 333.014 98.3036C332.045 98.4467 331.935 97.5276 331.814 96.8287C331.587 95.978 331.288 95.1481 330.968 94.327C330.077 92.1544 328.751 89.9653 326.841 88.595C324.789 86.7163 322.207 85.6036 319.4 85.7345C316.253 85.6168 313.214 87.2489 311.389 89.7716C311.53 90.4573 311.446 91.0087 310.881 91.1694C310.752 91.2002 310.637 91.2111 310.532 91.2057C310.451 91.373 310.375 91.5436 310.304 91.7164C308.258 97.0709 309.196 103.513 310.325 109.003C310.73 110.758 311.071 112.537 311.51 114.285C311.693 114.948 311.88 115.614 312.116 116.259C312.139 116.32 312.162 116.38 312.187 116.441C312.527 116.448 312.867 116.455 313.207 116.463C320.836 117.002 328.101 118.503 328.511 127.598C329.333 131.782 327.949 134.72 324.885 137.529C322.298 139.992 319.619 142.412 316.448 144.103C312.367 146.484 308.164 148.673 303.77 150.42C299.069 152.054 294.27 153.417 289.472 154.738C282.722 156.008 276.048 157.601 269.381 159.263C267.627 159.714 265.892 160.228 264.16 160.751C263.58 161.067 262.945 161.293 262.323 161.543C262.049 162.12 261.31 162.632 261.071 163.202C260.248 164.629 259.563 166.164 259.189 167.773C258.919 168.683 259.313 170.547 257.918 170.5C256.78 170.314 257.233 169.061 257.299 168.272C257.545 166.701 258.039 165.128 258.762 163.677C257.505 164.703 256.381 165.911 255.291 167.1C254.46 168.129 253.676 169.2 253.005 170.205C252.721 170.778 252.18 171.405 251.497 171.009C250.236 170.092 252.085 168.69 252.545 167.783C254.766 164.803 257.425 161.913 260.817 160.281C261.208 160.083 261.61 159.911 262.015 159.743C262.122 159.59 262.276 159.469 262.464 159.411C262.812 159.306 263.16 159.2 263.508 159.096C263.528 159.086 263.547 159.077 263.567 159.067C263.612 159.053 263.657 159.044 263.7 159.037C265.182 158.59 266.667 158.152 268.162 157.75C274.345 156.319 280.448 154.526 286.715 153.536C289.833 152.936 292.864 151.985 295.884 151.014C301.349 149.644 306.572 147.532 311.516 144.834C316.668 142.173 321.514 138.892 325.282 134.432C327.294 132.365 327.053 129.367 326.548 126.755C326.332 121.403 321.99 119.432 317.286 118.721C311.363 117.891 305.509 118.119 299.595 118.573C295.432 119.143 291.329 120.095 287.126 120.4C286.71 120.454 286.296 120.512 285.881 120.576C285.578 120.832 285.227 120.926 284.815 120.745C281.599 121.279 278.416 122.006 275.19 122.482C271.193 123.008 267.316 124.124 263.381 124.955C259.367 125.734 255.325 126.371 251.295 127.057C247.245 127.751 243.148 128.033 239.046 128.119C237.17 128.079 234.54 128.714 232.785 127.825C232.751 127.844 232.714 127.862 232.676 127.877C232.239 128.086 231.68 127.894 231.475 127.446C229.294 122.321 225.232 118.357 221.344 114.496C212.901 105.943 201.383 99.8092 189.265 99.1192C184.961 98.9298 180.63 98.8704 176.345 99.3569C174.029 99.643 171.721 99.9776 169.415 100.325C168.515 100.391 167.556 100.767 166.677 100.463C166.232 100.296 165.974 99.774 166.153 99.3228C166.417 98.6206 167.094 98.7835 167.682 98.7703C170.545 98.395 173.39 97.8931 176.261 97.5729C183.556 96.9411 191.087 96.8277 198.213 98.7219C207.12 101.253 215.49 106.058 222.028 112.632C224.75 115.322 227.508 118 229.807 121.074C230.271 121.777 231.947 123.986 232.722 125.714C233.047 125.677 233.378 125.821 233.574 126.24C235.988 126.834 238.524 126.22 240.985 126.278C245.227 126.195 249.43 125.609 253.601 124.86C257.072 124.348 260.517 123.698 263.947 122.975C264.09 122.859 264.254 122.755 264.376 122.619C265.094 121.71 265.584 120.657 266.081 119.617C268.194 114.911 267.729 109.679 266.569 104.787C264.959 98.341 259.431 93.9903 256.628 88.157C256.55 88.0117 256.476 87.8653 256.404 87.7178C253.598 85.991 249.305 86.7042 247.308 89.3754C245.37 92.8919 251.894 100.693 253.101 104.573C253.726 106.563 255.221 110.252 253.764 112.028C253.383 112.341 252.778 112.371 252.409 112.031C252.246 111.885 252.147 111.681 252.123 111.467C252.121 111.463 252.12 111.458 252.12 111.455C251.936 110.713 252.077 109.659 251.36 109.262C250.72 108.8 250.332 109.048 250.092 109.612C250.092 109.613 250.091 109.614 250.091 109.614C250.047 109.877 249.979 110.119 249.886 110.325C249.657 111.48 249.701 113.065 249.626 113.591C249.644 114.534 249.85 116.396 248.337 115.912C247.454 115.473 247.972 114.342 247.843 113.562C247.916 112.375 247.895 111.094 248.154 109.907C248.183 108.98 248.708 107.738 247.941 107.136C246.546 106.928 247.088 108.996 246.753 109.801C246.409 110.63 245.091 110.494 245.007 109.569C245.152 108.676 245.088 107.71 245.444 106.856C245.533 106.622 245.657 106.411 245.808 106.225C241.267 100.626 235.68 95.5643 229.837 91.4403C225.035 87.9657 220.008 84.8652 214.671 82.2864C207.102 78.0072 198.939 74.9959 190.704 72.2862C189.45 71.8536 188.175 71.486 186.899 71.1261C186.451 70.9489 185.831 70.9225 185.439 70.6484C177.206 68.434 168.698 67.275 160.176 67.0164C158.248 67.0197 156.323 66.9195 154.397 66.8193C151.75 66.6818 149.103 66.5431 146.453 66.6762C139.778 67.0636 133.018 67.5028 126.627 69.6193C123.992 70.4117 121.32 71.6334 118.979 73.0191C113.621 76.0227 108.248 79.0395 103.398 82.8378C95.2443 88.8219 87.7742 95.8516 81.3524 103.691C81.5152 104.614 81.4591 105.788 81.6495 106.332C82.0246 109.629 83.1325 112.752 84.1238 115.899C85.9698 122.591 88.9304 128.9 91.5522 135.31C96.2224 146.322 101.476 157.098 107.69 167.308C109.891 171.205 112.201 175.037 114.626 178.795C114.732 178.698 114.855 178.616 114.992 178.557C115.99 177.937 117.017 177.364 118.027 176.763C120.509 175.26 122.959 173.702 125.532 172.356C127.534 171.264 129.627 170.35 131.661 169.321C133.326 168.569 134.993 167.691 136.874 167.786C139.139 167.847 141.213 168.955 143.241 169.856C144.87 170.577 146.492 171.33 148.024 172.24C148.076 172.271 148.122 172.308 148.163 172.349C152.372 174.403 156.25 177.086 160.309 179.423C163.597 181.337 166.727 183.495 170.011 185.417C173.324 187.401 176.776 189.155 179.911 191.419C184.432 194.011 188.949 196.676 192.966 199.989C197.875 202.73 202.576 205.849 207.546 208.469C215.986 212.908 225.881 212.491 235.034 210.951C243.222 209.509 251.168 206.973 259.041 204.341C264.325 202.783 269.521 201.052 274.492 198.654C286.895 193.975 298.631 187.913 309.714 180.65C314.404 177.717 318.806 174.472 323.262 171.232C328.103 167.822 332.831 164.334 336.375 159.549L336.375 159.549Z" style="fill: var(--il-outline);"/>
<path id="vec50" d="M332.052 199.644C329.317 197.746 332.782 192.627 334.219 190.714C335.325 189.063 336.394 187.388 337.686 185.869C337.596 185.57 337.813 185.135 337.995 184.957C338.919 183.593 339.952 182.316 341.129 181.161C343.571 178.468 346.07 175.696 349.167 173.75C350.256 173.004 351.877 172.824 352.639 174.114C353.458 175.361 352.761 176.904 352.255 178.132C350.007 183.456 346.577 188.234 342.506 192.317C340.147 194.74 338.002 197.332 335.01 198.974C334.137 199.449 333.047 200.205 332.052 199.644ZM332.914 198.007C335.49 196.982 337.505 194.971 339.403 193.01C342.612 189.728 345.641 186.502 347.981 182.57C348.477 181.667 353.669 172.844 349.74 175.503C347.135 177.297 344.895 179.598 342.8 181.955C341.716 183.11 340.602 184.242 339.744 185.584C339.826 185.863 339.775 186.178 339.579 186.414C338.86 187.276 338.156 188.153 337.492 189.057C335.981 191.523 333.939 193.684 333.063 196.491C332.876 196.972 332.694 197.506 332.914 198.007Z" style="fill: var(--il-outline);"/>
<path id="vec51" d="M353.912 212.665C351.919 210.844 353.468 207.605 354.032 205.421C354.48 204.065 355.225 202.818 356.108 201.703C356.717 200.869 357.751 200.314 358.783 200.664C360.441 201.27 359.752 204.919 359.511 206.29C359.626 207.929 358.785 209.492 358.029 210.897C357.298 212.35 355.494 213.779 353.912 212.665ZM355.079 211.249C356.405 211.037 357.1 208.648 357.564 207.536C357.246 207.202 357.223 206.614 357.574 206.291C357.663 206.225 357.708 206.132 357.738 206.027C358.009 204.799 358.172 203.554 357.972 202.366C357.971 202.366 357.971 202.366 357.97 202.366C356.814 203.393 356.104 204.888 355.609 206.334C355.411 207.269 354.005 210.878 355.194 211.24C355.153 211.243 355.118 211.246 355.079 211.249Z" style="fill: var(--il-outline);"/>
<path id="vec52" d="M356.945 214.474C355.956 213.908 355.002 213.228 354.05 212.67C352.906 212.269 353.584 210.522 354.691 210.994C355.777 211.579 356.765 212.342 357.848 212.937C358.844 213.553 357.97 215.032 356.945 214.474Z" style="fill: var(--il-outline);"/>
<path id="vec53" d="M361.096 203.933C360.277 203.431 359.433 202.968 358.576 202.537C357.692 202.427 357.523 201.14 358.36 200.819C359.199 200.55 360.008 201.356 360.743 201.675C361.305 202.066 362.175 202.254 362.415 202.96C362.63 203.731 361.682 204.378 361.04 203.895L361.096 203.933L361.096 203.933Z" style="fill: var(--il-outline);"/>
<path id="vec54" d="M357.335 214C357.036 213.459 357.404 212.844 357.941 212.66C358.293 212.436 358.596 212.136 358.891 211.842C360.829 209.733 361.739 206.652 361.162 203.837C359.964 202.299 363.856 200.378 363.004 206.88C362.784 208.656 362.223 210.441 361.146 211.884C360.497 212.767 358.395 215.549 357.335 214H357.335Z" style="fill: var(--il-outline);"/>
<path id="vec55" d="M335.079 203.295C333.907 202.245 332.951 200.956 331.792 199.892C330.501 199.327 331.53 197.588 332.692 198.314C333.558 199.04 334.284 199.925 335.079 200.728C335.504 201.295 336.211 201.696 336.463 202.364C336.648 203.124 335.709 203.754 335.079 203.295Z" style="fill: var(--il-outline);"/>
<path id="vec56" d="M355.633 178.535C354.32 177.312 353.015 176.08 351.577 175.004C350.624 174.337 351.593 172.889 352.573 173.522C354.077 174.637 355.439 175.925 356.81 177.195C357.172 177.52 357.214 178.087 356.891 178.454C356.575 178.814 355.99 178.863 355.633 178.535Z" style="fill: var(--il-outline);"/>
<path id="vec57" d="M335.216 203.681C334.507 203.394 334.523 202.267 335.261 202.025C335.807 201.845 336.341 201.613 336.865 201.377C338.284 200.738 339.684 200.052 341 199.217C343.7 197.388 346.042 195.087 348.049 192.525C351.546 188.516 354.094 183.65 355.416 178.5C354.912 177.426 356.583 176.665 357.052 177.774C357.478 178.766 356.861 179.836 356.591 180.796C355.994 182.623 355.354 184.441 354.454 186.144C353.041 188.677 351.597 191.227 349.639 193.386C347.1 196.574 344.156 199.546 340.571 201.54C339.965 201.899 339.338 202.221 338.692 202.503C337.778 202.93 336.869 203.402 335.901 203.7C335.67 203.772 335.441 203.783 335.216 203.681Z" style="fill: var(--il-outline);"/>
<path id="vec58" d="M326.047 141.759C324.447 141.516 323.065 140.531 322.126 139.236C321.664 138.614 322.298 137.678 323.043 137.847C323.524 137.923 323.791 138.497 324.096 138.777C324.491 139.181 324.943 139.521 325.471 139.727C329.944 141.333 333.053 135.9 334.615 132.494C335.761 129.643 335.785 126.497 335.182 123.52C334.73 120.216 331.552 115.768 328.602 114.231C325.059 112.185 320.155 111.947 318.772 116.608C318.699 116.891 318.679 117.171 318.668 117.461C318.589 117.931 318.096 118.28 317.626 118.178C316.197 117.759 317.166 115.757 317.51 114.823C319.672 110.781 323.736 110.311 327.722 111.803C331.572 113.219 334.278 116.61 336.072 120.181C337.674 124.256 337.894 129.016 336.302 133.131C334.525 137.187 331.141 142.529 326.047 141.759L326.047 141.759Z" style="fill: var(--il-outline);"/>
<path id="vec59" d="M321.086 113.079C320.384 112.648 320.695 111.498 321.509 111.454C322.523 111.015 323.469 110.441 324.45 109.936C325.471 109.419 326.525 108.96 327.531 108.41C328.59 107.896 329.381 109.491 328.331 110.03C327.195 110.645 326.006 111.156 324.861 111.753C323.833 112.16 322.156 113.637 321.086 113.079Z" style="fill: var(--il-outline);"/>
<path id="vec60" d="M328.248 140.841C328.074 139.662 329.607 139.634 330.388 139.299C332.31 138.703 334.032 137.61 335.976 137.077C337.093 136.707 337.674 138.388 336.562 138.786C336.048 138.965 335.524 139.111 335.015 139.311C333.298 140.114 331.561 140.876 329.731 141.384C329.19 141.726 328.38 141.523 328.248 140.841L328.248 140.841Z" style="fill: var(--il-outline);"/>
<path id="vec61" d="M335.948 138.413C335.115 137.412 336.645 136.656 337.067 135.845C338.563 133.527 339.81 130.978 340.276 128.241C340.965 123.691 339.797 118.911 336.791 115.381C335.758 114.256 334.704 113.134 333.541 112.142C332.029 111.208 330.343 110.407 328.598 110.046C326.676 110.795 326.574 107.331 329.82 108.477C332.036 109.238 334.353 110.119 335.946 111.911C339.216 114.804 341.511 118.754 342.152 123.096C342.713 127.69 341.508 132.34 338.973 136.193C338.369 137.021 337.144 139.489 335.948 138.413Z" style="fill: var(--il-outline);"/>
<path id="vec62" d="M341.796 124.271C341.377 123.161 342.765 122.956 343.448 122.531C345.487 121.118 346.832 118.937 347.732 116.662C350.19 109.208 347.083 96.8485 337.194 98.7768C333.745 99.2968 330.794 101.205 329.937 104.724C329.555 105.838 329.135 106.966 329.108 108.158C329.179 109.808 326.742 109.425 327.335 107.91C327.405 106.159 328.115 104.521 328.683 102.887C329.141 101.576 330.021 100.48 331.028 99.544C334.218 96.8526 339.662 95.886 343.474 97.7148C347.816 99.9018 350.025 104.937 350.272 109.614C350.437 113.24 350.101 117.058 348.001 120.135C347.578 120.789 347.2 121.496 346.674 122.076C345.86 122.929 342.707 126 341.796 124.271Z" style="fill: var(--il-outline);"/>
<path id="vec63" d="M331.398 101.074C330.958 101.04 330.623 100.609 330.623 100.185C330.686 99.5739 331.238 99.1154 331.531 98.5934C332.557 97.1811 333.589 95.7634 334.723 94.4375C335.243 93.8574 336.296 94.3071 336.264 95.0759C336.272 95.3718 336.098 95.6188 335.906 95.821C335.328 96.4825 334.842 97.2144 334.293 97.899C333.711 98.622 333.186 99.3477 332.728 100.024C332.391 100.517 332.11 101.188 331.398 101.074Z" style="fill: var(--il-outline);"/>
<path id="vec64" d="M353.409 114.035C352.464 113.743 352.811 112.791 353.001 112.094C353.171 111.052 353.225 109.989 353.172 108.934C352.973 106.337 352.445 103.669 350.864 101.538C349.281 98.3143 346.327 95.9164 342.827 95.0799C340.883 94.7023 338.848 94.7145 336.965 95.3732C336.298 95.5422 335.57 96.2724 334.941 95.6405C333.464 93.7218 338.786 93.0656 339.923 93.0255C343.737 92.8907 347.603 94.5415 350.175 97.3554C351.16 98.3966 351.855 99.6499 352.582 100.872C353.98 102.833 354.579 105.242 354.856 107.606C355.018 108.799 355.367 114.545 353.409 114.035V114.035Z" style="fill: var(--il-outline);"/>
<path id="vec65" d="M342.588 124.432C342.247 124.142 342.18 123.642 342.413 123.265C342.669 122.873 343.141 122.856 343.499 122.608C344.452 122.029 345.351 121.359 346.232 120.676C347.966 119.371 349.541 117.872 350.968 116.236C351.77 115.335 352.62 114.448 353.15 113.352C353.654 112.296 355.264 113.037 354.781 114.11C354.586 114.531 354.332 114.94 354.071 115.323C351.144 118.978 347.661 122.44 343.469 124.594C343.516 124.572 343.567 124.559 343.607 124.527C343.296 124.716 342.864 124.673 342.588 124.432Z" style="fill: var(--il-outline);"/>
<path id="vec66" d="M300.425 150.339C298.204 150.307 295.785 149.772 294.334 147.956C292.342 145.419 292.142 141.335 294.36 138.877C299.021 133.276 307.974 130.217 315.141 130.619C319.261 130.724 325.917 133.561 322.774 138.576C318.337 144.591 316.849 139.805 319.06 139.816C326.434 134.372 316.882 131.814 311.944 132.441C306.28 132.959 297.345 136.159 294.832 141.601C298.124 141.272 301.732 141.66 304.359 143.842C305.304 144.649 306.302 145.837 306.103 147.16C305.619 149.798 302.719 150.426 300.425 150.339ZM301.007 148.526C306.128 148.303 304.477 145.263 300.909 143.922C298.889 143.294 296.671 143.126 294.585 143.484C294.69 147.278 297.544 148.72 301.007 148.526ZM319.711 140.251C319.623 140.061 319.554 140.027 319.558 140.049C319.622 140.108 319.676 140.176 319.711 140.251Z" style="fill: var(--il-outline);"/>
<path id="vec67" d="M328.563 103.373C325.876 99.3193 323.365 92.1967 325.093 87.4439C325.834 86.4304 327.217 87.4677 326.587 88.5136C325.762 92.0305 326.926 95.6623 328.159 98.9477C328.749 100.092 329.281 101.279 330.028 102.333C330.694 103.288 329.255 104.328 328.563 103.373Z" style="fill: var(--il-outline);"/>
<path id="vec68" d="M306.962 96.1608C303.226 92.394 300.105 87.9488 297.605 83.2723C295.334 78.8715 293.999 71.9815 301.324 75.9796C301.306 75.9729 301.287 75.9665 301.269 75.9601C301.257 75.9584 301.245 75.9567 301.233 75.955C302.53 76.2588 301.861 78.1945 300.653 77.6641C300.354 77.5328 300.064 77.3826 299.814 77.2557C299.064 76.9112 297.316 75.728 297.56 77.4042C297.735 79.2519 298.476 80.8921 299.233 82.5537C300.732 85.3845 302.487 88.0794 304.48 90.586C305.644 91.991 306.69 93.5257 308.057 94.743C308.964 95.462 307.892 96.8771 306.962 96.1608Z" style="fill: var(--il-outline);"/>
<path id="vec69" d="M275.625 86.8267C273.118 84.1435 271.382 80.7843 270.684 77.1753C270.372 75.5787 270.113 73.7079 271.014 72.26C271.551 71.5315 272.79 72.0177 272.642 72.9247C272.58 73.2867 272.282 73.5347 272.262 73.9167C271.95 77.2691 273.39 80.6276 275.147 83.4164C275.712 84.2426 276.377 84.9889 277.03 85.7458C277.729 86.6558 276.357 87.7353 275.625 86.8266L275.625 86.8267Z" style="fill: var(--il-outline);"/>
<path id="vec70" d="M341.109 155.248C338.29 155.152 335.298 154.642 332.801 153.323C328.944 151.079 325.541 147.604 324.465 143.164C324.307 142.199 323.953 139.951 325.449 140.035C325.943 140.11 326.268 140.576 326.205 141.063C325.888 144.791 328.733 148.045 331.469 150.243C335.002 153.281 339.893 153.615 344.353 153.422C348.019 153.356 349.874 150.546 351.413 147.61C355.222 141.041 352.665 136.24 346.456 132.764C345.19 132.131 343.894 131.452 342.462 131.328C342.066 131.294 341.645 131.51 341.302 131.181C340.755 130.768 340.912 129.846 341.557 129.623C344.166 129.238 346.67 130.836 348.845 132.1C352.311 134.349 355.455 138.128 355.006 142.493C354.686 146.158 351.966 151.097 349.257 153.563C346.941 155.367 343.887 155.337 341.109 155.248Z" style="fill: var(--il-outline);"/>
<path id="vec71" d="M356.379 143.217C355.297 141.479 353.9 140.077 352.7 138.463C352.408 138.076 352.109 137.694 351.807 137.315C350.998 136.249 352.76 135.141 353.327 136.377C354.791 138.342 356.508 140.106 357.842 142.166C358.508 143.132 357.075 144.167 356.379 143.216L356.379 143.217Z" style="fill: var(--il-outline);"/>
<path id="vec72" d="M339.801 159.472C338.409 159.281 337.002 159.095 335.639 158.756C332.909 157.652 330.189 155.918 328.682 153.317C327.364 150.701 326.259 147.999 325.31 145.228C324.923 144.139 326.541 143.51 326.976 144.596C328.13 147.621 329.137 150.817 330.97 153.481C332.487 155.124 334.458 156.478 336.599 157.142C339.84 157.785 343.294 158.011 346.515 157.25C351.72 156.259 355.551 151.774 356.981 146.835C357.259 145.664 356.955 144.46 356.473 143.386C356.092 142.368 357.571 141.689 358.088 142.65C360.072 146.408 357.786 150.517 355.494 153.561C352.001 158.541 345.551 159.929 339.801 159.472Z" style="fill: var(--il-outline);"/>
<path id="vec73" d="M352.932 138.752C352.635 138.39 352.658 137.768 353.058 137.481C353.782 136.96 354.477 136.394 355.036 135.693C356.869 133.334 357.599 130.305 357.862 127.378C357.95 125.061 356.942 122.942 355.584 121.125C354.845 120.03 353.778 119.2 352.569 118.678C351.79 118.322 350.468 118.081 351.121 116.921C351.466 116.414 352.098 116.518 352.581 116.744C353.258 117.031 353.95 117.304 354.568 117.708C356.819 119.164 358.325 121.633 359.215 124.117C359.985 126.491 359.6 128.996 359.033 131.368C358.376 133.774 357.317 136.181 355.446 137.889C354.75 138.404 353.779 139.671 352.932 138.752V138.752Z" style="fill: var(--il-outline);"/>
<path id="vec74" d="M354.41 140.524C354.013 139.56 355.044 139.252 355.719 138.933C357.221 138.128 358.463 136.919 359.536 135.608C362.334 131.593 363.946 128.076 362.379 123.163C361.164 119.948 357.721 116.662 354.454 115.604C352.596 116.082 352.49 112.078 357.043 114.744C361.953 117.71 365.197 122.046 364.758 127.989C364.671 130.389 363.497 132.603 362.301 134.63C361.185 136.709 359.586 138.511 357.655 139.867C356.792 140.322 355.128 141.794 354.41 140.524L354.41 140.524Z" style="fill: var(--il-outline);"/>
<path id="vec75" d="M339.964 201.059C339.194 199.937 338.36 198.868 337.505 197.81C337.027 197.584 336.86 196.913 337.156 196.472C337.874 195.485 338.798 196.434 339.269 197.139C340.017 198.073 340.747 199.023 341.411 200.02C342.072 200.975 340.652 202 339.964 201.059Z" style="fill: var(--il-outline);"/>
<path id="vec76" d="M344.708 196.839C343.815 195.846 342.932 194.844 342.073 193.821C341.489 193.578 341.371 192.708 341.846 192.292C342.635 191.598 343.343 192.544 343.809 193.133C344.535 193.969 345.266 194.802 346.007 195.625C346.786 196.484 345.511 197.679 344.708 196.84L344.708 196.839Z" style="fill: var(--il-outline);"/>
<path id="vec77" d="M347.873 192.377C347.015 191.362 346.126 190.379 345.152 189.475C344.521 188.644 345.701 187.588 346.454 188.259C346.874 188.649 347.288 189.044 347.679 189.464C348.193 190.016 348.692 190.581 349.179 191.157C349.959 192.024 348.673 193.227 347.873 192.377Z" style="fill: var(--il-outline);"/>
<path id="vec78" d="M351.708 188.176C351.257 187.708 350.795 187.252 350.411 186.877C349.94 186.436 349.473 185.979 348.963 185.583C348.04 185.591 347.771 184.266 348.586 183.864C349.839 183.181 352.049 186.172 353.006 186.963C353.787 187.816 352.514 189.013 351.708 188.176Z" style="fill: var(--il-outline);"/>
<path id="vec79" d="M353.559 183.452C352.734 182.672 351.877 181.922 350.982 181.224C350.634 181.109 350.33 180.818 350.305 180.431C350.258 179.934 350.627 179.53 351.105 179.464C351.617 179.392 352.067 179.807 352.433 180.106C353.263 180.793 354.09 181.483 354.86 182.237C355.647 183.089 354.37 184.288 353.559 183.452Z" style="fill: var(--il-outline);"/>
<path id="vec80" d="M334.437 157.374C334.158 156.281 334.097 155.148 333.918 154.037C333.281 153.044 334.76 152.113 335.431 153.052C335.977 154.264 335.774 155.699 336.162 156.97C336.415 158.095 334.722 158.501 334.437 157.374V157.374Z" style="fill: var(--il-outline);"/>
<path id="vec81" d="M340.112 158.255C339.755 157.192 339.615 156.057 339.156 155.039C338.92 153.837 340.717 153.464 340.974 154.675C341.261 155.646 341.488 156.66 341.773 157.625C341.844 157.858 341.853 158.089 341.748 158.315C341.459 159.007 340.34 158.982 340.112 158.255L340.112 158.255Z" style="fill: var(--il-outline);"/>
<path id="vec82" d="M346.931 156.458C346.674 155.488 345.217 153.858 346.56 153.187C347.008 153.016 347.542 153.247 347.708 153.704C347.971 154.424 348.29 155.123 348.595 155.826C349 156.906 347.372 157.542 346.931 156.458Z" style="fill: var(--il-outline);"/>
<path id="vec83" d="M347.375 157.559C346.628 156.397 348.286 155.344 348.903 156.608C349.648 157.766 348.009 158.823 347.375 157.559Z" style="fill: var(--il-outline);"/>
<path id="vec84" d="M352.966 154.916C352.736 154.842 352.571 154.686 352.446 154.484C351.863 153.686 351.275 152.883 350.581 152.176C350.602 152.192 350.624 152.207 350.645 152.223C350.753 152.109 350.86 151.995 350.967 151.881C351.176 151.499 351.384 151.117 351.592 150.735C351.564 150.711 351.535 150.687 351.507 150.664C352.538 151.436 353.275 152.597 354.026 153.636C354.431 154.303 353.69 155.177 352.966 154.916Z" style="fill: var(--il-outline);"/>
<path id="vec85" d="M356.118 149.548C355.299 148.792 354.419 148.102 353.531 147.43C352.366 146.728 353.626 145.065 354.616 145.989C355.579 146.734 356.552 147.479 357.431 148.321C358.22 149.188 356.931 150.394 356.118 149.548H356.118Z" style="fill: var(--il-outline);"/>
<path id="vec86" d="M338.704 133.638C337.966 133.443 337.21 133.229 336.45 133.159C335.169 133.409 334.918 131.463 336.216 131.374C337.241 131.33 338.255 131.701 339.246 131.927C340.36 132.297 339.82 133.983 338.704 133.638Z" style="fill: var(--il-outline);"/>
<path id="vec87" d="M336.788 126.158C336.718 125.067 337.995 125.118 338.764 125.088C339.67 125.157 341.3 124.482 341.523 125.791C341.584 126.979 340.181 126.781 339.377 126.849C338.504 126.778 336.991 127.441 336.788 126.158Z" style="fill: var(--il-outline);"/>
<path id="vec88" d="M334.691 120.244C334.368 119.65 334.814 119.024 335.419 118.879C336.004 118.553 336.514 118.104 337.069 117.73C337.771 117.186 338.878 116.476 339.31 117.709C339.414 118.148 339.163 118.584 338.761 118.761C338.339 119.028 337.927 119.312 337.519 119.6C336.755 120.106 335.441 121.384 334.691 120.244Z" style="fill: var(--il-outline);"/>
<path id="vec89" d="M330.78 114.848C330.359 114.732 330.102 114.269 330.175 113.85C330.346 113.095 330.918 113.144 331.53 113.092C332.544 112.846 333.618 111.027 334.619 112.147C335.3 113.23 333.78 113.772 333.095 114.288C332.429 114.74 331.588 115.044 330.78 114.848Z" style="fill: var(--il-outline);"/>
<path id="vec90" d="M339.18 97.1908C338.87 96.6559 339.265 96.0853 339.729 95.8538C340.226 95.3485 340.557 94.6941 340.92 94.0904C340.907 94.1136 340.895 94.1363 340.882 94.1593C340.877 94.1743 340.871 94.1894 340.865 94.2044C341.279 93.142 342.888 93.6896 342.557 94.785C342.029 95.7775 340.451 98.7921 339.18 97.1908Z" style="fill: var(--il-outline);"/>
<path id="vec91" d="M344.549 99.4358C344.498 98.905 344.912 98.5183 345.407 98.441C346.125 98.0799 346.699 97.4981 347.338 97.0177C348.291 96.3409 349.325 97.7734 348.385 98.4761C347.474 99.1478 345.176 101.464 344.549 99.4358Z" style="fill: var(--il-outline);"/>
<path id="vec92" d="M348.467 105.007C347.317 104.947 347.386 103.212 348.541 103.24C349.786 103.217 350.982 102.821 352.21 102.654C353.454 102.573 353.518 104.421 352.264 104.456C351.003 104.659 349.754 105.029 348.467 105.007Z" style="fill: var(--il-outline);"/>
<path id="vec93" d="M349.424 111.221C349.417 109.831 351.185 110.321 352.084 110.062C352.75 109.907 353.711 109.701 353.923 110.59C354.141 111.845 352.556 111.771 351.72 111.92C350.919 111.953 349.588 112.378 349.424 111.221L349.424 111.221Z" style="fill: var(--il-outline);"/>
<path id="vec94" d="M355.838 120.012C354.947 120.005 354.652 118.708 355.451 118.324C355.45 118.322 355.449 118.319 355.447 118.317C356.138 118.084 356.753 117.702 357.364 117.312C357.784 117.057 358.362 117.264 358.585 117.68C358.828 118.13 358.637 118.645 358.219 118.902C357.472 119.342 356.718 119.909 355.838 120.012Z" style="fill: var(--il-outline);"/>
<path id="vec95" d="M358.404 125.055C357.843 124.8 357.711 124.01 358.171 123.592C359.092 123.089 360.155 122.843 360.992 122.153C361.573 121.626 362.703 121.691 362.794 122.614C362.834 123.041 362.53 123.492 362.101 123.576C361.128 124.159 359.558 125.31 358.404 125.055Z" style="fill: var(--il-outline);"/>
<path id="vec96" d="M362.213 131.9C361.13 131.52 360.032 131.177 358.964 130.75C358.529 130.716 358.168 130.386 358.126 129.943C358.117 128.709 359.389 128.883 360.174 129.307C361.149 129.725 362.221 129.913 363.164 130.396C364.137 131.032 363.198 132.511 362.213 131.9Z" style="fill: var(--il-outline);"/>
<path id="vec97" d="M358.653 137.551C358.228 137.163 357.804 136.774 357.345 136.427C357.287 136.388 357.229 136.35 357.169 136.314C356.034 136.337 355.927 134.643 357.059 134.522C358.201 134.442 358.984 135.522 359.796 136.169C360.683 136.933 359.556 138.293 358.653 137.551Z" style="fill: var(--il-outline);"/>
</g>
<g id="neg.-Outlines">
<path id="vec98" d="M147.412 215.085C145.951 214.912 144.49 214.456 143.447 213.369C143.155 213.172 142.959 212.847 143.013 212.474C143.076 212.011 143.54 211.622 144.017 211.711C143.856 211.7 143.856 211.7 144.018 211.711C144.79 211.925 145.216 212.782 146.033 212.969C146.911 213.182 147.874 213.484 148.77 213.233C149.759 212.824 150.533 211.934 150.699 210.863C151.287 208.296 150.936 205.672 150.282 203.155C150.002 202.01 151.684 201.539 152.02 202.676C152.84 206.025 153.436 209.902 151.736 213.067C150.776 214.437 149.119 215.419 147.412 215.085Z" style="fill: var(--il-ne-outline);"/>
<path id="vec99" d="M151.017 209.298C151.299 204.205 149.382 199.261 147.546 194.636C146.292 191.376 145.159 188.067 143.779 184.858C141.886 180.498 139.789 176.398 137.553 172.23C137.272 171.693 137.011 171.142 136.706 170.617C136.536 170.453 136.431 170.227 136.431 169.977C136.414 169.302 137.238 168.837 137.802 169.216C138.097 169.408 138.255 169.713 138.414 170.015C140.837 174.65 143.317 179.312 145.378 184.099C147.431 189.161 149.417 194.359 151.215 199.504C151.971 201.441 152.321 203.475 152.615 205.521C152.843 206.767 152.86 208.037 152.803 209.298C152.783 209.785 152.412 210.192 151.91 210.192C151.443 210.192 150.991 209.785 151.017 209.298H151.017Z" style="fill: var(--il-ne-outline);"/>
<path id="vec100" d="M190.071 61.8466C189.156 59.9058 193.803 60.0853 194.877 60.134C195.818 60.2674 198.132 59.8773 198.02 61.3205C197.956 61.7982 197.5 62.1515 197.021 62.0844C196.078 61.9355 195.092 61.929 194.153 61.8763C193.326 61.8386 192.502 61.9602 191.687 62.089C191.081 62.2677 190.483 62.5316 190.071 61.8466Z" style="fill: var(--il-ne-outline);"/>
<path id="vec101" d="M226.665 72.7022C226.229 71.195 224.675 70.2563 223.376 69.5297C222.996 69.3498 222.616 69.1686 222.217 69.0377C221.852 69.0019 221.53 68.7426 221.435 68.3747C221.319 67.9223 221.6 67.3874 222.075 67.2905C222.964 67.1928 223.773 67.79 224.553 68.1412C226.21 69.1159 228.111 70.4621 228.456 72.4799C228.556 73.6603 226.847 73.8766 226.665 72.7022Z" style="fill: var(--il-ne-outline);"/>
<path id="vec102" d="M120.086 23.1921L120.086 23.1922L120.086 23.1921Z" style="fill: var(--il-ne-outline);"/>
<path id="vec103" d="M123.816 23.367C123.82 23.3698 123.824 23.3727 123.828 23.3755C123.837 23.383 123.847 23.3903 123.857 23.3978C123.843 23.3875 123.829 23.3769 123.816 23.367Z" style="fill: var(--il-ne-outline);"/>
<path id="vec104" d="M96.4767 34.0592C95.0652 32.4721 93.4039 31.1668 91.6403 29.9946C89.8437 28.9985 87.9921 27.9453 85.9578 27.5457C85.3088 27.3289 84.4396 27.7042 84.0106 27.0438C83.7322 27.0482 83.4286 26.9173 83.159 26.5837C81.1886 24.2559 79.3073 20.0163 81.4153 17.2692C82.4572 16.1762 84.1911 15.7129 85.6917 16.0574C85.1867 14.1566 84.6399 11.9543 85.9205 10.3022C86.9503 9.11129 88.7457 8.60723 90.254 9.02108C90.9175 9.28961 91.4983 9.71888 92.0242 10.2076C91.2552 6.49958 92.769 4.36765 96.7341 4.14977C98.4306 4.15525 100.439 5.52001 101.649 6.96848C102.731 4.26203 106.216 3.08655 108.757 4.60433C110.45 5.59933 111.577 7.42526 112.262 9.2886C113.533 7.85561 115.581 7.55949 117.382 8.82964C120.315 11.1608 121.86 14.7532 123.348 18.0958C124.127 19.6983 124.704 21.3768 125.281 23.0596C125.449 23.5989 125.825 24.3649 125.64 24.8988C125.53 24.7909 125.419 24.6852 125.306 24.5818C124.846 24.1702 124.367 23.7838 123.875 23.4118C123.87 23.4085 123.864 23.4041 123.86 23.3997C123.849 23.392 123.838 23.3843 123.827 23.3755C123.213 22.9055 122.577 22.4642 121.895 22.0944C121.348 21.7983 120.785 21.5429 120.202 21.3338C120.202 21.3338 120.201 21.3327 120.2 21.3327C119.554 21.0081 118.86 20.7913 118.167 20.5964C117.568 20.428 116.962 20.3135 116.351 20.2002C115.972 20.1287 115.587 20.0538 115.199 20.0417C114.798 20.0296 114.396 20.0406 113.998 20.0802C113.957 20.0843 113.916 20.0886 113.876 20.093C113.837 20.0946 113.798 20.0967 113.759 20.0989C112.014 20.1991 110.278 20.6548 108.653 21.2843C108.079 21.5068 107.51 21.7487 106.968 22.0418C106.938 22.0556 106.908 22.0693 106.878 22.0833C106.065 22.4597 105.283 22.8934 104.527 23.3732C104.534 23.3678 104.542 23.3634 104.55 23.3578C103.821 23.819 103.082 24.2813 102.411 24.825C101.691 25.4083 100.983 26.029 100.408 26.7554C100.128 27.1088 99.8718 27.4841 99.6342 27.866C99.401 28.2402 99.2139 28.6474 99.0247 29.0448C98.8255 29.4641 98.6814 29.9022 98.5516 30.3479C98.4317 30.7552 98.3172 31.1635 98.2138 31.5752C97.9861 32.4897 97.8023 33.4176 97.7605 34.3619C97.7429 34.7306 97.7418 35.1004 97.7693 35.4692C97.3931 34.953 96.9255 34.5095 96.4766 34.0593L96.4767 34.0592Z" style="fill: var(--il-ne-outline);"/>
</g>
</g>
<defs>
<linearGradient id="paint0_linear_3069_312" x1="208.919" y1="66.6219" x2="208.919" y2="212.022" gradientUnits="userSpaceOnUse">
<stop style="stop-color: var(--primary-fixed);"/>
<stop offset="1" style="stop-color: var(--tertiary-fixed);"/>
</linearGradient>
<linearGradient id="paint1_linear_3069_312" x1="85.7793" y1="28.2195" x2="86" y2="213" gradientUnits="userSpaceOnUse">
<stop style="stop-color: var(--secondary-fixed-dim);"/>
<stop offset="1" style="stop-color: var(--primary-fixed-dim);"/>
</linearGradient>
<linearGradient id="paint2_linear_3069_312" x1="112.291" y1="21.6283" x2="112.291" y2="41.6134" gradientUnits="userSpaceOnUse">
<stop style="stop-color: var(--primary-fixed);"/>
<stop offset="1" style="stop-color: var(--tertiary-fixed);"/>
</linearGradient>
<linearGradient id="paint3_linear_3069_312" x1="207.714" y1="63.5864" x2="207.714" y2="85.0606" gradientUnits="userSpaceOnUse">
<stop style="stop-color: var(--primary-fixed-dim);"/>
<stop offset="1" style="stop-color: var(--secondary-fixed-dim);"/>
</linearGradient>
<linearGradient id="paint4_linear_3069_312" x1="233.43" y1="37.3278" x2="233.43" y2="70.474" gradientUnits="userSpaceOnUse">
<stop style="stop-color: var(--primary-fixed);"/>
<stop offset="1" style="stop-color: var(--tertiary-fixed);"/>
</linearGradient>
<linearGradient id="paint5_linear_3069_312" x1="293.415" y1="72.9039" x2="293.415" y2="118.619" gradientUnits="userSpaceOnUse">
<stop offset="0.379808" style="stop-color: var(--primary-fixed);"/>
<stop offset="1" style="stop-color: var(--tertiary-fixed);"/>
</linearGradient>
<linearGradient id="paint6_linear_3069_312" x1="271.9" y1="72.6786" x2="271.9" y2="122.375" gradientUnits="userSpaceOnUse">
<stop offset="0.447115" style="stop-color: var(--primary-fixed);"/>
<stop offset="1" style="stop-color: var(--tertiary-fixed);"/>
</linearGradient>
<linearGradient id="paint7_linear_3069_312" x1="318.814" y1="85.7237" x2="318.814" y2="116.832" gradientUnits="userSpaceOnUse">
<stop offset="0.346154" style="stop-color: var(--primary-fixed);"/>
<stop offset="1" style="stop-color: var(--tertiary-fixed);"/>
</linearGradient>
</defs>
</svg>