<svg xmlns="http://www.w3.org/2000/svg" width="369" height="217" viewBox="0 0 369 217" fill="none">
<g id="5_new 2">
<g id="OL---Infills">
<path id="vec0" d="M290.932 156.976C291.54 157.107 292.243 157.498 292.027 158.233C291.909 158.652 291.466 158.934 291.046 158.865C291.009 158.859 290.97 158.85 290.933 158.838C290.4 158.646 289.868 158.458 289.334 158.272C284.355 156.541 279.301 155.044 274.221 153.636C273.365 153.399 272.509 153.165 271.652 152.932C269.015 152.215 266.372 151.516 263.732 150.813C258.59 149.517 253.536 147.874 248.398 146.575C248.35 146.563 248.304 146.551 248.257 146.539C247.803 146.37 247.326 146.665 246.917 146.31C246.794 146.21 246.706 146.087 246.653 145.953C246.539 145.661 246.585 145.317 246.785 145.051C247.202 144.495 247.924 144.654 248.51 144.765C257.249 147.1 265.94 149.644 274.707 151.905C280.165 153.43 285.604 155.039 290.932 156.976L290.932 156.976Z" style="fill: var(--il-outline);"/>
<path id="vec1" d="M290.636 156.968C291.089 157.08 291.439 157.589 291.291 158.057C291.208 158.326 291.126 158.595 291.046 158.865C290.641 160.209 290.26 161.559 289.851 162.902C288.905 166.633 286.897 169.964 284.518 172.955C281.259 176.712 276.238 178.682 271.301 178.496C265.548 178.447 263.133 177.711 258.016 175.217C252.232 172.701 247.866 167.396 246.856 161.136C245.915 157.379 245.96 153.482 245.972 149.637C245.975 148.455 246.322 147.316 246.623 146.192C246.621 146.111 246.631 146.031 246.653 145.953C246.751 145.581 247.09 145.268 247.49 145.279C248.238 145.266 248.546 145.948 248.398 146.575C248.377 146.662 248.347 146.748 248.31 146.831C248 147.788 247.761 148.771 247.74 149.782C247.561 157.907 248.376 167.442 256.022 172.102C258.549 173.64 261.307 174.825 264.046 175.862C266.14 176.52 268.54 176.578 270.671 176.673C272.28 176.773 273.896 176.637 275.473 176.303C277.878 175.799 279.874 174.721 281.56 173.266C282.138 172.767 282.679 172.225 283.19 171.647C284.645 169.995 285.839 168.047 286.864 165.995C287.883 163.591 288.482 161.04 289.261 158.553C289.285 158.464 289.309 158.37 289.334 158.272C289.512 157.59 289.785 156.771 290.635 156.967L290.636 156.968Z" style="fill: var(--il-outline);"/>
<path id="vec2" d="M283.19 171.647C283.554 173.052 283.471 174.141 282.211 174.004C281.867 173.905 281.613 173.605 281.56 173.266C281.539 173.135 281.548 172.997 281.594 172.864C281.133 170.521 279.959 168.41 279.048 166.222C277.973 163.654 276.775 161.138 275.391 158.72C274.309 156.862 273.064 155.09 271.857 153.313C271.749 153.191 271.682 153.061 271.652 152.932C271.469 152.175 272.464 151.415 273.138 152.099C273.515 152.602 273.872 153.116 274.221 153.636C274.819 154.526 275.395 155.431 276.001 156.319C278.003 159.492 279.593 162.903 281.04 166.359C281.304 167.104 282.681 169.684 283.19 171.646L283.19 171.647Z" style="fill: var(--il-outline);"/>
<path id="vec3" d="M219.636 210.776C218.924 210.743 218.285 210.71 217.952 210.769C192.969 210.77 167.985 210.768 143.001 210.767C97.3781 210.764 51.7538 210.761 6.1383 210.778C5.84785 210.821 5.60694 210.716 5.43532 210.54C4.99859 210.588 4.53097 210.347 4.46385 209.768C4.39341 201.949 4.41322 194.088 4.40335 186.266C4.45175 185.893 4.62006 185.651 4.83683 185.521C4.72679 185.442 4.61465 185.334 4.50021 185.193C4.1548 184.504 4.82365 184.065 5.08883 183.498C5.95796 181.912 6.80621 180.313 7.74578 178.766C10.8438 173.615 13.5349 168.236 16.4173 162.964C18.9279 158.477 21.0204 153.782 23.3165 149.187C26.5158 142.713 29.8108 136.29 33.0927 129.857C35.7826 124.243 38.8972 118.854 41.7918 113.349C44.8987 106.891 48.3786 100.538 53.1071 95.1113C59.3825 87.3574 71.0069 82.5796 73.05 96.2802C73.0599 96.3671 73.0687 96.4552 73.0775 96.5421C73.5517 95.4249 73.9983 94.2957 74.5517 93.2116C77.2692 86.8566 79.9646 80.2892 82.5786 73.9221C83.3476 71.6317 84.395 69.4689 85.471 67.315C82.1518 68.3727 78.519 68.3947 75.0457 68.168C72.6946 68.0668 70.4778 67.1807 68.3962 66.1385C67.1244 65.5804 65.9231 64.8914 64.8955 63.9867C63.5115 64.6185 62.0075 64.9542 60.4046 64.9013C56.4616 64.9376 52.5559 64.3939 48.6404 64.0076C48.109 63.9482 47.8538 63.5464 47.8471 63.1381C47.4973 62.3226 47.6546 61.2736 47.5897 60.4108C47.4378 56.5036 47.7811 52.6051 48.4654 48.7596C50.1245 37.7203 55.5781 24.7198 66.9759 21.2825C67.2928 20.6882 68.3544 20.6573 68.9871 20.4835C69.1191 20.4526 69.2511 20.4219 69.3842 20.3921C69.4381 20.3547 69.4964 20.3228 69.5591 20.2963C70.3359 20.0597 71.2061 19.931 72.1302 19.8891C72.4933 19.8451 72.8586 19.8143 73.2249 19.7989C80.3585 19.1748 87.5492 21.8152 92.8411 26.5886C95.0425 28.8295 98.0669 31.5612 98.2924 34.8653C98.3365 35.1184 98.32 35.4222 98.2528 35.7205V35.7469C98.2265 35.9615 98.1428 36.1706 98.013 36.3742C97.8942 36.5933 97.7445 36.7771 97.5697 36.8937C97.0196 37.4077 96.1867 37.8777 95.2329 38.2893C95.6014 38.8319 95.926 39.4053 96.2032 39.9953C97.651 43.5074 98.408 47.4553 97.87 51.2392C97.6565 53.6881 97.3441 56.2196 95.9084 58.2909C95.4716 58.9909 95.0128 59.681 94.5266 60.3513C94.8423 60.3568 95.157 60.3557 95.4717 60.3601C96.246 60.4135 97.0207 60.4675 97.795 60.5219C98.0346 60.7612 98.3417 60.9347 98.6853 61.0072C98.8503 61.0414 99.0242 61.0535 99.2013 61.0535C99.4763 61.0535 99.7569 61.0249 100.018 61.0105C100.364 60.9918 100.71 60.9599 101.055 60.9302C101.37 60.9033 101.697 60.8868 102.01 60.8227C111.628 61.5191 121.24 62.2818 130.854 63.0643C142.039 63.6531 153.208 64.4566 164.395 64.899C169.985 65.2512 175.552 65.8456 181.151 66.0624C184.195 66.3386 187.227 66.7085 190.285 66.8196C192.43 66.966 194.558 67.5075 196.687 67.5108C197.064 67.6979 197.257 67.9543 197.308 68.2174C197.372 68.2702 197.432 68.334 197.487 68.4122C199.08 70.8974 200.683 73.6093 202.244 76.067C202.39 76.3994 202.73 76.603 202.783 76.9762C202.988 77.2018 203.086 77.5242 202.98 77.8214C202.392 79.4713 201.615 81.043 200.929 82.651C200.227 84.3889 199.468 86.0993 198.652 87.7865C198.317 88.481 198.035 89.2019 197.69 89.8898C197.57 90.0847 197.392 90.2134 197.194 90.2762C198.187 91.6486 198.776 93.2875 198.748 95.1641C199.216 99.3002 197.739 103.282 196.048 106.984C193.958 111.213 191.288 115.126 188.505 118.939C188.493 119.054 188.476 119.166 188.461 119.271C188.375 120.005 188.274 120.737 188.168 121.469C188.257 121.457 188.355 121.459 188.46 121.477C189.116 121.608 189.77 121.75 190.415 121.93C198.295 123.971 206.114 126.298 214.098 127.903C216.845 128.496 219.632 128.855 222.404 129.298C224.676 129.741 226.943 130.32 229.176 130.908C229.34 130.814 229.535 130.776 229.746 130.822C232.471 130.536 235.261 130.747 237.89 131.534C238.996 131.859 245.327 133.796 245.518 135.419C245.549 135.414 245.58 135.409 245.613 135.406C245.933 135.363 246.252 135.462 246.56 135.541C249.3 136.534 252.13 137.167 254.955 137.858C252.59 135.611 250.385 132.804 251.906 129.772C253.624 126.394 257.592 125.513 261.085 125.542C263.003 125.508 264.938 125.549 266.773 126.163C266.935 126.213 267.098 126.262 267.262 126.312C266.629 125.299 266.232 124.159 266.062 122.982C266.037 122.967 266.012 122.949 265.987 122.932C265.291 121.416 263.987 120.282 262.737 119.177C260.315 117.037 257.473 115.352 254.259 114.776C251.858 114.091 249.866 114.679 248.225 115.266C245.943 116.085 244.342 116.902 243.277 114.289C242.326 111.14 245.627 108.86 248.264 108.079C252.983 106.792 257.933 108.51 262.019 110.883C264.175 112.047 266.251 113.388 268.009 115.099C268.005 114.761 268.153 114.449 268.524 114.243C268.558 114.227 268.593 114.214 268.627 114.202C270.404 111.365 272.84 108.525 275.089 106.691C275.186 106.554 275.315 106.436 275.475 106.35C276.661 105.567 277.87 104.793 279.187 104.25C287.234 101.26 296.425 102.846 303.538 107.469C307.764 109.925 311.074 113.651 313.723 117.713C315.06 119.695 316.173 121.862 317.314 123.955C317.708 122.241 318.035 120.504 318.301 118.743C319.414 113.035 320.385 107.293 321.038 101.514C321.55 97.7418 321.714 93.8731 322.868 90.2256C324.083 86.544 326.97 82.4068 331.171 82.1911C336.252 82.5708 337.762 90.8915 338.51 94.9572C339.124 98.7478 338.889 102.587 338.933 106.409C338.896 109.373 338.769 112.345 338.49 115.3C339.236 112.62 339.997 109.946 340.855 107.3C342.448 102.517 345.502 93.1918 352.065 97.6526C353.642 98.7148 354.423 101.11 354.817 103.657C355.079 103.938 355.164 104.352 354.956 104.687C355.195 106.775 355.216 108.858 355.235 110.303C355.315 117.661 354.074 124.944 351.892 131.947C353.167 128.961 354.187 125.846 356.008 123.143C358.958 118.866 364.444 118.284 365.373 124.367C365.854 126.205 365.494 128.114 365.132 129.939C364.699 132.367 364.124 134.813 363.574 137.208C362.988 140.054 361.809 142.71 360.756 145.404C358.926 150.813 356.292 155.884 353.825 161.02C352.961 162.729 352.087 164.431 351.288 166.171C350.998 166.583 350.765 167.386 350.454 168.056C350.392 168.274 350.325 168.489 350.286 168.696C348.857 174.086 348.909 179.774 349.266 185.301C349.776 189.267 350.509 193.079 350.874 197.036C350.989 197.587 350.636 197.966 350.216 198.073C350.146 198.394 350.032 198.71 349.872 199.011C347.718 203.233 339.403 204.693 335.084 205.851C329.658 207.357 324.091 208.273 318.479 208.714C313.351 209.42 308.195 209.657 303.025 209.617C299.221 209.204 294.076 209.258 290.986 206.819C290.275 206.322 289.871 205.595 289.792 204.836C289.771 204.821 289.749 204.806 289.727 204.79C289.509 204.51 289.484 204.105 289.649 203.798C289.689 203.364 289.658 202.929 289.639 202.494C289.371 198.376 288.377 194.357 287.465 190.345C286.868 187.765 286.169 185.213 285.305 182.71C285.235 182.239 284.888 181.641 284.697 181.083C282.377 182.459 279.88 183.566 277.266 184.24C274.518 185.023 271.759 185.861 268.876 185.88C262.259 185.664 255.342 183.309 250.057 179.304C246.433 176.163 243.552 172.188 241.22 168.013C239.944 165.483 239.248 162.691 238.592 159.945C237.711 156.185 237.395 152.32 237.663 148.467C237.692 147.022 238.151 145.631 238.293 144.216C238.273 144.205 238.254 144.194 238.235 144.181C236.375 143.277 234.4 142.34 232.31 142.532C232.003 143.859 231.675 145.182 231.291 146.487C230.086 150.094 228.9 153.758 227.106 157.121C224.621 161.184 221.865 165.125 218.553 168.562C211.578 175.055 201.925 178.893 192.366 178.448C186.56 178.209 180.491 176.558 176.012 172.727C175.651 173.075 175.289 173.421 174.929 173.766C171.047 177.396 166.935 180.761 162.854 184.143C155.364 190.141 148.239 196.449 140.396 201.959C137.867 203.861 135.282 205.689 132.76 207.599C132.105 208.081 131.432 208.537 130.762 208.998C161.189 208.997 191.616 208.997 222.043 208.999C222.703 208.904 223.262 209.709 222.914 210.293C222.755 210.716 221.912 210.816 220.948 210.816C220.518 210.816 220.064 210.796 219.636 210.776L219.636 210.776ZM20.2129 159.662C16.2347 167.109 12.3401 174.606 8.03616 181.872C7.40909 182.745 6.68292 184.96 5.77201 185.55C6.08882 185.744 6.30999 186.131 6.21867 186.656C6.10978 191.647 6.22415 196.645 6.16588 201.638C6.18461 204.097 6.27593 206.556 6.2374 209.012C8.41902 208.975 10.6106 208.984 12.8021 208.993C14.3721 208.999 15.9431 209.006 17.512 208.996C54.402 209.001 91.292 208.999 128.182 208.998C128.344 208.061 130.218 207.423 130.816 206.809C134.574 204.052 138.323 201.286 142.068 198.51C148.539 193.956 154.341 188.635 160.519 183.742C163.394 181.478 166.226 178.999 169.032 176.678C172.261 173.777 175.729 171.016 178.314 167.496C182.34 161.632 181.732 157.232 180.146 150.824C175.507 156.781 169.346 161.571 164.113 166.98C157.479 173.212 150.54 179.109 143.368 184.709C140.563 186.819 137.775 188.946 134.915 190.978C134.391 191.348 133.83 191.671 133.328 192.069C132.962 192.531 132.265 192.759 131.817 192.269C130.932 191.09 132.789 190.352 133.54 189.758C134.338 189.21 135.116 188.635 135.899 188.066C138.879 185.847 141.877 183.651 144.762 181.307C152.199 175.433 159.329 169.166 166.122 162.555C171.738 156.732 178.824 151.703 182.202 144.153C183.864 138.259 184.965 132.213 185.73 126.138C185.909 124.734 186.104 123.33 186.296 121.927C186.135 122.145 185.972 122.362 185.81 122.58C184.539 124.22 183.124 125.734 181.717 127.255C179.722 129.553 177.92 132.014 175.812 134.213C169.738 141.217 163.426 148.01 157.153 154.836C151.809 159.753 146.599 164.849 140.924 169.392C137.09 172.44 133.312 175.559 129.562 178.71C128.281 179.854 126.871 180.836 125.392 181.704C124.383 182.127 123.057 183.805 122.131 182.725C121.338 181.421 123.889 180.759 124.641 180.086C126.284 179.137 127.762 177.944 129.19 176.7C134.605 172.06 140.338 167.802 145.654 163.047C148.749 160.207 151.778 157.296 154.942 154.531C163.545 145.342 172.108 136.081 180.13 126.38C180.597 125.888 181.055 125.39 181.508 124.884C180.56 125.227 179.538 125.292 178.6 124.938C177.327 124.44 176.621 123.133 176.857 121.796C175.928 121.885 175.536 120.557 176.373 120.129C176.616 119.991 176.86 119.852 177.108 119.716C179.943 112.101 185.563 105.836 191.725 100.683C193.052 99.4611 195.453 97.962 196.932 98.5256C197.053 97.5361 197.081 96.5334 196.985 95.5187C197.037 92.4842 195.449 90.2368 192.823 88.8148C187.719 85.601 181.866 88.9149 177.646 92.11C169.23 97.8982 162.472 105.688 155.253 112.833C151.521 116.925 147.434 120.674 143.681 124.744C137.414 131.623 130.454 137.882 122.984 143.43C118.521 146.799 114.001 150.289 108.744 152.323C108.505 152.409 108.283 152.387 108.096 152.297C106.807 153.681 105.513 155.062 104.219 156.443C100.55 160.481 96.53 164.167 92.4429 167.774C91.5066 168.412 89.8476 170.922 88.842 169.703C88.2567 168.873 89.2062 168.313 89.7552 167.829C91.214 166.484 92.6838 165.15 94.1779 163.842C97.4531 160.94 100.538 157.832 103.495 154.606C113.153 144.305 122.755 133.904 131.254 122.612C134.784 117.906 138.424 113.247 141.797 108.422C141.262 108.572 140.702 108.607 140.147 108.496C133.779 106.72 141.911 91.6103 143.857 88.0091C146.207 84.1921 150.036 80.6481 154.67 80.2122C154.825 80.2045 154.993 80.2001 155.163 80.2089C155.155 78.7043 154.89 77.2834 154.287 76.0045C153.47 73.7119 152.231 72.0566 149.684 71.6471C139.383 69.6869 130.455 85.3003 123.79 91.4924C116.457 99.3222 109.057 107.128 101.038 114.263C92.7983 120.854 85.6845 128.64 78.2386 136.075C75.0965 139.164 71.7343 142.023 68.2985 144.777C64.6173 147.381 59.9943 152.132 55.1646 151.111C52.4174 150.371 52.0005 146.378 53.4362 144.338C53.5187 144.273 53.6034 144.224 53.6904 144.194C55.0128 141.089 57.4375 137.012 57.7214 136.031C60.4982 129.633 64.0342 123.546 66.3632 116.967C68.3534 112.017 70.4119 106.968 71.2128 101.669C71.7607 97.9278 71.3525 93.829 69.0136 90.733C66.7373 88.2785 62.8999 89.628 60.3926 91.0367C61.2727 92.1461 61.517 94.2164 61.5962 95.3743C61.7855 102.349 57.8226 108.662 53.4934 113.823C51.292 116.325 47.3346 118.561 43.9416 118.317C43.1407 118.243 42.3552 118.056 41.6225 117.715C41.5872 117.698 41.5543 117.68 41.5234 117.66C33.9784 131.428 27.1331 145.573 20.213 159.662L20.2129 159.662ZM299.816 129.314C301.413 133.879 301.637 138.294 300.123 142.919C299.69 144.602 298.981 146.185 298.262 147.762C298.232 147.831 298.191 147.895 298.144 147.951C298.616 148.616 299.075 149.287 299.523 149.969C299.583 149.984 299.643 150 299.703 150.016C300.664 150.308 300.418 151.664 299.572 151.75C299.092 153.275 298.589 154.775 298.009 156.264C297.361 158.983 296.448 161.604 295.311 164.156C293.95 167.727 292.642 171.377 290.571 174.611C290.073 175.363 289.492 176.046 288.91 176.735C287.989 177.802 287.18 179.001 286.16 179.976C286.318 180.209 286.42 180.508 286.502 180.777C287.145 182.515 287.705 184.296 288.222 186.078C288.427 187.095 291.062 196.638 291.415 201.826C291.665 201.615 291.943 201.485 292.305 201.601C303.346 195.919 315.398 192.017 327.739 190.553C333.9 189.878 343.378 189.751 348.483 193.591C348.56 193.65 348.635 193.712 348.708 193.777C348.374 191.371 347.976 188.975 347.644 186.566C347.214 183.752 347.298 180.889 347.276 178.05C347.4 174.822 347.68 171.602 348.458 168.47C348.415 168.288 348.43 168.092 348.514 167.913C348.59 167.745 348.666 167.576 348.743 167.408C348.758 167.353 348.774 167.298 348.79 167.243C348.757 166.904 348.911 166.562 349.219 166.379C350.618 163.401 352.143 160.484 353.559 157.513C355.102 154.208 356.831 150.963 358.087 147.538C359.081 144.61 360.419 141.8 361.323 138.853C361.409 138.541 361.493 138.227 361.573 137.913C361.245 137.999 360.877 137.9 360.652 137.623C357.545 133.791 359.659 127.416 363.496 124.883C363.549 124.853 363.601 124.827 363.652 124.805C363.061 121.861 361.727 120.565 358.737 122.752C357.19 124.136 356.335 126.086 355.489 127.941C353.05 134.25 349.957 140.299 346.184 145.919C345.117 147.425 339.564 155.38 337.834 154.236C337.418 153.97 337.286 153.41 337.55 152.99C339.893 151.328 341.649 149.07 343.384 146.794C343.548 146.567 343.711 146.34 343.872 146.112C343.891 145.999 343.934 145.89 344.002 145.789C344.684 144.798 345.167 143.946 345.683 142.92C346.819 140.466 348.039 138.038 348.831 135.471C350.486 130.889 351.819 126.177 352.61 121.376C352.445 121.356 352.276 121.282 352.118 121.14C351.336 120.421 351.247 119.274 350.855 118.334C349.646 115.009 349.141 111.176 350.207 107.752C350.815 106.249 351.739 104.846 353.001 103.816C352.774 102.569 352.445 101.345 351.975 100.162C347.093 94.3011 343.995 103.547 342.713 107.379C338.792 118.866 337.203 131.53 329.817 141.51C328.814 142.66 326.911 145.791 325.357 145.639C324.394 145.457 324.415 144 325.393 143.869C328.407 141.057 330.483 137.436 332.386 133.823C332.501 133.588 332.613 133.351 332.722 133.113C332.272 132.345 333.365 131.169 333.525 130.346C334.245 128.18 334.906 125.996 335.43 123.774C336.706 117.624 337.192 111.347 337.16 105.073C336.856 105.399 336.341 105.525 335.91 105.127C332.56 101.403 332.48 95.7814 333.186 91.0697C333.405 89.9162 334.019 88.897 334.645 87.9218C334.662 87.8382 334.69 87.7568 334.729 87.6808C333.481 84.8379 331.627 82.9393 328.94 84.7091C326.155 86.5857 324.646 89.7246 323.994 92.9363C322.814 100.529 322.195 108.206 320.685 115.752C319.883 119.559 319.402 123.438 318.363 127.191C317.559 129.961 316.563 132.679 315.467 135.348C314.817 136.891 314.093 138.401 313.363 139.906C313.025 140.608 312.592 141.767 311.614 141.345C310.958 141.015 310.947 140.226 311.44 139.745C312.129 138.401 312.771 137.035 313.391 135.659C314.776 132.597 315.875 129.487 316.729 126.307C316.647 126.254 316.57 126.184 316.499 126.094C313.674 120.923 310.815 115.61 306.347 111.655C302.463 108.486 297.877 106.025 292.948 104.991C289.639 104.368 286.148 104.308 282.839 105.03C283.909 105.485 284.457 106.582 283.74 108.565C282.049 111.819 273.078 117.947 269.389 116.802C269.314 116.785 269.239 116.759 269.165 116.726C267.669 119.519 266.984 122.966 269.022 125.661C269.984 126.607 271.266 127.04 272.587 127.159C273.758 127.348 274.941 127.542 276.128 127.383C278.213 127.068 280.108 126.15 281.994 125.3C284.596 124.099 287.329 123.052 290.203 122.794C290.429 122.775 290.654 122.765 290.877 122.765C294.841 122.765 298.312 125.754 299.816 129.314L299.816 129.314ZM235.554 141.148C236.735 141.516 237.875 142.013 238.989 142.542C239.219 142.6 239.45 142.805 239.544 143.02C239.557 143.047 239.569 143.073 239.579 143.1C239.751 143.168 239.904 143.29 240.012 143.466C240.269 143.838 240.128 144.362 240.046 144.77C239.732 146.231 239.44 147.698 239.398 149.196C239.069 154.883 240.251 160.722 242.232 166.001C244.279 170.331 247.254 174.266 250.723 177.558C254.04 180.391 258.218 181.967 262.36 183.162C265.293 183.937 268.365 184.362 271.38 183.872C274.565 183.253 277.743 182.369 280.742 181.124C283.91 179.765 285.246 178.632 287.261 175.894C289.384 173.631 290.629 170.981 291.8 168.173C292.988 165.195 294.201 162.222 295.326 159.22C295.937 156.732 296.841 154.307 297.649 151.898C297.705 151.742 297.754 151.561 297.807 151.376C295.958 150.895 294.129 150.313 292.267 149.963C292.21 149.95 292.154 149.936 292.098 149.921C291.847 150.109 291.504 150.168 291.146 149.962C290.957 149.825 290.779 149.678 290.609 149.524C288.921 149.046 287.253 148.5 285.536 148.133C280.954 146.926 276.471 145.372 271.888 144.161C263.103 141.904 254.264 139.538 245.543 137.228C245.025 137.155 244.781 136.716 244.803 136.287C244.579 136.33 244.34 136.289 244.133 136.164C240.4 133.837 236.087 132.455 231.692 132.479C231.486 132.457 231.27 132.47 231.05 132.496C230.837 132.886 230.356 133.15 229.821 132.969C224.265 131.186 218.52 130.644 212.834 129.485C204.525 127.789 196.372 125.228 188.144 123.233C188.063 123.218 187.991 123.195 187.925 123.165C187.903 123.324 187.881 123.483 187.86 123.642C187.566 125.758 187.285 127.887 186.974 130.014C187.1 129.995 187.237 130.005 187.387 130.05C192.932 131.553 198.494 133.008 204.122 134.166C207.671 135.091 211.21 136.058 214.826 136.696C217.861 137.308 220.913 137.932 223.838 138.919C224.004 138.997 224.135 139.124 224.223 139.274C224.386 139.347 224.528 139.479 224.62 139.684C225.142 142.435 223.994 145.31 222.736 147.725C221.425 150.268 220.431 152.995 218.708 155.308C216.434 158.482 213.64 161.285 210.561 163.679C208.268 165.426 205.879 167.13 203.228 168.288C198.915 169.893 194.163 170.785 189.569 170.164C186.725 169.638 184.112 168.396 181.506 167.269C181.153 167.086 181.014 166.778 181.026 166.476C180.856 166.768 180.676 167.061 180.482 167.355C179.634 168.887 178.506 170.212 177.291 171.46C177.437 171.579 177.577 171.703 177.709 171.805C183.188 176.081 191.029 177.264 197.8 176.463C205.029 175.449 212.004 172.296 217.33 167.274C220.453 164.022 223.036 160.296 225.421 156.483C226.781 154.143 227.557 151.616 228.518 149.123C229.465 146.579 230.246 143.961 230.742 141.291C230.792 140.807 231.185 140.422 231.687 140.452C231.957 140.479 232.148 140.579 232.275 140.726C232.428 140.711 232.588 140.704 232.752 140.704C233.808 140.704 235.034 140.985 235.554 141.148L235.554 141.148ZM182.292 165.681C184.937 166.826 187.6 168.091 190.477 168.502C195.014 168.818 199.76 168.004 203.864 166.024C210.786 162.047 217.126 156.354 220.216 148.849C221.488 146.226 223.052 143.592 222.985 140.587C222.863 140.551 222.744 140.501 222.635 140.445C218.404 138.972 213.904 138.474 209.564 137.414C205.956 136.45 202.343 135.531 198.67 134.838C194.747 133.734 190.758 132.88 186.848 131.741C186.804 131.727 186.762 131.71 186.723 131.69C185.978 136.52 185.03 141.32 183.406 145.915C182.816 146.988 182.17 148.018 181.478 149.014C181.734 149.585 181.82 150.269 182.006 150.845C183.254 156.228 183.897 160.911 181.434 165.725C181.563 165.637 181.717 165.584 181.886 165.584C182.014 165.584 182.15 165.614 182.292 165.681L182.292 165.681ZM156.301 76.3402C159.014 83.699 152.628 94.6336 148.766 100.838C143.857 109.377 137.621 117.014 131.771 124.903C125.193 133.474 118.027 141.558 110.7 149.49C115.147 147.305 119.075 144.128 123.031 141.171C130.723 135.426 137.714 128.78 144.132 121.651C148.792 117.135 153.198 112.341 157.777 107.79C160.603 104.792 163.479 101.837 166.544 99.0801C169.536 96.2218 172.562 93.3789 176.022 91.0841C180.718 87.5533 187.034 83.7671 192.887 86.8324C194.087 87.4025 195.187 88.1366 196.102 89.0226C196.133 88.9433 196.174 88.8685 196.22 88.797C196.592 88.0068 196.951 87.211 197.324 86.4218C198.62 83.6736 199.807 80.8736 200.971 78.067C197.352 77.6499 193.722 77.3076 190.08 77.1898C186.719 76.9355 183.396 76.2763 180.016 76.2686C171.954 76.2587 163.899 75.934 155.869 75.2076C156.019 75.5873 156.159 75.9681 156.301 76.3401V76.3402ZM275.414 129.233C276.565 130.566 277.602 132.008 278.843 133.264C281.698 136.528 284.745 139.618 287.476 142.991C288.964 144.532 290.123 146.374 291.588 147.921C293.352 148.398 295.125 148.842 296.895 149.292C291.699 141.926 285.324 135.46 279.471 128.623C279.339 128.584 279.229 128.527 279.138 128.46C277.934 128.87 276.702 129.164 275.414 129.233L275.414 129.233ZM96.4066 72.0819C92.6628 79.2404 89.4161 86.6409 86.0595 93.9909C79.8677 108.067 73.3953 122.016 66.4158 135.718C64.8976 139.109 63.0856 142.358 61.5948 145.76C61.1294 146.583 60.7213 147.432 60.3428 148.296C62.9723 146.846 65.65 144.459 67.1859 143.397C72.6571 139.113 77.6783 134.306 82.485 129.294C87.9727 123.438 93.9059 117.809 100.095 112.736C109.413 104.348 118 95.1707 126.507 85.9717C129.637 82.354 133.202 77.7247 137.331 74.3062C132.092 73.6557 126.798 73.6094 121.532 73.2583C115.793 72.8291 110.065 72.259 104.329 71.7945C101.818 71.5546 99.3144 71.2596 96.7939 71.1342C96.7697 71.4137 96.6531 71.733 96.4066 72.0819ZM260.42 134.908C262.346 136.309 264.326 137.822 265.225 140.11C265.303 140.291 265.323 140.461 265.297 140.614C267.53 141.197 269.767 141.769 272.002 142.339C277.521 143.815 282.918 145.707 288.475 147.038C288.499 147.045 288.524 147.052 288.548 147.06C288.199 146.591 287.846 146.127 287.459 145.7C286.221 144.272 285.015 142.817 283.781 141.385C281.214 138.455 278.598 135.746 276.092 132.83C275.843 132.868 275.579 132.807 275.379 132.633C274.517 131.852 273.581 131.161 272.652 130.465C271.438 129.646 269.999 129.227 268.672 128.623C265.025 127.168 260.94 126.917 257.125 127.825C255.173 128.302 252.727 130.231 253.253 132.459C253.387 132.852 253.555 133.226 253.75 133.586C254.192 133.452 254.667 133.4 255.114 133.337C255.422 133.285 255.73 133.26 256.035 133.26C257.628 133.26 259.15 133.937 260.42 134.908V134.908ZM290.756 124.578C287.269 124.651 284.209 126.388 281.055 127.722C281.584 128.371 282.117 129.015 282.677 129.639C284.054 131.149 285.343 132.624 286.748 134.087C290.209 138.093 293.769 142.055 296.939 146.299C297.209 145.695 297.478 145.092 297.727 144.48C298.293 142.93 298.748 141.329 299.049 139.705C299.765 136.357 299.16 132.901 298.034 129.712C296.688 126.985 294.058 124.577 290.88 124.577C290.839 124.577 290.798 124.577 290.756 124.578ZM254.833 135.171C255.768 136.3 256.922 137.276 258.023 138.204C258.265 138.401 258.533 138.599 258.68 138.863C260.191 139.272 261.704 139.673 263.216 140.071C262.202 138.309 260.442 137.122 258.797 135.972C257.954 135.343 256.951 135.066 255.933 135.066C255.566 135.066 255.197 135.102 254.833 135.171ZM361.383 135.427C361.509 135.725 361.762 136.045 361.958 136.367C362.349 134.737 362.695 133.096 363.034 131.454C363.285 129.938 363.709 128.413 363.796 126.874C361.585 128.886 360.117 132.652 361.383 135.427ZM178.691 120.887C178.572 121.951 178.35 123.402 179.857 123.394C181.391 123.281 183.283 122.107 183.149 120.386C182.664 120.147 182.149 120.048 181.628 120.048C180.613 120.048 179.574 120.426 178.691 120.887ZM184.995 120.712C185.574 119.973 186.14 119.225 186.696 118.468C186.719 117.85 186.829 117.245 187.583 117.244C189.681 114.301 191.63 111.247 193.489 108.153C194.52 106.086 195.554 103.929 196.239 101.694C196.205 101.483 196.248 101.223 196.399 100.919C196.536 97.6559 187.793 106.699 187.049 107.53C183.852 110.762 181.423 114.583 179.403 118.638C180.122 118.38 180.905 118.247 181.65 118.247C183.454 118.247 185.042 119.027 184.995 120.712ZM258.053 114.073C261.045 115.324 263.911 117.505 266.11 119.993C266.206 119.447 266.35 118.91 266.541 118.392C266.715 117.886 266.932 117.36 267.185 116.822C266.152 115.767 265.001 114.833 263.781 114.001C259.517 111.354 254.57 108.62 249.386 109.671C247.515 110.005 243.565 112.054 245.385 114.313C246.769 113.952 248.079 113.344 249.462 112.985C250.246 112.795 251.04 112.711 251.837 112.711C253.959 112.711 256.091 113.308 258.053 114.073L258.053 114.073ZM352.523 117.735C352.699 118.146 352.802 118.607 352.951 119.04C353.147 117.49 353.283 115.933 353.354 114.368C353.446 111.618 353.564 108.772 353.298 105.996C350.546 109.106 351.206 114.042 352.523 117.735ZM45.5059 111.112C45.0098 111.42 44.7754 112.082 44.2803 112.348C43.6521 113.602 43.0228 114.854 42.3682 116.092C42.3715 116.093 42.3737 116.095 42.377 116.096C44.8216 117.217 47.4796 116.109 49.6624 114.758C49.6932 114.388 49.9243 113.98 49.9341 113.557C50.1303 111.892 48.599 110.521 47.0758 110.521C46.5238 110.521 45.9733 110.701 45.5059 111.112ZM276.085 108.173C275.546 108.602 275.032 109.061 274.554 109.559C272.933 111.27 271.46 113.124 270.167 115.095C272.979 115.366 277.507 112.105 279.586 110.469C278.078 110.398 276.449 109.32 276.413 107.964C276.321 108.057 276.207 108.128 276.085 108.173ZM51.5096 111.79C51.6042 112.099 51.6878 112.561 51.7208 113.056C56.5275 108.081 62.0647 98.2205 58.9192 92.0691C58.8873 92.0713 58.8565 92.0724 58.8257 92.0724C55.0279 94.8525 52.2709 98.8753 49.6228 102.719C48.2839 104.703 47.1243 106.788 46.023 108.906C46.4132 108.802 46.8111 108.75 47.2067 108.75C48.9692 108.75 50.6902 109.779 51.5096 111.79V111.79ZM278.233 107.911H278.236C278.518 108.622 279.551 108.611 280.204 108.702C280.397 108.714 280.592 108.674 280.786 108.635C281.046 108.582 281.305 108.528 281.559 108.602C282.019 108.064 282.316 107.468 282.208 106.746C281.988 106.628 281.701 106.576 281.381 106.576C280.25 106.575 278.705 107.226 278.233 107.911ZM139.516 104.495C139.526 105.367 139.653 106.842 140.83 106.76C142.098 106.705 143.475 105.324 143.44 104.055C143.241 103.523 142.646 103.33 142.164 103.133C142.062 103.111 141.962 103.101 141.865 103.101C140.932 103.101 140.254 104.03 139.516 104.495ZM334.588 95.3632C334.534 97.4764 334.947 99.5621 335.698 101.533C336.041 102.36 336.473 103.2 337.134 103.816C337.139 103.822 337.145 103.827 337.15 103.831C337.143 101.46 337.265 99.0845 336.936 96.728C336.762 95.2928 336.338 92.4851 335.533 89.8734C334.603 91.521 334.684 93.5186 334.588 95.3633L334.588 95.3632ZM145.121 103.446C145.917 102.193 146.687 100.924 147.425 99.6358C150.133 95.2674 154.356 88.1651 155.06 81.9972C154.654 81.9763 154.252 82.0467 153.853 82.1161C149.367 83.2167 146.056 87.0821 144.213 91.1544C142.315 94.5609 140.903 98.183 139.903 101.948C140.459 101.525 141.138 101.332 141.823 101.331C143.217 101.331 144.64 102.135 145.121 103.446ZM74.4614 44.7334C75.2624 50.7451 72.1104 59.2914 66.5864 63.0324C67.7141 63.8699 69.0288 64.4599 70.3006 65.0454C73.4603 66.6303 77.0942 66.5885 80.5377 66.3717C85.0737 66.3431 89.0817 64.023 91.995 60.6947C92.0643 60.5263 92.1809 60.3788 92.3426 60.2852C93.588 58.784 94.6156 57.0967 95.3769 55.3324C96.1943 51.9326 96.5782 48.3071 95.8104 44.8666C95.4022 42.7677 94.7729 40.6787 93.5154 38.9309C91.446 39.6066 89.261 40.0194 88.2401 40.059C85.7405 39.9897 83.2497 39.5505 80.9305 38.604C80.1571 41.2081 76.7542 43.9013 74.1798 43.4324C74.3239 43.9299 74.4153 44.4142 74.4615 44.7334L74.4614 44.7334Z" style="fill: var(--il-outline);"/>
<path id="vec4" d="M324.381 193.631C323.269 193.381 323.786 192.129 323.827 191.34C323.997 189.355 324.07 187.348 323.869 185.363C323.013 177.768 319.73 170.359 315.102 164.323C311.753 160.185 307.023 156.659 301.512 156.645C301.2 156.546 300.951 156.269 300.895 155.947C300.099 154.575 299.353 153.177 298.578 151.794C297.798 151.372 298.142 150.121 299.013 150.09C299.607 150.027 299.961 150.561 300.208 151.02C300.934 152.319 301.615 153.642 302.374 154.923C314.959 155.786 322.824 171.059 325.165 182.053C325.608 184.384 325.841 186.756 325.735 189.13C325.703 190.397 325.592 191.662 325.405 192.914C325.334 193.391 324.841 193.713 324.381 193.631Z" style="fill: var(--il-outline);"/>
<path id="vec5" d="M301.542 156.42C300.752 155.998 300.946 155.268 301.462 154.719C302.482 152.789 303.155 150.694 303.343 148.514C303.489 147.049 303.469 145.572 303.282 144.11C303.104 143.813 303.134 143.398 303.326 143.095C303.639 142.543 304.44 142.555 304.801 143.039C305.078 143.453 305.032 143.987 305.104 144.462C305.461 147.886 305 151.429 303.528 154.558C303.117 155.337 302.701 156.856 301.542 156.42Z" style="fill: var(--il-outline);"/>
<path id="vec6" d="M302.319 156.454C301.139 156.191 301.518 154.119 302.75 154.473C305.046 152.903 307.232 151.016 308.391 148.428C308.875 147.366 310.489 148.071 310.029 149.149C309.851 149.558 309.634 149.954 309.408 150.338C308.148 152.539 306.201 154.231 304.144 155.669C303.598 156.012 303.021 156.628 302.319 156.454Z" style="fill: var(--il-outline);"/>
<path id="vec7" d="M78.9806 51.2152C75.4721 49.7617 77.9062 43.8275 81.4185 44.6356C82.8346 45 84.2656 46.1659 83.9204 47.7834C83.4439 49.9154 81.2238 51.7928 78.9806 51.2152Z" style="fill: var(--il-outline);"/>
<path id="vec8" d="M87.0908 50.5322C86.4303 48.8802 87.534 46.8881 89.0382 46.1164C90.2603 45.4564 91.9462 46.1425 92.5564 47.3326C94.2864 50.6133 88.8396 54.0612 87.0908 50.5321L87.0908 50.5322Z" style="fill: var(--il-outline);"/>
<path id="vec9" d="M363.652 124.805C363.601 124.827 363.549 124.854 363.496 124.883C359.659 127.416 357.545 133.792 360.652 137.623C360.877 137.9 361.245 137.999 361.573 137.914C361.493 138.227 361.409 138.541 361.323 138.853C360.419 141.8 359.081 144.61 358.086 147.539C356.831 150.964 355.102 154.208 353.559 157.513C352.143 160.484 350.617 163.401 349.219 166.379C348.911 166.562 348.757 166.904 348.79 167.243C348.773 167.298 348.758 167.353 348.743 167.408C348.666 167.576 348.59 167.745 348.514 167.913C348.43 168.093 348.415 168.289 348.458 168.47C347.68 171.603 347.399 174.822 347.276 178.05C347.298 180.89 347.213 183.752 347.644 186.567C347.976 188.975 348.374 191.371 348.708 193.777C348.635 193.712 348.56 193.65 348.483 193.591C343.378 189.751 333.9 189.879 327.739 190.553C327.04 190.636 326.341 190.727 325.643 190.826C325.691 190.261 325.72 189.696 325.735 189.13C325.841 186.756 325.608 184.384 325.165 182.053C322.972 171.758 315.938 157.712 304.718 155.258C306.56 153.91 308.266 152.334 309.408 150.339C309.634 149.955 309.85 149.558 310.029 149.15C310.49 148.071 308.875 147.366 308.391 148.428C307.434 150.566 305.774 152.226 303.932 153.624C305.082 150.734 305.427 147.55 305.104 144.462C305.033 143.987 305.079 143.453 304.801 143.039C304.44 142.556 303.639 142.544 303.326 143.095C303.134 143.398 303.104 143.813 303.282 144.11C303.469 145.572 303.489 147.049 303.343 148.515C303.179 150.419 302.644 152.259 301.832 153.981C301.304 153.04 300.8 152.084 300.274 151.141C300.411 150.712 300.26 150.186 299.702 150.016C299.643 150.001 299.582 149.984 299.523 149.969C299.075 149.288 298.615 148.616 298.143 147.951C298.191 147.895 298.231 147.831 298.262 147.762C298.981 146.185 299.69 144.602 300.123 142.919C301.636 138.295 301.413 133.879 299.816 129.315C298.227 125.554 294.443 122.431 290.203 122.794C287.329 123.052 284.596 124.1 281.994 125.301C280.108 126.15 278.213 127.068 276.128 127.383C274.941 127.543 273.758 127.349 272.587 127.16C271.266 127.041 269.984 126.607 269.022 125.662C266.984 122.966 267.668 119.519 269.165 116.727C269.238 116.76 269.314 116.785 269.389 116.803C273.078 117.947 282.049 111.819 283.74 108.566C284.457 106.582 283.909 105.485 282.839 105.03C286.148 104.308 289.639 104.369 292.948 104.992C297.877 106.025 302.463 108.486 306.347 111.655C310.815 115.611 313.673 120.923 316.499 126.094C316.57 126.184 316.647 126.255 316.729 126.307C315.875 129.487 314.776 132.598 313.391 135.659C312.771 137.035 312.129 138.401 311.44 139.745C310.947 140.226 310.958 141.015 311.614 141.345C312.592 141.767 313.024 140.608 313.363 139.907C314.093 138.401 314.817 136.891 315.467 135.348C316.563 132.679 317.559 129.962 318.362 127.191C319.402 123.438 319.883 119.56 320.685 115.753C322.194 108.207 322.814 100.53 323.994 92.9366C324.645 89.725 326.155 86.5861 328.939 84.7095C331.627 82.9397 333.481 84.8382 334.729 87.6811C334.69 87.7571 334.662 87.8386 334.645 87.9222C334.019 88.8973 333.405 89.9165 333.186 91.07C332.48 95.7817 332.56 101.404 335.91 105.127C336.34 105.526 336.855 105.399 337.16 105.073C337.192 111.348 336.706 117.625 335.43 123.774C334.906 125.996 334.245 128.181 333.525 130.347C333.365 131.169 332.272 132.346 332.722 133.114C332.613 133.351 332.501 133.588 332.385 133.824C330.483 137.436 328.407 141.057 325.393 143.869C324.415 144 324.394 145.457 325.356 145.639C326.911 145.791 328.814 142.661 329.816 141.511C337.203 131.53 338.792 118.866 342.713 107.379C343.994 103.548 347.092 94.3014 351.975 100.162C352.445 101.345 352.774 102.569 353 103.816C351.738 104.847 350.814 106.25 350.207 107.752C349.141 111.176 349.646 115.01 350.855 118.335C351.247 119.275 351.336 120.421 352.118 121.14C352.275 121.282 352.445 121.356 352.61 121.377C351.819 126.178 350.485 130.889 348.831 135.471C348.039 138.038 346.818 140.466 345.683 142.92C345.167 143.946 344.684 144.798 344.002 145.79C343.934 145.89 343.891 145.999 343.872 146.112C343.71 146.34 343.548 146.568 343.384 146.794C341.649 149.071 339.893 151.328 337.549 152.99C337.285 153.41 337.417 153.971 337.833 154.236C339.564 155.38 345.117 147.425 346.184 145.919C349.957 140.3 353.05 134.251 355.489 127.941C356.335 126.086 357.19 124.136 358.737 122.752C361.727 120.566 363.06 121.861 363.652 124.805L363.652 124.805Z" fill="url(#paint0_linear_3070_467)"/>
<path id="vec10" d="M323.87 185.363C324.062 187.268 324.003 189.193 323.847 191.097C312.868 192.859 302.182 196.517 292.305 201.601C291.943 201.486 291.664 201.616 291.415 201.826C291.061 196.638 288.426 187.095 288.222 186.078C287.705 184.296 287.145 182.515 286.501 180.777C286.42 180.508 286.317 180.209 286.16 179.976C287.18 179.001 287.989 177.802 288.91 176.735C289.492 176.046 290.072 175.363 290.571 174.612C292.641 171.377 293.949 167.727 295.31 164.156C296.448 161.604 297.361 158.983 298.009 156.264C298.441 155.155 298.83 154.04 299.198 152.913C299.757 153.928 300.313 154.944 300.895 155.947C300.951 156.269 301.2 156.546 301.512 156.645C307.023 156.659 311.754 160.185 315.103 164.323C319.73 170.359 323.013 177.767 323.87 185.363Z" fill="url(#paint1_linear_3070_467)"/>
<path id="vec11" d="M289.334 158.272C289.309 158.37 289.285 158.465 289.262 158.554C288.483 161.04 287.883 163.591 286.864 165.995C285.839 168.048 284.645 169.995 283.19 171.647C282.682 169.684 281.304 167.105 281.04 166.359C279.593 162.903 278.004 159.493 276.001 156.32C275.395 155.431 274.82 154.527 274.221 153.636C279.301 155.044 284.355 156.541 289.334 158.272L289.334 158.272Z" fill="url(#paint2_linear_3070_467)"/>
<path id="vec12" d="M288.548 147.06C288.523 147.052 288.499 147.045 288.475 147.038C282.918 145.707 277.521 143.815 272.002 142.339C269.766 141.769 267.53 141.197 265.296 140.615C265.323 140.462 265.303 140.291 265.225 140.11C264.326 137.822 262.346 136.309 260.419 134.908C258.907 133.751 257.035 133.011 255.113 133.337C254.667 133.4 254.191 133.452 253.75 133.586C253.554 133.226 253.387 132.852 253.253 132.459C252.727 130.231 255.173 128.302 257.124 127.825C260.94 126.917 265.025 127.168 268.672 128.623C269.999 129.227 271.438 129.646 272.652 130.464C273.581 131.161 274.517 131.852 275.378 132.633C275.579 132.807 275.843 132.868 276.091 132.83C278.598 135.746 281.214 138.455 283.78 141.385C285.015 142.817 286.221 144.272 287.458 145.7C287.846 146.127 288.199 146.591 288.548 147.06V147.06Z" fill="url(#paint3_linear_3070_467)"/>
<path id="vec13" d="M263.216 140.071C261.703 139.674 260.191 139.272 258.68 138.863C258.533 138.599 258.265 138.401 258.023 138.204C256.922 137.276 255.768 136.3 254.833 135.171C256.207 134.913 257.649 135.116 258.797 135.972C260.441 137.122 262.202 138.309 263.216 140.071Z" style="fill: var(--primary-fixed-dim);"/>
<path id="vec14" d="M276.413 107.965C276.449 109.321 278.077 110.398 279.586 110.47C277.506 112.105 272.979 115.366 270.167 115.096C271.46 113.124 272.933 111.27 274.553 109.559C275.032 109.061 275.546 108.602 276.085 108.174C276.207 108.129 276.32 108.057 276.413 107.965Z" style="fill: var(--primary-fixed-dim);"/>
<path id="vec15" d="M282.207 106.746C282.316 107.468 282.019 108.065 281.558 108.602C281.117 108.474 280.657 108.732 280.204 108.702C279.55 108.612 278.517 108.623 278.236 107.912H278.232C278.839 107.032 281.211 106.21 282.207 106.746Z" style="fill: var(--primary-fixed);"/>
<path id="vec16" d="M336.935 96.7283C337.264 99.0848 337.142 101.46 337.15 103.832C337.145 103.827 337.139 103.822 337.134 103.816C336.472 103.2 336.041 102.36 335.698 101.534C334.946 99.5624 334.534 97.4767 334.588 95.3636C334.683 93.5189 334.603 91.5213 335.533 89.8737C336.338 92.4854 336.762 95.2931 336.935 96.7283Z" style="fill: var(--primary-fixed-dim);"/>
<path id="vec17" d="M353.297 105.997C353.564 108.772 353.446 111.619 353.353 114.368C353.283 115.933 353.147 117.49 352.951 119.04C352.801 118.607 352.699 118.146 352.523 117.735C351.206 114.042 350.546 109.106 353.297 105.997Z" style="fill: var(--primary-fixed-dim);"/>
<path id="vec18" d="M363.795 126.874C363.708 128.413 363.285 129.938 363.034 131.454C362.695 133.096 362.349 134.737 361.958 136.367C361.762 136.045 361.509 135.726 361.383 135.427C360.116 132.653 361.585 128.886 363.795 126.874Z" style="fill: var(--primary-fixed-dim);"/>
<path id="vec19" d="M292.028 158.233C292.243 157.498 291.54 157.107 290.932 156.977C285.604 155.039 280.165 153.43 274.707 151.905C265.94 149.644 257.249 147.101 248.51 144.765C247.924 144.654 247.202 144.495 246.785 145.051C246.585 145.318 246.539 145.661 246.653 145.953C246.631 146.031 246.621 146.111 246.623 146.193C246.322 147.316 245.975 148.455 245.972 149.638C245.96 153.482 245.915 157.379 246.857 161.136C247.867 167.396 252.232 172.701 258.017 175.217C263.134 177.711 265.549 178.447 271.301 178.496C276.238 178.682 281.259 176.712 284.518 172.955C286.897 169.964 288.905 166.633 289.851 162.902C290.261 161.559 290.641 160.209 291.046 158.865C291.466 158.935 291.909 158.652 292.028 158.233ZM297.807 151.377C297.754 151.561 297.704 151.742 297.648 151.898C296.841 154.307 295.936 156.732 295.326 159.221C294.2 162.222 292.988 165.195 291.8 168.173C290.629 170.981 289.384 173.631 287.26 175.894C285.246 178.632 283.909 179.765 280.742 181.124C277.743 182.369 274.564 183.253 271.379 183.872C268.365 184.362 265.293 183.937 262.36 183.163C258.218 181.967 254.04 180.391 250.723 177.558C247.254 174.266 244.279 170.332 242.231 166.002C240.251 160.722 239.068 154.883 239.397 149.196C239.44 147.698 239.732 146.231 240.045 144.771C240.128 144.362 240.269 143.838 240.011 143.466C239.903 143.29 239.75 143.168 239.579 143.1C239.569 143.073 239.557 143.047 239.544 143.021C239.45 142.805 239.219 142.6 238.989 142.542C237.875 142.014 236.735 141.516 235.553 141.148C234.953 140.96 233.41 140.614 232.275 140.726C232.147 140.579 231.957 140.479 231.686 140.452C231.184 140.422 230.792 140.807 230.741 141.292C230.246 143.962 229.465 146.579 228.518 149.124C227.556 151.616 226.78 154.144 225.421 156.483C223.035 160.296 220.452 164.023 217.33 167.274C212.004 172.296 205.029 175.449 197.8 176.463C191.028 177.264 183.187 176.081 177.708 171.805C177.576 171.703 177.436 171.58 177.29 171.461C178.506 170.213 179.633 168.888 180.482 167.355C180.675 167.061 180.856 166.769 181.025 166.476C181.013 166.779 181.153 167.087 181.506 167.27C184.111 168.397 186.724 169.638 189.568 170.164C194.162 170.785 198.914 169.893 203.228 168.289C205.878 167.131 208.268 165.426 210.56 163.679C213.64 161.285 216.433 158.482 218.707 155.308C220.43 152.996 221.425 150.268 222.735 147.726C223.994 145.31 225.141 142.435 224.62 139.685C224.527 139.48 224.385 139.348 224.222 139.274C224.134 139.124 224.003 138.998 223.837 138.92C220.912 137.932 217.86 137.308 214.826 136.696C211.21 136.058 207.67 135.092 204.121 134.166C198.494 133.008 192.931 131.553 187.386 130.051C187.237 130.006 187.099 129.996 186.974 130.014C187.284 127.887 187.566 125.758 187.859 123.642C187.88 123.483 187.902 123.324 187.924 123.165C187.99 123.195 188.063 123.218 188.143 123.234C196.371 125.228 204.525 127.789 212.833 129.485C218.519 130.644 224.264 131.187 229.82 132.97C230.356 133.15 230.837 132.886 231.049 132.496C231.269 132.47 231.486 132.457 231.691 132.479C236.087 132.456 240.399 133.837 244.132 136.165C244.339 136.289 244.579 136.33 244.802 136.287C244.78 136.716 245.024 137.155 245.543 137.228C254.264 139.538 263.103 141.905 271.887 144.161C276.471 145.373 280.953 146.927 285.535 148.133C287.253 148.501 288.92 149.047 290.608 149.524C290.779 149.678 290.957 149.826 291.145 149.962C291.504 150.168 291.847 150.11 292.098 149.922C292.154 149.936 292.21 149.95 292.266 149.963C294.129 150.313 295.957 150.896 297.807 151.377L297.807 151.377Z" style="fill: var(--tertiary-fixed);"/>
<path id="vec20" d="M296.895 149.292C295.124 148.842 293.352 148.398 291.587 147.922C290.123 146.374 288.963 144.532 287.476 142.991C284.744 139.618 281.698 136.528 278.843 133.265C277.602 132.008 276.564 130.566 275.414 129.233C276.702 129.164 277.934 128.87 279.138 128.46C279.229 128.527 279.339 128.584 279.471 128.623C285.324 135.46 291.698 141.926 296.895 149.292Z" style="fill: var(--tertiary-fixed-dim);"/>
<path id="vec21" d="M267.184 116.822C266.931 117.361 266.714 117.887 266.541 118.392C266.349 118.91 266.205 119.447 266.109 119.993C263.91 117.505 261.044 115.325 258.053 114.073C255.355 113.021 252.334 112.287 249.461 112.986C248.078 113.345 246.768 113.952 245.384 114.313C243.564 112.055 247.514 110.005 249.385 109.672C254.57 108.621 259.516 111.355 263.78 114.002C265 114.834 266.151 115.767 267.184 116.822Z" style="fill: var(--tertiary-fixed-dim);"/>
<path id="vec22" d="M196.984 95.5188C197.08 96.5336 197.053 97.5362 196.932 98.5257C195.453 97.9622 193.051 99.4612 191.724 100.683C185.562 105.836 179.943 112.101 177.108 119.716C176.86 119.852 176.616 119.991 176.373 120.129C175.535 120.557 175.927 121.885 176.857 121.796C176.62 123.133 177.327 124.44 178.599 124.938C179.538 125.292 180.56 125.227 181.507 124.884C181.055 125.39 180.596 125.888 180.13 126.38C172.107 136.081 163.545 145.342 154.941 154.531C151.777 157.296 148.748 160.207 145.653 163.047C140.337 167.802 134.604 172.06 129.189 176.7C127.761 177.944 126.284 179.137 124.64 180.086C123.889 180.759 121.337 181.421 122.131 182.726C123.057 183.805 124.383 182.127 125.391 181.704C126.87 180.836 128.281 179.854 129.561 178.71C133.312 175.559 137.09 172.44 140.924 169.393C146.598 164.849 151.809 159.753 157.152 154.836C163.426 148.01 169.737 141.217 175.811 134.213C177.919 132.014 179.721 129.553 181.716 127.255C183.123 125.734 184.538 124.22 185.81 122.58C185.972 122.362 186.134 122.145 186.295 121.927C186.104 123.33 185.909 124.734 185.73 126.138C184.965 132.214 183.864 138.259 182.201 144.153C178.824 151.703 171.738 156.732 166.121 162.555C159.329 169.166 152.198 175.433 144.761 181.307C141.877 183.651 138.879 185.847 135.898 188.066C135.116 188.635 134.337 189.21 133.539 189.758C132.788 190.352 130.932 191.09 131.817 192.269C132.264 192.759 132.962 192.531 133.327 192.069C133.83 191.671 134.391 191.348 134.915 190.978C137.774 188.946 140.563 186.819 143.367 184.709C150.539 179.109 157.478 173.212 164.112 166.98C169.346 161.571 175.507 156.782 180.145 150.824C181.731 157.232 182.34 161.632 178.313 167.496C175.729 171.016 172.26 173.777 169.031 176.679C166.225 178.999 163.394 181.478 160.519 183.742C154.34 188.635 148.538 193.956 142.068 198.511C138.323 201.286 134.574 204.052 130.815 206.809C130.218 207.423 128.343 208.061 128.181 208.998C91.2915 209 54.4015 209.001 17.5115 208.996C13.7555 209.02 9.98298 208.95 6.23687 209.012C6.2754 206.556 6.18408 204.097 6.16536 201.639C6.22363 196.645 6.10926 191.647 6.21815 186.656C6.30947 186.131 6.0883 185.744 5.77148 185.55C6.68246 184.96 7.40856 182.745 8.03564 181.872C12.3395 174.606 16.2341 167.109 20.2124 159.662C27.1325 145.573 33.9778 131.429 41.5228 117.66C41.5536 117.68 41.5866 117.698 41.6218 117.715C42.3545 118.056 43.1401 118.243 43.941 118.317C47.3339 118.561 51.2912 116.325 53.4927 113.823C57.8218 108.662 61.7847 102.349 61.5955 95.3745C61.5162 94.2166 61.272 92.1464 60.3919 91.0369C62.8992 89.628 66.7366 88.2787 69.0128 90.7331C71.3518 93.8292 71.76 97.9279 71.2121 101.669C70.4112 106.968 68.3528 112.017 66.3625 116.968C64.0334 123.546 60.4975 129.634 57.7207 136.032C57.4368 137.012 55.012 141.089 53.6896 144.194C53.6027 144.225 53.518 144.273 53.4355 144.338C51.9998 146.379 52.4167 150.372 55.1639 151.111C59.9937 152.133 64.6166 147.381 68.2978 144.777C71.7336 142.023 75.0958 139.164 78.2378 136.076C85.6838 128.64 92.7976 120.854 101.037 114.263C109.056 107.128 116.456 99.3225 123.789 91.4926C130.454 85.3005 139.382 69.687 149.683 71.6473C152.23 72.0567 153.469 73.7121 154.286 76.0047C154.889 77.2835 155.154 78.7045 155.162 80.2091C154.993 80.2003 154.824 80.2047 154.669 80.2124C150.035 80.6482 146.207 84.1922 143.857 88.0092C141.91 91.6105 133.778 106.72 140.146 108.496C140.701 108.607 141.261 108.572 141.796 108.423C138.423 113.248 134.784 117.907 131.253 122.612C122.754 133.904 113.152 144.305 103.495 154.606C100.537 157.832 97.4524 160.94 94.1772 163.842C92.6831 165.15 91.2133 166.484 89.7544 167.829C89.2054 168.313 88.256 168.873 88.8413 169.703C89.8468 170.923 91.5059 168.412 92.4421 167.774C96.5293 164.167 100.549 160.481 104.218 156.443C105.512 155.063 106.806 153.681 108.095 152.297C108.283 152.387 108.505 152.409 108.744 152.323C114 150.289 118.521 146.799 122.983 143.43C130.453 137.882 137.413 131.624 143.681 124.744C147.433 120.675 151.521 116.925 155.252 112.833C162.472 105.689 169.229 97.8983 177.645 92.1102C181.866 88.9151 187.719 85.6011 192.822 88.815C195.448 90.237 197.036 92.4845 196.984 95.5189L196.984 95.5188Z" fill="url(#paint4_linear_3070_467)"/>
<path id="vec23" d="M137.33 74.3065C133.202 77.725 129.637 82.3542 126.507 85.972C117.999 95.171 109.412 104.348 100.095 112.736C93.9054 117.81 87.9721 123.438 82.4845 129.295C77.6778 134.306 72.6566 139.113 67.1854 143.397C65.6496 144.459 62.9717 146.846 60.3423 148.296C60.7207 147.432 61.129 146.583 61.5943 145.76C63.0851 142.358 64.897 139.109 66.4153 135.718C73.3948 122.016 79.8671 108.067 86.0589 93.9912C89.4156 86.6412 92.6622 79.2406 96.4061 72.0822C96.6525 71.7333 96.7691 71.4141 96.7933 71.1345C99.3138 71.26 101.818 71.5549 104.328 71.7949C110.065 72.2594 115.792 72.8295 121.532 73.2587C126.797 73.6098 132.091 73.656 137.33 74.3065L137.33 74.3065Z" fill="url(#paint5_linear_3070_467)"/>
<path id="vec24" d="M200.97 78.0672C199.806 80.8738 198.619 83.6738 197.323 86.422C196.95 87.2112 196.592 88.007 196.22 88.7972C196.173 88.8687 196.133 88.9436 196.102 89.0229C195.187 88.1369 194.086 87.4028 192.886 86.8326C187.033 83.7674 180.717 87.5536 176.022 91.0843C172.562 93.3792 169.536 96.2221 166.544 99.0803C163.478 101.837 160.603 104.793 157.776 107.791C153.197 112.342 148.791 117.135 144.132 121.651C137.713 128.781 130.723 135.426 123.03 141.171C119.074 144.128 115.147 147.305 110.7 149.49C118.027 141.558 125.192 133.474 131.77 124.903C137.621 117.014 143.857 109.377 148.766 100.838C152.627 94.6339 159.014 83.6992 156.301 76.3404C156.159 75.9684 156.018 75.5876 155.869 75.2079C163.899 75.9343 171.953 76.2589 180.015 76.2689C183.396 76.2766 186.719 76.9358 190.08 77.1901C193.721 77.3079 197.352 77.6501 200.97 78.0673L200.97 78.0672Z" fill="url(#paint6_linear_3070_467)"/>
<path id="vec25" d="M58.919 92.0693C62.0644 98.2207 56.5272 108.081 51.7205 113.056C51.6876 112.561 51.6039 112.1 51.5093 111.79C50.5059 109.328 48.1505 108.338 46.0227 108.907C47.124 106.788 48.2835 104.703 49.6225 102.719C52.2706 98.8757 55.0276 94.8529 58.8254 92.0727C58.8562 92.0727 58.887 92.0716 58.9189 92.0694L58.919 92.0693Z" style="fill: var(--primary-fixed-dim);"/>
<path id="vec26" d="M45.5056 111.112C47.2626 109.566 50.2011 111.29 49.9338 113.557C49.9239 113.981 49.6928 114.388 49.6621 114.759C47.4793 116.109 44.8213 117.217 42.3767 116.096C42.3734 116.095 42.3712 116.094 42.3679 116.093C43.0225 114.854 43.6518 113.602 44.28 112.348C44.7752 112.082 45.0095 111.42 45.5057 111.112L45.5056 111.112Z" style="fill: var(--primary-fixed);"/>
<path id="vec27" d="M153.853 82.1164C154.251 82.0471 154.654 81.9766 155.06 81.9975C154.356 88.1654 150.132 95.2677 147.425 99.6361C146.687 100.924 145.916 102.193 145.121 103.446C144.404 101.491 141.591 100.665 139.903 101.949C140.903 98.1833 142.314 94.5611 144.212 91.1547C146.056 87.0824 149.367 83.217 153.853 82.1164Z" style="fill: var(--primary-fixed-dim);"/>
<path id="vec28" d="M143.44 104.055C143.475 105.324 142.098 106.705 140.829 106.761C139.653 106.842 139.526 105.367 139.516 104.495C140.33 103.983 141.071 102.904 142.164 103.133C142.646 103.33 143.241 103.524 143.44 104.055Z" style="fill: var(--primary-fixed);"/>
<path id="vec29" d="M187.049 107.53C187.792 106.699 196.535 97.6561 196.399 100.919C196.247 101.223 196.204 101.483 196.238 101.694C195.554 103.93 194.52 106.086 193.489 108.153C191.63 111.248 189.68 114.301 187.582 117.244C186.829 117.245 186.718 117.85 186.695 118.468C186.14 119.225 185.573 119.973 184.995 120.712C185.061 118.331 181.862 117.757 179.402 118.638C181.422 114.584 183.851 110.762 187.049 107.53Z" style="fill: var(--primary-fixed-dim);"/>
<path id="vec30" d="M183.148 120.386C183.283 122.108 181.39 123.281 179.857 123.394C178.349 123.402 178.572 121.951 178.69 120.887C180.027 120.189 181.719 119.683 183.148 120.386L183.148 120.386Z" style="fill: var(--primary-fixed);"/>
<path id="vec31" d="M83.9204 47.7836C84.2658 46.1656 82.8344 45.0001 81.4185 44.6357C77.9068 43.8279 75.4721 49.7614 78.9805 51.2153C81.2238 51.7931 83.4439 49.9154 83.9204 47.7835V47.7836ZM87.0911 50.5318C88.8392 54.0615 94.2862 50.6133 92.5568 47.3322C91.9462 46.1425 90.2607 45.4568 89.0384 46.1161C87.5344 46.8876 86.4299 48.8797 87.0911 50.5318ZM95.8099 44.8669C96.5779 48.3074 96.1939 51.9329 95.3765 55.3327C94.6152 57.097 93.5876 58.7843 92.3422 60.2855C92.1804 60.379 92.0638 60.5266 91.9946 60.695C89.0813 64.0233 85.0733 66.3434 80.5373 66.372C77.0937 66.5888 73.4599 66.6306 70.3001 65.0457C69.0283 64.4602 67.7136 63.8703 66.5859 63.0327C72.1099 59.2917 75.2619 50.7453 74.461 44.7337C74.4148 44.4145 74.3234 43.9302 74.1793 43.4328C76.7538 43.9017 80.1566 41.2084 80.93 38.6044C83.2492 39.5509 85.74 39.99 88.2396 40.0594C89.2605 40.0198 91.4455 39.6071 93.515 38.9313C94.7725 40.6791 95.4017 42.7679 95.8099 44.8669Z" fill="url(#paint7_linear_3070_467)"/>
<path id="vec32" d="M101.4 65.6939C100.288 65.6736 99.1728 65.6582 98.069 65.5232C97.0136 65.4511 96.2654 64.317 97.3219 63.6443C98.7373 63.1745 100.264 63.0706 101.698 62.6265C105.589 61.3722 105.145 64.5507 103.515 64.1806C104.165 65.5375 102.343 65.7677 101.4 65.6939Z" style="fill: var(--il-outline);"/>
<path id="vec33" d="M103.302 63.0549C101.432 62.7944 99.5402 62.7821 97.6561 62.7126C96.9776 62.706 96.2968 62.6737 95.6188 62.7048C95.3111 62.8362 94.9435 62.798 94.6724 62.563C94.2917 62.235 94.2664 61.6682 94.5788 61.2873C94.91 60.8845 95.4843 60.8966 95.9584 60.8933C97.7461 60.9233 99.5328 60.9617 101.317 61.0639C102.27 61.2709 104.519 60.8456 104.345 62.3385C104.255 62.8303 103.774 63.1311 103.302 63.055L103.302 63.0549Z" style="fill: var(--il-outline);"/>
<path id="vec34" d="M104.833 63.2004C104.456 63.1574 104.096 63.0405 103.714 63.0688C103.278 63.2129 102.799 63.0402 102.355 62.9934C100.443 62.6737 98.4902 62.8171 96.5691 62.5719C96.0406 62.4729 95.4181 62.5586 95.0146 62.1371C94.513 61.5218 94.9007 60.3307 95.7704 60.3751C98.8563 60.5645 101.97 60.4222 105.016 61.0728C105.481 61.1445 105.794 61.6163 105.732 62.0685C105.916 62.6299 105.42 63.2514 104.833 63.2004Z" style="fill: var(--il-outline);"/>
<path id="vec35" d="M4.29639 188.081C4.24887 186.906 4.38088 185.741 4.47457 184.575C4.77063 183.388 6.49315 183.844 6.25028 185.021C6.16484 185.754 6.07758 186.49 6.06622 187.23C6.10779 187.905 6.13145 188.871 5.23264 188.923C4.76266 188.948 4.30382 188.566 4.29639 188.081Z" style="fill: var(--il-outline);"/>
</g>
<g id="neg.-Outlines">
<path id="vec36" d="M300.805 209.923C297.344 209.322 293.198 209.217 290.772 206.323C290.174 205.625 289.104 204.135 290.459 203.659C291.478 203.438 291.576 204.678 292.152 205.208C293.577 206.882 295.895 207.295 297.948 207.694C299.568 207.92 301.17 208.302 302.817 208.204C308.276 208.258 313.663 207.349 319.094 206.938C326.119 206.372 333.25 205.418 339.828 202.772C343.004 201.379 346.538 200.064 348.73 197.251C348.847 195.198 353.524 196.648 347.529 200.798C345.966 201.958 344.205 202.795 342.43 203.573C339.819 204.742 337.151 205.803 334.339 206.376C329.767 207.553 325.099 208.262 320.392 208.6C313.862 209.073 307.369 210.251 300.804 209.923H300.805Z" style="fill: var(--il-ne-outline);"/>
<path id="vec37" d="M73.2541 97.6882C72.5897 97.005 73.3247 96.1032 73.5776 95.3955C74.0983 94.0473 74.77 92.8445 75.2774 91.5203C76.4371 89.2101 76.9755 86.6592 78.0807 84.3233C80.4645 79.3243 82.5513 74.1918 84.7861 69.1247C85.2582 68.3316 85.243 66.6202 86.5145 66.8597C86.9623 66.983 87.2967 67.4947 87.1406 67.957C86.0209 70.925 84.6699 73.8041 83.4119 76.7168C81.8998 80.5899 79.8691 84.2402 78.4803 88.1567C77.7065 90.8275 76.3858 93.2828 75.3181 95.8391C75.1472 96.265 74.9518 96.6811 74.7763 97.1049C74.7578 97.3563 74.6322 97.6007 74.4324 97.7564C74.0726 98.0386 73.5876 97.9863 73.2541 97.6882Z" style="fill: var(--il-ne-outline);"/>
<path id="vec38" d="M196.357 69.2197C189.995 68.916 183.644 68.3008 177.293 67.7519C168.498 67.206 159.685 67.0079 150.887 66.532C140.244 65.7788 129.616 64.4625 118.96 63.9575C110.933 63.3436 102.818 63.4473 94.8627 62.1237C93.8265 62.1616 92.9153 60.9383 94.1529 60.278C94.8606 60.1187 95.6053 60.5237 96.3258 60.5688C106.64 61.8696 117.179 61.7666 127.511 62.7457C138.732 63.4838 149.89 65.0494 161.15 65.165C170.6 65.5024 180.037 66.1677 189.438 66.9401C191.748 67.2633 194.072 67.3372 196.399 67.4498C197.505 67.4894 197.547 69.2483 196.357 69.2198L196.357 69.2197Z" style="fill: var(--il-ne-outline);"/>
<path id="vec39" d="M69.0808 58.145C69.0806 58.1452 69.0806 58.1453 69.0806 58.1453L69.0808 58.145Z" style="fill: var(--il-ne-outline);"/>
<path id="vec40" d="M61.7488 63.0068H61.7521C61.751 63.0068 61.7495 63.0072 61.748 63.0074C61.7483 63.0073 61.7485 63.0071 61.7488 63.0068Z" style="fill: var(--il-ne-outline);"/>
<path id="vec41" d="M51.2034 62.3674C51.209 62.368 51.2146 62.3686 51.2201 62.3695C51.2145 62.3688 51.209 62.3681 51.2034 62.3674Z" style="fill: var(--il-ne-outline);"/>
<path id="vec42" fill-rule="evenodd" clip-rule="evenodd" d="M51.2528 62.374C51.2527 62.3742 51.2475 62.3737 51.2411 62.3727C51.2347 62.3717 51.2295 62.3707 51.2295 62.3705C51.2296 62.3703 51.2348 62.3709 51.2412 62.3719C51.2476 62.3728 51.2528 62.3738 51.2528 62.374Z" style="fill: var(--il-ne-outline);"/>
<path id="vec43" d="M51.2551 62.3744C51.2592 62.3749 51.2632 62.3754 51.2672 62.3759C51.2675 62.3759 51.2677 62.376 51.268 62.3761C51.2637 62.3755 51.2594 62.3749 51.2551 62.3744Z" style="fill: var(--il-ne-outline);"/>
<path id="vec44" d="M51.2671 62.3759C51.2664 62.3758 51.2658 62.3756 51.2651 62.3755C51.2682 62.376 51.2713 62.3764 51.2744 62.3768C51.272 62.3765 51.2695 62.3762 51.2671 62.3759Z" style="fill: var(--il-ne-outline);"/>
<path id="vec45" d="M51.2944 62.3798C51.2957 62.38 51.2968 62.3802 51.298 62.3803C51.3023 62.381 51.3067 62.3816 51.3111 62.3823C51.3055 62.3816 51.3 62.3808 51.2944 62.3798Z" style="fill: var(--il-ne-outline);"/>
<path id="vec46" d="M61.9016 62.9745C61.9032 62.9745 61.9042 62.9743 61.906 62.9734C61.9042 62.9743 61.9031 62.9745 61.9016 62.9745Z" style="fill: var(--il-ne-outline);"/>
<path id="vec47" d="M51.1975 62.3668C51.1992 62.3668 51.2009 62.3668 51.202 62.3674C51.2005 62.3672 51.199 62.367 51.1975 62.3668Z" style="fill: var(--il-ne-outline);"/>
<path id="vec48" d="M51.1995 62.3674C51.2005 62.3676 51.2018 62.3678 51.2028 62.3679C51.2029 62.3679 51.203 62.368 51.203 62.368C51.2018 62.3678 51.2006 62.3676 51.1995 62.3674Z" style="fill: var(--il-ne-outline);"/>
<path id="vec49" d="M51.2314 62.3712C51.2333 62.3712 51.2344 62.3712 51.2353 62.3719C51.234 62.3716 51.2327 62.3712 51.2314 62.3712Z" style="fill: var(--il-ne-outline);"/>
<path id="vec51" d="M51.2356 62.3722H51.2399H51.2388H51.241C51.2509 62.3744 51.2608 62.3755 51.2707 62.3766C51.273 62.3766 51.2751 62.3777 51.2762 62.3777C51.2628 62.3758 51.2493 62.374 51.2357 62.3722H51.2356Z" style="fill: var(--il-ne-outline);"/>
<path id="vec52" d="M90.9544 37.8728H90.9577C90.9552 37.8732 90.9527 37.8736 90.9502 37.8741C90.9517 37.8737 90.953 37.8733 90.9544 37.8728Z" style="fill: var(--il-ne-outline);"/>
<path id="vec53" d="M90.9502 37.8741C90.9488 37.8745 90.9472 37.8748 90.9456 37.875C90.9471 37.8747 90.9487 37.8744 90.9502 37.8741Z" style="fill: var(--il-ne-outline);"/>
<path id="vec54" d="M90.9074 37.8817C90.9133 37.8807 90.9194 37.8796 90.9254 37.8786C90.9283 37.8781 90.9311 37.8776 90.934 37.8772C90.9151 37.8808 90.8962 37.8838 90.8774 37.8875C90.8872 37.8856 90.8972 37.8836 90.9074 37.8817Z" style="fill: var(--il-ne-outline);"/>
<path id="vec55" d="M72.4429 44.0135C72.4462 44.0388 72.4483 44.0631 72.4517 44.0884C72.4483 44.0631 72.445 44.0389 72.4429 44.0135Z" style="fill: var(--il-ne-outline);"/>
<path id="vec56" d="M72.6046 46.1532C72.6046 46.1642 72.6035 46.1752 72.6035 46.1862C72.6035 46.1752 72.6035 46.1642 72.6046 46.1532Z" style="fill: var(--il-ne-outline);"/>
<path id="vec57" d="M70.2647 55.5245C70.2678 55.5185 70.2711 55.5124 70.2745 55.5063C70.2697 55.5155 70.2649 55.5245 70.26 55.5337C70.2616 55.5306 70.2631 55.5276 70.2647 55.5245Z" style="fill: var(--il-ne-outline);"/>
<path id="vec58" d="M70.2563 55.5406C70.2575 55.5382 70.2588 55.5359 70.26 55.5336C70.2545 55.5443 70.2491 55.555 70.2437 55.5657C70.2478 55.5573 70.252 55.549 70.2563 55.5406Z" style="fill: var(--il-ne-outline);"/>
<path id="vec59" d="M68.3822 58.1941C68.3807 58.1959 68.3791 58.1977 68.3774 58.1995C68.379 58.1977 68.3805 58.1959 68.3822 58.1941Z" style="fill: var(--il-ne-outline);"/>
<path id="vec60" d="M68.3747 58.2026C68.3749 58.2025 68.375 58.2023 68.3752 58.2021C68.3742 58.2032 68.3733 58.2044 68.3723 58.2055C68.3731 58.2045 68.374 58.2036 68.3748 58.2026H68.3747Z" style="fill: var(--il-ne-outline);"/>
<path id="vec61" d="M68.3766 58.2006C68.376 58.2011 68.3756 58.2016 68.375 58.2022C68.3791 58.1975 68.3832 58.1928 68.3873 58.1882C68.3898 58.1857 68.3923 58.1832 68.3948 58.1807C68.386 58.1903 68.3773 58.2003 68.3684 58.2101C68.3711 58.207 68.3738 58.2038 68.3766 58.2006Z" style="fill: var(--il-ne-outline);"/>
<path id="vec62" d="M68.3474 58.2335C68.3484 58.2323 68.3495 58.2311 68.3506 58.23C68.3494 58.2313 68.3481 58.2327 68.3469 58.234C68.3471 58.2338 68.3473 58.2337 68.3474 58.2335Z" style="fill: var(--il-ne-outline);"/>
<path id="vec63" d="M67.512 59.1373C67.5164 59.1329 67.5207 59.1285 67.5263 59.1241C67.5175 59.1329 67.5087 59.1417 67.4988 59.1506C67.5032 59.1462 67.5076 59.1417 67.512 59.1373Z" style="fill: var(--il-ne-outline);"/>
<path id="vec64" d="M67.458 59.1912C67.4583 59.1907 67.4587 59.1903 67.4591 59.1898C67.4594 59.1896 67.4598 59.1894 67.4602 59.189C67.4595 59.1897 67.4588 59.1905 67.458 59.1912Z" style="fill: var(--il-ne-outline);"/>
<path id="vec65" d="M67.4479 59.2008C67.4476 59.2011 67.4472 59.2015 67.4468 59.2019C67.4471 59.2015 67.4475 59.2011 67.4479 59.2008Z" style="fill: var(--il-ne-outline);"/>
<path id="vec66" d="M67.4071 59.241C67.4009 59.2471 67.3945 59.2531 67.3882 59.2592C67.3944 59.2531 67.4007 59.2471 67.4071 59.241Z" style="fill: var(--il-ne-outline);"/>
<path id="vec68" d="M67.2707 59.3725C67.2719 59.3715 67.273 59.3705 67.2742 59.3695C67.2721 59.3714 67.27 59.3733 67.2678 59.3753C67.2688 59.3744 67.2697 59.3734 67.2707 59.3725Z" style="fill: var(--il-ne-outline);"/>
<path id="vec69" d="M67.2665 59.3764C67.267 59.376 67.2674 59.3756 67.2679 59.3752C67.2648 59.3782 67.2617 59.3812 67.2585 59.3842C67.2612 59.3816 67.2639 59.379 67.2666 59.3765L67.2665 59.3764Z" style="fill: var(--il-ne-outline);"/>
<path id="vec70" d="M67.2556 59.3861C67.2559 59.3859 67.2579 59.3839 67.2588 59.3831C67.2623 59.3798 67.2659 59.3766 67.2696 59.3734C67.2686 59.3744 67.2675 59.3754 67.2665 59.3765C67.2621 59.3804 67.2577 59.3844 67.2534 59.3884C67.2542 59.3877 67.2549 59.3869 67.2556 59.3861Z" style="fill: var(--il-ne-outline);"/>
<path id="vec71" d="M67.2525 59.389C67.2528 59.3888 67.2531 59.3886 67.2533 59.3883C67.25 59.3916 67.2467 59.3948 67.2434 59.3981C67.2464 59.3951 67.2495 59.392 67.2525 59.389Z" style="fill: var(--il-ne-outline);"/>
<path id="vec72" d="M67.2333 59.4074C67.2366 59.4043 67.2399 59.4012 67.2436 59.3981C67.2386 59.4028 67.2335 59.4075 67.2285 59.4121C67.2301 59.4106 67.2317 59.409 67.2333 59.4074Z" style="fill: var(--il-ne-outline);"/>
<path id="vec73" d="M67.227 59.4134C67.2274 59.413 67.2278 59.4126 67.2282 59.4122C67.2263 59.4141 67.2243 59.4161 67.2224 59.418C67.224 59.4164 67.2255 59.4149 67.227 59.4134Z" style="fill: var(--il-ne-outline);"/>
<path id="vec74" d="M56.7488 62.9608C55.8456 62.8772 54.9446 62.7759 54.0424 62.689C53.1304 62.6009 52.2194 62.5008 51.3096 62.3819C51.3008 62.3797 51.292 62.3786 51.282 62.3775C51.2755 62.3764 51.2678 62.3753 51.2601 62.3742C51.2612 62.3742 51.2634 62.3753 51.2645 62.3753C51.2623 62.3753 51.2601 62.3742 51.259 62.3742H51.2601C51.2491 62.3731 51.2381 62.3719 51.2271 62.3698C51.2292 62.3709 51.2326 62.3709 51.2348 62.372C51.2249 62.3709 51.2139 62.3687 51.2018 62.3676C51.2073 62.3676 51.2128 62.3687 51.2183 62.3687C51.2007 62.3665 51.182 62.3643 51.1622 62.3621C51.1754 62.3643 51.1864 62.3654 51.1985 62.3675C50.0268 62.209 48.8562 62.0461 47.6911 61.836C47.3886 60.3655 47.4646 58.4031 47.448 57.6305C47.7406 54.6203 48.426 51.6596 48.7253 48.645C49.0124 46.764 49.4833 44.9149 49.9916 43.0835C50.8486 39.7596 51.8344 36.4412 53.7135 33.5323C55.3869 30.2128 57.7764 27.2445 60.66 24.8957C62.8318 23.1568 65.4051 21.9659 67.9795 20.9445C68.8234 20.6726 71.2954 19.8252 72.7103 20.0607C73.0139 20.0045 73.3186 19.9583 73.6256 19.9231C82.0508 19.0381 91.333 22.9124 96.1825 29.952C96.7964 31.1252 97.824 32.8587 97.9373 34.3996C97.9295 34.4073 97.9218 34.415 97.9141 34.4238C97.6302 34.7133 97.3563 35.0104 97.0648 35.2911C96.6181 35.684 96.1517 36.056 95.6621 36.3906C95.5741 36.4501 95.485 36.5084 95.3947 36.5656C95.2781 36.6251 95.1615 36.6834 95.0438 36.7407C94.6555 36.919 94.2593 37.0763 93.8534 37.2117C93.3716 37.357 92.8842 37.4923 92.3913 37.5936C91.9237 37.6905 91.4561 37.7785 90.9875 37.8676C90.9886 37.8676 90.9886 37.8666 90.9886 37.8666C90.9863 37.8677 90.9842 37.8677 90.982 37.8688C90.9754 37.8699 90.9677 37.871 90.9611 37.8721H90.9666C90.9633 37.8721 90.9622 37.8721 90.9589 37.8732H90.9545C90.9512 37.8743 90.9468 37.8743 90.9435 37.8754H90.9457C90.9418 37.876 90.938 37.8766 90.934 37.8773C90.9372 37.8766 90.9403 37.8761 90.9435 37.8754C90.9375 37.8765 90.9315 37.8775 90.9255 37.8786C90.9194 37.8796 90.9135 37.8807 90.9075 37.8818C90.0216 38.0378 89.1315 38.1404 88.2349 38.2001C87.9323 38.2123 87.632 38.2079 87.3316 38.1902C86.7046 38.1396 86.084 38.0537 85.4624 37.9679H85.468C85.4261 37.9624 85.3844 37.9569 85.3425 37.9514C85.3293 37.9492 85.3162 37.947 85.3029 37.9459C84.656 37.848 84.0113 37.7346 83.3765 37.5794C82.8913 37.4605 82.3984 37.3449 81.9276 37.1799C81.6339 37.0764 81.3456 36.9564 81.0496 36.8607C80.8351 36.7914 80.6249 36.7462 80.3972 36.7792C80.0342 36.8309 79.7437 37.1017 79.5798 37.4165C79.4236 37.7148 79.3135 38.0339 79.1859 38.3443C79.1144 38.5039 79.0396 38.6635 78.9593 38.8198C78.9009 38.9364 78.8371 39.0498 78.7744 39.1632C78.7447 39.2017 78.715 39.2391 78.6842 39.2765C78.5741 39.4141 78.4652 39.5527 78.3552 39.6892C78.1913 39.8598 78.0207 40.0249 77.8436 40.1834C77.6258 40.3617 77.4014 40.5289 77.1692 40.6885C76.881 40.8745 76.5839 41.0462 76.277 41.2036C75.8755 41.3885 75.4596 41.5393 75.0316 41.6538C75.0195 41.6571 75.0063 41.6603 74.9931 41.6637C74.6531 41.7429 74.3088 41.8089 73.96 41.842C73.8203 41.8508 73.6806 41.8519 73.5409 41.8464C73.4606 41.8409 73.3803 41.8321 73.2999 41.8211C72.8192 41.7551 72.3659 42.1238 72.3086 42.6003C72.2929 42.7325 72.3084 42.8629 72.3491 42.9837C72.3177 43.1052 72.3117 43.2356 72.3384 43.3685C72.3394 43.3741 72.3406 43.3795 72.3417 43.385C72.3747 43.6327 72.422 43.8803 72.4572 44.128C72.5419 44.8258 72.5947 45.5257 72.6025 46.2291C72.5793 47.3253 72.4539 48.4215 72.3142 49.5067C72.2317 50.0702 72.1327 50.6316 71.9874 51.1819C71.8421 51.6573 71.6815 52.1273 71.5187 52.5962C71.346 53.0893 71.1755 53.5812 70.9763 54.0633C70.863 54.3187 70.7442 54.5707 70.6231 54.8216C70.5747 54.9156 70.5272 55.0095 70.4806 55.1034C70.407 55.2428 70.3361 55.3839 70.2646 55.5244C70.2618 55.5298 70.259 55.5351 70.2562 55.5405C70.142 55.7567 70.0247 55.9708 69.9004 56.1809C69.4627 56.9078 68.9325 57.5628 68.3758 58.2011C68.3749 58.2022 68.3739 58.2032 68.373 58.2042C68.3699 58.2074 68.3669 58.2106 68.3645 58.2138C68.3671 58.2106 68.37 58.2074 68.373 58.2042C68.3733 58.2038 68.3737 58.2035 68.374 58.2032C68.3715 58.206 68.3691 58.2088 68.3666 58.2116C68.3685 58.2096 68.3703 58.2075 68.3721 58.2055C68.3682 58.21 68.3643 58.2145 68.3601 58.2193C68.3628 58.2163 68.3656 58.2132 68.3684 58.2101C68.3645 58.2147 68.3606 58.2192 68.3567 58.2237C68.3547 58.2258 68.3526 58.2278 68.3506 58.2299C68.3537 58.2265 68.357 58.223 68.3601 58.2193C68.3557 58.2237 68.3512 58.2288 68.3474 58.2335C68.3472 58.2337 68.3446 58.2367 68.3435 58.2381C68.3418 58.2397 68.3401 58.2416 68.3384 58.2434C68.3445 58.2364 68.3506 58.2293 68.3567 58.2226C68.3506 58.2293 68.3445 58.2364 68.3384 58.2434C68.3347 58.2475 68.3309 58.2519 68.327 58.2557C68.3131 58.2712 68.2992 58.2872 68.2852 58.303C68.2852 58.303 68.2852 58.303 68.2852 58.3031C68.2794 58.3097 68.2735 58.3164 68.2677 58.3229C68.2508 58.3414 68.2345 58.3598 68.218 58.3783C68.2161 58.3803 68.2143 58.3824 68.2124 58.3845C68.2081 58.3893 68.2038 58.3941 68.1994 58.3989C68.2039 58.3943 68.2082 58.3893 68.2124 58.3845C68.2143 58.3824 68.2162 58.3804 68.218 58.3783C68.2191 58.3771 68.2202 58.3758 68.2214 58.3747C68.2114 58.3862 68.2011 58.3975 68.1907 58.4088C68.1874 58.4123 68.1843 58.4158 68.181 58.4193C68.1717 58.4293 68.1625 58.4392 68.1532 58.4494C68.1626 58.4393 68.1717 58.4292 68.181 58.4193C68.1843 58.4158 68.1874 58.4123 68.1907 58.4088C68.2041 58.3942 68.2176 58.3796 68.2313 58.3647C67.9859 58.6322 67.7429 58.9018 67.4898 59.1593C67.4821 59.166 67.4755 59.1737 67.4678 59.1802C67.4744 59.1748 67.4799 59.1692 67.4854 59.1637C67.481 59.1681 67.4755 59.1737 67.4711 59.1781C67.4667 59.1814 67.4634 59.1858 67.46 59.1891C67.4623 59.1858 67.4655 59.1836 67.4678 59.1803C67.4648 59.1833 67.4619 59.1863 67.4589 59.19C67.4583 59.1904 67.4578 59.1907 67.4578 59.1913C67.4563 59.1928 67.4549 59.1942 67.4534 59.1957C67.4534 59.1957 67.4534 59.1957 67.4533 59.1957C67.4533 59.1957 67.4534 59.1957 67.4534 59.1956C67.4549 59.1942 67.4563 59.1928 67.4578 59.1913C67.4561 59.1922 67.4549 59.1938 67.4534 59.1956C67.4534 59.1957 67.4534 59.1957 67.4533 59.1957C67.453 59.1957 67.4525 59.1959 67.4523 59.1966C67.4512 59.1977 67.4501 59.1988 67.449 59.1998V59.199C67.4481 59.2006 67.4467 59.2016 67.4456 59.2029C67.4408 59.2074 67.4361 59.2118 67.4313 59.2166C67.4236 59.2243 67.4159 59.231 67.4093 59.2387C67.4085 59.2395 67.4077 59.2403 67.4068 59.2411C67.4004 59.2472 67.3941 59.2533 67.3879 59.2594C67.377 59.2696 67.366 59.2799 67.3555 59.2905C67.3355 59.3093 67.3157 59.3282 67.2967 59.347C67.2957 59.3479 67.2948 59.3489 67.2938 59.3499C67.2948 59.349 67.2958 59.348 67.2967 59.347C67.2992 59.3446 67.3017 59.3423 67.3048 59.34C67.2971 59.3473 67.2896 59.3545 67.2821 59.3617C67.286 59.3577 67.2899 59.3538 67.2939 59.3498C67.2817 59.3612 67.2701 59.3721 67.2587 59.3832C67.2578 59.3841 67.257 59.3849 67.2561 59.3857C67.2559 59.3859 67.2557 59.386 67.2556 59.3862C67.2546 59.3872 67.2535 59.3882 67.2525 59.3892C67.246 59.3953 67.2395 59.4014 67.2331 59.4076C67.2311 59.4095 67.2291 59.4115 67.2271 59.4135C66.682 59.925 66.1113 60.4025 65.5502 60.8951C64.9617 61.4113 64.3675 61.9143 63.725 62.3612C63.7064 62.3734 63.6878 62.3856 63.6691 62.3977C63.5726 62.4428 63.4755 62.4864 63.3775 62.5285C63.3664 62.5329 63.3554 62.5373 63.3455 62.5417C62.8758 62.7321 62.3972 62.8619 61.9043 62.9731C61.9032 62.9731 61.9021 62.9742 61.8999 62.9742C61.8977 62.9753 61.8944 62.9753 61.89 62.9764C61.8812 62.9787 61.8712 62.9808 61.8625 62.983C61.8426 62.9874 61.8228 62.9907 61.802 62.9951C61.7865 62.9984 61.77 63.0016 61.7546 63.005C61.769 63.0016 61.7844 62.9983 61.7976 62.9951C61.7271 63.0094 61.6568 63.0226 61.5852 63.0347C60.9757 63.0975 60.3618 63.1238 59.748 63.1238C58.7468 63.1238 57.7423 63.0545 56.7489 62.9609L56.7488 62.9608Z" style="fill: var(--il-ne-outline);"/>
<path id="vec75" d="M129.762 210.644C129.309 210.63 128.856 210.634 128.402 210.638C128.365 210.638 128.329 210.639 128.292 210.639C128.568 210.452 128.843 210.265 129.117 210.076C129.703 209.674 130.286 209.267 130.869 208.86C131.061 208.861 131.254 208.861 131.446 208.862C131.616 208.878 131.794 208.87 131.975 208.862C132.365 208.843 132.761 208.824 133.075 209.067C133.553 209.433 133.482 210.249 132.945 210.523C132.728 210.651 132.47 210.645 132.218 210.638C132.13 210.636 132.043 210.634 131.959 210.637C131.651 210.635 131.343 210.638 131.035 210.643C130.776 210.645 130.517 210.648 130.258 210.648C130.093 210.648 129.927 210.647 129.762 210.644Z" style="fill: var(--il-ne-outline);"/>
<path id="vec76" d="M221.363 210.644C191.496 210.64 161.631 210.638 131.764 210.639C131.377 210.607 130.98 210.625 130.583 210.643C129.968 210.669 129.354 210.697 128.777 210.542C128.711 210.512 128.652 210.474 128.599 210.43C128.772 210.312 128.945 210.194 129.117 210.076C129.704 209.673 130.288 209.265 130.872 208.858C144.811 208.869 158.751 208.865 172.69 208.862C181.592 208.86 190.495 208.857 199.398 208.86C201.997 208.859 204.599 208.86 207.202 208.861C211.975 208.863 216.75 208.866 221.513 208.859C222.389 208.733 222.825 209.246 222.819 209.76C222.814 210.22 222.452 210.681 221.734 210.681C221.619 210.681 221.495 210.669 221.363 210.644L221.363 210.644Z" style="fill: var(--il-ne-outline);"/>
<path id="vec77" d="M129.117 210.076C129.275 209.968 129.432 209.859 129.589 209.75C129.601 210.173 129.357 210.596 128.82 210.631C128.644 210.635 128.468 210.637 128.292 210.639C128.568 210.452 128.843 210.265 129.117 210.076Z" style="fill: var(--il-ne-outline);"/>
</g>
</g>
<defs>
<linearGradient id="paint0_linear_3070_467" x1="302" y1="165" x2="346.5" y2="109.5" gradientUnits="userSpaceOnUse">
<stop style="stop-color: var(--secondary-fixed);"/>
<stop offset="1" style="stop-color: var(--primary-fixed-dim);"/>
</linearGradient>
<linearGradient id="paint1_linear_3070_467" x1="290" y1="202" x2="333.5" y2="137.5" gradientUnits="userSpaceOnUse">
<stop style="stop-color: var(--secondary-fixed);"/>
<stop offset="1" style="stop-color: var(--primary-fixed-dim);"/>
</linearGradient>
<linearGradient id="paint2_linear_3070_467" x1="267.5" y1="170.5" x2="321" y2="119" gradientUnits="userSpaceOnUse">
<stop style="stop-color: var(--secondary-fixed);"/>
<stop offset="1" style="stop-color: var(--primary-fixed-dim);"/>
</linearGradient>
<linearGradient id="paint3_linear_3070_467" x1="259" y1="147" x2="284.5" y2="118" gradientUnits="userSpaceOnUse">
<stop style="stop-color: var(--secondary-fixed);"/>
<stop offset="1" style="stop-color: var(--primary-fixed-dim);"/>
</linearGradient>
<linearGradient id="paint4_linear_3070_467" x1="33.5" y1="209" x2="155" y2="88" gradientUnits="userSpaceOnUse">
<stop offset="0.130335" style="stop-color: var(--primary-fixed-dim);"/>
<stop offset="1" style="stop-color: var(--secondary-fixed);"/>
</linearGradient>
<linearGradient id="paint5_linear_3070_467" x1="98.8364" y1="71.1345" x2="98.8364" y2="148.296" gradientUnits="userSpaceOnUse">
<stop offset="0.0384615" style="stop-color: var(--tertiary-fixed);"/>
<stop offset="1" style="stop-color: var(--primary-fixed-dim);"/>
</linearGradient>
<linearGradient id="paint6_linear_3070_467" x1="155.835" y1="75.2079" x2="155.835" y2="149.49" gradientUnits="userSpaceOnUse">
<stop offset="0.0384615" style="stop-color: var(--tertiary-fixed);"/>
<stop offset="1" style="stop-color: var(--primary-fixed-dim);"/>
</linearGradient>
<linearGradient id="paint7_linear_3070_467" x1="64.5" y1="68.5" x2="101" y2="39" gradientUnits="userSpaceOnUse">
<stop style="stop-color: var(--secondary-fixed);"/>
<stop offset="1" style="stop-color: var(--primary-fixed-dim);"/>
</linearGradient>
</defs>
</svg>