<svg width="32" height="32" viewBox="0 0 32 32" fill="none" xmlns="http://www.w3.org/2000/svg">
<rect width="32" height="32" rx="8" fill="#850122"/>
<path d="M26.7267 11.4979H23.904C23.904 11.4979 23.8397 11.5122 23.8111 11.5336L16.8009 18.3223C16.7366 18.3867 16.6222 18.3652 16.5865 18.2795L14.5499 11.5693C14.5284 11.5193 14.4856 11.4907 14.4284 11.4907H11.5414C11.4842 11.4907 11.4342 11.5265 11.4128 11.5836L6.87502 26.426C6.84643 26.5117 6.91075 26.5975 7.00364 26.5975H9.96211C10.0193 26.5975 10.0693 26.5617 10.0907 26.5046L12.9634 17.1147C12.9992 16.9932 13.1635 16.986 13.2136 17.1004L15.1787 21.5952C15.2002 21.6453 15.243 21.6738 15.3002 21.6738H16.9009C16.9009 21.6738 16.9652 21.6595 16.9938 21.6381L21.7316 16.9932C21.8317 16.8931 21.9889 16.9932 21.9532 17.1218L19.1019 26.426C19.0733 26.5117 19.1376 26.5975 19.2305 26.5975H22.1961C22.2533 26.5975 22.3033 26.5617 22.3248 26.5046L26.8625 11.6622C26.8911 11.5765 26.8268 11.4907 26.7339 11.4907L26.7267 11.4979Z" fill="white"/>
<path d="M9.30464 10.5333L5.88168 7.1246C5.83881 7.08887 5.78879 7.08887 5.78164 7.08887C5.71732 7.08887 5.66016 7.14604 5.66016 7.21035V22.2028C5.66016 22.2671 5.71732 22.3242 5.78164 22.3242C5.83166 22.3242 5.88168 22.2885 5.89598 22.2456C5.89598 22.2456 5.89598 22.2313 5.90312 22.2242L5.91027 22.1885L9.36895 10.8405C9.41183 10.7191 9.41183 10.6333 9.30464 10.5261V10.5333Z" fill="white"/>
<path d="M7.34628 5.6311L10.955 9.28273C11.0408 9.36848 11.1265 9.38992 11.2552 9.38992H26.7407C26.8478 9.38992 26.905 9.25415 26.805 9.1541L23.2248 5.53105C23.0676 5.38099 23.0533 5.40243 22.8889 5.40243H7.43203C7.36772 5.40243 7.31055 5.45959 7.31055 5.52391C7.31055 5.52391 7.31055 5.58108 7.35342 5.6311H7.34628Z" fill="white"/>
</svg>
