<svg width="462" height="297" viewBox="0 0 462 297" fill="none" xmlns="http://www.w3.org/2000/svg">
<mask id="mask0_5305_1084" style="mask-type:luminance" maskUnits="userSpaceOnUse" x="0" y="0" width="462" height="297">
<path d="M461.25 0H0V296.703H461.25V0Z" fill="white"/>
</mask>
<g mask="url(#mask0_5305_1084)">
<path d="M108.051 129.186C114.258 130.184 119.116 135.773 118.314 142.189C117.594 145.909 114.983 148.82 113.129 152.034C110.1 156.294 106.809 160.561 104.076 165.082C100.203 170.427 95.9827 175.443 92.3865 181.011C91.3698 182.263 90.3687 183.577 89.1323 184.63C88.6005 184.853 88.3093 185.457 88.4068 186.019C88.0844 186.616 88.3093 187.357 88.8813 187.704C92.3462 189.493 93.0912 193.897 93.3421 197.448C93.48 201.009 92.9898 204.554 92.3501 208.1C92.0498 214.01 90.1945 219.646 87.5071 224.913C84.4011 230.518 81.1728 236.521 76.0996 240.67C70.1164 246.412 63.1788 251.434 54.8618 253.048C48.5561 254.822 42.0632 255.092 35.5703 254.831C35.5495 254.674 35.504 254.51 35.422 254.341C34.707 253.11 32.4278 253.682 32.6982 255.19C31.7478 256.114 30.8078 257.049 29.8782 257.994C27.3442 255.956 25.1938 253.186 23.9925 250.172C22.6949 245.105 20.8149 239.699 21.3519 234.35C22.6442 226.41 23.7936 218.328 26.3938 210.7C32.9128 191.056 45.0626 173.854 59.0912 158.788C61.252 155.907 63.6079 153.244 66.0963 150.721C66.0196 152.658 67.0415 154.615 69.1556 154.885C69.4065 154.906 69.6522 154.91 69.9019 154.91C73.6931 154.91 77.1164 152.698 80.2731 150.783C85.4841 147.871 89.9033 143.829 92.9898 138.689C95.1714 135.736 94.6709 131.644 90.92 130.862C96.3052 128.599 102.231 127.791 108.051 129.186Z" fill="url(#paint0_linear_5305_1084)"/>
<path d="M91.771 134.302C92.2 135.789 90.9337 137.203 90.2225 138.435C88.1436 141.296 85.8904 144.254 82.8559 146.18C80.4649 147.564 70.2263 155.259 68.592 151.371C68.4438 149.864 69.5164 148.591 70.2367 147.325C70.4668 147.053 70.6098 146.706 70.6306 146.364C73.3024 143.912 76.0756 141.546 78.8761 139.165C79.7953 138.215 80.7717 137.306 81.7989 136.448C82.1044 136.576 82.4723 136.57 82.8403 136.351C84.5825 135.037 90.203 131.492 91.771 134.302Z" fill="#FFB3B5"/>
<path d="M281.32 236.439C281.555 236.532 281.789 236.617 282.025 236.689C272.604 239.336 263.337 242.411 253.803 244.751C253.026 244.915 252.25 245.079 251.474 245.252C251.024 245.058 250.487 245.1 250.1 245.527C250.048 245.548 249.997 245.569 249.941 245.585C235.636 248.726 221.478 252.482 206.949 254.449C206.28 254.545 205.589 254.622 204.885 254.658C204.783 254.566 204.67 254.484 204.563 254.412C199.607 250.091 194.994 245.415 190.427 240.695C190.115 240.403 189.803 240.107 189.496 239.811C191.688 239.371 193.88 238.978 196.011 238.325C204.006 236.051 212.007 233.767 220.043 231.663C224.012 230.661 227.967 229.654 231.968 228.776C232.744 228.612 233.602 228.234 233.843 227.406C234.41 226.012 232.355 225.01 231.59 226.277C218.634 229.225 205.738 233.037 192.914 236.588C191.704 237.098 188.424 236.868 187.836 238.217C178.497 229.148 169.77 219.462 159.17 211.809C157.147 210.552 154.91 210.338 152.61 209.832C151.098 209.428 149.591 208.866 147.997 208.988C143.812 209.52 140.854 211.415 138.887 214.092C137.641 213.266 136.114 212.544 135.51 211.947C132.552 209.714 129.002 208.651 125.523 207.533C123.167 206.97 120.685 206.894 118.339 207.574C115.795 207.987 113.148 208.468 111.217 210.332C107.201 213.929 104.386 218.777 104.238 224.249C104.254 225.655 104.407 227.024 104.677 228.351C103.947 228.173 102.935 228.382 102.246 228.398C89.8765 226.809 82.7699 234.718 84.0324 246.805C84.1039 247.142 84.1858 247.475 84.2729 247.801C82.1576 247.316 80.0682 246.642 77.8866 246.621C76.0976 246.488 74.2943 246.631 72.5781 247.06C76.8439 243.806 80.6806 239.974 83.9297 235.77C87.7053 229.926 91.2469 223.85 93.3414 217.174C94.7261 211.778 95.185 206.133 95.7987 200.594C96.0431 195.568 95.4515 189.534 91.2365 186.193C91.5888 185.87 91.9009 185.518 92.1297 185.232C95.2669 181.916 97.2796 177.895 100.136 174.329C105.387 168.244 109.25 161.184 114.18 154.87C114.262 154.737 114.344 154.599 114.431 154.465H114.441C114.89 154.465 115.335 154.226 115.57 153.811C118.207 150.675 120.704 147.426 123.095 144.099C130.57 133.682 137.88 123.234 146.485 113.676C147.332 112.71 148.145 111.719 148.988 110.753C149.019 111.025 149.075 111.295 149.157 111.571C149.631 116.66 151.405 121.457 153.933 125.882C156.59 131.26 159.549 136.492 163.012 141.397C167.86 149.081 173.429 156.244 179.887 162.646C186.943 170.549 194.626 177.813 202.499 184.895C214.787 196.297 227.926 206.935 241.976 216.105C254.191 224.434 267.199 231.78 281.32 236.439Z" fill="url(#paint1_linear_5305_1084)"/>
<path d="M242.148 250.005C242.413 252.247 242.378 254.53 241.973 256.752C239.261 267.043 229.931 273.944 220.936 278.803C215.014 282.037 208.174 282.875 201.501 283.023C199.1 283.12 196.683 282.931 194.395 282.247C193.05 281.705 191.722 281.138 190.389 280.571C190.138 280.295 189.78 280.147 189.413 280.157C188.631 279.825 187.85 279.498 187.063 279.176C186.858 279.08 186.654 278.977 186.449 278.879C185.673 278.405 184.815 277.854 184.064 277.669C175.236 273.061 167.168 267.195 159.572 260.753C160.2 260.901 160.818 260.973 161.42 260.973C166.117 260.973 169.744 256.672 168.374 251.536C165.349 241.498 156.767 231.826 146.339 229.425C143.452 228.812 140.31 230.472 139.11 233.032C138.66 231.305 138.349 229.532 138.201 227.714C137.762 224.403 138.257 220.628 139.738 217.557C139.984 217.527 140.229 217.398 140.479 217.128C140.755 216.714 140.796 216.315 140.664 215.932C142.558 213.087 145.501 211.207 149.553 211.554C152.092 212.423 154.769 212.51 157.263 213.577C159.771 214.916 161.727 217.056 163.945 218.804C172.236 225.354 179.108 233.517 186.884 240.659C191.66 245.411 196.269 250.352 201.301 254.858C201.449 255.43 201.874 256.027 202.318 256.421C202.333 256.436 202.349 256.457 202.37 256.466C202.415 256.518 202.466 256.559 202.518 256.6C205.005 259.297 207.774 261.816 209.675 264.978C209.925 265.418 210.303 265.597 210.687 265.597C211.534 265.597 212.387 264.708 211.836 263.752C210.891 262.148 209.731 260.707 208.495 259.328C211.473 260.442 214.518 261.396 217.558 262.336C217.957 262.465 218.391 262.659 218.826 262.659C218.932 262.659 219.045 262.643 219.152 262.613C220.235 262.357 220.399 260.779 219.403 260.294C215.739 259.18 212.045 258.051 208.46 256.666C218.003 255.486 227.408 253.355 236.783 251.143C236.9 251.159 237.029 251.164 237.156 251.164C238.592 251.164 240.665 250.408 242.148 250.005Z" fill="url(#paint2_linear_5305_1084)"/>
<path d="M156.027 237.237C160.263 240.89 167.696 249.892 165.739 255.834C163.946 259.896 159.057 258.255 155.94 256.84C154.832 256.242 153.835 255.297 152.932 254.413C152.731 253.979 152.328 253.682 151.868 253.647C148.113 249.79 144.685 245.503 142.187 240.803C142.616 240.461 142.805 239.832 142.55 239.322C140.47 236.021 140.353 232.219 145.079 231.781C149.309 232.057 152.752 234.811 156.027 237.237Z" fill="#FFB3B5"/>
<path d="M186.855 281.874C187.059 281.987 187.268 282.093 187.477 282.191C184.448 285.89 178.911 286.124 174.389 286.732C162.587 288.454 150.8 283.074 142.713 274.603C137.768 269.551 132.649 264.584 127.79 259.394C127.862 259.42 127.933 259.44 128.005 259.46C128.138 259.46 128.265 259.466 128.387 259.466C137.466 259.466 134.463 250.868 131.821 245.329C129.588 241.084 126.216 237.563 122.63 234.437C119.191 231.254 112.59 224.234 108.55 230.441C108.356 230.83 108.222 231.229 108.141 231.637C105.791 225.047 106.286 218.007 112.356 212.637C113.909 210.89 116.188 210.41 118.394 210.087C124.034 208.514 130.028 211.258 134.667 214.369C135.596 215.136 136.566 215.503 137.553 216.214C137.564 216.223 137.574 216.228 137.583 216.238C134.018 223.488 135.755 234.412 139.607 241.217C144.098 249.565 150.739 256.794 158.097 262.756C166.347 269.832 175.344 276.172 185.102 280.954C185.684 281.265 186.267 281.572 186.855 281.874Z" fill="url(#paint3_linear_5305_1084)"/>
<path d="M130.828 249.401C131.686 251.756 133.587 256.119 129.888 256.85C128.146 257.616 126.658 255.966 125.357 255.026C123.578 253.538 121.754 252.007 120.094 250.331C119.742 249.937 119.384 249.355 118.913 249.079H118.908C117.152 246.805 115.481 244.466 113.933 242.039C114.285 241.641 114.351 241.038 114.06 240.572C112.768 238.422 111.219 236.322 110.637 233.844C110.091 231.627 111.107 230.278 113.416 230.508C114.883 230.886 116.038 232.004 117.232 232.883C122.48 237.64 128.54 242.401 130.828 249.401Z" fill="#FFB3B5"/>
<path d="M152.144 284.847C147.179 288.219 140.496 288.122 134.656 287.703C131.023 287.621 127.525 286.727 124.188 285.312C122.574 284.74 120.995 284.121 119.457 283.437C119.416 283.35 119.365 283.268 119.304 283.186C118.997 282.808 118.522 282.701 118.093 282.803C115.181 281.404 112.422 279.723 109.822 277.602C107.293 275.63 104.754 273.582 102.363 271.38C102.388 271.385 102.414 271.39 102.438 271.39C102.597 271.406 102.756 271.416 102.909 271.416C106.317 271.411 109.622 268.197 109.602 264.769C109.47 261.331 107.982 258.107 106.148 255.255C103.486 250.382 99.7002 246.187 94.8832 243.377C91.1427 241.768 86.938 244.062 87.7207 248.45C87.8728 249.478 88.0575 250.515 88.272 251.547C85.8394 246.284 85.0788 241.084 89.2276 234.759C91.4859 231.688 95.5216 230.856 99.149 230.661C99.5936 230.625 100.278 230.697 101.039 230.774C102.546 230.917 104.344 231.065 105.157 230.371C107.17 237.38 112.07 243.485 116.055 249.514C122.757 258.117 130.498 265.939 138.289 273.556C142.218 277.991 146.907 281.981 152.144 284.847Z" fill="url(#paint4_linear_5305_1084)"/>
<path d="M103.222 255.189C105.807 259.021 110.427 267.425 103.1 268.927C101.404 268.922 100.055 267.732 98.8033 266.726C98.8696 266.352 98.7669 265.953 98.4913 265.662C96.6113 263.69 94.6962 261.693 93.4649 259.23C91.8293 256.016 90.9257 252.455 90.2614 248.925C89.7803 246.627 90.5058 245.349 92.3962 245.349C92.7485 245.349 93.1373 245.395 93.5663 245.483C97.5513 247.816 100.908 251.152 103.222 255.189Z" fill="#FFB3B5"/>
<path d="M109.064 280.117C111.333 281.94 113.801 283.443 116.391 284.72C111.813 289.726 105.135 288.909 98.8816 288.015C94.0086 287.1 89.0018 286.38 84.255 284.889C87.6171 284.484 90.6829 282.466 89.9665 278.532C87.3818 271.186 79.3456 266.118 72.2078 263.829C67.0333 262.481 64.5448 266.787 65.659 270.864C64.5448 269.388 63.5892 267.799 62.8741 266.066C60.7133 259.9 65.9749 253.524 70.8648 250.224C75.4374 248.369 80.495 249.085 85.0416 250.699C85.1131 250.74 85.1846 250.77 85.2561 250.796C87.0854 255.425 90.0536 259.584 92.5473 263.921C96.7818 270.456 103.015 275.344 109.064 280.117Z" fill="url(#paint5_linear_5305_1084)"/>
<path d="M68.2686 266.997C72.9531 261.975 97.3385 281.819 83.1969 282.441C78.19 283.106 65.5864 272.29 68.2686 266.997Z" fill="#FFB3B5"/>
<path d="M71.2766 280.412C71.2714 280.412 71.2714 280.418 71.2662 280.418C63.9347 281.598 56.4914 282.35 49.2626 284.193C41.0626 285.946 32.7443 287.132 24.6015 289.169C20.2785 290.145 15.8905 290.804 11.5116 291.464C8.5902 291.959 5.69738 292.95 2.71875 292.935C4.19051 292.051 5.74418 288.97 6.69459 288.122C12.856 280.515 19.0525 272.943 25.8431 265.873C28.2432 263.339 30.5171 260.692 33.0667 258.301C33.3683 257.959 33.787 257.607 34.2056 257.228C34.2264 257.233 34.2472 257.239 34.2667 257.239C36.3418 257.366 38.4259 257.279 40.5048 257.366C40.9495 257.376 41.3993 257.387 41.844 257.387C48.5982 257.387 55.3577 255.751 61.7336 253.611C62.8569 253.095 63.9659 252.539 65.0541 251.946C62.4734 254.883 60.0629 258.311 59.9147 262.333C59.6741 265.775 61.0744 268.831 63.061 271.569C60.4451 272.254 57.7993 272.781 55.1418 273.358C48.2251 274.486 41.619 276.745 34.7426 278.083C33.4294 278.646 30.5431 278.002 30.6354 280.055C30.7628 280.899 31.6469 281.261 32.4023 281.051C34.9974 280.607 37.5782 280.07 40.1421 279.478C48.1432 277.076 56.3939 275.82 64.4873 273.801C64.5939 273.792 64.7018 273.771 64.8084 273.745C66.0657 275.196 67.4191 276.555 68.6867 277.833C69.5045 278.747 70.3678 279.61 71.2766 280.412Z" fill="url(#paint6_linear_5305_1084)"/>
<path d="M153.717 91.1867C153.762 91.881 153.819 92.596 153.685 93.2864C152.123 93.5061 150.574 93.9963 149.062 94.5684C149.16 93.3215 148.95 91.8862 148.975 90.9774C148.506 82.9516 144.5 75.1442 138.222 70.1179C137.705 69.7694 137.163 69.3768 136.602 69.0192C146.851 70.1374 152.623 81.7151 153.717 91.1867Z" fill="#E9FFED"/>
<path d="M238.524 16.7542C240.536 32.4496 240.425 50.1822 230.774 63.5321C228.904 66.1636 227.099 68.9277 224.975 71.3746C220.612 75.5285 215.411 78.8946 210.134 81.8173C201.821 86.4562 194.111 93.2872 191.425 102.713C191.245 103.484 190.857 105.968 191.057 107.75C187.684 107.234 184.329 106.764 180.911 106.775C180.885 106.606 180.813 106.432 180.696 106.264C180.297 105.242 180.266 104.394 180.578 103.285C180.905 101.548 180.665 99.7957 181.059 97.9664C182.78 92.6683 185.998 87.8149 190.019 83.9626C193.212 81.3831 196.446 79.2365 200.099 77.194C203.905 75.5896 207.773 73.9541 210.725 70.9611C218.032 64.3551 222.936 55.3321 225.608 45.9269C228.909 36.506 229.052 26.3948 227.376 16.6164C227.157 14.921 225.817 10.0364 223.876 7.47121C224.454 7.17477 225.005 6.85364 225.45 6.70022C227.826 5.41308 230.467 4.44187 232.71 2.92461C232.72 2.9298 232.73 2.9402 232.741 2.9454C236.112 6.79253 237.66 11.7123 238.524 16.7542Z" fill="#44845E"/>
<path d="M212.383 116.675C214.314 117.457 216.031 118.81 217.707 120.057C214.493 126.464 210.882 133.918 203.719 136.574C198.548 138.004 193.709 139.022 190.814 144.085C190.803 144.101 190.788 144.115 190.783 144.136C190.38 143.67 189.925 143.246 189.464 142.838C187.825 141.382 185.858 140.406 183.859 139.523C183.936 139.441 184.008 139.364 184.084 139.288C185.689 137.647 187.248 136.155 189.204 134.797C200.158 128.215 206.672 130.913 212.383 116.675Z" fill="#FFDDB2"/>
<path d="M173.215 48.644C174.165 53.0177 176.26 57.4772 176.157 62.0394C174.763 62.0446 173.368 62.2188 171.978 62.2852C171.877 58.7852 171.432 55.2605 170.435 51.8931C170.17 51.0051 169.879 50.1158 169.648 49.2109C170.864 49.1602 171.999 48.8183 173.215 48.644Z" fill="#F3BD6E"/>
<path d="M272.166 48.0312C267.71 56.5172 274.368 66.3112 265.811 74.2915C265.774 74.3227 265.739 74.3526 265.703 74.3838C263.915 73.9287 262.117 73.4945 260.312 73.081C260.558 72.5337 260.783 71.998 261.048 71.6405C263.19 66.9652 263.164 61.6216 263.547 56.5783C263.148 51.7249 264.983 46.029 269.55 43.729C270.394 45.2112 271.348 46.5087 272.166 48.0312Z" fill="#E9FFED"/>
<path d="M254.43 131.155C260.03 134.614 264.015 141.644 262.569 148.403C262.252 149.788 261.695 151.075 260.959 152.301C257.756 150.349 255.053 147.564 252.227 145.056C248.248 141.25 244.943 136.8 243.195 131.518C243.793 131.262 244.391 130.925 244.876 130.793C247.927 129.739 251.528 129.418 254.43 131.155Z" fill="#FFDDB2"/>
<path d="M238.454 149.536C240.008 149.536 241.684 148.575 241.443 146.843C241.279 144.995 239.185 144.309 237.606 144.794C234.908 145.408 234.581 149.208 237.662 149.444C237.912 149.505 238.184 149.536 238.454 149.536ZM248.6 155.866C249.183 153.322 245.642 152.274 243.813 153.357C242.256 154.114 242.219 156.325 243.487 157.358C243.993 157.823 244.933 158.073 245.873 158.073C247.409 158.073 248.958 157.399 248.6 155.866ZM262.66 157.501C264.137 157.087 269.716 157.122 267.452 159.733C262.89 163.08 257.086 164.086 251.466 164.117C251.103 163.953 250.644 163.913 250.173 163.913C249.985 163.913 249.796 163.918 249.617 163.923C249.259 163.933 248.918 163.948 248.632 163.918C239.635 164.796 233.207 159.677 230.244 151.376C228.18 144.82 228.936 137.796 230.683 131.251C231.307 129.095 232.891 126.08 235.557 126.566C235.915 126.771 236.206 127.046 236.431 127.369C236.452 127.716 236.579 128.028 236.87 128.248C237.003 128.661 237.069 129.111 237.069 129.559C237.069 130.194 236.942 130.822 236.707 131.364C235.266 132.109 236.237 133.994 237.519 133.774C238.081 133.841 238.719 133.53 239.139 133.065C239.67 132.686 240.212 132.323 240.763 131.976C244.078 142.021 252.468 149.888 261.301 155.345C261.24 155.554 261.23 155.769 261.291 155.978C261.127 156.74 261.649 157.654 262.66 157.501Z" fill="url(#paint7_linear_5305_1084)"/>
<path d="M292.365 181.554C291.108 184.221 291.793 187.165 291.165 189.948C291.16 190.046 291.149 190.143 291.134 190.25C278.755 186.669 264.643 187.266 253.527 194.174C252.53 194.73 249.609 196.488 248.412 198.153C246.302 195.916 244.264 193.551 242.047 191.435C243.738 189.789 245.648 188.415 247.652 187.128C250.405 185.412 253.348 184.088 256.398 183.072C256.506 183.204 256.602 183.337 256.699 183.471C257.599 184.671 259.345 183.496 258.906 182.306C263.264 181.11 267.807 180.471 272.332 180.18C279.071 179.097 285.775 179.858 292.365 181.554Z" fill="#FFB3B5"/>
<path d="M308.658 219.908C309.317 221.073 309.94 222.31 310.395 223.592C308.79 222.156 306.87 221.027 305.025 220.005C302.676 218.636 300.228 217.568 297.484 217.441C297.51 217.293 297.535 217.15 297.561 217.021C297.741 215.371 298.006 213.726 298.159 212.066C302.844 212.464 306.537 215.847 308.658 219.908Z" fill="#CCBEFF"/>
<path d="M373.821 218.517C373.877 219.708 373.821 220.899 373.76 222.089C368.165 222.912 361.845 224.403 356.578 221.701C357.002 220.669 357.471 219.637 358.024 218.599C361.891 220.622 371.107 219.202 373.795 218.099C373.8 218.236 373.81 218.379 373.821 218.517Z" fill="#FFDDB2"/>
<path d="M438.395 171.454C437.961 172.665 437.543 173.896 437.077 175.091C436.076 177.865 435.187 180.666 433.72 183.245C433.521 183.592 433.552 184.011 433.736 184.349C433.695 184.41 433.654 184.476 433.619 184.553C416.764 175.188 399.725 176.716 382.448 183.992C373.67 187.7 365.333 192.497 356.111 195.103C348.13 197.412 339.465 199.379 331.19 197.432C330.162 197.233 329.125 196.667 328.078 196.381C328 196.201 327.868 196.028 327.679 195.864C327.332 192.849 326.969 189.841 326.438 186.857C329.763 187.542 332.906 188.109 336.364 188.416C337.682 188.528 338.99 188.578 340.283 188.578C357.694 188.578 373.189 178.826 388.67 171.817C397.08 168.72 406.061 167.653 415.002 166.983C418.537 166.748 421.934 166.406 425.495 166.962C429.941 167.759 434.206 169.65 438.395 171.454Z" fill="#E9FFED"/>
<path d="M328.609 152.288C332.788 151.23 336.876 149.371 340.902 147.824C351.804 143.603 360.576 135.546 368.387 127.039C372.639 122.155 377.18 117.001 378.095 110.353C379.074 107.728 378.722 104.409 377.239 101.949C377.443 101.685 377.659 101.429 377.881 101.178C377.972 101.081 378.069 100.979 378.167 100.887C378.376 100.684 378.495 100.42 378.524 100.147C379.647 99.0122 380.996 98.4142 382.708 99.0785C382.831 99.3438 382.949 99.6142 383.071 99.8807C383.169 100.095 383.326 100.259 383.516 100.376C385.931 106.956 384.435 114.682 381.421 120.929C381.263 121.195 381.099 121.461 380.93 121.721C380.834 121.828 380.762 121.945 380.71 122.074C377.124 127.754 372.914 133.089 368.495 138.085C364.066 142.77 359.636 147.746 353.97 151.24C349.005 153.959 343.967 157.049 338.321 158.047C337.228 158.408 333.259 158.225 331.051 158.915C329.994 156.983 329.412 154.5 328.609 152.288Z" fill="#44845E"/>
<path d="M315.588 30.3078C315.593 31.0033 315.752 31.7795 315.675 32.3516C313.682 32.4439 312.17 34.0587 311.108 35.6006C310.883 35.953 310.56 36.4392 310.285 36.9502C309.304 36.5771 308.298 36.2806 307.25 36.1727C308.256 32.648 311.761 29.1337 315.588 30.3078Z" fill="#FFDDB2"/>
<path d="M409.167 136.657C409.127 136.754 409.096 136.856 409.08 136.963C408.548 136.881 408.033 136.872 407.65 136.912C406.459 136.82 403.231 137.683 401.366 138.972C400.808 138.026 400.104 137.096 399.797 136.544C401.754 135.364 404.022 134.598 406.326 134.987C407.359 135.242 408.416 135.85 409.167 136.657Z" fill="#44845E"/>
<path d="M241.446 146.844C241.686 148.576 240.009 149.537 238.456 149.537C238.185 149.537 237.915 149.507 237.665 149.445C234.584 149.21 234.911 145.409 237.608 144.796C239.187 144.31 241.281 144.995 241.446 146.844Z" fill="#3B080F"/>
<path d="M243.81 153.359C245.639 152.275 249.18 153.323 248.598 155.866C248.955 157.4 247.407 158.075 245.869 158.074C244.929 158.074 243.989 157.823 243.484 157.359C242.216 156.327 242.252 154.114 243.81 153.359Z" fill="#3B080F"/>
<path d="M220.794 7.20349C220.452 5.56401 222.613 5.4977 223.609 4.83333C226.347 3.47988 228.907 2.30975 231.513 0.776877C232.356 -1.05242 234.895 0.726171 233.659 2.23304C231.242 4.16375 228.171 5.22727 225.454 6.69773C224.527 7.01887 223.103 8.10059 222.015 8.10059C221.505 8.10059 221.071 7.86396 220.794 7.20349Z" fill="#3B080F"/>
<path d="M193.864 108.16C195.223 109.263 194.283 110.546 192.919 110.546C192.694 110.546 192.454 110.509 192.214 110.428C188.214 109.84 184.269 109.191 180.223 109.233C179.651 109.156 179.212 108.691 179.15 108.139C179.135 108.047 179.14 107.95 179.15 107.853C179.232 107.189 179.86 106.688 180.53 106.781C180.657 106.775 180.785 106.775 180.913 106.775C184.332 106.765 187.687 107.234 191.06 107.751C191.346 107.797 191.627 107.838 191.907 107.883C192.485 107.465 193.057 107.735 193.594 108.017C193.685 108.068 193.772 108.113 193.864 108.16Z" fill="#3B080F"/>
<path d="M227.374 16.6175C229.05 26.3959 228.907 36.5058 225.606 45.9279C222.934 55.3332 218.03 64.3549 210.724 70.9609C207.77 73.9551 203.904 75.5894 200.097 77.1938C196.445 79.2376 193.21 81.3828 190.017 83.9636C185.997 87.816 182.778 92.6694 181.056 97.9675C180.662 99.7968 180.903 101.548 180.575 103.285C180.264 104.394 180.294 105.242 180.693 106.264C180.81 106.433 180.882 106.607 180.908 106.775C181.03 107.531 180.331 108.241 179.6 108.241C179.447 108.241 179.293 108.21 179.145 108.139C179.018 108.088 178.89 107.995 178.772 107.878C177.31 106.096 178.041 103.634 178.256 101.553C178.241 98.8412 178.67 96.1486 180.06 93.7875C184.959 82.1551 195.147 76.7491 205.921 71.6669C220.027 61.3463 227.343 40.5427 225.708 23.5395C225.208 18.9213 224.809 10.2416 220.298 7.94684C219.849 7.51259 219.793 6.78191 220.165 6.28136C223.987 3.63556 227.032 13.9756 227.374 16.6175Z" fill="#3B080F"/>
<path d="M239.764 10.9975C241.583 17.6789 242.094 24.7244 242.001 31.6373C241.71 38.5241 241.485 45.5228 239.141 52.0781C237.322 58.7765 233.322 64.4412 229.239 69.9447C227.007 73.4239 223.666 75.85 220.401 78.2825C215.246 82.2571 209.095 84.6675 204.072 88.8475C201.666 90.8198 199.296 93.1796 197.41 95.8267C197.201 96.1218 196.997 96.4234 196.802 96.7251C194.59 100.117 193.227 103.945 193.589 108.016C193.6 108.164 193.614 108.312 193.635 108.46C193.661 109.14 193.022 109.697 192.369 109.686C192.337 109.691 192.306 109.691 192.276 109.691C191.52 109.691 191.178 108.854 191.055 107.75C190.856 105.968 191.244 103.485 191.423 102.714C194.111 93.2875 201.819 86.4565 210.132 81.8176C215.41 78.8949 220.61 75.5288 224.974 71.3749C227.099 68.928 228.903 66.1639 230.772 63.5324C240.423 50.1825 240.535 32.4499 238.522 16.7545C237.659 11.7126 236.111 6.79284 232.739 2.94571C232.064 2.53097 231.758 1.62216 232.289 0.978592C234.972 -1.6737 239.227 9.04989 239.764 10.9975Z" fill="#3B080F"/>
<path d="M329.351 160.839C327.61 157.948 326.777 154.552 325.633 151.396C326.139 151.192 326.629 150.95 327.119 150.707C327.344 150.597 327.571 150.485 327.794 150.365C329.111 152.971 329.683 156.485 331.104 159.02C331.926 159.971 331.181 161.211 330.225 161.211C329.939 161.211 329.637 161.104 329.351 160.839Z" fill="#3B080F"/>
<path d="M383.814 116.929C383.81 116.944 383.805 116.957 383.797 116.97C383.802 116.954 383.81 116.942 383.814 116.929Z" fill="#3B080F"/>
<path d="M329.854 161.241C327.744 157.838 336.593 158.62 338.32 158.048C343.965 157.05 349.003 153.96 353.968 151.243C359.634 147.748 364.064 142.771 368.493 138.087C368.488 138.087 368.488 138.092 368.483 138.097C368.478 138.102 368.473 138.107 368.467 138.113C373.414 132.531 378.098 126.519 381.945 120.078C382.679 120.416 383.403 120.77 384.117 121.142C378.783 130.335 371.792 138.612 364.278 146.03C360.344 150.021 355.844 153.378 350.796 155.83C346.663 157.833 342.55 160.153 337.891 160.612C335.515 160.918 333.048 160.944 330.754 161.623C330.426 161.623 330.105 161.501 329.854 161.241Z" fill="#3B080F"/>
<path d="M326.359 151.075C326.613 150.955 326.865 150.83 327.117 150.706C327.602 150.465 328.1 150.225 328.542 149.906C328.805 150.201 329.103 150.466 329.416 150.711C328.731 150.901 328.052 151.089 327.372 151.284C327.372 151.279 327.372 151.279 327.367 151.274C327.271 151.293 327.173 151.304 327.076 151.304C326.822 151.304 326.575 151.23 326.359 151.075Z" fill="#3B080F"/>
<path d="M197.504 95.7969C197.427 95.8936 197.35 95.9958 197.279 96.1028C197.253 96.1434 197.222 96.1839 197.198 96.2254C197.069 96.4099 196.926 96.5987 196.804 96.7971C196.783 96.3635 197.084 95.919 197.504 95.7969Z" fill="#3B080F"/>
<path d="M169.434 65.3451C167.922 65.0396 168.136 63.088 169.51 62.7253C169.505 58.4179 168.668 54.1769 167.329 50.1009C167.13 49.1505 166.516 47.853 167.482 47.1275C168.3 46.6113 169.536 46.8557 170.394 46.6516C171.891 46.5697 173.975 45.3593 175.105 46.7803C176.295 49.3806 176.643 52.5881 177.521 55.2508C178.492 57.656 178.773 60.216 178.574 62.7916C179.397 63.8941 177.878 65.4218 176.781 64.5442C174.758 64.6248 172.51 64.4259 170.625 65.1514C170.345 65.2567 170.011 65.3711 169.686 65.3711C169.601 65.3711 169.517 65.3633 169.434 65.3451ZM169.648 49.2116C169.878 50.1165 170.17 51.0045 170.435 51.8938C171.431 55.2612 171.875 58.7859 171.978 62.2859C173.368 62.2195 174.762 62.0453 176.157 62.0401C176.259 57.4779 174.165 53.0171 173.215 48.6447C171.999 48.8177 170.864 49.1609 169.648 49.2116Z" fill="#3B080F"/>
<path d="M434.277 184.89C433.7 184.61 433.378 183.823 433.716 183.246C435.181 180.665 436.07 177.866 437.073 175.091C437.894 172.971 438.579 170.728 439.464 168.7C440.118 167.821 441.67 168.271 441.706 169.38C441.119 172.072 439.713 174.58 438.942 177.247C438.204 178.667 436.702 185.015 434.751 185.017C434.596 185.017 434.439 184.976 434.277 184.89Z" fill="#3B080F"/>
<path d="M336.363 188.413C332.68 188.087 329.359 187.464 325.793 186.723C324.377 186.739 324.066 184.521 325.435 184.245C328.035 184.357 330.744 185.277 333.344 185.527C339.167 186.299 345.063 186.268 350.759 184.925C363.926 182.074 375.508 174.967 387.637 169.577C395.514 166.64 403.898 165.393 412.251 164.749C417.678 164.294 423.251 163.62 428.574 165.107C431.799 166.047 434.95 167.238 438.011 168.612C439.216 169.153 441.122 169.511 440.442 171.136C440.049 171.851 439.16 171.933 438.516 171.504C434.286 169.685 429.985 167.768 425.494 166.961C421.933 166.405 418.536 166.746 414.999 166.982C406.06 167.651 397.078 168.719 388.669 171.814C373.191 178.823 357.696 188.581 340.283 188.581C338.987 188.581 337.681 188.528 336.363 188.413Z" fill="#3B080F"/>
<path d="M332.72 200.344C330.523 199.96 328.439 199.142 326.313 198.514C325.43 198.054 325.46 196.659 326.395 196.261C328.01 195.949 329.609 197.124 331.187 197.431C339.464 199.378 348.13 197.41 356.109 195.101C365.33 192.496 373.668 187.698 382.446 183.989C399.724 176.713 416.763 175.187 433.617 184.551C434.312 183.059 436.616 184.168 435.829 185.649C435.39 186.355 435.135 187.381 434.199 187.561C433.679 187.653 433.245 187.376 432.887 187.034C432.12 186.446 431.278 186.054 430.423 185.625C408.369 174.926 391.443 182.723 374.083 190.513C362.809 195.575 351.345 200.635 338.178 200.635C336.391 200.635 334.574 200.542 332.72 200.344Z" fill="#3B080F"/>
<path d="M325.78 197.61C325.091 196.742 325.091 195.552 324.962 194.494C324.911 191.639 324.083 188.88 323.844 186.054C323.839 185.38 324.467 184.838 325.115 184.864C325.811 184.884 326.306 185.467 326.311 186.135C326.913 189.354 327.307 192.609 327.681 195.863C328.79 196.813 327.861 198.133 326.813 198.133C326.457 198.133 326.088 197.981 325.78 197.61Z" fill="#3B080F"/>
<path d="M295.731 219.852C294.521 219.616 294.659 218.319 294.95 217.41C295.189 216.128 295.266 214.906 295.44 213.629C295.538 212.694 295.7 211.795 295.721 210.87C295.824 209.231 298.311 209.358 298.245 211.008C298.112 213.026 297.775 215.019 297.555 217.021C297.333 218.055 297.311 219.87 295.976 219.87C295.899 219.871 295.817 219.865 295.731 219.852Z" fill="#3B080F"/>
<path d="M304.581 239.984C304.279 239.371 304.545 238.63 305.148 238.324C307.973 236.27 309.736 232.878 310.912 229.659C311.738 226.231 310.313 222.833 308.658 219.906C306.512 215.798 302.757 212.385 297.996 212.048C296.121 212.299 295.61 209.831 297.464 209.53C304.811 209.607 310.017 215.752 312.495 222.133C314.692 226.798 313.399 232.014 310.492 236.055C309.657 237.193 307.487 240.632 305.73 240.632C305.317 240.632 304.926 240.441 304.581 239.984Z" fill="#3B080F"/>
<path d="M311.166 228.773V228.818C309.336 224.481 304.422 222.591 300.503 220.522C298.97 219.873 297.31 220.297 295.854 219.607C294.521 218.759 295.788 216.644 297.167 217.425C300.038 217.486 302.582 218.585 305.025 220.006C308.105 221.712 311.422 223.729 313.072 226.949C313.802 227.955 314.052 230.014 312.341 230.02C311.656 229.978 311.202 229.421 311.166 228.773Z" fill="#3B080F"/>
<path d="M304.522 239.483C304.006 239.1 303.823 238.456 303.403 237.986C302.902 237.378 302.157 236.76 302.448 235.881C304.941 233.071 307.879 229.981 308.42 226.052C307.869 225.663 307.715 224.881 308.094 224.315C309.192 222.853 310.995 224.534 310.924 225.949C314.991 226.813 308.012 236.142 306.897 238.032C306.607 238.797 305.998 239.698 305.202 239.699C304.988 239.699 304.76 239.633 304.522 239.483Z" fill="#3B080F"/>
<path d="M354.889 223.838C354.322 223.827 353.928 223.491 353.627 223.046C353.264 222.499 353.504 221.717 354.031 221.381C354.802 220.057 355.89 215.143 357.918 216.271C358.49 216.604 358.731 217.406 358.368 217.978C357.383 219.726 356.652 221.463 355.993 223.189C355.787 223.57 355.349 223.838 354.914 223.838C354.906 223.838 354.897 223.838 354.889 223.838Z" fill="#3B080F"/>
<path d="M354.49 221.31C355.006 220.917 355.761 220.994 356.181 221.489C361.525 224.483 368.023 222.935 373.755 222.092C373.816 220.901 373.874 219.71 373.816 218.521C373.807 218.383 373.797 218.24 373.792 218.102C370.476 219.461 357.214 221.31 356.335 216.564C356.319 215.19 358.363 214.862 358.761 216.17C363.441 218.031 368.775 217.07 373.445 215.624C374.277 215.246 375.365 215.082 375.907 215.997C376.504 218.362 376.493 221.29 375.988 223.66C375.717 224.126 375.222 224.309 374.727 224.426C370.808 225.223 366.797 225.663 362.802 225.704C362.746 225.707 362.683 225.708 362.616 225.708C360.421 225.708 352.072 224.204 354.49 221.31Z" fill="#3B080F"/>
<path d="M399.997 141.964C399.46 141.683 399.205 141.055 399.358 140.492C398.811 139.099 395.843 136.457 397.309 135.164C400.446 133.075 404.482 131.481 408.191 132.988C411.334 134.301 413.408 137.152 410.699 140.105C409.581 141.116 407.921 139.4 408.968 138.312C409.208 137.923 409.489 137.438 409.438 136.973C408.676 136.007 407.487 135.271 406.322 134.985C404.017 134.598 401.749 135.363 399.792 136.544C400.595 137.995 404.166 142.046 400.539 142.163C400.354 142.123 400.16 142.046 399.997 141.964Z" fill="#3B080F"/>
<path d="M400.501 142.001C397.961 139.272 405.656 136.759 407.648 136.913C409.099 136.754 412.44 137.377 411.404 139.441C411.01 140.024 410.187 140.13 409.62 139.748C407.332 138.859 404.48 139.834 402.606 141.219C402.473 141.828 401.846 142.235 401.234 142.235C400.974 142.235 400.716 142.163 400.501 142.001Z" fill="#3B080F"/>
<path d="M405.828 144.119C405.23 143.817 405.108 143.189 404.981 142.668C404.766 141.569 404.25 140.497 404.203 139.377C404.346 138.014 405.921 138.207 406.932 138.157C407.596 138.116 408.327 138.014 408.817 138.586C409.196 137.82 408.776 136.788 409.501 136.195C410.104 135.734 410.978 135.816 411.402 136.486C412.031 138.657 410.631 141.053 409.072 142.52C408.387 143.214 407.498 144.253 406.463 144.253C406.257 144.253 406.045 144.213 405.828 144.119Z" fill="#3B080F"/>
<path d="M265.825 76.9698C263.603 76.4081 261.379 75.8972 259.152 75.3654C258.371 75.1197 257.41 75.2172 256.822 74.5788C256.01 73.6232 257.088 72.1424 258.249 72.6117C260.961 73.2202 263.679 73.8637 266.372 74.5528C267.02 74.7426 267.459 75.3446 267.307 76.035C267.185 76.5797 266.657 77.0088 266.108 77.0088C266.013 77.0088 265.918 76.9971 265.825 76.9698Z" fill="#3B080F"/>
<path d="M265.925 76.3561C265.184 75.9166 265.139 74.818 265.808 74.2927C274.728 65.9744 267.12 55.6903 272.786 46.965C273.792 45.7286 275.693 47.2458 274.718 48.5018C270.595 55.3275 275.301 64.0697 271.187 71.0281C270.233 72.8158 269.047 74.4709 267.652 75.9426C267.424 76.3249 266.995 76.5381 266.567 76.5381C266.344 76.5381 266.12 76.4796 265.925 76.3561Z" fill="#3B080F"/>
<path d="M257.992 74.9295C257.195 74.572 257.036 73.6021 257.502 72.9117C258.519 71.2007 259.459 69.4325 259.898 67.4706C261.027 62.2037 260.859 56.8029 261.323 51.4853C262.115 47.945 264.113 44.5881 266.963 42.3297C268.194 41.313 270.524 40.542 271.536 42.227C272.512 44.0771 273.979 45.7023 274.694 47.6694C275.03 49.253 272.645 49.8042 272.271 48.2311C271.429 46.6215 270.428 45.2771 269.549 43.73C264.982 46.0286 263.147 51.7245 263.545 56.5793C263.163 61.6212 263.187 66.9648 261.047 71.6401C260.308 72.627 259.89 75.027 258.503 75.0283C258.346 75.0283 258.175 74.9971 257.992 74.9295Z" fill="#3B080F"/>
<path d="M310.254 39.5991C308.813 39.0374 307.307 38.5161 305.763 38.5616C305.125 38.7969 304.384 38.4237 304.164 37.7906C304.992 33.3402 308.236 28.1045 313.278 27.6651C314.944 27.5259 318.531 27.7873 318.52 30.0092C318.479 31.2509 316.727 31.6136 316.175 30.5202C312.124 28.7728 308.308 32.4665 307.249 36.1706C308.512 36.2993 309.717 36.7024 310.887 37.1821C312.494 37.4642 312.101 39.6784 310.725 39.6797C310.579 39.6797 310.422 39.6537 310.254 39.5991Z" fill="#3B080F"/>
<path d="M310.923 39.6969C308.598 39.2731 310.372 36.7586 311.108 35.5989C312.17 34.0569 313.682 32.4421 315.675 32.3498C315.832 31.129 314.939 28.963 316.722 28.6977C318.888 28.7835 317.943 32.0183 318.106 33.4589C318.223 35.1646 316.798 36.2997 315.679 34.8279C313.891 35.3649 312.936 37.2553 312.189 38.792C312.037 39.3147 311.539 39.6982 310.987 39.6982C310.965 39.6982 310.944 39.6982 310.923 39.6969Z" fill="#3B080F"/>
<path d="M153.638 95.4506C153.137 94.9813 153.094 94.1245 153.601 93.6395C153.838 92.8451 153.77 92 153.714 91.1861C152.565 81.1841 146.184 68.8185 134.819 68.929C133.318 68.7405 130.772 70.653 130.049 68.7509C129.855 68.0865 130.255 67.4325 130.888 67.2193C136.865 64.9726 143.173 67.7302 147.604 71.8569C151.699 75.7105 153.857 81.2478 155.431 86.5355C155.936 88.4623 157.698 97.328 153.638 95.4506Z" fill="#3B080F"/>
<path d="M145.069 97.0737C144.946 96.2845 145.619 95.6137 146.398 95.654C148.746 94.6646 151.22 93.6296 153.739 93.2786C155.151 93.4359 155.183 95.5682 153.776 95.732C151.649 96.239 149.607 96.9333 147.635 97.7992C146.765 98.3206 145.27 98.3089 145.069 97.0737Z" fill="#3B080F"/>
<path d="M148.973 90.9778C148.947 91.8879 149.157 93.3233 149.06 94.5701C148.957 95.8728 148.523 96.9715 147.138 97.043C146.526 96.9962 146.045 96.4293 146.034 95.8312C146.034 95.7857 146.034 95.735 146.045 95.6882C146.071 95.3671 146.235 95.0655 146.479 94.8613C147.119 87.4323 144.334 79.9994 139.343 74.5531C139.01 74.241 138.663 73.8887 138.295 73.5312C136.751 72.0191 134.887 70.3224 132.895 70.3783C132.205 70.481 131.746 70.0871 131.572 69.5813C131.352 68.9222 131.628 68.0849 132.533 67.9367C132.915 67.8443 133.293 67.8196 133.661 67.8547C134.704 67.9314 135.679 68.432 136.599 69.0197C137.161 69.3772 137.702 69.7712 138.218 70.1183C144.498 75.1459 148.503 82.952 148.973 90.9778Z" fill="#3B080F"/>
<path d="M136.526 70.8683C138.207 70.8332 138.477 72.0488 138.294 73.5297C138.104 75.1236 137.384 77.0297 137.323 78.0308C137.134 79.0631 137.578 80.4009 136.066 80.514V80.5192C135.673 80.5244 135.279 80.4581 134.897 80.4061C132.735 79.9875 130.441 80.0538 128.371 79.2776C127.288 78.751 127.37 77.3417 127.15 76.3198C127.105 73.8261 126.988 70.5614 129.194 68.9116C129.414 68.7425 129.69 68.5436 130.002 68.3447C131.233 67.5425 132.97 66.7195 133.659 67.8545C133.788 68.0587 133.88 68.3291 133.926 68.671C134.032 68.7633 134.14 68.8557 134.247 68.9428C135.024 69.6162 135.718 70.2754 136.526 70.8683Z" fill="#3B080F"/>
<path d="M71.2682 280.419C71.2734 280.419 71.2734 280.414 71.2786 280.414C70.3685 279.611 69.5052 278.748 68.6887 277.833C64.5647 273.67 59.472 268.658 59.9167 262.333C60.0649 258.313 62.4753 254.884 65.0561 251.946C63.9679 252.539 62.8589 253.096 61.7356 253.611C55.3584 255.753 48.6002 257.387 41.846 257.387C41.4013 257.387 40.9515 257.378 40.5068 257.367C38.4279 257.28 36.3438 257.367 34.2687 257.239C34.2492 257.239 34.2284 257.233 34.2076 257.229C33.789 257.607 33.3703 257.959 33.0687 258.302C30.5191 260.693 28.2452 263.339 25.8438 265.873C19.0544 272.944 12.858 280.515 6.69658 288.122C5.74618 288.971 4.19251 292.051 2.72074 292.935C5.69937 292.951 8.59089 291.959 11.5136 291.464C15.8925 290.804 20.2805 290.145 24.6035 289.17C32.7463 287.132 41.0646 285.946 49.2646 284.194C56.4934 282.35 63.9367 281.598 71.2682 280.419ZM83.1983 282.442C97.3387 281.818 72.9545 261.975 68.2688 266.997C65.5866 272.29 78.1902 283.106 83.1983 282.442ZM90.223 138.435C90.9329 137.204 92.1992 135.788 91.7702 134.302C90.2022 131.493 84.5817 135.038 82.8395 136.351C82.4715 136.571 82.1049 136.576 81.7981 136.447C80.771 137.306 79.7946 138.216 78.8754 139.166C76.0761 141.547 73.3016 143.912 70.6298 146.365C70.609 146.707 70.466 147.054 70.2359 147.324C69.5156 148.592 68.443 149.864 68.5912 151.37C70.2255 155.259 80.4641 147.565 82.8551 146.18C85.8896 144.255 88.1428 141.296 90.223 138.435ZM103.097 268.928C110.423 267.427 105.805 259.022 103.219 255.191C100.905 251.154 97.548 247.818 93.5631 245.483C93.134 245.397 92.7466 245.35 92.3942 245.35C90.5038 245.35 89.7784 246.628 90.2581 248.927C90.9225 252.457 91.8274 256.018 93.4617 259.232C94.6929 261.694 96.608 263.691 98.4893 265.664C98.765 265.955 98.8664 266.354 98.8001 266.727C100.052 267.733 101.4 268.923 103.097 268.928ZM116.391 284.72C113.8 283.443 111.332 281.941 109.065 280.117C103.015 275.346 96.7822 270.456 92.5464 263.921C90.054 259.584 87.0858 255.425 85.2565 250.796C85.185 250.772 85.1134 250.74 85.0419 250.7C80.4953 249.085 75.4378 248.37 70.8652 250.224C65.9753 253.525 60.7136 259.901 62.8745 266.068C63.5896 267.8 64.5452 269.388 65.6581 270.865C64.5452 266.788 67.0323 262.481 72.2082 263.83C79.346 266.119 87.3822 271.187 89.9669 278.534C90.682 282.467 87.6175 284.486 84.2553 284.889C89.0009 286.381 94.0077 287.102 98.882 288.016C105.136 288.91 111.813 289.727 116.391 284.72ZM118.317 142.19C119.119 135.774 114.26 130.185 108.053 129.187C102.234 127.794 96.3077 128.601 90.9225 130.863C94.6721 131.646 95.1727 135.738 92.991 138.69C89.9058 143.83 85.4866 147.872 80.2756 150.784C77.1176 152.699 73.6956 154.912 69.9044 154.912C69.6534 154.912 69.409 154.907 69.1581 154.886C67.0427 154.616 66.0208 152.659 66.0975 150.722C63.6104 153.247 61.2545 155.908 59.0937 158.789C45.0638 173.855 32.9153 191.057 26.3964 210.701C23.7961 218.329 22.6467 226.412 21.3531 234.351C20.8174 239.7 22.6975 245.106 23.995 250.174C25.195 253.187 27.3468 255.957 29.8807 257.995C30.8103 257.05 31.7504 256.115 32.7008 255.191C32.4303 253.683 34.7082 253.111 35.4233 254.342C35.5052 254.511 35.552 254.675 35.5715 254.833C42.0657 255.093 48.5586 254.823 54.863 253.05C63.1813 251.435 70.1189 246.414 76.1009 240.671C81.174 236.522 84.4036 230.519 87.5096 224.914C90.197 219.648 92.051 214.013 92.3526 208.101C92.991 204.555 93.4825 201.01 93.3434 197.449C93.0937 193.898 92.3474 189.495 88.8839 187.706C88.3118 187.358 88.0869 186.617 88.4093 186.021C88.3118 185.458 88.603 184.856 89.1348 184.631C90.3712 183.578 91.3723 182.265 92.3891 181.014C95.9853 175.444 100.206 170.428 104.077 165.083C106.812 160.563 110.101 156.297 113.132 152.035C114.986 148.822 117.596 145.91 118.317 142.19ZM129.888 256.851C133.588 256.12 131.687 251.757 130.828 249.401C128.54 242.403 122.481 237.642 117.233 232.884C116.037 232.005 114.884 230.887 113.418 230.509C111.107 230.279 110.09 231.628 110.638 233.845C111.22 236.323 112.769 238.423 114.061 240.573C114.352 241.039 114.286 241.641 113.934 242.04C115.481 244.467 117.152 246.806 118.909 249.08H118.915C119.384 249.356 119.741 249.938 120.095 250.332C121.755 252.007 123.579 253.54 125.357 255.027C126.66 255.967 128.147 257.617 129.888 256.851ZM134.661 287.704C140.5 288.122 147.182 288.22 152.149 284.848C146.912 281.982 142.221 277.991 138.293 273.557C130.501 265.939 122.762 258.117 116.058 249.514C112.073 243.486 107.174 237.38 105.162 230.371C104.349 231.065 102.551 230.917 101.043 230.774C100.282 230.697 99.597 230.626 99.1524 230.662C95.525 230.856 91.4894 231.689 89.231 234.759C85.0835 241.084 85.8441 246.286 88.2754 251.548C88.0609 250.516 87.8775 249.478 87.7241 248.452C86.9427 244.063 91.1474 241.769 94.8866 243.378C99.705 246.189 103.491 250.383 106.152 255.257C107.987 258.107 109.473 261.331 109.606 264.769C109.626 268.198 106.32 271.411 102.914 271.417C102.76 271.417 102.602 271.406 102.443 271.391C102.417 271.391 102.392 271.385 102.366 271.38C104.757 273.583 107.296 275.632 109.825 277.603C112.426 279.723 115.184 281.404 118.097 282.805C118.526 282.702 119.002 282.81 119.307 283.187C119.37 283.269 119.42 283.351 119.461 283.438C120.999 284.123 122.577 284.741 124.192 285.313C127.528 286.728 131.028 287.622 134.661 287.704ZM165.743 255.834C167.7 249.893 160.267 240.891 156.031 237.237C152.756 234.811 149.313 232.057 145.083 231.78C140.357 232.22 140.475 236.022 142.554 239.321C142.809 239.832 142.62 240.462 142.191 240.803C144.689 245.504 148.117 249.79 151.872 253.648C152.332 253.683 152.735 253.979 152.935 254.413C153.839 255.297 154.835 256.243 155.944 256.841C159.06 258.255 163.95 259.896 165.743 255.834ZM187.482 282.191C187.272 282.095 187.063 281.987 186.859 281.875C186.271 281.573 185.689 281.267 185.106 280.955C175.347 276.173 166.352 269.833 158.1 262.756C150.743 256.795 144.102 249.565 139.61 241.217C135.759 234.412 134.022 223.489 137.587 216.24C137.578 216.229 137.568 216.224 137.557 216.214C136.571 215.504 135.601 215.136 134.671 214.37C130.032 211.258 124.038 208.514 118.398 210.089C116.191 210.41 113.913 210.891 112.359 212.637C106.29 218.008 105.795 225.047 108.144 231.637C108.226 231.229 108.359 230.831 108.554 230.443C112.595 224.236 119.195 231.255 122.634 234.438C126.22 237.565 129.593 241.084 131.825 245.331C134.466 250.868 137.47 259.467 128.391 259.467C128.269 259.467 128.142 259.462 128.008 259.462C127.936 259.441 127.865 259.42 127.793 259.396C132.652 264.586 137.772 269.552 142.718 274.605C150.805 283.075 162.592 288.455 174.393 286.734C178.914 286.125 184.452 285.89 187.482 282.191ZM217.706 120.058C216.03 118.812 214.314 117.458 212.383 116.676C206.672 130.915 200.157 128.218 189.203 134.798C187.246 136.156 185.689 137.649 184.084 139.288C184.008 139.365 183.936 139.442 183.859 139.524C185.858 140.408 187.823 141.383 189.464 142.839C189.925 143.247 190.378 143.672 190.783 144.137C190.788 144.117 190.802 144.101 190.813 144.086C193.709 139.023 198.548 138.006 203.718 136.576C210.88 133.919 214.493 126.465 217.706 120.058ZM238.959 120.876C238.965 120.865 238.97 120.86 238.98 120.85C238.975 120.85 238.975 120.844 238.97 120.844C238.965 120.855 238.959 120.865 238.959 120.876ZM241.974 256.754C242.378 254.532 242.414 252.247 242.147 250.005C240.667 250.409 238.592 251.164 237.156 251.164C237.029 251.164 236.901 251.159 236.783 251.144C227.409 253.356 218.002 255.487 208.459 256.667C212.045 258.051 215.74 259.181 219.403 260.294C220.399 260.78 220.236 262.359 219.152 262.613C219.045 262.645 218.932 262.66 218.825 262.66C218.391 262.66 217.957 262.465 217.558 262.338C214.518 261.398 211.473 260.442 208.494 259.329C209.731 260.707 210.891 262.149 211.836 263.754C212.388 264.708 211.534 265.597 210.687 265.597C210.303 265.597 209.926 265.419 209.675 264.98C207.774 261.816 205.006 259.298 202.518 256.6C202.467 256.56 202.415 256.518 202.369 256.468C202.349 256.457 202.333 256.436 202.319 256.422C201.874 256.028 201.449 255.43 201.302 254.858C196.269 250.352 191.662 245.412 186.883 240.66C179.109 233.517 172.236 225.354 163.945 218.805C161.727 217.058 159.77 214.916 157.262 213.578C154.769 212.51 152.092 212.423 149.552 211.554C145.501 211.207 142.559 213.087 140.663 215.933C140.796 216.317 140.756 216.714 140.479 217.129C140.229 217.4 139.983 217.527 139.739 217.558C138.257 220.628 137.761 224.403 138.201 227.715C138.349 229.533 138.66 231.306 139.11 233.033C140.311 230.473 143.452 228.812 146.34 229.426C156.767 231.827 165.349 241.498 168.375 251.537C169.744 256.672 166.116 260.974 161.421 260.974C160.818 260.974 160.201 260.902 159.571 260.754C167.168 267.196 175.235 273.061 184.063 277.67C184.815 277.854 185.673 278.405 186.449 278.881C186.655 278.978 186.859 279.08 187.063 279.177C187.849 279.498 188.631 279.826 189.414 280.158C189.78 280.147 190.138 280.295 190.389 280.572C191.723 281.139 193.05 281.706 194.394 282.247C196.683 282.932 199.1 283.121 201.501 283.024C208.173 282.876 215.015 282.038 220.936 278.804C229.933 273.945 239.261 267.043 241.974 256.754ZM262.569 148.402C264.014 141.644 260.03 134.614 254.43 131.155C251.528 129.418 247.925 129.74 244.876 130.792C244.39 130.924 243.792 131.262 243.195 131.517C244.943 136.8 248.248 141.25 252.227 145.057C255.053 147.565 257.756 150.35 260.959 152.301C261.695 151.075 262.251 149.787 262.569 148.402ZM267.452 159.734C269.716 157.124 264.137 157.089 262.66 157.502C261.648 157.655 261.127 156.74 261.291 155.98C261.23 155.77 261.24 155.556 261.301 155.346C252.468 149.89 244.079 142.021 240.763 131.978C240.211 132.325 239.669 132.687 239.139 133.066C238.719 133.531 238.081 133.842 237.519 133.776C236.237 133.995 235.266 132.11 236.706 131.364C236.942 130.823 237.069 130.195 237.069 129.561C237.069 129.111 237.003 128.662 236.87 128.247C236.579 128.028 236.451 127.717 236.431 127.369C236.206 127.047 235.914 126.772 235.557 126.568C232.89 126.081 231.307 129.096 230.683 131.252C228.937 137.797 228.18 144.822 230.243 151.376C233.208 159.678 239.634 164.797 248.631 163.918C248.917 163.949 249.259 163.934 249.617 163.923C249.796 163.918 249.985 163.913 250.173 163.913C250.644 163.913 251.104 163.955 251.467 164.118C257.086 164.087 262.89 163.081 267.452 159.734ZM282.023 236.691C281.789 236.62 281.553 236.533 281.318 236.44C267.197 231.78 254.189 224.435 241.974 216.107C227.924 206.936 214.785 196.3 202.497 184.896C194.625 177.815 186.941 170.55 179.885 162.647C173.427 156.245 167.858 149.082 163.01 141.398C159.545 136.494 156.588 131.262 153.931 125.883C151.403 121.458 149.629 116.661 149.155 111.572C149.073 111.296 149.017 111.026 148.986 110.755C148.143 111.72 147.331 112.712 146.483 113.677C137.878 123.237 130.568 133.683 123.093 144.101C120.702 147.427 118.205 150.676 115.568 153.813C115.333 154.227 114.888 154.467 114.439 154.467H114.429C114.342 154.6 114.26 154.738 114.178 154.87C109.248 161.185 105.385 168.246 100.134 174.331C97.2776 177.897 95.265 181.917 92.1277 185.233C91.8989 185.52 91.5869 185.872 91.2345 186.194C95.4483 189.535 96.0412 195.569 95.7967 200.597C95.1831 206.134 94.7228 211.779 93.3395 217.175C91.2449 223.852 87.7033 229.926 83.9277 235.771C80.6787 239.975 76.8419 243.808 72.5762 247.062C74.2924 246.633 76.0956 246.49 77.8846 246.623C80.0663 246.644 82.1556 247.317 84.271 247.803C84.1838 247.476 84.1019 247.144 84.0304 246.806C82.768 234.719 89.8746 226.81 102.244 228.399C102.933 228.383 103.945 228.174 104.675 228.353C104.405 227.025 104.252 225.656 104.236 224.25C104.384 218.779 107.199 213.931 111.215 210.333C113.146 208.469 115.793 207.989 118.337 207.574C120.683 206.896 123.165 206.972 125.521 207.534C129 208.652 132.55 209.716 135.508 211.948C136.112 212.546 137.639 213.266 138.885 214.093C140.852 211.416 143.811 209.521 147.995 208.99C149.589 208.868 151.096 209.43 152.608 209.833C154.908 210.339 157.145 210.553 159.168 211.81C170.74 220.164 180.079 230.943 190.425 240.696C194.992 245.416 199.605 250.092 204.562 254.413C204.668 254.485 204.781 254.567 204.883 254.659C205.589 254.623 206.278 254.546 206.947 254.45C221.476 252.483 235.634 248.728 249.939 245.585C249.995 245.57 250.046 245.55 250.098 245.529C250.485 245.1 251.022 245.059 251.472 245.254C252.248 245.08 253.024 244.916 253.801 244.753C263.335 242.413 272.602 239.337 282.023 236.691ZM291.163 189.948C291.791 187.165 291.107 184.221 292.364 181.555C285.774 179.859 279.07 179.097 272.332 180.18C267.804 180.472 263.263 181.11 258.905 182.306C259.344 183.496 257.597 184.671 256.699 183.471C256.601 183.338 256.504 183.205 256.397 183.072C253.347 184.089 250.403 185.412 247.65 187.128C245.647 188.417 243.736 189.791 242.046 191.436C244.263 193.551 246.301 195.916 248.411 198.154C249.606 196.488 252.529 194.73 253.525 194.174C264.642 187.266 278.753 186.669 291.133 190.25C291.147 190.143 291.158 190.046 291.163 189.948ZM356.557 105.033C356.613 105.267 356.594 105.503 356.522 105.717C356.849 106.469 356.456 107.623 356.139 108.354C354.217 113.657 350.79 117.953 346.734 121.693C347.203 121.755 347.668 121.964 348.113 122.096C348.966 122.434 350.003 122.663 350.595 123.415C351.219 124.391 350.33 125.295 349.533 125.79C347.954 127.006 346.294 128.13 344.603 129.187C337.681 133.889 329.91 137.02 321.771 138.885C318.072 139.738 314.281 140.668 310.475 141.025C303.583 142.476 296.4 143.109 288.589 143.678C286.1 144.218 283.77 145.214 281.604 146.508C282.881 145.992 284.21 145.582 285.62 145.333C288.93 144.51 292.629 144.06 295.833 145.439C296.226 145.424 296.62 145.593 296.869 145.894C297.176 146.048 297.422 146.329 297.523 146.655C297.713 147.605 297.232 148.116 296.578 148.229C296.318 148.617 296.002 148.976 295.7 149.276C293.932 150.544 291.204 149.241 289.15 149.741C283.454 150.176 278.324 152.106 273.343 154.646C272.199 155.075 270.865 155.985 269.583 156.435C270.574 157.43 270.87 158.907 269.808 160.91C264.683 165.533 257.408 166.56 250.726 166.642C250.613 166.658 250.501 166.663 250.384 166.663C249.99 166.663 249.571 166.595 249.214 166.438C247.562 166.586 245.979 166.57 244.467 166.401C248.692 171.072 253.556 175.245 257.408 180.206C263.38 178.489 269.705 177.76 275.851 177.355C282.213 176.823 288.869 177.76 294.846 179.884C295.404 180.36 295.362 181.162 294.984 181.734C294.647 182.474 294.433 183.108 294.249 183.808C293.656 185.504 294.509 193.418 291.965 193.418C291.848 193.418 291.719 193.398 291.581 193.361C291.224 193.223 291.004 193.03 290.887 192.789C290.341 192.616 289.789 192.482 289.328 192.365C281.977 190.393 274.023 189.948 266.563 191.584C272.52 197.955 278.284 205.021 283.229 212.337C286.458 217.129 290.177 221.788 291.991 227.352C293.672 231.848 292.211 235.082 289.328 236.496C289.304 236.573 289.272 236.65 289.232 236.726C288.665 237.723 287.336 237.866 286.335 238.203C282.319 239.276 278.299 240.329 274.299 241.447C266.425 243.848 258.598 246.377 250.536 248.037L250.532 248.027C248.616 248.569 246.526 249.029 244.605 249.478C246.807 263.738 234.035 274.635 222.585 280.745C215.714 284.598 207.76 285.497 199.999 285.497H199.269C198.716 285.487 197.669 285.395 196.468 285.211L196.494 285.487L196.52 285.686C195.743 285.421 194.966 285.149 194.195 284.863C192.703 284.423 191.232 283.898 189.801 283.279C186.737 288.476 175.572 289.446 169.545 289.446C169.029 289.446 168.553 289.435 168.119 289.425C163.383 289.277 158.861 288.071 154.652 286.12C154.427 286.355 154.177 286.565 153.947 286.728C149.742 289.578 144.49 290.391 139.396 290.391C138.109 290.391 136.837 290.34 135.59 290.258C131.426 290.121 127.359 289.374 123.527 287.693C121.918 287.116 120.32 286.504 118.751 285.818H118.746C118.372 286.228 117.959 286.6 117.638 286.912C114.853 289.665 111.083 291.209 107.195 291.209C106.817 291.209 106.438 291.198 106.06 291.167C100.446 290.973 94.9373 289.875 89.4611 288.736C84.1019 287.888 78.9469 285.956 74.5121 282.932C74.3587 282.84 74.2208 282.749 74.1038 282.646C74.0934 282.641 74.083 282.63 74.0726 282.62C73.7307 282.386 73.3887 282.135 73.0559 281.885C72.6789 283.483 69.2452 283.173 67.9008 283.504C63.4869 283.975 59.1093 284.711 54.7512 285.543C46.5057 287.52 38.1159 288.696 29.8495 290.544C24.1939 291.884 18.4876 293.038 12.724 293.799C9.61281 294.187 6.50156 295.408 3.35521 295.408C2.84426 295.408 2.3333 295.377 1.81715 295.305C0.162063 294.836 -0.666129 292.67 0.652217 291.413C0.835537 291.188 1.05006 291.061 1.27499 291.01C2.95607 288.956 4.52014 286.8 6.21553 284.751C13.1895 276.162 20.3884 267.739 28.1073 259.804C23.9742 256.478 21.2569 251.625 20.4183 246.393C19.4731 242.668 18.4772 238.939 18.8295 235.066C20.0972 225.211 21.8589 215.239 25.4811 205.94C32.338 187.446 44.1186 171.291 57.4529 156.93C61.8734 151.248 66.7775 146.043 72.4175 141.557C77.8534 136.974 82.7589 131.493 89.4455 128.713C98.0135 125.279 109.079 124.381 116.534 130.701C119.767 133.76 121.536 138.803 120.601 143.202C125.01 137.194 129.23 131.064 133.914 125.265C138.037 119.093 143.258 113.692 148.051 108.103C148.454 107.669 149.144 107.644 149.619 107.96C150.156 107.056 150.993 106.315 152.01 105.86C152.383 105.691 152.726 105.696 153.007 105.81C154.789 105.396 156.874 105.754 158.657 105.932C163.638 106.3 168.41 108.589 172.911 110.408C176.845 111.899 180.861 113.268 184.396 115.614C190.19 118.99 195.856 122.74 201.245 126.705C201.925 126.373 202.584 125.999 203.217 125.576C207.085 122.832 208.909 118.26 210.83 114.182C212.704 112.89 219.173 117.749 220.445 119.282C220.705 119.849 220.501 120.508 220.077 120.937C217.66 125.729 215.177 130.527 211.387 134.43C211.162 134.675 210.932 134.915 210.692 135.134C211.009 135.227 211.311 135.406 211.534 135.666C216.613 140.376 222.34 144.407 227.179 149.363C225.794 142.87 226.719 135.926 228.63 129.627C229.523 126.219 232.742 123.793 235.485 124.064C236.987 116.758 241.223 110.259 246.357 104.957C250.827 100.766 257.49 99.7041 261.306 94.7687C262.66 93.0773 263.652 91.1414 264.386 89.1131C265.26 87.2942 267.335 88.7712 268.387 89.6449C271.336 91.8473 269.276 95.688 267.585 98.0282C267.171 98.6874 266.732 99.3257 266.262 99.9446C267.555 99.7444 268.832 99.4545 270.099 99.106C270.645 98.9331 271.198 98.7745 271.744 98.6055C280.005 95.3304 286.979 89.2353 292.532 82.3849C294.351 79.2229 295.481 81.2303 297.61 82.7112C302.224 77.0465 307.526 71.3649 309.75 64.2687C309.565 63.6355 309.867 63.1246 310.327 62.8684C310.48 62.3016 310.95 61.8166 311.67 61.8569C312.278 61.8166 312.917 62.4953 313.269 62.8021C317.939 67.1602 322.322 71.8199 327.074 76.1104C331.075 79.8769 335.222 83.4887 339.28 87.1876C343.244 90.8293 346.453 95.203 350.56 98.6978C352.333 100.414 354.049 102.208 355.75 104.001C356.179 104.165 356.507 104.558 356.557 105.033Z" fill="#3B080F"/>
<path d="M187.752 238.847C187.516 236.798 191.536 237.164 192.912 236.586C205.732 233.038 218.627 229.224 231.587 226.277C232.35 225.009 234.405 226.014 233.84 227.408C233.597 228.236 232.738 228.612 231.96 228.777C227.963 229.655 224.011 230.662 220.041 231.663C212.001 233.766 204.001 236.05 196.008 238.325C193.767 239.009 191.464 239.412 189.168 239.874C188.518 239.997 187.852 239.498 187.752 238.847Z" fill="#3B080F"/>
<path d="M30.6429 280.057C30.5492 278.004 33.433 278.646 34.75 278.085C41.6265 276.747 48.2325 274.487 55.1506 273.359C58.3242 272.668 61.4966 272.047 64.6104 271.146C65.0564 270.784 65.683 270.726 66.1706 271.09C67.576 272.361 65.8377 273.656 64.4947 273.803C56.4026 275.822 48.148 277.077 40.1508 279.48C37.5856 280.074 35.0022 280.608 32.411 281.053C31.6505 281.261 30.7664 280.899 30.6429 280.057Z" fill="#3B080F"/>
<path d="M380.932 123.399C380.466 122.84 380.507 121.999 381.114 121.551C384.327 115.195 386.01 107.181 383.513 100.38C383.322 100.263 383.163 100.095 383.068 99.8819C382.947 99.6167 382.828 99.3488 382.703 99.0836C378.297 97.37 376.302 104.032 374.368 106.671C373.928 106.988 373.36 106.917 372.906 106.682C371.769 106.041 370.649 105.346 369.427 104.871C368.109 104.098 365.654 104.513 364.992 103.035C365.239 98.2554 369.033 93.246 373.937 92.4997C388.535 91.4778 388.93 108.785 385.055 118.857C384.289 120.295 383.209 125.332 380.932 123.399ZM367.853 101.798C369.726 102.196 371.489 102.97 373.131 103.947C374.65 100.9 376.664 97.4597 380.11 96.4001C374.901 92.8195 369.154 96.0608 367.648 101.75C367.717 101.766 367.785 101.783 367.853 101.798Z" fill="#3B080F"/>
<path d="M325.677 151.729C325.662 151.604 325.66 151.487 325.671 151.38C326.162 151.181 326.641 150.944 327.118 150.707C327.665 150.437 328.227 150.167 328.707 149.783C328.737 149.758 328.766 149.734 328.794 149.708C329.043 149.649 329.266 149.585 329.442 149.502C337.724 146.693 346.041 143.473 353.021 138.13C360.474 132.05 367.555 125.199 372.966 117.249C375.024 113.064 377.83 107.098 374.801 102.822C373.773 102.499 373.732 100.982 374.677 100.537C375.53 100.058 376.471 100.86 376.946 101.498C378.667 103.992 379.133 107.567 378.09 110.357C377.176 117.004 372.633 122.159 368.383 127.043C360.572 135.549 351.8 143.606 340.897 147.826C336.713 149.436 332.456 151.382 328.105 152.42C327.748 152.572 327.326 152.684 326.932 152.684C326.352 152.684 325.832 152.442 325.677 151.729Z" fill="#3B080F"/>
<path d="M369.598 104.718C369.296 104.519 369.071 104.299 368.856 104.008C368.747 103.861 368.667 103.693 368.602 103.52C366.866 104.317 366.585 102.002 366.272 100.836C365.809 99.2559 367.331 97.684 368.915 98.2392C369.231 96.8142 370.187 95.4998 371.609 95.0525C372.268 94.457 373.238 94.0488 374.1 94.4323C374.783 93.9357 375.745 93.8044 376.469 94.2789C377.211 94.0085 378.09 94.2841 378.449 95.02C382.971 94.3907 381.3 98.9074 377.818 98.7891C376.501 101.527 373.055 106.158 369.598 104.718Z" fill="#3B080F"/>
<path d="M366.06 103.546C364.001 102.82 365.462 100.154 365.978 98.7588C367.424 96.256 369.427 93.5738 372.288 92.6689C375.718 91.9162 379.81 92.4791 382.355 95.0443C382.259 95.0586 382.164 95.0781 382.066 95.1015C381.765 95.173 381.464 95.2705 381.173 95.3875C380.662 95.5904 380.154 95.827 379.664 96.0935C378.999 95.6801 378.267 95.3524 377.551 95.1522C375.721 94.7648 373.667 94.6413 372.028 95.4902C370.31 96.6799 369.002 98.2687 368.114 100.047C367.884 100.67 367.562 101.288 367.506 101.952C367.798 102.745 367.1 103.573 366.305 103.573C366.224 103.573 366.142 103.564 366.06 103.546Z" fill="#3B080F"/>
<path d="M405.36 143.639C404.987 142.678 404.125 141.465 404.512 140.436C405.11 139.182 406.941 139.758 406.964 141.064C407.264 140.791 407.519 140.471 407.822 140.2C408.938 139.173 410.615 140.843 409.596 141.963C408.588 142.963 406.753 145.263 405.36 143.639Z" fill="#3B080F"/>
<path d="M133.946 79.8698C132.233 79.6553 130.685 79.3199 129.038 79.0963C128.024 79.0898 127.459 77.7909 128.115 77.0303C127.405 73.5095 127.05 66.9516 132.505 70.1643C134.305 70.9678 136.815 72.0612 137.915 73.7189C138.118 74.8734 137.476 76.024 137.282 77.1577C137.167 79.4395 136.078 80.4861 133.787 79.8438L133.946 79.8698Z" fill="#3B080F"/>
<path d="M310.207 227.477C310.201 227.464 310.194 227.451 310.188 227.438C310.198 227.458 310.214 227.484 310.223 227.504C310.219 227.495 310.212 227.486 310.207 227.477Z" fill="#3B080F"/>
<path d="M311.25 232.114V232.023C311.25 232.064 311.254 232.102 311.255 232.14C311.254 232.132 311.254 232.124 311.25 232.114Z" fill="#3B080F"/>
<path d="M305.29 239.368C304.682 238.27 303.41 237.682 302.838 236.58C302.409 234.893 304.917 233.421 305.571 232.078C306.772 230.326 308.039 228.512 308.6 226.437C308.555 226.055 308.704 225.725 308.951 225.491C309.018 225.571 309.081 225.653 309.143 225.738C309.521 226.284 309.868 226.852 310.185 227.434C310.175 227.408 310.159 227.388 310.149 227.363C310.164 227.388 310.175 227.414 310.189 227.438C310.196 227.453 310.202 227.466 310.21 227.477C310.319 227.689 310.415 227.896 310.506 228.108C310.491 228.073 310.476 228.031 310.466 227.996C310.48 228.041 310.501 228.083 310.517 228.129C310.517 228.133 310.518 228.135 310.521 228.139C310.521 228.139 310.521 228.14 310.521 228.142C310.973 229.379 311.186 230.698 311.242 232.012V232.114C311.245 232.136 311.246 232.156 311.246 232.177C311.246 232.175 311.245 232.172 311.244 232.168C311.244 232.155 311.244 232.142 311.242 232.129V232.084V232.145V232.129V232.164C311.244 232.167 311.244 232.167 311.244 232.168C311.247 232.247 311.247 232.325 311.247 232.4V232.455C311.247 232.487 311.247 232.518 311.242 232.548V232.589V232.569V232.645C311.242 232.614 311.242 232.579 311.247 232.548C311.228 233.148 311.194 233.74 311.142 234.337C310.214 236.3 309.027 238.02 308.1 238.796C307.684 239.37 306.967 239.929 306.29 239.929C305.929 239.929 305.578 239.77 305.29 239.368Z" fill="#3B080F"/>
<path d="M380.116 95.7704C380.325 95.6352 380.538 95.5728 380.741 95.5676C380.204 95.8016 379.676 96.0708 379.172 96.375C379.484 96.167 379.8 95.9655 380.116 95.7704Z" fill="#3B080F"/>
<path d="M366.888 103.735C366.224 103.812 365.636 103.327 365.493 102.663C365.34 100.818 367.272 101.037 368.421 101.646C369.835 102.326 371.389 102.668 372.758 103.434C373.81 100.93 375.674 98.9598 377.804 97.345C377.231 97.817 376.691 98.341 376.171 98.861C375.721 99.3161 375.358 99.827 374.991 100.343C374.638 100.833 374.275 101.309 373.995 101.845C373.765 102.284 373.545 102.729 373.335 103.179C373.121 103.629 372.912 104.082 372.666 104.511C372.57 104.686 372.472 104.855 372.38 105.028C372.252 105.207 372.176 105.416 372.155 105.641C372.148 105.71 372.148 105.779 372.154 105.847C370.444 105.039 368.619 104.43 366.888 103.735Z" fill="#3B080F"/>
<path d="M371.33 103.896C371.136 103.901 370.941 103.886 370.773 103.835C370.226 103.667 369.833 103.202 369.833 102.635C368.806 102.42 367.299 101.791 367.345 100.545C367.774 99.3649 368.56 98.2455 369.577 97.4797C369.532 97.2093 369.577 96.918 369.71 96.6723C369.781 96.5449 369.874 96.4266 369.987 96.3304C369.307 95.0224 370.845 94.0512 371.978 94.7416C372.302 91.9957 378.977 94.111 380.845 95.5191C379.853 95.9416 378.886 96.4838 378.042 97.1469C377.379 97.6682 376.76 98.2663 376.168 98.8592C375.718 99.3142 375.355 99.8252 374.987 100.34C374.635 100.831 374.272 101.306 373.991 101.843C373.762 102.282 373.541 102.726 373.332 103.176C373.214 103.424 373.097 103.674 372.974 103.921C372.786 103.938 372.593 103.945 372.404 103.945C372.023 103.945 371.65 103.918 371.33 103.896Z" fill="#3B080F"/>
<path d="M407.906 142.738C406.913 142.569 405.544 142.526 405.102 141.425C404.7 139.91 406.601 139.51 407.68 140.01C409.876 139.39 410.448 143.081 407.906 142.738Z" fill="#3B080F"/>
<path d="M197.547 127.311C189.836 121.484 181.874 115.745 172.647 112.724C168.829 111.201 165.126 110.278 161.192 109.469C158.562 109.113 155.875 108.163 153.231 108.776C150.908 109.775 150.504 106.405 153.027 106.24C163.891 105.984 174.585 110.448 184.207 115.135C189.569 118.005 194.203 121.968 199.146 125.43C200.356 126.448 198.764 128.36 197.547 127.311Z" fill="#3B080F"/>
<path d="M223.968 150.923C219.424 146.319 214.507 142.1 209.623 137.906C208.988 137.016 209.849 135.745 210.915 135.965C211.855 136.217 212.491 137.104 213.24 137.681C217.448 141.508 221.883 145.161 225.828 149.257C226.917 150.448 225.038 152.142 223.968 150.923Z" fill="#3B080F"/>
<path d="M253.973 181.498C250.326 176.93 246.496 172.226 242.104 168.41C240.953 167.396 242.472 165.507 243.704 166.447C248.239 170.456 252.155 175.186 255.883 179.914C256.903 181.151 254.983 182.749 253.973 181.498Z" fill="#3B080F"/>
<path d="M284.974 235.695C283.468 235.609 283.521 233.219 285.03 233.212C292.49 234.081 286.989 222.923 285.304 219.73C280.305 211.41 273.656 204.35 267.583 196.831C266.942 196.007 266.318 195.158 265.642 194.369C265.019 194.005 264.842 193.14 265.253 192.56C266.018 191.515 267.27 192.182 267.848 193.071C275.405 203.106 284.998 211.875 289.883 223.622C291.966 228.52 292.439 236.531 284.974 235.695Z" fill="#3B080F"/>
<path d="M305.802 89.2796C305.798 89.2835 305.796 89.2862 305.792 89.2901C305.788 89.2927 305.784 89.2953 305.781 89.2979C305.788 89.2914 305.796 89.2862 305.802 89.2796Z" fill="#3B080F"/>
<path d="M305.784 89.289L305.773 89.2998L305.784 89.289Z" fill="#3B080F"/>
<path d="M305.768 89.3047C305.764 89.3086 305.763 89.3125 305.758 89.3164C305.762 89.3112 305.764 89.3073 305.768 89.3047Z" fill="#3B080F"/>
<path d="M344.568 107.191C344.568 107.196 344.568 107.207 344.562 107.212C344.568 107.202 344.568 107.196 344.568 107.191Z" fill="#3B080F"/>
<path d="M335.564 117.925C335.561 117.928 335.557 117.929 335.555 117.931C335.557 117.928 335.561 117.927 335.564 117.925Z" fill="#3B080F"/>
<path d="M315.207 129.779H315.202C315.252 129.753 315.299 129.723 315.35 129.692C315.345 129.697 315.34 129.697 315.334 129.702C315.36 129.692 315.385 129.68 315.41 129.67C315.321 129.711 315.236 129.763 315.156 129.824C315.176 129.809 315.191 129.794 315.207 129.779Z" fill="#3B080F"/>
<path d="M268.416 155.343C267.471 154.731 266.419 154.317 265.3 154.183C265.034 154.153 264.759 154.127 264.482 154.117C264.391 154.072 264.298 154.026 264.206 153.979C264.023 153.892 263.828 153.857 263.634 153.867C263.608 153.847 263.583 153.826 263.557 153.806C263.695 153.524 263.828 153.243 263.946 152.952C264.155 152.432 264.339 151.9 264.492 151.358C264.646 150.817 264.728 150.265 264.778 149.708C264.824 149.525 264.865 149.346 264.9 149.162C265.268 147.399 265.612 145.626 265.631 143.817C265.642 143.01 265.519 142.249 265.315 141.473C265.054 140.456 264.763 139.429 264.365 138.458C264.386 138.51 264.405 138.561 264.426 138.612C264.119 137.846 263.767 137.094 263.343 136.379C263.266 136.247 263.189 136.119 263.108 135.99C262.945 135.669 262.694 135.368 262.49 135.097C262.22 134.74 261.937 134.386 261.657 134.044C261.222 133.518 260.737 133.043 260.272 132.548C259.787 132.026 259.292 131.515 258.765 131.03C258.27 130.575 257.728 130.176 257.161 129.813C256.191 129.18 255.179 128.563 254.06 128.219C253.355 128.005 252.604 127.914 251.868 127.867C251.066 127.811 250.253 127.796 249.447 127.822C248.573 127.852 247.705 127.949 246.836 128.092C246.617 128.092 246.392 128.102 246.167 128.118C245.656 128.153 245.155 128.23 244.644 128.281C244.353 128.312 244.072 128.383 243.786 128.46C243.514 128.532 243.239 128.587 242.968 128.669C242.447 128.818 241.911 128.992 241.411 129.201C240.889 129.426 240.378 129.681 239.836 129.855C239.892 129.839 239.944 129.819 240 129.804C239.826 129.86 239.678 129.921 239.54 130.008C239.592 129.492 239.592 128.966 239.52 128.45C239.336 127.107 238.748 125.809 237.701 124.925C237.17 124.48 236.582 124.138 235.888 124.046C235.801 124.036 235.708 124.025 235.621 124.02C235.535 121.896 236.847 119.805 237.625 117.879C240.342 112.403 244.337 107.712 249.145 103.952C249.886 103.528 251.423 102.252 252.864 101.49C253.258 100.974 254.065 100.642 254.55 100.396C255.842 99.6553 257.136 99.0482 258.275 98.1693C261.421 95.8342 263.348 92.3043 264.105 88.5287C265.141 86.9191 267.609 88.5027 268.692 89.366C272.043 92.5488 268.196 96.6767 266.428 99.8036C267.762 99.5123 269.131 99.0534 270.27 98.649C276.539 95.8498 282.839 92.723 287.957 88.114C290.379 85.9232 291.994 83.358 294.043 81.0386C294.559 80.8033 295.156 80.9567 295.499 81.361H295.503C296.153 81.7186 296.801 82.3413 297.261 82.7301C302.135 77.3553 307.714 72.0572 310.039 65.0884C309.722 64.4904 309.952 63.7961 310.483 63.4385C310.494 63.4073 310.513 63.3826 310.534 63.3566C312.833 60.8175 317.442 68.2257 319.168 69.5739C322.203 72.7619 325.427 75.7665 328.554 78.8673C336.601 86.6643 345 94.0621 353.142 101.741C354.145 102.915 357.603 104.948 356.29 106.584C355.933 109.997 350.415 116.741 349.22 118.61C348.193 119.831 346.956 120.842 345.741 121.875C346.967 122.314 348.212 122.447 349.398 123.024C349.888 123.249 350.113 123.643 350.129 124.046C350.185 124.144 350.226 124.245 350.261 124.358C350.491 125.328 349.654 125.987 348.974 126.514C342.342 131.306 335.087 135.286 327.337 137.973C316.129 140.885 304.378 142.556 292.852 143.322C289.567 143.741 286.145 143.716 283.095 145.146C282.348 145.401 281.525 146.193 280.739 146.269C280.815 146.438 280.887 146.607 280.964 146.771C285.526 145.784 292.458 142.909 296.3 146.679C297.078 147.471 296.771 148.692 295.826 149.177C293.935 150.27 291.698 150.235 289.476 150.204C288.25 150.188 287.028 150.169 285.873 150.341C283.758 150.479 281.541 151.17 279.574 151.625C275.936 152.671 272.652 154.215 269.351 155.915C269.32 155.946 269.285 155.972 269.248 155.997C268.993 155.753 268.718 155.533 268.416 155.343ZM287.488 147.675C287.228 147.726 286.966 147.778 286.706 147.833C287.753 147.787 288.801 147.746 289.853 147.701C290.977 147.659 292.101 147.635 293.22 147.558C292.755 147.429 292.111 147.378 291.724 147.368H291.386C289.985 147.368 288.822 147.46 287.488 147.675ZM286.686 132.905C285.521 133.441 284.361 133.978 283.222 134.56C282.057 135.153 280.913 135.786 279.778 136.435C278.674 137.063 277.577 137.698 276.529 138.407C275.477 139.123 274.44 139.858 273.438 140.64C272.907 141.053 272.779 141.82 273.188 142.366C273.423 142.689 273.806 142.862 274.189 142.862C274.445 142.862 274.7 142.786 274.914 142.617C276.32 141.519 277.781 140.471 279.319 139.557C280.938 138.586 282.598 137.672 284.279 136.803C284.228 136.829 284.183 136.849 284.131 136.875C284.821 136.527 285.51 136.185 286.211 135.858C286.553 135.699 286.9 135.541 287.247 135.394C287.483 135.286 287.743 135.193 287.962 135.056C288.541 134.698 288.754 133.938 288.402 133.345C288.044 132.741 287.289 132.578 286.691 132.905C286.68 132.91 286.67 132.916 286.66 132.921C286.706 132.895 286.757 132.869 286.808 132.844C286.768 132.864 286.727 132.884 286.686 132.905ZM309.692 130.882C307.892 131.224 306.094 131.55 304.286 131.862C303.621 131.976 303.152 132.609 303.259 133.284C303.356 133.875 303.893 134.325 304.485 134.325C304.552 134.325 304.613 134.32 304.68 134.309C306.677 133.967 308.67 133.605 310.662 133.226C311.689 133.033 312.721 132.839 313.743 132.624C314.259 132.511 314.77 132.405 315.276 132.281C315.628 132.201 316.006 132.133 316.338 131.995C316.298 132.006 316.256 132.016 316.216 132.026C316.64 131.899 316.987 131.627 317.125 131.188C317.238 130.821 317.181 130.412 316.962 130.096C316.737 129.778 316.38 129.574 315.991 129.553C315.791 129.543 315.605 129.582 315.432 129.659C315.45 129.651 315.468 129.643 315.485 129.635C315.419 129.661 315.347 129.686 315.276 129.707C315.311 129.696 315.347 129.686 315.382 129.681C313.513 130.192 311.592 130.525 309.692 130.882ZM282.378 120.48C280.815 121.655 279.298 122.897 277.786 124.133C277.265 124.562 277.198 125.354 277.622 125.87C277.863 126.161 278.215 126.31 278.573 126.31C278.848 126.31 279.129 126.217 279.359 126.033C280.871 124.792 282.394 123.556 283.958 122.375C285.404 121.318 286.895 120.342 288.443 119.437C288.393 119.463 288.346 119.494 288.295 119.519C290.554 118.221 292.857 117.011 295.192 115.862C299.877 113.558 304.629 111.371 309.66 109.936C309.64 109.941 309.615 109.945 309.594 109.95C309.631 109.941 309.671 109.93 309.706 109.92C309.722 109.915 309.732 109.915 309.748 109.91C309.737 109.915 309.727 109.915 309.716 109.92C310.217 109.787 310.719 109.664 311.225 109.552C311.75 109.43 312.379 109.367 312.854 109.097C313.626 108.647 313.579 107.482 312.874 107.002C312.522 106.767 312.051 106.727 311.669 106.896C310.989 107.064 310.309 107.207 309.625 107.381C308.818 107.58 308.016 107.82 307.224 108.08C305.742 108.57 304.275 109.107 302.824 109.679C302.845 109.669 302.866 109.664 302.887 109.653C302.835 109.674 302.784 109.695 302.733 109.716C302.763 109.705 302.794 109.69 302.824 109.679C302.774 109.7 302.728 109.721 302.677 109.741C302.707 109.726 302.739 109.716 302.774 109.7C301.293 110.288 299.831 110.916 298.386 111.591C297.808 111.861 297.231 112.132 296.658 112.412C296.588 112.449 296.516 112.48 296.443 112.515C296.429 112.52 296.413 112.531 296.398 112.536C295.754 112.847 295.111 113.159 294.467 113.471C291.968 114.692 289.511 115.979 287.099 117.368C287.151 117.337 287.197 117.313 287.247 117.281C285.562 118.253 283.937 119.31 282.378 120.48ZM329.667 118.12C328.099 118.769 326.505 119.356 324.911 119.934C324.278 120.163 323.935 120.874 324.165 121.512C324.344 122.007 324.829 122.33 325.335 122.33C325.473 122.33 325.605 122.304 325.738 122.258C327.44 121.645 329.151 121.038 330.811 120.321C332.416 119.627 333.98 118.855 335.492 117.972C335.507 117.961 335.527 117.951 335.542 117.935H335.548C336.789 117.205 337.985 116.418 339.149 115.586C340.248 114.803 341.322 113.987 342.332 113.103C343.359 112.208 344.33 111.258 345.234 110.241C345.638 109.787 346.027 109.312 346.39 108.821C346.665 108.448 346.981 108.059 347.068 107.59C347.187 106.91 346.69 106.246 346.016 106.139C345.413 106.042 344.846 106.399 344.637 106.952C344.576 107.044 344.513 107.135 344.447 107.227C344.484 107.182 344.513 107.135 344.55 107.09C343.988 107.876 343.354 108.617 342.701 109.327C342.726 109.301 342.752 109.276 342.776 109.25C342.757 109.276 342.726 109.301 342.701 109.327C342.701 109.327 342.701 109.332 342.696 109.332C342.696 109.332 342.696 109.338 342.691 109.338C342.691 109.343 342.685 109.348 342.68 109.353L342.685 109.348C341.847 110.206 340.968 111.008 340.049 111.779C340.094 111.744 340.136 111.713 340.181 111.678C338.465 113.061 336.667 114.355 334.787 115.514C334.766 115.525 334.745 115.539 334.725 115.55C334.639 115.6 334.547 115.658 334.459 115.708C334.454 115.713 334.444 115.719 334.435 115.724C334.43 115.729 334.424 115.729 334.419 115.734C334.316 115.79 334.219 115.851 334.128 115.907C334.133 115.902 334.138 115.897 334.142 115.892C332.693 116.709 331.216 117.48 329.667 118.12ZM260.073 103.417C260.063 103.417 260.057 103.421 260.052 103.426C260.027 103.441 260.007 103.457 259.991 103.473C259.981 103.478 259.972 103.488 259.961 103.492C259.956 103.497 259.956 103.497 259.951 103.497C259.598 103.748 259.22 103.958 258.868 104.198C257.809 104.913 256.768 105.669 255.802 106.507C254.82 107.36 253.912 108.29 253.028 109.25C251.372 111.043 249.824 112.939 248.317 114.861C247.898 115.391 247.904 116.142 248.43 116.603C248.655 116.802 248.961 116.904 249.262 116.904C249.609 116.904 249.947 116.77 250.172 116.49C252.067 114.083 254.039 111.718 256.196 109.547C256.165 109.573 256.139 109.598 256.109 109.624C256.859 108.898 257.642 108.213 258.469 107.575V107.58C258.469 107.575 258.469 107.575 258.474 107.575C258.484 107.564 258.495 107.559 258.5 107.554C258.515 107.545 258.53 107.534 258.54 107.524C258.525 107.534 258.515 107.545 258.5 107.554C258.535 107.524 258.566 107.503 258.601 107.478C258.582 107.493 258.561 107.508 258.54 107.524C259.435 106.854 260.349 106.2 261.32 105.633C261.371 105.607 261.417 105.577 261.473 105.546C262.071 105.194 262.209 104.341 261.841 103.779C261.595 103.411 261.182 103.206 260.763 103.206C260.523 103.206 260.282 103.274 260.073 103.417ZM298.503 92.0482C296.929 93.2495 295.299 94.3833 293.654 95.4871C293.613 95.517 293.567 95.5482 293.522 95.5794C292.714 96.1151 291.902 96.6416 291.074 97.1526C290.507 97.5049 290.353 98.3019 290.711 98.8532C290.946 99.2159 291.34 99.4057 291.743 99.4057C291.973 99.4057 292.209 99.3446 292.418 99.2159C296.781 96.5142 300.939 93.4745 304.828 90.1279C304.786 90.163 304.746 90.1994 304.706 90.2345C305.048 89.9433 305.384 89.6468 305.722 89.3465C305.726 89.3465 305.726 89.3413 305.726 89.3413C305.737 89.3361 305.742 89.3257 305.752 89.3205C305.757 89.3153 305.763 89.3101 305.773 89.2997C305.768 89.3049 305.763 89.3101 305.752 89.3205H305.757C305.752 89.3205 305.752 89.3205 305.752 89.3257C305.789 89.2893 305.829 89.2542 305.869 89.2178C305.869 89.2178 305.874 89.2126 305.88 89.2126H305.874C307.474 87.8032 309.057 86.3783 310.442 84.7583C311.137 83.9457 311.776 83.0876 312.404 82.2191C312.936 81.4832 313.513 80.7526 313.931 79.94C314.243 79.3328 313.886 78.5462 313.288 78.2849C312.747 78.0405 312.001 78.2342 311.71 78.7802C311.469 79.2249 311.167 79.6383 310.876 80.0531C310.876 80.0479 310.881 80.0479 310.881 80.0427C310.876 80.0531 310.867 80.0635 310.862 80.0726C310.836 80.1038 310.815 80.135 310.796 80.1649C310.801 80.1545 310.81 80.1402 310.815 80.1298C309.859 81.4832 308.874 82.8172 307.745 84.038C307.786 83.9964 307.821 83.9561 307.862 83.9145C306.682 85.1769 305.39 86.3107 304.102 87.4665C303.764 87.7616 303.428 88.0581 303.091 88.3545C303.11 88.335 303.136 88.309 303.162 88.2882C301.64 89.5753 300.091 90.8378 298.503 92.0482Z" fill="#3B080F"/>
<path d="M268.42 155.338C268.26 155.234 268.097 155.136 267.93 155.044C267.716 154.036 268.99 153.465 269.805 153.039C272.901 151.588 276.16 150.495 279.39 149.371C278.694 148.813 278.868 147.587 279.711 147.261C280.661 147.129 281.632 147.205 282.593 146.944C285.929 146.424 289.229 145.662 292.565 145.172C294.067 145.156 295.989 144.748 297.154 145.897C297.874 147.118 297.408 149.085 296.28 149.917C295.293 150.266 294.226 150.163 293.163 150.066C292.489 150.004 291.814 149.943 291.165 149.994C287.217 149.718 283.385 150.69 279.726 151.844C276.856 152.866 273.902 153.888 271.143 155.128C270.601 155.42 269.918 155.92 269.285 156.025C269.021 155.768 268.732 155.537 268.42 155.338ZM293.444 147.582C293.603 147.587 293.765 147.598 293.924 147.603C294.252 147.624 294.583 147.65 294.911 147.654C294.911 147.65 294.916 147.645 294.916 147.639C294.92 147.624 294.925 147.608 294.93 147.593C294.864 147.582 294.792 147.577 294.721 147.573C294.56 147.565 294.396 147.561 294.233 147.561C293.971 147.561 293.706 147.571 293.444 147.582Z" fill="#3B080F"/>
<path d="M279.728 149.545C278.085 149.501 278.076 147.065 279.728 147.021C282.345 146.196 294.828 143.03 296.025 145.938C296.274 146.972 295.282 147.74 294.309 147.466C291.597 147.194 288.698 147.521 286.083 147.996C284.676 148.151 283.313 149.138 281.919 148.982C281.206 149.186 280.484 149.551 279.728 149.545Z" fill="#3B080F"/>
<path d="M265.299 154.176C264.783 154.115 264.237 154.085 263.716 154.105C263.61 154.111 263.504 154.118 263.398 154.128C263.592 153.742 263.782 153.355 263.946 152.95C264.084 152.607 264.21 152.259 264.324 151.906C264.554 151.728 264.813 151.588 265.1 151.505C266.107 151.224 267.134 152.399 266.637 153.339C266.684 153.4 266.729 153.461 266.766 153.528C267.282 153.906 267.435 154.356 267.359 154.759C266.71 154.462 266.02 154.263 265.299 154.176Z" fill="#3B080F"/>
</g>
<circle cx="288.75" cy="221.25" r="55" fill="#44845E" stroke="#3B080F" stroke-width="2.5"/>
<path d="M325.505 204.521C326.492 206.016 324.467 207.221 323.64 208.249C322.852 209.144 322.154 210.1 321.45 211.063C319.25 213.949 316.906 216.726 314.377 219.329C312.099 222.144 309.61 224.915 307.122 227.495C303.398 231.497 300.15 235.871 296.256 239.713C293.275 243.134 290.285 246.536 287.001 249.671C286.312 250.299 285.562 251.533 284.608 251.416C283.969 252.256 283.222 253.04 282.117 252.77C281.715 252.663 281.425 252.39 281.17 252.1C280.513 251.359 279.675 250.818 279.099 249.999C277.47 248.573 275.955 247.052 274.609 245.349C271.232 241.523 267.791 237.74 264.661 233.699C263.288 232.245 262.065 230.677 260.828 229.107C257.962 226.153 255.222 223.116 252.755 219.834C252.207 219.179 251.918 218.137 252.689 217.53C253.11 216.979 253.738 216.309 254.408 216.022C254.578 215.854 254.773 215.704 254.965 215.58C256.261 214.495 257.591 213.453 258.876 212.386C260.973 210.569 263.003 208.68 265.111 206.874C265.202 206.306 265.691 205.937 266.228 205.783C266.985 205.533 267.54 205.719 267.843 206.099C268.115 206.156 268.407 206.304 268.709 206.566C271.551 209.051 274.279 211.627 276.979 214.259C278.905 215.997 280.887 217.682 282.617 219.623C282.624 219.632 282.633 219.644 282.64 219.652C282.69 219.637 282.742 219.628 282.794 219.619C287.009 214.717 291.875 210.397 295.867 205.3C298.285 202.688 300.897 200.242 303.403 197.714C304.694 196.124 306.137 194.671 307.557 193.199C309.222 191.249 310.572 193.136 312.26 193.901C316.251 196.053 320.113 198.532 323.203 201.841C323.985 202.724 324.587 203.746 325.505 204.521Z" fill="white"/>
<defs>
<linearGradient id="paint0_linear_5305_1084" x1="48.1181" y1="184.396" x2="90.097" y2="216.424" gradientUnits="userSpaceOnUse">
<stop stop-color="#FFDADA"/>
<stop offset="1" stop-color="#FFB3B5"/>
</linearGradient>
<linearGradient id="paint1_linear_5305_1084" x1="114.356" y1="174.134" x2="141.098" y2="271.152" gradientUnits="userSpaceOnUse">
<stop stop-color="#FFDDB2"/>
<stop offset="1" stop-color="#E9FFED"/>
</linearGradient>
<linearGradient id="paint2_linear_5305_1084" x1="177.166" y1="262.135" x2="192.403" y2="238.814" gradientUnits="userSpaceOnUse">
<stop stop-color="#FFDADA"/>
<stop offset="1" stop-color="#FFB3B5"/>
</linearGradient>
<linearGradient id="paint3_linear_5305_1084" x1="137.671" y1="261.824" x2="154.463" y2="243.478" gradientUnits="userSpaceOnUse">
<stop stop-color="#FFDADA"/>
<stop offset="1" stop-color="#FFB3B5"/>
</linearGradient>
<linearGradient id="paint4_linear_5305_1084" x1="113.417" y1="269.598" x2="135.805" y2="247.209" gradientUnits="userSpaceOnUse">
<stop stop-color="#FFDADA"/>
<stop offset="1" stop-color="#FFB3B5"/>
</linearGradient>
<linearGradient id="paint5_linear_5305_1084" x1="79.8375" y1="273.019" x2="105.336" y2="254.673" gradientUnits="userSpaceOnUse">
<stop stop-color="#FFDADA"/>
<stop offset="1" stop-color="#FFB3B5"/>
</linearGradient>
<linearGradient id="paint6_linear_5305_1084" x1="114.352" y1="174.135" x2="141.094" y2="271.153" gradientUnits="userSpaceOnUse">
<stop stop-color="#FFDDB2"/>
<stop offset="1" stop-color="#E9FFED"/>
</linearGradient>
<linearGradient id="paint7_linear_5305_1084" x1="248.997" y1="143.661" x2="229.096" y2="161.075" gradientUnits="userSpaceOnUse">
<stop stop-color="#FFDADA"/>
<stop offset="1" stop-color="#FFB3B5"/>
</linearGradient>
</defs>
</svg>
