<svg width="14" height="14" viewBox="0 0 14 14" fill="none" xmlns="http://www.w3.org/2000/svg">
<path d="M7.16166 0C7.07285 0 6.98404 0.0161476 6.89523 0.0484429C6.80642 0.0807382 6.73376 0.129181 6.66917 0.193772C6.60459 0.258362 6.54807 0.331026 6.51578 0.419838C6.48348 0.500577 6.45926 0.597462 6.45926 0.686274V3.49596C6.45926 3.79469 6.70147 4.03691 7.00019 4.03691C7.29891 4.03691 7.54112 3.79469 7.54112 3.49596V1.09804C10.5606 1.37255 12.9262 3.90773 12.9262 7C12.9262 10.278 10.2781 12.9262 7.00826 12.9181C3.73038 12.9181 1.04995 10.2134 1.09032 6.93541C1.09032 6.48328 1.15491 6.03922 1.25986 5.60323C1.29216 5.46597 1.33253 5.32065 1.37289 5.18339C1.38097 5.1511 1.39711 5.11073 1.40519 5.07843C1.45363 4.94925 1.50207 4.812 1.55051 4.68281C1.56666 4.65052 1.71198 4.32757 1.77657 4.20646C1.80079 4.16609 1.81694 4.12572 1.84116 4.09343C1.90575 3.98039 1.97034 3.86736 2.043 3.75432C2.06722 3.71396 2.09952 3.67359 2.12374 3.63322C2.1964 3.52826 2.26906 3.4233 2.3498 3.32641C2.38209 3.28604 2.41439 3.24567 2.45476 3.20531C2.74541 2.85006 3.0845 2.53518 3.46396 2.2526L4.12599 2.9308C4.29554 3.10842 4.58619 2.97924 4.58619 2.73702V0.815456C4.58619 0.742791 4.55389 0.670127 4.50545 0.621684C4.45701 0.573241 4.38435 0.540946 4.31168 0.540946H2.43053C2.18833 0.540946 2.06722 0.839677 2.23677 1.0173L2.70504 1.49366C2.39017 1.74394 2.09144 2.01038 1.82502 2.30911C1.81694 2.31719 1.68776 2.46251 1.63125 2.5271C1.58281 2.58362 1.54244 2.63206 1.50207 2.68858C1.41326 2.80161 1.33253 2.91465 1.25179 3.03576C1.21142 3.09227 1.17913 3.14072 1.14683 3.19723C1.0661 3.31834 0.993434 3.44752 0.920772 3.5767C0.888478 3.63322 0.864257 3.68166 0.831962 3.73818C0.7593 3.87543 0.694711 4.00461 0.630123 4.14187C0.605902 4.19031 0.581681 4.24683 0.565534 4.29527C0.509019 4.4406 0.452503 4.58593 0.395988 4.73126C0.379841 4.7797 0.363694 4.82814 0.347547 4.87659C0.299105 5.02999 0.258737 5.18339 0.218369 5.33679C0.218369 5.36909 0.202222 5.39331 0.194148 5.41753C0.0730443 5.91003 0.000381935 6.41061 0.000381935 6.92734C-0.0399861 10.8028 3.12486 13.9919 7.00019 14C10.8755 14 14 10.8674 14 7C14 3.13264 10.9482 0.088812 7.16166 0Z" fill="white"/>
<path d="M3.77885 3.52814C3.71426 3.52814 3.65774 3.56044 3.6093 3.60888C3.56086 3.65732 3.53664 3.71384 3.52856 3.77843C3.52856 3.84302 3.53664 3.90761 3.57701 3.95605L6.23322 7.75882C6.30588 7.86378 6.40277 7.95259 6.50772 8.02526C6.74186 8.18673 7.04058 8.25132 7.32316 8.19481C7.60573 8.14636 7.85601 7.98489 8.01749 7.74267C8.17896 7.50853 8.24355 7.21788 8.20318 6.93529C8.15474 6.65271 8.00134 6.40242 7.7672 6.23287L3.96454 3.57658C3.90802 3.53622 3.85151 3.52007 3.78692 3.52814H3.77885Z" fill="white"/>
</svg>
