<svg width="16" height="16" viewBox="0 0 16 16" fill="none" xmlns="http://www.w3.org/2000/svg">
<path d="M8.18476 0C8.08326 0 7.98176 0.0184544 7.88027 0.0553633C7.77877 0.0922722 7.69573 0.147636 7.62191 0.221453C7.5481 0.295271 7.48351 0.378316 7.4466 0.479815C7.40969 0.572088 7.38201 0.682814 7.38201 0.784314V3.99539C7.38201 4.33679 7.65882 4.61361 8.00022 4.61361C8.34162 4.61361 8.61843 4.33679 8.61843 3.99539V1.2549C12.0693 1.56863 14.7728 4.46597 14.7728 8C14.7728 11.7463 11.7464 14.7728 8.00945 14.7636C4.2633 14.7636 1.19994 11.6724 1.24608 7.92618C1.24608 7.40946 1.31989 6.90196 1.43984 6.40369C1.47675 6.24683 1.52289 6.08074 1.56902 5.92388C1.57825 5.88697 1.5967 5.84083 1.60593 5.80392C1.66129 5.65629 1.71665 5.49942 1.77201 5.35179C1.79047 5.31488 1.95655 4.94579 2.03037 4.80738C2.05805 4.76125 2.0765 4.71511 2.10419 4.6782C2.178 4.54902 2.25182 4.41984 2.33486 4.29066C2.36254 4.24452 2.39945 4.19838 2.42713 4.15225C2.51017 4.03229 2.59321 3.91234 2.68548 3.80161C2.72239 3.75548 2.7593 3.70934 2.80543 3.66321C3.13761 3.25721 3.52514 2.89735 3.95881 2.57439L4.71542 3.34948C4.90918 3.55248 5.24135 3.40484 5.24135 3.12803V0.931949C5.24135 0.848904 5.20445 0.765859 5.14908 0.710496C5.09372 0.655133 5.01068 0.618224 4.92764 0.618224H2.77775C2.50095 0.618224 2.36254 0.959631 2.55631 1.16263L3.09147 1.70704C2.73162 1.99308 2.39022 2.29758 2.08573 2.63898C2.0765 2.64821 1.92887 2.8143 1.86428 2.88812C1.80892 2.95271 1.76279 3.00807 1.71665 3.07266C1.61516 3.20185 1.52289 3.33103 1.43062 3.46943C1.38448 3.53403 1.34757 3.58939 1.31067 3.65398C1.2184 3.79239 1.13535 3.94002 1.05231 4.08766C1.0154 4.15225 0.987722 4.20761 0.950814 4.2722C0.867772 4.42907 0.793956 4.5767 0.72014 4.73356C0.692459 4.78893 0.664778 4.85352 0.646324 4.90888C0.581735 5.07497 0.517147 5.24106 0.452558 5.40715C0.434104 5.46251 0.41565 5.51788 0.397196 5.57324C0.341834 5.74856 0.2957 5.92388 0.249565 6.09919C0.249565 6.1361 0.231111 6.16378 0.221884 6.19146C0.0834792 6.75433 0.000436497 7.32641 0.000436497 7.91695C-0.0456983 12.346 3.57127 15.9908 8.00022 16C12.4292 16 16 12.4198 16 8C16 3.58016 12.5122 0.101499 8.18476 0Z" fill="white"/>
<path d="M4.31875 4.03209C4.24494 4.03209 4.18035 4.069 4.12498 4.12436C4.06962 4.17973 4.04194 4.24432 4.03271 4.31814C4.03271 4.39195 4.04194 4.46577 4.08808 4.52113L7.12375 8.86716C7.20679 8.98711 7.31752 9.08861 7.43747 9.17165C7.70505 9.3562 8.04645 9.43002 8.36939 9.36542C8.69233 9.31006 8.97837 9.12552 9.16291 8.8487C9.34745 8.58111 9.42126 8.24893 9.37513 7.92598C9.31977 7.60303 9.14446 7.31698 8.87687 7.12321L4.53097 4.08746C4.46638 4.04132 4.40179 4.02286 4.32798 4.03209H4.31875Z" fill="white"/>
</svg>
