<svg xmlns="http://www.w3.org/2000/svg" width="369" height="237" viewBox="0 0 369 237" fill="none">
<g id="appearance">
<g id="appearance_2">
<g id="Clip path group">
<mask id="mask0_2429_7" style="mask-type:luminance" maskUnits="userSpaceOnUse" x="0" y="0" width="369" height="237">
<g id="_clip1">
<path id="vec1" d="M368.437 0H0V237H368.437V0Z" fill="white"/>
</g>
</mask>
<g mask="url(#mask0_2429_7)">
<g id="Group">
<g id="FL">
<g id="Group_2">
<g id="Group_3">
<path id="vec2" d="M112.509 79.7778C118.024 79.7778 121.774 75.7861 117.677 69.7048C112.048 62.2705 101.59 56.4478 92.8425 53.4894C88.3252 52.0474 81.5406 50.051 77.3791 53.1098C74.9669 55.5137 76.2558 59.3007 78.3453 61.4657C81.8923 65.4668 86.1395 68.8845 90.7778 71.5315C90.6568 72.0684 91.0085 72.5815 91.5257 72.719C92.3987 73.0345 93.2263 73.4793 94.0631 73.8786C98.7583 76.3353 103.744 78.3152 108.977 79.2689C110.194 79.6123 111.389 79.7778 112.509 79.7778ZM230.969 203.438C236.545 200.324 240.816 193.98 235.571 188.432C231.66 184.379 225.736 183.748 220.422 183.167C217.751 182.605 215.093 181.978 212.386 181.603C208.766 180.984 205.072 180.297 201.815 178.523C194.417 174.301 187.378 168.56 178.565 167.876C172.662 167.278 165.893 166.854 160.799 170.406C157.946 172.931 156.132 176.819 156.778 180.657C157.397 183.733 158.116 186.993 160.297 189.381C162.427 191.576 164.689 193.664 167.05 195.612C168.116 196.263 169.393 198.012 170.718 197.668C175.745 201.276 182.218 201.572 188.065 202.954C196.866 204.231 205.726 205.248 214.616 205.649C220.108 205.5 225.878 205.835 230.969 203.438ZM261.972 173.562C262.445 168.014 260.077 162.405 257.447 157.61C251.734 145.435 243.482 134.671 233.708 125.474C226.499 118.718 217.041 113.756 207.108 112.944C202.697 112.718 197.436 113.15 194.445 116.766C190.53 117.732 190.312 122.726 191.406 125.91C192.239 131.353 196.675 134.945 200.756 138.154C204.126 141.087 208.143 143.023 212.009 145.18C217.307 148.324 221.99 152.457 225.473 157.585C227.922 161.048 229.931 164.858 232.69 168.128C235.587 171.481 238.893 174.523 242.581 176.984C245.366 178.767 248.198 180.685 251.617 180.791C256.651 181.805 260.861 178.358 261.972 173.562ZM278.075 180.039C278.915 185.607 277.509 191.381 275.343 196.566C269.024 211.395 255.108 215.891 240.294 217.888C228.358 218.736 216.503 220.648 204.51 220.514C191.334 220.51 178.456 217.476 165.656 214.651C151.674 211.168 138.547 205.346 125.087 200.254C111.693 195.43 98.5079 190.012 86.1075 182.928C77.4515 178.169 69.379 172.455 61.2206 166.915C56.2389 163.946 51.6689 160.459 47.1103 156.834C41.3807 152.979 35.918 148.909 30.4025 144.676C28.221 143.354 26.3373 141.71 24.495 140.008C24.4754 139.62 24.2002 139.256 23.5734 139.131C23.533 139.103 23.4968 139.071 23.4606 139.039C23.0406 138.647 22.6238 138.255 22.1997 137.867C22.1035 137.794 21.9979 137.738 21.8893 137.702C21.8893 137.697 21.8852 137.697 21.8811 137.697C18.6972 134.768 16.1877 131.099 13.8282 127.502C7.5121 117.26 4.04166 101.169 15.6581 93.2986C18.782 91.327 22.3859 90.935 26.0063 90.4653C30.3094 89.884 34.536 89.1403 38.8195 88.4048C43.5633 87.9321 48.1654 86.4415 52.1654 83.8193C55.8221 81.5115 59.8707 78.8572 61.0386 74.4289C64.0332 61.9022 40.217 48.6691 43.345 33.7436C44.816 29.8842 48.5936 27.5206 52.6506 26.1872C53.0064 26.5027 53.5753 26.4944 54.0036 26.2472C61.0386 25.0835 68.086 25.5562 75.2017 26.3724C84.8827 27.5526 94.5565 28.9708 103.999 31.4524C111.41 33.6215 118.776 36.1186 125.847 39.2187C131.306 41.4572 136.991 43.0812 141.961 46.3623C144.943 48.0143 147.965 49.1459 151 50.7865C155.316 53.3001 159.441 56.1447 163.849 58.5166C165.562 59.43 167.252 60.3754 168.92 61.353C168.686 61.4823 168.447 61.6157 168.205 61.7491C168.132 61.7326 168.055 61.7243 167.975 61.7243C167.571 61.7243 167.227 62.0119 167.094 62.3791C166.957 62.4598 166.819 62.5446 166.682 62.6336C166.488 62.6139 166.274 62.6584 166.06 62.7949C165.441 63.2118 164.863 63.6804 164.246 64.0848C164.217 64.0807 164.185 64.0807 164.157 64.0807C163.648 64.0807 163.239 64.541 163.215 65.0262C162.495 64.8203 161.768 64.6538 161.033 64.5203C161.005 64.4924 160.973 64.4645 160.94 64.4396C160.931 64.4355 160.924 64.4355 160.916 64.4355C159.521 64.3352 158.135 64.1045 156.75 63.9348C156.835 63.9876 156.92 64.0404 157.005 64.0921C152.681 63.9348 148.257 64.6703 144.143 65.6561C138.03 66.9936 132.057 68.9941 126.808 72.4491C121.01 75.6774 116.67 80.9788 112.706 86.1912C109.325 90.2957 106.419 94.7085 103.962 99.3716C101.106 98.903 98.8555 101.028 97.4611 103.319C97.0287 103.658 96.7619 104.236 97.0536 104.741C95.9054 107.509 94.5886 110.237 93.8614 113.158C92.617 118.347 92.7049 123.737 92.4143 129.038C92.4836 129.895 92.4391 130.824 92.346 131.79C91.0726 130.461 88.9035 129.293 87.836 128.566C76.474 122.173 63.2646 115.967 49.9715 119.215C47.5023 119.854 46.501 122.706 46.3024 125.005C46.0117 131.842 51.883 137.006 56.6951 141.051C66.7361 148.603 78.7735 152.894 88.4101 161.093C93.5014 165.416 98.7707 169.517 103.748 173.966C110.508 179.328 117.846 184.941 126.546 186.427C129.859 186.872 133.184 185.264 135.516 183.001C140.28 176.588 134.587 166.797 131.079 160.915C125.415 152.947 117.967 146.049 109.204 141.636C106.9 139.996 104.225 139.067 101.749 137.753C102.137 136.848 102.533 136.017 102.989 135.374C105.187 132.485 107.987 130.08 110.577 127.551C111.366 126.925 112.222 126.33 112.998 125.668C113.607 125.688 114.166 125.009 114.501 124.496C115.127 123.708 115.487 122.771 115.58 121.798C115.733 121.203 115.725 120.666 115.592 120.181C117.617 119.341 119.688 118.637 121.738 118.048C126.219 116.884 130.801 116.088 135.431 115.833C140.122 115.454 144.842 115.736 149.489 114.9C153.679 114.674 157.703 113.478 161.323 111.505C161.393 111.453 161.465 111.405 161.53 111.356C161.688 111.242 161.849 111.134 162.01 111.024C162.322 110.822 162.641 110.625 162.957 110.43C163.566 110.059 164.176 109.699 164.778 109.324C164.932 109.231 165.086 109.133 165.236 109.037C165.215 109.029 165.191 109.021 165.166 109.012C166.823 107.748 168.35 106.305 169.724 104.713C170.092 104.342 170.448 103.957 170.791 103.569C170.86 103.626 170.94 103.679 171.029 103.715C173.999 104.62 176.928 105.881 180.016 106.503C182.081 106.939 184.173 106.39 186.157 105.816C187.56 105.408 189.047 104.94 190.037 103.8C193.37 99.9126 192.934 93.8479 190.63 89.5406C187.427 84.5589 182.064 81.5239 177.689 77.6852C177.592 77.6128 177.498 77.5239 177.409 77.4225C177.365 77.2932 177.316 77.1639 177.269 77.0387C177.434 77.0263 177.612 76.9942 177.81 76.9415C177.874 76.8484 177.959 76.7677 178.06 76.7036C178.299 76.5453 178.565 76.5132 178.816 76.5701C181.03 75.5843 184.202 73.2931 186.089 72.0084C189.604 74.1776 193.031 76.4729 196.219 79.1437C208.018 88.8734 220.115 98.3651 230.864 109.267V109.324C230.872 109.849 231.3 110.265 231.817 110.29C231.87 110.551 232.04 110.807 232.362 110.996C232.5 111.113 232.638 111.187 232.771 111.231C232.928 111.388 233.081 111.55 233.231 111.712C233.316 112.653 234.851 113.328 235.377 114.108C242.634 120.803 249.172 128.263 255.471 135.858C257.277 137.98 258.998 140.166 260.643 142.404C260.95 142.643 261.188 143.01 261.391 143.302C261.427 143.349 261.463 143.398 261.495 143.447C261.451 143.459 261.407 143.472 261.358 143.479H261.354C261.734 144.008 262.13 144.521 262.498 145.055C263.047 145.859 263.56 146.688 264.069 147.516C264.49 148.199 264.889 148.89 265.286 149.589C266.401 151.27 267.464 152.987 268.474 154.74C269.137 155.844 269.856 156.923 270.576 158.002C271.71 160.033 272.806 162.087 273.868 164.156C273.945 164.321 274.046 164.45 274.159 164.543C274.159 164.705 274.192 164.866 274.26 165.02C274.818 166.106 275.286 167.214 275.674 168.342C275.965 169.311 276.232 170.293 276.507 171.251C276.531 171.331 276.555 171.408 276.604 171.481C277.283 174.269 277.671 177.138 278.075 180.039Z" fill="url(#paint0_linear_2429_7)"/>
</g>
<g id="Group_4">
<path id="vec3" d="M205.201 134.618C206.168 135.43 207.416 133.898 206.438 133.111C204.292 131.345 202.376 129.491 200.813 127.106C199.847 125.364 198.991 123.651 198.429 121.684C197.852 120.593 196.299 121.356 196.579 122.383V122.391C196.583 122.411 196.587 122.428 196.599 122.443C196.599 122.447 196.599 122.452 196.602 122.456C196.606 122.48 196.615 122.504 196.623 122.528C198.033 127.405 201.233 131.515 205.201 134.618ZM253.189 153.637C256.251 159.601 260.223 165.877 260.093 172.855C259.508 175.671 257.451 178.572 254.368 178.924C249.281 179.457 245.022 176.471 241.127 173.538C237.919 170.931 234.904 168.054 232.492 164.684C230.051 161.25 227.914 157.27 225.142 153.944C221.76 149.395 217.158 146.008 212.341 143.112C207.582 140.744 203.116 137.875 199.141 134.299C195.888 131.778 193.588 128.367 193.023 124.245C192.437 122.007 192.841 119.357 195.213 118.427C196.033 118.297 196.413 117.421 196.979 116.912C200.345 114.738 204.656 114.592 208.547 115.058C219.303 116.423 228.929 122.803 236.193 130.646C242.747 137.588 248.852 145.079 253.189 153.637Z" fill="url(#paint1_linear_2429_7)"/>
</g>
<g id="Group_5">
<path id="vec4" d="M189.827 92.5671C190.8 95.7427 190.889 99.7635 188.635 102.451C186.808 104.039 183.782 104.539 181.337 104.709C178.391 104.293 175.576 103.234 172.706 102.14C172.545 102.055 172.367 101.974 172.178 101.913C174.452 98.9877 176.193 95.7107 177.284 92.3323C177.325 92.3447 177.361 92.3571 177.397 92.3685C177.462 92.1306 177.522 91.8958 177.579 91.6579C177.685 91.2493 177.778 90.8458 177.866 90.4373C177.854 90.4331 177.842 90.4331 177.825 90.429C178.327 88.4015 178.594 86.3524 178.59 84.3446C178.569 83.576 178.521 82.8085 178.44 82.0492C178.387 81.621 178.331 81.1886 178.266 80.7604C182.594 84.3001 187.811 87.1768 189.827 92.5671Z" style="fill: var(--secondary-fixed-dim);"/>
</g>
<g id="Group_6">
<path id="vec5" d="M97.3563 134.909C97.2549 133.317 99.4892 128.064 97.4132 127.7C96.7056 127.583 96.0871 128.342 96.3384 129.005C96.2815 129.696 96.1398 130.379 96.0146 131.055C95.6071 133.022 95.3237 135.006 95.1985 137.006C95.1457 137.539 95.4933 138.04 96.0353 138.113C97.6759 138.162 97.0739 135.968 97.3563 134.909ZM111.478 118.908C112.811 119.494 113.754 119.894 113.644 121.474C113.616 121.502 113.591 121.531 113.568 121.559C113.114 123.183 111.584 124.346 110.25 125.304C107.054 128.032 103.914 130.973 101.328 134.294C100.601 135.261 100.124 136.452 99.6599 137.652C99.5906 137.762 99.542 137.883 99.5182 138.004V138.012C98.7703 139.939 97.9821 141.831 96.1605 142.813C94.0627 142.259 93.4969 139.81 93.7555 137.899C94.0586 134.663 94.3741 131.409 94.4392 128.153C94.7465 122.585 94.613 116.953 96.3901 111.582C97.3759 109.206 98.189 106.664 99.514 104.442C99.6558 104.22 99.6837 103.957 99.6196 103.715C100.25 102.369 101.587 101.505 102.965 101.331C102.961 101.339 102.957 101.352 102.952 101.36C102.965 101.36 102.977 101.356 102.993 101.356C103.179 101.327 103.368 101.356 103.535 101.428C103.753 101.388 103.979 101.367 104.197 101.367C104.262 101.367 104.322 101.367 104.387 101.371C104.436 101.375 104.484 101.38 104.529 101.392C104.54 101.392 104.553 101.396 104.561 101.396C104.605 101.408 104.65 101.42 104.69 101.436C104.703 101.441 104.714 101.449 104.726 101.452C104.763 101.468 104.803 101.489 104.839 101.513C104.884 101.541 104.924 101.574 104.964 101.606C104.981 101.618 104.993 101.63 105.005 101.642C105.005 101.638 105.009 101.634 105.013 101.63C105.559 101.884 106.047 102.293 106.416 102.874C106.621 104.548 105.328 106.034 104.791 107.558C103.959 109.464 103.304 111.501 103.134 113.578C103.037 116.318 105.814 117.873 108.241 118.043C109.155 118.343 110.327 118.549 111.382 118.932C111.414 118.924 111.446 118.916 111.478 118.908Z" fill="url(#paint2_linear_2429_7)"/>
</g>
<g id="Group_7">
<path id="vec6" d="M67.5968 140.299C68.4006 138.877 65.2456 137.83 64.4129 136.836C60.8204 133.502 56.4811 130.655 54.6057 125.898C54.4288 125.095 53.6116 124.254 52.7914 124.852C51.7942 125.68 52.9858 126.84 53.2641 127.769C54.5333 130.396 56.5338 132.533 58.732 134.416C61.1401 136.598 63.512 138.837 66.2397 140.626C66.6793 140.934 67.33 140.74 67.5968 140.299ZM127.306 159.064C131.499 164.713 135.609 171.472 135.282 178.746C135.156 181.708 132.308 183.304 129.823 184.241C121.725 185.951 109.668 176.341 103.651 171.287C98.6249 166.927 93.4529 162.737 88.3016 158.518C76.3252 148.425 59.4105 144.639 50.1329 131.406C48.2255 128.48 47.1756 124.209 49.7936 121.381C55.1353 119.461 61.1887 120.423 66.6555 121.417C70.6556 122.452 74.5222 123.846 78.1871 125.814C82.7085 128.145 87.655 129.964 91.3313 133.684C91.352 134.157 91.6665 134.46 92.043 134.566C92.014 134.966 91.9665 135.365 91.9054 135.766C91.8692 136.012 91.833 136.259 91.7927 136.505C91.4968 139.903 91.8123 143.083 95.2993 144.643C95.5383 144.683 95.7638 144.7 95.9862 144.7C97.9826 144.7 99.2146 143.204 100.177 141.334C100.189 141.342 100.201 141.349 100.217 141.358C100.375 140.99 100.545 140.622 100.714 140.259C100.823 140.02 100.933 139.786 101.041 139.547C105.696 141.907 110.404 144.247 114.779 147.14C119.398 150.615 123.608 154.623 127.306 159.064Z" fill="url(#paint3_linear_2429_7)"/>
</g>
<g id="Group_8">
<path id="vec7" d="M174.02 190.722C175.183 191.239 175.967 189.482 174.819 188.941C172.424 187.696 169.838 186.787 167.858 184.843C166.588 183.578 165.51 182.338 164.524 180.778C164.068 180.019 163.627 178.798 162.512 179.078C161.583 179.284 161.469 180.625 162.355 180.973C164.819 185.7 169.199 188.735 174.02 190.722ZM234.335 189.954C238.432 194.569 234.206 199.329 229.954 201.769C225.744 203.689 221.085 203.491 216.568 203.693C203.363 203.297 190.081 201.814 177.252 198.594C174.723 197.919 172.476 196.593 170.407 195.014C170.084 194.791 169.664 194.775 169.341 194.957C166.444 192.569 163.485 190.141 161.098 187.243C158.705 183.271 157.348 177.522 160.524 173.598C163.3 169.728 168.553 169.517 172.949 169.412C179.616 169.48 186.25 171.004 191.839 174.758C195.269 176.71 198.474 179.049 202.029 180.81C205.084 182.249 208.43 182.896 211.735 183.466C214.984 183.866 218.135 184.816 221.368 185.259C225.946 185.721 231.018 186.44 234.335 189.954Z" fill="url(#paint4_linear_2429_7)"/>
</g>
<g id="Group_9">
<path id="vec8" d="M181.871 65.7612C182.695 67.0139 183.357 68.3514 183.272 69.8865C183.285 70.1368 183.41 70.3592 183.588 70.5174C183.337 70.7916 183.191 71.2084 183.176 71.6119C183.075 71.677 182.977 71.7453 182.881 71.8146C181.43 72.8045 179.996 73.8307 178.363 74.5051C177.866 74.7678 177.042 75.0544 176.593 75.5033C174.687 71.6605 171.349 68.3669 166.318 66.1771C166.003 66.0281 165.68 65.8905 165.36 65.7654C165.547 65.6361 165.732 65.4944 165.914 65.3454H165.918C165.986 65.3247 166.055 65.3009 166.12 65.2637C166.895 64.8241 167.643 64.3389 168.415 63.8786C168.678 63.7328 168.945 63.5869 169.211 63.4462C170.662 62.6497 172.08 61.8015 173.483 60.9285C173.983 61.2523 174.771 61.1633 175.001 60.4558C178.201 60.7754 180.395 63.0211 181.871 65.7612Z" fill="white"/>
</g>
<g id="Group_10">
<path id="vec9" d="M273.622 12.3515C273.986 13.5152 274.381 14.711 274.374 15.9481C274.325 17.4956 273.525 18.7803 272.628 20.0568C270.324 22.8166 267.536 25.0147 264.562 27.0111C257.653 32.5711 249.854 36.9032 242.214 41.3635C237.874 43.6827 233.664 46.2046 229.244 48.3665C228.852 48.5403 228.576 48.8837 228.54 49.3078C223.199 48.714 217.836 48.3344 212.454 48.2455C210.284 48.201 208.131 48.4958 205.977 48.7223C202.761 49.1102 199.286 49.1061 196.563 51.0818C192.841 53.3885 190.538 57.9627 190.841 62.3227C191.007 63.5795 191.378 64.7556 191.916 65.85C191.524 65.9225 191.156 66.2545 190.816 66.5534C189.269 67.6437 187.669 68.6585 186.081 69.6887C186.073 69.6846 186.061 69.6763 186.053 69.6722C186.036 69.697 186.024 69.7167 186.004 69.7374C185.681 69.9473 185.358 70.1573 185.034 70.3673C185.163 70.1853 185.237 69.9556 185.22 69.7125C185.285 66.5897 183.111 64.0078 181.349 61.6152C180.731 60.7101 178.707 59.385 176.816 58.7995C178.081 57.971 179.341 57.1383 180.606 56.318C181.547 55.7035 182.488 55.0819 183.406 54.4354C184.355 53.7651 185.285 53.073 186.227 52.3986C187.083 51.7842 187.96 51.1863 188.864 50.6494C189.382 50.3463 189.899 50.0391 190.42 49.7402C190.445 49.7278 190.469 49.7112 190.49 49.6998C190.659 49.7112 190.841 49.6709 191.019 49.5581C195.023 47.4686 198.191 44.3623 202.114 42.1238C208.094 38.7248 214.147 35.4891 220.314 32.4263C224.758 29.8402 229.215 27.2615 233.676 24.692C234.294 24.874 234.743 24.482 234.876 24.001C238.528 21.896 242.185 19.7951 245.839 17.6932C251.988 14.5703 257.944 10.7471 264.797 9.34137C267.844 9.34137 271.618 9.83065 273.622 12.3515Z" fill="url(#paint5_linear_2429_7)"/>
</g>
<g id="Group_11">
<path id="vec10" d="M341.586 65.5588C342.208 68.7593 343.089 72.1294 341.957 75.3412C339.307 83.0796 330.587 89.9605 323.104 92.8496C311.855 96.5797 299.587 96.3252 287.974 94.5874C279.424 92.9023 271.011 90.4094 262.793 87.4883C259.471 86.5707 256.684 84.3033 253.297 83.6496C243.046 82.0814 232.706 80.5505 222.588 78.2148C223.288 76.7677 223.473 74.3068 223.441 73.4182C222.835 67.3897 215.166 63.9793 209.845 63.1993C207.566 62.8073 205.226 62.1897 202.903 62.1897C201.969 62.1897 201.044 62.2901 200.126 62.5404C197.14 63.5272 195.71 65.8702 195.92 68.1779C191.968 64.1168 191.573 58.1204 196.438 53.6145C199.177 51.1298 202.918 51.013 206.405 50.6654C208.753 50.3944 211.097 50.1234 213.465 50.2372C227.708 50.6447 241.874 52.6173 255.689 56.1643C255.815 56.1726 255.961 56.1974 256.126 56.2378C256.474 56.5522 257.076 56.5884 257.629 56.6577C258.174 56.815 258.74 56.9525 259.225 56.9763C262.057 57.5546 264.951 58.379 267.783 59.0213C269.072 59.1827 269.355 57.2473 268.07 57.0456C264.809 56.2864 261.576 55.3285 258.271 54.7544C258.259 54.7544 258.252 54.7544 258.239 54.7503C255.067 54.0231 251.887 53.1904 248.687 52.488C248.586 52.3215 248.428 52.1891 248.207 52.1074C244.339 50.8268 240.331 49.3641 236.481 47.9221C236.121 47.8042 235.66 47.5704 235.207 47.4163C235.902 47.017 236.606 46.6291 237.337 46.2816C244.44 42.475 251.446 38.4542 258.17 34.0052C258.364 34.1107 258.607 34.1511 258.825 34.1066C259.456 34.2638 260.077 34.4376 260.707 34.6238C260.918 34.8224 261.217 34.9186 261.508 34.8824C267.812 36.9833 273.961 40.1713 280.208 42.5639C280.693 42.7739 281.283 42.5029 281.469 42.0146C281.671 41.5088 281.404 40.9637 280.92 40.7537C279.618 40.1879 278.301 39.6665 276.984 39.1328C273.711 37.7312 270.438 36.3326 267.172 34.9186C265.573 34.3611 263.956 33.3629 262.267 33.0484C261.661 32.8539 261.048 32.6605 260.433 32.4867C263.989 30.0538 267.464 27.4926 270.818 24.7649C271.06 24.5187 271.31 24.2714 271.569 24.0252C271.691 24.0821 271.82 24.1101 271.958 24.1101C272.297 24.227 272.611 24.3521 272.935 24.498C273.056 24.7928 273.307 25.039 273.63 25.0876C278.754 27.2412 283.926 29.1445 289.049 31.3344C290.213 31.8557 291.029 30.0983 289.874 29.5573C285.081 27.4398 280.144 25.7465 275.335 23.6291C275.246 23.4594 275.093 23.3063 274.875 23.2008C274.413 23.056 273.775 22.6753 273.145 22.4054C274.559 20.861 275.78 19.1604 276.232 17.0916C276.668 13.9315 275.65 10.0773 272.378 8.88876C266.002 5.499 259.681 8.51326 253.758 11.2969C252.385 12.0085 251.011 12.7274 249.644 13.4588C249.636 13.0916 249.434 12.7233 248.974 12.5743C244.593 11.1117 239.802 9.31286 234.985 8.24638C236.945 6.60995 239.317 5.62003 241.725 4.74284C247.471 1.93857 254.081 1.66859 260.417 2.16511C268.289 3.65258 276.111 6.25826 283.231 9.96351C283.481 10.0969 283.78 10.0845 284.03 9.97178C288.063 12.0365 291.926 14.429 295.821 16.7482C311.305 26.8171 326.667 38.479 336.293 54.5682C338.717 57.9342 340.778 61.4098 341.586 65.5588Z" fill="url(#paint6_linear_2429_7)"/>
</g>
<g id="Group_12">
<path id="vec11" d="M270.587 128.767C270.704 127.91 270.006 127.078 269.226 126.779C267.06 126.424 267.541 129.745 268.898 130.42C269.048 130.484 269.189 130.517 269.322 130.517C270.11 130.517 270.676 129.531 270.587 128.767ZM273.258 131.855C274.244 131.855 275.178 130.541 274.757 129.32C273.743 126.925 270.712 128.824 272.05 130.99C272.393 131.607 272.83 131.855 273.258 131.855ZM281.752 138.521C280.908 138.719 279.965 138.78 278.919 138.663C273.961 139.091 269.137 135.855 267.278 131.28C266.514 128.533 267.024 125.559 268.199 122.896C270.434 124.533 274.256 125.583 276.026 125.846C276.365 125.869 276.709 125.878 277.048 125.878C277.699 125.878 278.349 125.842 278.996 125.785C278.632 128.633 278.733 131.677 279.825 134.347C280.431 135.757 281.178 137.099 281.752 138.521Z" style="fill: var(--primary-fixed);"/>
</g>
<g id="Group_13">
<path id="vec12" d="M292.601 113.521C292.923 114.136 293.372 114.766 293.955 115.416C293.094 116.063 292.192 116.661 291.174 117.11C291.098 116.989 291.013 116.868 290.924 116.746C290.572 116.346 290.205 115.954 289.817 115.579C290.729 114.875 291.676 114.208 292.601 113.521Z" style="fill: var(--secondary-fixed);"/>
</g>
<g id="Group_14">
<path id="vec13" d="M221.417 72.8364C221.425 74.4687 221.55 76.311 220.511 77.6929C220.503 77.7012 220.499 77.7095 220.495 77.7178C213.686 76.0607 206.988 74.0125 200.49 71.3055C200.397 71.1234 200.247 70.9579 200.033 70.84C198.215 69.9752 197.051 67.6768 198.514 65.9669C199.613 64.5777 201.161 64.1608 202.818 64.1608C204.628 64.1608 206.563 64.6542 208.192 64.9128C211.602 65.4745 215.109 66.242 217.885 68.4805C219.42 69.5718 220.855 70.9858 221.417 72.8364Z" style="fill: var(--primary-fixed-dim);"/>
</g>
<g id="Group_15">
<path id="vec14" d="M229.433 23.0954C230.023 23.3509 230.633 23.5929 231.243 23.8236C227.381 26.0776 223.526 28.3409 219.659 30.5793C212.73 34.0943 205.795 37.6185 199.145 41.6382C196.353 43.5736 194.138 45.4365 191.302 47.1495C191.196 47.1299 191.088 47.1299 190.978 47.1454C190.711 47.1899 190.501 47.3678 190.276 47.5095C190.061 47.6429 189.843 47.7764 189.625 47.9057C189.241 48.1353 188.849 48.3536 188.461 48.5842C187.552 49.1263 186.663 49.6911 185.786 50.2858C184.954 50.8475 184.15 51.4537 183.337 52.0474C182.569 52.6133 181.785 53.1584 180.99 53.688C180.008 54.3459 179.018 54.9965 178.028 55.6472C177.794 55.6193 177.547 55.6834 177.325 55.8696C173.223 56.6495 168.702 56.6371 165.037 54.3987C161.021 51.6233 158.309 48.0712 161.712 43.5291C162.237 42.7254 162.811 41.9661 163.421 41.2389C163.174 42.7254 163.765 44.3173 165.102 45.1252C170.08 49.2587 188.894 36.4258 185.608 30.3569C184.707 28.975 183.143 28.5953 181.564 28.5912C189.273 24.5063 197.54 21.3224 206.26 20.4649C206.333 20.5342 206.418 20.5983 206.519 20.6552C207.048 20.8859 207.408 20.6873 207.698 20.3439C213.468 19.6891 219.316 20.1628 224.851 21.9606C226.379 22.3279 227.894 22.7561 229.433 23.0954Z" fill="url(#paint7_linear_2429_7)"/>
</g>
<g id="Group_16">
<path id="vec15" d="M248.036 14.3199C243.135 16.9701 238.294 19.7299 233.474 22.53C232.496 22.1866 231.53 21.8432 230.568 21.4108C230.165 21.205 229.648 20.9464 229.19 20.9464C229.097 20.9464 229.005 20.9588 228.92 20.9826C228.896 20.9743 228.876 20.9701 228.855 20.966C225.599 20.2305 222.443 19.0751 219.141 18.5703C215.986 18.0655 212.818 18.0572 209.646 18.2145C213.307 14.8971 217.42 11.5477 222.104 9.93094C230.848 7.59938 239.761 11.7091 248.036 14.3199Z" fill="url(#paint8_linear_2429_7)"/>
</g>
<g id="Group_17">
<path id="vec16" d="M183.943 31.4723C184.367 33.1812 182.687 35.0038 181.64 36.2244C178.517 39.5573 174.481 42.0057 170.233 43.639C167.077 44.81 163.885 43.2873 166.043 39.7269C167.38 39.9659 167.583 38.4184 166.859 37.776C167.287 37.4078 167.724 37.0478 168.173 36.7013C169.046 37.0685 170.036 35.8437 170.783 35.4041C172.23 34.3128 173.697 33.2505 175.215 32.2637C177.156 31.133 182.262 29.4635 183.943 31.4723Z" style="fill: var(--primary-fixed-dim);"/>
</g>
<g id="Group_18">
<path id="vec17" d="M172.145 63.3014C171.023 62.0566 173.005 61.3619 173.808 60.7513C174.556 60.3059 175.504 59.3255 176.368 59.9515C177.292 60.8768 176.43 61.6072 175.513 61.9897C174.478 62.4226 173.243 64.4228 172.145 63.3014Z" fill="white"/>
</g>
</g>
</g>
<g id="Outlines">
<g id="Group_19">
<path id="vec18" d="M126.547 186.429C117.847 184.938 110.509 179.329 103.75 173.966C98.7681 169.516 93.5019 165.415 88.4116 161.093C78.774 152.892 66.7356 148.601 56.6956 141.051C51.8805 137.006 46.0112 131.842 46.304 125.006C46.5016 122.704 47.5039 119.852 49.973 119.216C63.2641 115.967 76.4746 122.172 87.8375 128.566C89.4315 129.659 93.5175 131.728 93.3168 133.879C93.0396 134.948 91.3804 134.794 91.3297 133.686C87.6534 129.965 82.711 128.143 78.1886 125.814C74.5206 123.844 70.655 122.453 66.6549 121.415C61.1891 120.423 55.1358 119.463 49.7951 121.381C47.176 124.207 48.2238 128.479 50.1323 131.406C59.4099 144.638 76.3225 148.426 88.303 158.519C93.4513 162.737 98.6254 166.926 103.653 171.288C109.668 176.343 121.724 185.952 129.825 184.241C132.31 183.305 135.157 181.707 135.283 178.746C135.611 171.473 131.501 164.711 127.305 159.063C123.606 154.622 119.396 150.615 114.779 147.139C110.065 144.026 104.966 141.55 99.9597 138.999C98.885 138.329 99.878 136.664 100.969 137.331C103.656 138.875 106.658 139.82 109.205 141.637C117.966 146.049 125.414 152.946 131.08 160.915C134.588 166.797 140.281 176.589 135.518 183.002C133.183 185.264 129.858 186.872 126.547 186.429Z" style="fill: var(--il-outline);"/>
</g>
<g id="Group_20">
<path id="vec19" d="M214.616 205.649C205.725 205.249 196.863 204.231 188.065 202.953C182.217 201.569 175.744 201.277 170.719 197.667C169.393 198.012 168.117 196.261 167.05 195.611C164.688 193.663 162.427 191.576 160.297 189.381C158.117 186.992 157.399 183.732 156.778 180.657C156.134 176.818 157.946 172.932 160.799 170.406C165.893 166.854 172.664 167.277 178.565 167.877C187.379 168.558 194.416 174.301 201.815 178.524C205.075 180.297 208.764 180.984 212.386 181.602C215.093 181.979 217.75 182.605 220.421 183.168C225.735 183.751 231.66 184.379 235.571 188.431C240.815 193.979 236.545 200.322 230.969 203.439C225.879 205.835 220.107 205.5 214.616 205.649ZM216.568 203.693C221.085 203.492 225.745 203.691 229.954 201.769C234.205 199.33 238.432 194.57 234.333 189.956C231.019 186.438 225.947 185.72 221.368 185.259C218.134 184.816 214.984 183.863 211.735 183.465C208.431 182.896 205.083 182.25 202.029 180.811C198.472 179.051 195.272 176.709 191.838 174.757C186.249 171.006 179.618 169.48 172.948 169.412C168.553 169.518 163.298 169.729 160.523 173.597C157.35 177.522 158.706 183.271 161.097 187.242C163.486 190.14 166.445 192.57 169.339 194.955C169.666 194.774 170.084 194.79 170.407 195.013C172.478 196.592 174.723 197.919 177.253 198.594C190.08 201.814 203.363 203.295 216.568 203.693Z" style="fill: var(--il-outline);"/>
</g>
<g id="Group_21">
<path id="vec20" d="M251.618 180.789C248.198 180.684 245.368 178.768 242.583 176.983C238.89 174.521 235.587 171.48 232.691 168.126C229.931 164.857 227.921 161.047 225.474 157.584C221.99 152.456 217.306 148.322 212.009 145.181C208.141 143.022 204.126 141.085 200.758 138.153C196.676 134.944 192.239 131.352 191.408 125.909C190.312 122.728 190.531 117.733 194.447 116.768C197.435 113.15 202.694 112.717 207.11 112.942C217.041 113.756 226.498 118.716 233.709 125.473C243.482 134.669 251.734 145.436 257.448 157.608C260.077 162.406 262.445 168.014 261.974 173.56C260.863 178.358 256.651 181.806 251.618 180.789ZM254.367 178.926C257.452 178.572 259.507 175.67 260.092 172.855C260.222 165.878 256.251 159.601 253.189 153.636C248.851 145.078 242.745 137.59 236.193 130.647C228.928 122.803 219.303 116.422 208.548 115.055C204.655 114.591 200.344 114.74 196.979 116.911C196.412 117.422 196.032 118.298 195.211 118.426C192.842 119.357 192.437 122.009 193.023 124.245C193.588 128.368 195.886 131.778 199.142 134.297C203.114 137.873 207.581 140.743 212.342 143.111C217.158 146.008 221.761 149.396 225.143 153.943C227.915 157.268 230.052 161.252 232.493 164.683C234.905 168.056 237.919 170.931 241.128 173.539C245.021 176.47 249.279 179.455 254.367 178.926Z" style="fill: var(--il-outline);"/>
</g>
<g id="Group_22">
<path id="vec21" d="M180.015 106.504C176.93 105.881 174.002 104.622 171.028 103.716C170.535 103.506 170.289 102.904 170.507 102.41C170.917 101.479 171.998 101.769 172.706 102.14C175.577 103.235 178.39 104.293 181.339 104.71C183.781 104.539 186.81 104.04 188.633 102.45C190.888 99.7634 190.798 95.7426 189.826 92.567C187.345 85.9416 180.036 83.1104 175.477 78.1825C174.941 77.6291 174.355 76.7467 175.15 76.1426C176.342 75.3834 176.906 77.1005 177.69 77.686C182.066 81.5247 187.426 84.5596 190.63 89.5413C192.934 93.8476 193.372 99.9133 190.036 103.801C189.046 104.938 187.559 105.406 186.157 105.817C184.174 106.389 182.081 106.939 180.015 106.504Z" style="fill: var(--il-outline);"/>
</g>
<g id="Group_23">
<path id="vec22" d="M66.2397 140.625C63.512 138.839 61.139 136.6 58.732 134.414C56.5349 132.534 54.5312 130.397 53.2651 127.768C52.9848 126.838 51.7952 125.679 52.7924 124.85C53.6117 124.254 54.4268 125.094 54.6068 125.897C56.4811 130.653 60.8225 133.504 64.414 136.835C65.2436 137.831 68.3995 138.876 67.5968 140.298C67.33 140.74 66.6783 140.932 66.2397 140.625Z" style="fill: var(--il-outline);"/>
</g>
<g id="Group_24">
<path id="vec23" d="M174.019 190.722C169.201 188.735 164.817 185.7 162.355 180.973C161.471 180.625 161.581 179.284 162.511 179.078C163.628 178.797 164.065 180.02 164.525 180.78C165.512 182.339 166.587 183.579 167.856 184.844C169.836 186.787 172.422 187.694 174.818 188.941C175.967 189.481 175.184 191.238 174.019 190.722Z" style="fill: var(--il-outline);"/>
</g>
<g id="Group_25">
<path id="vec24" d="M205.2 134.618C201.192 131.483 197.97 127.326 196.577 122.382C196.602 122.487 196.64 122.574 196.686 122.653C196.023 121.503 197.805 120.501 198.428 121.684C198.993 123.653 199.848 125.365 200.812 127.108C202.377 129.491 204.292 131.344 206.436 133.111C207.414 133.899 206.168 135.431 205.2 134.618Z" style="fill: var(--il-outline);"/>
</g>
<g id="Group_26">
<path id="vec25" d="M96.0348 138.115C95.4938 138.042 95.1462 137.541 95.199 137.008C95.3231 135.004 95.6066 133.023 96.0151 131.057C96.1413 130.378 96.2831 129.695 96.3389 129.004C96.0865 128.344 96.7051 127.582 97.4126 127.702C99.4897 128.065 97.2564 133.319 97.3557 134.911C97.0733 135.97 97.6764 138.161 96.0348 138.115Z" style="fill: var(--il-outline);"/>
</g>
<g id="Group_27">
<path id="vec26" d="M112.239 121.702C112.255 121.694 112.267 121.685 112.283 121.677C112.292 121.681 112.296 121.685 112.3 121.689C112.303 121.694 112.307 121.698 112.311 121.702C112.137 121.787 111.972 121.876 111.802 121.964C111.944 121.876 112.089 121.79 112.239 121.702Z" style="fill: var(--il-outline);"/>
</g>
<g id="Group_28">
<path id="vec27" d="M108.978 79.2677C103.745 78.314 98.7589 76.3341 94.0637 73.8774C93.2269 73.4771 92.3993 73.0323 91.5263 72.7178C91.0091 72.5802 90.6574 72.0672 90.7784 71.5293C86.1401 68.8822 81.8929 65.4646 78.3459 61.4645C76.2564 59.2984 74.9675 55.5125 77.3797 53.1086C81.5422 50.0498 88.3258 52.0452 92.8431 53.4882C101.591 56.4456 112.049 62.2682 117.677 69.7036C121.773 75.7869 118.024 79.7787 112.51 79.7787C111.388 79.7787 110.194 79.6132 108.978 79.2677ZM83.5334 63.9698C86.3222 66.2042 89.1585 68.5233 92.3021 70.139C93.0976 70.7297 94.674 70.859 94.7826 72.0144C99.2802 74.3336 104.077 76.4065 109.087 77.3116C102.19 69.3715 92.1118 64.6443 81.9539 62.5268C82.439 62.9954 82.9645 63.4764 83.5334 63.9698Z" style="fill: var(--il-outline);"/>
</g>
<g id="Group_29">
<path id="vec28" d="M95.299 144.644C91.812 143.085 91.4965 139.904 91.7913 136.506C91.8316 136.26 91.8689 136.013 91.9051 135.766C91.9899 135.209 92.0499 134.647 92.0706 134.085C92.3012 132.304 92.535 130.554 92.414 129.038C92.7047 123.737 92.6157 118.348 93.8601 113.159C94.5883 110.238 95.9051 107.51 97.0523 104.742C96.7616 104.238 97.0285 103.659 97.4609 103.32C98.8553 101.029 101.105 98.9041 103.962 99.3727C106.419 94.7096 109.324 90.2968 112.706 86.1923C116.67 80.9789 121.009 75.6786 126.808 72.4491C132.057 68.9952 138.029 66.9947 144.143 65.6572C148.255 64.6714 152.681 63.936 157.003 64.0932C156.919 64.0404 156.834 63.9887 156.749 63.936C158.135 64.1056 159.521 64.3363 160.916 64.4366C160.923 64.4366 160.931 64.4366 160.939 64.4408C160.971 64.4656 161.005 64.4935 161.032 64.5214C161.768 64.6549 162.495 64.8204 163.214 65.0273C163.239 64.5421 163.646 64.0818 164.155 64.0818C164.184 64.0818 164.216 64.0818 164.244 64.0859C164.863 63.6815 165.441 63.2129 166.059 62.796C166.273 62.6595 166.487 62.615 166.681 62.6347C166.819 62.5457 166.955 62.4609 167.093 62.3802C167.226 62.013 167.57 61.7254 167.974 61.7254C168.055 61.7254 168.132 61.7337 168.205 61.7502C168.725 61.4627 169.235 61.1844 169.679 60.9258C171.15 60.0652 172.604 59.1725 174.039 58.2467C173.562 58.2746 173.09 58.2953 172.625 58.315C168.471 58.3077 164.204 56.9734 161.303 53.8991C158.972 51.6968 157.173 48.4643 158.608 45.2763C162.656 35.9056 172.645 31.2104 181.159 26.629C188.896 22.2804 197.54 19.4885 206.328 18.4344C206.425 18.4261 206.518 18.4179 206.615 18.4137C208.441 15.9487 213.726 12.5311 214.692 11.7149C220.017 7.23697 226.281 6.73216 232.608 7.78313C232.718 7.56073 232.911 7.35487 233.214 7.18109C235.203 5.43088 237.494 4.16684 239.995 3.32173C245.841 0.510208 252.343 -0.34317 258.776 0.118179C265.071 0.440903 271.019 2.99486 276.959 4.9261C277.864 5.254 278.753 5.62122 279.634 6.01738C280.013 5.92015 280.466 6.06601 280.838 6.2915C285.897 8.48962 290.608 11.3632 295.344 14.1634C308.646 22.4872 321.438 32.0555 331.435 44.246C333.754 47.0461 335.896 49.9435 337.681 53.115C339.266 55.5552 341.132 57.8505 342.094 60.6269C344.042 66.102 345.747 72.5102 343.023 78.0018C340.049 84.3086 334.255 88.891 328.469 92.5311C319.628 97.3887 309.171 97.7725 299.304 97.7363C286.883 97.2108 274.841 93.7879 263.18 89.6834C259.253 88.7214 255.963 85.9781 251.963 85.3916C234.293 82.7125 216.276 80.1596 199.738 73.0677C199.604 73.0843 199.459 73.0718 199.318 73.0232C199.172 72.9467 199.022 72.866 198.877 72.7853C198.453 72.6436 198.045 72.4574 197.826 72.1585C195.851 70.9058 194.061 69.29 192.775 67.3547C191.838 68.7925 188.186 70.4413 187.389 71.1768C186.21 71.7871 181.7 75.2865 178.815 76.5712C178.565 76.5144 178.298 76.5464 178.06 76.7047C177.958 76.7688 177.874 76.8495 177.81 76.9426C177.611 76.9954 177.433 77.0274 177.267 77.0398C177.441 77.4805 177.595 77.9284 177.729 78.3856C177.769 78.3815 177.814 78.3773 177.854 78.3773C177.789 78.547 177.765 78.7373 177.797 78.9224C177.833 79.1324 177.922 79.3352 177.991 79.5369C178.052 79.7148 178.113 79.8969 178.168 80.0779C178.177 80.1151 178.181 80.1472 178.185 80.1793C178.282 80.8216 178.371 81.464 178.448 82.1064C178.444 82.0867 178.444 82.0702 178.439 82.0505C178.52 82.8098 178.569 83.5773 178.589 84.3448C178.593 86.3536 178.327 88.4018 177.825 90.4302C177.842 90.4344 177.854 90.4344 177.865 90.4385C177.776 90.8471 177.684 91.2505 177.579 91.6591C177.522 91.897 177.462 92.1318 177.397 92.3697C177.361 92.3573 177.324 92.346 177.284 92.3335C175.83 96.8394 173.215 101.166 169.724 104.714C168.35 106.306 166.823 107.748 165.166 109.013C165.19 109.022 165.215 109.03 165.234 109.038C165.085 109.134 164.931 109.232 164.778 109.325C164.176 109.7 163.566 110.06 162.955 110.432C162.641 110.626 162.321 110.824 162.01 111.025C161.849 111.135 161.687 111.244 161.529 111.357C161.465 111.406 161.392 111.454 161.323 111.506C157.703 113.478 153.679 114.675 149.488 114.9C144.842 115.737 140.122 115.455 135.431 115.834C130.8 116.089 126.218 116.884 121.737 118.048C119.688 118.639 117.615 119.341 115.591 120.182C115.724 120.667 115.733 121.204 115.579 121.798C115.486 122.772 115.126 123.709 114.5 124.497C114.164 125.01 113.607 125.689 112.997 125.669C112.221 126.331 111.364 126.925 110.577 127.552C107.987 130.081 105.187 132.486 102.989 135.374C102.241 136.421 101.658 137.977 101.008 139.524C101.02 139.532 101.032 139.538 101.043 139.545C100.933 139.783 100.823 140.021 100.713 140.26C100.543 140.624 100.374 140.989 100.215 141.359C100.202 141.351 100.189 141.343 100.176 141.334C99.2142 143.206 97.9822 144.7 95.9858 144.7C95.7634 144.7 95.5379 144.684 95.299 144.644ZM99.6186 103.716C99.6828 103.958 99.6548 104.221 99.5131 104.443C98.1881 106.666 97.376 109.208 96.3903 111.583C94.6121 116.953 94.7455 122.586 94.4383 128.154C94.3742 131.41 94.0587 134.664 93.7556 137.9C93.497 139.812 94.0628 142.26 96.1596 142.814C99.2307 141.161 99.36 136.914 101.327 134.296C103.914 130.975 107.053 128.033 110.249 125.305C111.583 124.347 113.115 123.184 113.567 121.56C113.591 121.532 113.615 121.503 113.643 121.475C113.753 119.895 112.811 119.495 111.478 118.909C111.445 118.917 111.413 118.925 111.381 118.933C110.326 118.55 109.155 118.344 108.241 118.045C105.813 117.874 103.037 116.319 103.134 113.579C103.303 111.502 103.958 109.466 104.791 107.559C105.328 106.035 106.621 104.549 106.415 102.875C106.047 102.294 105.558 101.885 105.013 101.631C105.009 101.635 105.005 101.639 105.005 101.643C104.992 101.631 104.98 101.619 104.964 101.607C104.924 101.575 104.884 101.542 104.839 101.514C104.803 101.49 104.762 101.469 104.726 101.453C104.714 101.45 104.702 101.442 104.689 101.437C104.649 101.421 104.604 101.408 104.56 101.397C104.552 101.397 104.54 101.393 104.528 101.393C104.483 101.38 104.435 101.376 104.386 101.372C104.322 101.368 104.261 101.368 104.197 101.368C103.979 101.368 103.752 101.389 103.534 101.429C103.368 101.357 103.178 101.328 102.993 101.357C102.976 101.357 102.964 101.361 102.952 101.361C102.956 101.353 102.96 101.34 102.964 101.332C101.586 101.506 100.249 102.37 99.6186 103.716ZM209.843 63.2005C215.165 63.9804 222.834 67.3909 223.44 73.4194C223.472 74.308 223.287 76.7688 222.588 78.216C232.706 80.5506 243.045 82.0826 253.296 83.6507C256.683 84.3045 259.471 86.5719 262.792 87.4884C271.011 90.4106 279.424 92.9035 287.974 94.5886C299.586 96.3253 311.854 96.5808 323.103 92.8507C330.586 89.9617 339.306 83.0808 341.957 75.3424C343.088 72.1305 342.207 68.7604 341.585 65.56C340.776 61.411 338.716 57.9353 336.292 54.5694C326.667 38.4802 311.304 26.8183 295.821 16.7494C291.925 14.4302 288.063 12.0376 284.03 9.97296C283.779 10.0857 283.48 10.0981 283.23 9.96469C276.11 6.25945 268.287 3.65378 260.416 2.16629C254.081 1.66978 247.47 1.93976 241.725 4.74405C239.316 5.62122 236.945 6.61115 234.984 8.24757C239.801 9.31406 244.593 11.1129 248.973 12.5755C249.434 12.7245 249.636 13.0927 249.644 13.46C251.009 12.7286 252.383 12.0097 253.758 11.298C259.681 8.51447 266 5.5002 272.377 8.88994C275.65 10.0785 276.668 13.9327 276.231 17.0928C275.779 19.1616 274.559 20.8622 273.145 22.4066C273.775 22.6765 274.413 23.0562 274.874 23.202C275.091 23.3075 275.246 23.4606 275.335 23.6303C280.142 25.7477 285.081 27.441 289.873 29.5584C291.029 30.0994 290.212 31.8569 289.049 31.3356C283.925 29.1457 278.753 27.2424 273.629 25.0888C273.306 25.0401 273.056 24.794 272.935 24.4992C272.611 24.3533 272.295 24.2281 271.956 24.1113C271.819 24.1113 271.689 24.0833 271.568 24.0264C271.31 24.2726 271.059 24.5198 270.817 24.766C267.464 27.4927 263.988 30.055 260.433 32.4879C261.046 32.6617 261.661 32.8551 262.267 33.0496C263.956 33.364 265.572 34.3622 267.172 34.9198C270.437 36.3338 273.711 37.7323 276.983 39.134C278.3 39.6677 279.618 40.189 280.918 40.7549C281.403 40.9649 281.67 41.51 281.469 42.0158C281.282 42.5041 280.693 42.7751 280.208 42.5651C273.961 40.1725 267.81 36.9845 261.508 34.8836C261.216 34.9198 260.917 34.8225 260.707 34.625C260.077 34.4388 259.454 34.265 258.824 34.1078C258.606 34.1523 258.364 34.1119 258.17 34.0064C251.446 38.4554 244.44 42.4761 237.336 46.2828C236.604 46.6293 235.902 47.0182 235.207 47.4175C235.659 47.5716 236.12 47.8054 236.479 47.9223C240.33 49.3653 244.339 50.8279 248.205 52.1085C248.428 52.1903 248.586 52.3227 248.686 52.4892C252.383 53.3012 256.06 54.287 259.721 55.0825C260.247 55.1673 260.61 55.6803 260.522 56.2017C260.19 57.9478 256.868 56.2307 255.689 56.1655C241.873 52.6185 227.707 50.6459 213.463 50.2383C211.096 50.1245 208.753 50.3955 206.405 50.6666C202.918 51.0141 199.176 51.131 196.436 53.6157C191.571 58.1215 191.967 64.118 195.919 68.1781C195.709 65.8713 197.139 63.5274 200.126 62.5416C201.043 62.2912 201.968 62.1899 202.901 62.1899C205.225 62.1899 207.564 62.8084 209.843 63.2005ZM170.831 83.1935C170.843 83.7314 171.296 84.1472 171.825 84.1472C172.354 84.1472 172.786 83.6745 172.778 83.1532C172.767 82.6163 172.314 82.1995 171.784 82.1995C171.256 82.1995 170.823 82.6722 170.831 83.1935ZM198.513 65.9686C197.051 67.6774 198.214 69.9769 200.033 70.8417C200.247 70.9585 200.397 71.124 200.489 71.3061C206.987 74.0132 213.686 76.0623 220.494 77.7184C220.498 77.7101 220.503 77.7029 220.511 77.6946C221.549 76.3126 221.424 74.4704 221.416 72.837C220.854 70.9865 219.42 69.5724 217.885 68.4822C215.108 66.2427 211.602 65.4752 208.191 64.9135C206.562 64.6549 204.627 64.1625 202.816 64.1625C201.16 64.1625 199.613 64.5783 198.513 65.9686ZM165.36 65.7658C165.679 65.892 166.003 66.0286 166.317 66.1785C171.349 68.3684 174.686 71.6619 176.593 75.5048C177.041 75.0558 177.865 74.7693 178.363 74.5066C179.995 73.8311 181.43 72.805 182.88 71.815C182.977 71.7468 183.074 71.6775 183.175 71.6133C183.192 71.2089 183.336 70.793 183.588 70.5179C183.41 70.3607 183.285 70.1383 183.272 69.8879C183.357 68.3518 182.694 67.0144 181.87 65.7627C180.396 63.0226 178.202 60.7758 175.001 60.4572C174.77 61.1637 173.982 61.2527 173.482 60.93C172.08 61.802 170.661 62.6512 169.21 63.4467C168.944 63.5884 168.678 63.7342 168.415 63.8791C167.643 64.3404 166.895 64.8245 166.12 65.2652C166.055 65.3014 165.986 65.3262 165.918 65.3459H165.914C165.732 65.4958 165.546 65.6376 165.36 65.7658ZM190.42 49.7408C189.899 50.0397 189.381 50.3469 188.864 50.65C187.959 51.1879 187.083 51.7858 186.225 52.4002C185.284 53.0747 184.355 53.7657 183.406 54.436C182.488 55.0825 181.547 55.7052 180.606 56.3196C179.34 57.1399 178.08 57.9716 176.815 58.8001C178.706 59.3856 180.731 60.7117 181.349 61.6168C183.111 64.0084 185.284 66.5902 185.22 69.7141C185.236 69.9562 185.163 70.1869 185.034 70.3689C186.965 69.1039 188.929 67.8832 190.816 66.554C191.155 66.2551 191.523 65.9241 191.915 65.8517C191.378 64.7562 191.005 63.5801 190.84 62.3233C190.537 57.9633 192.84 53.3902 196.562 51.0824C199.285 49.1067 202.76 49.1108 205.976 48.7229C208.13 48.4964 210.284 48.2016 212.454 48.2461C217.836 48.335 223.198 48.7146 228.54 49.3084C228.576 48.8843 228.85 48.5409 229.242 48.3671C233.663 46.2052 237.873 43.6843 242.213 41.3652C249.854 36.9038 257.652 32.5727 264.562 27.0128C267.536 25.0164 270.324 22.8182 272.627 20.0584C273.524 18.782 274.324 17.4962 274.373 15.9487C274.381 14.7126 273.985 13.5168 273.622 12.3531C271.617 9.83125 267.843 9.34302 264.796 9.34302C257.943 10.7488 251.988 14.5709 245.837 17.6948C242.185 19.7957 238.528 21.8966 234.876 24.0026C234.742 24.4826 234.293 24.8746 233.675 24.6926C229.214 27.2631 224.757 29.8408 220.312 32.4269C214.147 35.4897 208.094 38.7264 202.114 42.1244C198.19 44.3629 195.022 47.4702 191.018 49.5587C190.84 49.6725 190.659 49.7129 190.488 49.7004C190.469 49.7129 190.445 49.7294 190.42 49.7408ZM161.711 43.5302C158.309 48.0723 161.02 51.6244 165.037 54.3997C168.702 56.6382 173.223 56.6506 177.324 55.8707C177.547 55.6845 177.793 55.6204 178.028 55.6483C179.018 54.9976 180.008 54.347 180.989 53.6891C181.785 53.1595 182.569 52.6144 183.336 52.0485C184.149 51.4548 184.953 50.8486 185.786 50.2869C186.662 49.6922 187.552 49.1274 188.46 48.5853C188.849 48.3547 189.24 48.1364 189.625 47.9068C189.842 47.7775 190.06 47.644 190.274 47.5106C190.501 47.3689 190.711 47.191 190.978 47.1465C191.087 47.131 191.196 47.131 191.301 47.1506C194.138 45.4376 196.351 43.5747 199.144 41.6393C205.794 37.6196 212.728 34.0954 219.659 30.5804C223.525 28.342 227.38 26.0787 231.243 23.8247C230.633 23.594 230.022 23.352 229.433 23.0965C227.893 22.7572 226.378 22.329 224.85 21.9617C219.315 20.1639 213.468 19.6902 207.698 20.345C207.407 20.6884 207.047 20.887 206.518 20.6563C206.417 20.5994 206.332 20.5353 206.26 20.466C197.54 21.3235 189.273 24.5074 181.563 28.5923C183.143 28.5964 184.707 28.9761 185.608 30.358C188.893 36.4269 170.079 49.2598 165.102 45.1263C163.764 44.3184 163.174 42.7265 163.42 41.24C162.811 41.9672 162.237 42.7265 161.711 43.5302ZM231.267 49.6322C233.518 49.9104 235.768 50.2259 238.011 50.5735C237.547 50.4038 237.077 50.2342 236.613 50.0645C235.768 49.5473 233.764 49.4542 233.526 48.3991C232.786 48.8315 232.038 49.2525 231.267 49.6322ZM170.232 43.6398C174.48 42.0075 178.516 39.5591 181.64 36.2252C182.687 35.0046 184.367 33.182 183.943 31.4731C182.262 29.4653 177.155 31.1339 175.215 32.2655C173.696 33.2513 172.229 34.3136 170.783 35.4049C170.035 35.8456 169.045 37.0693 168.172 36.7021C167.724 37.0496 167.288 37.4086 166.859 37.7768C167.582 38.4192 167.381 39.9667 166.043 39.7287C163.885 43.2881 167.078 44.8118 170.232 43.6398ZM230.567 21.4125C231.529 21.8449 232.496 22.1883 233.473 22.5317C238.293 19.7316 243.134 16.9718 248.035 14.3206C239.76 11.7108 230.847 7.60107 222.103 9.93262C217.42 11.5484 213.306 14.8988 209.645 18.2162C212.817 18.0579 215.985 18.0662 219.141 18.572C222.442 19.0768 225.598 20.2322 228.854 20.9677C228.875 20.9718 228.895 20.976 228.92 20.9832C229.004 20.9594 229.098 20.947 229.191 20.947C229.647 20.947 230.164 21.2056 230.567 21.4125Z" style="fill: var(--il-outline);"/>
</g>
<g id="Group_30">
<path id="vec29" d="M63.9089 22.8743C63.9089 22.8702 63.9089 22.8702 63.9047 22.866C63.8892 22.8505 63.8726 22.8298 63.8561 22.8132C63.9047 22.8132 63.9534 22.8174 64.002 22.8174V22.8867C63.973 22.8826 63.9409 22.8784 63.9089 22.8743Z" style="fill: var(--il-outline);"/>
</g>
<g id="Group_31">
<path id="vec30" d="M194.885 235.775C191.112 235.573 187.345 235.194 183.596 234.676C173.009 233.217 162.54 230.651 152.273 227.819C141.363 224.509 130.881 219.899 120.234 215.895C105.517 210.654 91.0522 204.581 77.548 196.694C67.5681 190.823 58.1777 184.042 48.4884 177.723C43.1426 173.634 37.8164 169.666 32.273 165.904C27.2748 161.709 21.63 158.663 17.1448 154.004C16.8293 153.737 16.518 153.463 16.2077 153.175C16.1994 153.172 16.1952 153.164 16.187 153.16C16.0897 153.079 15.9966 152.994 15.9159 152.91C15.9004 152.897 15.888 152.881 15.8756 152.869C6.32803 143.992 -2.10551 128.023 1.9804 115.323C1.36596 114.446 2.6869 113.072 2.90102 112.115C3.63649 110.325 4.16612 108.45 4.88503 106.656C5.79014 104.397 6.6911 102.147 7.57655 99.8796C7.65724 99.7182 7.79068 99.5889 7.95618 99.4999C8.89336 97.4797 10.1946 95.5681 11.9045 93.8107C16.458 88.9655 23.4154 88.9376 29.5329 87.9477C33.5898 87.3456 37.4813 86.5616 41.5062 85.9957C44.7139 85.4144 49.3646 83.5638 53.1226 80.953C50.9244 75.6558 46.0834 71.2471 43.0981 66.4796C39.5987 61.2796 35.4931 55.7238 36.1117 49.1295C36.0993 48.5833 36.1355 48.0381 36.2203 47.5044C36.2286 47.2986 36.2814 47.0761 36.3538 46.8537C36.5358 46.0821 36.8265 45.3425 37.2268 44.6556C37.8568 42.9871 38.314 41.2866 38.9719 39.6212C39.7518 37.4675 40.5804 35.3304 41.352 33.181C41.3965 32.9544 41.4979 32.7486 41.6437 32.5903C41.9903 31.5807 42.5323 30.6394 43.2636 29.8305C46.2613 26.5907 50.068 24.6223 54.4001 23.6199C54.4001 24.3192 54.7549 24.9295 55.1345 25.4994C50.2169 26.6228 45.1142 29.0992 43.3443 33.7426C40.2173 48.6681 64.0325 61.9013 61.0389 74.428C59.871 78.8563 55.8213 81.5106 52.1647 83.8183C48.1646 86.4405 43.5626 87.9311 38.8188 88.4038C34.5353 89.1393 30.3087 89.883 26.0056 90.4654C22.3851 90.934 18.7813 91.326 15.6573 93.2976C4.04094 101.168 7.51138 117.259 13.8275 127.501C16.187 131.098 18.6964 134.767 21.8803 137.696C21.8845 137.696 21.8886 137.696 21.8886 137.701C21.9972 137.737 22.1027 137.793 22.2 137.866C22.6241 138.254 23.0399 138.646 23.4599 139.038C23.4961 139.07 23.5333 139.102 23.5737 139.13C24.1995 139.255 24.4746 139.619 24.4943 140.007C26.3376 141.709 28.2202 143.353 30.4018 144.675C35.9173 148.908 41.381 152.978 47.1106 156.833C51.6682 160.458 56.2382 163.945 61.2199 166.914C69.3783 172.454 77.4518 178.168 86.1067 182.927C98.5072 190.011 111.692 195.429 125.086 200.253C138.546 205.345 151.675 211.167 165.655 214.65C178.456 217.475 191.333 220.509 204.51 220.513C216.502 220.647 228.357 218.735 240.293 217.887C255.107 215.89 269.023 211.394 275.342 196.565C277.508 191.38 278.914 185.606 278.074 180.038C277.67 177.137 277.282 174.268 276.603 171.48C276.555 171.408 276.531 171.33 276.506 171.25C276.232 170.292 275.965 169.31 275.674 168.341C275.286 167.213 274.817 166.105 274.259 165.019C274.147 164.769 274.13 164.486 274.212 164.239C272.724 160.825 270.373 157.899 268.474 154.739C267.463 152.986 266.401 151.269 265.286 149.588C264.89 148.889 264.489 148.198 264.069 147.515C263.56 146.687 263.047 145.858 262.497 145.054C262.13 144.52 261.734 144.007 261.354 143.478H261.358C261.944 143.365 262.323 142.835 262.522 142.286C265.511 146.161 268.146 150.29 270.632 154.521C272.951 158.033 275.448 161.496 276.822 165.508C277.048 166.154 277.258 166.805 277.46 167.455C277.468 167.468 277.468 167.484 277.468 167.496C277.839 168.474 278.163 169.467 278.43 170.486C279.626 176.127 280.724 181.687 280.037 187.412C279.771 189.324 279.342 191.202 278.769 193.037V193.041C278.729 193.218 278.672 193.396 278.632 193.554C278.138 195.057 277.646 196.56 277.169 198.068C275.407 203.066 273.92 208.206 271.196 212.796C270.655 213.45 270.235 214.981 269.492 215.568C268.256 217.524 266.857 219.374 265.33 221.1C261.952 224.816 257.346 227.221 252.763 229.14C243.203 232.918 232.908 233.557 222.778 234.442C221.941 234.518 221.109 234.599 220.273 234.676C213.742 235.302 207.217 235.965 200.663 235.965C198.736 235.965 196.812 235.908 194.885 235.775Z" style="fill: var(--il-outline);"/>
</g>
<g id="Group_32">
<path id="vec31" d="M163.849 58.5171C159.44 56.1452 155.315 53.3005 150.999 50.788C147.965 49.1474 144.943 48.0157 141.961 46.3628C136.99 43.0827 131.305 41.4576 125.847 39.2191C118.776 36.1201 111.41 33.623 103.999 31.4528C94.556 28.9723 84.8822 27.5541 75.2012 26.3739C68.0855 25.5577 61.0381 25.085 54.0041 26.2487C53.4538 26.5642 52.6738 26.4877 52.408 25.8453C50.6743 22.1959 73.12 23.9865 75.2984 24.4023C84.9515 25.5981 94.5156 26.9356 103.906 29.4047C115.397 32.4676 126.283 37.3562 137.37 41.559C143.46 45.2684 150.207 47.7168 156.163 51.6207C161.364 55.0673 166.948 57.8705 172.31 61.0472C171.922 61.2489 171.526 61.4475 171.138 61.6534C170.928 61.762 170.71 61.8758 170.504 61.9968C170.419 62.0496 170.338 62.093 170.253 62.1458C168.152 60.8858 166.023 59.6735 163.849 58.5171Z" style="fill: var(--il-outline);"/>
</g>
<g id="Group_33">
<path id="vec32" d="M234.489 113.048C222.876 100.526 209.364 89.98 196.22 79.1425C192.527 76.0475 188.511 73.4533 184.405 70.981C184.53 70.8962 184.655 70.8072 184.781 70.7266C184.963 70.6086 185.141 70.4835 185.319 70.3624C185.476 70.2538 185.65 70.14 185.783 70.0066C185.888 69.898 185.977 69.7925 186.054 69.6715C193.654 73.9911 200.224 79.8666 206.948 85.4058C212.088 89.6686 217.239 93.8869 222.193 98.368C227.066 102.437 231.496 107.003 235.846 111.614C236.219 112.001 236.267 112.608 235.883 113.008C235.693 113.206 235.418 113.315 235.148 113.315C234.905 113.315 234.663 113.23 234.489 113.048Z" style="fill: var(--il-outline);"/>
</g>
<g id="Group_34">
<path id="vec33" d="M232.361 110.998C231.04 110.23 232.288 108.336 233.476 109.325C234.528 109.943 233.938 111.276 233.055 111.276C232.834 111.276 232.596 111.194 232.361 110.998Z" style="fill: var(--il-outline);"/>
</g>
<g id="Group_35">
<path id="vec34" d="M232.848 109.284C232.837 108.731 232.383 108.291 231.834 108.303C231.286 108.314 230.85 108.771 230.862 109.324C230.873 109.878 231.327 110.317 231.875 110.306C232.424 110.295 232.86 109.837 232.848 109.284Z" style="fill: var(--il-outline);"/>
</g>
<g id="Group_36">
<path id="vec35" d="M273.867 164.154C270.574 157.749 266.962 151.478 262.873 145.543C262.86 145.478 262.845 145.417 262.816 145.352C262.715 145.102 262.55 144.888 262.387 144.674C262.258 144.5 262.125 144.326 261.995 144.153C261.923 144.059 261.851 143.954 261.774 143.845C261.648 143.663 261.523 143.481 261.389 143.3C261.187 143.008 260.95 142.641 260.642 142.402C258.998 140.164 257.276 137.978 255.47 135.857C249.171 128.261 242.633 120.802 235.376 114.106C234.738 113.156 232.616 112.368 233.396 111.067C233.716 110.623 234.346 110.53 234.786 110.846C245.744 120.934 255.753 132.261 264.46 144.363C268.566 150.46 272.432 156.816 275.718 163.357C276.046 164.133 275.395 164.756 274.749 164.756C274.404 164.756 274.062 164.578 273.867 164.154Z" style="fill: var(--il-outline);"/>
</g>
<g id="Group_37">
<path id="vec36" d="M277.627 140.628C271.085 140.628 264.207 134.474 264.987 127.67C265.566 121.523 269.767 113.625 276.896 114.526C281.32 112.836 285.967 116.521 288.391 120.041C291.252 124.38 290.347 130.095 288.719 134.737C286.994 138.773 283.41 140.733 279.304 140.733C278.753 140.733 278.193 140.698 277.627 140.628ZM288.238 125.917C288.109 121.601 284.84 118.11 281.074 116.396C279.963 116.542 278.823 116.51 277.688 116.481C276.382 116.444 275.073 116.408 273.809 116.647C272.709 117.168 271.772 117.952 270.806 118.676C268.042 122.041 266.07 126.939 267.279 131.282C269.137 135.856 273.962 139.093 278.92 138.665C286.246 139.481 288.395 131.746 288.238 125.917Z" style="fill: var(--il-outline);"/>
</g>
<g id="Group_38">
<path id="vec37" d="M276.718 123.944C274.568 123.577 272.544 122.623 270.552 121.767C269.812 121.431 268.951 121.1 268.596 120.308C267.989 119.16 269.695 118.194 270.333 119.334C272.334 120.635 274.814 121.492 277.154 121.996C278.892 122.025 280.351 120.89 281.89 120.255C282.811 119.754 283.842 120.902 283.159 121.738C281.38 122.785 279.373 123.968 277.241 123.969C277.067 123.969 276.894 123.961 276.718 123.944Z" style="fill: var(--il-outline);"/>
</g>
<g id="Group_39">
<path id="vec38" d="M282.419 150.225C281.247 149.651 282.229 148.548 282.415 147.711C282.669 145.417 282.758 143.153 282.492 140.923C282.027 138.535 280.759 136.523 279.825 134.349C278.612 131.383 278.625 127.961 279.13 124.854C279.445 123.54 280.653 119.733 282.419 120.409C282.908 120.627 283.163 121.225 282.94 121.73C282.536 122.275 281.987 122.635 281.724 123.306C280.714 125.274 280.746 127.661 280.795 129.795C281.134 134.975 285.381 138.814 284.585 144.264C284.488 145.74 284.776 150.254 282.719 150.255C282.624 150.255 282.525 150.244 282.419 150.225Z" style="fill: var(--il-outline);"/>
</g>
<g id="Group_40">
<path id="vec39" d="M287.425 115.919C286.953 114.825 288.371 114.267 289.041 113.689C290.512 112.691 291.862 111.527 293.305 110.492C294.698 109.782 295.466 111.713 294.085 112.364C292.481 113.697 290.711 114.833 289.098 116.146C288.9 116.375 288.617 116.486 288.335 116.486C287.96 116.486 287.589 116.29 287.425 115.919Z" style="fill: var(--il-outline);"/>
</g>
<g id="Group_41">
<path id="vec40" d="M290.424 119.172C289.211 118.793 289.701 116.817 290.965 117.201C292.698 116.489 294.084 115.325 295.486 114.227C295.907 113.89 296.52 113.915 296.88 114.335C297.22 114.736 297.192 115.395 296.772 115.73C294.889 117.023 292.941 119.173 290.536 119.173C290.499 119.173 290.461 119.173 290.424 119.172Z" style="fill: var(--il-outline);"/>
</g>
<g id="Group_42">
<path id="vec41" d="M301.689 142.317C298.974 139.436 298.105 135.105 297.163 131.347C296.028 126.999 297.608 122.885 299.345 118.966C299.834 117.806 298.671 116.74 297.604 116.558C296.351 116.837 294.925 116.518 294.06 115.536C289.041 110.08 293.555 105.669 299.378 104.23C304.922 103.414 311.213 106.638 312.223 112.49C314.53 124.522 300.384 128.235 303.156 140.777C303.43 141.549 302.982 142.469 302.234 142.469C302.067 142.469 301.882 142.422 301.689 142.317ZM301.285 117.277C301.96 119.945 299.766 122.312 299.175 124.833C298.149 128.882 299.455 133.21 300.86 136.979C300.981 133.456 302.376 130.143 304.392 127.298C306.231 124.417 308.869 121.908 309.96 118.631C311.597 113.143 309.249 107.135 303.132 106.343C302.849 107.204 301.931 107.03 301.24 106.844C299.992 106.759 298.812 106.533 297.717 107.066C296.42 107.649 295.903 110.659 294.23 109.552C293.81 110.295 293.676 111.358 294.153 112.093C294.804 113.018 295.228 114.534 296.525 114.65C296.788 114.598 297.053 114.572 297.314 114.572C299.014 114.572 300.631 115.653 301.285 117.277Z" style="fill: var(--il-outline);"/>
</g>
<g id="Group_43">
<path id="vec42" d="M287.009 139.214C286.132 138.337 287.289 137.497 287.838 136.834C288.989 135.157 290.206 133.412 290.715 131.448C292.092 127.209 292.064 122.32 289.745 118.477C287.005 115.054 282.681 112.307 278.189 113.333C276.871 113.636 275.603 114.004 274.48 114.788C273.53 115.346 272.411 115.694 271.724 116.578C270.794 117.415 270.592 119.738 268.984 119.321C267.449 118.517 269.049 117.379 269.456 116.376C270.236 114.914 271.735 113.887 273.138 113.273C274.641 112.262 276.326 111.681 278.064 111.329C283.022 110.307 287.749 113.123 290.925 116.748C293.773 120.627 294.234 125.96 293.01 130.527C292.565 132.967 291.397 135.1 290.056 137.157C289.449 137.858 288.675 139.452 287.674 139.452C287.463 139.452 287.242 139.38 287.009 139.214Z" style="fill: var(--il-outline);"/>
</g>
<g id="Group_44">
<path id="vec43" d="M288.601 139.388C286.625 138.761 290.35 133.646 290.799 132.369C291.248 131.177 291.34 129.913 291.426 128.652C292.25 122.724 288.819 116.986 284.266 113.463C281.178 112.029 277.263 111.245 274.128 112.816C272.33 114.017 270.418 115.512 269.918 117.678C269.683 118.728 270.895 120.47 269.081 120.582C268.625 120.546 268.289 120.215 268.192 119.783C266.883 115.402 271.432 111.358 275.291 110.283C278.391 109.528 281.676 110.234 284.585 111.402C286.613 112.364 288.035 114.223 289.458 115.904C293.907 121.184 295.079 129.614 291.308 135.549C290.706 136.688 290.335 137.654 289.862 138.798C289.704 139.193 289.324 139.448 288.928 139.448C288.819 139.448 288.709 139.429 288.601 139.388Z" style="fill: var(--il-outline);"/>
</g>
<g id="Group_45">
<path id="vec44" d="M289.559 138.539C287.906 137.865 290.222 134.192 290.5 132.971C291.252 129.249 293.127 124.761 291.049 121.217C290.71 120.801 290.763 120.17 291.179 119.823C293.398 118.646 293.983 123.387 293.89 124.74C293.809 128.304 293.018 131.989 291.66 135.27C291.024 136.208 291.26 138.578 289.889 138.578C289.787 138.578 289.678 138.566 289.559 138.539Z" style="fill: var(--il-outline);"/>
</g>
<g id="Group_46">
<path id="vec45" d="M282.811 150.402C280.714 150.014 283.833 145.444 284.496 144.487C286.043 142.414 287.712 140.115 288.783 137.812C290.751 132.935 292.282 127.136 290.828 121.952C290.294 120.788 292.06 119.948 292.621 121.116C293.979 124.575 293.252 128.405 292.718 131.952C291.801 137.622 288.621 142.385 285.255 146.883C284.581 147.873 284.354 149.098 283.756 150.103C283.555 150.326 283.289 150.418 283.012 150.418C282.945 150.418 282.878 150.412 282.811 150.402Z" style="fill: var(--il-outline);"/>
</g>
<g id="Group_47">
<path id="vec46" d="M284.342 144.285C283.55 143.052 283.931 141.485 284.16 140.135C283.288 139.663 283.348 138.495 283.272 137.63C282.727 137.31 282.629 136.591 282.541 135.989C282.516 135.82 282.492 135.65 282.471 135.481C281.042 136.143 280.767 134.37 280.835 133.335C280.487 133.104 280.362 132.583 280.391 132.301C280.399 131.222 280.407 130.147 280.387 129.072C280.362 127.71 280.306 126.349 280.294 124.986C280.277 124.352 280.245 123.536 280.892 123.185C280.9 122.873 280.908 122.563 280.92 122.251C280.892 122.235 280.864 122.219 280.835 122.203C280.569 122.332 280.281 122.421 279.987 122.441C279.449 122.481 278.899 122.356 278.46 122.049C276.823 123.286 275.384 122.555 274.269 121.112C274.204 121.152 274.14 121.188 274.075 121.221C273.077 123.645 270.738 122.591 270.596 120.312C269.121 120.098 269.751 118.222 269.974 117.245C269.986 116.711 269.869 116.049 270.446 115.746C270.814 114.744 271.546 113.362 272.826 113.686C273.332 113.16 274.18 112.995 274.782 113.447C275.009 113.366 275.239 113.326 275.473 113.349C275.497 113.354 275.526 113.358 275.55 113.362C276.192 112.76 277.082 112.158 277.987 112.554C278.181 112.364 278.496 112.275 278.755 112.323C279.631 112.21 280.516 112.037 281.401 112.174C282.621 112.444 286.411 112.953 285.971 114.695C286.217 115.019 286.35 115.41 286.67 115.673C287.034 115.475 287.486 115.588 287.789 115.831C290.642 117.427 291.522 120.704 291.878 123.734C292.12 125.403 292.242 127.091 292.242 128.777C292.283 129.561 292.133 130.546 291.308 130.883C291.058 133.262 289.834 135.343 289.159 137.558C288.808 139.105 287.634 144.863 285.529 144.864C285.162 144.864 284.767 144.689 284.342 144.285ZM289.866 124.502C289.854 124.53 289.841 124.558 289.834 124.587C289.866 124.651 289.902 124.712 289.934 124.776C289.979 124.865 290.023 124.954 290.064 125.043C290.044 124.857 290.023 124.668 290.004 124.482C289.996 124.409 289.983 124.34 289.975 124.272C289.939 124.348 289.902 124.425 289.866 124.502Z" style="fill: var(--il-outline);"/>
</g>
<g id="Group_48">
<path id="vec47" d="M300.339 138.495C299.382 137.86 299.714 136.426 299.354 135.452C298.917 135.318 298.631 134.87 298.675 134.421C298.707 133.614 298.679 132.802 298.686 131.994C298.056 131.388 298.453 130.434 298.476 129.67C296.861 129.067 298.283 126.498 298.36 125.253C298.804 124.183 298.468 121.633 299.996 121.609C300.04 120.74 300.028 119.863 300.105 118.994C298.465 118.704 299.434 116.315 299.576 115.217C299.523 115.151 299.47 115.083 299.422 115.011C299.188 114.994 298.945 114.941 298.735 114.833C298.606 114.759 298.493 114.679 298.387 114.59C298.065 114.667 297.713 114.67 297.406 114.57C296.957 114.793 296.42 114.841 295.947 114.67C295.753 114.598 295.596 114.489 295.462 114.352C295.409 114.339 295.362 114.324 295.313 114.303C292.901 115.717 292.266 113.184 292.691 110.651C293.094 108.226 294.472 105.797 296.189 106.836C296.234 106.823 296.278 106.812 296.327 106.804C296.647 106.731 296.99 106.787 297.304 106.917C297.342 106.88 297.382 106.84 297.426 106.804C297.766 106.488 298.169 106.23 298.626 106.17C299.293 105.503 300.46 105.256 301.179 105.956C301.293 105.927 301.414 105.907 301.539 105.899C301.782 105.875 302.065 105.956 302.279 106.068C302.756 105.943 303.341 106.032 303.733 106.323C303.754 106.339 303.778 106.355 303.798 106.371C304.42 105.975 305.208 106.348 305.79 106.679C306.162 106.929 306.647 106.852 306.995 107.183C307.677 107.725 308.619 107.874 309.301 108.461C310.323 109.228 310.889 110.4 311.148 111.624C311.669 113.419 310.893 115.14 310.558 116.853C310.825 118.417 310.607 120.029 310.102 121.528C309.403 123.197 307.241 129.173 304.829 127.306C304.812 127.314 304.797 127.318 304.78 127.322C304.125 130.11 302.537 132.64 302.23 135.489C302.029 136.448 302.048 138.594 300.835 138.594C300.688 138.594 300.525 138.563 300.339 138.495Z" style="fill: var(--il-outline);"/>
</g>
<g id="Group_49">
<path id="vec48" d="M276.027 125.848C273.46 125.467 266.564 123.423 266.482 120.348C266.737 118.857 267.642 117.56 268.256 116.194C268.79 115.504 269.254 114.118 270.337 114.445C271.287 114.776 271.069 115.903 270.454 116.452C269.824 117.261 269.485 118.264 269.004 119.165C269.15 119.282 269.263 119.439 269.323 119.617C269.343 119.674 269.356 119.729 269.367 119.782C271.747 122.045 275.19 122.425 278.241 123.003C279.469 123.391 282.56 122.599 282.197 124.672C281.975 125.302 281.247 125.496 280.649 125.597C279.462 125.755 278.254 125.88 277.049 125.88C276.707 125.88 276.367 125.87 276.027 125.848Z" style="fill: var(--il-outline);"/>
</g>
<g id="Group_50">
<path id="vec49" d="M272.346 124.599C269.768 123.73 267.206 122.486 265.177 120.695C264.838 120.178 265.064 119.701 265.323 119.257C265.489 118.724 265.594 118.183 265.836 117.677C268.689 109.827 279.748 107.801 285.809 113.147C286.124 113.439 286.391 113.753 286.654 114.094C287.393 115.139 285.721 116.283 285.009 115.209C283.203 113.066 280.156 112.214 277.498 112.097C272.41 112.343 268.535 114.764 267.218 119.823C269.045 121.076 271.053 122.187 273.178 122.772C274.202 123.262 273.703 124.688 272.761 124.688C272.63 124.688 272.491 124.66 272.346 124.599Z" style="fill: var(--il-outline);"/>
</g>
<g id="Group_51">
<path id="vec50" d="M268.899 130.422C267.541 129.746 267.06 126.425 269.226 126.781C270.006 127.08 270.705 127.912 270.588 128.769C270.678 129.531 270.112 130.516 269.324 130.515C269.188 130.515 269.046 130.487 268.899 130.422Z" style="fill: var(--il-outline);"/>
</g>
<g id="Group_52">
<path id="vec51" d="M272.051 130.992C270.713 128.826 273.744 126.926 274.758 129.322C275.178 130.541 274.244 131.856 273.259 131.856C272.83 131.856 272.392 131.607 272.051 130.992Z" style="fill: var(--il-outline);"/>
</g>
<g id="Group_53">
<path id="vec52" d="M267.785 59.0219C264.649 58.3113 261.43 57.3762 258.314 56.7949C257.442 56.4907 255.87 56.8207 255.836 55.5225C255.845 54.9609 256.309 54.5523 256.855 54.5367C260.651 55.0477 264.344 56.1763 268.071 57.0462C269.353 57.2479 269.072 59.1823 267.785 59.0219Z" style="fill: var(--il-outline);"/>
</g>
<g id="Group_54">
<path id="vec53" d="M172.216 86.8909C172.089 86.8177 171.976 86.7261 171.871 86.6217C169.494 87.071 167.163 81.6257 170.451 81.6468C170.245 80.7632 171.501 80.0963 172.119 80.7942C173.189 81.7153 175.258 87.9683 172.216 86.8909Z" style="fill: var(--il-outline);"/>
</g>
<g id="Group_55">
<path id="vec54" d="M169.716 61.938C168.574 61.037 167.422 60.5726 166.23 59.8195C165.835 59.6209 165.579 59.1782 165.704 58.6889C165.977 57.7186 167.094 57.82 167.716 58.4024C168.795 59.0271 169.912 59.5899 170.901 60.3615C171.928 61.1135 170.724 62.721 169.716 61.938Z" style="fill: var(--il-outline);"/>
</g>
<g id="Group_56">
<path id="vec55" d="M161.699 68.2295C161.616 68.2129 161.534 68.1922 161.452 68.1705C161.087 68.367 160.597 68.2967 160.3 68.004C160.231 67.9347 160.174 67.8581 160.13 67.7785C159.482 67.4868 158.457 67.5178 158.261 66.6768C157.718 66.6417 157.258 66.1751 157.294 65.6331C153.62 65.6455 149.951 66.4565 146.385 67.193C145.998 67.4319 145.476 67.3906 145.14 67.0585C144.215 65.9269 145.548 65.1449 146.623 65.1211C149.619 64.4787 152.493 63.9563 155.524 63.7008C159.203 63.404 162.869 64.126 166.05 66.0272C167.132 66.3913 167.577 67.8509 166.232 68.185C165.351 68.1881 164.548 67.674 163.696 67.5457C163.431 68.3639 162.403 68.426 161.699 68.2295Z" style="fill: var(--il-outline);"/>
</g>
<g id="Group_57">
<path id="vec56" d="M183.309 71.7478C182.946 65.7431 180.257 61.6934 174.223 60.3228C173.018 60.3921 172.7 58.6667 173.89 58.3522C178.105 58.7846 182.45 61.6509 184.005 65.6986C184.258 67.0526 186.519 72.5826 184.288 72.717C183.763 72.717 183.305 72.2764 183.309 71.7478Z" style="fill: var(--il-outline);"/>
</g>
</g>
<g id="White-Outlines">
<g id="Group_58">
<g id="Group_59">
<path id="vec57" d="M132.575 107.319C132.558 106.787 132.991 106.334 133.525 106.314C139.011 106.187 144.57 106.022 149.94 104.8C155.556 103.339 160.599 100.102 164.665 96.0786C168.789 92.5119 170.74 86.8527 169.791 81.5017C169.417 81.0093 169.423 80.2739 169.983 79.9242C171.114 79.2798 171.789 80.7486 171.838 81.6858C172.925 89.3011 169.107 95.489 163.236 99.9855C157.449 104.986 149.944 107.534 142.357 107.837C139.436 108.104 136.51 108.218 133.577 108.269C133.051 108.29 132.59 107.849 132.575 107.319Z" style="fill: var(--il-highlight);"/>
</g>
<g id="Group_60">
<path id="vec58" d="M113.874 97.8337C112.009 96.9265 118.542 89.9236 119.378 88.5933C124.09 83.1989 129.098 77.6224 136.021 75.146C137.191 74.6185 138.031 76.3852 136.853 76.9438C128.693 80.0057 123.118 87.0924 117.859 93.7043C116.892 94.9404 116.067 96.2728 115.24 97.5999C114.954 98.0509 114.293 98.1347 113.874 97.8337Z" style="fill: var(--il-highlight);"/>
</g>
<g id="Group_61">
<path id="vec59" d="M114.596 111.732C112.964 110.779 114.995 108.831 115.643 107.805C120.569 100.304 129.205 96.0503 137.931 94.8783C139.184 94.7015 139.503 96.6027 138.239 96.8106C129.378 97.8957 121.028 102.559 116.349 110.24C115.973 110.945 115.623 112.125 114.596 111.732Z" style="fill: var(--il-highlight);"/>
</g>
<g id="Group_62">
<path id="vec60" d="M149.094 88.0174C148.896 87.5085 149.155 86.923 149.66 86.7213C155.133 84.638 158.629 79.3077 160.339 73.936C160.565 73.455 161.127 73.213 161.624 73.4312C162.109 73.6412 162.351 74.2308 162.133 74.716C161.375 76.7941 160.649 78.8888 159.43 80.7528C158.586 82.6519 150.84 90.7472 149.094 88.0174Z" style="fill: var(--il-highlight);"/>
</g>
<g id="Group_63">
<path id="vec61" d="M144.477 78.457C144.255 77.9232 144.513 77.3408 144.78 76.8764C146.362 74.2304 148.711 72.1005 151.468 70.7351C152.584 70.1351 153.528 71.8036 152.421 72.4357C151.864 72.7263 151.313 73.0377 150.855 73.3335C149.01 74.5148 147.447 76.173 146.381 78.0856C146.42 79.1386 144.858 79.4634 144.477 78.457Z" style="fill: var(--il-highlight);"/>
</g>
</g>
</g>
<g id="Dark-Outlines">
<g id="Group_64">
<g id="Group_65">
<path id="vec62" d="M109.001 77.0734C101.946 69.3722 92.53 63.7874 82.1125 62.3651C81.0719 62.8616 80.1771 61.3576 81.0595 60.6397C81.5405 60.2197 82.2635 60.3852 82.8376 60.4701C87.1294 61.1435 91.2629 62.4468 95.1864 64.3046C98.7261 66.1779 102.32 68.0275 105.247 70.81C107.022 72.432 108.8 74.0498 110.464 75.7886C110.815 76.1848 110.771 76.8148 110.375 77.1623C109.976 77.513 109.354 77.4747 109.001 77.0734Z" style="fill: var(--il-ne-outline);"/>
</g>
<g id="Group_66">
<path id="vec63" d="M52.5207 79.1566C49.9988 73.966 45.7288 70.0383 42.2935 65.5076C39.5523 61.3193 36.3622 56.8838 36.0467 51.7283C35.9515 49.7101 36.2236 47.6568 36.6529 45.7297C36.7025 45.2249 37.139 44.8215 37.6511 44.8236C38.461 44.8029 38.8344 45.7421 38.5531 46.3742C36.6229 53.1733 39.8895 58.3464 43.4737 63.776C44.7316 65.9907 56.8124 78.2505 53.8013 79.678C53.3265 79.8797 52.7069 79.6542 52.5207 79.1566Z" style="fill: var(--il-ne-outline);"/>
</g>
<g id="Group_67">
<path id="vec64" d="M89.4041 202.82C85.1331 200.675 81.0058 197.829 76.8702 195.474C72.9901 193.304 69.1152 191.123 65.4307 188.629C56.8523 183.393 48.8512 177.288 40.3018 172.022C33.1261 167.013 26.1459 161.718 19.4606 156.069C12.7628 150.668 6.908 144.172 3.18103 136.359C0.467775 129.656 -1.34554 121.934 1.27359 114.927C1.87354 113.86 2.37523 110.699 3.98891 111.364C4.47404 111.614 4.63541 112.2 4.40474 112.681C3.75203 113.955 3.20482 115.186 2.77244 116.535C1.51046 120.772 1.77423 124.841 2.89036 129.042C3.77064 133.587 5.79809 137.667 8.36859 141.47C13.2686 149.055 20.6936 154.448 27.53 160.147C33.6588 164.813 39.7887 169.506 46.3872 173.497C54.6542 179.298 63.1612 184.952 71.7251 190.268C77.1236 193.311 82.4902 196.417 87.7129 199.668C88.5559 200.177 89.4238 200.646 90.3258 201.042C91.4233 201.593 90.6216 203.43 89.4041 202.82Z" style="fill: var(--il-ne-outline);"/>
</g>
<g id="Group_68">
<path id="vec65" d="M212.871 233.649C209.397 233.765 205.93 233.438 202.466 233.484C201.491 233.44 199.823 233.98 199.662 232.595C199.642 232.07 200.07 231.582 200.607 231.569C202.795 231.468 204.959 231.465 207.141 231.673C214.18 231.687 221.233 231.671 228.256 231.158C238.116 229.991 247.597 226.604 256.216 221.814C262.317 217.693 267.768 212.51 271.408 206.089C271.943 205.232 272.527 204.5 272.903 203.596C273.325 202.385 275.216 203.019 274.787 204.27C273.356 207.015 271.578 209.625 269.804 212.17C261.385 222.447 251.8 227.22 239.321 231.012C230.72 233.507 221.733 233.552 212.871 233.649Z" style="fill: var(--il-ne-outline);"/>
</g>
<g id="Group_69">
<path id="vec66" d="M298.429 106.046C298.393 106.062 298.352 106.074 298.316 106.083C298.357 106.07 298.393 106.059 298.429 106.046Z" style="fill: var(--il-ne-outline);"/>
</g>
<g id="Group_70">
<path id="vec67" d="M292.146 111.214H292.142C292.186 111.202 292.231 111.194 292.275 111.182H292.271C292.316 111.178 292.364 111.174 292.409 111.17C292.453 111.17 292.493 111.174 292.538 111.174H292.534C292.545 111.177 292.554 111.179 292.564 111.181C292.42 111.167 292.279 111.179 292.146 111.218V111.214Z" style="fill: var(--il-ne-outline);"/>
</g>
<g id="Group_71">
<path id="vec68" d="M300.32 136.733C300.328 136.749 300.337 136.77 300.344 136.786C299.936 135.832 299.589 134.847 299.262 133.864C299.278 133.904 299.29 133.942 299.302 133.982C299.133 133.44 299.003 132.891 298.881 132.333C298.89 132.373 298.898 132.418 298.906 132.458C298.764 131.78 298.671 131.097 298.595 130.41C298.599 130.45 298.603 130.495 298.607 130.535C298.554 130.01 298.506 129.476 298.51 128.946V128.959C298.538 127.99 298.675 127.019 298.87 126.066C298.874 126.054 298.874 126.042 298.877 126.025C298.991 125.533 299.112 125.039 299.241 124.551C299.347 124.207 299.464 123.867 299.593 123.532C299.576 123.573 299.561 123.613 299.544 123.653C299.754 123.125 299.973 122.591 300.203 122.065C300.348 121.743 300.506 121.423 300.627 121.092C300.963 120.147 301.079 119.112 300.935 118.114C300.846 117.487 300.607 116.893 300.284 116.357C300.038 115.948 299.694 115.637 299.314 115.358C298.732 114.938 298.05 114.655 297.35 114.513C296.958 114.437 296.562 114.373 296.163 114.396C295.985 114.409 295.807 114.437 295.629 114.465H295.621C295.479 114.158 295.305 113.858 295.14 113.576C294.736 112.889 294.203 112.211 293.512 111.782C293.52 111.73 293.528 111.677 293.536 111.624C293.528 111.665 293.52 111.709 293.512 111.749C293.552 111.524 293.601 111.301 293.665 111.083C293.787 110.687 293.944 110.307 294.105 109.932C294.207 109.709 294.315 109.491 294.429 109.273C294.502 109.152 294.578 109.031 294.663 108.913C294.873 108.639 295.108 108.38 295.338 108.125C295.366 108.093 295.39 108.065 295.419 108.033C295.407 108.048 295.39 108.065 295.379 108.081C295.682 107.753 296.013 107.45 296.352 107.16C296.579 106.973 296.817 106.808 297.064 106.651C297.241 106.541 297.427 106.437 297.617 106.339C297.844 106.242 298.073 106.157 298.312 106.085C298.587 106.004 298.866 105.939 299.148 105.895C299.613 105.826 300.085 105.794 300.559 105.774C300.963 105.765 301.367 105.782 301.77 105.818C302.232 105.879 302.688 105.964 303.148 106.064C303.168 106.071 303.191 106.078 303.211 106.082C303.21 106.082 303.21 106.081 303.209 106.081C303.21 106.081 303.211 106.082 303.212 106.082C303.217 106.083 303.222 106.084 303.226 106.085C303.224 106.085 303.221 106.085 303.218 106.084C303.225 106.087 303.232 106.089 303.237 106.089C303.856 106.242 304.474 106.424 305.068 106.642C305.064 106.638 305.056 106.638 305.047 106.63C305.06 106.638 305.076 106.642 305.088 106.647C305.113 106.659 305.141 106.666 305.165 106.675C305.145 106.67 305.128 106.663 305.108 106.659C305.512 106.82 305.912 106.994 306.3 107.196C306.458 107.289 306.611 107.386 306.766 107.487C306.773 107.495 306.777 107.499 306.785 107.503C307.004 107.673 307.213 107.851 307.423 108.033C307.557 108.158 307.686 108.291 307.811 108.425C308.252 108.921 308.708 109.423 309.1 109.956C309.202 110.11 309.295 110.271 309.38 110.437C309.646 110.97 309.888 111.511 310.09 112.073C310.179 112.332 310.257 112.599 310.317 112.865C310.325 112.909 310.337 112.954 310.345 112.995C310.337 112.966 310.333 112.938 310.325 112.913C310.402 113.297 310.446 113.689 310.478 114.081C310.474 114.036 310.471 113.996 310.467 113.952C310.482 114.125 310.49 114.299 310.495 114.477C310.499 114.598 310.499 114.72 310.499 114.841V114.857C310.499 114.893 310.499 114.93 310.495 114.966V114.986V114.975V115.015C310.442 116.065 310.281 117.103 310.026 118.13C309.844 118.865 309.622 119.613 309.314 120.308C309.335 120.268 309.351 120.227 309.371 120.187C309.351 120.24 309.327 120.291 309.307 120.34C309.319 120.308 309.335 120.276 309.347 120.24C309.323 120.296 309.295 120.353 309.27 120.409C309.274 120.405 309.278 120.397 309.282 120.389C309.049 120.874 308.782 121.342 308.523 121.811C308.543 121.775 308.568 121.734 308.587 121.698C308.474 121.9 308.365 122.106 308.244 122.309C307.945 122.818 307.569 123.27 307.234 123.751C307.167 123.848 307.112 123.947 307.075 124.051C306.698 124.507 306.327 124.968 305.982 125.444C304.979 126.822 304.086 128.272 303.311 129.791C302.842 130.716 302.409 131.666 302.082 132.653C301.751 133.643 301.516 134.665 301.338 135.691C301.249 136.208 301.164 136.729 301.124 137.255C301.099 137.6 301.105 137.949 301.125 138.296C300.839 137.783 300.557 137.27 300.32 136.733Z" style="fill: var(--il-ne-outline);"/>
</g>
<g id="Group_72">
<path id="vec69" d="M284.563 142.991C284.438 141.141 284.062 139.314 283.497 137.552C283.505 137.581 283.512 137.609 283.52 137.633C283.367 137.152 283.206 136.672 283.016 136.199C282.821 135.726 282.619 135.254 282.437 134.777C282.111 133.919 281.746 133.084 281.464 132.211C281.476 132.251 281.488 132.291 281.5 132.332C281.258 131.556 281.011 130.772 280.845 129.976C280.748 129.431 280.68 128.881 280.644 128.327V128.331C280.631 128.012 280.631 127.697 280.652 127.378C280.684 127.055 280.733 126.727 280.797 126.409C280.858 126.142 280.93 125.879 281.023 125.62C281.036 125.592 281.044 125.563 281.06 125.531C281.322 125.124 281.246 124.562 280.854 124.219C280.591 123.988 280.248 123.952 279.949 124.048C279.872 124.032 279.8 124.024 279.718 124.032C279.662 124.037 279.609 124.037 279.561 124.037C279.294 124.02 279.024 123.984 278.761 123.952C278.183 123.887 277.605 123.806 277.027 123.725C277.072 123.734 277.112 123.738 277.153 123.745C276.248 123.608 275.355 123.386 274.469 123.159C274.51 123.168 274.55 123.18 274.59 123.187C274.151 123.075 273.714 122.941 273.278 122.808C272.813 122.667 272.344 122.534 271.883 122.38C271.12 122.117 270.364 121.818 269.613 121.519C269.617 121.519 269.621 121.523 269.625 121.523C269.285 121.385 268.958 121.228 268.638 121.05C268.356 120.893 268.085 120.719 267.822 120.537C267.516 120.302 267.213 120.069 266.925 119.81C266.914 119.798 266.902 119.785 266.889 119.778C266.885 119.774 266.885 119.77 266.881 119.77C266.879 119.767 266.877 119.763 266.875 119.76C266.882 119.693 266.883 119.625 266.877 119.556C266.898 119.45 266.921 119.353 266.95 119.252C267.039 118.969 267.144 118.695 267.257 118.42C267.415 118.076 267.58 117.741 267.771 117.413C267.75 117.451 267.73 117.487 267.71 117.523C267.892 117.216 268.085 116.921 268.292 116.634C268.615 116.205 268.966 115.798 269.338 115.414C269.689 115.07 270.053 114.751 270.433 114.439C271.116 113.915 271.831 113.462 272.578 113.029C272.572 113.033 272.566 113.036 272.559 113.039C272.545 113.045 272.533 113.052 272.522 113.057C272.546 113.042 272.57 113.03 272.595 113.014C272.599 113.011 272.604 113.01 272.607 113.009C272.602 113.012 272.596 113.015 272.591 113.017C272.597 113.015 272.603 113.012 272.61 113.008C272.612 113.008 272.614 113.007 272.615 113.006C272.615 113.006 272.614 113.006 272.613 113.007C272.618 113.004 272.623 113.001 272.627 112.997C272.642 112.989 272.656 112.982 272.671 112.974C272.677 112.971 272.684 112.966 272.691 112.963C273.352 112.606 274.058 112.347 274.779 112.144C274.771 112.146 274.764 112.148 274.758 112.15C274.726 112.159 274.694 112.168 274.664 112.177C274.695 112.169 274.726 112.16 274.758 112.15C274.768 112.147 274.779 112.144 274.789 112.141C274.785 112.142 274.782 112.143 274.779 112.144C274.79 112.14 274.801 112.137 274.812 112.134C274.815 112.134 274.817 112.133 274.819 112.132C274.805 112.137 274.791 112.141 274.778 112.146C274.808 112.137 274.837 112.13 274.866 112.12C274.871 112.119 274.877 112.117 274.882 112.116C274.888 112.115 274.893 112.113 274.9 112.111C274.901 112.111 274.901 112.111 274.901 112.111C274.903 112.11 274.91 112.109 274.91 112.108C274.912 112.108 274.914 112.108 274.915 112.107C274.915 112.108 274.914 112.108 274.914 112.108C274.915 112.108 274.917 112.107 274.918 112.107C274.921 112.106 274.923 112.105 274.927 112.105C274.931 112.104 274.946 112.101 274.95 112.101C274.982 112.092 275.019 112.084 275.052 112.072C275.064 112.07 275.077 112.066 275.089 112.063C275.207 112.038 275.327 112.009 275.444 111.98C275.436 111.983 275.427 111.983 275.419 111.987C275.43 111.985 275.442 111.982 275.453 111.98C275.468 111.975 275.483 111.972 275.499 111.968C275.485 111.971 275.473 111.975 275.459 111.98C275.486 111.971 275.514 111.967 275.541 111.96C275.539 111.961 275.537 111.962 275.536 111.962C275.535 111.962 275.534 111.963 275.533 111.963C275.534 111.963 275.535 111.963 275.536 111.962C275.587 111.951 275.638 111.938 275.69 111.927C275.688 111.927 275.686 111.927 275.684 111.927C275.691 111.926 275.698 111.923 275.707 111.921C275.704 111.922 275.703 111.922 275.702 111.923C275.704 111.921 275.708 111.921 275.712 111.92C275.704 111.923 275.697 111.923 275.69 111.927C275.7 111.924 275.712 111.922 275.722 111.919C275.723 111.919 275.725 111.919 275.726 111.919H275.722C275.723 111.919 275.723 111.919 275.723 111.919C275.724 111.919 275.726 111.918 275.727 111.918C275.726 111.919 275.726 111.919 275.726 111.919L275.727 111.918C275.731 111.918 275.734 111.916 275.738 111.914C275.741 111.914 275.744 111.914 275.747 111.914C275.75 111.914 275.754 111.91 275.754 111.91C275.753 111.91 275.751 111.911 275.749 111.912L275.75 111.911C275.751 111.91 275.752 111.91 275.753 111.91H275.754C275.762 111.91 275.767 111.91 275.775 111.906C275.787 111.903 275.802 111.9 275.817 111.897C275.816 111.898 275.815 111.898 275.815 111.898C275.868 111.886 275.92 111.878 275.972 111.866C276.26 111.821 276.546 111.785 276.841 111.769C276.797 111.769 276.752 111.773 276.708 111.773C276.785 111.77 276.863 111.766 276.939 111.763C276.953 111.762 276.969 111.761 276.983 111.761H276.951H277.036C277.003 111.761 276.966 111.761 276.934 111.764C277.852 111.741 278.761 111.781 279.666 111.942C279.743 111.955 279.815 111.971 279.892 111.987C279.847 111.98 279.803 111.971 279.762 111.963C280.694 112.16 281.594 112.456 282.459 112.865C282.46 112.866 282.477 112.873 282.482 112.876H282.483C282.485 112.877 282.488 112.878 282.49 112.881C282.487 112.876 282.486 112.876 282.483 112.876C282.487 112.876 282.49 112.876 282.49 112.881H282.494C282.497 112.882 282.501 112.883 282.505 112.885C282.52 112.892 282.535 112.902 282.551 112.908C282.603 112.936 282.664 112.965 282.717 112.993C282.814 113.042 282.91 113.091 283.003 113.142C283.006 113.144 283.008 113.145 283.012 113.146C283.018 113.151 283.025 113.154 283.032 113.157C283.035 113.159 283.039 113.161 283.044 113.163C283.048 113.165 283.052 113.167 283.055 113.169C283.06 113.172 283.065 113.175 283.072 113.178C283.073 113.178 283.072 113.179 283.073 113.179C283.074 113.179 283.075 113.181 283.077 113.182C283.091 113.189 283.107 113.197 283.122 113.205C283.163 113.227 283.204 113.25 283.246 113.273C283.206 113.252 283.165 113.228 283.124 113.207C283.416 113.365 283.707 113.519 283.993 113.684C283.986 113.681 283.98 113.676 283.974 113.672C283.982 113.676 283.99 113.68 283.997 113.684C284.007 113.689 284.015 113.695 284.023 113.7C284.031 113.705 284.04 113.71 284.048 113.715C284.07 113.729 284.091 113.741 284.114 113.753C284.163 113.786 284.216 113.814 284.264 113.846C284.228 113.822 284.188 113.797 284.151 113.773C284.203 113.805 284.26 113.842 284.321 113.878C284.418 113.94 284.52 114.005 284.618 114.067C284.612 114.063 284.606 114.06 284.599 114.056C284.61 114.064 284.622 114.07 284.633 114.076C284.628 114.073 284.623 114.07 284.618 114.067C284.642 114.081 284.668 114.097 284.692 114.113C284.866 114.225 285.04 114.339 285.214 114.456C285.218 114.459 285.222 114.461 285.226 114.464C285.233 114.469 285.242 114.474 285.251 114.479C285.258 114.485 285.267 114.49 285.274 114.496C285.29 114.505 285.307 114.517 285.322 114.528C285.31 114.519 285.298 114.51 285.286 114.502C285.287 114.502 285.288 114.504 285.289 114.504C285.3 114.511 285.31 114.518 285.32 114.525C285.792 114.843 286.262 115.168 286.717 115.507C286.7 115.494 286.685 115.482 286.668 115.47C286.703 115.496 286.734 115.519 286.767 115.544C286.76 115.539 286.754 115.534 286.747 115.53C286.738 115.522 286.729 115.516 286.721 115.511C286.729 115.517 286.738 115.523 286.747 115.53C286.759 115.538 286.771 115.546 286.782 115.554C286.785 115.558 286.789 115.561 286.793 115.563C286.796 115.567 286.801 115.57 286.804 115.571C286.807 115.573 286.809 115.574 286.811 115.576C286.826 115.591 286.844 115.605 286.863 115.616C286.866 115.62 286.87 115.623 286.875 115.626C287.246 115.918 287.611 116.213 287.974 116.512C287.969 116.508 287.965 116.504 287.961 116.501C288.125 116.631 288.281 116.765 288.438 116.898C288.643 117.135 288.834 117.384 289.032 117.627C289.004 117.595 288.979 117.563 288.951 117.531C289.295 117.968 289.598 118.428 289.888 118.893H289.884C289.888 118.897 289.888 118.897 289.892 118.901C289.892 118.905 289.897 118.905 289.897 118.909C289.897 118.909 289.901 118.909 289.901 118.913C289.901 118.913 289.905 118.913 289.905 118.917C290.414 119.761 290.831 120.667 291.202 121.58C291.202 121.572 291.198 121.568 291.198 121.559C291.202 121.576 291.21 121.591 291.214 121.608C291.291 121.822 291.355 122.036 291.408 122.254C291.55 122.937 291.662 123.632 291.74 124.327C291.824 125.038 292.006 125.737 292.082 126.449C292.079 126.436 292.079 126.424 292.075 126.413C292.086 126.57 292.091 126.727 292.082 126.881C292.043 127.398 291.965 127.912 291.893 128.425C291.816 128.961 291.732 129.499 291.647 130.036V130.021C291.643 130.061 291.634 130.106 291.626 130.146V130.15C291.618 130.194 291.614 130.235 291.606 130.279C291.61 130.251 291.614 130.227 291.618 130.199C291.577 130.425 291.541 130.655 291.501 130.881C291.501 130.877 291.505 130.873 291.505 130.869C291.497 130.909 291.488 130.95 291.48 130.99C291.473 131.027 291.469 131.059 291.461 131.091V131.079C291.461 131.087 291.456 131.095 291.456 131.1C291.456 131.095 291.461 131.091 291.461 131.091C291.456 131.1 291.456 131.112 291.452 131.119C291.444 131.16 291.436 131.197 291.429 131.237C291.295 131.859 291.13 132.469 290.956 133.084C290.956 133.088 290.956 133.088 290.952 133.092C290.943 133.124 290.931 133.164 290.923 133.196C290.931 133.177 290.935 133.16 290.943 133.14C290.931 133.177 290.923 133.213 290.911 133.249C290.915 133.241 290.915 133.233 290.919 133.225C290.822 133.552 290.733 133.872 290.632 134.19C290.628 134.195 290.628 134.199 290.628 134.203C290.62 134.219 290.616 134.239 290.612 134.256C290.608 134.267 290.604 134.279 290.6 134.292C290.596 134.296 290.596 134.3 290.596 134.307C290.592 134.311 290.592 134.311 290.592 134.316C290.592 134.316 290.592 134.32 290.588 134.32C290.588 134.328 290.583 134.328 290.583 134.332H290.588C290.583 134.336 290.583 134.34 290.583 134.345C290.579 134.345 290.579 134.348 290.579 134.352C290.579 134.356 290.575 134.356 290.575 134.36V134.364C290.568 134.377 290.564 134.396 290.555 134.413V134.417C290.41 134.853 290.248 135.286 290.058 135.702C289.881 136.094 289.667 136.465 289.468 136.842C288.959 137.803 288.426 138.752 287.897 139.702C287.519 140.385 287.138 141.072 286.732 141.735C286.732 141.733 286.733 141.731 286.733 141.73C286.729 141.738 286.725 141.747 286.717 141.759C286.713 141.759 286.713 141.762 286.713 141.762C286.708 141.766 286.708 141.766 286.704 141.771C286.7 141.783 286.693 141.795 286.685 141.807C286.672 141.832 286.656 141.851 286.64 141.872H286.644C286.64 141.872 286.64 141.876 286.64 141.876C286.636 141.884 286.632 141.888 286.628 141.9C286.608 141.929 286.587 141.957 286.567 141.985C286.564 141.993 286.564 141.997 286.56 142.001C286.56 142.001 286.555 142.005 286.555 142.009C286.551 142.018 286.543 142.025 286.539 142.033C286.531 142.042 286.526 142.05 286.523 142.058V142.054C286.503 142.09 286.479 142.126 286.454 142.163C286.479 142.126 286.503 142.09 286.526 142.054C286.475 142.135 286.422 142.215 286.365 142.3V142.296C286.341 142.332 286.312 142.368 286.293 142.406C286.316 142.368 286.341 142.332 286.365 142.3C285.852 143.072 285.347 143.843 284.802 144.595C284.737 144.68 284.676 144.761 284.612 144.846C284.624 144.223 284.603 143.606 284.563 142.991Z" style="fill: var(--il-ne-outline);"/>
</g>
</g>
</g>
</g>
</g>
</g>
</g>
</g>
<defs>
<linearGradient id="paint0_linear_2429_7" x1="257.574" y1="143.954" x2="-1.73869" y2="175.499" gradientUnits="userSpaceOnUse">
<stop style="stop-color: var(--secondary-fixed);"/>
<stop offset="1" style="stop-color: var(--primary-fixed-dim);"/>
</linearGradient>
<linearGradient id="paint1_linear_2429_7" x1="222.304" y1="146.19" x2="235.965" y2="135.757" gradientUnits="userSpaceOnUse">
<stop style="stop-color: var(--primary-fixed-dim);"/>
<stop offset="1" style="stop-color: var(--primary-fixed);"/>
</linearGradient>
<linearGradient id="paint2_linear_2429_7" x1="103.08" y1="123.338" x2="83.9539" y2="121.848" gradientUnits="userSpaceOnUse">
<stop style="stop-color: var(--tertiary-fixed-dim);"/>
<stop offset="1" style="stop-color: var(--tertiary-fixed);"/>
</linearGradient>
<linearGradient id="paint3_linear_2429_7" x1="61.1025" y1="141.719" x2="94.1376" y2="117.874" gradientUnits="userSpaceOnUse">
<stop style="stop-color: var(--tertiary-fixed-dim);"/>
<stop offset="1" style="stop-color: var(--tertiary-fixed);"/>
</linearGradient>
<linearGradient id="paint4_linear_2429_7" x1="181.569" y1="185.434" x2="169.646" y2="200.834" gradientUnits="userSpaceOnUse">
<stop style="stop-color: var(--secondary-fixed);"/>
<stop offset="1" style="stop-color: var(--secondary-fixed-dim);"/>
</linearGradient>
<linearGradient id="paint5_linear_2429_7" x1="231.991" y1="42.1166" x2="224.043" y2="28.2071" gradientUnits="userSpaceOnUse">
<stop style="stop-color: var(--tertiary-fixed);"/>
<stop offset="1" style="stop-color: var(--tertiary-fixed-dim);"/>
</linearGradient>
<linearGradient id="paint6_linear_2429_7" x1="263.287" y1="70.6807" x2="325.88" y2="17.0297" gradientUnits="userSpaceOnUse">
<stop style="stop-color: var(--primary-fixed);"/>
<stop offset="1" style="stop-color: var(--primary-fixed-dim);"/>
</linearGradient>
<linearGradient id="paint7_linear_2429_7" x1="202.185" y1="26.22" x2="210.133" y2="38.3908" gradientUnits="userSpaceOnUse">
<stop style="stop-color: var(--primary-fixed);"/>
<stop offset="1" style="stop-color: var(--primary-fixed-dim);"/>
</linearGradient>
<linearGradient id="paint8_linear_2429_7" x1="228.513" y1="13.304" x2="239.194" y2="23.7361" gradientUnits="userSpaceOnUse">
<stop style="stop-color: var(--primary-fixed);"/>
<stop offset="1" style="stop-color: var(--primary-fixed-dim);"/>
</linearGradient>
</defs>
</svg>