<svg xmlns="http://www.w3.org/2000/svg" width="22" height="44" viewBox="0 0 22 44" fill="none">
    <g id="Group">
        <g id="hat">
            <path id="vec0"
                  d="M10.7749 42.5795C10.8105 42.8383 10.7666 43.0594 10.6661 43.2387C10.5789 43.4074 10.4429 43.5413 10.2846 43.6362C9.69594 43.9877 8.77808 43.8078 8.61138 42.9199C8.60859 42.9087 8.6058 42.8983 8.60301 42.8843C6.37458 29.2264 1.55712 16.026 0.274467 2.2153C-0.335823 1.48784 0.162874 0.59158 0.87918 0.400472C1.20909 0.310498 1.57945 0.364896 1.91424 0.650861C2.83211 1.58827 2.49733 3.14922 2.66612 4.35654C2.70727 4.71644 2.75328 5.07564 2.8049 5.43553C3.31963 9.19283 4.28982 12.9662 4.89453 16.644C6.90814 24.8721 9.06821 33.0834 10.5699 41.4231C10.641 41.8074 10.7087 42.1945 10.7743 42.5781L10.7749 42.5795Z"
                  style="fill: var(--il-outline);"/>
            <path id="vec1"
                  d="M21.4113 38.0572C21.5501 38.2915 21.624 38.5447 21.5856 38.823C21.5856 38.8314 21.5829 38.839 21.5829 38.8474C21.564 38.973 21.5257 39.0846 21.4713 39.1829C21.0925 39.8936 19.9508 39.9676 19.5316 39.1662C19.4633 39.0085 19.3928 38.853 19.3244 38.6947C19.3028 38.6431 19.2784 38.5907 19.254 38.5391C19.2373 38.4959 19.2184 38.452 19.1968 38.408C17.5319 34.6235 15.791 30.8641 13.9874 27.1313C10.454 19.7994 6.68551 12.5687 2.80616 5.43631C2.09265 4.12296 1.37564 2.8124 0.653757 1.50743C0.49822 1.1015 0.615399 0.689988 0.879742 0.401234C1.16571 0.0741187 1.63439 -0.100244 2.09194 0.0608727C2.59063 0.19688 2.8494 0.689992 3.0698 1.11266C8.31969 11.3272 13.9846 21.405 18.6598 31.8971C19.6516 33.9023 20.529 36.0136 21.4113 38.0572Z"
                  style="fill: var(--il-outline);"/>
            <path id="vec2"
                  d="M21.3949 38.5692C21.4709 38.7492 21.5037 38.9563 21.4709 39.1823C21.4653 39.2179 21.4597 39.2534 21.4521 39.2911C21.1445 39.8554 20.6402 40.3701 20.0083 40.836C17.6759 42.5469 13.5783 43.5603 10.8511 43.6343C10.6551 43.6399 10.464 43.6399 10.2848 43.6371C10.0993 43.6315 9.92488 43.6238 9.75889 43.6071C9.14581 43.5011 8.83822 43.1223 8.77544 42.708C8.66385 41.9994 9.26577 41.1847 10.282 41.4303C10.3775 41.4303 10.4752 41.4275 10.5707 41.4247C13.6278 41.3347 16.7148 40.4601 19.2132 38.678C19.2243 38.6292 19.2404 38.5825 19.2543 38.5392C19.2731 38.4904 19.2927 38.4437 19.3143 38.4004C19.5075 38.0084 19.8618 37.8341 20.2294 37.8313C20.7037 37.8257 21.1996 38.1089 21.3956 38.5699L21.3949 38.5692Z"
                  style="fill: var(--il-outline);"/>
            <path id="vec3"
                  d="M5.89748 27.5141C5.25162 26.9178 5.53897 25.6198 5.35275 24.8874C5.2544 22.9596 4.51437 21.0269 4.47601 19.1368C3.57557 18.8668 3.47514 17.5688 4.26607 17.0973C6.01046 16.2625 7.6565 18.2091 8.33096 19.6313C9.66243 21.7788 9.56339 24.7758 8.05057 26.8048C7.59023 27.5169 6.68772 28.2102 5.89748 27.5141Z"
                  style="fill: var(--il-outline);"/>
            <path id="vec4"
                  d="M20.3052 36.9697C20.4057 37.3073 20.3625 37.5989 20.2292 37.8304C20.1776 37.926 20.1065 38.0131 20.0249 38.0864C19.8993 38.2008 19.7445 38.288 19.575 38.3424C19.4906 38.3724 19.4034 38.3912 19.3134 38.3996C19.2751 38.4051 19.2346 38.4079 19.1963 38.4079C18.8691 38.4212 18.5288 38.318 18.2561 38.0724C14.6355 36.372 11.3713 31.8552 13.4282 27.8607C13.5021 27.5531 13.7064 27.286 13.9868 27.1305C14.0852 27.0789 14.194 27.0377 14.3084 27.0161C15.1418 26.7985 15.9293 27.7547 15.5673 28.5171C15.9788 28.7654 16.1532 29.4817 16.2836 29.8032C17.1199 31.844 17.869 33.9525 19.1168 35.7889C19.4195 36.3176 20.1274 36.3281 20.3045 36.9683L20.3052 36.9697Z"
                  style="fill: var(--il-outline);"/>
            <path id="vec5"
                  d="M19.1962 38.4088C19.2179 38.452 19.2374 38.496 19.2534 38.5399C19.2402 38.5832 19.2234 38.6299 19.2123 38.6787C16.7139 40.4608 13.6269 41.3354 10.5699 41.4254C9.72243 36.7174 8.66576 32.0506 7.54003 27.3971C7.73881 27.2255 7.91319 27.0155 8.0492 26.8056C9.56132 24.7787 9.66177 21.7789 8.32959 19.6321C7.74371 18.4003 6.43037 16.7766 4.9566 16.9049C4.93777 16.8178 4.91546 16.7334 4.89383 16.6462C4.28912 12.9677 3.31894 9.19436 2.8042 5.43777C6.68355 12.5708 10.452 19.8016 13.9854 27.1327C13.705 27.2883 13.5007 27.5554 13.4267 27.863C11.3699 31.8574 14.6333 36.3742 18.2546 38.0747C18.5273 38.3202 18.8677 38.4234 19.1948 38.4102L19.1962 38.4088Z"
                  style="fill: var(--tertiary-fixed-dim);"/>
        </g>
    </g>
</svg>