<svg xmlns="http://www.w3.org/2000/svg" width="369" height="237" viewBox="0 0 369 237" fill="none">
<g id="contacts-import" clip-path="url(#clip0_2414_1156)">
<g id="Group">
<g id="contacts">
<g id="FL">
<g id="Group_2">
<g id="Group_3">
<path id="vec0" d="M285.518 60.1124C285.55 60.0919 285.586 60.0724 285.622 60.0519C285.578 60.0448 285.537 60.0325 285.494 60.0202C285.501 60.0478 285.51 60.0806 285.518 60.1124ZM310.818 79.1677C310.589 79.0877 310.345 79.0908 310.128 79.1718C307.053 78.2988 303.904 77.6789 300.696 77.6861C300.035 77.6267 296.497 77.5386 292.652 77.6707C292.42 77.7066 292.178 77.7066 291.95 77.7261C291.882 77.7302 291.814 77.7343 291.745 77.7425C291.69 77.7466 291.633 77.7507 291.577 77.7547C291.256 77.7742 290.931 77.7947 290.607 77.8224C290.333 77.8388 290.061 77.8541 289.784 77.8705C289.624 77.8746 289.46 77.8828 289.296 77.8869C289.191 77.8869 289.075 77.891 288.955 77.891C288.898 77.891 288.842 77.891 288.786 77.8869C286.32 78.0908 284.094 78.4269 282.831 78.9627C282.35 76.7302 281.776 74.3162 281.174 72.055C279.543 66.5355 278.136 60.9771 276.451 55.4659C278.74 55.1892 281.05 54.9853 283.372 54.8573C283.38 54.8532 283.393 54.8491 283.401 54.8532C283.445 54.8491 283.492 54.845 283.541 54.845C283.93 54.8337 284.315 54.8337 284.704 54.8337C284.985 54.8409 285.269 54.8409 285.55 54.8573C285.534 54.8255 285.518 54.7897 285.501 54.7569C292.515 54.5007 299.589 54.9618 306.447 56.3983C308.231 63.9146 309.659 71.5027 310.818 79.1677Z" fill="url(#paint0_linear_2414_1156)"/>
</g>
<g id="Group_4">
<path id="vec1" d="M318.204 139.726C317.983 139.67 317.754 139.694 317.554 139.786C316.881 139.43 315.774 139.538 315.101 139.261C312.341 138.885 309.566 138.381 306.783 138.261C306.607 138.281 306.426 138.273 306.254 138.253V138.249C306.102 138.233 305.957 138.209 305.805 138.186C305.7 138.169 305.596 138.161 305.484 138.145C305.435 138.182 305.384 138.213 305.332 138.237C305.283 138.261 305.235 138.281 305.187 138.297C305.087 138.329 304.978 138.346 304.871 138.354C304.818 138.361 304.766 138.361 304.714 138.361C304.578 138.361 304.45 138.346 304.321 138.337C304.313 138.337 304.305 138.337 304.301 138.333C304.297 138.329 304.289 138.329 304.28 138.329V138.333C304.189 138.321 304.097 138.31 304.004 138.293C303.639 138.317 303.274 138.354 302.91 138.401C300.182 138.698 297.291 138.425 294.584 139.078C294.1 137.369 293.818 135.608 293.249 133.918C291.925 128.744 290.963 123.473 289.796 118.262C292.84 117.377 296 117.101 299.196 117.109C299.204 117.133 299.208 117.161 299.216 117.185C299.32 117.161 299.425 117.149 299.529 117.153C299.85 117.113 300.186 117.145 300.508 117.149C300.736 117.157 300.969 117.153 301.202 117.178C301.198 117.169 301.198 117.157 301.193 117.149C304.541 117.262 307.906 117.602 311.218 117.793C311.944 117.802 312.859 117.957 313.673 118.129C313.44 118.902 314.009 119.971 314.121 120.735C315.77 126.995 316.977 133.378 318.204 139.726Z" fill="url(#paint1_linear_2414_1156)"/>
</g>
<g id="Group_5">
<path id="vec2" d="M319.455 104.037L319.451 104.041C319.07 103.982 318.697 103.921 318.412 103.789C312.269 102.265 305.977 101.868 299.674 101.612C298.947 101.636 298.225 101.681 297.499 101.732C297.495 101.716 297.491 101.704 297.488 101.688C297.131 101.721 296.774 101.756 296.417 101.792C296.136 101.82 295.839 101.876 295.551 101.889C295.551 101.893 295.555 101.901 295.555 101.904C294.255 102.029 292.96 102.168 291.665 102.281C291.632 102.285 291.601 102.285 291.569 102.292C291.116 99.9674 290.482 97.6775 289.852 95.3886C288.874 91.4019 287.651 87.4798 286.745 83.4818C286.516 82.405 286.52 81.1929 285.847 80.2759C285.818 80.2441 285.79 80.2124 285.758 80.1796C287.225 79.8958 288.725 79.7954 290.233 79.7359C290.233 79.7472 290.237 79.7636 290.241 79.7759C290.298 79.7718 290.349 79.7759 290.406 79.7759H291.087C291.28 79.7677 291.472 79.7759 291.665 79.7759C291.79 79.7759 291.918 79.7677 292.042 79.7677H292.23C292.223 79.7359 292.215 79.7032 292.206 79.6714C293.056 79.6519 293.906 79.6191 294.749 79.5597C299.958 79.4275 305.039 79.5597 310.075 81.1601C310.296 81.2042 310.493 81.1806 310.653 81.1089C311.507 81.2042 312.454 80.7759 312.706 79.9316C312.822 78.7032 312.586 77.5505 312.365 76.3661C312.742 76.3497 313.123 76.4019 313.504 76.4778C313.909 77.9747 314.246 79.3036 314.467 80.8886C316.066 88.6324 317.534 96.365 319.455 104.037Z" fill="url(#paint2_linear_2414_1156)"/>
</g>
<g id="Group_6">
<path id="vec3" d="M323.028 141.575C324.099 147.403 325.879 153.05 327.063 158.845C323.682 158.365 320.218 157.844 316.785 157.825C314.904 157.957 312.931 157.884 310.974 157.928C310.958 157.86 310.942 157.789 310.926 157.72C310.793 157.756 310.657 157.785 310.524 157.816C310.368 157.865 310.204 157.9 310.04 157.928C310.019 157.932 310 157.936 309.975 157.94C309.891 157.961 309.807 157.98 309.719 157.997C309.679 158.005 309.634 158.008 309.59 158.012C309.55 158.016 309.506 158.02 309.466 158.02H309.458C309.405 158.02 309.354 158.016 309.302 158.008C309.258 158.001 309.218 157.993 309.173 157.976C309.113 157.984 309.053 157.993 308.993 158.001C308.993 158.008 308.997 158.016 308.997 158.024C307.373 158.161 305.785 158.461 304.305 159.109C302.978 152.885 301.005 146.818 299.678 140.594C299.673 140.571 299.665 140.543 299.657 140.518C300.805 140.491 301.951 140.462 303.09 140.327C303.635 140.266 304.181 140.226 304.73 140.21C304.739 140.25 304.75 140.294 304.758 140.334C304.87 140.279 304.995 140.243 305.131 140.226C305.307 140.21 305.484 140.234 305.66 140.243C305.725 140.243 305.781 140.25 305.837 140.258C305.853 140.258 305.869 140.258 305.885 140.25C306.117 140.25 306.374 140.25 306.582 140.338C306.655 140.367 306.719 140.403 306.779 140.442C306.759 140.367 306.744 140.287 306.723 140.21C309.839 140.319 312.971 140.898 316.011 141.419C316.299 141.507 316.652 141.579 316.985 141.579C317.161 141.579 317.338 141.559 317.491 141.507C317.534 141.531 317.578 141.551 317.622 141.567C320.927 142.752 320.182 139.262 319.656 136.865C320.426 136.909 321.143 136.945 321.89 137.048C321.785 137.348 321.85 137.701 322.038 137.953C322.407 139.154 322.74 140.358 323.028 141.575Z" fill="url(#paint3_linear_2414_1156)"/>
</g>
<g id="Group_7">
<path id="vec4" d="M335.01 182.246C333.708 181.73 331.67 180.718 330.603 181.07C330.283 181.033 329.982 180.993 329.737 180.913C325.394 180.089 320.918 179.937 316.496 180.201C316.444 180.225 316.387 180.245 316.332 180.265H316.323C316.195 180.305 316.071 180.305 315.943 180.298C315.903 180.294 315.863 180.289 315.818 180.281C315.782 180.289 315.75 180.298 315.714 180.305C315.606 180.325 315.497 180.345 315.393 180.357C315.333 180.369 315.269 180.378 315.205 180.382C315.144 180.389 315.084 180.397 315.02 180.405C314.924 180.426 314.836 180.441 314.748 180.453C314.659 180.466 314.571 180.473 314.483 180.473C314.447 180.473 314.415 180.47 314.378 180.466V180.47C314.266 180.462 314.158 180.433 314.05 180.386C313.604 180.43 313.155 180.473 312.71 180.521C312.674 180.529 312.638 180.537 312.598 180.55C312.558 180.289 312.486 180.033 312.426 179.805C310.793 173.506 309.535 167.11 307.922 160.802C307.87 160.57 307.762 160.398 307.621 160.281C308.235 160.174 308.853 160.086 309.474 160.014C309.486 160.077 309.502 160.138 309.518 160.201C309.939 159.93 310.557 159.874 311.03 159.926C311.106 159.934 311.178 159.949 311.25 159.966C311.315 159.97 311.378 159.974 311.443 159.981C311.451 159.981 311.46 159.985 311.467 159.985C311.455 159.934 311.443 159.882 311.431 159.83C316.704 159.462 322.106 160.077 327.279 160.814C327.379 160.898 327.496 160.959 327.624 161.003C329.762 161.494 329.148 159.25 328.939 157.98C328.763 157.188 328.571 156.395 328.369 155.603C328.811 155.687 329.264 155.727 329.601 155.792C331.538 164.592 334.397 173.217 335.01 182.246Z" fill="url(#paint4_linear_2414_1156)"/>
</g>
<g id="Group_8">
<path id="vec5" d="M301.654 200.757C302.22 204.768 300.399 209.754 296.557 211.331C296.53 211.331 296.502 211.331 296.469 211.339C295.896 211.451 295.326 211.571 294.753 211.692C294.729 211.651 294.697 211.619 294.661 211.579C294.62 211.604 294.58 211.619 294.536 211.635C294.356 211.699 294.167 211.747 293.983 211.795C293.69 211.875 293.33 212.003 293 211.995C292.996 212.011 292.989 212.035 292.989 212.06C289.379 212.812 285.762 213.597 282.149 214.349C261.449 218.695 240.717 223.082 220.032 227.412C219.828 227.38 219.591 227.42 219.342 227.557C219.25 227.58 219.155 227.596 219.062 227.62C218.993 227.628 218.926 227.645 218.862 227.66H218.842C216.768 227.869 214.523 227.901 213.199 226.003C210.669 222.706 209.626 218.487 208.142 214.653C208.058 214.437 207.934 214.293 207.789 214.189C206.912 210.531 206.033 206.865 205.151 203.198C200.607 184.243 196.06 165.305 191.521 146.358C193.017 147.175 194.488 148.015 195.916 148.911C201.354 170.844 206.771 192.809 212.221 214.749C212.278 214.725 212.337 214.701 212.394 214.685C212.417 214.766 212.442 214.845 212.461 214.925C212.743 216.093 213.067 217.319 213.66 218.392C214.394 220.072 215.369 221.793 217.089 222.61C217.996 223.058 218.882 223.811 219.952 223.746C220.381 223.786 221.011 223.771 221.585 223.634C221.589 223.65 221.589 223.674 221.593 223.69C238.374 220.12 255.185 216.622 271.98 213.076C278.749 211.635 285.526 210.242 292.295 208.801C292.648 208.722 292.912 208.442 293.004 208.113C295.514 206.513 297.107 203.607 297.612 200.661C297.672 200.013 297.841 199.269 297.668 198.628C297.68 198.524 297.672 198.412 297.649 198.308C297.147 196.315 296.658 194.321 296.168 192.336C293.374 181.041 290.574 169.755 287.783 158.46C279.177 123.681 270.536 88.9012 261.962 54.1134C261.818 53.6011 261.71 53.0724 261.577 52.5601C261.497 52.3357 261.361 52.1841 261.201 52.0877C259.929 48.6779 256.392 46.0847 252.715 46.7732C252.37 46.7251 251.977 46.8132 251.648 46.9166C247.502 47.7978 243.351 48.6697 239.205 49.5427C230.635 51.3429 222.07 53.1523 213.5 54.9535C205.348 56.6666 197.195 58.3879 189.043 60.1C187.038 60.517 185.032 60.9412 183.027 61.3654C182.915 61.3808 182.803 61.4053 182.682 61.4371C181.908 61.5969 181.131 61.765 180.357 61.9258C179.843 62.0375 179.526 62.598 179.646 63.0939C179.663 63.1584 179.683 63.2219 179.707 63.2701C178.977 63.9187 178.4 64.5754 178.199 64.9832C176.924 68.0006 177.457 71.435 178.079 74.5651C176.852 74.5805 175.601 74.5323 174.281 74.4371C173.619 71.6748 172.974 68.9135 172.304 66.1594C172.513 65.768 172.328 65.2793 172.224 64.8387C172.281 63.1584 173.034 61.4053 174.425 60.3408C175.533 59.516 176.555 58.6994 177.898 58.2435C178.487 58.0672 179.358 58.0672 179.683 57.5549C181.624 57.1472 183.561 56.7301 185.498 56.3224C194.119 54.5047 202.737 52.6964 211.359 50.8787C223.827 48.2537 236.306 45.6359 248.773 43.0109C250.774 42.5939 252.779 42.1697 254.78 41.7456C254.768 41.722 254.752 41.7056 254.74 41.682C254.732 41.6656 254.72 41.6503 254.707 41.6257C255.245 41.554 255.771 41.5621 256.284 41.6257C256.284 41.6339 256.288 41.6421 256.288 41.6421C256.296 41.6738 256.312 41.6974 256.324 41.722L256.333 41.7302L256.392 41.7456L256.449 41.762L256.508 41.7784L256.569 41.7937L256.629 41.8101L256.685 41.8255L256.729 41.8419H256.745L256.802 41.8665L256.914 41.8982L256.966 41.9136L257.018 41.9382L257.07 41.9536L257.122 41.9781L257.17 41.9945L257.223 42.0181L257.271 42.0345L257.322 42.0581L257.375 42.0744L257.423 42.098L257.475 42.1216L257.527 42.1462L257.583 42.1697L257.635 42.1943L257.688 42.2097L257.744 42.2343L257.8 42.2661H257.808L257.86 42.2906L257.916 42.3142L257.976 42.3378L258.033 42.3624L258.092 42.3859L258.149 42.4105L258.213 42.4341L258.333 42.4822L258.393 42.5068L258.458 42.5304L258.521 42.554L258.586 42.5786L258.645 42.6021L258.71 42.6267L258.83 42.6749L258.887 42.6902L258.999 42.7384L259.051 42.7548L259.147 42.7865L259.196 42.8101L259.24 42.8265L259.287 42.8429L259.327 42.8501L259.371 42.8665L259.412 42.8829L259.44 42.8982C262.745 45.14 265.162 49.7906 266.06 53.0888C266.121 53.2886 266.225 53.4402 266.349 53.5447C278.151 102.605 289.868 151.697 301.654 200.757Z" fill="url(#paint5_linear_2414_1156)"/>
</g>
<g id="Group_9">
<path id="vec6" d="M244.081 118.558C246.715 123.817 243.295 130.309 239.133 133.871C238.423 134.327 237.629 134.871 236.851 135.255C236.695 135.295 236.554 135.383 236.445 135.496C235.904 135.152 235.363 134.823 234.821 134.495C234.661 134.214 234.389 134.079 234.104 134.054C227.9 130.285 221.572 126.666 215.156 123.281C209.266 120.339 203.174 117.814 197.01 115.508C193.209 114.1 189.508 112.29 185.421 111.898C184.146 111.738 183.933 113.643 185.164 113.819C186.468 113.999 187.747 114.283 189.003 114.64C188.565 114.732 188.132 114.843 187.703 114.956C186.805 115.284 184.856 115.011 184.976 116.453C185.12 117.061 185.574 117.261 186.155 117.261C187.198 117.261 188.645 116.613 189.415 116.557C190.598 116.221 191.934 116.285 193.129 116.141C193.169 116.124 193.205 116.109 193.237 116.084C196.156 117.213 199.027 118.509 201.979 119.506C212.894 123.72 223.02 129.676 233.045 135.696C233.439 142.564 229.392 156.156 221.604 157.044C221.576 156.635 221.344 156.331 220.851 156.163C220.794 156.156 220.735 156.148 220.678 156.148C220.622 156.148 220.57 156.156 220.514 156.163C217.535 152.289 213.019 149.824 209.021 147.151C200.708 141.09 190.995 137.601 181.664 133.47C175.905 130.277 169.397 125.306 167.22 118.838C166.357 115.973 166.225 112.922 166.662 109.961C166.799 109.985 166.935 109.993 167.071 109.993C171.041 109.993 176.306 101.692 173.596 98.7943C175.207 97.7544 176.964 96.8978 178.7 96.1294C182.402 94.0884 186.653 94.5525 190.703 94.8722C203.663 95.5843 215.995 100.604 227.487 106.351C233.186 109.453 238.315 113.515 243.207 117.741C243.271 117.797 243.343 117.837 243.416 117.869C243.476 118.158 243.684 118.414 244.081 118.558Z" fill="url(#paint6_linear_2414_1156)"/>
</g>
<g id="Group_10">
<path id="vec7" d="M213.805 152.665C213.744 152.761 213.7 152.866 213.681 152.986C213.464 153.778 213.432 154.571 213.087 155.347C211.952 156.756 209.943 157.556 208.159 157.468C205.664 153.274 201.618 150.424 197.596 147.775C197.44 147.462 197.155 147.311 196.862 147.294C196.694 147.182 196.529 147.071 196.361 146.966C188.152 141.827 178.777 138.505 171.751 131.621C169.51 129.733 168.246 126.963 167.688 124.097C170.623 128.419 175.188 131.837 179.519 134.527C189.303 139.202 199.753 142.604 208.548 149.16C210.344 150.28 212.105 151.417 213.805 152.665Z" fill="url(#paint7_linear_2414_1156)"/>
</g>
<g id="Group_11">
<path id="vec8" d="M240.011 135.624C239.987 135.8 239.987 135.984 240.003 136.152C239.979 136.432 239.943 136.777 239.955 137.096C239.923 137.233 239.927 137.384 239.971 137.545C238.88 145.421 236.218 154.202 229.857 159.429C229.585 159.541 229.304 159.725 229.003 159.677C228.799 159.461 228.562 159.238 228.289 159.15C227.555 158.613 226.854 158.044 226.14 157.476C226.112 157.452 226.084 157.428 226.056 157.404C231.899 153.554 234.95 143.652 235.023 136.888C235.355 137.081 235.684 137.281 236.017 137.481C236.245 137.785 236.519 137.913 236.779 137.913C237.26 137.913 237.709 137.497 237.785 137.016C238.543 136.72 239.382 136.032 240.011 135.624Z" style="fill: var(--tertiary-fixed);"/>
</g>
<g id="Group_12">
<path id="vec9" d="M250.509 127.907C250.518 128.059 250.573 128.22 250.682 128.38C250.196 130.332 249.539 132.27 248.28 133.879C247.526 134.831 246.723 135.751 245.902 136.656C244.763 135.888 243.616 135.063 242.449 134.343C242.261 134.231 242.072 134.111 241.884 133.991C244.346 131.43 246.13 128.18 246.723 124.714H246.756C248.048 125.706 249.226 126.87 250.509 127.907Z" style="fill: var(--primary-fixed);"/>
</g>
<g id="Group_13">
<path id="vec10" d="M201.578 67.4802C203.065 67.4802 204.161 68.5376 204.265 71.6349C204.016 74.6851 201.706 77.1339 199.545 79.1113C195.45 82.9771 190.185 84.9628 184.703 86.0273C183.769 86.2035 182.843 86.2834 181.917 86.2834C181.215 83.098 180.693 79.8152 180.264 76.5734C180.268 76.5581 180.268 76.5417 180.268 76.5253C182.361 76.3818 184.427 75.973 186.444 75.0765C189.367 73.8921 192.202 72.4597 194.882 70.7866C196.874 69.3778 199.581 67.4802 201.578 67.4802Z" style="fill: var(--il-highlight);"/>
</g>
<g id="Group_14">
<path id="vec11" d="M156.312 70.9708C155.899 70.5948 155.262 70.6583 154.888 71.0589C148.665 74.8693 137.604 70.0179 135.595 63.1183C134.982 60.8048 134.128 57.6747 135.961 55.6173C136.321 55.5456 136.574 55.2741 136.687 54.9452C139.754 56.6501 142.762 58.4513 145.657 60.477C148.701 62.5978 153.733 66.6644 156.312 70.9708Z" style="fill: var(--secondary-fixed);"/>
</g>
<g id="Group_15">
<path id="vec12" d="M164.24 54.6417C165.495 58.3794 164.593 62.7257 163.502 66.4798C162.832 67.8886 161.874 69.1458 160.623 70.2339C160.161 70.9142 159.588 71.4511 158.863 71.7472C158.333 70.5781 157.668 69.4736 156.99 68.4736C150.217 59.3476 139.606 54.2892 129.789 49.0464C128.662 48.4942 127.523 47.9655 126.408 47.3887C126.084 46.9163 125.39 46.653 124.885 46.445C123.313 45.8917 121.841 45.1479 120.341 44.443C117.667 43.403 114.711 43.1551 111.863 43.235C105.367 43.8589 98.9467 45.444 92.6394 47.0772C88.2117 48.6376 83.785 50.2063 79.342 51.7278C78.492 52.1837 75.6924 52.5198 74.8506 53.4481C70.3552 55.194 68.109 60.0607 65.5549 63.903C61.5604 70.2585 58.108 76.9265 55.0765 83.8097C52.3334 89.5248 49.4467 95.2 47.2847 101.172C47.141 102.349 45.3003 104.862 46.9038 105.502C47.4017 105.655 47.9581 105.359 48.1152 104.854C49.8594 99.1231 52.4618 93.6078 55.1011 88.2041C58.9344 80.1037 62.6312 71.9152 67.5321 64.3825C69.9702 60.8128 71.9628 56.0577 76.5907 54.9532C77.0198 54.8415 77.3042 54.6335 77.4695 54.3856C77.5608 54.3528 77.6491 54.3374 77.7333 54.321C82.5295 52.7606 87.2775 51.0475 92.0419 49.3743C94.7603 48.3251 97.6481 47.821 100.499 47.2206C104.814 46.3323 108.968 45.1315 113.44 45.1796C117.049 45.0833 120.313 46.5567 123.549 48.0055C123.614 48.0772 123.694 48.1499 123.786 48.1971C124.207 48.4214 124.628 48.6376 125.053 48.8538C125.093 48.8856 125.137 48.9102 125.181 48.9255C125.194 48.9337 125.206 48.9337 125.221 48.9419C128.438 50.6069 131.669 52.2319 134.854 53.9532C134.26 54.4255 133.795 55.2821 133.51 55.8497C132.175 59.0679 133.27 62.7974 134.605 65.8394C137.536 70.9388 143.46 74.0607 149.27 74.2605C150.798 74.6048 157.519 73.5802 156.464 71.2267C158.473 74.7246 158.814 78.3589 155.112 81.2164C152.775 83.7461 150.02 86.3476 146.471 86.8916C140.035 88.2605 133.434 87.0361 127.603 83.9859C124.897 82.5617 122.017 81.4326 119.434 79.7677C118.961 79.5115 118.508 79.199 118.043 78.9111C117.814 78.4306 117.197 78.0791 116.579 78.199C116.436 78.1591 116.291 78.1191 116.142 78.0945C115.906 78.0791 115.685 78.1662 115.509 78.3025C112.064 78.6714 108.676 79.3834 105.272 80.0402C101.04 80.9603 95.751 81.4244 93.1886 85.3711C87.7785 93.5279 82.4053 101.804 78.7086 110.89C78.3595 111.81 78.0741 112.746 77.798 113.691C77.6614 113.803 77.5567 113.955 77.5126 114.131C76.2704 117.65 76.679 121.496 77.682 125.026C79.0289 129.068 80.6447 133.598 84.3825 136.024C87.2539 137.489 90.847 138.402 93.9709 137.249C103.122 133.407 109.462 125.282 115.71 117.917C121.319 111.31 127.623 105.238 134.81 100.316C140.512 96.1211 145.845 95.1047 150.028 96.3291C150.188 96.5053 150.364 96.6734 150.549 96.825C151.138 97.2338 151.913 97.4818 152.678 97.4982C158.129 100.803 160.583 108.712 157.399 118.085C157.13 116.241 156.42 114.347 154.824 113.267C146.407 110.025 140.039 120.543 136.133 126.483C133.463 132.366 129.525 143.18 136.991 147.014C137.653 147.222 138.314 147.246 138.96 147.134C137.356 149.007 135.64 150.777 133.932 152.562C130.932 155.763 128.341 159.325 125.438 162.615C117.831 171.861 109.778 180.889 100.547 188.574C97.3309 190.904 94.171 193.312 90.8182 195.443C90.3213 195.313 89.844 195.651 89.5596 196.082C79.2219 201.845 66.6256 203.455 54.9646 201.437C47.6296 199.877 41.1898 196.106 35.3064 191.568C35.2664 191.496 35.2182 191.431 35.1586 191.376C34.3959 190.647 33.5664 189.999 32.7687 189.319C32.6958 189.247 32.6281 189.166 32.5603 189.086C32.4679 188.983 32.355 188.903 32.2349 188.846H32.2308C31.9618 188.598 31.698 188.342 31.4444 188.078C28.3133 184.7 26.023 180.497 24.9204 176.031C20.7576 155.427 20.5811 133.71 26.4367 113.403C27.8442 107.96 30.0093 102.804 32.1866 97.6416C34.6689 90.5023 38.3821 83.9224 41.8427 77.2298C43.3426 74.3005 44.8311 71.3548 46.6071 68.5771C48.9652 65.3589 51.7206 62.4542 53.8056 59.028C58.3605 52.8159 64.131 47.6776 70.1222 42.8262C71.6621 41.6499 73.1342 40.401 74.6176 39.1602C79.5463 36.4225 84.7028 34.1571 89.9569 32.0844C94.2912 30.3078 98.5782 28.1541 103.25 27.4174C104.092 27.3139 104.934 27.2658 105.777 27.2658C109.469 27.2658 113.159 28.1705 116.696 29.2268C121.018 30.3877 125.55 31.7483 129.853 33.1807C134.092 34.7821 138.519 36.3026 142.822 38.0957C142.742 38.2555 142.709 38.4563 142.749 38.6879C142.914 42.3538 144.59 45.5956 147.017 48.3016C149.96 51.9675 153.793 55.1212 158.646 55.5536C160.121 55.6663 162.812 55.6817 164.24 54.6417Z" fill="url(#paint8_linear_2414_1156)"/>
</g>
<g id="Group_16">
<path id="vec13" d="M159.476 11.1999C164.108 17.1077 161.634 22.2225 156.649 26.8013C154.343 28.4181 151.76 29.4827 149.017 30.0595C145.982 31.0442 143.099 32.7245 139.866 32.9325C139.076 33.0605 137.701 33.0134 137.524 33.9335C133.157 32.2521 128.754 30.6753 124.247 29.3864C111.39 25.5442 104.602 22.871 91.7733 29.2347C87.9914 30.7716 84.2546 32.2849 80.5804 33.9734C80.7971 33.8372 81.0096 33.7009 81.2221 33.5575C84.0216 31.9243 86.5521 29.8833 89.3906 28.2983C96.4289 24.5196 103.739 21.246 111.05 17.996C115.665 15.7389 120.421 13.8577 125.222 12.0247C125.222 12.1088 125.234 12.201 125.258 12.2891C126.573 15.7153 132.251 16.3557 135.475 16.5637C141.39 17.1077 147.346 14.8587 152.017 11.3127C152.915 10.368 154.459 9.50323 154.976 8.25426C156.632 8.93561 158.169 9.87208 159.476 11.1999Z" fill="url(#paint9_linear_2414_1156)"/>
</g>
<g id="Group_17">
<path id="vec14" d="M163.221 52.5038C163.109 52.6483 163.037 52.8399 163.021 53.0807C158.625 54.8409 153.452 52.5438 150.469 49.1739C147.634 46.301 145.039 43.0264 144.722 38.9045C151.508 41.8819 157.859 45.6442 162.512 51.5192C162.772 51.8399 163.009 52.1678 163.221 52.5038Z" style="fill: var(--secondary-fixed);"/>
</g>
<g id="Group_18">
<path id="vec15" d="M153.112 7.59864C152.647 8.1181 152.109 8.59863 151.624 9.07097C145.4 14.5945 134.593 17.0033 127.371 12.1847C127.407 11.8087 127.295 11.5126 127.106 11.3087C127.339 11.2246 127.575 11.1283 127.811 11.0402C133.831 8.91933 140.031 6.5177 146.491 6.46134C148.688 6.66933 150.962 6.97364 153.112 7.59864Z" style="fill: var(--secondary-fixed);"/>
</g>
<g id="Group_19">
<path id="vec16" d="M136.69 3.21944C137.753 3.73993 137.906 4.74813 137.913 5.77271C125.802 9.02271 114.394 14.2655 103.038 19.5012C107.2 15.4264 111.415 11.4243 116.308 8.18254C120.273 5.61288 124.435 3.0678 129.187 2.33932C130.166 2.13133 131.225 1.97867 132.275 1.97867C133.84 1.97867 135.399 2.30756 136.69 3.21944Z" style="fill: var(--primary-fixed-dim);"/>
</g>
<g id="Group_20">
<path id="vec17" d="M155.859 121.023C155.566 121.296 155.497 121.655 155.586 121.976C153.372 126.306 150.754 130.445 148.083 134.527C146.371 137.584 144.446 140.33 142.265 143.06C142.044 143.092 141.827 143.196 141.655 143.364C140.632 144.341 139.253 145.453 137.742 145.181C136.442 144.565 135.399 143.156 134.914 141.819C134.437 139.377 134.841 136.728 135.339 134.215C136.887 127.971 140.544 122.736 144.895 118.062C146.756 116.397 149.302 114.539 151.893 114.539C152.522 114.539 153.156 114.652 153.782 114.896C155.562 116.357 155.558 118.919 155.859 121.023Z" style="fill: var(--secondary-fixed);"/>
</g>
<g id="Group_21">
<path id="vec18" d="M167.5 87.2522C167.982 89.2932 168.23 91.5503 167.584 93.5831C166.325 96.2973 163.775 98.8741 160.602 98.8987C158.602 98.8587 156.773 97.8977 155.273 96.5852C156.111 95.4643 156.653 93.5913 157.627 92.3751C160.25 89.701 163.714 87.5483 167.5 87.2522Z" fill="url(#paint10_linear_2414_1156)"/>
</g>
<g id="Group_22">
<path id="vec19" d="M180.906 92.8307C180.918 92.9352 180.946 93.0397 180.982 93.1278C180.441 93.2713 179.907 93.4557 179.382 93.6872C179.238 93.7436 179.097 93.8081 178.953 93.8635C178.949 93.7999 178.937 93.7354 178.917 93.6637C178.432 91.7426 177.986 89.8133 177.513 87.8922C178.344 88.0202 179.177 88.1401 180.012 88.2047C180.332 89.7415 180.622 91.2866 180.906 92.8307Z" style="fill: var(--primary-fixed-dim);"/>
</g>
<g id="Group_23">
<path id="vec20" d="M219.198 157.676C219.186 157.725 219.182 157.772 219.182 157.82C218.332 159.045 217.162 160.118 215.814 160.71C215.685 160.662 215.569 160.638 215.453 160.63C214.471 159.862 213.488 159.093 212.49 158.34C213.56 157.74 214.455 156.948 214.888 156.148C215.02 155.651 215.385 154.786 215.538 153.994C215.886 154.274 216.227 154.555 216.568 154.851C217.486 155.739 218.565 156.564 219.198 157.676Z" style="fill: var(--primary-fixed);"/>
</g>
</g>
</g>
<g id="Outlines">
<g id="Group_24">
<g id="Group_25">
<path id="vec21" d="M310.416 85.1212C306.86 84.0659 303.281 83.2821 299.569 83.1397C295.374 82.8395 291.032 82.7319 286.936 83.4399C286.167 84.069 284.965 83.1161 285.441 82.2278C285.677 81.8036 286.075 81.6274 286.536 81.5147C288.069 81.2237 289.64 81.0577 291.203 81.0075C295.655 80.9204 300.085 81.113 304.494 81.6192C306.677 82.0885 308.863 82.7329 311.013 83.2759C311.527 83.4122 311.796 84.0126 311.639 84.4973C311.48 84.9962 310.908 85.2934 310.416 85.1212Z" style="fill: var(--il-outline);"/>
</g>
<g id="Group_26">
<path id="vec22" d="M310.485 85.0563C309.9 84.8002 309.079 84.5706 308.835 83.9252C308.676 83.8985 308.517 83.878 308.36 83.8432C307.843 83.7254 307.398 83.3237 307.398 82.7694C300.665 81.2858 293.624 81.4508 286.816 81.9108C286.435 81.9672 285.959 82.0983 285.586 81.9661C284.715 81.7008 284.706 80.4149 285.566 80.1291C293.501 79.1844 301.655 78.878 309.543 80.0963C310.705 79.2284 311.327 80.6854 311.4 81.67C311.609 82.7459 312.258 85.1362 310.485 85.0563Z" style="fill: var(--il-outline);"/>
</g>
<g id="Group_27">
<path id="vec23" d="M316.94 145.175C313.066 144.419 309.033 143.925 305.098 144.199C303.754 144.345 302.384 144.352 301.061 144.64C300.675 144.912 300.146 144.911 299.785 144.568C299.324 144.135 299.398 143.309 299.965 142.993C298.81 143.02 297.794 141.71 298.927 140.922C299.463 140.638 300.094 140.624 300.654 140.39C303.218 139.538 305.928 139.773 308.556 139.909C311.206 139.904 313.843 140.183 316.449 140.654C316.732 140.225 317.391 140.136 317.79 140.449C318.529 141.133 318.413 142.318 318.608 143.239C318.88 144.458 318.405 145.786 316.94 145.175Z" style="fill: var(--il-outline);"/>
</g>
<g id="Group_28">
<path id="vec24" d="M326.396 163.806C320.792 162.42 314.934 162.363 309.235 163.174C308.221 164.164 306.863 162.519 307.881 161.647C306.997 161.713 306.226 160.71 306.911 159.968C308.681 158.945 310.962 159.265 312.949 159.112C317.187 158.772 321.257 159.981 325.452 159.885C325.717 159.37 326.526 159.226 326.949 159.643C327.491 160.261 327.512 161.156 327.698 161.925C328.062 162.921 327.617 164.074 326.396 163.806Z" style="fill: var(--il-outline);"/>
</g>
</g>
<g id="Group_29">
<path id="vec25" d="M285.494 60.0187C285.537 60.031 285.579 60.0422 285.622 60.0545C285.585 60.073 285.55 60.0914 285.516 60.1119C285.509 60.0822 285.501 60.0484 285.494 60.0187Z" style="fill: var(--il-outline);"/>
</g>
<g id="Group_30">
<path id="vec26" d="M290.406 79.7731C290.351 79.7731 290.296 79.7731 290.241 79.7741C290.089 79.1399 289.936 78.5037 289.785 77.8684C290.061 77.852 290.334 77.8367 290.606 77.8203C290.987 77.7926 291.369 77.7649 291.745 77.7403C291.907 78.4145 292.069 79.0918 292.231 79.766C292.167 79.767 292.105 79.768 292.042 79.77C291.918 79.77 291.789 79.7731 291.665 79.7731C291.472 79.7731 291.28 79.77 291.087 79.7731C290.915 79.7731 290.742 79.7772 290.574 79.7772C290.518 79.7772 290.462 79.7772 290.406 79.7731Z" style="fill: var(--il-outline);"/>
</g>
<g id="Group_31">
<path id="vec27" d="M295.551 101.889C295.839 101.878 296.136 101.822 296.417 101.794C296.774 101.757 297.131 101.721 297.488 101.69C298.724 106.849 299.962 112.013 301.199 117.176C300.97 117.153 300.736 117.157 300.507 117.151C300.187 117.146 299.849 117.115 299.529 117.155C299.425 117.149 299.319 117.16 299.215 117.186C297.994 112.088 296.772 106.988 295.551 101.889Z" style="fill: var(--il-outline);"/>
</g>
<g id="Group_32">
<path id="vec28" d="M306.585 140.336C306.372 140.248 306.12 140.252 305.883 140.252C305.871 140.257 305.855 140.257 305.838 140.257C305.783 140.248 305.722 140.244 305.659 140.24C305.482 140.232 305.306 140.213 305.129 140.228C304.995 140.242 304.87 140.278 304.758 140.333C304.599 139.666 304.439 138.998 304.279 138.331C304.294 138.331 304.307 138.335 304.319 138.335C304.447 138.347 304.58 138.359 304.712 138.359C304.993 138.359 305.266 138.311 305.486 138.147C305.594 138.159 305.703 138.172 305.807 138.187C305.955 138.207 306.103 138.231 306.252 138.247C306.428 138.979 306.603 139.71 306.779 140.443C306.718 140.402 306.654 140.366 306.585 140.336Z" style="fill: var(--il-outline);"/>
</g>
<g id="Group_33">
<path id="vec29" d="M308.991 158.001C309.052 157.993 309.111 157.985 309.172 157.977C309.268 158.008 309.36 158.021 309.456 158.021C309.633 158.021 309.805 157.981 309.974 157.941C309.997 157.937 310.018 157.933 310.037 157.929C310.203 157.901 310.367 157.865 310.523 157.817C310.655 157.785 310.792 157.756 310.924 157.721C311.104 158.477 311.286 159.231 311.466 159.985C311.458 159.984 311.45 159.983 311.442 159.982C311.377 159.974 311.313 159.97 311.249 159.966C311.177 159.95 311.105 159.934 311.028 159.925C310.555 159.872 309.939 159.932 309.519 160.201C309.343 159.467 309.167 158.735 308.991 158.001Z" style="fill: var(--il-outline);"/>
</g>
<g id="Group_34">
<path id="vec30" d="M233.724 235.451C233.484 235.363 233.247 235.262 233.022 235.147C226.775 232.998 219.853 232.522 214.03 229.367C213.926 229.247 213.854 229.123 213.813 228.999C210.1 227.022 208.629 221.779 207.184 217.617C206.868 217.565 206.58 217.357 206.456 216.945C201.542 196.441 196.634 175.933 191.71 155.433C190.976 152.371 190.243 149.31 189.513 146.248C189.396 145.936 189.4 145.579 189.541 145.295C183.918 142.318 178.136 139.532 173.355 135.57C166.59 130.475 166.017 126.96 165.01 119.028C164.871 118.724 164.894 118.44 165.01 118.207C164.778 117.26 164.629 116.279 164.578 115.266C164.409 113.049 164.473 110.712 164.882 108.45C164.461 106.645 165.945 103.588 167.854 101.278C168.066 100.99 168.291 100.714 168.531 100.442C170.946 97.8601 174.03 96.0794 177.23 94.6224C177.137 94.5179 177.061 94.3817 177.013 94.2177C176.552 92.2208 176.062 90.2321 175.597 88.2341C175.533 88.0108 175.553 87.7782 175.65 87.5784C173.588 87.2259 171.523 86.8899 169.442 86.9944C170.052 89.8038 170.328 93.0374 168.76 95.5866C168.508 96.0026 168.226 96.4114 167.922 96.8038C167.866 96.9431 167.766 97.064 167.641 97.1552C165.868 99.2772 163.379 100.878 160.611 100.878C160.211 100.878 159.801 100.846 159.389 100.774C159.096 100.722 158.806 100.654 158.522 100.577C158.743 100.95 158.955 101.339 159.151 101.742C162.544 110.187 160.138 118.992 155.386 126.364C154.38 128.325 153.293 130.242 152.026 132.043C149.539 135.573 147.646 139.5 144.896 142.85C140.773 148.525 135.613 153.268 131.258 158.675C121.545 170.346 111.856 182.365 99.7017 191.622C96.9114 193.583 94.1314 195.708 91.2323 197.47C90.952 197.661 90.603 197.886 90.2498 197.997C88.1772 199.387 84.2032 200.559 83.2526 201.019C75.9258 203.701 68.1546 204.598 60.3864 204.021C49.8166 203.701 40.2478 198.201 32.304 191.606C32.0997 191.39 31.8184 191.15 31.5577 190.886C27.2912 186.923 24.2196 181.748 22.9241 176.041C21.2281 167.908 20.5906 159.596 19.9603 151.326C19.5599 139.732 20.9397 128.058 23.4733 116.739C25.932 107.081 29.8217 97.8806 33.7597 88.7464C37.6012 81.3551 41.0742 73.7024 45.5737 66.6778C48.8537 62.9637 51.5002 58.7772 54.5317 54.8715C59.524 49.2639 65.1271 44.1533 71.0731 39.6144C71.0773 39.4863 71.1142 39.347 71.1861 39.2066C71.3185 38.9668 71.4951 38.766 71.6953 38.5898C72.1562 36.3849 77.5058 33.8357 79.0179 32.6431C85.3294 28.5683 91.6378 24.3818 98.5909 21.5406C98.6638 21.5079 98.7356 21.4761 98.8075 21.4402C98.7716 21.1441 98.864 20.8357 99.0888 20.6154C101.759 17.9782 104.414 15.3163 107.233 12.8358C112.951 7.85626 119.499 2.7579 126.942 0.816315C128.883 0.308121 130.884 0.0202179 132.95 -0.000274658C134.037 0.072464 135.279 0.335785 136.406 0.816315C138.335 1.63701 139.932 3.08578 139.847 5.27942C146.76 3.70155 154.752 4.65442 160.295 9.2538C162.256 11.0786 163.331 13.7435 163.928 16.3009C164.277 20.0714 162.437 23.6052 159.91 26.2394C157.251 29.8449 152.756 31.098 148.658 32.2783C145.866 33.4392 143.064 34.4955 140.088 34.9402C141.439 35.472 142.787 36.017 144.133 36.5611C149.96 39.182 155.844 42.0119 160.503 46.475C163.579 49.2926 166.438 52.8223 166.775 57.1287C166.863 61.643 166.342 66.8018 163.31 70.3643C162.183 71.2731 161.482 72.6614 160.178 73.3264C159.998 73.4063 159.786 73.5026 159.561 73.5897C159.649 73.8746 159.721 74.1625 159.782 74.4504C161.297 73.8459 162.897 73.518 164.509 73.558C167.441 73.7741 169.963 74.0549 172.257 74.267C171.547 71.2926 170.797 68.3274 170.115 65.3459C170.059 65.0897 170.067 64.8407 170.2 64.6051C170.22 64.5733 170.236 64.5405 170.26 64.5088C170.3 63.7086 170.553 62.8838 170.797 62.2198C171.31 60.099 173.179 58.7578 174.891 57.5805C175.084 57.4647 175.345 57.3049 175.65 57.1369C175.673 56.6727 176.031 56.308 176.496 56.2086C180.51 55.3674 184.524 54.5313 188.538 53.6871C197.196 51.8654 205.846 50.0447 214.499 48.224C226.855 45.6225 239.206 43.0211 251.565 40.4187C251.998 40.3306 252.436 40.2394 252.868 40.1472C252.941 40.0867 253.025 40.0314 253.124 39.9832C255.724 39.2025 258.089 39.7312 260.146 41.0119C265.821 42.5642 271.575 43.8695 277.049 46.0744C280.787 47.267 283.742 51.0375 285.55 54.8551C285.27 54.8439 284.986 54.8397 284.704 54.8356C284.279 54.8315 283.854 54.8357 283.429 54.851C283.409 54.851 283.393 54.851 283.373 54.8551C281.946 52.1543 279.868 49.5201 277.378 48.3193C277.37 48.3162 277.366 48.3162 277.362 48.3121C276.977 48.1676 276.596 48.0191 276.211 47.8756C275.589 47.6994 274.948 47.6195 274.291 47.6471L274.266 47.6318L274.238 47.6154L274.142 47.5672L274.078 47.5355L274.013 47.5027L273.942 47.4709L273.906 47.4514L273.87 47.4351L273.829 47.4156L273.793 47.3992L273.749 47.3787L273.709 47.3592L273.664 47.3387L273.576 47.2988L273.548 47.2875L273.532 47.2793L273.488 47.2588L273.444 47.2393L273.404 47.2189L273.364 47.2035L273.256 47.1553L273.224 47.1389L273.191 47.1267L273.159 47.1113L273.103 47.0867L273.075 47.0744L273.051 47.0631L273.023 47.0549L272.999 47.0426L272.975 47.0355L272.951 47.0232L272.927 47.015L272.903 47.0068L272.879 46.9945L272.823 46.9791L272.795 46.9668L272.766 46.9586L272.738 46.9463L272.711 46.9391L272.678 46.9269L272.65 46.9187L272.618 46.9074L272.562 46.891L272.534 46.8787L272.45 46.8551L272.421 46.8428L272.366 46.8265L272.341 46.8193L272.313 46.8111L272.286 46.7988L272.229 46.7824L272.2 46.7711L272.169 46.7629L272.141 46.7547L272.113 46.7424L272.08 46.7312L272.049 46.723L272.017 46.7107L271.988 46.6984L271.956 46.6912L271.892 46.6666L271.857 46.6543L271.76 46.6185L271.695 46.5949L271.668 46.5826L271.651 46.5785L271.636 46.5703L271.607 46.5621L271.579 46.5508L271.552 46.5426L271.527 46.5303L271.503 46.5232L271.475 46.5109L271.451 46.5027L271.432 46.4945L271.407 46.4863L271.383 46.475L271.359 46.4668L271.339 46.4586L271.314 46.4504L271.291 46.4422L271.266 46.434L271.243 46.4228L271.218 46.4146L271.19 46.4064L271.167 46.3951L271.138 46.3869L271.118 46.3787C271.31 46.3387 271.503 46.2988 271.695 46.2547C268.969 45.3295 266.21 44.5129 263.387 43.8808C265.135 45.9381 266.495 48.4719 267.368 50.8449C267.481 50.8295 267.585 50.7896 267.681 50.7373C276.548 87.7423 285.422 124.747 294.297 161.748C296.987 172.959 299.686 184.178 302.361 195.388C302.694 196.781 303.042 198.169 303.368 199.563C303.825 200.395 303.709 201.959 303.797 202.708C303.44 207.804 300.196 213.647 294.513 213.735C275.177 217.809 255.84 221.871 236.499 225.946C231.057 227.094 225.616 228.227 220.178 229.375C220.158 229.388 220.142 229.396 220.122 229.404C219.949 229.451 219.773 229.492 219.596 229.524C222.949 230.568 226.418 231.26 229.814 232.165C229.786 232.129 229.762 232.089 229.738 232.053L229.769 232.065L229.851 232.109L229.938 232.153L230.026 232.197L230.131 232.249L230.207 232.289L230.299 232.333L230.396 232.381L230.492 232.425L230.584 232.474L230.68 232.518L230.777 232.562L230.877 232.61L230.973 232.653L231.069 232.697L231.166 232.742L231.262 232.785L231.358 232.829L231.458 232.873L231.555 232.917L231.651 232.957L231.743 233.001L231.839 233.041L231.936 233.082L232.032 233.122L232.123 233.162L232.22 233.198L232.312 233.238L232.405 233.274L232.497 233.31L232.59 233.345L232.681 233.378L232.769 233.414L232.862 233.446L232.95 233.474L233.034 233.506L233.122 233.534L233.206 233.558L233.287 233.586L233.371 233.61L233.451 233.63L233.68 233.69L233.756 233.706L233.829 233.718L233.896 233.734L233.968 233.746L234.033 233.758L234.101 233.767L234.165 233.778L234.229 233.786L234.29 233.794L234.353 233.802L234.414 233.806L234.47 233.814L234.53 233.822L234.586 233.826L234.642 233.834L234.698 233.838L234.755 233.847L234.807 233.851L234.858 233.858L234.899 233.862H234.911L234.963 233.87L235.015 233.874L235.064 233.882L235.115 233.886L235.308 233.902L235.352 233.906H235.4L235.444 233.91H235.793L235.834 233.906H235.922L235.966 233.902H236.054L236.097 233.898H236.141L236.19 233.895H236.234L236.33 233.886H236.379L236.427 233.882L236.479 233.878L236.527 233.874L236.684 233.862L236.787 233.847L236.84 233.842L236.896 233.834L236.948 233.826L237.004 233.818L237.06 233.81L237.113 233.798L237.168 233.79L237.189 233.786C237.445 233.77 237.702 233.746 237.954 233.718C238.003 233.702 238.055 233.694 238.106 233.686C238.195 233.666 238.287 233.65 238.375 233.63C238.632 233.482 238.876 233.442 239.086 233.482C259.765 229.144 280.494 224.76 301.194 220.414C304.102 219.807 307.02 219.182 309.932 218.565C310.241 218.562 310.569 218.453 310.851 218.39C310.911 218.373 310.971 218.357 311.031 218.341C311.368 218.317 311.709 218.229 312.025 218.157V218.153C312.138 218.129 312.25 218.105 312.363 218.077C312.475 218.049 312.582 218.021 312.695 217.989C312.916 217.929 313.136 217.861 313.352 217.785C313.473 217.745 313.589 217.697 313.71 217.653C313.741 217.685 313.77 217.721 313.798 217.757C314.372 217.636 314.945 217.521 315.514 217.405C315.538 217.401 315.567 217.397 315.59 217.401C319.44 215.824 321.264 210.833 320.7 206.823C318.593 198.039 316.485 189.253 314.378 180.468C314.413 180.471 314.448 180.472 314.484 180.472C314.656 180.472 314.837 180.44 315.021 180.407C315.145 180.388 315.27 180.379 315.394 180.36C315.538 180.344 315.679 180.312 315.819 180.283C315.988 180.304 316.152 180.323 316.324 180.268C316.326 180.267 316.329 180.266 316.331 180.265C318.026 187.327 319.72 194.392 321.405 201.451C321.737 202.845 322.087 204.233 322.412 205.626C322.869 206.458 322.753 208.024 322.841 208.772C322.484 213.863 319.244 219.694 313.577 219.798C294.232 223.872 274.892 227.935 255.543 232.012C250.101 233.162 244.651 234.294 239.206 235.447C239.202 235.447 239.202 235.447 239.198 235.451C239.189 235.459 239.177 235.463 239.166 235.467C238.917 235.539 238.661 235.591 238.404 235.627C238.4 235.631 238.4 235.631 238.396 235.631C238.263 235.667 238.127 235.684 237.99 235.684H237.967C237.353 235.743 236.728 235.743 236.106 235.739C235.697 235.739 235.287 235.739 234.887 235.759C234.477 235.688 234.092 235.583 233.724 235.451ZM205.152 203.196C206.034 206.863 206.912 210.529 207.79 214.191C207.935 214.291 208.059 214.439 208.143 214.651C209.627 218.485 210.67 222.707 213.2 226.001C214.524 227.899 216.769 227.871 218.842 227.662C218.851 227.658 218.855 227.658 218.862 227.658C218.927 227.643 218.994 227.626 219.063 227.619C219.156 227.599 219.251 227.578 219.343 227.559C219.592 227.418 219.829 227.378 220.033 227.414C240.717 223.08 261.45 218.693 282.15 214.347C285.763 213.594 289.38 212.814 292.99 212.058C292.99 212.033 292.997 212.014 293.001 211.994C293.331 212.005 293.691 211.877 293.984 211.797C294.168 211.749 294.357 211.701 294.537 211.633C294.581 211.617 294.621 211.602 294.661 211.581C294.698 211.617 294.73 211.653 294.754 211.693C295.327 211.573 295.897 211.453 296.47 211.337C296.502 211.333 296.531 211.329 296.558 211.329C300.4 209.752 302.221 204.766 301.655 200.759C289.869 151.695 278.152 102.607 266.35 53.5467C266.226 53.4422 266.122 53.2865 266.061 53.0867C265.163 49.7885 262.745 45.142 259.441 42.8961L259.412 42.8849L259.372 42.8685L259.328 42.8521L259.288 42.8408L259.24 42.8244L259.196 42.809L259.148 42.7885L259.1 42.7722L259.052 42.7527L259 42.7363L258.943 42.7168L258.888 42.6922L258.831 42.6728L258.771 42.6482L258.711 42.6246L258.646 42.6L258.587 42.5765L258.522 42.5529L258.459 42.5283L258.394 42.5047L258.334 42.4801L258.274 42.4566L258.213 42.432L258.15 42.4084L258.093 42.3839L258.034 42.3603L257.977 42.3357L257.916 42.3121L257.861 42.2885L257.809 42.2681H257.805L257.8 42.264L257.744 42.2363L257.689 42.2117L257.636 42.1922L257.584 42.1687L257.528 42.1441L257.476 42.1205L257.424 42.1L257.375 42.0764L257.272 42.0365L257.224 42.016L257.171 41.9966L257.123 41.976L257.071 41.9556L256.967 41.9156L256.915 41.9002L256.858 41.8797L256.802 41.8644L256.746 41.8439L256.73 41.8398L256.686 41.8275L256.629 41.808L256.509 41.7762L256.449 41.7599L256.393 41.7435L256.332 41.7281L256.325 41.724C256.313 41.6963 256.297 41.6717 256.288 41.6441C256.288 41.64 256.285 41.6318 256.285 41.6277C255.772 41.5601 255.246 41.556 254.708 41.6277C254.721 41.6482 254.733 41.6635 254.741 41.6799C254.753 41.7035 254.769 41.724 254.781 41.7476C252.779 42.1687 250.775 42.5928 248.774 43.0088C236.307 45.6379 223.827 48.2517 211.36 50.8808C202.737 52.6943 194.12 54.5068 185.498 56.3244C183.562 56.7322 181.624 57.1492 179.683 57.557C179.359 58.0652 178.488 58.0692 177.899 58.2455C176.555 58.6973 175.533 59.5139 174.426 60.3387C173.035 61.4033 172.28 63.1604 172.225 64.8377C172.329 65.2772 172.514 65.7659 172.305 66.1584C172.974 68.9155 173.62 71.6768 174.282 74.435C175.602 74.5303 176.853 74.5825 178.08 74.563C177.458 71.437 176.925 67.9985 178.2 64.9852C178.4 64.5733 178.978 63.9166 179.708 63.2721C179.683 63.2198 179.664 63.1604 179.647 63.0959C179.527 62.5959 179.844 62.0354 180.358 61.9278C181.131 61.7639 181.909 61.599 182.683 61.435C182.803 61.4033 182.916 61.3797 183.028 61.3633C185.033 60.9432 187.038 60.519 189.044 60.099C197.196 58.3858 205.348 56.6686 213.501 54.9514C222.07 53.1502 230.636 51.3418 239.206 49.5406C243.352 48.6676 247.503 47.7998 251.649 46.9187C251.978 46.8111 252.371 46.7271 252.716 46.7752C256.393 46.0867 259.93 48.6799 261.202 52.0857C261.362 52.182 261.498 52.3377 261.578 52.5621C261.711 53.0744 261.819 53.599 261.963 54.1113C270.536 88.9032 279.178 123.683 287.784 158.462C290.575 169.753 293.375 181.043 296.169 192.334C296.659 194.323 297.148 196.317 297.65 198.306C297.673 198.414 297.681 198.522 297.669 198.626C297.842 199.267 297.673 200.015 297.613 200.663C297.108 203.609 295.515 206.515 293.005 208.111C292.913 208.444 292.648 208.724 292.296 208.804C285.527 210.244 278.749 211.633 271.981 213.074C255.186 216.62 238.375 220.118 221.594 223.688C221.59 223.672 221.59 223.652 221.585 223.636C221.012 223.769 220.382 223.784 219.953 223.744C218.882 223.813 217.997 223.06 217.09 222.612C215.369 221.795 214.395 220.07 213.661 218.394C213.068 217.317 212.742 216.096 212.462 214.923C212.443 214.843 212.418 214.767 212.394 214.687C212.338 214.703 212.277 214.727 212.222 214.751C206.772 192.811 201.354 170.846 195.917 148.909C194.489 148.013 193.018 147.173 191.522 146.356C196.06 165.307 200.608 184.245 205.152 203.196ZM103.251 27.4156C98.5796 28.1523 94.2925 30.3091 89.9573 32.0867C84.7042 34.1554 79.5466 36.4248 74.619 39.1584C73.1345 40.4033 71.6634 41.6523 70.1236 42.8244C64.1324 47.6758 58.3619 52.8141 53.8059 59.0293C51.7209 62.4555 48.9656 65.3612 46.6085 68.5795C44.8315 71.353 43.3439 74.2987 41.8441 77.228C38.3835 83.9206 34.6703 90.5036 32.188 97.6399C30.0096 102.803 27.8445 107.962 26.4371 113.401C20.5824 133.713 20.759 155.425 24.9218 176.029C26.0244 180.495 28.3137 184.702 31.4458 188.076C31.6983 188.344 31.9632 188.6 32.2322 188.849H32.2363C32.3564 188.904 32.4683 188.98 32.5607 189.084C32.6284 189.164 32.6972 189.244 32.7691 189.321C33.5667 190.001 34.3972 190.645 35.159 191.374C35.2195 191.434 35.2678 191.498 35.3078 191.57C41.1902 196.105 47.631 199.874 54.9649 201.44C66.627 203.456 79.2222 201.844 89.56 196.08C89.8454 195.648 90.3217 195.316 90.8196 195.444C94.1714 193.315 97.3323 190.901 100.548 188.576C109.78 180.892 117.831 171.859 125.438 162.617C128.342 159.327 130.933 155.766 133.932 152.564C135.64 150.778 137.357 149.006 138.96 147.137C138.315 147.248 137.654 147.225 136.991 147.013C129.525 143.182 133.463 132.364 136.134 126.481C140.039 120.541 146.407 110.027 154.825 113.265C156.421 114.35 157.131 116.242 157.399 118.088C160.584 108.715 158.129 100.802 152.68 97.4964C151.914 97.4841 151.14 97.2362 150.55 96.8274C150.366 96.6716 150.189 96.5077 150.029 96.3315C145.846 95.1019 140.513 96.1194 134.81 100.314C127.624 105.236 121.321 111.312 115.71 117.92C109.462 125.284 103.122 133.404 93.9712 137.246C90.8473 138.399 87.2542 137.487 84.3829 136.022C80.6461 133.597 79.0292 129.07 77.6823 125.028C76.6794 121.497 76.2708 117.651 77.514 114.134C77.5581 113.953 77.6628 113.801 77.7983 113.689C78.0755 112.748 78.3599 111.812 78.7089 110.892C82.4067 101.803 87.7799 93.5261 93.19 85.3725C95.7524 81.4268 101.041 80.9626 105.272 80.0374C108.676 79.3858 112.065 78.6727 115.51 78.3049C115.686 78.1645 115.906 78.0805 116.143 78.0969C116.291 78.1204 116.436 78.1573 116.581 78.1962C117.198 78.0764 117.816 78.4288 118.044 78.9135C118.509 79.2014 118.963 79.5139 119.436 79.7659C122.019 81.435 124.897 82.563 127.604 83.9841C133.435 87.0374 140.035 88.2587 146.472 86.8899C150.021 86.3499 152.775 83.7485 155.114 81.2147C158.815 78.3612 158.474 74.727 156.465 71.229C157.519 73.5825 150.799 74.6071 149.271 74.2588C143.46 74.059 137.538 70.937 134.606 65.8418C133.27 62.7957 132.176 59.0703 133.511 55.852C133.796 55.2793 134.261 54.4227 134.854 53.9514C131.671 52.2342 128.438 50.6092 125.223 48.9443C125.206 48.9361 125.194 48.932 125.182 48.9238C125.138 48.9084 125.094 48.8838 125.054 48.8562C124.628 48.64 124.207 48.4197 123.786 48.1994C123.694 48.1471 123.614 48.0795 123.55 48.0037C120.313 46.5549 117.05 45.0857 113.44 45.1779C108.97 45.1338 104.815 46.3346 100.5 47.223C97.6485 47.8234 94.7617 48.3275 92.0423 49.3766C87.2789 51.0447 82.5309 52.7619 77.7347 54.3233C77.6505 54.3356 77.5622 54.3551 77.4698 54.3828C77.3056 54.6348 77.0212 54.8438 76.5921 54.9555C71.9642 56.0559 69.9706 60.8152 67.5325 64.3807C62.6325 71.9176 58.9348 80.1061 55.1015 88.2024C52.4631 93.6091 49.8597 99.1245 48.1155 104.856C47.9595 105.36 47.4021 105.652 46.9042 105.5C45.3006 104.864 47.1413 102.347 47.2861 101.17C49.447 95.2024 52.3348 89.5231 55.0779 83.8079C58.1094 76.9278 61.5618 70.2598 65.5563 63.9043C68.1104 60.0621 70.3556 55.1953 74.851 53.4463C75.6928 52.518 78.4923 52.1861 79.3423 51.726C83.7854 50.2086 88.2131 48.64 92.6397 47.0744C98.9481 45.4422 105.368 43.8572 111.865 43.2332C114.711 43.1523 117.667 43.4043 120.342 44.4453C121.842 45.1461 123.313 45.89 124.885 46.4422C125.391 46.6512 126.084 46.9146 126.409 47.3869C127.524 47.9637 128.663 48.4914 129.79 49.0478C139.606 54.2875 150.217 59.3459 156.99 68.475C157.668 69.4719 158.333 70.5805 158.863 71.7454C159.589 71.4493 160.163 70.9125 160.624 70.2321C161.875 69.1481 162.833 67.8909 163.503 66.4821C164.593 62.724 165.496 58.3818 164.24 54.643C162.813 55.6799 160.123 55.6635 158.646 55.5518C153.795 55.1195 149.96 51.9658 147.017 48.3039C144.591 45.5939 142.915 42.3562 142.751 38.6861C142.711 38.4576 142.742 38.2578 142.822 38.0939C138.52 36.3049 134.092 34.7793 129.854 33.1789C125.551 31.7507 121.02 30.389 116.697 29.2292C113.16 28.1718 109.471 27.264 105.777 27.264C104.935 27.264 104.093 27.3121 103.251 27.4156ZM214.888 156.15C214.456 156.95 213.561 157.738 212.49 158.338C213.489 159.092 214.471 159.86 215.454 160.633C215.57 160.64 215.687 160.664 215.815 160.708C217.162 160.116 218.333 159.048 219.183 157.819C219.183 157.771 219.187 157.723 219.2 157.679C218.565 156.562 217.487 155.737 216.569 154.849C216.228 154.557 215.887 154.272 215.538 153.992C215.386 154.788 215.02 155.653 214.888 156.15ZM226.056 157.406C226.085 157.431 226.113 157.454 226.14 157.474C226.855 158.042 227.556 158.615 228.29 159.147C228.563 159.239 228.799 159.459 229.004 159.676C229.304 159.728 229.586 159.543 229.858 159.428C236.218 154.204 238.88 145.419 239.972 137.547C239.928 137.383 239.923 137.231 239.955 137.099C239.944 136.774 239.98 136.434 240.004 136.15C239.988 135.982 239.988 135.798 240.012 135.621C239.382 136.03 238.544 136.723 237.786 137.015C237.71 137.498 237.26 137.911 236.78 137.911C236.519 137.911 236.246 137.787 236.017 137.483C235.685 137.283 235.356 137.082 235.024 136.887C234.951 143.65 231.9 153.556 226.056 157.406ZM171.752 131.619C178.778 138.508 188.153 141.829 196.361 146.965C196.53 147.072 196.695 147.185 196.863 147.292C197.156 147.313 197.44 147.46 197.597 147.773C201.619 150.423 205.665 153.272 208.16 157.471C209.944 157.559 211.953 156.753 213.087 155.345C213.432 154.569 213.465 153.78 213.682 152.984C213.701 152.867 213.745 152.764 213.806 152.667C212.105 151.418 210.345 150.282 208.549 149.157C199.754 142.602 189.303 139.2 179.519 134.525C175.188 131.835 170.625 128.417 167.69 124.095C168.247 126.96 169.51 129.734 171.752 131.619ZM220.851 156.161C221.344 156.329 221.577 156.638 221.605 157.042C229.393 156.154 233.44 142.566 233.046 135.698C223.021 129.679 212.895 123.723 201.98 119.509C199.028 118.512 196.157 117.212 193.237 116.082C193.205 116.106 193.17 116.126 193.129 116.143C191.935 116.286 190.599 116.219 189.416 116.559C188.646 116.611 187.199 117.26 186.156 117.26C185.575 117.26 185.121 117.059 184.977 116.45C184.856 115.014 186.806 115.286 187.704 114.957C188.133 114.842 188.566 114.734 189.003 114.642C187.748 114.285 186.469 114.001 185.165 113.821C183.934 113.645 184.147 111.736 185.422 111.896C189.509 112.292 193.21 114.098 197.011 115.511C203.175 117.816 209.266 120.341 215.157 123.282C221.573 126.668 227.901 130.286 234.105 134.057C234.389 134.077 234.662 134.217 234.822 134.493C235.364 134.821 235.905 135.153 236.446 135.493C236.555 135.382 236.695 135.298 236.852 135.253C237.63 134.873 238.424 134.329 239.133 133.869C243.296 130.307 246.716 123.819 244.082 118.556C243.685 118.415 243.476 118.155 243.416 117.867C243.344 117.84 243.272 117.8 243.208 117.743C238.316 113.513 233.187 109.454 227.488 106.349C215.996 100.606 203.664 95.5825 190.704 94.8704C186.653 94.5538 182.403 94.0856 178.701 96.1265C176.965 96.896 175.208 97.7526 173.597 98.7925C176.307 101.694 171.041 109.991 167.072 109.991C166.935 109.991 166.8 109.983 166.663 109.958C166.226 112.925 166.358 115.971 167.22 118.841C169.398 125.304 175.906 130.279 181.665 133.469C190.996 137.603 200.709 141.089 209.022 147.148C213.02 149.826 217.535 152.287 220.515 156.161C220.57 156.154 220.623 156.146 220.679 156.146C220.735 156.146 220.795 156.154 220.851 156.161ZM144.896 118.064C140.544 122.738 136.888 127.97 135.34 134.213C134.843 136.726 134.437 139.38 134.915 141.821C135.4 143.158 136.442 144.567 137.742 145.179C139.254 145.451 140.633 144.343 141.655 143.366C141.828 143.198 142.044 143.091 142.265 143.058C144.447 140.332 146.371 137.583 148.084 134.529C150.755 130.447 153.373 126.309 155.587 121.974C155.499 121.654 155.567 121.298 155.859 121.025C155.558 118.921 155.562 116.355 153.782 114.898C153.156 114.65 152.523 114.537 151.893 114.537C149.303 114.537 146.756 116.395 144.896 118.064ZM241.884 133.989C242.073 134.109 242.261 134.233 242.45 134.341C243.617 135.065 244.764 135.886 245.902 136.654C246.725 135.753 247.526 134.833 248.281 133.881C249.54 132.268 250.198 130.334 250.683 128.382C250.574 128.222 250.518 128.062 250.511 127.905C249.227 126.872 248.048 125.704 246.756 124.712H246.725C246.131 128.178 244.347 131.428 241.884 133.989ZM114.299 80.4503C111.411 80.6901 108.621 81.4503 105.773 81.9391C102.108 82.811 97.5242 83.02 95.0337 86.1614C89.6811 94.1624 84.3911 102.315 80.6697 111.196C79.9244 113.124 79.4306 115.134 78.8136 117.103C78.8054 117.135 78.7931 117.163 78.7767 117.191C78.749 117.367 78.7253 117.543 78.713 117.724C78.5447 123.407 80.5691 129.25 84.2915 133.509C86.3283 135.266 89.2838 135.894 91.9222 135.754C93.731 135.438 95.3304 134.481 96.8949 133.572C104.643 128.798 110.02 121.361 115.955 114.682C121.557 108.11 128.097 102.427 135.251 97.604C139.217 94.8468 144.078 93.5097 148.517 94.0743C147.799 92.3888 147.651 90.356 147.983 88.563C144.98 89.1675 141.872 89.6153 138.804 89.3714C131.534 88.5702 124.981 85.0692 118.674 81.603C117.848 81.143 117.054 80.5866 116.199 80.1901C115.566 80.2454 114.932 80.3663 114.299 80.4503ZM157.628 92.3766C156.654 93.5938 156.112 95.4626 155.274 96.5876C156.774 97.9001 158.602 98.8612 160.603 98.897C163.775 98.8724 166.326 96.2997 167.585 93.5815C168.231 91.5487 167.982 89.2956 167.501 87.2505C163.716 87.5456 160.251 89.6993 157.628 92.3766ZM178.917 93.6655C178.938 93.7341 178.95 93.8017 178.953 93.8653C179.098 93.8058 179.239 93.7454 179.382 93.686C179.908 93.4534 180.442 93.27 180.983 93.1255C180.947 93.0374 180.918 92.937 180.907 92.8294C180.622 91.2843 180.333 89.7434 180.013 88.2065C179.178 88.1389 178.345 88.022 177.514 87.8909C177.987 89.8151 178.433 91.7444 178.917 93.6655ZM194.882 70.7885C192.203 72.4575 189.368 73.894 186.444 75.0753C184.427 75.9719 182.363 76.3837 180.269 76.5241C180.269 76.5395 180.269 76.5559 180.265 76.5764C180.694 79.8141 181.216 83.0999 181.917 86.2813C182.843 86.2813 183.77 86.2055 184.704 86.0251C190.186 84.9647 195.452 82.9801 199.546 79.1092C201.707 77.1327 204.016 74.687 204.266 71.6368C204.161 68.5354 203.067 67.479 201.579 67.479C199.582 67.479 196.874 69.3797 194.882 70.7885ZM135.961 55.6195C134.128 57.6727 134.982 60.8069 135.596 63.1164C137.605 70.02 148.666 74.8704 154.889 71.061C155.262 70.6563 155.899 70.5928 156.313 70.9729C153.734 66.6666 148.702 62.6 145.658 60.4791C142.763 58.4535 139.755 56.6481 136.688 54.9473C136.575 55.2711 136.322 55.5477 135.961 55.6195ZM150.47 49.1758C153.454 52.5426 158.627 54.8398 163.022 53.0785C163.038 52.8387 163.11 52.6461 163.222 52.5016C163.009 52.1656 162.773 51.8377 162.512 51.5211C157.861 45.6461 151.508 41.8838 144.724 38.9023C145.04 43.0242 147.635 46.3029 150.47 49.1758ZM111.051 17.9987C103.74 21.2486 96.4299 24.5181 89.3916 28.2999C86.5531 29.8808 84.0226 31.9228 81.223 33.5591C81.0105 33.6994 80.798 33.8357 80.5814 33.972C84.2546 32.2824 87.9924 30.7732 91.7743 29.2363C104.603 22.8685 111.391 25.5468 124.247 29.389C128.755 30.6779 133.158 32.2507 137.525 33.9351C137.702 33.015 139.077 33.0632 139.867 32.931C143.1 32.7271 145.982 31.0417 149.018 30.0611C151.761 29.4812 154.344 28.4167 156.65 26.7999C161.634 22.2251 164.109 17.1062 159.477 11.2025C158.169 9.87366 156.633 8.93309 154.977 8.25276C154.46 9.50174 152.916 10.3655 152.018 11.3142C147.346 14.8603 141.391 17.1093 135.476 16.5652C132.252 16.3532 126.574 15.7169 125.259 12.2907C125.234 12.1995 125.223 12.1104 125.223 12.0274C120.422 13.8603 115.666 15.7374 111.051 17.9987ZM129.188 2.3409C124.436 3.06528 120.273 5.61548 116.308 8.18106C111.415 11.4229 107.201 15.4249 103.038 19.4997C114.395 14.264 125.804 9.0253 137.914 5.77531C137.906 4.74663 137.754 3.74252 136.691 3.21794C135.4 2.30504 133.84 1.98126 132.276 1.98126C131.225 1.98126 130.167 2.1288 129.188 2.3409ZM127.813 11.0427C127.577 11.1298 127.339 11.222 127.107 11.3102C127.295 11.5151 127.408 11.8071 127.371 12.1831C134.594 17.0058 145.401 14.596 151.624 9.06937C152.11 8.60112 152.647 8.1165 153.113 7.60011C150.963 6.97205 148.689 6.67183 146.492 6.46384C140.031 6.51917 133.832 8.92081 127.813 11.0427Z" style="fill: var(--il-outline);"/>
</g>
<g id="Group_35">
<path id="vec31" d="M281.318 80.3273C280.195 77.2413 279.808 73.8017 278.736 70.6419C277.169 65.4544 275.918 60.1265 274.242 55.0108C273.224 53.7259 275.409 52.5815 276.021 54.0805C277.899 60.0466 279.406 66.0712 281.175 72.0548C281.802 74.4032 282.392 76.9195 282.886 79.2238C283.351 80.1552 282.056 81.0988 281.318 80.3273Z" style="fill: var(--il-outline);"/>
</g>
<g id="Group_36">
<path id="vec32" d="M282.513 81.1602C280.011 79.1961 283.938 78.2863 288.784 77.8877C288.842 77.8898 288.897 77.8898 288.953 77.8898C289.074 77.8898 289.19 77.8857 289.294 77.8857C289.735 77.8744 290.172 77.8498 290.606 77.8221C291.054 77.7904 291.504 77.7576 291.948 77.7258C292.177 77.7084 292.421 77.7064 292.653 77.6705C296.497 77.5383 300.035 77.6275 300.695 77.6859C304.027 77.6777 307.292 78.3467 310.479 79.2709C311.699 79.5434 311.321 81.4 310.075 81.1602C305.037 79.5588 299.957 79.4266 294.748 79.5588C290.986 79.8273 287.105 79.5025 283.495 80.7873C283.315 81.0311 283.017 81.1818 282.712 81.1818C282.646 81.1818 282.579 81.1746 282.513 81.1602Z" style="fill: var(--il-outline);"/>
</g>
<g id="Group_37">
<path id="vec33" d="M307.289 56.5783C296.891 54.2761 285.976 54.2453 275.492 55.5824C274.317 56.1132 273.47 54.3273 274.659 53.773C282.053 52.4277 289.795 52.6818 297.3 53.1367C300.807 53.2781 304.29 53.8601 307.698 54.689C308.219 54.7771 308.549 55.3416 308.44 55.8386C308.326 56.3693 307.798 56.6716 307.289 56.5783Z" style="fill: var(--il-outline);"/>
</g>
<g id="Group_38">
<path id="vec34" d="M310.065 80.9534C309.575 80.7495 309.367 80.1368 309.584 79.6685C309.8 79.1931 310.342 78.9985 310.819 79.1675C309.645 71.4145 308.199 63.7413 306.388 56.143C306.135 54.6768 308.285 54.4965 308.437 55.9432C309.742 61.9985 310.882 68.0702 312.051 74.1409C312.17 76.1706 312.89 77.9534 312.708 79.9329C312.393 80.981 311.008 81.3878 310.065 80.9534Z" style="fill: var(--il-outline);"/>
</g>
<g id="Group_39">
<path id="vec35" d="M320.188 106.168C310.866 103.91 301.139 102.891 291.605 104.287C290.771 105.078 289.416 103.829 290.168 102.937C290.535 102.49 291.107 102.331 291.664 102.281C294.333 102.052 296.991 101.702 299.673 101.612C305.977 101.867 312.269 102.266 318.412 103.79C319.358 104.23 321.303 103.885 321.263 105.327C321.2 105.841 320.701 106.245 320.188 106.168Z" style="fill: var(--il-outline);"/>
</g>
<g id="Group_40">
<path id="vec36" d="M319.446 104.86C319.321 104.586 319.335 104.288 319.454 104.037C317.536 96.3632 316.067 88.6316 314.465 80.8899C314.242 79.2587 313.888 77.9022 313.471 76.3591C313.326 75.8509 313.611 75.3069 314.124 75.1583C314.626 75.0067 315.184 75.3028 315.327 75.811C317.125 83.0507 318.264 90.4523 319.953 97.7136C320.399 99.5988 320.951 101.442 321.343 103.339C321.54 104.051 321.567 105.026 320.753 105.352C320.271 105.575 319.667 105.355 319.446 104.86Z" style="fill: var(--il-outline);"/>
</g>
<g id="Group_41">
<path id="vec37" d="M314.677 76.7272C313.779 76.5633 312.867 76.2409 311.962 76.4078C311.063 76.4009 310.693 75.1875 311.353 74.6348C312.463 73.9515 313.928 74.6814 315.123 74.8375C316.259 75.136 315.827 76.9677 314.677 76.7272Z" style="fill: var(--il-outline);"/>
</g>
<g id="Group_42">
<path id="vec38" d="M289.744 103.127C288.231 95.8624 285.809 88.803 284.317 81.5407C283.949 81.1135 284.012 80.4414 284.462 80.0971C284.895 79.7651 285.509 79.8614 285.846 80.2774C286.519 81.1924 286.517 82.4055 286.746 83.4823C287.651 87.4823 288.873 91.4034 289.851 95.3901C290.536 97.8747 291.223 100.361 291.685 102.898C291.769 103.423 291.343 103.923 290.83 103.982C290.31 104.044 289.802 103.656 289.744 103.127Z" style="fill: var(--il-outline);"/>
</g>
<g id="Group_43">
<path id="vec39" d="M292.925 140.337C291.167 134.35 289.957 128.409 288.662 122.326C288.311 120.75 287.946 119.171 287.619 117.592C287.535 117.063 287.844 116.539 288.385 116.427C288.93 116.311 289.428 116.667 289.556 117.191C290.836 122.754 291.832 128.39 293.249 133.917C293.886 135.807 294.161 137.788 294.766 139.684C294.946 140.184 294.673 140.753 294.172 140.929C293.679 141.108 293.104 140.841 292.925 140.337Z" style="fill: var(--il-outline);"/>
</g>
<g id="Group_44">
<path id="vec40" d="M316.01 141.418C311.783 140.693 307.376 139.852 303.089 140.324C300.186 140.673 297.211 140.301 294.431 141.137C293.168 141.309 292.859 139.413 294.123 139.192C296.957 138.392 300.026 138.712 302.908 138.399C303.274 138.353 303.639 138.318 304.005 138.293C304.108 138.311 304.214 138.324 304.316 138.336C304.444 138.348 304.581 138.359 304.709 138.359C304.928 138.359 305.142 138.331 305.331 138.238C305.621 138.235 305.908 138.237 306.197 138.243C306.392 138.268 306.589 138.282 306.784 138.262C309.566 138.38 312.341 138.886 315.099 139.26C316.073 139.66 317.951 139.252 318.119 140.616C318.106 141.355 317.576 141.581 316.986 141.581C316.652 141.581 316.299 141.509 316.01 141.418Z" style="fill: var(--il-outline);"/>
</g>
<g id="Group_45">
<path id="vec41" d="M288.789 118.576C284.849 115.655 297.066 115.228 298.47 115.117C303.561 115.263 309.66 115.536 314.618 116.362C315.135 116.471 315.444 117.039 315.316 117.535C315.183 118.06 314.658 118.34 314.145 118.232C313.235 118.026 312.089 117.804 311.218 117.792C303.728 117.357 295.924 116.156 288.789 118.576Z" style="fill: var(--il-outline);"/>
</g>
<g id="Group_46">
<path id="vec42" d="M317.624 141.569C317.13 141.392 316.862 140.828 317.043 140.332C317.213 139.865 317.731 139.602 318.205 139.727C316.977 133.379 315.768 126.993 314.123 120.736C313.972 119.722 313.022 118.177 314.191 117.495C315.497 116.997 315.749 118.5 315.801 119.428C317.3 124.717 318.214 130.144 319.393 135.509C319.662 137.511 321.648 143.012 317.624 141.569Z" style="fill: var(--il-outline);"/>
</g>
<g id="Group_47">
<path id="vec43" d="M302.574 160.291C301.257 153.87 299.204 147.621 297.811 141.217C297.474 140.795 297.563 140.158 297.99 139.831C298.643 139.313 299.538 139.837 299.679 140.595C301.057 147.056 303.129 153.35 304.459 159.823C304.762 161.033 302.918 161.524 302.574 160.291Z" style="fill: var(--il-outline);"/>
</g>
<g id="Group_48">
<path id="vec44" d="M304.122 161.279C303.192 161.067 303.116 160.034 303.628 159.442C305.375 158.512 307.295 158.147 309.269 158.003C309.332 158.016 309.394 158.021 309.455 158.021C309.599 158.021 309.742 157.994 309.882 157.965C312.19 157.848 314.554 157.981 316.786 157.825C320.367 157.845 323.984 158.413 327.505 158.906C328.764 158.974 328.655 160.914 327.397 160.83C320.118 159.794 312.383 158.978 305.176 160.798C305.003 161.102 304.66 161.297 304.308 161.297C304.246 161.297 304.183 161.291 304.122 161.279Z" style="fill: var(--il-outline);"/>
</g>
<g id="Group_49">
<path id="vec45" d="M323 137.251C321.803 136.968 320.761 136.928 319.593 136.86C318.314 137.884 317.21 135.723 318.556 135.029C319.674 134.682 320.912 135.044 322.061 135.113C322.951 135.221 324.545 135.34 324.215 136.614C324.059 137.127 323.496 137.399 323 137.251Z" style="fill: var(--il-outline);"/>
</g>
<g id="Group_50">
<path id="vec46" d="M327.625 161.004C327.124 160.835 326.791 160.347 326.935 159.81C326.979 159.652 327.062 159.508 327.174 159.391C325.991 153.4 324.13 147.589 323.029 141.577C322.74 140.356 322.407 139.152 322.039 137.952C321.815 137.647 321.763 137.202 321.974 136.878C322.296 136.265 323.221 136.177 323.635 136.742C325.31 141.123 325.719 145.914 327.055 150.413C327.654 152.943 328.376 155.446 328.94 157.981C329.148 159.249 329.763 161.495 327.625 161.004Z" style="fill: var(--il-outline);"/>
</g>
<g id="Group_51">
<path id="vec47" d="M310.73 181.222C309.03 174.555 307.661 167.895 305.986 161.23C305.72 159.978 307.629 159.541 307.923 160.802C309.536 167.11 310.795 173.504 312.426 179.805C312.63 180.569 312.957 181.712 311.901 181.966C311.39 182.082 310.841 181.748 310.73 181.222Z" style="fill: var(--il-outline);"/>
</g>
<g id="Group_52">
<path id="vec48" d="M331.928 183.293C325.72 181.975 319.356 181.712 313.064 182.455C312.467 183.421 310.911 182.64 311.328 181.571C311.512 180.954 312.122 180.654 312.711 180.522C313.157 180.474 313.603 180.429 314.05 180.388C314.193 180.451 314.336 180.475 314.484 180.475C314.657 180.475 314.833 180.442 315.021 180.406C315.145 180.391 315.269 180.379 315.395 180.358C315.534 180.343 315.679 180.314 315.82 180.286C315.988 180.303 316.152 180.322 316.325 180.266C316.384 180.248 316.44 180.227 316.494 180.201C320.92 179.938 325.395 180.09 329.738 180.914C330.801 181.259 332.954 180.891 332.995 182.411C332.953 182.894 332.524 183.3 332.044 183.3C332.005 183.3 331.967 183.298 331.928 183.293Z" style="fill: var(--il-outline);"/>
</g>
<g id="Group_53">
<path id="vec49" d="M335.072 184.313C333.64 183.74 332.378 183.258 330.965 182.939C330.232 182.933 329.738 182.149 330.076 181.485C330.914 180.053 334.461 182.193 335.75 182.496C336.931 182.934 336.256 184.763 335.072 184.313Z" style="fill: var(--il-outline);"/>
</g>
<g id="Group_54">
<path id="vec50" d="M335.043 182.707C334.493 173.508 331.571 164.739 329.601 155.791C328.628 155.609 326.649 155.606 326.962 154.154C327.118 153.666 327.68 153.342 328.177 153.518C328.846 153.798 329.564 153.799 330.267 153.95C331.724 154.129 331.457 155.958 331.858 157.016C332.928 161.048 333.89 165.104 334.814 169.171C335.07 171.036 338.577 183.637 336.105 183.475C335.639 183.518 335.111 183.189 335.043 182.707Z" style="fill: var(--il-outline);"/>
</g>
<g id="Group_55">
<path id="vec51" d="M289.16 114.522C287.544 109.601 286.678 104.473 285.248 99.5C284.953 99.1568 284.954 98.6179 285.234 98.2644C286.866 96.8422 287.402 99.6998 287.665 100.833C288.752 105.317 289.743 109.822 291.081 114.234C291.251 115.47 289.357 115.754 289.156 114.493L289.16 114.522Z" style="fill: var(--il-outline);"/>
</g>
<g id="Group_56">
<path id="vec52" d="M281.216 95.1084C279.609 89.049 277.885 83.0101 276.308 76.9343C275.371 73.7703 274.149 70.5726 273.813 67.297C274.008 66.0142 275.962 66.2488 275.798 67.5532C277.876 75.9876 280.495 84.3298 282.64 92.7437C282.835 93.4844 283.111 94.2058 283.153 94.9762C283.202 96.1422 281.333 96.2857 281.216 95.1084Z" style="fill: var(--il-outline);"/>
</g>
<g id="Group_57">
<path id="vec53" d="M300.376 172.793C298.601 166.003 297.326 159.065 295.183 152.398C294.485 149.976 293.949 147.493 293.154 145.102C292.894 144.686 293.034 144.105 293.419 143.817C293.832 143.501 294.505 143.561 294.81 144.009C297.437 152.024 299.395 160.3 301.343 168.499C301.387 169.8 303.267 172.919 301.591 173.49C301.087 173.63 300.496 173.318 300.376 172.793Z" style="fill: var(--il-outline);"/>
</g>
<g id="Group_58">
<path id="vec54" d="M308.22 185.822C307.014 180.995 305.452 176.262 304.486 171.366C304.333 170.079 306.282 169.802 306.468 171.098C306.662 172.35 307.026 173.455 307.326 174.669C308.036 178.367 309.384 181.891 310.185 185.559C310.351 186.83 308.42 187.11 308.22 185.822Z" style="fill: var(--il-outline);"/>
</g>
<g id="Group_59">
<path id="vec55" d="M308.503 200.257C306.943 195.427 305.738 190.416 304.381 185.569C304.459 184.802 305.441 184.447 306.021 184.933C306.686 185.589 306.646 186.665 306.944 187.515C308.146 191.536 309.048 195.638 310.371 199.625C310.735 200.758 308.91 201.389 308.503 200.257Z" style="fill: var(--il-outline);"/>
</g>
<g id="Group_60">
<path id="vec56" d="M235.434 228.502C235.318 227.558 236.341 227.281 237.094 227.285C243.581 226.724 249.846 224.508 256.301 223.596C257.894 223.282 259.477 222.899 261.083 222.654C261.621 222.57 262.134 222.99 262.198 223.519C262.271 224.071 261.869 224.552 261.331 224.636C259.931 224.839 258.55 225.186 257.165 225.46C252.881 226.183 248.659 227.163 244.409 228.061C241.948 228.615 239.469 229.267 236.936 229.303C236.299 229.531 235.521 229.23 235.434 228.502Z" style="fill: var(--il-outline);"/>
</g>
<g id="Group_61">
<path id="vec57" d="M273.602 223.011C273.489 222.055 274.486 221.852 275.23 221.807C277.126 221.503 279.004 221.071 280.911 220.826C284.58 219.992 288.31 219.393 291.957 218.471C292.388 218.192 292.983 218.293 293.292 218.709C294.092 220.018 292.28 220.552 291.29 220.678C289.04 221.097 286.634 221.718 284.413 222.083C282.338 222.57 280.239 222.951 278.126 223.258C276.926 223.344 273.969 224.737 273.602 223.011Z" style="fill: var(--il-outline);"/>
</g>
<g id="Group_62">
<path id="vec58" d="M294.229 109.513C293.831 108.164 293.462 106.808 293.154 105.435C293.059 104.856 292.837 104.308 292.733 103.738C292.711 102.815 293.972 102.4 294.514 103.145C295.256 104.999 295.422 107.098 296.11 108.993C296.44 110.212 294.591 110.735 294.229 109.513Z" style="fill: var(--il-outline);"/>
</g>
<g id="Group_63">
<path id="vec59" d="M271.556 57.7255C270.707 55.04 269.783 52.3423 269.318 49.5605C269.294 49.0165 269.791 48.5636 270.316 48.5636C270.824 48.5636 271.311 48.9919 271.312 49.5165C271.596 50.9509 271.939 52.3802 272.366 53.7828C272.702 54.9314 273.055 56.0759 273.44 57.2091C273.609 57.7091 273.247 58.2736 272.755 58.4058C272.246 58.5533 271.714 58.2388 271.556 57.7255Z" style="fill: var(--il-outline);"/>
</g>
</g>
<g id="White-Outlines">
<g id="Group_64">
<g id="Group_65">
<path id="vec60" d="M263.405 141.719C262.92 141.447 262.803 140.73 263.128 140.322C263.644 139.604 263.902 138.758 264.121 137.915C264.598 133.725 264.111 129.142 261.838 125.52C260.214 123.611 258.25 123.029 256.388 121.68C254.894 120.314 254.05 118.361 253.761 116.385C253.584 113.165 252.91 110.171 249.26 109.444C248.648 109.468 247.917 109.605 247.645 108.873C247.457 108.392 247.693 107.756 248.207 107.588C249.178 107.271 250.276 107.567 251.166 107.987C257.231 110.643 254.049 115.79 257.298 119.854C259.243 121.517 261.919 122.306 263.49 124.489C265.144 127.119 265.983 130.344 266.153 133.434C266.259 136.148 266.393 139.078 264.733 141.395C264.429 141.833 263.862 142 263.405 141.719Z" style="fill: var(--il-highlight);"/>
</g>
<g id="Group_66">
<path id="vec61" d="M261.23 115.994C261.137 115.645 261.145 115.245 261.342 114.925C261.349 114.915 261.355 114.904 261.361 114.894C261.116 114.226 261.726 113.505 262.429 113.556C263.5 113.639 263.912 114.948 263.912 115.87C263.846 117.563 261.595 117.577 261.23 115.994Z" style="fill: var(--il-highlight);"/>
</g>
<g id="Group_67">
<path id="vec62" d="M251.748 101.077C251.763 100.932 251.814 100.797 251.893 100.678C252.102 98.8848 254.196 99.5979 254.158 101.126C254.262 102.851 251.597 102.816 251.748 101.077Z" style="fill: var(--il-highlight);"/>
</g>
<g id="Group_68">
<path id="vec63" d="M222.617 178.792C220.996 178.601 218.879 178.766 217.761 177.38C216.911 176.33 218.556 175.081 219.313 176.198C219.345 176.299 219.451 176.359 219.546 176.391C220.584 176.686 221.656 176.792 222.727 176.838C227.412 176.72 231.924 174.698 234.778 170.947C235.709 169.675 236.518 168.477 237.154 167.153C237.33 166.645 237.884 166.353 238.397 166.525C240.066 167.352 238.122 169.226 237.635 170.287C234.548 175.572 228.714 178.776 222.617 178.792Z" style="fill: var(--il-highlight);"/>
</g>
<g id="Group_69">
<path id="vec64" d="M236.416 181.062C236.127 180.806 235.986 180.433 235.986 180.057C235.987 179.521 236.347 179.045 236.825 178.828C236.822 178.831 236.817 178.833 236.813 178.836C240.096 177.874 238.693 182.526 236.416 181.062Z" style="fill: var(--il-highlight);"/>
</g>
<g id="Group_70">
<path id="vec65" d="M246.208 171.679C244.894 171.354 245.114 169.486 246.509 169.695C250.63 169.924 254.436 165.749 254.997 161.812C255.415 159.283 254.784 156.719 255.147 154.186C255.392 152.07 256.183 150.086 256.951 148.118C257.271 147.331 257.568 145.989 258.696 146.373C259.177 146.549 259.493 147.15 259.277 147.637C258.473 149.645 257.543 151.775 257.179 153.895C256.696 156.637 257.45 159.416 256.935 162.154C256.216 167.136 251.41 172.005 246.208 171.679Z" style="fill: var(--il-highlight);"/>
</g>
<g id="Group_71">
<path id="vec66" d="M261.911 169.968C260.766 168.958 262.512 167.72 262.76 166.64C263.508 164.856 263.942 162.941 263.888 161.007C262.743 159.929 264.675 158.441 265.514 159.724C266.779 161.152 264.36 171.457 261.911 169.968Z" style="fill: var(--il-highlight);"/>
</g>
<g id="Group_72">
<path id="vec67" d="M237.068 105.322C234.978 104.762 233.63 103.027 232.244 101.516C231.111 100.996 230.026 100.258 228.793 100.009C227.366 100.002 225.737 100.134 224.955 101.495C224.88 102.67 223.137 102.705 223.008 101.532C223.132 99.7382 225.097 98.3929 226.79 98.2269C228.941 97.6644 230.907 98.5763 232.757 99.5917C233.935 100.077 234.518 101.257 235.398 102.101C236.041 102.69 236.796 103.214 237.629 103.462C238.85 103.831 238.287 105.665 237.068 105.322Z" style="fill: var(--il-highlight);"/>
</g>
</g>
</g>
</g>
</g>
<path id="vec68" d="M261.333 224.634C261.87 224.55 262.271 224.071 262.199 223.519C262.134 222.99 261.621 222.57 261.084 222.654C259.476 222.898 257.896 223.282 256.3 223.594C249.847 224.506 243.58 226.723 237.096 227.284C236.341 227.28 235.319 227.556 235.435 228.501C235.519 229.23 236.297 229.53 236.935 229.301C239.469 229.265 241.948 228.617 244.41 228.061C248.656 227.164 252.88 226.183 257.166 225.459C258.55 225.187 259.933 224.839 261.333 224.634ZM272.753 58.4032C273.247 58.271 273.608 57.7065 273.439 57.2065C273.054 56.0743 272.701 54.9299 272.364 53.7813C271.939 52.3797 271.594 50.9514 271.31 49.5139C271.31 48.9903 270.825 48.562 270.315 48.562C269.79 48.562 269.293 49.0139 269.316 49.5579C269.782 52.3438 270.709 55.0415 271.554 57.7229C271.715 58.2393 272.248 58.5559 272.753 58.4032ZM281.215 95.108C281.335 96.2853 283.2 96.1408 283.152 94.9758C283.112 94.2074 282.835 93.484 282.639 92.7433C280.493 84.3304 277.874 75.9892 275.797 67.5528C275.962 66.2474 274.009 66.0159 273.812 67.2966C274.149 70.5743 275.372 73.772 276.307 76.9339C277.886 83.0097 279.607 89.0486 281.215 95.108ZM289.155 114.491C289.355 115.752 291.249 115.468 291.08 114.231C289.745 109.821 288.754 105.318 287.663 100.831C287.403 99.6992 286.865 96.8416 285.233 98.2627C284.957 98.6183 284.952 99.1592 285.249 99.4994C286.677 104.474 287.543 109.601 289.158 114.52L289.155 114.491ZM291.293 220.676C292.279 220.552 294.091 220.016 293.293 218.707C292.984 218.291 292.387 218.191 291.958 218.471C288.308 219.391 284.58 219.992 280.91 220.829C279.005 221.073 277.129 221.501 275.232 221.805C274.486 221.854 273.487 222.053 273.604 223.009C273.969 224.739 276.925 223.342 278.127 223.258C280.24 222.95 282.338 222.57 284.415 222.081C286.633 221.717 289.038 221.096 291.293 220.676ZM301.59 173.489C303.267 172.917 301.386 169.799 301.342 168.498C299.397 160.301 297.436 152.025 294.809 144.008C294.504 143.561 293.83 143.5 293.418 143.817C293.033 144.105 292.892 144.685 293.153 145.101C293.946 147.494 294.484 149.976 295.182 152.397C297.328 159.065 298.603 166.005 300.375 172.793C300.495 173.317 301.089 173.629 301.59 173.489ZM308.219 185.825C308.419 187.109 310.352 186.829 310.184 185.561C309.382 181.891 308.034 178.368 307.325 174.67C307.028 173.457 306.663 172.349 306.467 171.1C306.282 169.799 304.333 170.079 304.485 171.368C305.452 176.263 307.012 180.994 308.219 185.825ZM308.503 200.256C308.909 201.389 310.733 200.757 310.373 199.624C309.049 195.638 308.147 191.536 306.944 187.513C306.647 186.665 306.687 185.588 306.021 184.932C305.44 184.448 304.462 184.8 304.382 185.568C305.737 190.415 306.944 195.426 308.503 200.256ZM320.698 206.825C321.264 210.835 319.44 215.822 315.59 217.399C315.565 217.399 315.538 217.399 315.513 217.407C314.944 217.519 314.37 217.638 313.798 217.758C313.769 217.718 313.741 217.687 313.709 217.655C313.588 217.695 313.472 217.743 313.352 217.783C313.135 217.863 312.915 217.926 312.694 217.991C312.582 218.023 312.473 218.047 312.361 218.079C312.249 218.103 312.137 218.127 312.025 218.151V218.159C311.707 218.231 311.367 218.319 311.03 218.343C310.97 218.359 310.91 218.375 310.849 218.391C310.569 218.455 310.24 218.56 309.931 218.568C307.02 219.183 304.1 219.807 301.193 220.416C280.493 224.762 259.765 229.141 239.084 233.48C238.876 233.44 238.632 233.48 238.375 233.632C238.287 233.648 238.194 233.664 238.106 233.688C238.054 233.696 238.001 233.704 237.954 233.72C237.701 233.744 237.445 233.767 237.187 233.784L237.168 233.792L237.111 233.8L237.059 233.807L236.947 233.824L236.895 233.832L236.839 233.84L236.682 233.864H236.631L236.579 233.872H236.526L236.478 233.88H236.426L236.377 233.888H236.282L236.234 233.896H236.097L236.053 233.904H235.832L235.792 233.912H235.443L235.399 233.904H235.307L235.259 233.896H235.211L235.163 233.888H235.115L235.062 233.88L235.014 233.872H234.962L234.91 233.864H234.898L234.858 233.856L234.806 233.848H234.753L234.641 233.832L234.585 233.824H234.529L234.469 233.816L234.412 233.807L234.353 233.8L234.288 233.792L234.229 233.784L234.1 233.767L234.032 233.76L233.968 233.744L233.895 233.736L233.827 233.72L233.755 233.704L233.678 233.688L233.602 233.672L233.527 233.648L233.451 233.632L233.37 233.608L233.286 233.584L233.206 233.559L233.122 233.536L233.034 233.504L232.95 233.471L232.861 233.448L232.769 233.416L232.681 233.376L232.588 233.343L232.496 233.312L232.403 233.272L232.312 233.24L232.22 233.2L232.123 233.16L232.031 233.12L231.934 233.08L231.839 233.039L231.742 232.999L231.65 232.959L231.553 232.919L231.457 232.871L231.357 232.831L231.261 232.783L231.164 232.743L231.069 232.696L230.972 232.656L230.876 232.608L230.775 232.559L230.68 232.52L230.583 232.471L230.491 232.423L230.394 232.383L230.299 232.335L230.207 232.287L230.13 232.247L230.114 232.239L230.026 232.199L229.938 232.151L229.849 232.111L229.769 232.063L229.737 232.055C229.761 232.087 229.786 232.127 229.813 232.167C226.416 231.262 222.948 230.566 219.596 229.526C219.772 229.494 219.949 229.453 220.12 229.406C220.141 229.398 220.157 229.389 220.177 229.373C225.615 228.229 231.057 227.092 236.498 225.948C255.838 221.873 275.175 217.806 294.512 213.733C300.194 213.645 303.439 207.801 303.795 202.71C303.707 201.958 303.824 200.397 303.366 199.565C303.042 198.171 302.693 196.779 302.36 195.385C299.685 184.179 296.987 172.957 294.295 161.75C285.422 124.745 276.547 87.7402 267.681 50.7352C267.585 50.7915 267.48 50.8315 267.368 50.8469C266.493 48.4698 265.134 45.9401 263.386 43.8828C266.209 44.5149 268.968 45.3315 271.695 46.2526C271.502 46.3008 271.31 46.3407 271.117 46.3807L271.138 46.3889L271.165 46.3961L271.19 46.4043L271.218 46.4125L271.241 46.4207L271.266 46.436L271.338 46.4606L271.358 46.4688L271.43 46.4924L271.451 46.5006L271.474 46.5088L271.502 46.5241L271.55 46.5405L271.579 46.5487L271.607 46.5641L271.635 46.5723L271.651 46.5805H271.666L271.695 46.5969L271.727 46.6051L271.759 46.6205L271.792 46.6286L271.823 46.645L271.855 46.6532L271.891 46.6686L271.923 46.6768L271.956 46.6932L271.988 46.7004L272.015 46.7086L272.048 46.7249L272.112 46.7403L272.14 46.7567L272.168 46.7649L272.2 46.7731L272.284 46.7967L272.312 46.8131L272.341 46.8202L272.364 46.8284L272.392 46.8366L272.533 46.8766L272.562 46.893L272.589 46.9012L272.617 46.9084L272.649 46.9165L272.678 46.9247L272.709 46.9411L272.766 46.9565L272.794 46.9647L272.821 46.9811L272.878 46.9965L272.95 47.0211L272.974 47.0364L273.022 47.0528L273.05 47.061L273.075 47.0764L273.103 47.0846L273.13 47.101L273.159 47.1092L273.223 47.1409L273.254 47.1573L273.363 47.2055L273.403 47.2209L273.443 47.2372L273.487 47.2608L273.532 47.2772L273.547 47.2854L273.576 47.3008L273.62 47.3172L273.664 47.3407L273.708 47.3571L273.748 47.3807L273.792 47.3971L273.828 47.4135L273.868 47.437L273.94 47.4688L273.976 47.4852L274.013 47.5016L274.077 47.5333L274.109 47.5487L274.205 47.5969L274.237 47.6133L274.266 47.6297L274.289 47.645C274.947 47.6215 275.589 47.7014 276.21 47.8776C276.595 48.0211 276.976 48.1655 277.361 48.31C277.365 48.3172 277.369 48.3172 277.377 48.3172C279.258 49.226 280.906 50.9514 282.214 52.9083C280.02 53.0282 277.838 53.2485 275.681 53.5968C274.911 52.9483 273.555 53.7844 274.101 54.7977C274.133 54.9893 274.217 55.1737 274.342 55.3253C275.97 60.3489 277.201 65.564 278.736 70.6419C279.807 73.8007 280.196 77.2423 281.319 80.3284C281.511 80.5281 281.732 80.6122 281.961 80.6122C282.085 80.7843 282.27 80.9687 282.514 81.1603C282.578 81.1767 282.647 81.1808 282.714 81.1808C283.019 81.1808 283.316 81.0322 283.497 80.7884C283.705 80.7126 283.914 80.6439 284.126 80.5804C284.025 80.9001 284.086 81.2689 284.319 81.5404C285.807 88.8048 288.232 95.8611 289.745 103.125C289.764 103.313 289.84 103.485 289.957 103.621C290.049 104.318 290.975 104.886 291.605 104.285C292.01 104.226 292.415 104.169 292.82 104.121C292.932 104.558 293.081 104.99 293.153 105.435C293.462 106.807 293.83 108.164 294.228 109.513C294.592 110.733 296.441 110.214 296.108 108.992C295.515 107.356 295.311 105.563 294.785 103.909C295.194 103.873 295.603 103.837 296.012 103.813C296.914 107.583 297.817 111.354 298.723 115.124C298.639 115.12 298.555 115.12 298.471 115.116C297.504 115.192 291.424 115.42 289.002 116.504C288.818 116.412 288.605 116.38 288.385 116.429C287.843 116.54 287.534 117.065 287.618 117.594C287.944 119.17 288.312 120.751 288.662 122.328C289.957 128.411 291.167 134.351 292.924 140.338C293.052 140.691 293.374 140.931 293.723 140.975C293.903 141.111 294.143 141.179 294.432 141.139C295.467 140.826 296.529 140.683 297.604 140.607C297.6 140.823 297.669 141.039 297.813 141.219C299.205 147.622 301.258 153.87 302.573 160.29C302.725 160.842 303.178 161.046 303.604 161.002C303.724 161.13 303.9 161.227 304.121 161.278C304.185 161.29 304.245 161.298 304.309 161.298C304.662 161.298 305.003 161.103 305.175 160.798C305.468 160.726 305.76 160.654 306.054 160.59C305.966 160.766 305.933 160.982 305.985 161.231C307.662 167.894 309.029 174.553 310.729 181.222C310.794 181.522 310.998 181.758 311.259 181.886C311.219 182.779 312.526 183.319 313.064 182.454C313.645 182.386 314.23 182.326 314.812 182.275C316.773 190.459 318.737 198.644 320.698 206.825Z" style="fill: var(--secondary-fixed);"/>
</g>
<defs>
<linearGradient id="paint0_linear_2414_1156" x1="308.702" y1="67.3929" x2="278.615" y2="67.6421" gradientUnits="userSpaceOnUse">
<stop style="stop-color: var(--tertiary-fixed);"/>
<stop offset="1" style="stop-color: var(--tertiary-fixed-dim);"/>
</linearGradient>
<linearGradient id="paint1_linear_2414_1156" x1="315.167" y1="126.953" x2="291.048" y2="129.444" gradientUnits="userSpaceOnUse">
<stop style="stop-color: var(--primary-fixed);"/>
<stop offset="1" style="stop-color: var(--primary-fixed-dim);"/>
</linearGradient>
<linearGradient id="paint2_linear_2414_1156" x1="317.404" y1="88.7354" x2="288.812" y2="93.2195" gradientUnits="userSpaceOnUse">
<stop style="stop-color: var(--primary-fixed);"/>
<stop offset="1" style="stop-color: var(--primary-fixed-dim);"/>
</linearGradient>
<linearGradient id="paint3_linear_2414_1156" x1="324.367" y1="146.807" x2="301.493" y2="150.045" gradientUnits="userSpaceOnUse">
<stop style="stop-color: var(--tertiary-fixed);"/>
<stop offset="1" style="stop-color: var(--tertiary-fixed-dim);"/>
</linearGradient>
<linearGradient id="paint4_linear_2414_1156" x1="332.821" y1="169.142" x2="308.206" y2="172.131" gradientUnits="userSpaceOnUse">
<stop style="stop-color: var(--primary-fixed);"/>
<stop offset="1" style="stop-color: var(--primary-fixed-dim);"/>
</linearGradient>
<linearGradient id="paint5_linear_2414_1156" x1="218.938" y1="44.5615" x2="268.734" y2="244.382" gradientUnits="userSpaceOnUse">
<stop style="stop-color: var(--primary-fixed-dim);"/>
<stop offset="1" style="stop-color: var(--secondary-fixed-dim);"/>
</linearGradient>
<linearGradient id="paint6_linear_2414_1156" x1="202.279" y1="115.041" x2="237.801" y2="135.699" gradientUnits="userSpaceOnUse">
<stop style="stop-color: var(--tertiary-fixed);"/>
<stop offset="1" style="stop-color: var(--primary-fixed-dim);"/>
</linearGradient>
<linearGradient id="paint7_linear_2414_1156" x1="194.819" y1="141.843" x2="219.662" y2="155.533" gradientUnits="userSpaceOnUse">
<stop style="stop-color: var(--tertiary-fixed);"/>
<stop offset="1" style="stop-color: var(--primary-fixed-dim);"/>
</linearGradient>
<linearGradient id="paint8_linear_2414_1156" x1="68.7523" y1="59.9479" x2="88.8166" y2="189.503" gradientUnits="userSpaceOnUse">
<stop style="stop-color: var(--primary-fixed);"/>
<stop offset="1" style="stop-color: var(--primary-fixed-dim);"/>
</linearGradient>
<linearGradient id="paint9_linear_2414_1156" x1="119.726" y1="17.2631" x2="122.699" y2="31.1629" gradientUnits="userSpaceOnUse">
<stop style="stop-color: var(--primary-fixed);"/>
<stop offset="1" style="stop-color: var(--primary-fixed-dim);"/>
</linearGradient>
<linearGradient id="paint10_linear_2414_1156" x1="168.213" y1="91.4652" x2="154.538" y2="93.2091" gradientUnits="userSpaceOnUse">
<stop style="stop-color: var(--primary-fixed-dim);"/>
<stop offset="1" style="stop-color: var(--tertiary-fixed);"/>
</linearGradient>
<clipPath id="clip0_2414_1156">
<rect width="369" height="237" fill="white"/>
</clipPath>
</defs>
</svg>