<svg width="235" height="236" viewBox="0 0 235 236" fill="none" xmlns="http://www.w3.org/2000/svg">
<path d="M126.451 29.3727C126.231 29.3736 126.015 29.3048 125.836 29.1761L117.404 23.0631L108.972 29.1761C108.792 29.3067 108.575 29.3767 108.352 29.3759C108.13 29.3751 107.913 29.3035 107.734 29.1716C107.555 29.0396 107.422 28.8541 107.356 28.6418C107.289 28.4295 107.291 28.2015 107.362 27.9907L110.651 18.2503L102.128 12.4055C101.943 12.279 101.804 12.0968 101.73 11.8855C101.657 11.6742 101.652 11.4449 101.718 11.2311C101.784 11.0172 101.917 10.8301 102.097 10.6969C102.277 10.5638 102.494 10.4917 102.718 10.4911H113.233L116.406 0.725698C116.474 0.514867 116.608 0.331106 116.787 0.200775C116.966 0.070445 117.182 0.000244141 117.404 0.000244141C117.625 0.000244141 117.841 0.070445 118.021 0.200775C118.2 0.331106 118.333 0.514867 118.402 0.725698L121.575 10.4943H132.09C132.314 10.4942 132.532 10.5659 132.712 10.6987C132.893 10.8316 133.026 11.0188 133.092 11.2328C133.158 11.4468 133.154 11.6764 133.081 11.888C133.007 12.0996 132.868 12.2821 132.683 12.4087L124.157 18.2503L127.443 27.9881C127.497 28.1457 127.511 28.3138 127.487 28.4784C127.462 28.643 127.399 28.7994 127.302 28.9347C127.205 29.0699 127.078 29.1802 126.93 29.2564C126.782 29.3326 126.618 29.3724 126.451 29.3727Z" fill="#D0C4C4"/>
<path d="M126.451 235.055C126.231 235.055 126.015 234.987 125.836 234.858L117.404 228.745L108.972 234.858C108.792 234.989 108.575 235.059 108.352 235.058C108.13 235.057 107.913 234.985 107.734 234.853C107.555 234.721 107.422 234.536 107.356 234.324C107.289 234.111 107.291 233.883 107.362 233.673L110.651 223.932L102.128 218.087C101.943 217.961 101.804 217.779 101.73 217.567C101.657 217.356 101.652 217.127 101.718 216.913C101.784 216.699 101.917 216.512 102.097 216.379C102.277 216.246 102.494 216.174 102.718 216.173H113.233L116.406 206.408C116.474 206.197 116.608 206.013 116.787 205.883C116.966 205.752 117.182 205.682 117.404 205.682C117.625 205.682 117.841 205.752 118.021 205.883C118.2 206.013 118.333 206.197 118.402 206.408L121.575 216.176H132.09C132.314 216.176 132.532 216.248 132.712 216.381C132.893 216.514 133.026 216.701 133.092 216.915C133.158 217.129 133.154 217.358 133.081 217.57C133.007 217.782 132.868 217.964 132.683 218.091L124.157 223.932L127.443 233.67C127.497 233.828 127.511 233.996 127.487 234.16C127.462 234.325 127.399 234.481 127.302 234.617C127.205 234.752 127.078 234.862 126.93 234.938C126.782 235.014 126.618 235.054 126.451 235.055Z" fill="#D0C4C4"/>
<path d="M184.545 43.8908C184.324 43.8917 184.109 43.8228 183.929 43.6941L175.498 37.5812L167.066 43.6941C166.886 43.8248 166.669 43.8948 166.446 43.894C166.224 43.8932 166.007 43.8216 165.828 43.6896C165.649 43.5577 165.516 43.3721 165.449 43.1599C165.382 42.9476 165.385 42.7196 165.456 42.5088L168.745 32.7683L160.222 26.9235C160.037 26.7971 159.898 26.6149 159.824 26.4036C159.75 26.1923 159.746 25.963 159.812 25.7491C159.878 25.5353 160.011 25.3481 160.19 25.215C160.37 25.0819 160.588 25.0097 160.812 25.0091H171.327L174.5 15.2438C174.568 15.0329 174.701 14.8492 174.881 14.7188C175.06 14.5885 175.276 14.5183 175.498 14.5183C175.719 14.5183 175.935 14.5885 176.114 14.7188C176.294 14.8492 176.427 15.0329 176.495 15.2438L179.669 25.0124H190.183C190.407 25.0123 190.626 25.0839 190.806 25.2168C190.986 25.3497 191.119 25.5368 191.186 25.7509C191.252 25.9649 191.248 26.1945 191.175 26.4061C191.101 26.6177 190.962 26.8002 190.777 26.9268L182.25 32.7683L185.537 42.5062C185.59 42.6638 185.605 42.8319 185.581 42.9965C185.556 43.1611 185.493 43.3174 185.396 43.4527C185.299 43.588 185.171 43.6983 185.023 43.7745C184.875 43.8506 184.711 43.8905 184.545 43.8908Z" fill="#D0C4C4"/>
<path d="M68.3576 43.8908C68.1368 43.8917 67.9213 43.8228 67.7419 43.6941L59.3101 37.5812L50.8783 43.6941C50.6981 43.8248 50.4811 43.8948 50.2586 43.894C50.036 43.8932 49.8195 43.8216 49.6403 43.6896C49.4611 43.5577 49.3286 43.3721 49.2618 43.1599C49.195 42.9476 49.1974 42.7196 49.2687 42.5088L52.5573 32.7683L44.0343 26.9235C43.8497 26.7971 43.7103 26.6149 43.6366 26.4036C43.563 26.1923 43.5587 25.963 43.6247 25.7491C43.6906 25.5353 43.8231 25.3481 44.003 25.215C44.1829 25.0819 44.4006 25.0097 44.6244 25.0091H55.1391L58.3123 15.2438C58.3806 15.0329 58.514 14.8492 58.6933 14.7188C58.8725 14.5885 59.0885 14.5183 59.3101 14.5183C59.5317 14.5183 59.7477 14.5885 59.9269 14.7188C60.1062 14.8492 60.2396 15.0329 60.3079 15.2438L63.4811 25.0124H73.9958C74.2199 25.0123 74.4381 25.0839 74.6185 25.2168C74.7989 25.3497 74.932 25.5368 74.9983 25.7509C75.0647 25.9649 75.0607 26.1945 74.9871 26.4061C74.9135 26.6177 74.774 26.8002 74.5892 26.9268L66.0629 32.7683L69.3495 42.5062C69.4028 42.6638 69.4177 42.8319 69.3932 42.9965C69.3687 43.1611 69.3053 43.3174 69.2084 43.4527C69.1115 43.588 68.9838 43.6983 68.8359 43.7745C68.6879 43.8506 68.524 43.8905 68.3576 43.8908Z" fill="#D0C4C4"/>
<path d="M184.545 218.116C184.324 218.117 184.109 218.048 183.929 217.919L175.498 211.807L167.066 217.919C166.886 218.05 166.669 218.12 166.446 218.119C166.224 218.118 166.007 218.047 165.828 217.915C165.649 217.783 165.516 217.597 165.449 217.385C165.382 217.173 165.385 216.945 165.456 216.734L168.745 206.994L160.222 201.149C160.037 201.022 159.898 200.84 159.824 200.629C159.75 200.418 159.746 200.188 159.812 199.974C159.878 199.761 160.011 199.573 160.19 199.44C160.37 199.307 160.588 199.235 160.812 199.234H171.327L174.5 189.469C174.568 189.258 174.701 189.075 174.881 188.944C175.06 188.814 175.276 188.744 175.498 188.744C175.719 188.744 175.935 188.814 176.114 188.944C176.294 189.075 176.427 189.258 176.495 189.469L179.669 199.238H190.183C190.407 199.238 190.626 199.309 190.806 199.442C190.986 199.575 191.119 199.762 191.186 199.976C191.252 200.19 191.248 200.42 191.175 200.631C191.101 200.843 190.962 201.026 190.777 201.152L182.25 206.994L185.537 216.732C185.59 216.889 185.605 217.057 185.581 217.222C185.556 217.386 185.493 217.543 185.396 217.678C185.299 217.813 185.171 217.924 185.023 218C184.875 218.076 184.711 218.116 184.545 218.116Z" fill="#D0C4C4"/>
<path d="M68.3576 218.116C68.1368 218.117 67.9213 218.048 67.7419 217.919L59.3101 211.807L50.8783 217.919C50.6981 218.05 50.4811 218.12 50.2586 218.119C50.036 218.118 49.8195 218.047 49.6403 217.915C49.4611 217.783 49.3286 217.597 49.2618 217.385C49.195 217.173 49.1974 216.945 49.2687 216.734L52.5573 206.994L44.0343 201.149C43.8497 201.022 43.7103 200.84 43.6366 200.629C43.563 200.418 43.5587 200.188 43.6247 199.974C43.6906 199.761 43.8231 199.573 44.003 199.44C44.1829 199.307 44.4006 199.235 44.6244 199.234H55.1391L58.3123 189.469C58.3806 189.258 58.514 189.075 58.6933 188.944C58.8725 188.814 59.0885 188.744 59.3101 188.744C59.5317 188.744 59.7477 188.814 59.9269 188.944C60.1062 189.075 60.2396 189.258 60.3079 189.469L63.4811 199.238H73.9958C74.2199 199.238 74.4381 199.309 74.6185 199.442C74.7989 199.575 74.932 199.762 74.9983 199.976C75.0647 200.19 75.0607 200.42 74.9871 200.631C74.9135 200.843 74.774 201.026 74.5892 201.152L66.0629 206.994L69.3495 216.732C69.4028 216.889 69.4177 217.057 69.3932 217.222C69.3687 217.386 69.3053 217.543 69.2084 217.678C69.1115 217.813 68.9838 217.924 68.8359 218C68.6879 218.076 68.524 218.116 68.3576 218.116Z" fill="#D0C4C4"/>
<path d="M36.8966 85.0248C36.6758 85.0257 36.4604 84.9569 36.281 84.8282L27.8492 78.7152L19.4173 84.8282C19.2372 84.9588 19.0201 85.0288 18.7976 85.028C18.5751 85.0272 18.3586 84.9556 18.1794 84.8237C18.0002 84.6917 17.8676 84.5062 17.8008 84.2939C17.734 84.0816 17.7365 83.8536 17.8078 83.6428L21.0963 73.9024L12.5734 68.0576C12.3887 67.9311 12.2494 67.7489 12.1757 67.5376C12.102 67.3263 12.0978 67.097 12.1637 66.8832C12.2296 66.6693 12.3622 66.4822 12.5421 66.349C12.7219 66.2159 12.9396 66.1438 13.1634 66.1432H23.6781L26.8513 56.3778C26.9197 56.167 27.0531 55.9832 27.2323 55.8529C27.4116 55.7225 27.6275 55.6523 27.8492 55.6523C28.0708 55.6523 28.2867 55.7225 28.466 55.8529C28.6453 55.9832 28.7787 56.167 28.847 56.3778L32.0202 66.1464H42.5349C42.759 66.1463 42.9772 66.218 43.1576 66.3508C43.338 66.4837 43.4711 66.6709 43.5374 66.8849C43.6037 67.0989 43.5998 67.3285 43.5262 67.5401C43.4525 67.7517 43.3131 67.9342 43.1282 68.0608L34.602 73.9024L37.8886 83.6402C37.9418 83.7978 37.9568 83.9659 37.9323 84.1305C37.9077 84.2951 37.8444 84.4515 37.7475 84.5868C37.6506 84.722 37.5229 84.8323 37.3749 84.9085C37.227 84.9847 37.063 85.0245 36.8966 85.0248Z" fill="#D0C4C4"/>
<path d="M24.7794 133.428C24.5587 133.429 24.3432 133.36 24.1638 133.231L15.732 127.118L7.30013 133.231C7.11999 133.362 6.90296 133.432 6.68043 133.431C6.45789 133.43 6.24138 133.359 6.06219 133.227C5.88301 133.095 5.75043 132.909 5.68363 132.697C5.61683 132.485 5.61927 132.257 5.69059 132.046L8.97915 122.305L0.456173 116.461C0.27156 116.334 0.132224 116.152 0.0585246 115.941C-0.0151749 115.729 -0.0193759 115.5 0.0465356 115.286C0.112447 115.072 0.245017 114.885 0.424875 114.752C0.604733 114.619 0.822453 114.547 1.04623 114.546H11.561L14.7341 104.781C14.8025 104.57 14.9359 104.386 15.1151 104.256C15.2944 104.126 15.5103 104.055 15.732 104.055C15.9536 104.055 16.1696 104.126 16.3488 104.256C16.5281 104.386 16.6615 104.57 16.7298 104.781L19.903 114.55H30.4177C30.6418 114.549 30.86 114.621 31.0404 114.754C31.2208 114.887 31.3539 115.074 31.4202 115.288C31.4865 115.502 31.4826 115.732 31.409 115.943C31.3353 116.155 31.1959 116.337 31.0111 116.464L22.4848 122.305L25.7714 132.043C25.8246 132.201 25.8396 132.369 25.8151 132.534C25.7906 132.698 25.7272 132.855 25.6303 132.99C25.5334 133.125 25.4057 133.235 25.2577 133.312C25.1098 133.388 24.9459 133.428 24.7794 133.428Z" fill="#D0C4C4"/>
<path d="M218.42 85.0248C218.199 85.0257 217.984 84.9569 217.804 84.8282L209.373 78.7152L200.941 84.8282C200.761 84.9588 200.544 85.0288 200.321 85.028C200.099 85.0272 199.882 84.9556 199.703 84.8237C199.524 84.6917 199.391 84.5062 199.324 84.2939C199.257 84.0816 199.26 83.8536 199.331 83.6428L202.62 73.9024L194.097 68.0576C193.912 67.9311 193.773 67.7489 193.699 67.5376C193.625 67.3263 193.621 67.097 193.687 66.8832C193.753 66.6693 193.886 66.4822 194.065 66.349C194.245 66.2159 194.463 66.1438 194.687 66.1432H205.202L208.375 56.3778C208.443 56.167 208.576 55.9832 208.756 55.8529C208.935 55.7225 209.151 55.6523 209.373 55.6523C209.594 55.6523 209.81 55.7225 209.989 55.8529C210.169 55.9832 210.302 56.167 210.37 56.3778L213.544 66.1464H224.058C224.282 66.1463 224.501 66.218 224.681 66.3508C224.861 66.4837 224.994 66.6709 225.061 66.8849C225.127 67.0989 225.123 67.3285 225.05 67.5401C224.976 67.7517 224.837 67.9342 224.652 68.0608L216.125 73.9024L219.412 83.6402C219.465 83.7978 219.48 83.9659 219.456 84.1305C219.431 84.2951 219.368 84.4515 219.271 84.5868C219.174 84.722 219.046 84.8323 218.898 84.9085C218.75 84.9847 218.586 85.0245 218.42 85.0248Z" fill="#D0C4C4"/>
<path d="M228.123 133.428C227.902 133.429 227.687 133.36 227.508 133.231L219.076 127.118L210.644 133.231C210.464 133.362 210.247 133.432 210.024 133.431C209.802 133.43 209.585 133.359 209.406 133.227C209.227 133.095 209.094 132.909 209.027 132.697C208.961 132.485 208.963 132.257 209.034 132.046L212.323 122.305L203.8 116.461C203.615 116.334 203.476 116.152 203.402 115.941C203.329 115.729 203.324 115.5 203.39 115.286C203.456 115.072 203.589 114.885 203.769 114.752C203.948 114.619 204.166 114.547 204.39 114.546H214.905L218.078 104.781C218.146 104.57 218.28 104.386 218.459 104.256C218.638 104.126 218.854 104.055 219.076 104.055C219.297 104.055 219.513 104.126 219.693 104.256C219.872 104.386 220.005 104.57 220.074 104.781L223.247 114.55H233.761C233.986 114.549 234.204 114.621 234.384 114.754C234.565 114.887 234.698 115.074 234.764 115.288C234.83 115.502 234.826 115.732 234.753 115.943C234.679 116.155 234.54 116.337 234.355 116.464L225.829 122.305L229.115 132.043C229.168 132.201 229.183 132.369 229.159 132.534C229.134 132.698 229.071 132.855 228.974 132.99C228.877 133.125 228.749 133.235 228.601 133.312C228.454 133.388 228.29 133.428 228.123 133.428Z" fill="#D0C4C4"/>
<path d="M36.8966 181.819C36.6758 181.82 36.4604 181.751 36.281 181.622L27.8492 175.509L19.4173 181.622C19.2372 181.753 19.0201 181.823 18.7976 181.822C18.5751 181.821 18.3586 181.75 18.1794 181.618C18.0002 181.486 17.8676 181.3 17.8008 181.088C17.734 180.876 17.7365 180.648 17.8078 180.437L21.0963 170.696L12.5734 164.852C12.3887 164.725 12.2494 164.543 12.1757 164.332C12.102 164.12 12.0978 163.891 12.1637 163.677C12.2296 163.463 12.3622 163.276 12.5421 163.143C12.7219 163.01 12.9396 162.938 13.1634 162.937H23.6781L26.8513 153.172C26.9197 152.961 27.0531 152.777 27.2323 152.647C27.4116 152.516 27.6275 152.446 27.8492 152.446C28.0708 152.446 28.2867 152.516 28.466 152.647C28.6453 152.777 28.7787 152.961 28.847 153.172L32.0202 162.94H42.5349C42.759 162.94 42.9772 163.012 43.1576 163.145C43.338 163.278 43.4711 163.465 43.5374 163.679C43.6037 163.893 43.5998 164.122 43.5262 164.334C43.4525 164.546 43.3131 164.728 43.1282 164.855L34.602 170.696L37.8886 180.434C37.9418 180.592 37.9568 180.76 37.9323 180.924C37.9077 181.089 37.8444 181.245 37.7475 181.381C37.6506 181.516 37.5229 181.626 37.3749 181.702C37.227 181.779 37.063 181.818 36.8966 181.819Z" fill="#D0C4C4"/>
<path d="M218.436 181.819C218.215 181.82 217.999 181.751 217.82 181.622L209.388 175.509L200.956 181.622C200.776 181.753 200.559 181.823 200.337 181.822C200.114 181.821 199.898 181.75 199.718 181.618C199.539 181.486 199.407 181.3 199.34 181.088C199.273 180.876 199.276 180.648 199.347 180.437L202.635 170.696L194.112 164.852C193.928 164.725 193.788 164.543 193.715 164.332C193.641 164.12 193.637 163.891 193.703 163.677C193.769 163.463 193.901 163.276 194.081 163.143C194.261 163.01 194.479 162.938 194.702 162.937H205.217L208.39 153.172C208.459 152.961 208.592 152.777 208.771 152.647C208.951 152.516 209.167 152.446 209.388 152.446C209.61 152.446 209.826 152.516 210.005 152.647C210.184 152.777 210.318 152.961 210.386 153.172L213.559 162.94H224.074C224.298 162.94 224.516 163.012 224.697 163.145C224.877 163.278 225.01 163.465 225.076 163.679C225.143 163.893 225.139 164.122 225.065 164.334C224.992 164.546 224.852 164.728 224.667 164.855L216.141 170.696L219.428 180.434C219.481 180.592 219.496 180.76 219.471 180.924C219.447 181.089 219.383 181.245 219.287 181.381C219.19 181.516 219.062 181.626 218.914 181.702C218.766 181.779 218.602 181.818 218.436 181.819Z" fill="#D0C4C4"/>
</svg>
