<svg xmlns="http://www.w3.org/2000/svg" width="369" height="227" viewBox="0 0 369 227" fill="none">
<g id="feedback" clip-path="url(#clip0_2414_1310)">
<g id="FL">
<path id="vec0" d="M318.421 97.6741C319.239 92.4755 304.421 82.2783 300.232 78.9792C295.122 74.9803 289.808 70.5814 287.969 64.0832C284.495 53.786 287.663 45.9881 295.429 38.69C298.086 35.5909 302.48 34.0913 306.567 33.9913C307.078 33.9913 307.487 33.3915 307.487 32.8916C306.874 30.4923 299.108 33.4914 297.473 34.3912C295.531 35.3909 294.203 37.0905 292.67 38.5901C290.422 40.8895 288.378 43.3888 286.845 46.188C282.86 53.8859 284.29 63.6833 288.991 70.7814C294.1 77.7795 301.867 82.0783 308.305 87.6768C311.064 90.576 315.049 92.9754 316.48 96.8744C316.173 97.1743 316.173 97.5742 316.377 97.9741C316.582 98.274 316.888 98.4739 317.195 98.4739C317.706 98.4739 318.217 98.074 318.421 97.6741ZM331.399 63.9832C331.808 58.9846 331.91 53.686 329.253 49.2872C327.618 46.4879 326.085 43.5887 323.531 41.4893C320.874 39.6898 317.808 38.0902 314.436 37.9902C313.107 37.9902 307.691 38.0902 308.1 40.0897C308.713 41.4893 310.246 40.1896 311.37 40.0897C313.21 39.6898 315.356 39.7897 317.093 40.3896C318.319 40.7895 319.443 41.2893 320.465 41.8892C318.013 43.9886 317.297 47.4877 317.093 50.4869C316.582 57.5849 321.283 65.8827 328.436 67.7822C327.925 69.2818 326.903 70.5815 325.779 71.7811C325.268 72.4809 323.633 73.3807 324.655 74.3804C324.859 74.5804 325.166 74.6803 325.37 74.6803C326.29 74.6803 327.107 73.2807 327.72 72.6809C329.969 70.2815 330.99 67.1824 331.399 63.9832ZM342.946 126.966C343.866 123.367 342.946 119.268 341.311 115.869C339.881 112.97 338.348 110.171 336.1 107.771C333.954 105.372 331.399 103.173 330.275 100.173C329.662 98.274 329.151 96.2745 329.253 94.2751C329.355 92.1756 330.377 90.2761 330.684 88.2767C330.684 86.6771 328.129 87.077 328.64 88.5766C326.801 93.2753 326.801 98.5739 329.458 102.973C332.319 107.172 336.611 110.371 338.655 115.169C340.187 117.869 341.209 120.868 341.311 124.067C341.311 124.967 341.414 125.867 341.005 126.666C338.859 130.765 335.385 130.265 331.297 129.566C326.392 128.566 323.633 123.867 321.998 119.568C321.691 118.868 321.487 117.469 320.465 117.769C318.626 118.169 321.078 122.268 321.589 123.267C324.45 129.066 328.844 131.965 335.487 131.865C335.691 131.865 335.895 131.865 336.1 131.865C339.166 131.865 341.72 129.666 342.946 126.966ZM347.238 62.6836C349.997 53.786 349.282 44.3885 345.91 35.7908C344.275 31.8919 342.333 28.0929 339.472 24.8938C337.939 22.8943 336.406 20.6949 334.465 18.8954C331.093 16.1961 326.903 14.1967 322.815 12.897C318.523 11.7973 314.129 11.7973 309.735 11.6973C306.874 11.6973 301.049 12.3971 300.436 15.6962C300.436 16.1961 300.947 16.596 301.458 16.596C302.173 16.596 302.275 15.9962 302.582 15.5963C304.524 14.0967 307.181 13.7968 309.633 13.6968C313.823 13.6968 318.013 13.6968 322.1 14.7965C326.188 16.0961 330.275 17.9956 333.545 20.6949C336.406 23.6941 338.859 27.0932 341.311 30.4923C344.275 35.6909 346.114 41.3893 346.932 47.2877C347.852 53.4861 346.523 59.8843 344.377 65.7827C343.968 66.7825 343.355 67.6822 342.742 68.582C342.436 68.9819 342.538 69.5817 343.049 69.8816C343.151 69.8816 343.355 69.9816 343.457 69.9816C345.297 69.9816 347.034 63.9832 347.443 62.6836H347.238ZM366.552 109.571C367.574 116.069 367.472 122.567 366.45 129.066C366.143 130.565 365.428 132.065 365.224 133.664C363.589 137.863 361.136 141.762 357.662 144.661C352.45 149.86 345.195 154.059 337.428 153.759C338.552 151.26 339.779 148.86 341.72 146.861C341.822 146.861 342.027 146.961 342.231 146.961C342.946 146.961 343.764 146.361 344.071 145.761C345.195 143.962 344.275 141.462 343.049 139.963C342.129 138.563 339.881 137.064 338.45 138.363C338.246 138.363 338.144 138.363 337.939 138.563C333.954 141.362 330.479 146.561 328.334 152.259C325.574 151.26 322.509 149.36 321.078 148.46C316.582 145.461 312.29 141.962 310.042 137.064C307.896 132.765 306.465 128.466 306.056 123.667C305.443 117.769 305.443 111.57 302.991 106.072C301.969 104.072 300.64 102.273 299.21 100.573C292.976 93.5752 285.21 88.2767 278.159 82.1783C272.13 76.7798 266.816 70.7814 262.831 63.7833C261.196 60.8841 259.561 57.9848 258.641 54.7857C258.641 54.5858 258.641 54.4858 258.641 54.2858C258.232 52.8862 258.028 51.4866 258.13 50.087C258.13 49.987 258.13 49.787 258.13 49.6871C258.13 49.4871 258.13 49.3872 258.13 49.1872C258.13 48.9873 258.13 48.7873 258.13 48.6873C258.13 48.4874 258.13 48.2875 258.13 48.0875C258.13 47.7876 258.13 47.4877 258.232 47.2877C258.232 47.1878 258.232 47.0878 258.232 46.9878C258.232 46.6879 258.334 46.288 258.437 45.9881C258.437 45.7881 258.437 45.6882 258.437 45.4882C258.437 45.0883 258.539 44.7884 258.641 44.3885C258.641 44.1886 258.641 44.0886 258.743 43.8886C258.743 43.4888 258.948 43.1888 259.05 42.7889C259.05 42.489 259.254 42.1891 259.254 41.8892C259.765 40.1896 260.276 38.3901 260.991 36.6906C261.093 36.3907 261.298 36.0907 261.4 35.6908C261.4 35.4909 261.604 35.291 261.707 35.091C261.809 34.7911 262.013 34.3912 262.115 34.0913C262.422 33.3915 262.729 32.6917 263.035 31.9919C263.035 31.7919 263.239 31.6919 263.239 31.492C264.466 28.9927 265.999 26.4933 267.531 24.194C267.634 23.994 267.736 23.894 267.838 23.6941C268.758 22.3944 269.78 21.1948 270.801 19.9951C270.801 19.8951 271.006 19.7951 271.108 19.6952C272.13 18.5955 273.152 17.4958 274.276 16.596H274.48C274.889 16.596 275.298 16.2961 275.298 15.7962C275.298 15.2964 275.298 15.6962 275.298 15.5963C278.466 12.6971 282.349 10.7976 286.13 8.79811C296.451 3.19962 308.509 1.00021 320.261 1.99994C325.37 2.69975 330.377 3.9994 334.976 6.29878C336.1 6.89862 337.224 7.39849 338.348 7.99832C338.348 7.99832 338.552 7.99832 338.655 7.99832C340.698 9.29797 342.538 10.6976 344.173 12.3971C350.917 17.8957 355.822 24.9937 359.808 32.5917C363.384 39.0899 364.304 46.6879 364.304 54.0859C363.997 57.6849 363.078 61.284 361.851 64.5831C361.749 65.2829 360.932 66.5825 360.829 67.5823C360.523 68.382 360.216 69.1818 359.91 70.0816C358.786 73.7806 357.968 77.5796 358.377 81.4785C358.99 86.3772 359.808 91.2759 361.545 95.9746C362.771 100.773 365.632 104.972 366.552 109.871V109.571Z" fill="url(#paint0_linear_2414_1310)"/>
<path id="vec1" d="M184.043 30.6922C184.963 27.9929 183.839 24.5938 180.773 23.994C174.233 22.6944 170.555 31.0921 177.299 33.7914C177.708 33.7914 178.219 33.8913 178.627 33.8913C180.876 33.8913 183.226 32.7916 184.043 30.6922ZM192.525 32.7916C197.532 32.7916 199.78 24.8938 193.751 23.3942C193.547 22.2945 192.321 22.5944 191.503 22.7943C186.7 23.3942 186.7 30.7922 190.686 32.4917C191.299 32.6917 192.014 32.7916 192.525 32.7916ZM206.116 32.7916C210.408 32.4917 213.167 25.5936 209.08 23.1942C207.751 22.3944 205.196 21.6946 204.481 23.3942C199.678 25.0937 201.211 32.5917 206.116 32.7916ZM270.597 16.8959C270.699 16.8959 270.801 16.8959 270.904 16.8959C268.553 19.3952 266.407 22.0945 264.67 25.0937C262.422 28.8927 259.969 33.4914 258.334 38.1902C258.232 38.1902 258.13 38.1902 257.926 38.1902C251.897 38.1902 245.867 38.1902 239.838 38.1902H183.022C181.08 38.1902 179.241 38.1902 177.299 38.1902C175.357 38.1902 173.518 38.1902 171.576 38.1902C170.963 38.1902 170.35 38.1902 169.839 38.1902C169.533 38.1902 169.124 38.1902 168.715 38.1902C167.693 38.1902 166.671 38.1902 165.752 38.1902V34.6911C165.752 34.6911 165.752 34.4912 165.752 34.3912C165.752 34.1913 165.752 33.9913 165.752 33.7914C165.752 33.6914 165.752 33.5914 165.752 33.3915C165.649 31.9919 165.752 30.6922 165.956 29.1926C167.591 21.1948 173.007 18.0956 180.876 17.0959C181.08 17.0959 181.284 17.0959 181.489 16.9959C196.204 16.9959 210.919 16.9959 225.532 16.9959C240.554 16.9959 255.575 16.9959 270.597 16.8959Z" style="fill: var(--primary-fixed-dim);"/>
<path id="vec2" d="M206.831 24.4939C210.612 25.2937 208.977 30.0924 206.218 30.9921C203.153 30.8921 202.335 25.9935 205.401 25.1937C206.014 25.4936 206.729 25.1937 206.831 24.4939Z" style="fill: var(--on-success-container);"/>
<path id="vec3" d="M194.875 26.1934C196.408 27.793 194.875 30.7922 192.729 30.8921C189.357 31.392 188.54 24.8938 192.014 24.6938C192.218 24.9937 192.525 25.2937 192.934 25.1937C193.649 25.1937 194.364 25.6935 194.875 26.1934Z" style="fill: var(--secondary-fixed);"/>
<path id="vec4" d="M179.751 25.7935C182.102 25.7935 182.817 28.3928 182.204 30.1923C181.591 31.392 180.058 31.8919 178.832 31.9918C177.197 32.1918 175.562 30.3923 175.766 28.8927C176.073 27.793 176.89 26.4933 178.116 26.0934C178.627 25.8935 179.343 26.0934 179.751 25.7935Z" style="fill: var(--secondary-fixed-dim);"/>
<path id="vec5" d="M254.962 128.466C259.765 125.767 258.13 121.168 253.838 118.968C249.955 117.169 245.561 117.069 241.371 117.269C238.919 117.369 236.364 117.269 233.911 117.269C232.379 117.269 230.744 117.169 229.211 117.169C227.678 117.169 226.145 117.169 224.612 117.169C219.605 117.169 214.7 117.169 209.693 118.169C205.094 118.568 202.744 121.068 203.664 125.567C204.072 126.666 204.686 127.466 205.503 128.066C205.094 129.066 204.481 129.965 203.766 130.765C203.05 131.565 202.335 132.265 201.518 132.965C200.802 133.265 200.802 134.364 201.518 134.664C202.642 135.164 203.97 134.564 205.196 134.264C208.058 133.764 210.51 132.265 212.145 130.065C214.291 130.265 216.539 130.265 218.174 130.265C221.853 130.265 225.634 130.465 229.313 130.465C229.722 130.465 230.233 130.465 230.641 130.465C231.765 130.465 232.89 130.465 234.014 130.465C235.546 130.465 237.181 130.365 238.714 130.465C239.123 130.465 239.634 130.465 240.043 130.465C240.656 130.465 241.269 130.465 241.78 130.465C242.087 130.465 242.393 130.465 242.7 130.265C246.787 130.065 251.181 130.265 254.962 128.466ZM282.962 109.871C283.677 109.571 283.677 108.471 282.962 108.171C282.144 107.471 281.429 106.772 280.714 105.972C279.998 105.172 279.385 104.172 278.977 103.273C279.794 102.673 280.407 101.773 280.816 100.773C281.633 96.2745 279.283 93.7752 274.787 93.3753C269.882 92.3756 264.875 92.3756 259.867 92.3756C258.334 92.3756 256.802 92.3756 255.269 92.3756C253.736 92.3756 252.101 92.3756 250.568 92.4755C248.116 92.4755 245.561 92.6755 243.108 92.4755C238.919 92.2756 234.422 92.3756 230.641 94.1751C226.247 96.3745 224.612 100.873 229.517 103.673C233.4 105.372 237.795 105.172 241.882 105.372C242.087 105.572 242.495 105.672 242.802 105.572C243.415 105.572 244.028 105.572 244.539 105.572C244.948 105.572 245.459 105.572 245.867 105.572C247.4 105.572 249.035 105.572 250.568 105.572C251.692 105.572 252.816 105.572 253.94 105.572C255.064 105.572 254.86 105.572 255.269 105.572C258.948 105.572 262.729 105.472 266.407 105.372C268.145 105.372 270.291 105.372 272.436 105.172C274.174 107.372 276.626 108.971 279.385 109.371C280.509 109.671 281.838 110.171 282.962 109.871ZM310.962 142.162C310.246 142.162 309.429 142.162 308.713 142.062C308.509 142.062 308.305 142.062 308.1 142.262C304.013 142.262 299.925 142.262 295.838 142.262C262.524 142.262 229.313 142.262 195.999 142.262C194.978 142.262 193.854 142.262 192.832 142.262C191.912 142.262 190.89 142.262 189.97 142.262C189.868 142.262 189.766 142.262 189.664 142.262C189.562 142.262 189.357 142.262 189.255 142.262C189.051 142.262 188.948 142.262 188.744 142.262C188.54 142.262 188.438 142.262 188.233 142.262C186.905 142.262 185.474 142.262 184.043 142.162C184.452 140.763 184.759 139.463 185.168 138.163C185.27 137.563 185.576 137.064 185.576 136.464C185.576 135.864 185.576 136.464 185.576 136.364C187.722 135.064 189.766 133.564 191.708 131.965C195.693 128.266 198.759 123.467 200.087 118.269C200.394 116.669 201.007 114.47 200.496 112.77C200.905 112.87 201.313 112.97 201.824 112.97C202.029 112.97 202.233 112.97 202.335 112.97C205.605 112.97 207.036 108.971 208.466 106.572C211.123 101.373 211.941 92.6755 204.89 90.5761C204.175 90.3761 203.357 89.9762 202.642 89.9762C201.62 86.0773 199.167 82.9781 194.364 83.178C194.364 83.178 194.262 83.178 194.16 83.178C193.956 78.5793 190.89 75.3802 186.292 74.8803C183.839 74.5804 181.591 75.4801 179.445 76.3799C179.649 75.4801 179.854 74.5804 180.058 73.6806C182.102 66.3826 184.657 59.1845 184.146 51.5866C184.452 46.8878 181.897 42.7889 176.584 43.8886C174.438 44.5885 173.007 46.388 171.679 47.9875C168.613 52.3864 167.489 57.6849 166.365 62.7836C166.16 63.4834 165.956 64.1832 165.854 64.783C165.854 61.7838 165.854 58.7846 165.854 55.7854C165.854 50.5868 165.854 45.2883 165.854 40.0897C166.263 40.0897 166.671 40.0897 167.08 40.0897C167.489 40.0897 168.204 40.0897 168.715 40.0897C169.022 40.0897 169.43 40.0897 169.737 40.0897C169.737 40.0897 169.839 40.0897 169.941 40.0897C186.394 40.0897 202.948 40.0897 219.401 40.0897C232.174 40.0897 244.948 40.0897 257.721 40.0897C257.108 42.0891 256.597 44.0886 256.291 46.0881V46.288C256.291 46.388 256.291 46.4879 256.291 46.5879C242.393 46.5879 228.393 46.8878 214.496 47.4877C214.496 47.4877 214.496 47.4877 214.393 47.4877C213.985 47.4877 213.576 47.4877 213.269 47.4877C213.269 47.4877 213.065 47.4877 212.963 47.4877C211.839 46.7879 208.569 47.4877 207.853 48.0875C205.605 49.4871 205.196 52.1864 205.401 54.5858C205.401 54.7857 205.401 54.9856 205.401 55.1856C204.992 60.6841 204.379 66.1826 204.89 71.6811C205.094 73.7806 204.89 76.8797 207.24 77.8795C206.831 78.8792 206.321 79.9789 205.605 80.7787C204.686 81.8784 201.415 83.9778 204.175 84.8776C208.16 85.3774 212.554 83.378 214.7 80.0789C214.802 80.0789 215.007 80.0789 215.109 80.0789C216.437 80.2788 217.766 80.5788 219.196 80.5788C230.948 80.4788 242.7 80.5788 254.451 80.0789C258.232 79.9789 261.911 79.8789 265.692 79.8789C267.531 79.679 269.473 79.9789 271.006 78.9792C271.21 78.7792 271.415 78.6793 271.517 78.4793C278.977 86.1772 288.174 92.1756 295.838 99.7736C305.954 109.071 302.173 119.268 305.443 130.765C306.772 134.864 308.509 138.863 311.064 142.362L310.962 142.162Z" style="fill: var(--tertiary-fixed);"/>
<path id="vec6" d="M340.187 139.863C341.618 140.962 343.56 143.462 342.027 145.061C341.822 144.961 341.618 144.861 341.311 144.861C340.698 144.961 340.187 145.561 339.779 145.961C335.18 152.159 331.808 159.757 331.91 167.555C331.91 167.555 331.91 167.555 331.91 167.655C331.093 169.555 327.72 168.955 327.823 166.955C327.925 166.656 327.823 166.256 327.823 166.056C327.823 165.956 327.823 165.856 327.823 165.756C327.618 162.557 328.231 158.758 329.458 155.059C329.458 154.959 329.458 154.759 329.662 154.659C329.662 154.459 329.764 154.359 329.866 154.159C329.969 153.759 330.173 153.359 330.275 153.059C330.275 153.059 330.275 152.959 330.275 152.859C332.217 147.861 335.18 143.262 338.655 140.563C338.859 140.563 338.961 140.463 339.063 140.363C339.37 140.363 339.574 140.263 339.779 139.963C339.983 139.963 340.187 139.963 340.392 140.063L340.187 139.863Z" style="fill: var(--secondary-fixed-dim);"/>
<path id="vec7" d="M324.757 184.151C325.779 184.951 327.005 183.451 325.983 182.651C323.735 180.952 321.18 179.752 318.83 178.152C318.421 177.952 318.013 177.653 317.604 177.753C317.093 177.753 316.786 178.152 316.786 178.552C315.253 181.252 314.027 184.151 312.29 186.75C312.086 187.45 311.064 188.55 310.655 189.449C310.042 189.849 310.042 190.849 310.859 191.149C313.108 193.048 315.662 194.448 318.115 196.048C318.421 196.348 318.626 196.447 318.932 196.447C319.75 196.447 320.363 195.148 319.341 194.548C318.728 194.148 318.217 193.848 317.604 193.448C318.013 192.649 318.626 191.849 319.034 191.049C320.772 188.65 322.304 185.95 323.531 183.251C323.939 183.551 324.348 183.851 324.757 184.151ZM326.392 176.353C327.107 175.053 327.823 173.354 326.903 171.954C327.414 170.754 325.779 170.355 324.859 170.255C321.18 169.755 319.034 175.153 321.589 177.453C322.202 177.952 322.815 178.152 323.531 178.152C324.655 178.152 325.881 177.453 326.392 176.353ZM339.063 174.453C340.392 183.251 334.056 192.948 326.085 196.747C322.1 198.747 317.604 198.347 313.721 196.547C312.801 196.048 311.881 195.448 310.962 194.848C310.451 194.448 309.94 194.048 309.429 193.548C309.429 193.248 309.122 192.948 308.713 192.848C306.67 190.649 305.341 187.95 305.035 185.051C304.319 178.752 309.122 170.954 315.253 166.456C315.356 166.356 315.458 166.256 315.662 166.156C315.969 165.956 316.275 165.756 316.582 165.556C316.684 165.556 316.888 165.356 316.991 165.256C316.991 165.256 317.195 165.156 317.297 165.156C319.852 163.656 322.611 162.857 325.268 162.957C325.37 163.156 325.574 163.256 325.677 163.256C325.677 164.456 325.677 165.556 325.677 166.656C325.37 168.655 327.312 170.654 329.355 170.754C329.458 170.754 329.56 170.754 329.764 170.754C331.195 170.754 332.626 170.055 333.341 168.855C333.647 168.355 333.954 167.655 333.75 167.055C333.75 166.756 333.75 166.456 333.75 166.156C334.056 166.256 334.261 166.356 334.567 166.556C337.224 168.255 338.45 171.454 339.063 174.453Z" style="fill: var(--secondary-fixed);"/>
<path id="vec8" d="M198.248 94.0751C198.759 95.2748 198.861 96.4745 197.532 97.4742C194.569 99.7736 190.89 98.7738 187.927 97.8741C185.474 97.0743 183.532 96.2745 183.022 97.3742C183.022 97.3742 183.022 97.4742 183.022 97.5742C182.715 97.9741 182.613 98.4739 183.124 98.8738C183.941 105.272 180.058 111.97 174.438 115.269C172.905 115.969 171.168 116.569 169.43 116.469C168.102 116.369 168 118.269 169.226 118.369H169.43C175.664 118.369 180.671 113.77 183.226 108.371C183.839 108.871 184.861 109.271 185.474 109.571C186.087 109.871 186.7 109.971 187.313 109.971C188.642 109.971 189.766 109.371 190.788 108.371C191.708 108.971 193.138 109.471 193.853 109.471C193.956 109.471 194.058 109.471 194.16 109.471C194.978 109.471 195.693 109.371 196.306 109.071C196.306 109.371 196.408 109.671 196.613 109.871C196.817 110.371 197.124 110.771 197.532 111.17C197.226 111.57 197.226 112.07 197.737 112.57C199.474 113.47 198.145 116.569 197.941 118.269C196.715 122.867 194.058 126.966 190.686 130.265C188.744 131.965 186.7 133.464 184.452 134.864C184.146 135.064 183.941 135.464 184.043 135.764C183.43 136.064 183.532 136.864 183.328 137.463C180.773 146.361 178.934 155.758 175.46 164.556C175.153 164.756 175.051 164.956 174.949 165.356C174.949 165.456 174.949 165.556 174.949 165.656C172.496 171.654 169.226 177.353 164.525 182.151C162.482 184.251 160.233 185.85 157.679 187.25C157.27 187.45 156.963 187.55 156.555 187.65C156.248 187.45 155.942 187.45 155.431 187.65C155.124 187.65 154.715 187.65 154.409 187.65C154.307 187.65 154.102 187.65 154 187.65C147.051 185.95 141.124 181.152 135.81 176.753C135.402 176.353 134.789 175.653 134.175 175.653C133.664 175.253 133.154 174.853 132.847 174.553C131.008 172.654 128.964 171.154 127.022 169.355C127.022 169.355 126.818 169.155 126.716 169.155C127.635 165.356 128.657 161.557 129.781 157.858C131.008 153.359 132.54 149.06 134.686 144.861C136.015 142.562 137.037 139.663 139.183 137.863C139.183 137.863 139.285 137.863 139.387 137.863C141.635 140.163 143.883 142.362 146.029 144.761C145.11 145.361 144.088 145.961 143.168 146.461C142.248 147.261 138.467 149.36 139.796 150.66C140 150.86 140.205 150.96 140.511 150.96C140.818 150.96 141.022 150.96 141.226 150.66C142.044 149.86 142.861 149.16 143.883 148.36C144.803 147.761 145.723 147.161 146.642 146.661C146.438 147.561 146.234 148.36 146.131 149.26C146.131 150.66 143.577 155.858 145.621 156.058C145.621 156.058 145.621 156.058 145.723 156.058C146.336 156.058 146.745 155.559 146.745 154.959C147.46 151.86 148.277 148.66 148.891 145.461C149.299 144.062 149.606 142.562 149.912 141.062C150.73 140.563 150.321 138.963 150.526 138.163C150.832 135.764 151.139 133.265 151.445 130.865C152.672 123.667 153.285 116.169 155.328 109.171C155.328 109.171 155.328 109.071 155.328 108.971C155.431 108.671 155.533 108.371 155.635 108.071C155.635 107.971 155.737 107.771 155.839 107.671C155.839 107.471 155.942 107.272 156.044 107.072C156.044 106.772 156.146 106.572 156.248 106.272V106.072C156.963 104.172 157.883 102.273 159.007 100.473C160.949 98.074 163.81 96.6744 166.671 95.2748C171.372 92.9754 175.664 90.2761 180.262 87.7768C181.182 87.2769 182.613 87.077 183.635 86.5771C185.27 86.977 186.905 87.4769 188.54 87.8768C188.131 88.2767 187.927 88.8765 187.927 89.4763C188.642 93.1753 193.138 94.0751 196.306 94.6749C196.306 94.6749 196.51 94.6749 196.613 94.6749C197.124 94.6749 197.634 94.475 198.043 94.275L198.248 94.0751Z" fill="url(#paint1_linear_2414_1310)"/>
<path id="vec9" d="M179.138 45.6882C183.021 46.7879 181.897 51.7865 182 54.8857C182 60.1842 180.262 65.3828 178.73 70.4815C177.503 74.9803 176.686 79.3791 175.357 83.8778C175.357 84.0778 175.357 84.2777 175.357 84.3777C175.153 84.9776 175.051 85.7773 174.744 86.2772C174.438 86.977 174.131 87.8768 173.722 88.6766C173.722 88.8765 173.62 89.0765 173.722 89.2764C172.087 90.1762 170.35 91.0759 168.715 91.9757C166.058 93.2753 163.299 94.575 161.051 96.1745C161.051 95.8746 161.255 95.6747 161.255 95.3747C161.971 92.3756 162.584 89.3764 163.095 86.3772C163.81 82.2783 164.628 78.2794 165.445 74.2804C165.649 73.9805 165.649 73.5806 165.649 73.1807C166.467 69.1818 167.489 65.0829 168.511 61.084C168.511 61.084 168.511 61.084 168.613 61.084C168.817 61.084 169.124 61.184 169.328 61.184C172.7 61.184 175.46 52.2864 174.949 49.887C174.744 49.1872 174.233 48.6873 173.518 48.3874C174.949 46.4879 176.686 45.1883 179.138 45.5882V45.6882Z" style="fill: var(--primary-fixed-dim);"/>
<path id="vec10" d="M192.116 83.178C192.218 84.2777 192.321 85.4774 192.218 86.6771C190.073 85.9773 187.824 85.5774 185.678 84.8776C185.27 84.7776 184.861 84.6776 184.35 84.5777C184.248 84.4777 184.043 84.3777 183.839 84.3777C183.737 84.3777 183.635 84.3777 183.532 84.3777C183.328 84.3777 183.226 84.3777 183.022 84.3777C182.511 84.3777 182.204 84.5777 182.102 84.9776C181.693 85.1775 181.386 85.2775 180.978 85.3774C179.241 85.9773 177.606 86.877 176.073 87.8768C176.073 87.6768 176.277 87.4769 176.379 87.2769C176.686 86.5771 177.299 85.1775 177.197 84.3777C177.708 82.4782 178.219 80.6787 178.73 78.7792C178.832 78.7792 179.036 78.7792 179.138 78.5793C179.854 78.1794 180.569 77.9794 181.489 77.6795C182.715 77.1797 183.941 76.8797 185.167 76.8797C188.846 76.8797 192.116 79.1791 192.116 83.178Z" style="fill: var(--primary-fixed-dim);"/>
<path id="vec11" d="M189.664 106.772C188.437 108.271 186.496 108.671 184.248 106.572C184.248 106.572 184.248 106.572 184.146 106.472C184.657 105.172 184.963 103.772 185.167 102.473C185.167 101.373 185.372 100.073 185.167 98.9738C185.678 99.1737 186.292 99.3737 186.802 99.4736C186.802 99.7736 186.802 100.173 186.7 100.473C186.496 102.973 187.722 105.372 189.664 106.772Z" style="fill: var(--primary-fixed-dim);"/>
<path id="vec12" d="M197.124 92.0756C197.124 92.1756 197.124 92.3756 197.124 92.4755C196.51 92.6755 195.897 92.4755 195.386 92.3756C193.445 91.7757 190.89 91.3758 190.072 89.2764C189.868 88.8765 190.175 88.6766 190.583 88.5766C191.094 89.2764 191.912 89.0765 192.321 88.5766C194.262 89.2764 195.999 90.2761 197.124 91.9757V92.0756Z" style="fill: var(--tertiary-fixed-dim);"/>
<path id="vec13" d="M199.474 100.673C199.576 100.873 199.678 100.973 199.883 100.973C199.269 102.673 198.554 104.272 197.737 105.472C197.737 105.472 197.634 105.472 197.532 105.472C196.715 105.372 196.204 104.572 195.999 103.772C195.795 102.473 196.613 101.273 197.328 100.173C198.145 100.173 199.065 100.173 199.474 100.673Z" style="fill: var(--tertiary-fixed-dim);"/>
<path id="vec14" d="M196.204 106.972C194.978 107.771 193.138 107.671 192.014 106.772C192.321 106.172 192.627 105.572 192.832 104.872C193.138 103.573 193.649 101.973 193.343 100.573C193.853 100.573 194.364 100.573 194.773 100.473C193.547 102.773 193.751 105.772 196.204 106.972Z" style="fill: var(--primary-fixed-dim);"/>
<path id="vec15" d="M195.693 85.1775C201.415 86.5771 201.926 93.1753 200.496 98.9738C200.394 98.8738 200.189 98.7738 200.087 98.6739C199.883 98.5739 199.576 98.4739 199.372 98.4739C201.415 96.2745 201.007 92.6755 197.124 89.1764C196.306 88.4766 195.284 87.8768 194.262 87.4769C194.364 86.877 194.262 85.9773 194.262 85.1775C194.364 85.1775 194.569 85.1775 194.671 85.1775C194.773 85.1775 194.978 85.1775 195.08 85.1775C195.182 85.1775 195.489 85.1775 195.693 85.1775Z" style="fill: var(--primary-fixed-dim);"/>
<path id="vec16" d="M205.707 93.1753C208.875 95.1748 208.569 99.7736 207.547 102.873C207.547 103.173 207.342 103.473 207.24 103.673C206.116 103.073 204.481 103.273 203.255 103.673C200.496 105.072 200.802 108.571 202.029 110.971C201.313 110.971 200.598 110.671 199.985 110.471C199.27 110.171 198.656 109.571 198.248 108.871C198.248 108.571 197.941 108.171 197.737 107.971C199.985 106.072 201.109 102.673 201.926 100.073C202.744 97.6741 203.05 94.6749 202.744 91.8757C203.664 92.0756 204.686 92.5755 205.707 93.1753Z" style="fill: var(--primary-fixed-dim);"/>
<path id="vec17" d="M205.912 105.272C206.116 105.472 206.423 105.572 206.627 105.672C205.912 107.272 204.992 108.871 203.97 110.171C202.948 108.271 202.744 105.272 205.401 105.272C208.058 105.272 205.707 105.272 205.912 105.272Z" style="fill: var(--tertiary-fixed-dim);"/>
<path id="vec18" d="M191.299 100.873C191.503 102.273 191.299 103.772 190.686 105.072C189.868 104.372 189.153 103.473 188.846 102.373C188.642 101.673 188.642 100.873 188.744 100.073C189.562 100.373 190.379 100.573 191.197 100.573C191.197 100.573 191.197 100.773 191.299 100.773V100.873Z" style="fill: var(--tertiary-fixed-dim);"/>
<path id="vec19" d="M138.161 136.164C137.037 136.964 135.708 138.663 134.175 141.962C129.066 151.26 126.716 161.757 124.365 171.954C123.446 175.453 123.139 179.052 122.832 182.651C122.832 182.651 122.832 182.651 122.832 182.751C121.913 181.052 120.789 179.352 119.971 177.653C116.906 171.654 113.329 165.956 110.161 159.957C109.548 158.858 107.913 159.857 108.526 160.957C109.241 162.157 109.855 163.356 110.57 164.556C109.957 163.956 109.241 163.456 108.628 162.857C107.606 162.257 106.38 159.757 105.052 160.857C104.03 162.157 106.278 163.056 106.993 163.956C108.628 165.456 110.263 166.855 111.898 168.355C109.855 168.455 106.891 169.055 107.606 170.355C107.811 170.754 108.117 170.954 108.526 170.954C108.935 170.954 108.935 170.954 109.037 170.854C110.059 170.554 111.081 170.355 112.205 170.255C112.614 170.255 112.92 170.255 113.329 170.255C113.431 170.255 113.533 170.255 113.636 170.255C113.329 170.554 113.227 171.054 113.636 171.354C114.146 183.151 115.373 194.848 115.986 206.545C116.088 210.444 116.395 214.443 116.497 218.342C116.701 219.141 116.395 220.941 116.599 222.141C115.168 222.74 113.636 223.14 112.103 223.54C94.7307 226.239 72.0448 222.54 57.4319 212.943C55.4903 211.243 53.4465 209.644 52.0159 207.544C52.0159 207.544 51.9137 207.445 51.8115 207.345C51.8115 207.145 51.8115 206.845 51.8115 206.645C51.7093 205.145 51.8115 203.845 51.8115 202.246C52.0159 195.248 52.5268 188.15 52.118 181.152C52.118 177.852 51.9137 174.353 52.629 171.054C55.6946 169.355 60.5997 164.556 62.2347 163.856C62.6435 163.556 62.8478 162.957 62.5413 162.557C62.3369 162.257 62.1325 162.157 61.826 162.157C60.5997 162.157 58.6581 164.356 57.7384 164.856C56.6143 165.756 55.3881 166.755 54.1618 167.655C55.899 164.456 57.9428 161.457 59.9866 158.458C60.7019 157.358 59.0669 156.358 58.3515 157.358C55.5925 161.557 52.9356 165.856 50.2787 170.055C50.0743 170.155 49.9721 170.355 49.9721 170.554C48.3371 173.154 46.8042 175.753 45.1692 178.352C45.4758 174.153 44.7605 169.855 44.7605 165.656C44.4539 159.158 42.9211 152.659 41.5926 146.261C41.0817 144.561 40.8773 142.562 39.8554 141.162C39.5489 140.962 39.2423 140.862 38.9357 140.962C39.9576 138.363 40.9795 135.764 42.1036 133.265C45.4758 129.066 50.483 126.666 55.3881 124.467C59.9866 122.767 64.3807 120.768 69.2857 119.668C71.3295 119.068 73.3733 118.469 75.417 117.969C73.8842 119.468 72.4536 121.068 71.0229 122.667C69.2857 124.867 67.3441 126.966 65.8113 129.366C64.6872 131.665 60.9063 137.663 65.1982 138.563C65.1982 138.563 65.4026 138.563 65.5047 138.563C69.5923 138.563 78.2783 126.466 80.2199 123.167C80.9352 121.568 83.3877 118.269 82.7746 116.269C84.5118 115.969 86.249 115.669 87.9862 115.369C88.2928 115.869 88.9059 116.169 89.519 115.669C91.4606 114.969 93.7088 115.069 95.7525 114.77C96.2635 114.77 96.6722 114.77 97.1832 114.67C98.0007 114.67 98.9204 114.67 99.7379 114.67C101.986 114.67 104.132 114.77 106.38 114.969C106.585 114.969 106.687 114.969 106.891 114.869C110.672 115.669 114.351 117.069 117.621 119.068C125.285 123.867 132.438 129.466 138.672 135.964L138.161 136.164Z" fill="url(#paint2_linear_2414_1310)"/>
<path id="vec20" d="M85.4315 90.1761C89.2125 95.4747 85.9425 106.572 79.8112 108.971C78.4827 109.371 77.0521 109.771 75.6214 109.571C75.0083 109.571 74.1908 109.071 73.4755 108.771C73.9864 106.672 73.8842 104.472 72.7601 102.673C72.658 102.473 72.4536 102.273 72.2492 101.973C72.3514 101.773 72.4536 101.473 72.4536 101.273C72.4536 100.873 71.9426 100.473 71.5339 100.473C71.1251 100.473 71.4317 100.473 71.3295 100.473C71.1251 100.473 70.9208 100.473 70.7164 100.673C70.2054 100.473 69.6945 100.473 69.2857 101.073C68.2639 101.373 67.242 101.473 66.3223 101.073C65.7091 100.773 65.3004 100.173 65.5048 99.5736C67.3442 95.5747 70.1033 97.3742 73.3733 97.7741C75.7236 97.7741 77.7674 96.5744 79.6068 95.2748C81.6506 93.8752 83.6943 92.1756 85.3293 90.2761L85.4315 90.1761Z" fill="url(#paint3_linear_2414_1310)"/>
<path id="vec21" d="M173.109 50.3869C173.211 51.2866 172.905 52.1864 172.7 53.0862C171.883 55.2856 171.372 57.7849 169.43 59.3845C169.43 59.1845 169.43 58.9846 169.328 58.8846C169.635 57.6849 170.044 56.3853 170.35 55.1856C170.861 53.8859 171.576 52.1864 172.394 50.5868C172.598 50.5868 172.7 50.4869 172.905 50.2869C173.007 50.2869 173.109 50.3869 173.109 50.3869Z" style="fill: var(--tertiary-fixed-dim);"/>
<path id="vec22" d="M59.3734 110.371C58.7603 110.571 58.045 110.671 57.4318 110.771C55.899 110.971 54.3662 110.971 52.9355 111.47C51.9137 112.07 50.2786 112.37 49.2568 113.07L48.9502 112.97C45.7824 119.268 43.0233 125.667 40.3664 132.265C39.651 133.165 39.1401 134.064 39.4467 134.564C36.7898 140.962 34.235 147.461 31.476 153.859C30.4541 155.858 29.4322 157.858 28.5125 159.957C28.2059 160.657 27.3884 161.757 28.3081 162.357C28.4103 162.357 28.6147 162.457 28.7169 162.457C30.0453 162.457 30.6585 159.258 31.3738 158.258C32.9066 155.459 34.4394 152.259 35.5635 149.26C35.8701 148.56 36.0744 147.861 36.381 147.161C36.0744 148.96 35.7679 150.66 35.4613 152.459C35.0526 155.459 34.746 158.458 34.0307 161.457C34.0307 162.557 32.7022 164.556 34.1329 165.156C34.1329 165.156 34.235 165.156 34.3372 165.156C35.7679 165.156 35.4613 162.957 35.8701 162.057C36.4832 159.557 36.892 156.958 37.0963 154.359C37.5051 151.16 38.1182 147.961 38.6292 144.761C38.6292 144.761 38.6292 144.761 38.6292 144.661C40.8773 152.859 42.4101 161.457 42.7167 169.955C42.3079 170.055 41.8992 170.355 41.4904 170.654C40.0598 171.454 38.6292 172.354 37.1985 173.154C36.5854 172.854 35.7679 173.154 35.7679 173.954C34.1329 174.853 32.3957 175.753 30.6585 176.553C25.549 178.752 19.1112 179.652 13.7974 177.353C8.17699 174.553 6.13322 167.755 7.87042 162.157C10.5273 152.759 14.717 143.962 19.009 135.164C22.6878 127.466 26.1622 119.568 30.5563 112.27C31.476 110.771 32.3957 109.371 33.3154 107.871C33.5197 107.871 33.7241 107.671 33.8263 107.471C34.3372 105.972 35.3591 104.672 36.1766 103.373C37.3007 101.573 38.527 99.7736 39.7532 97.974C40.3664 97.6741 40.7751 97.0743 40.6729 96.4745C43.7386 92.2756 47.9283 89.1764 52.4246 86.6771C53.1399 88.2767 54.5706 89.7763 56.6143 90.4761C56.3078 91.0759 56.1034 91.6758 56.0012 92.2756C55.5924 93.9751 55.4903 95.6747 55.5924 97.3742C52.9355 98.074 50.6874 99.8735 48.9502 101.973C48.3371 102.973 46.0889 104.472 47.4174 105.572C48.1327 105.972 48.7458 105.472 49.0524 104.872C50.7896 102.573 52.9355 100.173 55.899 99.2737C56.2056 100.873 56.6143 102.473 57.2275 103.972C57.2275 104.272 57.4318 104.472 57.4318 104.772C57.8406 106.772 58.4537 108.771 59.4756 110.471L59.3734 110.371Z" fill="url(#paint4_linear_2414_1310)"/>
<path id="vec23" d="M71.6361 77.3796C74.3952 76.2799 79.8112 75.88 77.0521 79.2791C77.0521 79.2791 76.8477 79.479 76.8477 79.579C76.6433 79.779 76.5411 79.9789 76.3367 80.1789C75.8258 80.6787 75.2127 81.0786 74.5995 81.3785C71.4317 80.9786 68.0595 81.3785 65.1982 82.7782C64.9938 82.7782 64.8916 82.8781 64.6873 82.9781C64.6873 82.1783 64.2785 81.3785 63.8698 80.6787C66.4245 79.479 68.9792 78.2794 71.6361 77.3796Z" style="fill: var(--primary-fixed-dim);"/>
<path id="vec24" d="M87.2709 80.5787C86.8621 81.1786 86.4534 81.7784 85.9424 82.2783C85.8403 82.2783 85.6359 82.4782 85.5337 82.5782C85.5337 82.5782 85.4315 82.6782 85.4315 82.7781C84.7162 83.378 84.0009 83.9778 83.1834 84.4777C81.4462 83.178 79.3002 82.1783 77.1542 81.7784C77.4608 81.4785 77.7674 81.1786 77.9717 80.9786C81.0374 80.0789 84.614 77.4796 87.2709 80.5787Z" style="fill: var(--primary-fixed-dim);"/>
<path id="vec25" d="M93.0956 85.6774C93.0956 86.6771 92.0737 87.3769 91.3584 87.9768C90.2343 88.6766 89.0081 89.3764 87.6796 89.9762C87.6796 89.8762 87.5774 89.6763 87.4752 89.5763C87.2709 88.8765 86.7599 87.9767 86.249 87.3769C85.8402 86.877 85.4315 86.3772 84.9205 85.8773C85.738 85.3774 86.4534 84.7776 87.0665 84.1778C88.2928 83.9778 89.519 83.478 90.7453 83.7779C91.8694 83.9778 92.6869 84.7776 93.0956 85.7773V85.6774Z" style="fill: var(--primary-fixed-dim);"/>
<path id="vec26" d="M90.6431 91.4758C91.3584 92.9754 90.2344 94.575 88.9059 95.3747C88.9059 94.1751 88.7015 93.0754 88.395 91.8757C88.395 91.8757 88.395 91.7757 88.395 91.6757C88.8037 91.4758 89.2125 91.2759 89.6212 91.0759C89.8256 91.0759 90.03 91.0759 90.3365 91.0759C90.3365 91.0759 90.3365 91.0759 90.4387 91.0759C90.4387 91.2759 90.5409 91.2758 90.6431 91.3758V91.4758Z" style="fill: var(--primary-fixed-dim);"/>
</g>
<g id="Outlines">
<g id="Group">
<path id="vec27" d="M177.345 33.8C177.754 33.8 178.265 33.9 178.674 33.9C180.922 33.9 183.273 32.8 184.091 30.7C185.011 28 183.887 24.6 180.82 24C174.278 22.7 170.599 31.1 177.345 33.8ZM177.958 26.1C178.469 25.9 179.185 26.1 179.696 25.8C182.047 25.8 182.762 28.4 182.149 30.2C181.536 31.4 180.002 31.9 178.776 32C177.14 32.2 175.505 30.4 175.709 28.9C176.016 27.8 176.834 26.5 177.958 26.1Z" style="fill: var(--il-outline);"/>
<path id="vec28" d="M190.633 32.5C191.246 32.7 191.962 32.8 192.473 32.8C197.481 32.8 199.73 24.9 193.699 23.4C193.495 22.3 192.268 22.6 191.451 22.8C186.647 23.4 186.647 30.8 190.633 32.5ZM191.962 24.7C192.166 25 192.473 25.3 192.882 25.2C193.597 25.2 194.313 25.7 194.824 26.1C196.357 27.7 194.824 30.7 192.677 30.8C189.304 31.3 188.486 24.8 191.962 24.7Z" style="fill: var(--il-outline);"/>
<path id="vec29" d="M206.17 32.9C210.463 32.6 213.223 25.7 209.134 23.3C207.805 22.5 205.25 21.8 204.534 23.5C199.73 25.2 201.263 32.7 206.17 32.9ZM205.557 25.2C206.17 25.5 206.885 25.2 206.988 24.5C210.77 25.3 209.134 30.1 206.374 31C203.308 30.9 202.49 26 205.557 25.2Z" style="fill: var(--il-outline);"/>
<path id="vec30" d="M336.086 107.8C333.94 105.4 331.384 103.2 330.26 100.2C329.647 98.3 329.136 96.3 329.238 94.3C329.34 92.2 330.362 90.3 330.669 88.3C330.669 86.7 328.114 87.1 328.625 88.6C326.785 93.3 326.785 98.6 329.442 103C332.304 107.2 336.598 110.4 338.642 115.2C340.175 117.9 341.197 120.9 341.299 124.1C341.299 125 341.402 125.9 340.993 126.7C338.846 130.8 335.371 130.3 331.282 129.6C326.376 128.6 323.616 123.9 321.981 119.6C321.674 118.9 321.47 117.5 320.447 117.8C318.607 118.2 321.061 122.3 321.572 123.3C324.434 129.1 328.829 132 335.473 131.9C335.678 131.9 335.882 131.9 336.189 131.9C339.255 131.9 341.811 129.7 343.037 127.1C343.957 123.5 343.037 119.4 341.402 116C339.971 113.1 338.437 110.3 336.189 107.9L336.086 107.8Z" style="fill: var(--il-outline);"/>
<path id="vec31" d="M300.311 78.9C295.2 74.9 289.885 70.5 288.045 64C284.569 53.7 287.738 45.9 295.507 38.6C298.164 35.5 302.56 34 306.648 33.9C307.159 33.9 307.568 33.3 307.568 32.8C306.955 30.4 299.186 33.4 297.551 34.3C295.609 35.3 294.28 37 292.747 38.5C290.498 40.8 288.454 43.3 286.92 46.1C282.934 53.8 284.365 63.6 289.067 70.7C294.178 77.7 301.946 82 308.386 87.6C311.146 90.5 315.132 92.9 316.563 96.8C316.256 97.1 316.256 97.5 316.461 97.9C316.665 98.2 316.972 98.4 317.279 98.4C317.79 98.4 318.301 98 318.505 97.5C319.323 92.3 304.502 82.1 300.311 78.9Z" style="fill: var(--il-outline);"/>
<path id="vec32" d="M339.46 24.8C337.926 22.8 336.393 20.6 334.451 18.8C331.078 16.1 326.887 14.1 322.798 12.8C318.505 11.7 314.11 11.7 309.715 11.6C306.853 11.6 301.026 12.3 300.413 15.6C300.413 16.1 300.924 16.5 301.435 16.5C302.151 16.5 302.253 15.9 302.56 15.5C304.502 14 307.159 13.7 309.612 13.6C313.803 13.6 317.994 13.6 322.083 14.7C326.171 16 330.26 17.9 333.531 20.6C336.393 23.6 338.846 27 341.299 30.4C344.264 35.6 346.104 41.3 346.921 47.2C347.841 53.4 346.512 59.8 344.366 65.7C343.957 66.7 343.344 67.6 342.73 68.5C342.424 68.9 342.526 69.5 343.037 69.8C343.139 69.8 343.344 69.9 343.446 69.9C345.286 69.9 347.023 63.9 347.432 62.6C350.192 53.7 349.477 44.3 346.104 35.7C344.468 31.8 342.526 28 339.664 24.8H339.46Z" style="fill: var(--il-outline);"/>
<path id="vec33" d="M324.843 74.4C325.047 74.6 325.354 74.7 325.558 74.7C326.478 74.7 327.296 73.3 327.909 72.7C330.158 70.3 331.18 67.2 331.589 63.9C331.998 58.9 332.1 53.6 329.442 49.2C327.807 46.4 326.274 43.5 323.718 41.4C321.061 39.6 317.994 38 314.621 37.9C313.292 37.9 307.875 38 308.284 40C308.897 41.4 310.43 40.1 311.555 40C313.394 39.6 315.541 39.7 317.279 40.3C318.505 40.7 319.63 41.2 320.652 41.8C318.199 43.9 317.483 47.4 317.279 50.4C316.768 57.5 321.47 65.8 328.625 67.7C328.114 69.2 327.091 70.5 325.967 71.7C325.456 72.4 323.821 73.3 324.843 74.3V74.4Z" style="fill: var(--il-outline);"/>
<path id="vec34" d="M319.016 178.2C318.607 178 318.199 177.7 317.79 177.8C317.279 177.8 316.972 178.2 316.972 178.6C315.439 181.3 314.212 184.2 312.474 186.8C312.27 187.5 311.248 188.6 310.839 189.5C310.226 189.9 310.226 190.9 311.043 191.2C313.292 193.1 315.848 194.5 318.301 196.1C318.505 196.4 318.812 196.5 319.119 196.5C319.936 196.5 320.55 195.2 319.527 194.6C318.914 194.2 318.403 193.9 317.79 193.5C318.199 192.7 318.812 191.9 319.221 191.1C320.958 188.7 322.492 186 323.718 183.3C324.127 183.6 324.536 183.9 324.945 184.2C325.967 185 327.194 183.5 326.171 182.7C323.923 181 321.367 179.8 319.016 178.2Z" style="fill: var(--il-outline);"/>
<path id="vec35" d="M324.945 170.3C321.265 169.8 319.119 175.2 321.674 177.5C322.287 178 322.901 178.2 323.616 178.2C324.74 178.2 325.967 177.5 326.478 176.4C327.194 175.1 327.909 173.4 326.989 172C327.5 170.8 325.865 170.4 324.945 170.3Z" style="fill: var(--il-outline);"/>
<path id="vec36" d="M121.126 85.6C127.77 85.9 135.743 80.5 136.152 73.7C135.743 69.4 132.983 66.3 128.486 66.1C124.806 66.1 120.922 67.1 118.264 69.7C113.358 74.9 113.46 83.1 121.126 85.5V85.6Z" style="fill: var(--il-outline);"/>
<path id="vec37" d="M87.088 40.2C87.088 40.6 87.4969 41 88.008 41.1C91.3811 41.3 94.7542 41.1 98.2296 41.1C98.7407 41.3 99.1495 41.1 99.4562 40.8C99.9673 40.8 100.581 40.5 100.581 39.8C100.887 36.1 100.989 31.9 103.443 28.9C104.465 27.6 106.509 27.3 108.042 27.9C110.189 29.5 110.393 32.3 110.087 34.7C109.371 39 106.816 43 103.443 45.8C103.034 45.8 102.727 46.1 102.625 46.5C102.625 46.9 102.625 47.2 103.034 47.5C103.647 49 104.465 50.4 105.282 51.9C107.838 56.4 110.393 60.8 112.744 65.4C112.744 65.8 112.949 66.2 113.358 66.3C113.358 66.3 113.562 66.3 113.664 66.3C114.175 67.2 115.197 66.6 115.811 66.2C117.957 64.9 120.002 63.1 121.944 61.6C123.17 60.4 125.828 58.8 125.112 56.9C122.966 53 120.922 49.2 118.571 45.4C119.184 44.9 119.695 43.7 120.104 43.1C123.886 37.2 124.908 29.9 122.659 23.2C121.944 20.1 120.513 17.1 117.753 15.3C112.54 10 103.443 7.7 97.4119 12.9C91.9944 16.6 88.8257 22 88.1102 28.4C87.2925 31.8 86.577 35.3 86.7814 38.9C86.577 39.3 86.7814 39.9 87.088 40.2Z" style="fill: var(--il-outline);"/>
<path id="vec38" d="M367.262 105.1C364.605 99.1 362.151 93 361.129 86.5C359.596 80.5 360.107 74.4 362.356 68.6C362.356 68.6 362.356 68.4 362.356 68.3C362.56 68.1 362.663 67.8 362.765 67.4C363.174 66.6 363.685 65.8 363.48 65.2C364.707 62 365.422 58.6 366.036 55.2C366.445 47.4 365.32 39.1 361.64 32.1C357.347 23.5 351.521 15.8 343.957 9.6C342.117 7.7 339.766 6.5 337.517 5.1C337.109 4.8 336.495 4.5 336.086 4.6C331.793 2.4 327.091 1.1 322.389 0.3C308.795 -1.5 294.484 1.4 282.832 8.4C279.254 10.1 275.983 12.4 273.019 15H215.063C214.858 15 214.654 15 214.551 15.2H183.273C182.251 15.2 181.229 15.2 180.207 15.2C179.9 15.2 179.696 15.3 179.491 15.5C176.016 16.1 172.438 16.9 169.679 19C166.714 21.4 164.772 24.7 163.955 28.3C162.728 28.2 161.092 28.6 160.377 28.7C158.333 29.4 156.902 30.7 155.982 32.4C155.879 32.4 155.777 32.6 155.675 32.8C154.857 34.6 154.244 36.6 154.448 38.6V38.8C154.448 38.8 154.346 38.8 154.244 38.8C154.244 38.8 154.244 38.9 154.244 39C153.631 39 153.12 39 152.609 39C145.453 39.2 144.942 46.2 144.84 52.4C144.84 52.5 144.738 52.7 144.738 52.8C144.738 54.6 144.738 56.4 144.738 58.2C144.738 62.3 144.738 66.4 144.738 70.4C144.738 82.2 144.738 94.1 144.738 106V107.8C144.738 118.7 144.738 129.6 144.738 140.5C144.431 140.2 144.125 139.8 143.716 139.5C142.694 138.4 141.774 137.2 140.547 136.2C140.547 136.2 140.547 136.1 140.445 136C140.445 136 140.445 136 140.445 135.9C137.072 132.4 133.494 129 129.712 125.9C121.433 119.6 112.131 112.4 101.092 112.8C99.354 112.8 97.7185 113 96.0831 113.1C88.7235 113.3 81.364 114.5 74.3111 116.6C67.0537 118.4 59.8986 120.7 53.0501 123.7C49.8814 125.2 46.7127 126.8 43.9529 128.9C45.2817 125.9 46.6105 122.9 47.9393 119.9C48.5526 118.5 49.1659 117.2 49.8814 115.8C50.2903 115.7 50.6991 115.3 50.5969 114.8C51.6191 114.3 52.8457 113.9 53.9701 113.4C55.7077 113 57.6498 113.1 59.3875 112.6C59.7964 112.6 60.3075 112.4 60.7163 112.2C61.7385 113.3 62.8629 114.2 64.3961 114.8C65.0094 115 65.7249 115 66.4404 115C68.4847 115 70.5291 114.3 71.8579 112.8C72.2667 112.2 72.6756 111.5 72.9822 110.8C73.6978 111.1 74.7199 111.3 75.231 111.5C75.7421 111.5 76.3554 111.6 76.8665 111.6C82.5906 111.6 86.9859 106.6 88.2124 101.3C88.6213 100.1 88.928 99 89.0302 97.8C89.8479 97.4 90.5634 96.8 91.0745 96.5C93.0166 95.2 93.7321 91.5 92.0966 90C93.9365 88.9 95.8786 87.1 94.9587 84.9C94.0388 83 91.9944 81.7 89.8479 81.9C89.5413 81.9 89.2346 81.9 88.928 81.9C88.928 81.8 89.1324 81.7 89.1324 81.5C89.8479 80.3 88.8257 79.1 87.8036 78.4C85.4526 76.4 82.3861 77.3 79.7285 78.4C80.444 75.8 78.1953 73.7 72.0623 75.3C68.7914 76.4 65.6227 77.8 62.5562 79.3C61.534 78.5 60.103 78 58.672 77.9C53.5612 77.9 51.4147 81.4 52.028 84.8C48.5526 86.7 45.2817 88.9 42.5219 91.8C41.8063 92.6 39.0465 95 38.5354 96.7C38.4332 96.9 38.331 97 38.2288 97.2C36.3889 99.9 34.6512 102.6 32.9136 105.4C32.9136 105.4 32.9135 105.6 32.8113 105.7C32.198 106.6 31.687 107.5 31.0737 108.5C24.0208 119.6 19.0122 131.8 13.2881 143.6C11.4482 147.6 9.7105 151.6 8.27948 155.7C7.66618 157.4 7.05289 159.2 6.54181 160.9C5.92851 163.2 5.51965 165.6 5.72408 168C5.72408 169.2 6.03073 170.5 6.54181 171.6C8.58613 177 14.4124 180.9 20.4432 180.5C20.8521 180.5 21.3631 180.5 21.772 180.5C27.1895 180.5 31.9936 178.3 36.5933 175.7C37.7177 179.3 38.9443 184.3 42.113 185.5C42.3174 185.5 42.5219 185.6 42.7263 185.6C43.6462 185.6 44.1573 184.8 44.3618 183.8C45.0773 182.8 45.5883 181.4 46.0994 180.8C47.5304 178.6 48.8593 176.4 50.2903 174.2C50.2903 174.2 50.2903 174.3 50.2903 174.4C49.9836 181.2 50.4947 188.1 50.0858 194.9C49.7792 199.2 49.5748 203.6 49.7792 207.9C49.4726 208.3 49.5748 209 50.0858 209.2C50.2903 209.3 50.4947 209.4 50.6991 209.4C51.3124 210.3 52.4368 211.2 52.8457 211.7C60.0008 218.7 70.018 221.8 79.6263 224.1C87.1903 226.1 95.0609 226.5 102.829 226.6C107.225 226.5 111.62 226.2 115.811 224.7C116.935 224.3 118.366 224.1 118.775 222.9C118.979 222.5 118.775 222.1 118.571 221.9C118.571 221.7 118.571 221.6 118.571 221.4C118.571 220.1 118.571 218.5 118.468 217.1C118.162 205 116.935 192.9 116.117 180.7C116.117 178.4 115.811 176 115.709 173.7C115.709 173.7 115.709 173.5 115.709 173.4C118.162 177.8 120.615 182.2 122.966 186.7C122.966 187.3 123.477 187.6 123.988 187.6C124.499 187.6 124.09 187.6 124.192 187.6C124.499 188 125.01 188.2 125.521 188.4C125.828 188.4 126.135 188.5 126.441 188.5C130.325 188.5 133.494 181.8 135.13 178.6C135.334 178.8 135.538 178.8 135.743 178.8C135.947 178.8 135.845 178.8 135.947 178.8C136.969 179.6 137.889 180.4 138.912 181.3C143.614 184.7 148.418 188 154.04 189.5C154.653 189.7 155.164 189.7 155.573 189.7C156.186 189.7 156.697 189.5 157.004 189.3C161.706 188.5 165.692 184.2 168.759 180.8C172.541 176.4 175.198 171.4 177.345 166.1C178.265 166.1 179.185 166.1 180.105 166.1C180.105 166.1 180.207 166.1 180.309 166.1C180.514 166.1 180.718 166.1 180.922 166.1C183.376 166.1 185.931 166.3 188.384 166.3C188.691 166.3 189.1 166.3 189.406 166.3C189.713 166.3 190.02 166.3 190.224 166.3C190.429 166.3 190.735 166.3 190.94 166.3C228.351 166.3 265.66 166.3 303.071 166.3C303.377 166.3 303.786 166.1 304.093 166C304.808 165.8 305.524 165.6 306.137 165.3C306.137 165.3 306.137 165.3 306.239 165.3C306.648 165.1 307.057 164.9 307.466 164.7C307.67 164.7 307.773 164.5 307.977 164.4H307.773C310.328 162.8 311.248 160.3 311.452 157C311.452 156.7 311.452 156.4 311.452 156C311.452 156 311.452 155.8 311.452 155.7C311.452 155.4 311.452 155 311.452 154.7C311.452 154.5 311.452 154.3 311.452 154.1C311.861 154.1 312.27 154.1 312.679 154.1C315.643 154.1 319.016 152.8 320.55 150.2C320.55 150.2 320.652 150.2 320.754 150.3C321.674 150.8 322.492 151.5 323.616 151.9C324.945 152.6 326.274 153.2 327.705 153.8C326.887 156.2 326.274 158.7 325.967 161.1C325.763 161.1 325.558 161.1 325.354 161.1C323.82 160.9 322.185 161.1 320.754 161.7C318.71 162.4 316.665 163.4 314.723 164.6C314.621 164.6 314.417 164.8 314.314 164.9C314.11 165.1 314.008 165.2 313.803 165.4C313.497 165.6 313.292 165.8 312.986 166C312.781 166.1 312.577 166.3 312.372 166.5C307.261 170.8 303.684 176.9 303.173 183.2C302.968 187.5 304.911 191.5 307.875 194.6C307.875 194.6 307.875 194.6 307.875 194.7C308.284 195.1 308.692 195.5 309.101 195.8C310.124 196.7 311.35 197.4 312.577 198.1C313.701 198.7 314.723 199.3 315.848 199.8C317.994 201 320.447 201.5 322.901 201.4C323.105 201.4 323.207 201.4 323.412 201.4C329.442 201.4 335.269 197.8 338.744 193C340.277 192.3 341.81 188.4 342.219 187.4C344.366 181.3 344.059 173 339.766 167.9C342.526 166.5 346.41 157.5 345.797 154.4C351.112 152.7 355.916 149.3 359.596 145.4C362.765 142.7 365.116 139.1 366.649 135.2C366.956 135 367.16 134.7 367.058 134.3C367.058 134.3 367.058 134.1 367.058 134C367.569 132.6 367.876 131.2 368.182 129.9C368.182 129.8 368.182 129.6 368.182 129.5C368.591 127.9 368.591 126.1 368.796 124.5C369.307 118 369.409 111.2 367.262 105.1ZM165.794 29.3C167.43 21.3 172.847 18.2 180.718 17.2C180.922 17.2 181.127 17.2 181.331 17.1C196.05 17.1 210.77 17.1 225.386 17.1C240.412 17.1 255.438 17.1 270.566 17.1C270.668 17.1 270.77 17.1 270.873 17.1C268.522 19.6 266.375 22.3 264.637 25.3C262.389 29.1 259.935 33.7 258.3 38.4C258.198 38.4 258.096 38.4 257.891 38.4C251.86 38.4 245.83 38.4 239.799 38.4H182.967C181.025 38.4 179.185 38.4 177.243 38.4C175.301 38.4 173.461 38.4 171.519 38.4C170.905 38.4 170.292 38.4 169.781 38.4C169.474 38.4 169.065 38.4 168.656 38.4C167.634 38.4 166.612 38.4 165.692 38.4V34.9C165.692 34.9 165.692 34.7 165.692 34.6C165.692 34.4 165.692 34.2 165.692 34C165.692 33.9 165.692 33.8 165.692 33.6C165.59 32.2 165.692 30.9 165.794 29.3ZM205.148 54.6C205.148 54.8 205.148 55 205.148 55.2C204.739 60.7 204.125 66.2 204.637 71.7C204.841 73.8 204.637 76.9 206.988 77.9C206.579 78.9 206.068 80 205.352 80.8C204.432 81.9 201.161 84 203.921 84.9C207.907 85.4 212.303 83.4 214.449 80.1C214.551 80.1 214.756 80.1 214.858 80.1C216.187 80.3 217.516 80.6 218.947 80.6C230.702 80.5 242.456 80.6 254.211 80.1C257.993 80 261.673 79.9 265.455 79.9C267.295 79.7 269.237 80 270.77 79C270.975 78.8 271.179 78.7 271.281 78.5C278.743 86.2 287.943 92.2 295.609 99.8C305.728 109.1 301.946 119.3 305.217 130.8C306.546 134.9 308.284 138.9 310.839 142.4C310.124 142.4 309.306 142.4 308.59 142.3C308.386 142.3 308.181 142.3 307.977 142.5C303.888 142.5 299.8 142.5 295.711 142.5C262.389 142.5 229.168 142.5 195.846 142.5C194.824 142.5 193.699 142.5 192.677 142.5C191.757 142.5 190.735 142.5 189.815 142.5C189.713 142.5 189.611 142.5 189.509 142.5C189.406 142.5 189.202 142.5 189.1 142.5C188.895 142.5 188.793 142.5 188.589 142.5C188.384 142.5 188.282 142.5 188.078 142.5C186.749 142.5 185.318 142.5 183.887 142.4C184.296 141 184.602 139.7 185.011 138.4C185.113 137.8 185.42 137.3 185.42 136.7C185.42 136.1 185.42 136.7 185.42 136.6C187.566 135.3 189.611 133.8 191.553 132.2C195.539 128.5 198.606 123.7 199.935 118.5C200.241 116.9 200.855 114.7 200.343 113C200.752 113.1 201.161 113.2 201.672 113.2C201.877 113.2 202.081 113.2 202.183 113.2C205.454 113.2 206.885 109.2 208.316 106.8C210.974 101.6 211.792 92.9 204.739 90.8C204.023 90.6 203.206 90.2 202.49 90.2C201.468 86.3 199.015 83.2 194.21 83.4C194.21 83.4 194.108 83.4 194.006 83.4C193.802 78.8 190.735 75.6 186.135 75.1C183.682 74.8 181.433 75.7 179.287 76.6C179.491 75.7 179.696 74.8 179.9 73.9C181.945 66.6 184.5 59.4 183.989 51.8C184.296 47.1 181.74 43 176.425 44.1C174.278 44.8 172.847 46.6 171.519 48.2C168.452 52.6 167.328 57.9 166.203 63C165.999 63.7 165.794 64.4 165.692 65C165.692 62 165.692 59 165.692 56C165.692 50.8 165.692 45.5 165.692 40.3C166.101 40.3 166.51 40.3 166.919 40.3C167.328 40.3 168.043 40.3 168.554 40.3C168.861 40.3 169.27 40.3 169.576 40.3C169.576 40.3 169.679 40.3 169.781 40.3C186.238 40.3 202.797 40.3 219.253 40.3C232.03 40.3 244.807 40.3 257.584 40.3C256.971 42.3 256.46 44.3 256.153 46.3V46.5C256.153 46.6 256.153 46.7 256.153 46.8C242.252 46.8 228.248 47.1 214.347 47.7C214.347 47.7 214.347 47.7 214.245 47.7C213.836 47.7 213.427 47.7 213.12 47.7C213.12 47.7 212.916 47.7 212.814 47.7C211.689 47 208.419 47.7 207.703 48.3C205.454 49.7 205.045 52.4 205.25 54.8L205.148 54.6ZM193.291 100.7C193.802 100.7 194.313 100.7 194.722 100.6C193.495 102.9 193.699 105.9 196.255 107.1C195.028 107.9 193.188 107.8 192.064 106.9C192.371 106.3 192.677 105.7 192.882 105C193.188 103.7 193.699 102.1 193.291 100.7ZM195.948 103.8C195.744 102.5 196.561 101.3 197.277 100.2C198.095 100.2 199.015 100.2 199.424 100.7C199.526 100.9 199.628 101 199.832 101C199.219 102.7 198.504 104.3 197.686 105.5C197.686 105.5 197.584 105.5 197.481 105.5C196.664 105.4 196.153 104.6 195.948 103.8ZM197.073 89.2C196.255 88.5 195.233 87.9 194.21 87.5C194.313 86.9 194.21 86 194.21 85.2C194.313 85.2 194.517 85.2 194.619 85.2C194.722 85.2 194.926 85.2 195.028 85.2C195.13 85.2 195.437 85.2 195.539 85.2C201.263 86.6 201.774 93.2 200.343 99C200.241 98.9 200.037 98.8 199.935 98.7C199.73 98.6 199.424 98.5 199.219 98.5C201.263 96.3 200.855 92.7 197.073 89.2ZM190.122 89.3C190.122 89 190.326 88.8 190.633 88.7C191.144 89.4 191.962 89.2 192.371 88.7C194.313 89.4 196.05 90.4 197.175 92.1C197.175 92.2 197.175 92.4 197.175 92.5C196.561 92.7 195.948 92.5 195.437 92.4C193.495 91.8 190.94 91.4 190.122 89.3ZM177.243 84.3C177.754 82.4 178.265 80.6 178.776 78.7C178.878 78.7 179.083 78.7 179.185 78.5C179.9 78.1 180.616 77.9 181.536 77.6C182.66 77.1 183.989 76.8 185.215 76.8C188.895 76.8 192.166 79.1 192.268 83.2C192.371 84.3 192.473 85.5 192.371 86.7C190.224 86 187.975 85.6 185.829 84.9C185.42 84.8 185.011 84.7 184.5 84.6C184.398 84.5 184.193 84.4 183.989 84.4C183.887 84.4 183.784 84.4 183.682 84.4C183.478 84.4 183.376 84.4 183.171 84.4C182.66 84.4 182.353 84.6 182.251 85C181.842 85.2 181.536 85.3 181.127 85.4C179.389 86 177.754 86.9 176.22 87.9C176.22 87.7 176.425 87.5 176.527 87.3C176.834 86.6 177.447 85.2 177.243 84.3ZM202.183 100.3C203.001 97.9 203.308 94.9 203.001 92.1C203.921 92.3 204.943 92.8 205.863 93.3C209.032 95.3 208.725 99.9 207.703 103C207.703 103.3 207.499 103.6 207.396 103.8C206.272 103.2 204.637 103.4 203.41 103.8C200.65 105.2 200.957 108.7 202.183 111.1C201.468 111.1 200.752 110.8 200.139 110.6C199.424 110.3 198.81 109.7 198.401 109C198.401 108.7 198.095 108.3 197.89 108.1C200.139 106.2 201.263 102.8 202.183 100.3ZM206.681 105.7C205.965 107.3 205.045 108.9 204.023 110.2C203.001 108.3 202.797 105.3 205.454 105.3C208.112 105.3 205.761 105.3 205.965 105.3C206.17 105.5 206.476 105.6 206.681 105.7ZM172.745 53.1C171.927 55.3 171.416 57.8 169.474 59.4C169.474 59.2 169.474 59 169.372 58.9C169.679 57.7 170.088 56.4 170.394 55.2C170.905 53.9 171.621 52.2 172.438 50.6C172.643 50.6 172.745 50.5 172.95 50.3C173.052 50.3 173.154 50.4 173.256 50.5C173.358 51.4 173.052 52.3 172.745 53.1ZM161.297 95.4C162.012 92.4 162.626 89.4 163.137 86.4C163.852 82.3 164.67 78.3 165.488 74.3C165.692 74 165.692 73.6 165.692 73.2C166.51 69.2 167.532 65.1 168.554 61.1C168.554 61.1 168.554 61.1 168.656 61.1C168.861 61.1 169.168 61.2 169.372 61.2C172.745 61.2 175.505 52.3 174.994 49.9C174.789 49.2 174.278 48.7 173.563 48.4C174.994 46.5 176.732 45.2 179.185 45.6C183.069 46.7 181.945 51.7 182.047 54.8C182.047 60.1 180.309 65.3 178.776 70.4C177.549 74.9 176.732 79.3 175.403 83.8C175.403 84 175.403 84.2 175.403 84.3C175.198 84.9 175.096 85.7 174.789 86.2C174.483 86.9 174.176 87.8 173.767 88.6C173.767 88.8 173.665 89 173.767 89.2C172.132 90.1 170.394 91 168.759 91.9C166.101 93.2 163.341 94.5 161.092 96.1C161.092 95.8 161.297 95.6 161.297 95.3V95.4ZM154.857 104.9C154.857 91.1 154.857 77.3 154.857 63.6V59.9C154.857 53.3 154.857 46.6 154.857 40C154.857 46.6 154.857 53.2 154.857 59.9V63.6C154.857 77.4 154.857 91.1 154.857 104.9ZM79.9329 109C78.6041 109.4 77.1731 109.8 75.7421 109.6C75.1288 109.6 74.3111 109.1 73.5955 108.8C74.1066 106.7 74.0044 104.5 72.88 102.7C72.7778 102.5 72.5734 102.3 72.369 102C72.4712 101.8 72.5734 101.5 72.5734 101.3C72.5734 100.9 72.0623 100.5 71.6534 100.5C71.2446 100.5 71.5512 100.5 71.449 100.5C71.2446 100.5 71.0401 100.5 70.8357 100.7C70.3246 100.5 69.8136 100.5 69.4047 101.1C68.3825 101.4 67.3604 101.5 66.4404 101.1C65.8271 100.8 65.4183 100.2 65.6227 99.6C67.4626 95.6 70.2224 97.4 73.4933 97.8C75.8443 97.8 77.8886 96.6 79.7285 95.3C81.7728 93.9 83.7149 92.3 85.4526 90.4C85.5548 90.7 85.657 91 85.9637 91.2C85.9637 91.5 85.9637 91.8 86.2703 92C86.2703 92 86.3726 92.1 86.4748 92.1C86.9858 93.5 87.1903 95.1 87.1903 96.7C86.9859 96.9 86.8836 97.2 86.9858 97.5C86.9858 97.5 86.9858 97.6 86.9858 97.7C86.4748 102.5 83.7149 107.6 79.8307 109.1L79.9329 109ZM89.1324 95.5C89.1324 94.3 88.9279 93.2 88.6213 92.1C88.6213 92.1 88.6213 92 88.6213 91.9C89.0302 91.7 89.439 91.5 89.8479 91.3C90.0523 91.3 90.2568 91.3 90.5634 91.3C90.5634 91.3 90.6656 91.3 90.7678 91.4C90.7678 91.4 90.8701 91.5 90.9723 91.6C91.6878 93.1 90.5634 94.7 89.1324 95.5ZM90.7678 83.8C91.8922 84 92.7099 84.8 93.1188 85.8C93.1188 86.8 92.0967 87.5 91.3811 88.1C90.2568 88.8 89.0302 89.5 87.7014 90.1C87.7014 90 87.5991 89.8 87.4969 89.7C87.2925 89 86.7814 88.1 86.2703 87.4C85.8615 86.9 85.3504 86.4 84.9415 85.9C85.7593 85.4 86.4748 84.8 87.0881 84.2C88.3147 84 89.5413 83.5 90.7678 83.8ZM87.3947 80.7C86.9858 81.3 86.577 81.9 86.0659 82.5C85.9637 82.5 85.7593 82.7 85.657 82.8C85.657 82.8 85.657 82.9 85.5548 83C84.8393 83.7 84.1238 84.2 83.3061 84.7C81.5684 83.4 79.4219 82.4 77.2753 82C77.582 81.7 77.8886 81.4 78.0931 81.2C81.1595 80.3 84.7371 77.7 87.2925 80.8L87.3947 80.7ZM77.0709 79.4C77.0709 79.4 76.9687 79.5 76.8665 79.6C76.662 79.8 76.5598 80 76.2532 80.2C75.7421 80.7 75.1288 81.1 74.5155 81.4C71.3468 81 67.9737 81.4 65.1116 82.8C65.0094 82.8 64.805 82.9 64.7027 83C64.7027 82.2 64.2939 81.4 63.885 80.7C66.4404 79.5 68.9958 78.3 71.7557 77.4C74.5155 76.3 79.9329 75.9 77.0709 79.3V79.4ZM41.6019 170.6C40.1709 171.4 38.7399 172.3 37.3088 173.1C36.6955 172.8 35.8778 173.1 35.8778 173.9C34.2424 174.8 32.5047 175.7 30.767 176.5C25.6562 178.7 19.2166 179.6 13.9014 177.3C8.27948 174.5 6.23516 167.7 7.97283 162.1C10.6304 152.7 14.8213 143.9 19.1144 135.1C22.7942 127.4 26.2695 119.5 30.6648 112.2C31.5847 110.7 32.5047 109.3 33.4246 107.8C33.6291 107.8 33.8335 107.6 33.9357 107.4C34.4468 105.9 35.469 104.6 36.2867 103.3C37.4111 101.5 38.6376 99.7 39.8642 97.9C40.4775 97.6 40.8864 97 40.7842 96.4C43.8507 92.2 48.0415 89.1 52.539 86.6C53.2546 88.2 54.6856 89.7 56.7299 90.4C56.4232 91 56.2188 91.6 56.1166 92.2C55.7077 93.9 55.6055 95.6 55.7077 97.3C53.0501 98 50.8014 99.8 49.0637 101.9C48.4504 102.9 46.2016 104.4 47.5304 105.5C48.246 105.9 48.8593 105.4 49.1659 104.8C50.9036 102.5 53.0501 100.1 56.0144 99.3C56.321 100.9 56.7299 102.4 57.3432 103.9C57.3432 104.2 57.5476 104.5 57.5476 104.8C57.9565 106.8 58.5698 108.8 59.5919 110.4C58.9786 110.6 58.2631 110.7 57.6498 110.8C56.1166 111 54.5834 111 53.1523 111.5C52.1302 112.1 50.4947 112.4 49.4726 113.1L49.1659 113C45.9972 119.3 43.2374 125.7 40.5798 132.3C39.8642 133.2 39.3532 134.1 39.6598 134.6C37.0022 141 34.4468 147.5 31.687 153.9C30.6648 155.9 29.6426 157.9 28.7227 160C28.416 160.7 27.5983 161.8 28.5183 162.4C28.6205 162.4 28.8249 162.5 28.9271 162.5C30.2559 162.5 30.8692 159.3 31.5847 158.3C33.118 155.5 34.6512 152.3 35.7756 149.3C36.0822 148.6 36.2867 147.9 36.5933 147.2C36.2867 149 35.98 150.7 35.6734 152.5C35.2645 155.5 34.9579 158.5 34.2424 161.5C34.2424 162.6 32.9135 164.6 34.3446 165.2C34.3446 165.2 34.4468 165.2 34.549 165.2C35.98 165.2 35.6734 163 36.0822 162.1C36.6955 159.6 37.1044 157 37.3088 154.4C37.7177 151.2 38.331 148 38.8421 144.8C38.8421 144.8 38.8421 144.8 38.8421 144.7C41.0908 152.9 42.6241 161.5 42.9307 170C42.5219 170.1 42.113 170.4 41.7041 170.7L41.6019 170.6ZM124.397 172.1C123.477 175.6 123.17 179.2 122.864 182.8C122.864 182.8 122.864 182.8 122.864 182.9C121.944 181.2 120.819 179.5 120.002 177.8C116.935 171.8 113.358 166.1 110.189 160.1C109.576 159 107.94 160 108.553 161.1C109.269 162.3 109.882 163.5 110.598 164.7C109.984 164.1 109.269 163.6 108.656 163C107.633 162.4 106.407 159.9 105.078 161C104.056 162.3 106.305 163.2 107.02 164.1C108.656 165.6 110.291 167 111.927 168.5C109.882 168.6 106.918 169.2 107.633 170.5C107.838 170.9 108.145 171.1 108.553 171.1C108.962 171.1 108.962 171.1 109.065 171C110.087 170.7 111.109 170.5 112.233 170.4C112.642 170.4 112.949 170.4 113.358 170.4C113.46 170.4 113.562 170.4 113.664 170.4C113.358 170.7 113.255 171.2 113.664 171.5C114.175 183.3 115.402 195 116.015 206.7C116.117 210.6 116.424 214.6 116.526 218.5C116.731 219.3 116.424 221.1 116.629 222.3C115.197 222.9 113.664 223.3 112.131 223.7C94.7543 226.4 72.0623 222.7 57.4454 213.1C55.5033 211.4 53.459 209.8 52.028 207.7C52.028 207.7 51.9257 207.6 51.8235 207.5C51.8235 207.3 51.8235 207 51.8235 206.8C51.7213 205.3 51.8235 204 51.8235 202.4C52.028 195.4 52.539 188.3 52.1302 181.3C52.1302 178 51.9257 174.5 52.6413 171.2C55.7077 169.5 60.6141 164.7 62.2496 164C62.6584 163.7 62.8629 163.1 62.5562 162.7C62.3518 162.4 62.1473 162.3 61.8407 162.3C60.6141 162.3 58.672 164.5 57.7521 165C56.6277 165.9 55.4011 166.9 54.1745 167.8C55.9122 164.6 57.9565 161.6 60.0008 158.6C60.7163 157.5 59.0809 156.5 58.3653 157.5C55.6055 161.7 52.9479 166 50.2903 170.2C50.0858 170.3 49.9836 170.5 49.9836 170.7C48.3482 173.3 46.8149 175.9 45.1795 178.5C45.4861 174.3 44.7706 170 44.7706 165.8C44.464 159.3 42.9307 152.8 41.6019 146.4C41.0908 144.7 40.8864 142.7 39.8642 141.3C39.5576 141.1 39.2509 141 38.9443 141.1C39.9665 138.5 40.9886 135.9 42.113 133.4C45.4861 129.2 50.4947 126.8 55.4011 124.6C60.0008 122.9 64.3961 120.9 69.3025 119.8C71.3468 119.2 73.3911 118.6 75.4354 118.1C73.9022 119.6 72.4712 121.2 71.0401 122.8C69.3025 125 67.3604 127.1 65.8271 129.5C64.7027 131.8 60.9208 137.8 65.2138 138.7C65.2138 138.7 65.4183 138.7 65.5205 138.7C69.6091 138.7 78.2975 126.6 80.2396 123.3C80.9551 121.7 83.4083 118.4 82.795 116.4C84.5327 116.1 86.2703 115.8 88.008 115.5C88.3147 116 88.928 116.3 89.5413 115.8C91.4834 115.1 93.7321 115.2 95.7764 114.9C96.2875 114.9 96.6964 114.9 97.2075 114.8C98.0252 114.8 98.9451 114.8 99.7629 114.8C102.012 114.8 104.158 114.9 106.407 115.1C106.611 115.1 106.714 115.1 106.918 115C110.7 115.8 114.38 117.2 117.651 119.2C125.317 124 132.472 129.6 138.707 136.1C137.583 136.9 136.254 138.6 134.721 141.9C129.61 151.2 127.259 161.7 124.908 171.9L124.397 172.1ZM175.607 164.6C175.301 164.8 175.198 165 175.096 165.4C175.096 165.5 175.096 165.6 175.096 165.7C172.643 171.7 169.372 177.4 164.67 182.2C162.626 184.3 160.377 185.9 157.822 187.3C157.413 187.5 157.106 187.6 156.697 187.7C156.391 187.5 156.084 187.5 155.573 187.7C155.266 187.7 154.857 187.7 154.551 187.7C154.448 187.7 154.244 187.7 154.142 187.7C147.191 186 141.263 181.2 135.947 176.8C135.538 176.4 134.925 175.7 134.312 175.7C133.801 175.3 133.29 174.9 132.983 174.6C131.143 172.7 129.099 171.2 127.157 169.4C127.157 169.4 126.952 169.2 126.85 169.2C127.77 165.4 128.792 161.6 129.917 157.9C131.143 153.4 132.676 149.1 134.823 144.9C136.152 142.6 137.174 139.7 139.32 137.9C139.32 137.9 139.423 137.9 139.525 137.9C141.774 140.2 144.022 142.4 146.169 144.8C145.249 145.4 144.227 146 143.307 146.5C142.387 147.3 138.605 149.4 139.934 150.7C140.138 150.9 140.343 151 140.649 151C140.956 151 141.16 151 141.365 150.7C142.183 149.9 143 149.2 144.022 148.4C144.942 147.8 145.862 147.2 146.782 146.7C146.578 147.6 146.373 148.4 146.271 149.3C146.271 150.7 143.716 155.9 145.76 156.1C145.76 156.1 145.76 156.1 145.862 156.1C146.476 156.1 146.884 155.6 146.884 155C147.6 151.9 148.418 148.7 149.031 145.5C149.44 144.1 149.747 142.6 150.053 141.1C150.871 140.6 150.462 139 150.666 138.2C150.973 135.8 151.28 133.3 151.586 130.9C152.813 123.7 153.426 116.2 155.471 109.2C155.471 109.2 155.471 109.1 155.471 109C155.573 108.7 155.675 108.4 155.777 108.1C155.777 108 155.879 107.8 155.982 107.7C155.982 107.5 156.084 107.3 156.186 107.1C156.186 106.8 156.288 106.6 156.391 106.3V106.1C157.106 104.2 158.026 102.3 159.15 100.5C161.092 98.1 163.955 96.7 166.817 95.3C171.519 93 175.812 90.3 180.411 87.8C181.331 87.3 182.762 87.1 183.784 86.6C185.42 87 187.055 87.5 188.691 87.9C188.282 88.3 188.078 88.9 188.078 89.5C188.793 93.2 193.291 94.1 196.459 94.7C196.459 94.7 196.664 94.7 196.766 94.7C197.277 94.7 197.788 94.5 198.197 94.3C198.708 95.5 198.81 96.7 197.481 97.7C194.517 100 190.837 99 187.873 98.1C185.42 97.3 183.478 96.5 182.967 97.6C182.967 97.6 182.967 97.7 182.967 97.8C182.66 98.2 182.558 98.7 183.069 99.1C183.887 105.5 180.002 112.2 174.381 115.5C172.847 116.2 171.11 116.8 169.372 116.7C168.043 116.6 167.941 118.5 169.168 118.6H169.372C175.607 118.6 180.616 114 183.171 108.6C183.784 109.1 184.807 109.5 185.42 109.8C186.033 110.1 186.647 110.2 187.26 110.2C188.589 110.2 189.713 109.6 190.735 108.6C191.655 109.2 193.086 109.7 193.802 109.7C193.904 109.7 194.006 109.7 194.108 109.7C194.926 109.7 195.642 109.6 196.255 109.3C196.255 109.6 196.357 109.9 196.561 110.1C196.766 110.6 197.073 111 197.481 111.4C197.175 111.8 197.175 112.3 197.686 112.8C199.424 113.7 198.095 116.8 197.89 118.5C196.664 123.1 194.006 127.2 190.633 130.5C188.691 132.2 186.646 133.7 184.398 135.1C184.091 135.3 183.887 135.7 183.989 136C183.376 136.3 183.478 137.1 183.273 137.7C180.718 146.6 178.878 156 175.403 164.8L175.607 164.6ZM185.215 99.1C185.727 99.3 186.34 99.5 186.851 99.6C186.851 99.9 186.851 100.3 186.749 100.6C186.544 103.1 187.771 105.5 189.713 106.9C188.486 108.4 186.544 108.8 184.296 106.7C184.296 106.7 184.296 106.7 184.193 106.6C184.704 105.3 185.011 103.9 185.215 102.6C185.215 101.5 185.42 100.2 185.215 99.1ZM188.895 102.6C188.691 101.9 188.691 101.1 188.793 100.3C189.611 100.6 190.429 100.8 191.246 100.8C191.246 100.8 191.246 101 191.348 101C191.553 102.4 191.348 103.9 190.735 105.2C189.917 104.5 189.202 103.6 188.895 102.5V102.6ZM182.353 156.4C182.251 156.4 182.047 156.4 181.945 156.4C182.047 156.4 182.149 156.4 182.353 156.4ZM326.171 197C322.185 199 317.688 198.6 313.803 196.8C312.883 196.3 311.963 195.7 311.043 195.1C310.532 194.7 310.021 194.3 309.51 193.8C309.51 193.5 309.204 193.2 308.795 193.1C306.75 190.9 305.422 188.2 305.115 185.3C304.399 179 309.204 171.2 315.337 166.7C315.439 166.6 315.541 166.5 315.745 166.4C316.052 166.2 316.359 166 316.665 165.8C316.768 165.8 316.972 165.6 317.074 165.5C317.074 165.5 317.279 165.4 317.381 165.4C319.936 163.9 322.696 163.1 325.354 163.2C325.456 163.4 325.66 163.5 325.763 163.5C325.763 164.7 325.763 165.8 325.763 166.9C325.456 168.9 327.398 170.9 329.442 171C329.545 171 329.647 171 329.851 171C331.282 171 332.713 170.3 333.429 169.1C333.735 168.6 334.042 167.9 333.838 167.3C333.838 167 333.838 166.7 333.838 166.4C334.144 166.5 334.349 166.6 334.655 166.8C337.313 168.5 338.54 171.7 339.153 174.7C340.482 183.5 334.144 193.2 326.171 197ZM330.158 152.9C332.1 147.9 335.064 143.3 338.54 140.6C338.744 140.6 338.846 140.5 338.948 140.4C339.255 140.4 339.46 140.3 339.664 140C339.868 140 340.073 140 340.277 140.1C341.708 141.2 343.65 143.7 342.117 145.3C341.913 145.2 341.708 145.1 341.402 145.1C340.788 145.2 340.277 145.8 339.868 146.2C335.269 152.4 331.896 160 331.998 167.8C331.998 167.8 331.998 167.8 331.998 167.9C331.18 169.8 327.807 169.2 327.909 167.2C328.011 166.9 327.909 166.5 327.909 166.3C327.909 166.2 327.909 166.1 327.909 166C327.705 162.8 328.318 159 329.545 155.3C329.545 155.2 329.545 155 329.749 154.9C329.749 154.7 329.851 154.6 329.953 154.4C330.056 154 330.26 153.6 330.362 153.3C330.362 153.3 330.362 153.2 330.362 153.1L330.158 152.9ZM339.357 158.6C338.54 160.9 337.313 163 335.678 164.9C335.473 164.9 335.269 164.7 335.166 164.6C334.962 164.4 334.758 164.4 334.553 164.4C334.349 164.4 334.349 164.4 334.247 164.4C334.247 164.4 334.144 164.4 334.042 164.4C334.246 163 334.451 161.7 334.86 160.4C335.166 158.8 335.78 157.3 336.495 155.9C336.495 155.9 336.495 155.9 336.597 155.9C337.109 155.9 337.722 155.9 338.233 155.9C338.744 155.9 339.255 155.9 339.766 155.9C339.766 156.8 339.562 157.8 339.357 158.7V158.6ZM366.342 129.3C366.036 130.8 365.32 132.3 365.116 133.9C363.48 138.1 361.027 142 357.552 144.9C352.339 150.1 345.081 154.3 337.313 154C338.437 151.5 339.664 149.1 341.606 147.1C341.708 147.1 341.913 147.2 342.117 147.2C342.833 147.2 343.65 146.6 343.957 146C345.081 144.2 344.161 141.7 342.935 140.2C342.015 138.8 339.766 137.3 338.335 138.6C338.131 138.6 338.029 138.6 337.824 138.8C333.838 141.6 330.362 146.8 328.216 152.5C325.456 151.5 322.389 149.6 320.958 148.7C320.856 148.7 320.754 148.6 320.652 148.5C316.257 145.6 312.168 142.1 309.919 137.3C307.773 133 306.342 128.7 305.933 123.9C305.319 118 305.319 111.8 302.866 106.3C301.844 104.3 300.515 102.5 299.084 100.8C292.849 93.8 285.081 88.5 278.028 82.4C271.997 77 266.682 71 262.695 64C261.06 61.1 259.424 58.2 258.504 55C258.504 54.8 258.504 54.7 258.504 54.5C258.096 53.1 257.891 51.7 257.993 50.3C257.993 50.2 257.993 50 257.993 49.9C257.993 49.7 257.993 49.6 257.993 49.4C257.993 49.2 257.993 49 257.993 48.9C258.913 48.7 258.913 47.5 258.198 47.2C258.198 46.9 258.3 46.5 258.402 46.2C258.402 46 258.402 45.9 258.402 45.7C258.402 45.3 258.504 45 258.607 44.6C258.607 44.4 258.607 44.3 258.709 44.1C258.709 43.7 258.913 43.4 259.015 43C259.015 42.7 259.22 42.4 259.22 42.1C259.731 40.4 260.242 38.6 260.958 36.9C261.06 36.6 261.264 36.3 261.366 35.9C261.366 35.7 261.571 35.5 261.673 35.3C261.775 35 261.98 34.6 262.082 34.3C262.389 33.6 262.695 32.9 263.002 32.2C263.002 32 263.206 31.9 263.206 31.7C264.433 29.2 265.966 26.7 267.499 24.4C267.602 24.2 267.704 24.1 267.806 23.9C268.726 22.6 269.748 21.4 270.77 20.2C270.77 20.1 270.975 20 271.077 19.9C272.099 18.8 273.121 17.7 274.246 16.8H274.45C274.859 16.8 275.268 16.5 275.268 16C275.268 15.5 275.268 15.9 275.268 15.8C278.437 12.9 282.321 11 286.103 9C296.427 3.4 308.488 1.2 320.243 2.2C325.354 2.9 330.362 4.2 334.962 6.5C336.086 7.1 337.211 7.6 338.335 8.2C338.335 8.2 338.54 8.2 338.642 8.2C340.686 9.5 342.526 10.9 344.161 12.6C350.908 18.1 355.814 25.2 359.801 32.8C363.378 39.3 364.298 46.9 364.298 54.3C363.991 57.9 363.071 61.5 361.845 64.8C361.743 65.5 360.925 66.8 360.823 67.8C360.516 68.6 360.209 69.4 359.903 70.3C358.778 74 357.961 77.8 358.37 81.7C358.983 86.6 359.801 91.5 361.538 96.2C362.765 101 365.627 105.2 366.547 110.1C367.569 116.6 367.467 123.1 366.445 129.6L366.342 129.3Z" style="fill: var(--il-outline);"/>
<path id="vec39" d="M229.373 103.6C233.257 105.3 237.652 105.1 241.741 105.3C241.945 105.5 242.354 105.6 242.661 105.5C243.274 105.5 243.888 105.5 244.399 105.5C244.807 105.5 245.319 105.5 245.727 105.5C247.261 105.5 248.896 105.5 250.429 105.5C251.554 105.5 252.678 105.5 253.802 105.5C254.927 105.5 254.722 105.5 255.131 105.5C258.811 105.5 262.593 105.4 266.273 105.3C268.011 105.3 270.157 105.3 272.304 105.1C274.041 107.3 276.494 108.9 279.254 109.3C280.379 109.6 281.707 110.1 282.934 109.7C283.65 109.4 283.65 108.3 282.934 108C282.116 107.3 281.401 106.6 280.685 105.8C279.97 105 279.356 104 278.948 103.1C279.765 102.5 280.379 101.6 280.788 100.6C281.605 96.1 279.254 93.6 274.757 93.2C269.85 92.2 264.842 92.2 259.833 92.2C258.3 92.2 256.767 92.2 255.234 92.2C253.7 92.2 252.065 92.2 250.532 92.3C248.078 92.3 245.523 92.5 243.07 92.3C238.879 92.1 234.381 92.2 230.599 94C226.204 96.2 224.569 100.7 229.373 103.6Z" style="fill: var(--il-outline);"/>
<path id="vec40" d="M203.512 125.5C203.921 126.6 204.534 127.4 205.352 128C204.943 129 204.33 129.9 203.614 130.7C202.899 131.5 202.183 132.2 201.366 132.9C200.65 133.2 200.65 134.3 201.366 134.6C202.49 135.1 203.819 134.5 205.045 134.2C207.907 133.7 210.361 132.2 211.996 130C214.143 130.2 216.391 130.2 218.027 130.2C221.707 130.2 225.489 130.4 229.168 130.4C229.577 130.4 230.088 130.4 230.497 130.4C231.622 130.4 232.746 130.4 233.87 130.4C235.404 130.4 237.039 130.3 238.572 130.4C238.981 130.4 239.492 130.4 239.901 130.4C240.514 130.4 241.128 130.4 241.639 130.4C241.945 130.4 242.252 130.4 242.559 130.2C246.647 130 251.043 130.2 254.927 128.5C259.731 125.8 258.096 121.2 253.802 119C249.918 117.2 245.523 117.1 241.332 117.3C238.879 117.4 236.324 117.3 233.87 117.3C232.337 117.3 230.702 117.2 229.168 117.2C227.635 117.2 226.102 117.2 224.569 117.2C219.56 117.2 214.654 117.2 209.645 118.2C205.045 118.6 202.694 121.1 203.512 125.5Z" style="fill: var(--il-outline);"/>
</g>
</g>
<g id="White_Outlines">
<path id="vec41" d="M182.353 156.2C181.842 156.2 181.331 155.8 181.331 155.2C181.331 154 182.762 154.2 183.58 154.2C196.357 154.2 209.134 154.2 222.013 154.2C251.758 154.2 281.605 154.2 311.35 154.2C311.35 154.4 311.35 154.6 311.35 154.8C311.35 155.1 311.35 155.4 311.35 155.7C311.35 155.7 311.35 156 311.35 156.1C289.578 156.1 267.704 156.1 245.932 156.1C233.666 156.1 221.4 156.1 209.236 156.1C197.073 156.1 191.348 156.1 182.353 156.1V156.2Z" style="fill: var(--il-highlight);"/>
<path id="vec42" d="M152.813 107.2C152.813 83.5 152.813 62.6 152.813 38.9C152.915 38.9 153.12 38.9 153.222 38.9C153.733 38.9 154.244 38.9 154.755 38.9C154.755 45.9 154.755 53 154.755 60C154.755 76.2 154.755 89.9 154.755 106.2C154.755 106.6 154.755 106.8 154.755 107.2C154.755 107.7 154.244 108 153.733 108C153.222 108 152.915 107.8 152.813 107.2Z" style="fill: var(--il-highlight);"/>
<path id="vec43" d="M182.251 156.2C181.331 156.3 180.207 156 180.616 154.9C181.331 153.8 183.273 154.5 184.398 154.3C184.909 154.3 185.42 154.7 185.42 155.3C185.318 156.8 183.273 156.1 182.251 156.2Z" style="fill: var(--il-highlight);"/>
</g>
<g id="Dark_Outlines">
<path id="vec44" d="M52.7434 86.1C51.9257 85.8 52.1302 84.8 52.2324 84.2C52.8457 81 55.7077 78.2 59.1831 78.2C60.6141 78.1 64.4983 79.8 62.5562 81.4C61.9429 81.7 61.3296 81.4 61.1252 80.8C60.5119 80.4 59.8986 80.2 59.1831 80.1C56.9343 80.1 54.9922 81.8 54.3789 83.9C54.0723 84.8 54.3789 86.5 52.7434 86.1Z" style="fill: var(--il-ne-outline);"/>
<path id="vec45" d="M321.776 202.4C320.345 202.4 318.914 202.1 317.585 201.8C317.074 201.8 316.665 201.2 316.768 200.7C316.972 199.5 318.403 200 319.323 200.1C324.127 201.1 328.522 199.7 332.611 197.4C339.971 193 343.548 184.1 342.322 175.9C341.811 173.5 340.891 171.2 339.664 169.1C339.051 168.4 338.846 167.1 340.073 167C340.584 167 341.095 167.3 341.197 167.8C342.219 169.5 343.037 171.3 343.65 173.2C346.308 181.6 343.037 191.4 336.291 197.1C332.304 200.2 326.989 202.6 321.776 202.2V202.4Z" style="fill: var(--il-ne-outline);"/>
<path id="vec46" d="M125.112 56.7C125.726 57 125.726 57.7 125.317 58.2C125.317 59.4 122.455 61.2 121.842 62C120.513 62.9 114.584 69 112.949 67.6C112.744 67.6 112.642 67.4 112.54 67.2C109.371 60.4 105.385 53.8 101.807 47.3C101.807 47.2 101.807 47 101.807 46.9C101.296 45.8 102.932 45.2 103.647 44.6C107.531 40.8 110.189 34.8 108.656 29.6C107.531 27.8 104.771 27.9 103.443 29.6C102.42 31 102.114 32.8 101.807 34.5C101.501 36 101.398 37.5 101.398 39.1C101.398 39.7 101.398 40.8 100.989 41.2C100.785 41.7 100.07 42 99.5584 41.7C95.4698 41.1 91.2789 41.4 87.1903 41.3C86.6792 41.3 86.2704 41 86.1681 40.5C85.9637 40.5 85.8615 40.3 85.7593 40.1C85.2482 38.6 85.8615 36.4 85.8615 34.7C86.1681 29.7 87.5992 24.7 90.2568 20.4C94.8565 12.7 104.465 5.9 113.358 11.5C113.766 11.7 114.278 11.9 114.482 12.2C118.877 15.1 121.944 19.7 123.784 24.5C125.01 29.8 124.601 35.5 122.25 40.4C121.535 41.8 120.615 43.1 119.899 44.4C119.695 44.7 119.491 45.2 119.184 45.6C120.002 47.4 121.024 49.1 121.944 50.9C123.068 52.7 123.988 54.7 125.112 56.5V56.7Z" style="fill: var(--il-ne-outline);"/>
<path id="vec47" d="M135.641 69.8C137.072 72 136.458 75 135.641 77.3C132.983 82.1 127.259 85.9 121.637 86C118.571 85.7 115.913 83.3 114.891 80.5C114.38 77.7 114.789 74.8 116.22 72.3C118.06 68.5 122.864 65.2 127.157 65.5C130.428 65.5 133.699 67.2 135.641 69.7V69.8Z" style="fill: var(--il-ne-outline);"/>
<path id="vec48" d="M335.984 165.7C334.655 164.6 337.109 162.7 337.62 161.6C338.437 160.2 339.153 158.8 339.664 157.2C338.948 155.8 341.606 154.9 341.708 156.6C341.299 159.6 339.46 162.4 337.824 164.9C337.517 165.5 336.802 166.2 335.984 165.7Z" style="fill: var(--il-ne-outline);"/>
<path id="vec49" d="M340.584 170.5C339.46 168.5 337.722 166.7 335.678 165.5C334.042 166 333.94 163.2 335.678 163.4C337.313 163.6 344.468 169.6 341.913 170.9C341.402 171.1 340.891 170.9 340.686 170.4L340.584 170.5Z" style="fill: var(--il-ne-outline);"/>
<path id="vec50" d="M153.017 40.4C152.711 40.1 152.711 39.7 152.609 39.3C152.609 37.3 152.915 35.3 153.529 33.5C154.857 29.4 159.253 26.4 163.648 26.8C164.875 27.1 164.466 28.9 163.239 28.7C162.932 28.7 162.524 28.7 162.421 28.7C157.004 29.3 154.755 33.8 154.551 38.6C154.448 39.2 154.857 39.7 154.551 40.2C154.244 40.8 153.426 40.9 152.915 40.5L153.017 40.4Z" style="fill: var(--il-ne-outline);"/>
<path id="vec51" d="M311.146 156.3C309.408 156.4 309.204 154 311.043 154.3C312.474 154.5 313.905 154.1 315.234 153.9C316.87 153.3 318.505 152.6 319.527 151.3C319.527 151.3 319.527 151.3 319.527 151.4C320.141 149.9 322.185 150.6 321.469 152C319.221 155.2 314.928 156.3 311.248 156.3H311.146Z" style="fill: var(--il-ne-outline);"/>
<path id="vec52" d="M144.431 140.1C143.716 140.1 143.409 139.4 143.511 138.8C143.511 136.3 143.511 133.8 143.511 131.3C143.511 119.3 143.511 107.3 143.511 95.3C143.511 83.6 143.511 72 143.511 60.3C143.511 55.5 143.511 50.8 143.511 46C143.511 45.5 143.92 45 144.431 45C144.942 45 145.453 45.4 145.453 45.9C145.453 50.7 145.453 55.4 145.453 60.2C145.453 72.2 145.453 84.2 145.453 96.2C145.453 108 145.453 119.8 145.453 131.6C145.453 134 145.453 136.4 145.453 138.9C145.453 139.5 145.147 140 144.431 140.1Z" style="fill: var(--il-ne-outline);"/>
<path id="vec53" d="M177.447 167.4C176.936 167.4 176.425 166.9 176.527 166.4C176.527 165.9 177.038 165.5 177.549 165.5C179.798 165.5 182.149 165.5 184.398 165.5C194.824 165.5 205.25 165.5 215.778 165.5C237.141 165.5 258.607 165.5 279.97 165.5C285.081 165.5 290.191 165.5 295.302 165.5C297.653 165.5 299.902 165.5 302.253 165.5C302.56 165.5 302.764 165.6 302.968 165.8C303.275 166.1 303.377 166.7 302.968 167C302.151 167.8 300.413 167.2 299.289 167.4C290.294 167.4 281.299 167.4 272.304 167.4C240.719 167.4 209.032 167.4 177.447 167.4Z" style="fill: var(--il-ne-outline);"/>
<path id="vec54" d="M301.333 166.6C301.231 165.3 302.866 165.4 303.786 165.3C305.013 165.2 306.239 164.9 307.261 164C309.306 162 310.737 159.1 310.43 156.2C310.124 155.2 311.555 154.5 312.168 155.4C312.781 157 312.168 158.7 311.861 160.2C310.839 163.8 307.773 167.1 303.684 167.1C302.764 167.1 301.64 167.5 301.333 166.4V166.6Z" style="fill: var(--il-ne-outline);"/>
<path id="vec55" d="M144.431 46.9C143.511 46.6 143.716 45.7 143.92 45C144.636 42.7 146.373 40.9 148.315 39.6C149.338 38.9 154.244 37.5 154.244 39.6C154.244 40.1 153.631 40.5 153.12 40.4C149.951 40.1 147.089 42.4 145.965 45.2C145.862 46 145.658 47.2 144.431 46.9Z" style="fill: var(--il-ne-outline);"/>
<path id="vec56" d="M41.0908 186.1C38.331 184.9 37.2066 181.6 36.0823 179.1C35.7756 178.3 35.6734 177.6 35.469 176.8C35.1623 176.3 35.2645 175.7 35.8778 175.4C36.4911 175.1 37.2066 175.5 37.3088 176.1C37.7177 178.1 38.5354 179.9 39.5576 181.6C40.1709 182.5 40.682 183.7 41.8064 184.1C42.4197 183.7 42.4197 182.9 42.6241 182.3C42.6241 181.8 43.2374 181.4 43.7485 181.5C44.2595 181.6 44.5662 182.1 44.5662 182.6C44.464 184.3 43.2374 186.5 41.1931 185.9L41.0908 186.1Z" style="fill: var(--il-ne-outline);"/>
<path id="vec57" d="M124.499 188.7C123.681 188.4 123.068 187.8 122.659 187.2C121.944 186.2 123.477 185.1 124.295 186.1C125.521 188.1 128.281 186.1 129.508 185C130.837 183.5 131.859 181.6 132.881 179.9C133.29 179.2 133.596 177.8 134.721 178.2C136.254 179.1 134.005 181.5 133.494 182.6C131.757 185.8 128.588 189.4 124.499 188.7Z" style="fill: var(--il-ne-outline);"/>
<path id="vec58" d="M65.8271 115.8C63.885 115.6 61.7385 115.4 60.4097 113.8C59.1831 113.2 60.103 111.5 61.3296 112.1C61.9429 112.5 62.2496 113.2 63.0673 113.3C65.8271 114.4 69.2003 113.9 71.0401 111.4C71.3468 110.8 71.7557 110.1 72.5734 110.4C74.3111 111.3 72.2667 113.1 71.449 113.8C69.9158 115.1 67.8714 115.8 65.8271 115.7V115.8Z" style="fill: var(--il-ne-outline);"/>
<path id="vec59" d="M339.766 167.9C339.357 167.5 339.562 166.8 339.971 166.5C342.424 163.5 343.855 159.8 344.877 156.1C344.468 154.6 347.024 154.3 346.921 155.9C346.819 157.7 342.219 170.3 339.766 167.9Z" style="fill: var(--il-ne-outline);"/>
</g>
</g>
<defs>
<linearGradient id="paint0_linear_2414_1310" x1="373.879" y1="23.9641" x2="293.72" y2="105.9" gradientUnits="userSpaceOnUse">
<stop style="stop-color: var(--primary-fixed-dim);"/>
<stop offset="1" style="stop-color: var(--secondary-fixed-dim);"/>
</linearGradient>
<linearGradient id="paint1_linear_2414_1310" x1="126.92" y1="137.113" x2="198.656" y2="137.113" gradientUnits="userSpaceOnUse">
<stop style="stop-color: var(--primary-fixed);"/>
<stop offset="1" style="stop-color: var(--primary-fixed-dim);"/>
</linearGradient>
<linearGradient id="paint2_linear_2414_1310" x1="88.8037" y1="114.869" x2="88.8037" y2="224.599" gradientUnits="userSpaceOnUse">
<stop style="stop-color: var(--secondary-fixed-dim);"/>
<stop offset="1" style="stop-color: var(--primary-fixed-dim);"/>
</linearGradient>
<linearGradient id="paint3_linear_2414_1310" x1="65.5048" y1="99.9001" x2="86.9643" y2="99.9001" gradientUnits="userSpaceOnUse">
<stop style="stop-color: var(--primary-fixed);"/>
<stop offset="1" style="stop-color: var(--primary-fixed-dim);"/>
</linearGradient>
<linearGradient id="paint4_linear_2414_1310" x1="7.35948" y1="132.688" x2="59.3734" y2="132.688" gradientUnits="userSpaceOnUse">
<stop style="stop-color: var(--primary-fixed-dim);"/>
<stop offset="1" style="stop-color: var(--primary-fixed);"/>
</linearGradient>
<clipPath id="clip0_2414_1310">
<rect width="369" height="227" fill="white"/>
</clipPath>
</defs>
</svg>