<svg xmlns="http://www.w3.org/2000/svg" width="369" height="237" viewBox="0 0 369 237" fill="none">
<g id="love-it" clip-path="url(#clip0_2414_1517)">
<g id="Group">
<g id="love_it">
<g id="Clip path group">
<mask id="mask0_2414_1517" style="mask-type:luminance" maskUnits="userSpaceOnUse" x="0" y="0" width="369" height="237">
<g id="_clip1">
<path id="vec1" d="M368.834 0H0V236.793H368.834V0Z" fill="white"/>
</g>
</mask>
<g mask="url(#mask0_2414_1517)">
<g id="Group_2">
<g id="FL">
<g id="Group_3">
<g id="Group_4">
<path id="vec2" d="M339.515 179.866C339.649 179.671 339.787 179.472 339.921 179.273C339.458 199.283 329.665 212.782 314.331 224.786C309.266 228.986 303.011 231.552 296.529 232.894C293.215 233.693 289.949 234.565 286.497 234.317C271.208 234.58 254.834 230.612 243.076 220.436C241.329 218.913 239.583 217.457 238.068 215.721C238.075 215.721 238.079 215.726 238.088 215.726C238.254 215.774 238.433 215.795 238.616 215.795C239.026 215.795 239.452 215.681 239.757 215.466C243.336 215.811 246.963 215.778 250.549 215.961C250.964 215.965 251.378 215.969 251.788 215.969C258.807 215.969 265.805 215.421 272.755 214.477C277.723 213.958 282.719 213.601 287.569 212.373C297.447 210.318 306.744 206.207 315.375 201.051C324.612 195.505 333.3 188.755 339.515 179.866Z" fill="url(#paint0_linear_2414_1517)"/>
</g>
<g id="Group_5">
<path id="vec3" d="M338.248 147.726C343.223 150.977 346.676 157.33 345.563 163.333C343.466 172.901 336.709 180.801 330.128 187.807C320.038 196.746 308.129 203.868 295.359 208.279C287.654 210.797 279.445 211.98 271.358 212.669C263.137 213.772 254.819 214.259 246.524 213.857C241.199 213.727 235.887 213.387 230.837 211.497C230.529 211.384 230.196 211.473 229.948 211.672C222.15 208.239 215.443 201.716 212.202 193.799C212.137 193.652 212.084 193.466 212.031 193.259C212.105 192.931 212.035 192.55 211.747 192.202C211.707 192.076 211.654 191.958 211.597 191.849C210.606 188.816 210.569 185.346 212.238 182.533C213.583 179.432 215.24 176.435 217.324 173.756C218.181 172.69 219.067 171.636 219.988 170.602C220.342 172.665 220.635 174.709 220.857 176.724C220.107 179.091 219.94 181.649 220.471 184.049C222.425 191.621 230.899 194.528 237.698 196.308C237.881 196.438 238.067 196.49 238.242 196.49C238.542 196.49 238.819 196.328 239.006 196.097C242.3 196.604 245.61 197.034 248.949 197.078C249.68 197.094 250.411 197.102 251.142 197.102C263.466 197.102 275.663 194.569 287.422 190.997C291.63 189.692 295.892 188.536 300.022 186.996C303.682 185.548 307.13 183.7 310.75 182.139C315.53 179.391 320.112 176.241 324.636 173.083C328.536 169.962 332.115 166.264 335.075 162.243C338.524 157.93 338.857 150.382 332.756 149.27C333.719 148.541 334.665 147.787 335.591 147.013C336.485 147.22 337.423 147.28 338.248 147.726Z" fill="url(#paint1_linear_2414_1517)"/>
</g>
<g id="Group_6">
<path id="vec4" d="M349.328 106.68C349.678 105.529 351.631 103.348 349.95 102.566C349.426 102.396 348.87 102.692 348.691 103.207C346.465 108.866 342.497 113.742 337.626 117.432C331.72 121.911 324.234 124.505 316.772 124.692C311.635 124.372 306.282 123.954 301.228 125.349C295.92 126.942 291.294 130.696 288.141 135.2C287.548 136.051 286.996 136.931 286.545 137.863C285.797 138.407 286.236 139.634 287.126 139.671H287.146C288.198 139.671 288.381 138.402 288.868 137.688C295.85 126.654 304.831 125.56 316.915 126.683C330.242 126.398 343.24 118.603 349.328 106.68ZM363.346 62.2182C365.336 71.0104 367.606 79.9457 366.656 89.0461C364.857 103.175 358.386 116.252 350.197 127.769C345.945 134.032 340.847 139.919 335.018 144.904C334.726 144.989 334.458 145.212 334.319 145.497C328.073 150.718 321.01 154.91 313.263 157.451C310.437 158.323 307.582 158.931 304.592 159.186C304.392 159.13 304.173 159.138 303.945 159.235C303.815 159.243 303.689 159.252 303.56 159.26C303.491 159.263 303.422 159.276 303.357 159.292C290.858 159.547 274.73 149.255 273.771 136.059C273.754 135.929 273.722 135.812 273.673 135.715C273.628 133.956 273.714 132.184 274.003 130.489C274.941 125.705 277.044 120.89 280.566 117.411C282.544 115.295 285.363 114.274 288.133 113.438C290.135 113.041 292.37 113.163 294.413 112.628C302.057 111.318 309.645 109.616 316.972 107.046C331.485 102.829 344.157 93.6436 353.093 81.518C357.821 75.8714 361.514 69.3769 363.346 62.2182Z" fill="url(#paint2_linear_2414_1517)"/>
</g>
<g id="Group_7">
<path id="vec5" d="M274.932 33.3823C283.649 43.0877 274.811 57.5026 262.926 58.4076C259.352 57.9447 255.521 58.006 252.393 55.9584C244.969 51.4098 243.584 40.7651 249.599 34.473C250.606 33.4114 251.683 32.5759 253.028 31.9315C253.681 31.6108 254.53 31.149 254.424 30.3021C257.024 28.8669 259.875 27.4316 262.902 27.1805H263.051C265.951 27.1805 268.762 28.2992 271.313 29.7179C271.391 30.0095 271.598 30.2689 271.877 30.3903C272.02 30.4319 272.154 30.4474 272.276 30.4474C273.251 31.3358 274.076 32.3808 274.932 33.3823Z" fill="url(#paint3_linear_2414_1517)"/>
</g>
<g id="Group_8">
<path id="vec6" d="M260.708 147.126C260.31 147.281 259.924 147.443 259.599 147.507C257.657 148.144 255.594 148.622 253.628 149.222C244.985 151.683 236.909 155.66 229.103 160.062C226.223 161.886 223.583 164.075 221.162 166.488C217.251 148.083 209.781 130.221 198.753 115.016C192.661 107.232 186.73 98.9828 178.705 93.0633C182.636 89.5535 186.316 79.8522 187.283 76.8156C190.268 68.4604 191.905 59.554 191.783 50.6726C191.771 49.173 191.832 47.6599 191.596 46.1728C191.633 46.0181 191.645 45.8604 191.628 45.7026C194.038 46.0067 196.382 46.7041 198.786 47.1742C198.696 47.3569 198.611 47.5426 198.534 47.7294C198.01 49.9026 197.458 52.2002 197.665 54.4429C198.302 62.0437 203.449 66.7989 211.129 66.527C211.621 66.5519 212.113 66.5591 212.608 66.5591C218.222 66.5591 223.993 65.2505 229.432 63.0732C221.824 69.7337 215.671 77.9748 214.115 88.0414C214.14 90.8538 213.428 93.6756 213.729 96.4735C214.144 100.847 217.097 105.169 221.787 105.465C221.913 105.469 222.036 105.469 222.158 105.469C232.23 105.469 240.273 97.7749 246.536 90.6473C249.302 87.5225 251.296 83.8612 253.218 80.1843C253.027 80.9585 252.848 81.7368 252.694 82.5193C250.329 96.7734 251.228 111.492 254.286 125.584C255.643 132.958 257.82 140.19 260.708 147.126Z" fill="url(#paint4_linear_2414_1517)"/>
</g>
<g id="Group_9">
<path id="vec7" d="M280.261 99.1491C279.205 99.5258 278.165 99.9389 277.142 100.402C269.526 104.447 266.902 112.599 267.048 120.926C264.534 110.82 263.181 100.413 262.902 90.0269C263.068 86.5005 263.437 82.9897 263.726 79.4715C269.624 85.6775 275.371 92.1108 280.261 99.1491Z" fill="url(#paint5_linear_2414_1517)"/>
</g>
<g id="Group_10">
<path id="vec8" d="M289.149 169.458C288.296 170.249 287.077 170.638 286.049 171.146C283.551 172.07 280.964 172.982 278.279 173.039C277.195 171.798 276.13 170.549 275.103 169.26C271.614 164.526 268.925 159.267 266.126 154.111C265.022 151.983 263.997 149.818 263.055 147.62V147.617C263.051 147.581 263.047 147.539 263.04 147.499C262.987 147.365 262.93 147.256 262.861 147.163C262.861 147.158 262.857 147.154 262.857 147.154C259.294 138.73 256.878 129.837 255.346 120.82C253.19 108.919 252.604 96.5868 254.368 84.6076C254.762 81.6281 255.606 78.7742 256.382 75.8424C256.675 75.5954 256.78 75.1502 256.654 74.7932C256.541 74.5493 256.403 74.3791 256.252 74.2701C256.816 73.0092 257.321 71.7286 257.751 70.4147C257.946 69.9197 258.368 68.5623 258.766 66.9651C259.185 68.8051 259.81 70.5974 260.643 72.2516C261.094 73.0538 261.565 73.8644 262.069 74.6759C261.967 75.2675 262 75.9119 261.906 76.4754C261.902 76.6695 261.898 76.8646 261.894 77.0587C261.877 77.1396 261.874 77.2258 261.886 77.314C261.744 81.5835 261.005 85.8114 260.923 90.0757C261.361 99.4407 261.955 108.919 264.388 118.003C267.085 130.785 271.772 143.296 278.45 154.537C280.152 157.289 282.154 159.835 283.966 162.506C285.623 164.862 287.077 167.44 289.149 169.458Z" style="fill: var(--secondary-fixed);"/>
</g>
<g id="Group_11">
<path id="vec9" d="M179.521 49.1323C181.413 48.2481 183.274 47.2829 185.163 46.3956C180.329 53.9808 176.503 72.8313 176.007 76.119C175.033 80.3469 174.419 84.6278 173.7 88.9004C173.627 89.1516 173.57 89.4193 173.529 89.6912C170.443 86.2696 168.326 82.0531 166.885 77.6632C164.565 71.3638 162.916 64.2083 165.893 57.7989C166.052 57.4304 166.328 56.9883 166.462 56.5587C170.853 54.1624 175.033 51.4102 179.521 49.1323Z" fill="url(#paint6_linear_2414_1517)"/>
</g>
<g id="Group_12">
<path id="vec10" d="M178.904 87.6479C178.904 87.1082 178.452 86.6589 177.913 86.6589C177.372 86.6589 176.922 87.1082 176.922 87.6479C176.922 88.1865 177.372 88.6369 177.913 88.6369C178.452 88.6369 178.904 88.1865 178.904 87.6479ZM180.938 73.9055C180.938 73.3741 180.491 72.9279 179.96 72.9279C179.428 72.9279 178.98 73.3741 178.98 73.9055C178.98 74.4358 179.428 74.882 179.96 74.882C180.491 74.882 180.938 74.4358 180.938 73.9055ZM182.632 82.9861C182.632 82.4548 182.185 82.0085 181.654 82.0085C181.121 82.0085 180.674 82.4548 180.674 82.9861C180.674 83.5164 181.121 83.9627 181.654 83.9627C182.185 83.9627 182.632 83.5164 182.632 82.9861ZM183.112 69.5633C183.112 69.0206 182.66 68.5702 182.117 68.5702C181.572 68.5702 181.121 69.0206 181.121 69.5633C181.121 70.1071 181.572 70.5565 182.117 70.5565C182.66 70.5565 183.112 70.1071 183.112 69.5633ZM185.91 58.7838C185.91 58.241 185.455 57.7875 184.911 57.7875C184.367 57.7875 183.911 58.241 183.911 58.7838C183.911 59.3276 184.367 59.7811 184.911 59.7811C185.455 59.7811 185.91 59.3276 185.91 58.7838ZM186.202 64.5695C186.202 64.0298 185.748 63.5763 185.207 63.5763C184.667 63.5763 184.212 64.0298 184.212 64.5695C184.212 65.1081 184.667 65.5627 185.207 65.5627C185.748 65.5627 186.202 65.1081 186.202 64.5695ZM187.831 54.9336C187.831 54.3981 187.384 53.9518 186.849 53.9518C186.312 53.9518 185.865 54.3981 185.865 54.9336C185.865 55.4681 186.312 55.9143 186.849 55.9143C187.384 55.9143 187.831 55.4681 187.831 54.9336ZM188.153 50.1006C188.153 49.5578 187.697 49.1033 187.153 49.1033C186.609 49.1033 186.154 49.5578 186.154 50.1006C186.154 50.6444 186.609 51.0979 187.153 51.0979C187.697 51.0979 188.153 50.6444 188.153 50.1006ZM189.038 60.1381C189.038 59.5995 188.59 59.1533 188.051 59.1533C187.51 59.1533 187.064 59.5995 187.064 60.1381C187.064 60.6778 187.51 61.123 188.051 61.123C188.59 61.123 189.038 60.6778 189.038 60.1381ZM189.708 47.2425C189.854 49.5257 189.87 51.8119 189.773 54.094C189.598 53.9321 189.363 53.8304 189.107 53.8304C188.567 53.8304 188.115 54.2808 188.115 54.8194C188.115 55.3591 188.567 55.8085 189.107 55.8085C189.322 55.8085 189.521 55.74 189.683 55.6185C189.448 59.1896 188.936 62.7492 188.185 66.2601C188.063 66.1988 187.925 66.1667 187.778 66.1667C187.239 66.1667 186.783 66.6202 186.783 67.1598C186.783 67.6901 187.226 68.1405 187.754 68.153C187.425 69.5478 187.056 70.9332 186.653 72.3125C186.479 72.0239 186.162 71.8299 185.809 71.8299C185.272 71.8299 184.821 72.2792 184.821 72.8147C184.821 73.3502 185.272 73.7996 185.809 73.7996C185.963 73.7996 186.109 73.7633 186.239 73.6989C185.727 75.3521 185.166 76.9939 184.565 78.616C184.488 78.15 184.079 77.7889 183.591 77.7889C183.05 77.7889 182.604 78.2351 182.604 78.7737C182.604 79.3134 183.05 79.7586 183.591 79.7586C183.826 79.7586 184.045 79.6735 184.216 79.5324C184.156 79.6984 184.094 79.8603 184.03 80.0264C182.649 83.4604 181.089 86.6547 178.891 89.7235C178.322 90.3918 177.799 91.2677 177.1 91.8634C176.588 91.5116 176.04 91.2314 175.435 91.2231C175.264 90.1531 175.812 88.7874 175.897 87.7776C176.206 85.9044 176.455 84.0239 176.779 82.159C176.905 82.5482 177.279 82.8398 177.71 82.8398C178.241 82.8398 178.688 82.3936 178.688 81.8632C178.688 81.3319 178.241 80.8856 177.71 80.8856C177.397 80.8856 177.112 81.0403 176.937 81.2748C177.067 80.5743 177.214 79.8728 177.384 79.1754C177.742 77.3188 178.1 75.458 178.473 73.6055C178.887 73.4914 179.204 73.1064 179.204 72.6612C179.204 72.3529 179.054 72.0769 178.827 71.8984C179.485 68.7248 180.207 65.571 181.073 62.4493C181.158 62.4732 181.247 62.4856 181.341 62.4856C181.885 62.4856 182.34 62.0311 182.34 61.4883C182.34 61.0462 182.04 60.6612 181.629 60.5356C182.015 59.2467 182.43 57.9608 182.88 56.6844C183.026 56.2993 183.213 55.7763 183.432 55.1598C183.602 55.2937 183.81 55.3705 184.038 55.3705C184.582 55.3705 185.036 54.917 185.036 54.3732C185.036 53.8429 184.603 53.3966 184.075 53.3769C185.272 50.1535 187.023 46.0511 188.884 45.334C189.009 45.5769 189.221 45.7668 189.481 45.8405C189.485 45.8529 189.489 45.8602 189.497 45.8685C189.497 45.8685 189.497 45.8726 189.5 45.8726C189.493 45.9131 189.485 45.9577 189.476 46.0024C189.31 45.8643 189.095 45.7792 188.863 45.7792C188.33 45.7792 187.884 46.2255 187.884 46.7568C187.884 47.2872 188.33 47.7334 188.863 47.7334C189.221 47.7334 189.538 47.5352 189.708 47.2425Z" style="fill: var(--tertiary-fixed);"/>
</g>
<g id="Group_13">
<path id="vec11" d="M163.432 58.1879C163.489 58.1682 163.542 58.1433 163.594 58.1111C162.209 61.7839 162.064 65.7731 162.661 69.6773C162.38 69.4542 161.986 69.3846 161.649 69.5434C159.492 70.4671 157.351 71.4447 155.248 72.4866C154.447 73.0947 151.755 73.7797 150.763 74.8009C150.187 73.925 149.358 73.212 148.379 72.7824C149.708 71.7083 150.987 70.5812 152.181 69.3774C153.741 67.8082 153.326 65.6559 152.352 63.8553C155.913 62.3152 159.297 60.3891 162.876 58.8895C163.176 58.7722 163.375 58.492 163.432 58.1879Z" fill="url(#paint7_linear_2414_1517)"/>
</g>
<g id="Group_14">
<path id="vec12" d="M150.053 50.6484C150.203 50.6484 150.345 50.6443 150.483 50.636C148.806 53.2834 147.359 56.0678 145.699 58.7193C145.435 58.1558 145.073 57.6369 144.617 57.1948C141.47 54.5599 137.441 57.0454 134.329 58.4879C127.566 61.7476 121.287 65.8625 114.85 69.6971C116.018 67.3662 117.083 64.9741 118.143 62.5986C119.005 60.2843 120.32 57.7386 119.625 55.2292C117.452 50.9152 111.128 52.4843 108.264 55.2739C102.42 61.346 98.618 69.0651 93.9918 76.0453C93.5332 76.7261 93.082 77.4162 92.6432 78.1125C92.0463 77.659 91.4942 77.1401 90.9368 76.641C86.4282 72.8146 82.533 68.3355 79.2472 63.4257C79.2149 63.3572 79.1786 63.2836 79.138 63.2109C81.0346 59.5143 82.4436 55.5043 84.0075 51.6375C86.2784 46.983 88.0212 42.0701 90.2225 37.3834C91.3112 35.0774 92.5298 32.5597 93.553 30.1759C93.7038 29.7785 93.9232 29.3613 93.9793 28.9358C94.1821 28.6514 94.337 28.3276 94.4181 28.0433C95.6326 25.5297 96.7494 23.0089 98.3258 20.6853C104.662 10.4818 117.404 1.19872 129.764 6.26626C133.139 7.70982 136.162 9.97947 138.659 12.7483C131.523 8.00974 121.567 6.20917 114.873 9.53737C108.159 12.7524 103.54 18.9917 100.214 25.4488C99.768 26.3008 99.4061 27.1964 99.0079 28.0682C98.9143 28.1325 98.8415 28.2135 98.7802 28.3027C98.1552 28.4978 97.7123 29.3364 98.3133 29.9372C100.284 32.0284 103.001 33.143 105.483 34.5056C110.292 37.0025 115.247 39.2203 120.19 41.4536C129.244 44.8794 138.026 49.5536 147.815 50.4616C148.684 50.5872 149.423 50.6484 150.053 50.6484Z" style="fill: var(--secondary-fixed);"/>
</g>
<g id="Group_15">
<path id="vec13" d="M146.823 45.69C148.249 46.46 149.634 47.2913 150.674 48.629C147.77 48.5969 144.927 48.1797 142.136 47.5103C142.132 47.4086 142.108 47.2996 142.071 47.1865C140.406 44.977 137.441 44.1499 135.162 42.6742C127.348 38.7991 119.211 35.5881 110.913 32.9044C109.918 32.6605 106.006 31.2709 104.605 31.8791C103.183 31.1246 101.802 30.3058 100.543 29.3251C100.824 28.9473 101.035 28.4409 101.201 28.0112C108.988 29.406 116.449 31.9559 123.83 34.7807C129.248 36.9746 134.93 38.5998 139.967 41.6561C140.012 41.681 140.052 41.7049 140.097 41.7256C140.118 41.7381 140.142 41.7495 140.166 41.762C140.171 41.7661 140.178 41.7703 140.186 41.7744C140.199 41.7827 140.211 41.7858 140.223 41.7941C140.373 41.8751 140.523 41.9602 140.674 42.0453C140.763 42.0941 140.853 42.147 140.938 42.1999C141.051 42.2601 141.166 42.3296 141.275 42.3981C141.328 42.4313 141.381 42.4594 141.433 42.4915C141.998 42.8402 142.555 43.2014 143.115 43.5573C143.245 43.6393 143.375 43.7203 143.505 43.7971C143.647 43.8863 143.793 43.9714 143.936 44.0565C143.988 44.0887 144.045 44.1209 144.098 44.1541C144.288 44.263 144.475 44.373 144.667 44.482C144.675 44.4903 144.682 44.4945 144.691 44.4986C144.963 44.6605 145.236 44.8307 145.491 45.0134C145.536 45.0455 145.581 45.0777 145.626 45.1109C145.633 45.1026 145.637 45.0943 145.645 45.0819C146.116 45.2925 146.551 45.4918 146.823 45.69Z" style="fill: var(--tertiary-fixed);"/>
</g>
<g id="Group_16">
<path id="vec14" d="M151.255 66.8114C151.238 66.9858 151.198 67.1518 151.141 67.3096C149.671 65.9801 146.884 66.8519 145.292 68.0516C143.984 69.0852 142.01 70.0908 141.824 71.9111C141.835 72.8877 142.481 73.7345 143.343 74.1486C142.664 74.6509 141.969 75.1459 141.251 75.6399C138.558 77.8857 135.519 79.597 132.514 81.3924C130.231 82.6045 128.07 84.0356 125.994 85.5726C125.564 85.8923 125.398 86.4641 125.706 86.9342C125.946 87.2341 126.214 87.3524 126.498 87.3524C127.53 87.3524 128.765 85.7584 129.683 85.3983C133.81 82.7062 138.338 80.6628 142.124 77.4685C143.529 76.4556 144.951 75.4292 146.352 74.3717C146.803 74.4081 147.262 74.4402 147.635 74.655C149.126 75.1822 149.785 76.7306 149.573 78.1576C149.122 77.8006 148.553 77.566 148.046 77.5453C144.999 77.0876 137.81 82.3005 142.733 84.5992C140.694 85.9006 138.578 87.1002 136.572 88.3933C135.048 89.3751 133.659 90.1534 132.039 91.0656C131.206 91.7018 129.118 92.1107 129.853 93.5138C130.089 93.8013 130.365 93.9154 130.665 93.9154C131.697 93.9154 133.013 92.5611 133.927 92.2529C136.685 90.7325 139.354 89.0139 142.05 87.3721C143.009 86.6747 144.057 86.0261 145.105 85.3619C146.19 85.7584 146.682 86.2576 146.746 86.8169C144.123 85.6214 138.513 89.5287 139.8 92.4314C137.624 93.5096 135.604 94.3534 134.898 94.6689C129.971 96.6355 125.187 98.9383 120.312 101.017C116.53 102.663 112.911 104.634 109.289 106.592C108.748 107.018 107.627 107.285 106.912 107.755C105.779 106.599 104.687 105.408 103.622 104.192C100.848 101.066 97.4317 98.5367 94.9538 95.1514C93.4388 92.9586 91.7377 90.8954 90.2268 88.7016C89.9097 88.3124 89.6289 87.7001 89.2795 87.2144C90.7301 84.8877 92.1838 82.5599 93.6509 80.2456C97.0501 75.0442 100.255 69.7131 103.626 64.4878C103.521 65.4488 103.707 66.333 104.682 66.799C104.836 66.827 104.987 66.8394 105.141 66.8394C108.204 66.8394 111.092 61.6702 112.238 59.303C113.021 58.0711 113.57 56.0319 112.745 54.9214C112.928 54.8519 113.114 54.7948 113.306 54.7471C114.674 54.3413 116.579 54.5115 117.603 55.6303C118.318 57.4993 117.05 59.6112 116.474 61.4108C114.983 64.8043 113.387 68.3878 111.563 71.6517C111.396 71.9184 111.364 72.182 111.425 72.4176C111.45 72.5836 111.518 72.7497 111.652 72.9043C112.753 73.9338 114.22 72.1093 115.32 71.7077C122.298 67.5482 129.094 63.0567 136.486 59.6434C138.574 58.727 141.4 56.9846 143.444 58.8329C144.191 59.9319 144.39 60.8919 144.219 61.7761C143.944 61.3298 143.537 60.9811 143.05 60.8763C139.919 59.5137 131.994 65.5827 135.426 68.6514C135.751 68.9513 136.295 69.1091 136.864 69.134C132.368 72.4373 127.51 75.2995 122.766 78.1939C122.152 78.4617 121.454 79.0055 121.815 79.7631C121.978 80.0993 122.351 80.3307 122.721 80.3307C122.858 80.3307 122.997 80.2986 123.118 80.229C125.227 79.0781 127.278 77.8338 129.305 76.5563C134.431 72.9489 140.101 69.985 144.419 65.3554C145.061 64.8085 145.532 64.1235 145.832 63.3732C145.966 63.3566 146.096 63.312 146.222 63.2476C149.346 61.9909 150.666 64.0052 151.255 66.8114Z" fill="url(#paint8_linear_2414_1517)"/>
</g>
<g id="Group_17">
<path id="vec15" d="M149.667 68.7046C149.74 68.7606 149.809 68.8219 149.87 68.8903C149.492 69.211 149.102 69.5109 148.774 69.8109C147.802 70.638 146.844 71.4319 145.877 72.203C145.463 72.1013 145.028 72.3119 144.796 72.6565C144.704 72.5672 144.581 72.4987 144.431 72.4458C144.167 72.3732 143.891 72.2227 143.798 71.9477C144.845 70.6089 147.86 68.1037 149.667 68.7046Z" style="fill: var(--success);"/>
</g>
<g id="Group_18">
<path id="vec16" d="M148.099 79.5924C148.005 79.9089 148.062 80.1891 148.216 80.4039C147.213 81.3888 146.121 82.2678 144.979 83.0876C144.801 82.9579 144.577 82.8842 144.346 82.9091C143.867 82.9984 143.375 82.7794 143.034 82.4504C144.09 80.9467 146.137 79.2281 148.099 79.5924Z" style="fill: var(--success);"/>
</g>
<g id="Group_19">
<path id="vec17" d="M145.5 88.5316C145.495 88.6614 145.508 88.7786 145.54 88.8845C144.566 89.7675 143.112 90.6758 141.58 91.5069C141.551 91.4259 141.543 91.3447 141.6 91.2673C142.473 89.9342 143.879 88.746 145.5 88.5316Z" style="fill: var(--success);"/>
</g>
<g id="Group_20">
<path id="vec18" d="M142.607 62.8423C142.571 62.8215 142.534 62.8018 142.497 62.7811C142.567 62.8215 142.611 62.8869 142.648 62.9596C142.258 63.357 142.326 63.9693 142.672 64.3336C142.371 64.646 142.034 64.9542 141.681 65.2624C140.808 66.0366 139.914 66.7828 139 67.5041C138.992 67.4677 138.98 67.4273 138.968 67.3909C138.72 66.9042 138.115 66.7174 137.628 66.9571C137.359 67.0983 137.039 67.2166 136.734 67.1232C135.637 65.8664 141.288 61.6302 142.607 62.8423Z" style="fill: var(--success);"/>
</g>
<g id="Group_21">
<path id="vec19" d="M110.649 56.3278C112.526 55.2329 109.106 60.9532 108.797 61.4638C107.985 62.7776 106.839 63.8352 105.612 64.764C105.727 63.9005 105.987 63.0651 106.23 62.2338C106.343 61.7886 106.177 61.4399 105.897 61.2293C106.498 60.3575 107.116 59.4858 107.777 58.6711C108.233 58.6462 108.655 58.2933 108.923 57.9208C109.451 57.3407 110.012 56.7813 110.649 56.3278Z" style="fill: var(--success);"/>
</g>
<g id="Group_22">
<path id="vec20" d="M88.553 142.261C88.8171 141.472 87.8542 140.713 87.1554 141.127C84.3739 140.628 81.66 139.789 78.9429 139.035C78.4355 138.865 77.874 139.226 77.7368 139.72C77.586 140.255 77.9156 140.749 78.4189 140.919C80.7626 141.613 83.1261 142.254 85.5021 142.821C85.9659 142.918 86.6272 143.109 87.2209 143.109C87.8095 143.109 88.3377 142.922 88.553 142.261ZM114.979 117.399C115.044 117.428 115.105 117.456 115.166 117.477C113.176 119.402 111.1 121.235 109.272 123.317C107.176 125.62 105.746 128.418 103.63 130.704C102.371 131.936 100.929 133.388 99.7882 134.815C99.1341 135.589 98.5654 136.449 98.6995 137.51C98.8087 138.881 99.7029 139.919 99.9504 141.261C99.7029 142.955 97.6233 143.822 96.0792 143.32C95.7506 143.307 95.3159 143.158 94.8366 142.971C94.8199 142.955 94.8043 142.939 94.7877 142.926C94.4872 142.614 94.1181 142.513 93.7843 142.554C92.6675 142.132 91.5788 141.857 91.2419 142.809C91.0797 143.332 91.3844 143.871 91.896 144.041C92.3265 144.187 92.7569 144.337 93.1833 144.487C93.0366 145.687 92.838 146.94 92.4034 148.083C92.3795 148.075 92.3462 148.067 92.3181 148.063C91.6152 147.909 91.0839 148.521 91.0839 149.19C88.8659 150.089 86.3267 148.966 84.0277 148.756C80.9904 148.33 78.1101 147.309 75.2994 146.113C68.5364 143.599 61.6882 140.948 55.9858 136.416C56.1803 136.173 56.3633 135.926 56.5338 135.735C57.4312 134.644 58.3577 133.562 59.1417 132.387C62.5939 134.945 69.5846 137.835 71.2379 138.365C71.3429 138.394 71.449 138.41 71.5426 138.41C72.5533 138.41 72.9193 136.821 71.7984 136.472C70.0026 135.917 68.2723 135.156 66.6232 134.256C64.0725 132.917 61.3149 131.868 59.1989 129.841C59.1167 129.305 58.6499 129.038 58.1871 129.054C58.1507 128.884 58.1466 128.71 58.1747 128.54C59.1334 127.007 61.03 126.224 62.415 125.045C64.5883 122.775 65.7133 119.689 67.6224 117.205C71.2379 111.595 75.6852 106.547 78.8286 100.645C81.8711 96.7531 84.2637 92.4276 87.4071 88.6168C87.4643 88.5317 87.5215 88.4424 87.5776 88.3532C87.6265 88.402 87.6795 88.4466 87.7325 88.4871C89.5803 91.3815 91.8024 94.0849 93.8009 96.8828C95.8442 99.5499 98.4801 101.67 100.807 104.074C105.247 108.764 109.552 113.828 114.979 117.399Z" style="fill: var(--secondary-fixed);"/>
</g>
<g id="Group_23">
<path id="vec21" d="M64.365 105.254C65.8072 106.75 63.6704 112.454 61.3183 112.214C61.258 112.222 61.2008 112.222 61.1436 112.218C61.1072 110.638 61.5013 109.092 62.1637 107.646C62.5255 106.871 62.9113 106.008 63.5612 105.408C63.6621 105.347 63.7515 105.27 63.8284 105.185C64.0031 105.156 64.182 105.168 64.365 105.254Z" style="fill: var(--primary-fixed);"/>
</g>
<g id="Group_24">
<path id="vec22" d="M82.7406 150.527C82.7447 150.531 82.7447 150.535 82.7447 150.54C79.252 157.877 76.0057 165.26 71.7861 172.256C69.6492 176.338 67.058 180.315 63.6786 183.51C58.2237 188.298 53.6017 193.895 47.602 198.08C45.6076 199.766 43.8285 201.659 41.7447 203.244C41.3267 203.743 40.421 204.184 39.8928 204.74C39.7389 204.72 39.5715 204.736 39.4051 204.805C32.4601 201.894 26.2046 197.682 20.3307 192.919C16.8629 190.073 13.2557 187.045 10.5584 183.4C11.6669 182.662 12.9147 182.139 13.9015 181.235C16.2327 179.058 18.9664 177.664 21.5337 175.755C23.9825 173.736 26.1235 171.623 28.853 169.86C31.4037 168.08 34.1904 166.609 36.4728 164.489C38.4349 162.706 39.5434 160.228 41.0792 158.112C46.3386 151.853 50.0352 144.56 54.5927 137.814C59.3207 141.572 64.8037 144.228 70.4374 146.352C74.4501 148.009 78.5241 149.563 82.7406 150.527Z" fill="url(#paint9_linear_2414_1517)"/>
</g>
<g id="Group_25">
<path id="vec23" d="M89.406 151.707C89.7554 166.657 89.5807 181.592 88.9505 196.563C88.65 200.508 88.3298 204.451 88.0043 208.388C88.102 208.972 87.8785 209.823 87.8421 210.569C87.6996 210.48 87.5374 210.395 87.3586 210.314C85.3892 209.552 83.2201 209.653 81.1446 209.474C76.636 209.183 72.1232 209.008 67.5979 208.968C65.4579 208.936 63.3252 209.11 61.1926 209.284C59.7431 209.43 58.1584 209.459 56.7286 209.88C56.8794 208.162 56.9969 206.524 57.1269 204.715C57.2246 201.931 57.4035 199.134 57.5823 196.348C57.5043 195.379 58.3456 192.943 57.5979 192.059C58.8083 190.835 59.9989 189.594 61.2498 188.414C63.6382 186.153 66.2419 184.073 68.2602 181.454C72.7002 175.312 76.3718 168.53 79.6171 161.68C81.0302 158.737 82.407 155.777 83.8783 152.866C84.1216 152.258 84.5521 151.598 84.6987 150.933C86.2179 151.213 87.7527 151.403 89.3124 151.492C89.2885 151.496 89.1907 151.496 89.1907 151.496C89.2313 151.496 89.2718 151.5 89.3165 151.496C89.3332 151.569 89.3654 151.638 89.406 151.707Z" fill="url(#paint10_linear_2414_1517)"/>
</g>
<g id="Group_26">
<path id="vec24" d="M81.7536 211.461C81.3917 211.692 81.1609 212.15 81.2337 212.588C81.1401 213.484 81.0871 214.384 81.0392 215.284C79.9984 213.893 78.1226 213.091 76.855 214.732C76.3434 215.446 76.0835 216.277 75.8765 217.125C75.4014 217.254 75.0073 217.68 75.1695 218.267C73.6056 220.538 68.9347 220.882 66.7002 219.423C65.99 218.99 65.7747 218.126 65.2257 217.538C64.6174 216.791 63.7523 216.31 62.8299 216.055C62.517 215.876 61.9763 215.791 61.3472 215.799C61.4158 214.7 61.4979 213.642 61.5749 212.438C61.603 212.081 61.6726 211.623 61.6394 211.202C64.2275 210.995 66.9684 210.853 69.5805 210.975C72.8049 210.975 76.0221 211.149 79.2393 211.311C80.04 211.4 80.8885 211.429 81.7536 211.461Z" style="fill: var(--primary-fixed);"/>
</g>
<g id="Group_27">
<path id="vec25" d="M109.703 230.912C109.228 230.859 108.752 230.827 108.277 230.831C92.7526 231.192 77.2365 232.181 61.713 232.785C60.6482 232.72 59.6084 233.004 58.5603 233.004C58.2192 232.915 57.8657 232.996 57.614 233.21C57.639 232.274 57.4685 231.175 57.5579 230.588C57.6099 227.422 57.6629 224.243 57.5496 221.077C57.5901 220.445 57.7326 219.764 58.2234 219.317C58.1256 219.415 57.9884 219.46 57.8698 219.513C57.8657 219.513 57.8657 219.508 57.8657 219.508C58.3492 219.313 58.5644 219.005 58.5977 218.69C58.7152 218.616 58.8202 218.519 58.9097 218.405C59.2757 218.199 59.6698 218.041 60.0795 217.935C60.1491 217.948 60.2178 217.956 60.2874 217.956C60.4777 217.956 60.6649 217.907 60.8271 217.814C61.5258 217.757 62.2402 217.871 62.8943 218.195C63.9341 218.641 64.2273 219.949 65.0477 220.663C66.1031 221.486 67.3946 222.09 68.7318 222.244C69.0032 222.269 69.3078 222.281 69.6333 222.281C71.3553 222.281 73.6543 221.924 75.2421 220.984C75.5998 225.419 82.4605 225.451 86.0146 225.8C89.2432 226.039 92.4646 226.484 95.7016 226.699C95.9418 226.744 96.1809 226.769 96.4086 226.769C97.5337 226.769 98.4072 226.225 97.9237 225.11C98.2034 225.143 98.4841 225.184 98.7524 225.253C102.631 226.152 107.611 227.207 109.703 230.912Z" style="fill: var(--secondary-fixed);"/>
</g>
<g id="Group_28">
<path id="vec26" d="M40.0187 232.444C39.2752 232.371 38.4673 232.4 37.886 232.281C34.2144 231.658 30.4773 231.556 26.7776 231.143C25.3957 231.09 23.9951 230.843 22.6184 230.806C22.4104 230.49 22.1993 230.178 22.0007 229.857C18.8282 223.44 15.165 217.291 11.6639 211.047C10.8955 209.815 10.2009 208.599 9.57593 207.27C8.16177 204.456 6.07382 202.06 4.51825 199.34C5.27004 197.913 6.56981 196.867 7.47549 195.542C8.19089 194.633 8.75135 193.138 9.97729 192.862C11.3218 194.095 10.1073 195.967 10.8143 197.439C11.4029 198.78 12.4999 199.648 13.4389 200.783C14.5962 202.072 16.0706 202.879 17.7967 203.061C18.0525 203.127 18.3083 203.155 18.56 203.155C18.6494 203.155 18.7388 203.151 18.8282 203.142C18.7107 203.386 18.6899 203.674 18.8043 203.937C19.6445 206.528 19.9169 209.296 20.9567 211.834C22.2971 215.158 22.5487 219.561 25.4976 221.899C25.7004 222.005 25.9156 222.071 26.135 222.09C26.3024 222.382 26.5988 222.589 26.997 222.569C27.3537 222.541 27.6584 222.318 28.0244 222.309C33.0727 222.071 39.9085 227.117 40.0187 232.444Z" style="fill: var(--secondary-fixed);"/>
</g>
<g id="Group_29">
<path id="vec27" d="M25.3799 213.148C25.4735 214.737 27.8089 219.188 26.3511 220.145C24.4659 217.911 24.1249 214.798 23.1131 212.122C21.8175 209.15 21.7323 205.725 20.3836 202.83C20.863 202.243 21.3101 201.517 22.0692 201.266C22.1586 201.258 22.248 201.258 22.3333 201.258C23.4833 201.258 24.6281 201.744 25.2219 202.774C25.5141 203.127 25.3799 203.608 25.2541 204.014C24.8319 205.064 24.3401 206.118 24.5429 207.282C24.8642 209.231 24.9661 211.214 25.3799 213.148Z" style="fill: var(--secondary-fixed-dim);"/>
</g>
<g id="Group_30">
<path id="vec28" d="M28.7756 201.431C28.6581 201.565 28.5521 201.703 28.4585 201.833C28.2474 202.214 27.7889 202.616 27.3459 203.037C27.0048 199.834 21.9929 197.869 19.7667 200.479C19.6242 200.642 19.4454 200.827 19.2675 201.023C19.2301 201.031 19.1896 201.038 19.149 201.046C17.0777 201.484 15.2455 200.062 14.0477 198.477C13.4217 197.707 12.3943 196.997 12.5451 195.882C12.8456 194.285 12.516 192.878 11.838 191.97C12.3299 191.447 12.9018 190.989 13.4591 190.535C13.6328 190.369 13.8522 190.243 14.0685 190.117C15.5866 191.525 17.1796 192.858 18.7716 194.171C21.9524 196.761 25.2829 199.23 28.7756 201.431Z" style="fill: var(--primary-fixed);"/>
</g>
<g id="Group_31">
<path id="vec29" d="M94.5401 224.66C91.1243 224.344 87.7168 223.943 84.2917 223.692C82.0862 223.497 79.7674 223.31 77.8749 222.057C76.8018 221.474 77.355 220.526 77.2812 219.675C77.355 219.499 77.4039 219.309 77.4195 219.123C77.7158 218.474 77.9155 215.543 78.8659 215.867C80.2509 216.921 79.9951 218.884 80.6159 220.404C80.7833 220.858 81.1441 221.053 81.5101 221.053C81.689 221.053 81.8668 221.008 82.0259 220.923C82.6591 221.101 83.3943 221.19 83.8581 221.43C87.4766 222.427 91.0879 223.071 94.5401 224.66Z" style="fill: var(--secondary-fixed-dim);"/>
</g>
</g>
<g id="Group_32">
<path id="vec30" fill-rule="evenodd" clip-rule="evenodd" d="M221.176 168.258L222.419 174.958C222.419 174.958 230.315 160.179 264.193 151.382L262.204 147.908C262.204 147.908 250.959 149.721 236.344 157.586C221.728 165.452 221.176 168.258 221.176 168.258Z" style="fill: var(--secondary-fixed-dim);"/>
</g>
</g>
<g id="Outlines">
<g id="Group_33">
<g id="Group_34">
<path id="vec31" d="M349.95 102.566C351.631 103.348 349.677 105.53 349.328 106.681C343.24 118.603 330.242 126.399 316.916 126.683C304.831 125.56 295.851 126.654 288.869 137.689C288.381 138.403 288.198 139.671 287.147 139.671H287.126C286.237 139.635 285.798 138.406 286.545 137.863C286.996 136.931 287.548 136.051 288.142 135.199C291.293 130.696 295.92 126.942 301.229 125.348C306.281 123.955 311.634 124.372 316.773 124.693C324.235 124.506 331.721 121.911 337.626 117.431C342.496 113.743 346.464 108.866 348.69 103.206C348.869 102.691 349.426 102.396 349.95 102.566Z" style="fill: var(--il-outline);"/>
</g>
<g id="Group_35">
<path id="vec32" d="M87.1558 141.126C87.8545 140.713 88.8174 141.47 88.5533 142.261C88.338 142.922 87.8098 143.109 87.2202 143.109C86.6275 143.109 85.9652 142.918 85.5025 142.821C83.1265 142.253 80.763 141.613 78.4192 140.919C77.9149 140.749 77.5863 140.255 77.7361 139.72C77.8744 139.225 78.4348 138.865 78.9433 139.035C81.6603 139.788 84.3732 140.628 87.1558 141.126Z" style="fill: var(--il-outline);"/>
</g>
<g id="Group_36">
<path id="vec33" d="M61.3187 112.214C63.6707 112.453 65.8065 106.75 64.3653 105.253C64.1823 105.168 64.0035 105.157 63.8288 105.185C63.7518 105.27 63.6624 105.347 63.5605 105.408C62.9106 106.008 62.5248 106.871 62.163 107.645C61.5017 109.093 61.1076 110.637 61.144 112.218C61.2012 112.222 61.2573 112.222 61.3187 112.214ZM64.67 103.211C67.9756 104.423 66.8588 109.032 65.4093 111.533C64.67 113.085 63.1061 114.18 61.3831 114.208C60.9974 120.115 55.165 129.711 49.0155 129.033C44.1294 126.747 48.3407 118.055 49.8807 114.504C51.8303 110.65 59.7548 99.1531 64.67 103.211Z" style="fill: var(--il-outline);"/>
</g>
<g id="Group_37">
<path id="vec34" d="M183.113 69.5649C183.113 69.0164 182.668 68.5718 182.118 68.5718C181.569 68.5718 181.123 69.0164 181.123 69.5649C181.123 70.1134 181.569 70.5581 182.118 70.5581C182.668 70.5581 183.113 70.1134 183.113 69.5649Z" style="fill: var(--il-outline);"/>
</g>
<g id="Group_38">
<path id="vec35" d="M186.203 64.5707C186.203 64.0222 185.758 63.5775 185.208 63.5775C184.659 63.5775 184.213 64.0222 184.213 64.5707C184.213 65.1192 184.659 65.5638 185.208 65.5638C185.758 65.5638 186.203 65.1192 186.203 64.5707Z" style="fill: var(--il-outline);"/>
</g>
<g id="Group_39">
<path id="vec36" d="M185.912 58.7832C185.912 58.2324 185.464 57.7859 184.913 57.7859C184.361 57.7859 183.913 58.2324 183.913 58.7832C183.913 59.334 184.361 59.7805 184.913 59.7805C185.464 59.7805 185.912 59.334 185.912 58.7832Z" style="fill: var(--il-outline);"/>
</g>
<g id="Group_40">
<path id="vec37" d="M189.037 60.1367C189.037 59.5927 188.595 59.1518 188.05 59.1518C187.505 59.1518 187.064 59.5927 187.064 60.1367C187.064 60.6806 187.505 61.1215 188.05 61.1215C188.595 61.1215 189.037 60.6806 189.037 60.1367Z" style="fill: var(--il-outline);"/>
</g>
<g id="Group_41">
<path id="vec38" d="M187.832 54.9313C187.832 54.3897 187.392 53.9506 186.849 53.9506C186.306 53.9506 185.866 54.3897 185.866 54.9313C185.866 55.4729 186.306 55.912 186.849 55.912C187.392 55.912 187.832 55.4729 187.832 54.9313Z" style="fill: var(--il-outline);"/>
</g>
<g id="Group_42">
<path id="vec39" d="M188.152 50.1002C188.152 49.5494 187.705 49.1029 187.153 49.1029C186.601 49.1029 186.153 49.5494 186.153 50.1002C186.153 50.6511 186.601 51.0976 187.153 51.0976C187.705 51.0976 188.152 50.6511 188.152 50.1002Z" style="fill: var(--il-outline);"/>
</g>
<g id="Group_43">
<path id="vec40" d="M180.939 73.9058C180.939 73.3664 180.501 72.9292 179.961 72.9292C179.42 72.9292 178.982 73.3664 178.982 73.9058C178.982 74.4451 179.42 74.8823 179.961 74.8823C180.501 74.8823 180.939 74.4451 180.939 73.9058Z" style="fill: var(--il-outline);"/>
</g>
<g id="Group_44">
<path id="vec41" d="M182.631 82.9854C182.631 82.4461 182.193 82.0089 181.652 82.0089C181.112 82.0089 180.674 82.4461 180.674 82.9854C180.674 83.5248 181.112 83.962 181.652 83.962C182.193 83.962 182.631 83.5248 182.631 82.9854Z" style="fill: var(--il-outline);"/>
</g>
<g id="Group_45">
<path id="vec42" d="M178.903 87.9471C178.903 87.4009 178.46 86.9581 177.912 86.9581C177.365 86.9581 176.921 87.4009 176.921 87.9471C176.921 88.4933 177.365 88.9361 177.912 88.9361C178.46 88.9361 178.903 88.4933 178.903 87.9471Z" style="fill: var(--il-outline);"/>
</g>
<g id="Group_46">
<path id="vec43" d="M26.3507 220.145C27.8085 219.188 25.4731 214.737 25.3795 213.147C24.9656 211.214 24.8637 209.232 24.5435 207.282C24.3397 206.118 24.8315 205.064 25.2537 204.014C25.3795 203.609 25.5136 203.126 25.2214 202.773C24.6287 201.744 23.4829 201.257 22.3339 201.257C22.2486 201.257 22.1592 201.257 22.0698 201.266C21.3096 201.517 20.8636 202.243 20.3842 202.831C21.7329 205.725 21.8181 209.151 23.1137 212.122C24.1244 214.797 24.4665 217.911 26.3507 220.145ZM28.4584 201.833C28.552 201.704 28.658 201.565 28.7755 201.432C25.2828 199.23 21.9512 196.762 18.7714 194.171C17.1795 192.857 15.5865 191.524 14.0673 190.118C13.8521 190.243 13.6337 190.369 13.459 190.535C12.9017 190.989 12.3298 191.447 11.8379 191.97C12.5159 192.878 12.8455 194.285 12.545 195.883C12.3942 196.997 13.4216 197.706 14.0476 198.477C15.2454 200.062 17.0776 201.485 19.1489 201.047C19.1895 201.038 19.23 201.031 19.2674 201.023C19.4453 200.828 19.6241 200.641 19.7666 200.479C21.9928 197.869 27.0047 199.834 27.3458 203.037C27.7888 202.616 28.2473 202.214 28.4584 201.833ZM37.8864 232.282C38.4666 232.399 39.2756 232.371 40.0181 232.444C39.9089 227.117 33.0731 222.07 28.0238 222.309C27.6588 222.317 27.3541 222.54 26.9964 222.568C26.5982 222.589 26.3018 222.383 26.1354 222.091C25.916 222.07 25.7008 222.006 25.498 221.9C22.5491 219.561 22.2975 215.158 20.9571 211.834C19.9173 209.296 19.6449 206.527 18.8037 203.937C18.6903 203.673 18.7101 203.386 18.8286 203.143C18.7392 203.151 18.6498 203.154 18.5604 203.154C18.3087 203.154 18.0519 203.126 17.7961 203.062C16.07 202.879 14.5955 202.072 13.4382 200.783C12.5003 199.649 11.4033 198.781 10.8148 197.439C10.1077 195.968 11.3222 194.094 9.9777 192.862C8.75072 193.138 8.19025 194.634 7.4759 195.542C6.57022 196.867 5.27044 197.914 4.51866 199.34C6.07422 202.061 8.16218 204.456 9.57529 207.269C10.2013 208.6 11.6632 211.048 11.6632 211.048C11.6632 211.048 18.8286 223.44 22.0001 229.858C22.1997 230.178 22.4108 230.49 22.6177 230.806C23.9945 230.843 25.3961 231.09 26.777 231.143C30.4777 231.557 34.2138 231.657 37.8864 232.282ZM81.2333 212.588C81.1606 212.15 81.3924 211.692 81.7533 211.461C80.8881 211.429 80.0396 211.401 79.239 211.311C76.0228 211.149 72.8056 210.975 69.5801 210.975C66.9691 210.853 64.2271 210.995 61.64 211.201C61.6723 211.624 61.6026 212.081 61.5745 212.438C61.4976 213.642 61.4165 214.7 61.3468 215.799C61.9769 215.79 62.5166 215.876 62.8296 216.054C63.7519 216.309 64.617 216.792 65.2264 217.538C65.7744 218.126 65.9896 218.989 66.7008 219.423C68.9344 220.882 73.6052 220.537 75.1691 218.268C75.0069 217.68 75.401 217.254 75.8762 217.124C76.0831 216.277 76.3431 215.446 76.8547 214.733C78.1222 213.091 79.9991 213.893 81.0389 215.284C81.0878 214.384 81.1398 213.485 81.2333 212.588ZM82.7442 150.539C82.7442 150.535 82.7442 150.531 82.7411 150.528C78.5246 149.563 74.4506 148.01 70.4369 146.352C64.8032 144.228 59.3202 141.573 54.5922 137.815C50.0346 144.561 46.3391 151.853 41.0787 158.112C39.5439 160.228 38.4344 162.705 36.4723 164.489C34.1899 166.61 31.4032 168.081 28.8525 169.86C26.123 171.624 23.983 173.736 21.5332 175.755C18.9659 177.664 16.2333 179.059 13.9009 181.235C12.9142 182.139 11.6674 182.662 10.5579 183.4C13.2552 187.045 16.8623 190.073 20.3312 192.919C26.2041 197.682 32.4596 201.894 39.4056 204.804C39.572 204.736 39.7383 204.719 39.8922 204.74C40.4205 204.185 41.3261 203.743 41.7452 203.244C43.829 201.659 45.6081 199.766 47.6025 198.08C53.6012 193.895 58.2232 188.297 63.6781 183.51C67.0575 180.316 69.6498 176.339 71.7856 172.256C76.0062 165.259 79.2514 157.878 82.7442 150.539ZM84.2925 223.692C87.7166 223.943 91.1241 224.344 94.5399 224.66C91.0877 223.072 87.4764 222.427 83.8578 221.43C83.3941 221.19 82.6589 221.101 82.0257 220.923C81.8676 221.009 81.6888 221.053 81.5099 221.053C81.1439 221.053 80.7831 220.858 80.6167 220.405C79.9949 218.884 80.2507 216.922 78.8657 215.867C77.9153 215.543 77.7156 218.474 77.4193 219.123C77.4037 219.31 77.3548 219.5 77.281 219.674C77.3548 220.526 76.8027 221.474 77.8747 222.058C79.7672 223.31 82.087 223.497 84.2925 223.692ZM88.9509 196.563C89.581 181.592 89.7557 166.657 89.4063 151.707C89.3658 151.638 89.3325 151.569 89.3169 151.496C89.2722 151.5 89.2316 151.496 89.1911 151.496C89.1911 151.496 89.2878 151.496 89.3127 151.492C87.753 151.403 86.2172 151.213 84.698 150.933C84.5524 151.598 84.122 152.258 83.8776 152.866C82.4073 155.777 81.0306 158.737 79.6175 161.68C76.3722 168.531 72.6996 175.312 68.2606 181.454C66.2412 184.074 63.6375 186.153 61.2501 188.415C59.9982 189.595 58.8086 190.835 57.5983 192.059C58.3449 192.944 57.5047 195.379 57.5816 196.349C57.4028 199.133 57.2239 201.931 57.1272 204.715C56.9973 206.524 56.8787 208.162 56.729 209.88C58.1587 209.459 59.7424 209.43 61.1929 209.285C63.3256 209.11 65.4572 208.936 67.5982 208.968C72.1235 209.009 76.6353 209.183 81.1439 209.475C83.2194 209.653 85.3885 209.552 87.3589 210.314C87.5378 210.395 87.7 210.48 87.8424 210.569C87.8788 209.823 88.1024 208.972 88.0046 208.388C88.3301 204.452 88.6504 200.508 88.9509 196.563ZM108.277 230.83C108.752 230.827 109.227 230.859 109.703 230.912C107.61 227.206 102.631 226.153 98.7522 225.252C98.4839 225.184 98.2042 225.143 97.9235 225.111C98.407 226.225 97.5335 226.768 96.4084 226.768C96.1807 226.768 95.9416 226.744 95.7014 226.7C92.4644 226.485 89.2431 226.039 86.0144 225.8C82.4603 225.451 75.5996 225.419 75.2429 220.984C73.6541 221.924 71.3551 222.281 69.6331 222.281C69.3077 222.281 69.004 222.268 68.7316 222.245C67.3954 222.091 66.104 221.487 65.0475 220.664C64.2271 219.95 63.9349 218.64 62.8951 218.195C62.2411 217.87 61.5257 217.757 60.8269 217.813C60.6647 217.907 60.4775 217.955 60.2872 217.955C60.2176 217.955 60.1489 217.947 60.0803 217.936C59.6696 218.04 59.2755 218.199 58.9095 218.406C58.8211 218.519 58.715 218.616 58.5975 218.689C58.5643 219.006 58.349 219.314 57.8665 219.508C57.8665 219.508 57.8665 219.512 57.8697 219.512C57.9882 219.459 58.1265 219.414 58.2232 219.318C57.7324 219.763 57.5899 220.445 57.5494 221.077C57.6627 224.243 57.6097 227.421 57.5577 230.587C57.4683 231.175 57.6388 232.274 57.6139 233.21C57.8665 232.995 58.219 232.914 58.5611 233.003C59.6082 233.003 60.6481 232.72 61.7128 232.784C77.2373 232.18 92.7524 231.191 108.277 230.83ZM108.797 61.4637C109.106 60.9531 112.526 55.2328 110.649 56.3276C110.011 56.7811 109.451 57.3416 108.923 57.9206C108.654 58.2932 108.232 58.6461 107.778 58.671C107.115 59.4856 106.498 60.3574 105.897 61.2291C106.178 61.4398 106.344 61.7885 106.23 62.2337C105.986 63.065 105.726 63.9004 105.613 64.7638C106.839 63.835 107.985 62.7775 108.797 61.4637ZM115.166 117.476C115.104 117.456 115.044 117.428 114.979 117.4C109.553 113.827 105.247 108.764 100.807 104.074C98.4798 101.67 95.8438 99.5496 93.8006 96.8824C91.802 94.0856 89.581 91.3811 87.7322 88.4867C87.6792 88.4462 87.6272 88.4016 87.5783 88.3528C87.5211 88.4421 87.4639 88.5313 87.4078 88.6164C84.2634 92.4272 81.8718 96.7527 78.8293 100.644C75.6849 106.547 71.2376 111.594 67.6221 117.204C65.713 119.69 64.5879 122.774 62.4157 125.045C61.0307 126.225 59.133 127.006 58.1743 128.539C58.1463 128.709 58.1504 128.884 58.1868 129.054C58.6495 129.037 59.1174 129.305 59.1985 129.841C61.3146 131.867 64.0722 132.918 66.6239 134.255C68.272 135.155 70.0023 135.917 71.798 136.473C72.919 136.821 72.554 138.411 71.5422 138.411C71.4486 138.411 71.3436 138.394 71.2376 138.366C69.5843 137.835 62.5936 134.944 59.1414 132.386C58.3573 133.562 57.4319 134.645 56.5335 135.735C56.363 135.925 56.181 136.172 55.9855 136.416C61.6879 140.948 68.5361 143.6 75.2991 146.113C78.1097 147.309 80.99 148.33 84.0284 148.755C86.3274 148.967 88.8656 150.09 91.0835 149.189C91.0835 148.521 91.6159 147.909 92.3178 148.063C92.3469 148.066 92.3792 148.075 92.4031 148.083C92.8377 146.939 93.0374 145.687 93.1829 144.487C92.7566 144.338 92.3261 144.187 91.8956 144.042C91.384 143.871 91.0794 143.332 91.2416 142.809C91.5795 141.856 92.6672 142.132 93.785 142.554C94.1177 142.513 94.4869 142.614 94.7874 142.926C94.804 142.939 94.8206 142.955 94.8362 142.971C95.3156 143.158 95.7502 143.307 96.0799 143.319C97.623 143.822 99.7026 142.955 99.9501 141.26C99.7026 139.919 98.8094 138.881 98.6992 137.511C98.565 136.448 99.1338 135.589 99.7879 134.815C100.93 133.388 102.371 131.936 103.63 130.704C105.746 128.418 107.177 125.621 109.272 123.318C111.1 121.234 113.176 119.401 115.166 117.476ZM141.315 40.218C143.927 32.9773 144.086 24.8172 140.982 17.7425C140.938 17.5723 140.95 17.4021 140.995 17.2486C134.752 11.0737 124.013 7.84305 116.254 11.0664C109.727 14.0542 105.239 19.924 102.074 26.1663C103.955 26.7142 105.958 26.9415 107.863 27.4075C111.332 28.19 114.667 29.454 118.042 30.5572C124.854 33.2451 132.169 35.3289 138.651 38.6405C139.533 39.176 140.43 39.7064 141.315 40.218ZM142.497 62.7817C142.534 62.8014 142.571 62.8221 142.608 62.8418C141.287 61.6297 135.638 65.866 136.734 67.1227C137.038 67.2161 137.36 67.0989 137.628 66.9567C138.115 66.718 138.72 66.9038 138.968 67.3905C138.98 67.4268 138.992 67.4673 139 67.5036C139.914 66.7823 140.808 66.0361 141.681 65.262C142.035 64.9537 142.372 64.6466 142.672 64.3342C142.327 63.9689 142.258 63.3566 142.648 62.9602C142.612 62.8865 142.567 62.8221 142.497 62.7817ZM145.54 88.8842C145.508 88.7794 145.495 88.6611 145.499 88.5313C143.878 88.7462 142.473 89.9344 141.6 91.268C141.543 91.3448 141.551 91.4257 141.579 91.5067C143.111 90.6764 144.566 89.7684 145.54 88.8842ZM150.673 48.6293C149.634 47.2916 148.25 46.4603 146.823 45.6903C146.552 45.492 146.117 45.2928 145.646 45.0821C145.638 45.0946 145.633 45.1029 145.625 45.1101C145.58 45.078 145.536 45.0458 145.491 45.0136C145.235 44.831 144.963 44.6608 144.691 44.4989C144.683 44.4947 144.675 44.4906 144.666 44.4823C144.476 44.3723 144.289 44.2633 144.098 44.1533C144.046 44.1211 143.988 44.089 143.935 44.0568C143.793 43.9717 143.647 43.8866 143.505 43.7973C143.375 43.7205 143.245 43.6385 143.115 43.5576C142.555 43.2016 141.998 42.8405 141.434 42.4918C141.381 42.4596 141.328 42.4306 141.275 42.3984C141.165 42.3299 141.052 42.2604 140.938 42.2002C140.852 42.1472 140.763 42.0943 140.674 42.0455C140.524 41.9604 140.373 41.8753 140.223 41.7944C140.211 41.7861 140.198 41.7819 140.187 41.7747C140.179 41.7705 140.17 41.7664 140.166 41.7622C140.142 41.7498 140.117 41.7373 140.097 41.7259C140.053 41.7052 140.012 41.6813 139.967 41.6564C134.931 38.6001 129.248 36.9749 123.83 34.781C116.449 31.9561 108.988 29.4063 101.201 28.0115C101.035 28.4411 100.824 28.9476 100.544 29.3243C101.802 30.306 103.184 31.1248 104.605 31.8783C106.006 31.2701 109.918 32.6608 110.913 32.9047C119.212 35.5884 127.347 38.7983 135.162 42.6745C137.441 44.1502 140.406 44.9763 142.071 47.1857C142.107 47.2999 142.132 47.4088 142.137 47.5105C144.926 48.1789 147.77 48.5971 150.673 48.6293ZM148.216 80.4034C148.062 80.1885 148.005 79.9093 148.099 79.5928C146.137 79.2275 144.09 80.9472 143.034 82.4509C143.375 82.7789 143.867 82.9978 144.346 82.9086C144.577 82.8847 144.801 82.9574 144.979 83.0871C146.121 82.2683 147.213 81.3882 148.216 80.4034ZM149.87 68.8901C149.809 68.8216 149.74 68.7604 149.667 68.7043C147.859 68.1045 144.845 70.6097 143.797 71.9474C143.891 72.2224 144.167 72.3729 144.431 72.4456C144.581 72.4985 144.703 72.567 144.796 72.6562C145.028 72.3117 145.463 72.101 145.877 72.2027C146.844 71.4327 147.803 70.6377 148.773 69.8106C149.102 69.5107 149.492 69.2108 149.87 68.8901ZM150.483 50.6364C150.345 50.6436 150.202 50.6478 150.053 50.6478C149.423 50.6478 148.683 50.5876 147.814 50.462C138.025 49.554 129.244 44.8797 120.19 41.454C115.247 39.2207 110.292 37.0029 105.483 34.506C103.001 33.1434 100.284 32.0288 98.3134 29.9366C97.7124 29.3367 98.1553 28.4982 98.7803 28.3031C98.8416 28.2139 98.9144 28.1329 99.008 28.0675C99.4062 27.1968 99.7671 26.3002 100.214 25.4492C103.541 18.991 108.159 12.7528 114.874 9.53777C121.567 6.20956 131.523 8.00909 138.659 12.7487C136.161 9.97986 133.139 7.70918 129.764 6.26665C117.403 1.19911 104.661 10.4822 98.3259 20.6857C96.7495 23.0083 95.6327 25.5301 94.4182 28.0437C94.3371 28.327 94.1822 28.6518 93.9794 28.9351C93.9222 29.3616 93.7028 29.7789 93.5531 30.1763C92.5299 32.5601 91.3113 35.0768 90.2226 37.3838C88.0213 42.0704 86.2785 46.9833 84.0076 51.6368C82.4437 55.5047 81.0347 59.5137 79.1381 63.2113C79.1787 63.284 79.215 63.3566 79.2473 63.4261C82.5331 68.3349 86.4283 72.815 90.9369 76.6414C91.4932 77.1405 92.0464 77.6594 92.6433 78.1129C93.0821 77.4155 93.5323 76.7264 93.9919 76.0457C98.6181 69.0644 102.42 61.3464 108.264 55.2732C111.128 52.4847 117.452 50.9155 119.626 55.2286C120.32 57.738 119.004 60.2837 118.143 62.599C117.083 64.9745 116.018 67.3666 114.849 69.6975C121.287 65.8618 127.567 61.748 134.33 58.4883C137.441 57.0447 141.47 54.5603 144.618 57.1952C145.073 57.6373 145.434 58.1562 145.698 58.7197C147.36 56.0682 148.806 53.2827 150.483 50.6364ZM151.141 67.3095C151.198 67.1518 151.238 66.9847 151.255 66.8114C150.666 64.0052 149.346 61.9908 146.222 63.2476C146.096 63.312 145.966 63.3566 145.832 63.3732C145.532 64.1235 145.061 64.8085 144.419 65.3554C140.102 69.985 134.43 72.9489 129.305 76.5563C127.278 77.8338 125.227 79.0781 123.118 80.229C122.997 80.2985 122.858 80.3307 122.721 80.3307C122.351 80.3307 121.978 80.0993 121.815 79.763C121.454 79.0054 122.152 78.4616 122.766 78.1939C127.509 75.2995 132.367 72.4373 136.864 69.134C136.295 69.1091 135.751 68.9513 135.426 68.6514C131.994 65.5826 139.919 59.5137 143.051 60.8763C143.537 60.9811 143.944 61.3298 144.219 61.776C144.391 60.8918 144.191 59.9319 143.444 58.8329C141.401 56.9845 138.574 58.727 136.486 59.6434C129.094 63.0567 122.298 67.5482 115.32 71.7077C114.219 72.1093 112.753 73.9338 111.652 72.9043C111.518 72.7496 111.449 72.5836 111.424 72.4175C111.364 72.182 111.396 71.9184 111.563 71.6517C113.387 68.3878 114.983 64.8043 116.474 61.4107C117.051 59.6112 118.317 57.4993 117.603 55.6302C116.579 54.5115 114.674 54.3413 113.305 54.7471C113.114 54.7948 112.928 54.8519 112.745 54.9214C113.57 56.0319 113.022 58.0711 112.238 59.303C111.092 61.6702 108.204 66.8394 105.141 66.8394C104.987 66.8394 104.837 66.827 104.682 66.799C103.708 66.333 103.521 65.4488 103.626 64.4878C100.255 69.7131 97.05 75.0442 93.6508 80.2456C92.1837 82.5599 90.73 84.8866 89.2805 87.2144C89.6288 87.7001 89.9096 88.3123 90.2267 88.7015C91.7376 90.8944 93.4398 92.9585 94.9548 95.1514C97.4316 98.5367 100.848 101.066 103.622 104.192C104.686 105.408 105.779 106.599 106.913 107.755C107.627 107.285 108.748 107.018 109.289 106.592C112.911 104.634 116.531 102.663 120.312 101.017C125.186 98.9373 129.971 96.6354 134.898 94.6688C135.604 94.3533 137.624 93.5096 139.8 92.4314C138.513 89.5286 144.123 85.6214 146.746 86.8169C146.682 86.2575 146.19 85.7583 145.105 85.3619C144.057 86.0261 143.009 86.6747 142.051 87.3721C139.354 89.0139 136.685 90.7325 133.927 92.2529C133.013 92.5611 131.697 93.9154 130.665 93.9154C130.365 93.9154 130.089 93.8012 129.853 93.5138C129.118 92.1107 131.206 91.7018 132.039 91.0656C133.659 90.1534 135.048 89.375 136.571 88.3933C138.578 87.1002 140.694 85.9005 142.733 84.5991C137.81 82.3004 144.999 77.0876 148.046 77.5453C148.553 77.566 149.122 77.8006 149.573 78.1576C149.784 76.7306 149.126 75.1822 147.636 74.655C147.262 74.4402 146.803 74.408 146.352 74.3717C144.951 75.4292 143.529 76.4545 142.124 77.4685C138.338 80.6628 133.81 82.7062 129.683 85.3982C128.764 85.7584 127.53 87.3513 126.498 87.3513C126.214 87.3513 125.946 87.2341 125.706 86.9342C125.398 86.4641 125.564 85.8922 125.994 85.5726C128.07 84.0356 130.231 82.6045 132.514 81.3923C135.519 79.597 138.557 77.8857 141.251 75.6399C141.969 75.1459 142.664 74.6509 143.343 74.1486C142.482 73.7345 141.835 72.8877 141.824 71.9111C142.011 70.0908 143.984 69.0852 145.292 68.0515C146.884 66.8519 149.671 65.9801 151.141 67.3095ZM163.594 58.1116C163.542 58.1438 163.489 58.1676 163.432 58.1884C163.375 58.4924 163.176 58.7716 162.876 58.8899C159.297 60.3895 155.914 62.3146 152.352 63.8558C153.326 65.6553 153.741 67.8077 152.181 69.3768C150.986 70.5807 149.707 71.7077 148.379 72.7818C149.358 73.2114 150.187 73.9255 150.763 74.8014C151.755 73.7791 154.447 73.0942 155.248 72.486C157.351 71.4441 159.492 70.4675 161.649 69.5428C161.986 69.3851 162.38 69.4536 162.66 69.6767C162.064 65.7736 162.209 61.7843 163.594 58.1116ZM185.162 46.396C183.274 47.2833 181.414 48.2484 179.521 49.1316C175.032 51.4106 170.853 54.1628 166.462 56.5591C166.328 56.9887 166.052 57.4297 165.893 57.7992C162.916 64.2086 164.565 71.3631 166.884 77.6636C168.326 82.0534 170.442 86.27 173.53 89.6905C173.57 89.4197 173.627 89.1519 173.7 88.9008C174.419 84.6272 175.032 80.3473 176.008 76.1183C176.503 72.8306 180.329 53.9801 185.162 46.396ZM189.773 54.0943C189.87 51.8112 189.854 49.5249 189.708 47.2428C189.538 47.5344 189.221 47.7337 188.863 47.7337C188.33 47.7337 187.884 47.2874 187.884 46.7561C187.884 46.2258 188.33 45.7795 188.863 45.7795C189.095 45.7795 189.31 45.8646 189.476 46.0026C189.485 45.958 189.492 45.9134 189.5 45.8729C189.496 45.8729 189.496 45.8688 189.496 45.8688C189.489 45.8605 189.485 45.8522 189.481 45.8397C189.221 45.7671 189.009 45.5771 188.884 45.3333C187.022 46.0514 185.272 50.1538 184.075 53.3761C184.602 53.3969 185.036 53.8421 185.036 54.3735C185.036 54.9173 184.582 55.3708 184.037 55.3708C183.81 55.3708 183.602 55.294 183.432 55.1601C183.214 55.7766 183.026 56.2996 182.88 56.6846C182.43 57.9611 182.015 59.2459 181.629 60.5359C182.04 60.6614 182.34 61.0465 182.34 61.4886C182.34 62.0313 181.885 62.4859 181.341 62.4859C181.247 62.4859 181.158 62.4734 181.073 62.4485C180.207 65.5702 179.484 68.724 178.827 71.8986C179.054 72.0771 179.204 72.3522 179.204 72.6604C179.204 73.1066 178.887 73.4917 178.473 73.6048C178.1 75.4583 177.742 77.319 177.384 79.1756C177.214 79.872 177.067 80.5735 176.937 81.2751C177.112 81.0395 177.397 80.8859 177.709 80.8859C178.241 80.8859 178.688 81.3322 178.688 81.8625C178.688 82.3938 178.241 82.8401 177.709 82.8401C177.278 82.8401 176.905 82.5485 176.779 82.1593C176.455 84.0232 176.206 85.9047 175.897 87.7779C175.812 88.7866 175.264 90.1534 175.435 91.2234C176.04 91.2317 176.588 91.5108 177.1 91.8637C177.798 91.268 178.322 90.3921 178.891 89.7238C181.088 86.655 182.648 83.4607 184.03 80.0266C184.094 79.8606 184.156 79.6976 184.216 79.5316C184.045 79.6738 183.826 79.7589 183.591 79.7589C183.05 79.7589 182.603 79.3126 182.603 78.774C182.603 78.2344 183.05 77.7892 183.591 77.7892C184.079 77.7892 184.488 78.1493 184.565 78.6163C185.166 76.9942 185.727 75.3524 186.239 73.6982C186.109 73.7636 185.963 73.7999 185.809 73.7999C185.272 73.7999 184.821 73.3495 184.821 72.815C184.821 72.2795 185.272 71.8291 185.809 71.8291C186.161 71.8291 186.479 72.0242 186.653 72.3117C187.056 70.9335 187.425 69.547 187.754 68.1522C187.226 68.1408 186.783 67.6904 186.783 67.159C186.783 66.6204 187.239 66.1659 187.778 66.1659C187.925 66.1659 188.062 66.1991 188.185 66.2593C188.936 62.7484 189.448 59.1898 189.683 55.6178C189.521 55.7402 189.321 55.8087 189.106 55.8087C188.567 55.8087 188.115 55.3583 188.115 54.8197C188.115 54.2801 188.567 53.8307 189.106 53.8307C189.362 53.8307 189.598 53.9314 189.773 54.0943ZM259.599 147.507C259.924 147.443 260.31 147.281 260.708 147.126C257.819 140.189 255.643 132.958 254.286 125.584C251.228 111.492 250.33 96.7735 252.694 82.5194C252.848 81.7369 253.027 80.9586 253.218 80.1844C251.297 83.8613 249.302 87.5215 246.536 90.6474C240.273 97.7739 232.231 105.469 222.158 105.469C222.035 105.469 221.913 105.469 221.788 105.465C217.096 105.168 214.144 100.847 213.729 96.4735C213.429 93.6757 214.14 90.8549 214.115 88.0405C215.67 77.9749 221.824 69.7338 229.432 63.0733C223.993 65.2505 218.221 66.5592 212.608 66.5592C212.112 66.5592 211.621 66.5519 211.13 66.527C203.448 66.7989 198.302 62.0438 197.665 54.443C197.458 52.2003 198.01 49.9026 198.534 47.7295C198.611 47.5427 198.696 47.3559 198.786 47.1743C196.381 46.7042 194.038 46.0068 191.629 45.7027C191.645 45.8605 191.633 46.0182 191.597 46.1728C191.832 47.66 191.771 49.1721 191.784 50.6727C191.905 59.5541 190.269 68.4604 187.282 76.8157C186.316 79.8523 182.636 89.5535 178.704 93.0634C186.73 98.9829 192.66 107.232 198.754 115.016C209.781 130.221 217.251 148.083 221.163 166.487C223.583 164.075 226.224 161.887 229.103 160.062C236.91 155.66 244.985 151.683 253.628 149.222C255.594 148.623 257.657 148.144 259.599 147.507ZM259.306 151.488C260.18 151.419 261.447 150.584 262.312 150.79C262.028 150.179 261.756 149.567 261.488 148.951C261.122 149.04 260.768 149.125 260.505 149.259C257.691 150.211 254.753 150.848 251.93 151.752C244.135 154.346 236.707 157.91 229.627 162.048C226.707 163.962 224.063 166.289 221.641 168.815C221.934 170.306 222.207 171.803 222.45 173.298C222.941 172.52 223.505 171.794 224.144 171.137C226.699 167.484 230.387 165.036 234.197 162.835C237.97 160.593 241.853 158.533 245.874 156.758C250.22 154.715 254.7 152.879 259.306 151.488ZM262.926 58.4073C274.81 57.5034 283.649 43.0875 274.932 33.3831C274.075 32.3816 273.25 31.3355 272.276 30.4472C272.154 30.4472 272.02 30.4316 271.878 30.3911C271.598 30.2697 271.39 30.0103 271.313 29.7176C268.763 28.299 265.952 27.1802 263.052 27.1802H262.901C259.875 27.4314 257.024 28.8666 254.424 30.3019C254.529 31.1487 253.681 31.6116 253.027 31.9312C251.682 32.5757 250.606 33.4111 249.599 34.4728C243.583 40.7649 244.968 51.4106 252.394 55.9592C255.52 58.0057 259.351 57.9455 262.926 58.4073ZM277.142 100.402C278.166 99.9387 279.205 99.5257 280.262 99.149C275.371 92.1107 269.623 85.6774 263.726 79.4714C263.438 82.9895 263.067 86.5004 262.901 90.0278C263.182 100.413 264.534 110.82 267.049 120.926C266.902 112.6 269.526 104.447 277.142 100.402ZM286.049 171.146C287.077 170.638 288.295 170.249 289.148 169.459C287.077 167.44 285.623 164.862 283.966 162.506C282.154 159.835 280.152 157.289 278.449 154.537C271.772 143.296 267.085 130.785 264.388 118.004C261.955 108.919 261.362 99.4406 260.923 90.0766C261.004 85.8113 261.744 81.5833 261.886 77.3149C261.874 77.2256 261.878 77.1405 261.893 77.0596C261.898 76.8645 261.902 76.6704 261.906 76.4753C262 75.9118 261.967 75.2673 262.068 74.6758C261.565 73.8642 261.094 73.0537 260.643 72.2515C259.81 70.5973 259.185 68.805 258.767 66.965C258.368 68.5621 257.946 69.9206 257.751 70.4146C257.32 71.7285 256.817 73.0091 256.252 74.27C256.402 74.379 256.54 74.5502 256.654 74.793C256.78 75.15 256.675 75.5953 256.382 75.8433C255.607 78.774 254.761 81.6279 254.367 84.6074C252.605 96.5867 253.189 108.919 255.347 120.82C256.877 129.836 259.294 138.73 262.856 147.155C262.856 147.155 262.861 147.158 262.861 147.162C262.929 147.256 262.986 147.366 263.039 147.5C263.048 147.54 263.052 147.581 263.056 147.617V147.621C263.998 149.818 265.021 151.983 266.127 154.111C268.925 159.267 271.614 164.526 275.103 169.26C276.131 170.549 277.194 171.799 278.279 173.039C280.964 172.982 283.552 172.069 286.049 171.146ZM339.92 179.274C339.787 179.472 339.649 179.671 339.515 179.865C333.3 188.755 324.612 195.505 315.375 201.051C306.744 206.208 297.447 210.318 287.569 212.373C282.719 213.602 277.723 213.959 272.755 214.478C265.805 215.422 258.807 215.969 251.789 215.969C251.378 215.969 250.964 215.965 250.549 215.961C246.963 215.779 243.336 215.811 239.757 215.467C239.452 215.682 239.026 215.795 238.616 215.795C238.433 215.795 238.254 215.775 238.088 215.726C238.08 215.726 238.075 215.722 238.067 215.722C239.582 217.457 241.329 218.912 243.076 220.437C254.834 230.611 271.208 234.581 286.497 234.317C289.949 234.564 293.215 233.692 296.529 232.894C303.011 231.552 309.267 228.986 314.332 224.786C329.665 212.783 339.458 199.283 339.92 179.274ZM345.562 163.333C346.676 157.33 343.223 150.977 338.247 147.726C337.423 147.281 336.485 147.219 335.591 147.013C334.665 147.787 333.719 148.541 332.756 149.27C338.857 150.382 338.524 157.929 335.075 162.243C332.115 166.265 328.535 169.962 324.636 173.083C320.112 176.241 315.53 179.391 310.749 182.139C307.13 183.7 303.682 185.549 300.022 186.996C295.891 188.537 291.63 189.692 287.422 190.998C275.664 194.569 263.466 197.102 251.143 197.102C250.412 197.102 249.68 197.095 248.949 197.078C245.61 197.033 242.3 196.604 239.006 196.097C238.819 196.328 238.542 196.49 238.242 196.49C238.067 196.49 237.881 196.438 237.698 196.308C230.899 194.528 222.425 191.621 220.472 184.049C219.94 181.649 220.106 179.091 220.858 176.724C220.635 174.708 220.341 172.666 219.989 170.602C219.066 171.636 218.181 172.69 217.324 173.756C215.24 176.435 213.582 179.431 212.238 182.532C210.569 185.346 210.605 188.816 211.596 191.849C211.654 191.958 211.707 192.076 211.747 192.201C212.035 192.55 212.105 192.931 212.031 193.259C212.084 193.467 212.137 193.652 212.202 193.799C215.444 201.716 222.15 208.238 229.948 211.671C230.196 211.473 230.528 211.384 230.837 211.498C235.887 213.387 241.199 213.727 246.524 213.857C254.819 214.259 263.137 213.772 271.358 212.669C279.445 211.98 287.654 210.797 295.359 208.279C308.129 203.868 320.038 196.746 330.128 187.806C336.708 180.801 343.467 172.901 345.562 163.333ZM366.655 89.0461C367.607 79.9457 365.336 71.0103 363.345 62.2181C361.513 69.3768 357.821 75.8713 353.093 81.5179C344.158 93.6435 331.484 102.829 316.972 107.046C309.644 109.616 302.056 111.318 294.413 112.628C292.37 113.163 290.136 113.041 288.133 113.438C285.363 114.274 282.544 115.295 280.567 117.411C277.045 120.89 274.94 125.706 274.002 130.489C273.714 132.184 273.629 133.955 273.674 135.715C273.721 135.812 273.755 135.929 273.77 136.059C274.729 149.255 290.859 159.547 303.356 159.292C303.422 159.275 303.49 159.263 303.56 159.26C303.69 159.252 303.816 159.243 303.946 159.235C304.174 159.137 304.392 159.129 304.592 159.186C307.581 158.931 310.436 158.323 313.264 157.451C321.009 154.91 328.073 150.718 334.32 145.497C334.458 145.212 334.725 144.99 335.019 144.905C340.847 139.919 345.945 134.032 350.197 127.769C358.385 116.252 364.856 103.175 366.655 89.0461ZM366.148 65.8016C368.078 73.9784 369.694 82.4955 368.325 90.8747C366.347 105.051 359.544 118.048 351.322 129.598C347.374 135.309 342.732 140.697 337.484 145.378C342.651 147.033 345.989 152.579 347.407 157.61C348.833 164.55 345.421 170.999 341.639 176.732V176.76C342.317 180.044 341.513 183.384 341.192 186.664C340.681 192.644 338.422 198.274 335.847 203.613C332.447 210.427 327.216 216.009 321.676 221.13C316.407 226.03 310.794 230.413 304.039 232.959C298.852 234.273 293.641 236.117 288.259 236.323C287.439 236.348 286.618 236.356 285.794 236.356C271.232 236.356 256.163 232.878 244.384 224.093C243.125 222.991 236.496 217.898 235.058 215.012C232.288 214.425 229.489 213.873 227.019 212.479C219.282 208.234 212.255 201.29 209.802 192.655C209.798 192.651 209.798 192.647 209.798 192.644C208.798 190.109 208.729 187.142 209.273 184.516C210.788 180.473 212.799 176.541 215.387 173.058C216.69 171.376 218.071 169.734 219.538 168.166C215.947 149.733 207.49 130.198 197.254 116.284C191.081 108.449 185.126 100 176.905 94.1904C176.389 94.3647 175.873 94.4011 175.362 94.2672C174.695 93.9559 174.233 93.465 173.928 92.8735C172.413 91.791 171.341 90.0434 170.183 88.633C167.437 85.1627 165.926 80.9752 164.525 76.8282C163.834 74.9352 163.261 72.9447 162.872 70.921C162.401 71.7077 160.804 71.882 160.069 72.3729C157.466 73.5934 154.882 74.8377 152.299 76.0944C152.152 76.3943 151.852 76.577 151.535 76.6133C151.73 77.5006 151.689 78.4533 151.352 79.3863C150.447 81.3477 148.866 82.783 147.104 84.0356C147.903 84.5711 148.505 85.3858 148.683 86.3831C149.699 92.4355 132.392 97.3204 127.839 99.8339C122.932 102.003 117.968 104.135 113.237 106.665C114.763 107.156 116.742 111.107 117.307 112.007C118.159 113.406 118.541 115.888 117.721 117.079C117.765 118.453 115.694 119.454 114.906 120.452C113.078 122.179 111.396 123.76 109.886 125.66C108.062 127.919 106.685 130.517 104.589 132.552C103.253 133.813 102.042 135.115 100.909 136.55C100.58 136.923 100.617 137.401 100.766 137.847C101.096 138.896 101.584 139.61 101.863 140.62C102.319 143.356 99.5726 145.452 96.9772 145.452C96.502 145.452 96.0352 145.383 95.588 145.233C95.43 145.197 95.2709 145.156 95.117 145.112C94.9298 147.447 93.915 150.746 92.6713 150.746C92.5746 150.746 92.4686 150.726 92.3667 150.677C92.0786 150.937 91.7251 151.115 91.3393 151.241C91.4246 151.654 91.3799 152.128 91.3632 152.526C91.4371 155.818 91.4527 159.114 91.5463 162.41C91.6201 174.636 91.4818 186.846 90.7258 199.024C90.5272 202.146 90.235 205.255 89.9668 208.372C89.6943 209.519 90.4337 211.924 88.8531 212.094C88.8615 213.27 87.5014 214.465 85.925 214.676C85.011 214.867 83.9837 215.239 83.0613 214.959C83.053 214.956 83.0447 214.956 83.0416 214.952C83.0125 215.572 82.9844 216.192 82.948 216.82C82.8139 217.383 82.8991 218.255 82.8055 218.997C83.4721 219.22 84.1583 219.561 84.6866 219.618C88.0535 220.675 91.9975 221.098 95.1617 222.8C95.4622 222.646 95.8313 222.646 96.1693 222.925C101.697 223.692 108.659 224.928 111.603 230.211C111.786 230.511 111.957 230.896 112.014 231.26C112.034 231.264 112.055 231.268 112.074 231.272C112.668 231.289 113.297 231.544 113.423 232.189C113.757 233.206 114.54 235.448 113.7 236.336C113.176 237.097 111.584 236.62 110.71 236.591C105.807 236.786 100.881 236.944 95.9738 236.753C89.451 236.567 82.9189 236.822 76.3961 237.074C75.5882 237.106 74.775 237.139 73.9671 237.167C69.7714 237.325 65.5799 237.459 61.3998 237.459C60.49 237.313 59.5677 237.22 58.6422 237.167C58.3334 237.15 58.0246 237.139 57.7158 237.131C57.0867 237.126 56.3266 237.029 56.1363 236.319C56.1238 235.889 55.9897 235.278 55.9533 234.702C55.6611 234.471 55.5228 234.09 55.5956 233.729C55.6611 231.763 55.5509 229.785 55.6403 227.814C56.0469 224.685 54.6088 220.704 56.6676 218.073C56.8018 217.898 56.9442 217.773 57.0898 217.696C57.1595 216.942 58.1743 216.383 59.3566 216.075C59.3732 215.799 59.3888 215.527 59.4055 215.252C57.8052 215.044 55.9616 214.952 54.8157 213.719C54.1856 213.034 54.0598 211.939 54.5433 211.161C54.5558 211.031 54.5922 210.901 54.6618 210.784C55.059 207.071 55.1817 203.495 55.4042 199.798C55.4739 197.791 55.7089 195.797 55.8555 193.795C55.2337 194.39 54.6005 194.974 53.9464 195.538C50.9819 198.075 47.7761 200.289 45.0466 203.094C43.6293 204.148 42.3909 205.283 41.0184 206.369C40.8634 206.495 40.669 206.556 40.4735 206.56C40.2385 206.759 39.9047 206.852 39.5637 206.852C39.2912 206.852 39.0115 206.791 38.7755 206.673C35.9409 205.498 33.2072 204.096 30.563 202.526C30.5058 202.567 30.4486 202.595 30.3841 202.616C29.5512 203.284 28.3814 205.595 27.1794 205.595C27.0494 205.595 26.9153 205.57 26.7853 205.506C26.6793 205.761 26.5784 206.021 26.4931 206.28C26.5826 208.462 26.9475 210.667 27.3094 212.828C27.7035 215.272 29.3766 217.911 28.5645 220.375C34.6568 220.23 41.6516 226.298 42.054 232.168C42.0821 232.521 42.0415 232.999 41.924 233.465C42.001 233.677 42.0291 233.932 42.001 234.24C41.924 235.01 41.7369 236.34 40.9081 236.506C40.8957 236.75 40.7906 236.984 40.6201 237.167C40.4288 237.382 40.1522 237.524 39.8642 237.524C39.6531 237.524 39.4378 237.45 39.2351 237.272C38.2233 237.256 37.2074 237.216 36.1926 237.167C31.5217 236.94 26.7936 236.506 22.1831 237.033C21.2691 237.256 20.1398 236.927 19.3277 236.498C19.255 236.442 19.1853 236.38 19.125 236.312C19.0844 236.308 19.0439 236.295 18.9992 236.283C17.8408 235.651 17.2887 234.22 16.541 233.174C14.3314 229.456 12.4753 225.556 10.5215 221.702C7.97501 217.084 5.20494 212.609 2.987 207.817C1.99606 206.171 0.952079 204.598 0.395776 202.75C-0.522384 201.302 0.293873 199.681 1.43975 198.647C2.00022 198.003 2.60539 197.678 3.14194 197.763C4.19319 196.068 6.48079 193.956 6.83017 192.927C7.90222 191.354 9.08762 190.779 10.1118 190.904C10.4935 190.438 11.0456 190.012 11.3867 189.7C11.7807 189.437 12.179 189.043 12.597 188.706C11.1392 187.251 9.77494 185.707 8.58019 184.021C8.37326 183.696 8.37742 183.368 8.51156 183.104C8.36079 181.787 10.8626 181.163 11.683 180.465C13.0202 179.541 14.137 178.37 15.4773 177.453C19.5024 175.159 22.5938 172.126 26.1718 169.345C28.9461 167.351 31.9272 165.653 34.6245 163.552C37.5163 160.889 38.9824 157.083 41.6027 154.176C46.0625 148.715 49.0239 142.233 53.0896 136.497C53.2435 135.808 53.6698 135.548 54.0972 135.576C54.1086 135.561 54.1253 135.548 54.1419 135.532C55.2181 134.194 56.416 132.816 57.383 131.434C57.3872 131.429 57.3913 131.425 57.3913 131.421C55.3928 129.711 56.0469 126.983 58.4592 125.483C59.288 124.794 60.2467 124.303 61.0827 123.618C62.1475 122.625 62.7402 121.307 63.4264 120.058C66.7331 114.784 70.3236 109.757 74.0887 104.8C76.0062 101.362 78.1544 98.0416 80.5679 94.9366C82.1234 92.2736 84.0325 89.6905 85.9125 87.287C85.7992 86.4557 86.7943 85.9732 87.4234 86.3509C88.8822 84.238 90.2184 82.0047 91.5868 79.7952C87.44 76.3663 83.4918 72.6199 80.3277 68.2456C79.6986 67.0501 76.1933 63.779 77.2976 62.5014C77.4234 62.1413 77.6304 61.776 77.7811 61.4803C81.2375 53.6678 84.3206 45.7432 87.7686 37.9234C89.2191 34.8256 90.6406 31.9966 91.8998 28.903C91.8384 28.5709 91.9612 28.2222 92.2169 27.971C94.2436 23.9205 96.1766 19.7247 99.0974 16.1983C109.033 3.14496 126.088 -2.82649 138.875 10.0805C141.783 13.2551 144.468 16.8303 146.088 20.8445C146.547 21.8045 146.897 22.8018 147.128 23.8313C148.371 29.5837 148.387 35.6289 146.97 41.3481C146.787 41.7705 146.624 42.5115 146.409 43.2618C146.961 43.5379 147.513 43.817 148.067 44.1128C151.498 45.8397 154.11 48.8929 152.429 50.1206C152.75 50.6768 152.401 51.3369 152.088 51.8278C150.308 54.5603 148.851 57.4713 147.083 60.2069C146.994 60.568 146.787 60.9209 146.503 61.115C148.152 60.7175 150.012 60.7912 151.19 62.1372C151.21 62.1611 151.231 62.186 151.246 62.2098C151.779 61.8736 152.493 61.6785 152.989 61.4149C154.911 60.5473 156.767 59.5583 158.672 58.6626C159.484 58.4271 160.975 57.3166 162.108 57.1101C162.279 56.4812 163.193 56.0028 163.809 55.7599C171.832 51.3659 179.415 46.3306 187.961 43.075C187.908 43.0958 187.859 43.1238 187.823 43.1601C187.868 43.1279 187.917 43.0999 187.961 43.075C187.981 43.0677 188.002 43.0595 188.019 43.0512C188.396 42.881 188.769 42.9899 189.033 43.2297C189.464 43.2213 189.899 43.3386 190.333 43.6022C190.516 43.5939 190.699 43.6064 190.878 43.6188C193.949 43.898 196.845 44.8227 199.817 45.3623C200.309 44.5757 200.817 43.8015 201.236 43.0065C206.414 35.7503 215.76 30.9059 224.485 29.5391C231.532 28.3197 237.873 29.041 244.173 31.9074C243.811 31.0844 243.498 30.2324 243.169 29.426C240.196 22.3566 241.512 13.993 245.382 7.52756C247.808 3.87454 251.845 1.45026 256.021 0.303497C261.663 -0.961563 267.215 1.8965 271.115 5.82454C272.775 7.38953 273.284 9.67993 273.904 11.7877C274.932 14.8357 275.485 18.0549 275.379 21.2534C277.094 18.331 278.945 15.4967 281.236 12.9635C284.624 8.38684 289.124 5.24026 294.603 3.65141C307.415 0.266129 312.273 19.6282 310.969 29.1261C309.965 41.2879 296.115 53.7093 283.625 54.1752C285.583 55.3428 287.281 56.8953 288.393 58.946C289.672 61.3298 291.346 63.6607 291.744 66.3932C292.244 71.4524 291.167 76.4546 288.608 80.8538C286.715 84.5099 283.218 86.9549 279.161 86.9549C278.681 86.9549 278.194 86.9186 277.703 86.8491C275.289 86.6145 273.125 85.803 271.175 84.6033C275.106 89.0305 278.835 93.6352 282.199 98.4921C286.894 96.9956 291.788 96.0397 296.476 94.62C307.074 91.5887 316.326 84.9312 321.704 75.2798C323.621 72.2183 324.909 68.8828 325.554 65.3512C325.693 64.3985 325.693 63.7094 325.616 62.8263C325.68 61.7802 327.28 61.5934 327.565 62.6229C329.17 71.1525 330.481 79.8761 328.893 88.5199C328.203 93.1329 327.354 97.9285 324.864 101.918C331.034 99.1324 336.83 95.5769 341.887 91.0044C348.036 84.9157 353.91 78.2427 358.04 70.6056C359.917 66.7419 361.436 62.6841 362.025 58.4157C362.095 57.5564 362.996 56.7407 363.821 57.3416C364.564 57.9611 364.677 59.0601 364.913 59.9516C365.278 61.9099 365.698 63.8599 366.148 65.8016Z" style="fill: var(--il-outline);"/>
</g>
</g>
</g>
<g id="Dark-Outlines">
<g id="Group_47">
<g id="Group_48">
<path id="vec44" d="M281.337 99.5357C280.62 97.6728 287.304 97.3439 288.51 96.9329C292.633 96.0829 296.761 95.2164 300.563 93.4957C312.124 89.0301 324.029 76.0058 325.581 63.5503C324.827 62.7076 326.083 61.4051 326.964 62.1306C328.989 63.9768 325.125 72.5936 323.934 74.7127C316.611 87.6644 304.652 96.3476 289.88 98.6473C287.767 99.1465 285.6 99.3022 283.564 99.9487C282.79 100.155 281.66 100.603 281.337 99.5357Z" style="fill: var(--il-ne-outline);"/>
</g>
<g id="Group_49">
<path id="vec45" d="M323.874 101.634C323.423 101.338 323.297 100.722 323.586 100.273C324.106 99.3852 324.491 98.4263 324.906 97.486C328.133 86.6214 328.65 74.8435 326.133 63.7838C325.316 63.1943 325.923 61.8006 326.921 62.0081C328.079 62.2686 328.15 63.6976 328.358 64.6586C329.13 68.5804 329.623 72.5365 329.662 76.5372C330.208 79.4804 327.911 103.322 323.874 101.634Z" style="fill: var(--il-ne-outline);"/>
</g>
<g id="Group_50">
<path id="vec46" d="M48.4464 119.176C48.4454 119.181 48.4444 119.186 48.4444 119.192C48.4392 119.203 48.435 119.216 48.4308 119.229C48.436 119.211 48.4412 119.194 48.4464 119.176Z" style="fill: var(--il-ne-outline);"/>
</g>
<g id="Group_51">
<path id="vec47" d="M48.4323 119.224C48.4313 119.228 48.4271 119.239 48.4271 119.239C48.4292 119.234 48.4302 119.229 48.4323 119.224Z" style="fill: var(--il-ne-outline);"/>
</g>
<g id="Group_52">
<path id="vec48" d="M116.575 117.369C116.177 117.341 115.827 117.126 115.674 116.749C115.473 116.262 115.814 115.772 115.71 115.272C115.633 113.569 115.171 111.812 114.267 110.392C113.858 109.833 113.469 109.216 112.968 108.735C112.514 108.455 112.347 107.859 112.623 107.393C112.895 106.939 113.513 106.772 113.967 107.052C116.308 108.991 117.537 112.125 117.675 115.132C117.773 115.971 117.718 117.371 116.575 117.369Z" style="fill: var(--il-ne-outline);"/>
</g>
<g id="Group_53">
<path id="vec49" d="M58.7642 215.513C57.2111 215.372 55.4027 214.955 54.5292 213.546C53.7307 212.58 55.1663 211.345 56.01 212.213C56.5519 213.242 57.8389 213.433 58.8614 213.556C60.2362 213.595 60.1243 215.608 58.7642 215.513Z" style="fill: var(--il-ne-outline);"/>
</g>
<g id="Group_54">
<path id="vec50" d="M83.0943 215.225C82.6472 214.893 82.5744 214.269 82.8915 213.827C83.8908 212.779 85.9444 213.751 86.7711 212.387C86.7711 211.813 86.9822 211.19 87.6394 211.103C89.0525 210.991 88.963 212.837 88.3059 213.628C87.3804 214.96 85.6169 215.206 84.1144 215.326C83.7827 215.478 83.3948 215.451 83.0943 215.225Z" style="fill: var(--il-ne-outline);"/>
</g>
<g id="Group_55">
<path id="vec51" d="M141.738 41.0265C141.226 40.792 141.052 40.0936 141.339 39.638C141.869 38.2287 142.068 36.947 142.344 35.5138C143.562 30.1754 142.917 24.4188 141.028 19.3492C140.309 18.2802 141.999 17.1428 142.718 18.2315C144.766 23.4349 145.497 29.34 144.455 34.8569C144.007 36.1832 143.83 41.891 141.738 41.0265Z" style="fill: var(--il-ne-outline);"/>
</g>
<g id="Group_56">
<path id="vec52" d="M18.572 235.345C14.2214 228.895 10.4947 222.02 6.9635 215.08C4.78404 210.813 1.97133 206.808 0.441755 202.255C-0.316272 201.295 1.13843 200.04 1.97549 200.972C3.49154 204.841 5.65541 208.486 7.64146 212.177C10.1911 216.835 12.5837 221.58 15.2134 226.195C16.8657 228.981 18.5907 231.693 20.322 234.424C20.9179 235.536 19.171 236.486 18.572 235.345Z" style="fill: var(--il-ne-outline);"/>
</g>
<g id="Group_57">
<path id="vec53" d="M22.2811 236.872C21.3286 236.775 20.137 236.969 19.4216 236.211C18.9682 235.696 18.337 234.977 18.8694 234.298C19.5266 233.502 20.4427 233.981 20.8108 234.782C27.109 235.083 33.3832 234.494 39.6856 234.764C40.9739 234.763 41.0072 236.731 39.7105 236.742C33.8657 236.605 28.1113 236.81 22.2811 236.872Z" style="fill: var(--il-ne-outline);"/>
</g>
<g id="Group_58">
<path id="vec54" d="M60.6395 237.591C59.401 237.371 56.0299 237.816 56.293 235.958C56.4116 235.451 56.9845 235.041 57.5117 235.203C60.9524 236.015 64.4504 235.249 67.914 235.05C70.8359 234.668 73.7703 235.122 76.7036 234.965C88.1832 234.505 99.6753 235.123 111.148 234.769C112.1 234.862 113.773 234.545 113.918 235.84C113.934 236.355 113.5 236.866 112.963 236.857C101.507 236.927 90.0018 236.58 78.5274 236.943C75.6825 237.018 72.8324 236.921 70.002 236.885C66.8721 237.027 63.7714 237.577 60.6395 237.591Z" style="fill: var(--il-ne-outline);"/>
</g>
<g id="Group_59">
<path id="vec55" d="M199.788 46.8451C199.48 45.825 200.364 44.9065 200.856 44.0846C202.698 41.3698 205.029 39.0077 207.868 37.3348C214.684 32.4323 222.946 29.9758 231.341 30.2C235.454 30.2727 239.523 31.1724 243.482 32.2476C244.222 32.3742 245.212 32.7167 244.96 33.6621C244.818 34.1685 244.266 34.4934 243.753 34.3439C236.405 32.0421 228.507 31.4609 221.007 33.2387C217.636 34.0969 214.576 35.4907 211.625 37.2705C207.688 39.5028 203.947 42.3391 201.772 46.3563C201.733 47.4699 200.297 47.9691 199.788 46.8451Z" style="fill: var(--il-ne-outline);"/>
</g>
<g id="Group_60">
<path id="vec56" d="M244.576 33.7122C243.533 31.6543 242.811 29.2819 242.355 27.0558C241.506 21.9364 240.628 16.3054 242.935 11.4412C245.795 5.79045 251.097 1.35493 257.501 0.511208C258.96 0.446865 258.896 2.59406 257.441 2.49235C249.407 3.82384 242.878 11.3696 243.4 19.5588C243.604 22.613 243.969 25.8613 244.796 28.7869C245.206 30.1049 245.661 31.4063 246.179 32.5624C246.388 33.0107 246.297 33.5348 245.88 33.8336C245.477 34.1294 244.927 34.063 244.576 33.7122Z" style="fill: var(--il-ne-outline);"/>
</g>
<g id="Group_61">
<path id="vec57" d="M272.982 21.7352C272.524 17.0464 271.664 12.3027 268.842 8.42964C266.258 5.13154 262.142 2.11883 257.777 2.52045C256.359 3.72844 255.2 1.18897 256.95 0.682526C260.728 -0.170538 264.53 1.85731 267.418 4.14045C270.413 6.47029 272.41 9.9334 273.498 13.5252C274.229 15.8125 274.625 18.4122 274.851 20.7493C274.982 21.4435 275.002 22.3879 274.12 22.5374C273.61 22.6225 273.039 22.2696 272.982 21.7352Z" style="fill: var(--il-ne-outline);"/>
</g>
<g id="Group_62">
<path id="vec58" d="M281.096 54.5524C281.111 53.4596 282.322 53.5603 283.095 53.5105C292.89 52.536 300.734 45.3254 305.389 37.0781C308.299 31.2218 309.83 24.3402 307.871 17.9941C306.683 12.1732 302.938 5.58424 296.489 4.86297C289.211 4.80693 285.246 11.6356 280.945 16.4375C279.606 18.0678 278.414 19.8072 277.205 21.533C276.483 22.5168 275.05 25.2473 273.817 23.4021C273.619 22.9153 273.846 22.3664 274.307 22.1329C276.806 18.7652 279.114 15.2419 282.014 12.1856C285.839 7.19281 291.343 1.68422 298.233 3.16099C307.059 5.6382 310.646 16.0587 310.686 24.3786C310.598 33.3825 305.939 41.6008 299.569 47.7372C295.672 51.5407 290.637 54.0242 285.34 55.1803C284.185 55.2488 281.22 56.2803 281.096 54.5524Z" style="fill: var(--il-ne-outline);"/>
</g>
<g id="Group_63">
<path id="vec59" d="M279.137 86.9717C272.707 86.6655 266.892 82.7769 263.551 77.3814C263.222 77.1593 263.027 76.7619 263.109 76.3509C263.21 75.8154 263.746 75.447 264.283 75.5518C265.025 75.723 265.337 76.5107 265.757 77.0639C269.335 82.587 276.312 86.1788 282.853 84.6792C291.322 81.0853 292.925 71.0436 289.405 63.2913C288.594 61.5323 287.593 59.8168 286.205 58.4656C285.41 57.3998 282.055 56.2562 283.129 54.7431C283.49 54.3176 284.104 54.2978 284.534 54.6258C293.177 59.903 296.405 74.5234 289.325 82.1978C286.502 85.4129 283.59 87.3401 279.137 86.9717Z" style="fill: var(--il-ne-outline);"/>
</g>
<g id="Group_64">
<path id="vec60" d="M49.4532 128.928C40.4765 126.22 53.0031 107.183 57.8248 104.508C58.8844 103.899 61.4797 101.35 62.1504 103.478C62.2191 103.599 62.2482 103.717 62.2523 103.834C62.1868 103.904 62.1265 103.972 62.061 104.042C61.8426 104.278 61.6336 104.522 61.4361 104.775C61.3778 104.841 61.3217 104.907 61.2687 104.978C61.2364 105.02 61.2094 105.065 61.1855 105.11C61.1824 105.115 61.1792 105.119 61.1751 105.124C60.5013 106.064 59.9575 107.102 59.6361 108.217C59.6486 108.176 59.6601 108.136 59.6725 108.095C59.5062 108.667 59.3887 109.246 59.267 109.826C59.1734 110.28 59.059 110.734 59.031 111.196C58.9987 111.719 59.0143 112.242 59.1817 112.74C59.3315 113.191 59.5509 113.608 59.9044 113.937C60.2496 114.261 60.6676 114.399 61.1023 114.411C61.3175 115.505 60.8507 116.754 60.4732 117.759C58.8282 122.048 55.375 128.96 50.0865 128.96C49.8795 128.96 49.6684 128.949 49.4532 128.928Z" style="fill: var(--il-ne-outline);"/>
</g>
<g id="Group_65">
<path id="vec61" d="M62.9319 102.565C62.9642 102.577 63.0006 102.589 63.0338 102.601C62.9964 102.589 62.9642 102.577 62.9319 102.565Z" style="fill: var(--il-ne-outline);"/>
</g>
<g id="Group_66">
<path id="vec62" d="M63.9677 103.079C63.9999 103.1 64.0291 103.119 64.0571 103.14C64.0291 103.119 63.9958 103.1 63.9677 103.079Z" style="fill: var(--il-ne-outline);"/>
</g>
<g id="Group_67">
<path id="vec63" d="M56.1407 107.226C55.2267 105.99 57.1722 105.139 57.8793 104.357C58.133 104.159 58.394 103.96 58.6622 103.766C58.8868 103.627 59.1135 103.492 59.3412 103.36C59.3464 103.357 59.3506 103.354 59.3548 103.352C59.386 103.334 59.4161 103.316 59.4473 103.298C59.4182 103.315 59.3943 103.33 59.3662 103.347C59.7031 103.156 60.0483 102.974 60.4019 102.812C60.5402 102.751 60.6816 102.694 60.824 102.646C60.929 102.609 61.0393 102.581 61.1443 102.556C61.2753 102.528 61.4011 102.512 61.5311 102.5C61.738 102.484 61.9408 102.475 62.1477 102.475C62.286 102.475 62.4243 102.479 62.5668 102.488C62.6354 102.496 62.704 102.507 62.7737 102.52C62.8631 102.544 62.9525 102.573 63.042 102.605C63.1917 102.666 63.3425 102.735 63.4839 102.807C63.6835 102.913 63.8749 103.019 64.061 103.145C64.0631 103.146 64.0651 103.147 64.0672 103.149C63.6898 103.271 63.3019 103.406 62.9567 103.594C62.8673 103.647 62.782 103.7 62.6967 103.752C62.6884 103.752 62.6843 103.757 62.6759 103.757C61.397 104.145 60.3686 104.919 59.3454 105.686C58.5531 106.12 57.7618 107.535 56.8519 107.535C56.6242 107.535 56.384 107.445 56.1407 107.226Z" style="fill: var(--il-ne-outline);"/>
</g>
</g>
</g>
</g>
</g>
</g>
</g>
</g>
</g>
<defs>
<linearGradient id="paint0_linear_2414_1517" x1="327.848" y1="222.606" x2="292.046" y2="216.628" gradientUnits="userSpaceOnUse">
<stop style="stop-color: var(--secondary-fixed-dim);"/>
<stop offset="1" style="stop-color: var(--primary-fixed-dim);"/>
</linearGradient>
<linearGradient id="paint1_linear_2414_1517" x1="329.589" y1="181.41" x2="218.697" y2="196.109" gradientUnits="userSpaceOnUse">
<stop style="stop-color: var(--secondary-fixed-dim);"/>
<stop offset="1" style="stop-color: var(--primary-fixed-dim);"/>
</linearGradient>
<linearGradient id="paint2_linear_2414_1517" x1="308.205" y1="115.646" x2="329.047" y2="138.27" gradientUnits="userSpaceOnUse">
<stop style="stop-color: var(--secondary-fixed-dim);"/>
<stop offset="1" style="stop-color: var(--primary-fixed-dim);"/>
</linearGradient>
<linearGradient id="paint3_linear_2414_1517" x1="253.75" y1="36.977" x2="272.62" y2="51.6545" gradientUnits="userSpaceOnUse">
<stop style="stop-color: var(--primary-fixed-dim);"/>
<stop offset="1" style="stop-color: var(--secondary-fixed-dim);"/>
</linearGradient>
<linearGradient id="paint4_linear_2414_1517" x1="205.014" y1="75.9393" x2="264.047" y2="153.231" gradientUnits="userSpaceOnUse">
<stop style="stop-color: var(--secondary-fixed);"/>
<stop offset="1" style="stop-color: var(--tertiary-fixed-dim);"/>
</linearGradient>
<linearGradient id="paint5_linear_2414_1517" x1="205.014" y1="75.9393" x2="264.048" y2="153.231" gradientUnits="userSpaceOnUse">
<stop style="stop-color: var(--secondary-fixed);"/>
<stop offset="1" style="stop-color: var(--tertiary-fixed-dim);"/>
</linearGradient>
<linearGradient id="paint6_linear_2414_1517" x1="156.029" y1="66.2608" x2="176.413" y2="71.9893" gradientUnits="userSpaceOnUse">
<stop style="stop-color: var(--secondary-fixed);"/>
<stop offset="1" style="stop-color: var(--tertiary-fixed);"/>
</linearGradient>
<linearGradient id="paint7_linear_2414_1517" x1="156.029" y1="66.2607" x2="176.413" y2="71.9893" gradientUnits="userSpaceOnUse">
<stop style="stop-color: var(--secondary-fixed);"/>
<stop offset="1" style="stop-color: var(--tertiary-fixed);"/>
</linearGradient>
<linearGradient id="paint8_linear_2414_1517" x1="129.672" y1="76.9319" x2="98.3727" y2="95.1012" gradientUnits="userSpaceOnUse">
<stop style="stop-color: var(--primary-fixed);"/>
<stop offset="1" style="stop-color: var(--primary-fixed-dim);"/>
</linearGradient>
<linearGradient id="paint9_linear_2414_1517" x1="28.7193" y1="172.476" x2="53.0731" y2="182.685" gradientUnits="userSpaceOnUse">
<stop style="stop-color: var(--secondary-fixed);"/>
<stop offset="1" style="stop-color: var(--tertiary-fixed-dim);"/>
</linearGradient>
<linearGradient id="paint10_linear_2414_1517" x1="64.2766" y1="193.819" x2="83.6714" y2="193.321" gradientUnits="userSpaceOnUse">
<stop style="stop-color: var(--secondary-fixed);"/>
<stop offset="1" style="stop-color: var(--tertiary-fixed-dim);"/>
</linearGradient>
<clipPath id="clip0_2414_1517">
<rect width="369" height="237" fill="white"/>
</clipPath>
</defs>
</svg>