<svg xmlns="http://www.w3.org/2000/svg" width="368" height="237" viewBox="0 0 368 237" fill="none">
<g id="on-your-mind">
<g id="Group">
<g id="on_your_mind">
<g id="Clip path group">
<mask id="mask0_2419_311" style="mask-type:luminance" maskUnits="userSpaceOnUse" x="0" y="0" width="368" height="237">
<g id="_clip1">
<path id="vec1" d="M367.835 0H0V236.793H367.835V0Z" fill="white"/>
</g>
</mask>
<g mask="url(#mask0_2419_311)">
<g id="Group_2">
<g id="FL">
<g id="Group_3">
<path id="vec2" d="M308.523 44.7858C309.749 53.709 309.684 63.3047 306.78 71.9565C303.796 79.1154 298.425 84.9803 292.663 90.1273C287.895 94.3449 282.561 98.545 280.167 104.64C279.819 105.506 278.024 110.366 277.316 113.822C276.758 113.284 276.164 112.79 275.472 112.418C271.889 110.334 268.092 108.646 264.165 107.327C265.614 101.71 268.521 96.275 271.138 91.0991C275.533 84.8094 279.904 78.4845 282.962 71.4064C284.628 66.0843 287.074 60.9042 287.818 55.3397C287.924 51.7903 287.984 47.7032 285.926 44.6563C282.634 41.1556 276.815 41.5845 272.597 42.9603C270.183 38.4236 264.574 38.3624 260.405 40.3257C259.095 34.7405 253.085 35.6802 248.961 37.3192C248.015 35.2585 245.819 34.3199 243.683 34.0205C240.141 33.4258 236.732 34.7695 234.273 37.3233C232.292 34.0609 227.917 33.6599 224.875 35.6398C220.601 39.2213 220.034 45.9586 220.552 51.1832C221.859 69.1769 230.618 85.8423 232.425 103.676C228.874 103.952 225.329 104.648 222.328 106.506C222.295 106.393 222.272 106.279 222.251 106.166C220.715 100.905 218.195 95.9995 215.057 91.5238C207.491 79.7919 202.634 65.9103 202.97 51.8349C202.925 51.2847 203.285 50.8393 203.164 50.285C203.103 50.0581 202.966 49.8809 202.792 49.7587C202.953 48.2979 203.216 46.8537 203.629 45.4043C205.537 37.9221 208.526 30.6938 213.343 24.5668C218.474 18.2491 224.483 12.6359 231.171 7.99043C231.386 8.04741 231.625 8.02254 231.871 7.88476C242.968 1.88308 256.64 0.466835 268.824 3.60806C269.023 3.71684 269.241 3.7531 269.451 3.72927C269.552 3.71684 269.649 3.68887 269.742 3.64432C270.082 3.75724 270.417 3.87846 270.754 4.00796C277.252 6.54207 283.321 10.1112 288.692 14.6521C297.795 22.5476 306.561 32.4664 308.523 44.7858Z" fill="url(#paint0_linear_2419_311)"/>
</g>
<g id="Group_4">
<path id="vec3" d="M285.772 50.8927C286.362 55.1051 285.106 59.2409 283.689 63.2234C281.983 68.5081 280.006 73.6437 277.166 78.4394C274.943 82.5638 271.93 86.1899 269.427 90.1351C266.722 95.4861 263.81 100.892 262.293 106.724C254.145 104.239 245.496 103.259 237.051 103.495C236.174 103.507 235.277 103.523 234.378 103.559C233.744 97.7478 232.693 92.0258 230.881 86.4282C228.964 80.2328 227.216 73.9887 225.579 67.7073C223.65 59.3134 220.88 50.1923 223.319 41.5395C223.877 40.0869 224.516 38.5775 225.68 37.4969C228.03 35.7854 231.431 36.0475 232.87 38.8002C230.719 41.3695 230.739 44.8744 230.958 48.0436C231.022 49.9892 231.402 52.1587 233.077 53.3812C234.148 54.1623 235.758 54.526 236.866 53.6319C239.624 50.1187 237.153 42.6853 235.362 39.0343C237.274 37.0597 239.741 35.6186 242.588 35.9149C244.342 36.0641 246.429 36.4971 247.214 38.278C245.167 39.6052 244.727 42.1745 244.367 44.4134C243.801 47.5815 243.699 51.9691 247.085 53.5677C250.299 54.785 251.614 50.5518 252.244 48.1845C252.766 44.9759 250.672 42.1186 249.79 39.1317C252.872 38.0791 257.724 36.5862 258.565 41.1188C254.8 42.9961 254.351 47.7722 254.978 51.4873C255.165 52.6529 255.428 54.0245 256.503 54.6928C257.575 55.36 258.634 54.498 259.249 53.6319C260.333 52.3493 261.428 50.8761 261.453 49.1273C261.368 46.8408 261.209 44.5387 260.903 42.2678C264.178 40.7987 268.655 40.1191 270.77 43.77C267.013 45.7447 265.354 50.815 266.629 54.7653C267.094 56.7078 268.97 58.2743 270.98 57.4041C274.89 55.9671 274.482 48.055 273.406 44.7894C276.646 43.7773 280.912 43.3773 283.852 45.4007C285.429 46.7113 285.429 49.0143 285.772 50.8927Z" fill="url(#paint1_linear_2419_311)"/>
</g>
<g id="Group_5">
<path id="vec4" d="M261.853 108.643C261.853 108.647 261.848 108.655 261.848 108.658C261.371 111.196 260.664 113.697 260.316 116.254C260.291 116.437 260.264 116.636 260.247 116.838C256.082 116.644 251.921 116.154 247.756 115.696C243.154 114.98 238.693 113.742 234.294 112.284C235.321 110.961 234.544 106.927 234.569 105.462C242.847 104.887 253.155 106.093 261.853 108.643Z" style="fill: var(--tertiary-fixed-dim);"/>
</g>
<g id="Group_6">
<path id="vec5" d="M277.037 116.335C277.046 116.494 277.065 116.639 277.094 116.764C272.86 117.408 268.521 117.174 264.263 116.919C263.584 116.923 262.909 116.919 262.228 116.902C262.262 116.542 262.273 116.178 262.334 115.883C262.735 113.721 263.264 111.447 263.741 109.229C269.366 111.059 274.158 113.471 277.037 116.335Z" style="fill: var(--tertiary-fixed-dim);"/>
</g>
<g id="Group_7">
<path id="vec6" d="M232.595 105.639C232.725 107.408 232.777 109.189 232.745 110.986C232.531 111.171 232.434 111.415 232.43 111.657C229.328 110.585 226.25 109.424 223.172 108.286C223.295 108.169 223.448 108.076 223.605 107.978C225.902 106.8 229.012 106.032 232.595 105.639Z" style="fill: var(--tertiary-fixed-dim);"/>
</g>
<g id="Group_8">
<path id="vec7" d="M278.02 118.643C278.04 118.95 278.037 119.261 278.02 119.573C278.02 119.581 278.016 119.59 278.016 119.597C278.016 119.597 278.016 119.594 278.02 119.594C277.976 120.565 277.81 121.54 277.676 122.503C277.567 123.28 277.483 124.065 277.397 124.847C277.377 124.951 277.357 125.069 277.337 125.186C277.049 125.243 276.762 125.303 276.471 125.36C275.788 125.611 274.539 125.498 273.705 125.777C268.909 126.142 263.543 125.902 260.915 125.781C254.307 125.518 247.934 124.717 241.52 123.171C241.201 122.936 240.845 122.872 240.533 122.928H240.529C240.081 122.815 239.628 122.698 239.178 122.576C233.185 121.492 227.314 119.986 221.746 117.607C221.77 117.57 221.79 117.533 221.81 117.493C221.685 117.436 221.564 117.384 221.438 117.323C221.394 117.303 221.349 117.283 221.305 117.263C221.208 117.214 221.106 117.17 221.01 117.121C220.917 117.076 220.828 117.032 220.739 116.983C220.961 115.72 221.212 114.466 221.426 113.207C221.592 112.111 221.846 111.014 222.001 109.917C229.089 112.438 236.049 115.457 243.478 116.809C249.479 118.072 255.646 118.695 261.776 118.796C265.909 118.926 270.224 119.363 274.384 119.031C275.197 118.99 276.015 118.946 276.828 118.841C277.138 118.8 277.45 118.752 277.761 118.695C277.846 118.679 277.931 118.663 278.02 118.643Z" style="fill: var(--tertiary-fixed);"/>
</g>
<g id="Group_9">
<path id="vec8" d="M97.7359 57.6299C103.288 57.8454 102.237 51.362 98.9979 48.8724C97.356 47.2945 89.0296 43.9068 88.3463 47.4323C83.8576 51.6531 94.1126 57.3709 97.7359 57.6299ZM123.256 59.1808C127.066 60.0387 130.014 56.5214 127.212 53.2962C125.36 51.074 119.488 45.8379 116.532 47.2417C114.514 47.0148 113.046 48.7553 113.576 50.7062C114.635 54.5747 119.419 58.3147 123.256 59.1808ZM152.587 58.2816C154.173 56.971 153.501 54.5384 152.506 53.061C151.285 51.0947 149.166 49.9934 147.136 49.0268C146.214 48.6538 145.166 48.084 144.156 48.3544C142.045 47.6219 139.323 48.6466 139.748 51.2522C140.613 54.8254 143.477 58.0267 146.897 59.3787C148.802 59.961 150.989 59.4108 152.587 58.2816ZM191.121 79.7997C196.083 87.8206 197.09 97.5136 196.965 106.768C187.996 95.1049 175.447 85.1663 161.131 81.1839C161.233 81.1714 161.334 81.1559 161.435 81.1393C160.991 81.0295 160.546 80.9207 160.105 80.8192C160.085 80.815 160.072 80.8119 160.056 80.8078H160.052C160.04 80.8036 160.032 80.8036 160.02 80.7995C160.011 80.7995 160.003 80.7954 160 80.7954C160 80.7912 159.996 80.7912 159.996 80.7912H159.992C159.988 80.7912 159.979 80.7912 159.975 80.7871C158.483 80.4597 156.979 80.1717 155.471 79.9292C147.209 80.8886 139.461 80.9611 134.782 80.5933C123.553 79.9893 112.278 79.2817 101.137 77.6997C100.999 77.6065 100.837 77.5454 100.659 77.5298C99.5196 77.3837 98.3746 77.2501 97.2349 77.1082C96.474 76.9828 95.71 76.8574 94.9501 76.7238C94.6468 76.7041 94.3393 76.6875 94.036 76.6678C89.6683 75.9271 85.2852 75.032 80.9662 73.9027C79.8585 73.5432 78.7539 73.163 77.6462 72.79C75.6689 72.1311 73.6947 71.4587 71.7381 70.7511C69.7318 70.0301 67.7224 69.31 65.7565 68.4967C63.7596 67.6669 61.8019 66.7479 59.9292 65.6632C59.8888 65.6394 59.8485 65.6156 59.8081 65.5948C59.8039 65.5907 59.7998 65.5866 59.7967 65.5866C59.7232 65.5265 59.6383 65.4778 59.5493 65.4415C58.7573 64.9639 57.9882 64.4459 57.2728 63.8626C57.1714 63.7777 57.0709 63.6886 56.9695 63.5995C56.9529 63.6036 56.9374 63.6078 56.9208 63.6119C51.1297 59.2938 51.4092 51.0056 52.4124 44.5346C56.4964 26.0727 93.6312 25.7805 108.763 25.7929C120.673 25.8779 132.522 27.7562 144.26 29.6822C160.493 32.5758 181.011 36.436 189.091 52.6238C192.901 60.9773 190.054 66.9955 183.951 71.265C184.226 71.4908 184.494 71.726 184.764 71.9612C184.918 72.0938 185.071 72.2275 185.225 72.3652V72.3694C185.423 72.5434 185.618 72.7258 185.803 72.9154C185.966 73.078 186.147 73.2521 186.305 73.4375C188.234 75.2547 189.6 77.6386 191.121 79.7997Z" style="fill: var(--il-highlight);"/>
</g>
<g id="Group_10">
<path id="vec9" d="M221.479 119.553C221.398 119.824 221.381 120.152 221.459 120.529C219.828 125.518 219.65 130.881 217.896 135.806C217.843 135.915 217.791 136.036 217.742 136.157C216.185 135.288 214.652 134.352 213.209 133.386C213.16 133.357 213.112 133.329 213.063 133.308C214.333 130.091 214.818 123.361 215.121 121.953C215.162 120.277 215.804 118.57 215.853 116.898C217.669 117.898 219.582 118.716 221.479 119.553Z" style="fill: var(--primary-fixed-dim);"/>
</g>
<g id="Group_11">
<path id="vec10" d="M230.343 122.649C230.335 122.746 230.339 122.848 230.367 122.952C228.891 128.574 228.304 134.442 226.448 139.958C224.876 139.403 223.319 138.821 221.778 138.21C221.022 137.862 220.258 137.489 219.497 137.096C220.601 135.283 221.045 130.921 221.369 129.8C221.948 126.708 222.631 123.568 223.497 120.528C223.505 120.504 223.508 120.479 223.517 120.455C225.729 121.386 228.018 122.071 230.343 122.649Z" style="fill: var(--primary-fixed-dim);"/>
</g>
<g id="Group_12">
<path id="vec11" d="M240.101 124.774C238.851 130.727 238.132 136.809 236.392 142.649C236.344 142.746 236.303 142.851 236.28 142.965C233.607 142.277 230.953 141.484 228.337 140.609C229.846 137.015 230.832 128.387 231.552 126.761C231.677 125.599 232.341 124.308 232.328 123.114C234.912 123.697 237.521 124.187 240.101 124.774Z" style="fill: var(--primary-fixed-dim);"/>
</g>
<g id="Group_13">
<path id="vec12" d="M249.725 126.74C249.333 127.995 249.324 129.602 248.969 130.888C248.237 134.013 247.606 137.189 246.862 140.318C246.7 141.289 245.317 143.745 245.633 144.964C243.142 144.551 240.659 144.041 238.192 143.446C238.297 143.195 238.366 142.924 238.422 142.69C239.248 139.719 239.935 136.704 240.425 133.669C240.813 130.828 241.556 128.06 242.033 125.235C242.151 125.264 242.264 125.296 242.381 125.324C244.808 125.899 247.258 126.368 249.725 126.74Z" style="fill: var(--primary-fixed-dim);"/>
</g>
<g id="Group_14">
<path id="vec13" d="M258.011 127.647C257.311 133.341 256.248 138.934 255.192 144.58C255.083 144.843 254.942 145.154 254.853 145.466C252.843 145.534 250.833 145.519 248.836 145.446C248.325 145.377 247.816 145.304 247.307 145.227C247.376 145.134 247.428 145.029 247.457 144.911C248.823 140.861 249.661 136.692 250.627 132.536C250.902 131.31 251.1 130.067 251.339 128.832C251.452 128.258 251.569 127.635 251.679 127.015C253.781 127.295 255.892 127.501 258.011 127.647Z" style="fill: var(--primary-fixed-dim);"/>
</g>
<g id="Group_15">
<path id="vec14" d="M265.727 127.906C265.957 127.906 266.183 127.906 266.414 127.902C265.864 132.164 265.775 136.449 264.882 140.666C264.517 141.835 264.299 143.045 264.016 144.235C263.983 144.344 263.972 144.458 263.979 144.567C261.683 144.968 259.358 145.227 257.02 145.369C257.36 144.223 257.457 142.766 257.619 142.135C258.419 138.011 259.188 133.71 259.77 129.525C259.774 129.023 259.965 128.375 260.041 127.764C261.934 127.861 263.83 127.906 265.727 127.906Z" style="fill: var(--primary-fixed-dim);"/>
</g>
<g id="Group_16">
<path id="vec15" d="M273.511 127.655C274.012 127.837 274.741 127.748 275.465 127.594C275.165 131.638 274.667 135.664 273.855 139.667C273.725 140.241 273.333 140.981 274.001 141.431C274.122 141.491 274.239 141.532 274.344 141.565C271.68 142.701 268.909 143.548 266.078 144.159C266.228 143.471 266.277 142.669 266.487 142.183C267.7 137.538 267.906 132.64 268.339 127.874C270.066 127.842 271.788 127.764 273.507 127.655H273.511Z" style="fill: var(--primary-fixed-dim);"/>
</g>
<g id="Group_17">
<path id="vec16" d="M282.169 126.02C282.129 127.056 282.048 128.097 282.027 129.128C281.971 130.747 281.857 132.341 281.668 133.952C281.716 134.494 281.486 135.308 281.441 136.037C281.373 136.105 281.312 136.186 281.259 136.287C280.625 138.096 278.894 139.185 277.337 140.14C276.714 140.468 276.087 140.78 275.453 141.071C275.894 140.302 275.93 138.894 276.108 138.181C276.536 136.304 276.811 134.211 277.021 132.273C277.183 130.8 277.317 129.326 277.454 127.849C277.47 127.664 277.494 127.465 277.506 127.263C279.112 127.036 280.733 126.728 282.169 126.02Z" style="fill: var(--primary-fixed-dim);"/>
</g>
<g id="Group_18">
<path id="vec17" d="M363.835 230.921C363.899 231.557 363.637 232.738 363.759 233.609H303.028C302.691 232.552 302.218 231.452 301.689 230.488C301.564 230.108 301.405 229.744 301.297 229.456C300.419 227.199 299.384 225.013 298.437 222.783C294.09 212.143 290.605 201.212 286.339 190.533C286.161 189.824 285.873 188.683 284.867 188.962C284.353 189.104 284.041 189.658 284.186 190.168C285.105 192.654 286.027 195.138 286.945 197.623C284.769 194.915 282.63 192.066 280.37 189.412C279.593 188.404 278.049 189.63 278.833 190.622C280.802 193.062 282.848 195.437 284.66 197.999C285.784 199.412 287.207 200.585 288.146 202.139C288.299 202.475 288.554 202.653 288.825 202.706C290.803 208.069 292.772 213.434 294.701 218.813C296.229 223.2 298.579 227.299 299.933 231.734C299.986 232.063 300.189 232.33 300.459 232.471C300.629 232.844 300.792 233.224 300.941 233.609C267.794 233.609 234.645 233.604 201.498 233.6C201.571 233.467 201.631 233.337 201.688 233.224C201.878 232.734 202.298 232.245 202.42 231.723C202.44 231.67 202.46 231.621 202.477 231.569C203.378 229.59 204.155 227.558 204.927 225.522C208.586 216.527 211.749 207.36 215.101 198.246C215.368 198.165 215.611 197.979 215.748 197.724C217.88 195.344 219.764 192.722 222.012 190.444C222.833 189.444 226.796 187.008 225.271 185.713C224.904 185.417 224.293 185.413 223.966 185.777C221.616 188.104 219.259 190.391 217.163 192.936C217.984 190.816 218.777 188.679 219.789 186.644C220.084 186.198 219.889 185.567 219.444 185.304C218.102 184.661 217.673 186.554 217.257 187.457C216.399 189.452 215.644 191.488 214.826 193.499C211.518 201.889 208.703 210.508 205.425 218.938C204.167 222.034 202.966 225.15 201.728 228.259C201.299 229.278 200.892 230.318 200.374 231.301C200.305 231.431 200.264 231.569 200.252 231.711C200.228 231.755 200.2 231.8 200.167 231.84C200.01 232.398 199.443 233.01 199.209 233.6H193.661C193.556 233.127 193.357 232.649 193.123 232.293C193.123 232.29 193.119 232.286 193.115 232.281C193.111 232.269 193.107 232.252 193.098 232.241C192.577 230.638 191.857 229.133 191.109 227.635C191.097 227.55 191.077 227.461 191.04 227.372C189.778 224.397 188.82 221.314 187.712 218.274C184.101 207.785 180.385 197.331 176.689 186.87C174.642 180.642 171.755 174.288 172.334 167.558C172.309 162.872 174.101 158.295 173.336 153.584C173.029 151.714 172.515 149.682 171.617 147.935C172.693 147.623 173.85 145.778 174.57 145.175C177.57 141.702 181.448 139.116 184.829 136C190.236 131.791 196.038 127.902 202.594 125.688C205.938 124.344 209.201 122.835 212.857 122.438C212.93 122.471 213.003 122.495 213.075 122.508C212.651 126.149 212.235 129.792 210.941 133.227C210.593 133.815 210.508 134.636 211.227 134.968C211.377 135.025 211.518 135.04 211.656 135.025C211.777 135.008 211.895 134.964 212.008 134.895C212.61 135.558 213.932 135.996 214.519 136.522C221.786 141.192 230.241 143.366 238.515 145.494C244.989 147.339 251.678 147.846 258.363 147.226C259.273 147.129 260.203 147.024 261.137 146.903C268.606 145.952 276.524 144.207 282.016 138.921C282.395 138.492 282.663 138.003 282.889 137.481C283.148 137.343 283.35 137.097 283.386 136.802C283.492 135.409 283.633 134.134 283.766 132.779C290.139 133.435 296.222 136.396 301.891 139.314C305.749 141.593 309.757 143.672 313.387 146.3C316.036 148.383 318.641 150.516 321.346 152.519C328.884 158.533 336.361 164.996 341.945 172.94C350.657 186.17 358.065 200.509 361.457 216.077C362.581 220.97 363.771 225.879 363.835 230.921Z" fill="url(#paint2_linear_2419_311)"/>
</g>
<g id="Group_19">
<path id="vec18" d="M191.522 233.601H177.942C159.737 233.596 141.523 233.612 123.321 233.592C122.99 232.24 122.388 230.974 122.116 229.61C122.088 229.465 122.027 229.335 121.947 229.221C119.985 220.901 116.637 212.957 112.929 205.272C111.016 201.306 108.788 197.436 105.824 194.155C101.529 190.517 96.7408 184.818 101.549 179.513C101.897 179.577 102.176 179.496 102.39 179.327C103.332 180.727 104.19 182.074 104.659 183.305C104.59 183.45 104.558 183.608 104.57 183.774C104.679 184.511 105.29 184.697 106.034 184.697C106.431 184.697 106.863 184.644 107.279 184.592C107.818 184.523 108.327 184.454 108.695 184.498C111.959 184.22 115.205 184.025 118.364 183.09C134.571 180.019 149.215 170.828 160.019 158.485C161.411 156.821 162.705 155.008 163.509 152.989C163.728 152.411 164.043 151.702 163.748 151.103C163.639 150.857 163.477 150.686 163.288 150.585C162.996 149.221 162.669 147.857 162.312 146.505C162.474 146.348 162.62 146.166 162.753 145.983C164.027 144.911 165.88 145.384 167.246 146.044C169.923 147.267 170.538 150.399 171.286 153.065C171.695 155.769 171.743 158.529 170.955 161.192C170.501 163.988 170.408 166.801 170.327 169.635C170.202 174.79 172.289 179.569 173.745 184.409C178.884 198.558 183.583 212.876 188.821 226.984C188.703 227.696 189.451 228.599 189.686 229.274C190.325 230.31 190.696 231.463 191.129 232.593C191.121 232.665 191.125 232.739 191.137 232.815C191.239 233.091 191.388 233.342 191.522 233.601Z" fill="url(#paint3_linear_2419_311)"/>
</g>
<g id="Group_20">
<path id="vec19" d="M152.175 140.662C152.236 140.892 152.344 141.066 152.478 141.18C151.362 142.253 150.064 143.183 148.919 144.155C146.861 145.964 144.608 147.518 142.441 149.193C136.998 153.923 131.058 157.987 124.72 161.423C120.224 164.126 115.492 166.644 110.551 168.497C108.99 169.075 107.397 169.622 105.775 170.043C106.094 169.391 105.432 168.4 105.165 167.733C104.59 166.4 104.008 165.073 103.45 163.733C102.884 162.649 102.867 161.374 102.394 160.314C101.359 159.266 100.251 160.791 99.3207 161.241C99.2038 161.12 99.151 160.957 99.0868 160.804C98.8559 159.942 98.8114 158.307 97.5495 158.473C97.3279 158.428 97.0971 158.424 96.8911 158.453C89.8991 158.946 82.9113 159.711 75.9069 160.262C68.2969 160.82 60.7428 161.897 53.1276 162.362C48.7931 162.285 44.2516 162.398 39.8963 162.718C38.7483 162.831 37.5991 162.924 36.4511 162.993C36.6043 162.697 36.6126 162.33 36.3579 161.977C32.8599 158.254 24.0521 157.413 20.6876 161.775C19.4018 161.107 18.2983 160.152 17.5332 158.8C17.6223 156.886 19.2962 155.437 20.4133 154.012C23.1504 151.556 26.5998 150.735 30.1144 149.82C40.6562 146.707 51.5996 145.676 62.4975 144.365C65.4904 143.952 68.3 143.486 71.3498 143.236C72.4782 142.884 75.5394 143.527 75.5311 141.896C75.499 141.164 74.7547 140.86 74.1159 140.998C69.9015 141.354 65.7088 141.9 61.5234 142.52C50.0344 143.798 38.3518 145.17 27.2551 148.594C24.6432 149.136 21.7922 150.375 19.5561 152.208C16.3489 149.643 11.3343 149.703 8.05051 152.127C7.16125 152.71 6.36826 153.636 6.15396 154.681C4.88477 154.337 3.69943 153.782 2.69318 152.944C0.0523016 147.667 9.45014 143.066 13.3892 141.484C26.5511 136.145 40.7939 134.826 54.7374 132.807C60.1807 132.058 65.5991 131.386 71.0258 130.521C72.3001 130.245 73.5776 129.986 74.8592 129.763C75.3893 129.67 75.7454 129.137 75.6522 128.614C75.1263 127.031 73.0641 128.282 71.855 128.326C66.626 129.334 61.3122 129.88 56.0356 130.642C41.0165 132.799 25.5967 134.171 11.4844 140.148C10.6345 140.459 9.79798 140.832 8.98946 141.249C8.81865 141.095 8.6292 140.953 8.44286 140.848C7.53289 140.059 6.42933 139.31 5.92828 138.169C4.02345 132.2 18.5892 128.343 22.8429 126.712C31.5865 123.997 40.8063 123.309 49.7714 121.568C57.3007 120.301 64.7295 118.95 72.3364 118.088C73.1894 117.955 74.6615 118.197 74.6532 116.938C74.4959 115.607 72.9751 116.089 72.0455 116.153C65.1218 116.934 58.1703 118.133 51.2963 119.331C42.6418 120.974 33.8185 121.855 25.2695 123.968C23.3937 124.543 21.4889 125.118 19.5965 125.74C19.5923 125.736 19.5923 125.732 19.5882 125.729C17.4608 121.459 25.4755 115.397 29.0833 114.24C44.5269 108.833 60.8919 106.869 76.9225 103.96C78.8915 103.644 80.8522 103.353 82.8502 103.239C83.1618 108.703 86.8741 113.215 91.043 116.615C97.2058 120.682 105.067 121.548 112.297 121.811C112.382 121.832 112.46 121.84 112.537 121.84C113.555 121.84 113.879 120.205 112.804 119.877C107.991 119.764 103.05 119.172 98.3787 117.845C91.4478 116.057 84.638 109.501 84.8606 101.945C84.8637 101.774 84.8637 101.475 84.8637 101.175C84.7788 99.8803 82.8419 100.002 82.8782 101.281C82.4092 101.2 81.8357 101.293 81.2849 101.386C80.845 101.459 80.4205 101.532 80.0758 101.519C73.9938 102.547 67.8797 103.491 61.7863 104.527C61.7128 104.393 61.6 104.272 61.4385 104.171C60.8877 103.839 60.3018 103.616 59.6993 103.402C57.5802 102.848 55.9103 101.685 54.8347 99.7146C53.4113 96.9909 56.2499 94.3884 59.1454 92.5795C59.7231 93.2519 60.6942 93.5917 61.5151 93.83C62.336 94.1014 63.1528 94.2226 63.9572 94.2226C66.6509 94.2226 69.2265 92.8913 71.5765 91.5435C72.3643 90.9736 75.0259 89.1844 75.7247 87.7154C76.675 87.6221 77.6254 87.5537 78.5799 87.5009C83.8254 87.2222 89.0616 87.6625 94.2988 87.8407C99.8632 88.1526 105.549 88.3059 110.801 90.3624C118.61 92.6126 125.315 97.7192 131.453 102.899C140.698 113.155 146.857 125.882 151.5 138.816C151.54 139.047 151.64 139.29 151.758 139.537C151.763 139.553 151.77 139.569 151.774 139.585C151.795 139.646 151.823 139.707 151.859 139.76C151.855 139.763 151.859 139.767 151.863 139.771C152.009 140.079 152.142 140.378 152.175 140.662Z" fill="url(#paint4_linear_2419_311)"/>
</g>
<g id="Group_21">
<path id="vec20" d="M72.7771 88.0763C69.7283 91.0342 64.8596 93.4056 60.993 91.5242C61.6608 91.1719 62.2757 90.8767 62.7767 90.6498C66.0077 89.4035 69.3639 88.5819 72.7771 88.0763Z" style="fill: var(--tertiary-fixed);"/>
</g>
<g id="Group_22">
<path id="vec21" d="M18.1002 153.587C17.8609 153.846 17.6345 154.114 17.4321 154.392C16.8095 154.389 16.0654 154.708 15.4878 154.712C13.231 155.065 10.5947 155.349 8.11582 155.054C9.89901 151.825 15.161 151.532 18.1002 153.587Z" style="fill: var(--tertiary-fixed);"/>
</g>
<g id="Group_23">
<path id="vec22" d="M32.3956 161.678C33.2399 161.981 34.0931 162.41 34.7042 163.077C33.2806 163.135 31.8574 163.155 30.4297 163.135C28.0111 163.285 25.1526 163.277 22.6492 162.544C25.1847 160.084 29.2647 160.755 32.3956 161.678Z" style="fill: var(--tertiary-fixed);"/>
</g>
<g id="Group_24">
<path id="vec23" d="M113.879 182.001C113.001 182.127 112.124 182.224 111.242 182.293C109.67 182.427 108.096 182.58 106.515 182.673C106.458 182.536 106.374 182.394 106.257 182.257C105.468 180.399 104.339 178.727 103.3 177.007C102.35 175.51 100.907 173.831 100.336 172.034C100.773 172.256 101.278 172.422 101.853 172.524C102.014 172.532 102.18 172.536 102.342 172.536C104.335 172.536 106.321 172.038 108.254 171.379C108.262 171.386 108.27 171.394 108.278 171.403C110.252 174.855 112.193 178.379 113.879 182.001Z" style="fill: var(--primary-fixed-dim);"/>
</g>
<g id="Group_25">
<path id="vec24" d="M123.584 179.371C123.625 179.521 123.686 179.646 123.771 179.748C121.166 180.529 118.521 181.217 115.844 181.695C115.788 181.394 115.65 181.095 115.504 180.84C114.757 178.926 113.629 177.182 112.698 175.345C111.776 173.855 111.166 172.123 110.175 170.683C110.89 170.411 111.603 170.132 112.298 169.865C114.11 169.144 115.913 168.396 117.672 167.57C117.721 167.87 117.903 168.141 118.226 168.267C120.086 171.917 122.019 175.587 123.584 179.371Z" style="fill: var(--primary-fixed-dim);"/>
</g>
<g id="Group_26">
<path id="vec25" d="M134.228 175.478C134.268 175.575 134.317 175.66 134.37 175.733C132.052 176.87 129.828 177.797 127.798 178.464C127.042 178.716 126.281 178.967 125.517 179.205C125.526 179.108 125.513 179.007 125.49 178.897C123.956 174.936 121.854 171.095 119.969 167.279C119.839 167.061 119.674 166.85 119.48 166.684C120.903 165.951 122.295 165.154 123.633 164.26C125.036 163.511 126.432 162.738 127.81 161.937C129.937 166.469 132.525 170.751 134.228 175.478Z" style="fill: var(--primary-fixed-dim);"/>
</g>
<g id="Group_27">
<path id="vec26" d="M143.355 170.039C143.412 170.189 143.488 170.31 143.582 170.403C141.098 172.066 138.559 173.572 136.092 174.863C136.084 174.838 136.076 174.81 136.068 174.786C134.798 170.917 132.606 167.416 130.936 163.714C130.483 162.775 129.946 161.877 129.541 160.917C132.044 159.419 134.49 157.825 136.861 156.122C139.072 160.711 141.794 165.179 143.355 170.039Z" style="fill: var(--primary-fixed-dim);"/>
</g>
<g id="Group_28">
<path id="vec27" d="M151.552 163.228C151.673 163.552 151.896 163.737 152.15 163.811C149.982 165.745 147.621 167.594 145.183 169.306C143.76 164.599 141.03 160.367 139.019 155.886C138.891 155.583 138.705 155.227 138.465 154.939C139.715 153.997 140.945 153.022 142.137 152.01C143.198 151.103 144.297 150.237 145.409 149.387C145.438 149.476 145.491 149.566 145.555 149.655C147.682 154.167 149.513 158.642 151.552 163.228Z" style="fill: var(--primary-fixed-dim);"/>
</g>
<g id="Group_29">
<path id="vec28" d="M157.165 158.662C157.173 158.683 157.177 158.704 157.189 158.723C156.049 160.051 154.779 161.366 153.42 162.649C153.408 162.613 153.395 162.576 153.384 162.54C151.657 158.428 149.748 154.308 148.034 150.152C147.731 149.561 147.504 148.902 147.095 148.38C147.043 148.319 146.986 148.27 146.925 148.23C148.378 147.129 149.825 146.028 151.22 144.858C151.257 144.903 151.301 144.943 151.346 144.98C153.372 149.516 155.656 153.883 157.165 158.662Z" style="fill: var(--primary-fixed-dim);"/>
</g>
<g id="Group_30">
<path id="vec29" d="M161.552 151.779C161.569 151.913 161.605 152.034 161.658 152.135C160.905 153.701 159.902 155.283 158.701 156.858C157.763 153.491 154.452 147.623 154.115 146.166C153.812 145.494 153.387 144.163 152.736 143.54C153.428 142.916 154.1 142.265 154.743 141.581C156.02 140.419 156.906 138.477 156.663 136.838C157.711 138.056 158.212 140.165 158.714 141.564C159.999 144.867 160.784 148.332 161.552 151.779Z" style="fill: var(--primary-fixed-dim);"/>
</g>
<g id="Group_31">
<path id="vec30" d="M99.03 51.9522C99.883 53.0898 100.227 55.6073 98.2815 55.6591C96.2069 55.9792 87.6424 51.2001 89.5265 49.0472C89.7574 48.982 89.9634 48.84 90.1011 48.6463C90.3475 48.4598 90.481 48.1562 90.4769 47.8527C93.6033 48.12 97.2504 49.1073 99.03 51.9522Z" fill="#3B080F"/>
</g>
<g id="Group_32">
<path id="vec31" d="M119.051 49.3988C121.086 50.1073 130.496 56.8731 124.203 57.3022C121.25 57.1368 115.318 52.7384 115.525 49.5729C115.642 49.1606 116.253 49.2538 116.609 49.2414C117.393 49.2774 118.307 49.8121 119.051 49.3988Z" fill="#3B080F"/>
</g>
<g id="Group_33">
<path id="vec32" d="M149.744 52.8306C150.731 53.7693 151.738 55.0684 151.507 56.5292C150.841 57.327 149.615 57.4565 148.645 57.6388C145.729 57.4482 143.456 54.7203 142.203 52.2805C141.159 50.4022 141.814 49.7143 143.849 50.3421C145.527 50.9689 146.768 52.0619 148.276 53.1383C148.749 53.4989 149.457 53.3528 149.744 52.8306Z" fill="#3B080F"/>
</g>
<g id="Group_34">
<path id="vec33" d="M271.574 45.6106C272.334 47.6712 272.76 55.2746 269.875 55.6393C269.536 55.6838 269.224 55.5222 269.026 55.2425C267.236 52.1427 268.441 47.3956 271.574 45.6106Z" fill="url(#paint5_linear_2419_311)"/>
</g>
<g id="Group_35">
<path id="vec34" d="M259.022 43.1423C259.143 45.3604 259.648 47.6469 259.345 49.8526C258.893 50.9891 258.181 51.8314 257.368 52.77C256.421 49.6702 256.131 45.2951 259.022 43.1423Z" fill="url(#paint6_linear_2419_311)"/>
</g>
<g id="Group_36">
<path id="vec35" d="M250.364 47.2738C250.065 48.7232 249.531 51.0222 248.221 51.7909C244.69 51.1475 246.074 41.9197 248.047 40.1439C248.763 42.5434 250.226 44.7169 250.364 47.2738Z" fill="url(#paint7_linear_2419_311)"/>
</g>
<g id="Group_37">
<path id="vec36" d="M233.978 40.6735C235.345 44.2022 236.889 48.3545 235.592 52.1018C235.514 52.1588 235.397 52.163 235.3 52.163C231.88 51.9889 232.491 42.6243 233.978 40.6735Z" fill="url(#paint8_linear_2419_311)"/>
</g>
</g>
<g id="Outlines">
<g id="Group_38">
<path id="vec37" d="M26.0701 165.19C22.9816 164.955 19.9024 164.181 17.5102 162.096C16.5186 161.293 15.4909 160.233 15.4297 158.884C16.1343 153.355 22.0761 149.71 27.1258 148.661C38.2313 145.235 49.9232 143.862 61.4214 142.581C65.6102 141.962 69.8073 141.416 74.024 141.059C74.6633 140.921 75.4082 141.225 75.4403 141.958C75.4486 143.59 72.385 142.946 71.2557 143.299C68.2045 143.55 65.3916 144.015 62.3974 144.429C51.4897 145.741 40.5386 146.773 29.9874 149.888C26.471 150.804 23.0189 151.626 20.2785 154.084C19.1616 155.51 17.4863 156.96 17.3972 158.875C19.8661 163.233 25.839 163.489 30.3034 163.214C33.4717 163.254 36.6285 163.108 39.7771 162.797C44.1368 162.476 48.681 162.363 53.02 162.44C60.6402 161.975 68.2003 160.897 75.8174 160.337C82.8264 159.787 89.8198 159.022 96.8173 158.527C97.6513 158.41 98.8252 158.875 98.4853 159.912C98.3154 160.411 97.756 160.706 97.2504 160.549C82.8222 161.525 68.4065 163.072 54.0115 164.397C49.3006 164.234 44.6134 164.51 39.9315 164.789C36.1996 165.007 32.4688 165.23 28.7286 165.23C27.8428 165.23 26.9569 165.218 26.0701 165.19Z" fill="#3B080F"/>
</g>
<g id="Group_39">
<path id="vec38" d="M9.05517 157.179C-7.1208 155.639 1.37384 143.878 11.3418 140.209C25.4663 134.226 40.8974 132.854 55.9285 130.695C61.2103 129.934 66.5284 129.386 71.7605 128.378C72.9706 128.334 75.0355 127.082 75.5608 128.666C75.654 129.188 75.2987 129.722 74.7682 129.816C73.4855 130.038 72.206 130.298 70.9317 130.573C65.4996 131.44 60.0769 132.112 54.6293 132.862C40.6757 134.883 26.4216 136.203 13.2481 141.545C9.3059 143.129 -0.0994376 147.733 2.54355 153.015C5.93042 155.834 11.2651 155.422 15.3482 154.785C16.2951 154.777 17.6876 153.931 18.2782 155.033C18.7278 156.061 17.6555 156.591 16.7769 156.58C14.7172 156.899 12.6285 157.243 10.5409 157.243C10.0425 157.243 9.54937 157.224 9.05517 157.179Z" fill="#3B080F"/>
</g>
<g id="Group_40">
<path id="vec39" d="M7.66388 142.918C3.31347 140.03 1.94588 135.891 6.25173 132.141C11.7553 128.017 18.6274 126.005 25.1391 124.016C33.6948 121.902 42.5252 121.019 51.1866 119.374C58.066 118.176 65.0232 116.977 71.9523 116.195C72.8827 116.13 74.4047 115.648 74.5622 116.981C74.5704 118.24 73.0972 117.997 72.2435 118.131C64.6305 118.994 57.1968 120.347 49.6605 121.614C40.6882 123.356 31.4611 124.044 22.7106 126.762C18.4534 128.394 3.87605 132.254 5.7824 138.228C6.28385 139.37 7.38829 140.119 8.29898 140.91C9.03148 141.335 9.87794 142.238 9.04391 143.003C8.86156 143.162 8.62327 143.238 8.38809 143.238C8.11767 143.238 7.84623 143.133 7.66388 142.918Z" fill="#3B080F"/>
</g>
<g id="Group_41">
<path id="vec40" d="M17.9805 127.143C14.9532 122.186 20.4899 117.431 24.0549 114.583C26.2928 113.064 28.798 112.202 31.3478 111.432C47.1684 106.446 63.6842 104.304 79.9907 101.549C80.3347 101.562 80.7594 101.489 81.2008 101.415C82.297 101.23 83.4832 101.043 83.734 102.23C83.7619 102.764 83.3413 103.238 82.8067 103.267C80.7957 103.38 78.8168 103.672 76.8338 103.992C60.7905 106.903 44.4124 108.868 28.9565 114.28C25.3459 115.438 17.3247 121.504 19.4538 125.777C19.6962 126.159 20.004 126.531 19.9553 127.013C19.9231 127.604 19.4331 127.916 18.9482 127.916C18.511 127.916 18.0738 127.665 17.9805 127.143Z" fill="#3B080F"/>
</g>
<g id="Group_42">
<path id="vec41" d="M112.236 121.858C105 121.594 97.1326 120.727 90.9649 116.657C86.3068 112.862 82.2185 107.673 82.7936 101.323C82.7449 100.031 84.6958 99.9054 84.7807 101.206C84.7807 101.505 84.7807 101.805 84.7766 101.975C84.5538 109.537 91.369 116.098 98.3065 117.888C102.98 119.217 107.926 119.808 112.742 119.921C113.818 120.249 113.495 121.885 112.476 121.885C112.398 121.885 112.321 121.877 112.236 121.858Z" fill="#3B080F"/>
</g>
<g id="Group_43">
<path id="vec42" d="M151.744 139.646C147.066 126.437 140.842 113.396 131.408 102.93C125.264 97.7458 118.554 92.6352 110.739 90.3831C105.482 88.326 99.7913 88.1715 94.2225 87.8595C88.9821 87.6811 83.7407 87.2405 78.492 87.5194C73.0931 87.8107 67.7263 88.7221 62.6755 90.6704C59.673 92.0317 52.6434 95.7613 54.7269 99.7428C55.8033 101.716 57.4755 102.878 59.5964 103.433C60.1993 103.648 60.7857 103.87 61.3359 104.202C62.4455 104.891 61.2996 106.571 60.248 105.855C58.1231 104.874 55.593 104.438 54.1892 102.36C50.0325 98.0455 53.724 93.6399 57.775 91.0716C64.4928 86.8153 72.7491 85.7536 80.5517 85.5027C86.0718 85.3814 91.5722 85.8386 97.0799 86.0574C101.56 86.3851 106.162 86.5883 110.387 88.2161C116.777 89.8886 122.367 93.4211 127.588 97.3653C133.241 100.986 137.263 106.418 140.74 112.055C145.415 119.034 148.948 126.717 152.012 134.518C152.586 136.004 153.145 137.494 153.626 139.013C153.789 139.532 153.517 140.099 152.999 140.273C152.902 140.305 152.797 140.322 152.696 140.322C152.286 140.322 151.886 140.059 151.744 139.646Z" fill="#3B080F"/>
</g>
<g id="Group_44">
<path id="vec43" d="M103.902 169.973C102.899 167.523 101.66 165.158 100.883 162.622C98.7419 164.319 97.0914 162.473 96.8521 160.236C96.2823 159.718 96.6055 158.698 97.3629 158.568C98.7346 158.285 98.775 159.994 99.0133 160.88C99.0786 161.035 99.1314 161.196 99.2485 161.318C100.179 160.869 101.289 159.341 102.325 160.391C102.798 161.451 102.814 162.728 103.38 163.813C103.939 165.154 104.522 166.482 105.096 167.815C105.44 168.677 106.448 170.075 105.145 170.593C105.044 170.63 104.943 170.645 104.841 170.645C104.44 170.645 104.064 170.375 103.902 169.973Z" fill="#3B080F"/>
</g>
<g id="Group_45">
<path id="vec44" d="M61.4134 93.8543C60.3576 93.5464 59.0501 93.0726 58.645 91.9383C58.3176 91.0922 58.933 90.1362 59.8272 90.047C60.6042 89.9299 61.2352 90.8371 60.8311 91.5173C65.3307 93.7652 71.2114 90.1963 74.0035 86.641C74.2429 86.1589 74.9028 86.0168 75.3515 86.2719C77.2661 87.6447 72.5748 90.7759 71.4828 91.566C69.131 92.9139 66.5532 94.2473 63.8574 94.2473C63.0524 94.2473 62.235 94.125 61.4134 93.8543Z" fill="#3B080F"/>
</g>
<g id="Group_46">
<path id="vec45" d="M21.2279 164.489C19.7951 164.457 19.5765 163.052 20.3784 162.088C23.6119 157.458 32.6774 158.264 36.2383 162.056C36.9916 163.093 35.4499 164.266 34.6646 163.242C34.045 162.525 33.155 162.071 32.2723 161.756C28.9745 160.783 24.6189 160.087 22.1262 163.04C22.4702 163.659 21.9687 164.489 21.2642 164.489H21.2279Z" fill="#3B080F"/>
</g>
<g id="Group_47">
<path id="vec46" d="M6.10121 156.17C5.54278 154.591 6.62339 153.04 7.90603 152.197C11.4276 149.597 16.9394 149.715 20.0797 152.87C20.9707 153.756 19.6425 155.121 18.7359 154.307C16.037 151.557 9.85278 151.585 7.934 155.186C8.1122 155.875 8.16918 156.644 7.31962 156.888C7.2388 156.907 7.15696 156.92 7.07614 156.92C6.63893 156.92 6.22243 156.62 6.10121 156.17Z" fill="#3B080F"/>
</g>
<g id="Group_48">
<path id="vec47" d="M101.782 172.61C98.561 172.051 97.4234 169.402 99.5763 166.81C100.22 166.158 101.098 164.627 102.138 165.494C102.531 165.854 102.567 166.499 102.199 166.891C100.406 168.575 99.2365 170.427 102.657 170.747C105.336 170.37 107.954 169.52 110.487 168.58C115.433 166.725 120.168 164.206 124.669 161.5C131.01 158.062 136.955 153.995 142.403 149.261C144.572 147.583 146.827 146.028 148.886 144.218C150.991 142.432 153.617 140.78 154.686 138.135C154.779 137.434 154.678 136.029 153.653 136.418C153.188 136.511 152.796 136.867 152.307 136.822C151.816 136.798 151.424 136.348 151.404 135.874C151.383 135.421 151.711 134.947 152.173 134.862C152.99 134.497 153.929 134.238 154.812 134.502C157.806 135.915 156.766 139.779 154.714 141.642C150.963 145.632 146.243 148.539 142.099 152.079C136.441 156.871 130.095 160.856 123.58 164.339C120.051 166.693 116.17 168.386 112.236 169.949C109.075 171.156 105.691 172.622 102.272 172.622C102.109 172.622 101.944 172.618 101.782 172.61Z" fill="#3B080F"/>
</g>
<g id="Group_49">
<path id="vec48" d="M161.529 151.848C160.76 148.398 159.975 144.931 158.688 141.626C157.85 139.289 157.017 134.967 153.621 136.126C152.808 137.957 150.744 136.07 152.067 134.765C154.325 133.076 157.761 134.239 158.911 136.714C160.979 141.492 162.432 146.539 163.472 151.638C163.54 152.322 163.011 152.699 162.484 152.699C162.043 152.699 161.602 152.432 161.529 151.848Z" fill="#3B080F"/>
</g>
<g id="Group_50">
<path id="vec49" d="M104.708 183.72C103.158 179.009 95.3385 172.484 98.9854 167.681C99.9645 166.903 101.187 168.394 100.276 169.228C99.204 172.112 101.786 174.817 103.234 177.097C104.275 178.818 105.404 180.492 106.193 182.351C106.974 183.286 106.391 184.327 105.642 184.327C105.331 184.327 104.995 184.153 104.708 183.72Z" fill="#3B080F"/>
</g>
<g id="Group_51">
<path id="vec50" d="M104.504 183.869C104.468 183.347 104.876 182.857 105.406 182.825C107.341 182.744 109.259 182.549 111.181 182.387C116.847 181.95 122.388 180.342 127.751 178.555C139.151 174.805 156.727 162.902 161.799 151.869C161.341 150.613 163.203 149.957 163.729 151.172C164.024 151.771 163.709 152.481 163.491 153.06C162.685 155.081 161.39 156.896 159.998 158.56C149.184 170.913 134.529 180.111 118.308 183.185C115.147 184.121 111.898 184.315 108.631 184.595C108.264 184.55 107.754 184.619 107.215 184.687C106.799 184.74 106.366 184.793 105.969 184.793C105.224 184.793 104.614 184.606 104.504 183.869Z" fill="#3B080F"/>
</g>
<g id="Group_52">
<path id="vec51" d="M113.985 182.452C112.261 178.702 110.253 175.056 108.215 171.489C107.231 170.641 108.44 169.139 109.473 169.941C110.869 171.504 111.533 173.647 112.637 175.433C113.569 177.272 114.697 179.017 115.446 180.933C115.798 181.545 116.106 182.436 115.317 182.857C115.175 182.934 115.013 182.971 114.856 182.971C114.499 182.971 114.143 182.788 113.985 182.452Z" fill="#3B080F"/>
</g>
<g id="Group_53">
<path id="vec52" d="M123.531 179.463C121.965 175.676 120.03 172.002 118.169 168.349C117.262 168.005 117.493 166.507 118.481 166.454C119.12 166.373 119.606 166.855 119.913 167.361C121.799 171.18 123.903 175.023 125.438 178.989C125.612 179.718 125.02 180.184 124.446 180.184C124.049 180.184 123.661 179.965 123.531 179.463Z" fill="#3B080F"/>
</g>
<g id="Group_54">
<path id="vec53" d="M134.184 175.566C132.473 170.812 129.866 166.51 127.728 161.95C127.543 161.536 127.386 161.087 127.652 160.661C128.065 159.932 129.271 160.083 129.458 160.905C129.866 161.897 130.424 162.824 130.889 163.793C132.562 167.498 134.755 171.002 136.025 174.874C136.305 175.631 135.681 176.19 135.067 176.19C134.715 176.19 134.362 176.008 134.184 175.566Z" fill="#3B080F"/>
</g>
<g id="Group_55">
<path id="vec54" d="M143.321 170.123C141.754 165.25 139.027 160.771 136.809 156.17C136.469 155.749 136.433 155.141 136.854 154.748C137.829 153.919 138.63 155.126 138.983 155.959C140.998 160.455 143.741 164.7 145.162 169.426C145.446 170.192 144.806 170.751 144.191 170.751C143.835 170.751 143.486 170.564 143.321 170.123Z" fill="#3B080F"/>
</g>
<g id="Group_56">
<path id="vec55" d="M151.523 163.306C149.483 158.717 147.65 154.238 145.521 149.722C144.789 148.758 146.237 147.531 147.063 148.446C147.472 148.969 147.699 149.629 148.003 150.22C149.718 154.38 151.629 158.503 153.356 162.618C153.648 163.368 153.009 163.922 152.389 163.927C152.033 163.927 151.685 163.74 151.523 163.306Z" fill="#3B080F"/>
</g>
<g id="Group_57">
<path id="vec56" d="M157.138 158.738C155.629 153.955 153.342 149.585 151.315 145.044C150.89 144.7 150.825 144.06 151.169 143.631C152.763 142.258 153.589 145.133 154.087 146.231C154.552 148.248 160.716 158.718 158.405 159.313C158.296 159.354 158.183 159.375 158.065 159.375C157.665 159.375 157.264 159.139 157.138 158.738Z" fill="#3B080F"/>
</g>
<g id="Group_58">
<path id="vec57" d="M152.146 140.723C152.04 139.759 150.717 138.539 152.008 137.867C151.87 137.094 151.955 135.956 152.967 135.936C154.396 134.385 156.848 137.782 154.902 138.568C155.27 139.229 154.897 140.213 154.08 140.196C154.254 140.978 153.655 141.484 153.069 141.484C152.676 141.484 152.288 141.254 152.146 140.723Z" fill="#3B080F"/>
</g>
<g id="Group_59">
<path id="vec58" d="M101.101 170.719C100.692 170.313 100.345 169.82 100.073 169.309C99.8868 168.754 100.211 168.042 100.721 167.762C100.878 167.175 100.757 166.543 101.061 165.996C101.424 165.364 102.409 165.271 102.861 165.842C104.659 166.259 104.581 168.345 104.614 169.787C104.659 170.993 103.857 171.541 102.95 171.541C102.295 171.541 101.587 171.253 101.101 170.719Z" fill="#3B080F"/>
</g>
<g id="Group_60">
<path id="vec59" d="M189.224 228.212C183.821 213.737 179.01 199.034 173.732 184.507C172.275 179.663 170.187 174.879 170.312 169.719C170.393 166.884 170.486 164.07 170.94 161.27C171.728 158.605 171.68 155.843 171.271 153.138C170.522 150.468 169.907 147.334 167.229 146.11C165.86 145.451 164.007 144.977 162.732 146.05C162.283 146.662 161.667 147.321 160.894 146.739C160.454 146.386 160.417 145.779 160.733 145.333C161.975 143.539 164.318 143.134 166.322 143.677C170.96 144.596 172.643 149.518 173.323 153.657C174.088 158.371 172.295 162.952 172.32 167.642C171.741 174.377 174.63 180.736 176.679 186.97C180.377 197.439 184.097 207.9 187.711 218.398C188.819 221.441 189.779 224.526 191.041 227.503C191.333 228.232 190.698 228.824 190.078 228.824C189.738 228.824 189.402 228.646 189.224 228.212Z" fill="#3B080F"/>
</g>
<g id="Group_61">
<path id="vec60" d="M120.446 231.239C117.641 220.466 113.501 209.821 107.815 200.186C105.143 195.208 99.4212 192.571 97.8712 186.966C96.944 183.475 98.122 178.862 101.546 177.193C102.449 177.007 102.845 177.699 102.809 178.391C102.769 179.077 102.302 179.761 101.481 179.603C96.6694 184.912 101.461 190.615 105.759 194.256C108.725 197.541 110.956 201.414 112.87 205.383C116.65 213.215 120.053 221.316 122 229.809C122.299 230.486 122.603 231.442 121.709 231.797C121.595 231.842 121.478 231.867 121.365 231.867C120.976 231.867 120.599 231.623 120.446 231.239Z" fill="#3B080F"/>
</g>
<g id="Group_62">
<path id="vec61" d="M242.423 125.372C235.899 123.696 229.063 122.971 222.872 120.212C220.423 119.09 217.91 118.091 215.562 116.774C212.519 115.49 213.842 113.639 216.42 113.015C216.915 112.884 217.839 112.698 218.69 112.705C218.647 113.025 218.602 113.343 218.63 113.672C218.657 114.022 218.719 114.372 218.805 114.714C218.006 114.647 217.21 114.735 216.46 115.053C223.551 119.009 231.277 121.185 239.217 122.623C246.429 124.563 253.552 125.534 260.971 125.83C263.889 125.963 270.182 126.243 275.322 125.689C275.346 125.7 275.371 125.708 275.399 125.721C275.504 125.757 275.609 125.774 275.719 125.774C275.953 125.774 276.192 125.697 276.415 125.612C276.488 125.595 276.564 125.579 276.637 125.567C276.787 125.64 276.957 125.676 277.131 125.656C277.317 125.636 277.503 125.6 277.685 125.555C277.836 125.587 277.993 125.591 278.15 125.559C278.418 125.51 278.681 125.434 278.94 125.353C279.182 125.275 279.442 125.198 279.668 125.077C279.81 125 279.936 124.899 280.033 124.781C281.08 124.441 281.923 124.012 282.465 123.477C281.999 122.963 281.259 122.768 280.526 122.574C280.519 122.505 280.502 122.44 280.478 122.375C280.454 122.311 280.426 122.245 280.389 122.185C280.409 122.051 280.401 121.914 280.365 121.784C280.502 121.578 280.583 121.342 280.562 121.083C280.547 120.864 280.506 120.645 280.397 120.456C280.397 120.439 280.401 120.428 280.401 120.411C282.857 121.051 286.245 122.808 283.36 125.405C281.211 126.944 278.422 127.199 275.872 127.544C272.53 127.811 269.159 127.956 265.787 127.956C257.924 127.956 250.043 127.175 242.423 125.372Z" fill="#3B080F"/>
</g>
<g id="Group_63">
<path id="vec62" d="M282.329 137.651C280.848 137.232 281.836 135.089 281.743 134.007C281.933 132.394 282.044 130.8 282.103 129.179C282.136 127.578 282.306 125.969 282.25 124.372C281.961 123.832 282.345 123.098 282.955 122.987C284.238 122.775 284.34 124.35 284.249 125.264C284.149 127.277 284.089 129.298 283.979 131.312C283.816 133.273 283.607 134.961 283.46 136.858C283.409 137.285 283.017 137.605 282.604 137.657C282.51 137.669 282.417 137.669 282.329 137.651Z" fill="#3B080F"/>
</g>
<g id="Group_64">
<path id="vec63" d="M211.247 135.025C210.527 134.692 210.61 133.868 210.96 133.282C212.967 127.963 212.862 122.142 213.935 116.599C213.194 115.317 215.159 114.413 215.787 115.722C216.177 117.766 215.19 119.913 215.141 121.998C214.748 123.84 214.043 134.779 211.674 135.08C211.538 135.098 211.397 135.079 211.247 135.025Z" fill="#3B080F"/>
</g>
<g id="Group_65">
<path id="vec64" d="M258.417 147.294C251.727 147.91 245.033 147.404 238.556 145.559C230.275 143.427 221.811 141.251 214.541 136.58C213.644 135.781 211.046 135.181 211.871 133.679C212.189 133.226 212.78 133.156 213.228 133.441C215.917 135.238 218.899 136.932 221.806 138.267C230.469 141.708 239.658 144.28 248.883 145.509C258.631 145.87 268.707 144.801 277.407 140.202C278.966 139.244 280.696 138.153 281.334 136.345C281.926 135.224 283.673 136.092 283.086 137.252C282.832 137.877 282.539 138.474 282.09 138.98C276.595 144.27 268.67 146.016 261.195 146.968C260.259 147.088 259.331 147.193 258.417 147.294Z" fill="#3B080F"/>
</g>
<g id="Group_66">
<path id="vec65" d="M218.161 137.904C217.249 137.53 217.601 136.545 217.918 135.864C219.677 130.933 219.854 125.565 221.483 120.573C220.997 118.132 224.308 117.832 223.523 120.574C222.658 123.616 221.973 126.756 221.396 129.851C220.991 131.255 220.398 137.716 218.568 137.949C218.439 137.966 218.306 137.95 218.161 137.904Z" fill="#3B080F"/>
</g>
<g id="Group_67">
<path id="vec66" d="M226.717 142.169C226.231 141.978 225.965 141.391 226.172 140.904C228.276 135.128 228.842 128.927 230.4 123C230.153 122.015 231.551 121.335 232.154 122.164C232.799 123.604 231.748 125.315 231.588 126.809C230.681 128.856 229.358 141.951 227.097 142.244C226.977 142.259 226.848 142.234 226.717 142.169Z" fill="#3B080F"/>
</g>
<g id="Group_68">
<path id="vec67" d="M236.87 144.301C236.203 144.055 236.163 143.235 236.43 142.712C238.173 136.85 238.894 130.753 240.149 124.778C238.792 123.563 240.766 122.16 241.855 123.5C242.198 123.983 242.166 124.628 242.095 125.188C241.614 128.046 240.856 130.849 240.464 133.725C239.978 136.763 239.289 139.778 238.463 142.75C238.313 143.394 238.034 144.282 237.364 144.368C237.219 144.387 237.054 144.367 236.87 144.301Z" fill="#3B080F"/>
</g>
<g id="Group_69">
<path id="vec68" d="M246.314 145.677C244.563 145.19 246.705 141.601 246.909 140.379C247.652 137.246 248.284 134.067 249.016 130.94C249.472 129.302 249.358 127.153 250.201 125.852C250.579 125.556 251.174 125.561 251.514 125.918C251.824 126.238 251.892 126.679 251.73 127.066C251.62 127.684 251.504 128.308 251.39 128.886C251.152 130.121 250.951 131.363 250.678 132.59C249.711 136.752 248.87 140.921 247.502 144.974C247.401 145.371 247.057 145.652 246.672 145.701C246.556 145.715 246.432 145.707 246.314 145.677Z" fill="#3B080F"/>
</g>
<g id="Group_70">
<path id="vec69" d="M255.415 146.95C254.397 146.517 254.934 145.383 255.244 144.644C256.325 138.872 257.413 133.156 258.112 127.335C257.886 126.621 258.62 125.845 259.341 126.063C260.765 126.608 259.834 128.458 259.826 129.578C259.244 133.764 258.475 138.072 257.674 142.195C257.397 143.288 257.303 146.815 255.874 146.998C255.733 147.016 255.581 147.002 255.415 146.95Z" fill="#3B080F"/>
</g>
<g id="Group_71">
<path id="vec70" d="M264.647 145.5C264.165 145.308 263.939 144.781 264.078 144.298C264.359 143.107 264.581 141.899 264.941 140.726C265.841 136.483 265.924 132.173 266.484 127.885C265.427 126.214 268.19 125.482 268.454 127.335C267.984 132.294 267.81 137.404 266.55 142.248C266.134 143.207 266.357 145.384 265.149 145.537C265.001 145.557 264.836 145.544 264.647 145.5Z" fill="#3B080F"/>
</g>
<g id="Group_72">
<path id="vec71" d="M274.067 141.493C273.402 141.043 273.793 140.304 273.924 139.727C274.808 135.36 275.325 130.962 275.613 126.553C275.821 125.979 276.514 125.724 277.05 126.015C277.753 126.386 277.581 127.249 277.526 127.901C277.388 129.376 277.253 130.851 277.09 132.325C276.88 134.267 276.607 136.36 276.178 138.239C275.932 139.218 275.959 141.514 274.826 141.658C274.617 141.685 274.367 141.639 274.067 141.493Z" fill="#3B080F"/>
</g>
<g id="Group_73">
<path id="vec72" d="M278.322 118.106C278.403 117.584 278.868 117.183 279.407 117.252C280.297 117.376 280.347 118.352 280.161 119.442C279.905 119.054 279.478 118.786 278.997 118.884C278.617 118.96 278.294 119.216 278.14 119.548C278.12 119.578 278.102 119.61 278.086 119.641C278.184 119.134 278.267 118.623 278.322 118.106Z" fill="#3B080F"/>
</g>
<g id="Group_74">
<path id="vec73" d="M277.646 126.591C277.206 126.488 276.905 126.074 276.853 125.64C276.944 125.661 277.037 125.667 277.132 125.656C277.319 125.635 277.5 125.599 277.686 125.554C277.837 125.586 277.994 125.591 278.152 125.558C278.419 125.51 278.682 125.433 278.941 125.352C278.96 125.346 278.977 125.341 278.996 125.334C278.846 126.005 278.575 126.527 278.007 126.599C277.959 126.605 277.909 126.608 277.857 126.608C277.791 126.608 277.722 126.602 277.646 126.591Z" fill="#3B080F"/>
</g>
<g id="Group_75">
<path id="vec74" d="M221.612 111.081C221.45 110.988 221.264 110.94 221.077 110.894C220.948 110.571 220.652 110.328 220.321 110.218C220.162 110.166 220.002 110.144 219.84 110.144C219.953 109.205 220.243 108.56 220.871 108.599C221.376 108.595 221.883 109.039 221.854 109.57C221.819 110.122 221.804 110.675 221.803 111.226C221.746 111.171 221.682 111.123 221.612 111.081Z" fill="#3B080F"/>
</g>
<g id="Group_76">
<path id="vec75" d="M220.357 117.918C219.893 117.577 219.618 116.972 219.879 116.464C219.893 116.475 219.906 116.486 219.92 116.496C219.977 116.566 220.041 116.63 220.118 116.687C220.236 116.772 220.374 116.836 220.507 116.893C220.684 116.987 220.858 117.08 221.037 117.165C221.134 117.214 221.236 117.258 221.332 117.306C221.376 117.327 221.421 117.346 221.466 117.367C221.589 117.424 221.713 117.48 221.839 117.535C221.678 117.851 221.416 118.082 221.089 118.124C221.056 118.129 221.022 118.131 220.987 118.131C220.796 118.131 220.583 118.065 220.357 117.918Z" fill="#3B080F"/>
</g>
<g id="Group_77">
<path id="vec76" d="M219.314 116.959C218.8 116.849 218.424 116.509 218.108 116.105C217.991 115.954 217.885 115.797 217.792 115.635C217.076 116.21 215.817 116.031 215.781 114.962C215.733 114.116 216.631 114.083 217.149 113.727C217.551 113.297 218.156 113.186 218.622 113.402C218.62 113.49 218.622 113.58 218.63 113.67C218.671 114.193 218.788 114.711 218.946 115.209C219.104 115.723 219.492 116.161 219.921 116.498C219.978 116.566 220.043 116.631 220.119 116.688C220.182 116.735 220.254 116.775 220.327 116.812C220.187 116.9 220.024 116.96 219.84 116.983C219.78 116.991 219.718 116.995 219.653 116.995C219.547 116.995 219.434 116.984 219.314 116.959Z" fill="#3B080F"/>
</g>
<g id="Group_78">
<path id="vec77" d="M280.066 125.284C279.965 125.239 279.868 125.186 279.779 125.129C279.618 125.223 279.436 125.261 279.254 125.252C279.397 125.202 279.539 125.147 279.669 125.076C280.049 124.87 280.305 124.498 280.268 124.064C280.398 123.869 280.442 123.651 280.434 123.42C280.434 123.347 280.422 123.278 280.402 123.21C280.41 123.193 280.418 123.181 280.427 123.165C280.548 122.918 280.572 122.63 280.478 122.375C280.455 122.31 280.427 122.246 280.389 122.185C280.406 122.051 280.402 121.914 280.365 121.784C280.499 121.577 280.584 121.343 280.564 121.083C280.555 120.966 280.541 120.852 280.512 120.742C282.358 120.641 282.672 123.276 282.158 124.615C281.924 125.044 281.43 125.288 280.924 125.352C280.829 125.365 280.733 125.372 280.639 125.372C280.436 125.372 280.24 125.342 280.066 125.284Z" fill="#3B080F"/>
</g>
<g id="Group_79">
<path id="vec78" d="M274.453 119.073C270.289 119.404 265.969 118.968 261.832 118.841C255.7 118.738 249.525 118.116 243.522 116.853C235.791 115.446 228.573 112.233 221.187 109.656C220.02 109.209 220.657 107.384 221.863 107.822C230.36 110.952 238.812 114.337 247.803 115.739C253.306 116.34 258.816 117.005 264.323 116.96C268.833 117.23 273.429 117.477 277.898 116.687C278.522 115.53 280.243 116.421 279.79 117.609C279.506 118.392 278.562 118.599 277.832 118.736C277.522 118.797 277.209 118.844 276.897 118.885C276.085 118.988 275.268 119.035 274.453 119.073Z" fill="#3B080F"/>
</g>
<g id="Group_80">
<path id="vec79" d="M277.806 117.409C275.453 117.582 279.686 106.051 280.24 104.67C282.637 98.5716 287.973 94.3672 292.744 90.1493C298.514 84.9961 303.886 79.1255 306.875 71.963C309.779 63.3042 309.845 53.701 308.619 44.7695C306.657 32.4393 297.883 22.5146 288.771 14.6118C283.398 10.0662 277.321 6.4974 270.818 3.9623C269.761 3.54549 268.669 3.23962 267.6 2.84873C267.081 2.67869 266.781 2.11671 266.946 1.59311C267.453 -0.100067 270.568 1.97259 271.695 2.16337C277.373 4.39985 282.745 7.43885 287.602 11.1352C296.972 18.6005 305.703 28.0213 309.471 39.6102C311.29 46.1029 311.566 52.9555 311.13 59.6576C310.777 66.9135 309.056 74.1631 304.615 80.0452C299.121 88.4872 290.238 93.6663 284.142 101.507C281.493 105.474 280.299 110.101 279.299 114.618C278.964 115.539 279.256 117.257 278.091 117.405C278.007 117.416 277.909 117.416 277.806 117.409Z" fill="#3B080F"/>
</g>
<g id="Group_81">
<path id="vec80" d="M268.89 3.55816C256.695 0.417543 243.012 1.8318 231.905 7.84138C230.804 8.45519 229.814 6.79727 230.927 6.14924C238.544 1.85876 247.314 0.11582 256.001 -0.000306606C260.559 0.0681257 265.246 0.381254 269.621 1.70531C270.258 1.84528 270.586 2.62396 270.257 3.17971C270.098 3.46588 269.818 3.64007 269.517 3.67843C269.304 3.70539 269.088 3.66806 268.89 3.55816Z" fill="#3B080F"/>
</g>
<g id="Group_82">
<path id="vec81" d="M201.522 54.7854C200.975 54.7532 200.597 54.2836 200.607 53.7506C200.626 50.4089 201.046 47.0764 202.026 43.8767C204.156 35.7136 207.735 27.8916 213.306 21.4974C218.832 15.1425 225.197 9.33722 232.332 4.84663C232.968 4.36553 234.02 4.48477 234.194 5.37749C234.367 6.3148 233.526 6.47448 232.891 6.80109C225.518 11.6691 218.928 17.6859 213.362 24.5364C208.541 30.6673 205.553 37.8993 203.643 45.3905C202.845 48.191 202.609 50.9843 202.556 53.8699C202.546 54.3406 202.147 54.7221 201.697 54.7802C201.637 54.7875 201.58 54.7906 201.522 54.7854Z" fill="#3B080F"/>
</g>
<g id="Group_83">
<path id="vec82" d="M220.907 108.736C219.361 100.89 214.504 94.4906 210.47 87.8071C205.519 78.2349 201.727 68.0002 201.149 57.1444C201.088 54.7752 200.488 52.0835 201.464 49.873C201.966 49.3069 202.983 49.5329 203.176 50.2753C203.299 50.8279 202.935 51.2738 202.981 51.8233C202.644 65.912 207.505 79.8026 215.079 91.547C218.219 96.0252 220.742 100.935 222.276 106.198C222.432 107.097 223.04 108.056 222.704 108.952C222.557 109.236 222.284 109.389 221.995 109.426C221.528 109.486 221.021 109.244 220.907 108.736Z" fill="#3B080F"/>
</g>
<g id="Group_84">
<path id="vec83" d="M79.1033 75.2102C72.2353 73.1323 64.8575 71.7512 58.9893 67.3892C55.6501 65.5509 52.457 62.9743 51.1577 59.2686C49.5715 55.0165 49.5881 50.33 50.1061 45.8788C51.1173 34.5626 62.9761 29.6168 72.5876 27.0859C81.3174 24.9147 90.2938 24.0116 99.2785 23.9474C111.294 23.3522 123.286 24.4212 135.163 26.2191C149.908 28.496 165.205 30.6298 178.278 38.3046C187.679 43.83 197.554 56.9399 190.35 67.6204C188.938 69.4515 187.246 71.0628 185.34 72.476C185.149 72.3028 184.955 72.1359 184.762 71.9659C184.49 71.7315 184.223 71.4962 183.947 71.2691C190.055 66.9963 192.904 60.9742 189.091 52.6141C181.005 36.4134 160.47 32.5501 144.225 29.6542C132.477 27.7256 120.618 25.8469 108.699 25.7618C93.5553 25.7494 56.3909 26.0407 52.3036 44.5184C51.2997 50.9946 51.021 59.2894 56.8157 63.6109C56.8322 63.6068 56.8488 63.6026 56.8643 63.5985C56.9659 63.6877 57.0674 63.7768 57.1679 63.8619C57.9978 64.5379 58.9002 65.1258 59.8275 65.6639C61.7007 66.7495 63.6599 67.6692 65.6584 68.4986C67.6259 69.3136 69.6369 70.0342 71.6448 70.7548C73.6029 71.464 75.5787 72.1359 77.5575 72.7964C79.468 73.4361 81.3702 74.1049 83.3087 74.6555C85.2876 75.2143 87.2986 75.7006 89.322 76.0811C90.3705 76.275 91.419 76.4419 92.4788 76.5508C93.2766 76.6358 94.0775 76.6846 94.8752 76.7333C108.032 79.0299 121.416 79.8884 134.739 80.6049C139.422 80.975 147.175 80.9014 155.444 79.9413C156.954 80.1829 158.457 80.4742 159.953 80.8008C159.957 80.8029 159.964 80.804 159.968 80.804C159.969 80.804 159.971 80.805 159.973 80.805C159.974 80.805 159.975 80.806 159.976 80.806C159.995 80.8123 160.015 80.8164 160.033 80.8195C160.022 80.8154 160.009 80.8154 159.997 80.8112C160.025 80.8154 160.05 80.8237 160.077 80.8278C160.066 80.8278 160.05 80.8237 160.033 80.8195C160.05 80.8237 160.066 80.8278 160.082 80.832C160.082 80.832 160.081 80.832 160.08 80.832C160.063 80.8278 160.046 80.8237 160.029 80.8195C160.044 80.8237 160.061 80.8278 160.08 80.832C160.525 80.9336 160.97 81.0414 161.413 81.1534C154.062 82.3126 146.683 82.6537 140.647 82.7522C120 81.986 99.1117 80.6858 79.1033 75.2102Z" fill="#3B080F"/>
</g>
<g id="Group_85">
<path id="vec84" d="M100.475 79.497C89.8316 78.3772 79.3726 76.0132 69.3404 72.2764C66.3835 71.1452 63.4577 69.9311 60.6396 68.4888C59.6937 67.8542 57.4693 67.2757 58.2277 65.8044C58.5778 65.2829 59.3445 65.2186 59.7838 65.6634C70.3402 71.6045 82.3316 74.7223 94.2017 76.7193C96.3235 77.0324 98.4599 77.2668 100.588 77.5415C101.118 77.5944 101.539 78.0278 101.507 78.5742C101.48 79.0895 101 79.552 100.475 79.497Z" fill="#3B080F"/>
</g>
<g id="Group_86">
<path id="vec85" d="M196.966 110.05C187.208 96.5875 172.999 85.4528 156.503 82.0674C155.086 82.4563 154.682 80.2447 156.143 80.0705C172.525 82.9342 186.97 93.7963 196.97 106.801C197.096 97.5393 196.087 87.8385 191.122 79.8113C189.601 77.6505 188.235 75.2626 186.302 73.445C186.145 73.2573 185.963 73.0852 185.8 72.9214C185.614 72.7327 185.42 72.5513 185.224 72.375C184.918 71.5766 185.929 70.5678 186.755 71.2531C195.513 79.1871 198.707 91.3379 198.953 102.824C198.765 104.22 199.591 110.432 197.845 110.432C197.604 110.432 197.314 110.315 196.966 110.05Z" fill="#3B080F"/>
</g>
<g id="Group_87">
<path id="vec86" d="M97.6622 57.6257C94.038 57.3655 83.7728 51.641 88.2641 47.42C88.952 43.8895 97.2819 47.2821 98.9251 48.8612C102.17 51.3517 103.221 57.8393 97.6622 57.6257ZM98.1481 55.6578C100.163 55.6516 99.8224 53.0936 98.9604 51.9407C97.1783 49.0956 93.5262 48.1085 90.4004 47.8389C90.4015 48.1437 90.2689 48.4486 90.0213 48.6342C89.8866 48.827 89.6783 48.9701 89.4493 49.0333C87.543 51.2149 96.3194 56.0798 98.2735 55.6453C98.233 55.6495 98.1885 55.6536 98.1481 55.6578Z" fill="#3B080F"/>
</g>
<g id="Group_88">
<path id="vec87" d="M123.203 59.1757C119.363 58.3089 114.575 54.5679 113.515 50.6943C112.986 48.7419 114.455 47 116.477 47.2281C119.432 45.8242 125.31 51.0634 127.161 53.2864C129.967 56.5141 127.018 60.0363 123.203 59.1757ZM124.152 57.2969C130.45 56.8666 121.032 50.0971 118.995 49.3879C118.253 49.7984 117.336 49.2634 116.55 49.2282C116.17 49.2396 115.504 49.1359 115.445 49.6502C115.449 49.6077 115.456 49.5662 115.465 49.5247C115.216 52.6964 121.186 57.13 124.152 57.2969Z" fill="#3B080F"/>
</g>
<g id="Group_89">
<path id="vec88" d="M146.866 59.373C143.44 58.023 140.577 54.8191 139.707 51.2399C139.282 48.6343 142.006 47.6078 144.121 48.343C145.134 48.0713 146.178 48.6426 147.105 49.0159C149.134 49.9822 151.257 51.0823 152.475 53.0544C153.473 54.5288 154.144 56.9644 152.556 58.2749C150.961 59.4061 148.769 59.9588 146.866 59.373ZM148.611 57.6311C149.583 57.4496 150.811 57.321 151.477 56.5216C151.708 55.0617 150.703 53.7615 149.712 52.8222C149.428 53.3458 148.718 53.4888 148.242 53.1311C146.735 52.0528 145.493 50.9569 143.815 50.3316C141.779 49.7033 141.12 50.3907 142.165 52.2705C143.422 54.7134 145.694 57.4413 148.611 57.6311Z" fill="#3B080F"/>
</g>
<g id="Group_90">
<path id="vec89" d="M277.944 117.284C269.24 106.879 235.544 101.901 223.634 108.012C223.323 108.198 223.036 108.386 222.952 108.75C222.565 109.977 220.677 109.406 221.062 108.167C221.217 107.639 221.521 107.175 221.932 106.81C226.318 103.885 231.957 103.596 237.088 103.525C250.308 103.157 264.03 105.76 275.54 112.457C277.097 113.29 278.171 114.744 279.401 115.972C279.77 116.36 279.717 117.004 279.328 117.357C278.928 117.718 278.309 117.677 277.944 117.284Z" fill="#3B080F"/>
</g>
<g id="Group_91">
<path id="vec90" d="M261.148 118.399C260.072 118.25 260.263 117.101 260.375 116.298C260.723 113.738 261.428 111.234 261.909 108.695C263.232 102.106 266.488 96.0989 269.493 90.1578C271.996 86.2074 275.013 82.5795 277.239 78.4518C280.079 73.6522 282.057 68.5125 283.767 63.2236C285.183 59.2359 286.441 55.0988 285.852 50.883C285.505 49.0022 285.507 46.6993 283.926 45.3846C280.984 43.3607 276.714 43.763 273.476 44.7718C274.552 48.0421 274.96 55.9615 271.048 57.3996C269.033 58.2706 267.157 56.7018 266.692 54.7588C265.417 50.8042 267.075 45.7299 270.835 43.7536C268.716 40.0988 264.237 40.781 260.961 42.2481C261.269 44.523 261.424 46.8269 261.512 49.1173C261.488 50.8664 260.388 52.3388 259.307 53.6244C258.689 54.4892 257.63 55.3529 256.558 54.6862C255.48 54.0184 255.22 52.6425 255.033 51.4782C254.402 47.759 254.854 42.9781 258.62 41.0993C257.778 36.5641 252.921 38.0593 249.839 39.1127C250.722 42.1009 252.816 44.9605 252.297 48.1737C251.666 50.5429 250.349 54.7785 247.133 53.5602C243.745 51.9593 243.843 47.5682 244.414 44.3986C244.77 42.1579 245.211 39.5834 247.26 38.2573C246.475 36.4739 244.389 36.0436 242.632 35.8923C239.781 35.5968 237.315 37.0369 235.398 39.0132C237.193 42.6681 239.662 50.1085 236.905 53.6244C235.795 54.5172 234.185 54.1522 233.113 53.3735C231.438 52.149 231.057 49.9768 230.994 48.0317C230.773 44.8579 230.752 41.3523 232.906 38.7788C231.467 36.0239 228.059 35.7606 225.711 37.4745C224.545 38.557 223.906 40.0656 223.346 41.5234C220.907 50.1821 223.679 59.3095 225.61 67.7111C227.248 73.9944 228.995 80.2466 230.916 86.4479C232.917 92.639 233.994 98.9834 234.607 105.431C234.547 107.115 235.723 112.685 233.502 112.75C232.607 112.786 232.102 111.618 232.779 111.021C233.159 90.3465 222.062 71.62 220.579 51.1744C220.06 45.9435 220.626 39.1988 224.906 35.6175C227.947 33.634 232.327 34.0384 234.308 37.2993C236.772 34.7466 240.183 33.4007 243.729 33.9979C245.864 34.2976 248.061 35.2339 249.009 37.2962C253.138 35.6548 259.153 34.7154 260.463 40.3051C264.635 38.3434 270.247 38.4014 272.665 42.9449C276.887 41.5659 282.708 41.1356 286.005 44.6412C288.062 47.6885 288.003 51.7809 287.899 55.3342C287.153 60.9021 284.706 66.0842 283.039 71.4126C279.977 78.4953 275.603 84.8274 271.203 91.1221C268.513 96.4442 265.514 102.043 264.106 107.836C263.559 110.491 262.876 113.295 262.394 115.925C262.199 116.839 262.504 118.455 261.148 118.399ZM269.94 55.6307C272.826 55.2658 272.403 47.6563 271.642 45.5951C268.503 47.3805 267.299 52.1345 269.092 55.2357C269.29 55.5167 269.599 55.6753 269.94 55.6307ZM257.421 52.7597C258.236 51.8203 258.946 50.9805 259.402 49.842C259.707 47.6315 259.2 45.3462 259.077 43.1243C256.184 45.2788 256.475 49.6585 257.421 52.7597ZM235.337 52.1532C235.436 52.1542 235.551 52.148 235.631 52.0941C236.929 48.3417 235.384 44.185 234.015 40.6535C232.527 42.6079 231.914 51.981 235.337 52.1532ZM248.269 51.7799C249.579 51.0126 250.114 48.7129 250.414 47.2603C250.275 44.7024 248.812 42.5239 248.094 40.1226C246.121 41.9029 244.734 51.1381 248.269 51.7799Z" fill="#3B080F"/>
</g>
<g id="Group_92">
<path id="vec91" d="M364.76 234.803C363.315 234.599 364.079 232.091 363.976 231.056C363.911 226.006 362.72 221.093 361.595 216.199C358.201 200.617 350.784 186.267 342.068 173.029C336.481 165.077 328.996 158.609 321.452 152.592C318.746 150.587 316.138 148.452 313.488 146.367C309.854 143.735 305.84 141.656 301.981 139.375C296.175 136.386 289.934 133.346 283.389 132.79C282.863 132.896 282.345 132.471 282.272 131.96C282.119 127.807 300.302 136.038 302.24 137.286C308.091 140.535 313.928 143.848 319.004 148.254C326.256 153.686 333.21 159.601 339.316 166.318C343.802 171.438 347.269 177.326 350.55 183.264C353.744 189.105 356.994 194.983 359.204 201.283C362.448 210.674 365.256 220.411 365.938 230.356C365.928 231.649 365.881 232.684 365.845 233.936C365.804 234.471 365.273 234.86 364.76 234.803Z" fill="#3B080F"/>
</g>
<g id="Group_93">
<path id="vec92" d="M170.685 147.814C170.309 147.453 170.264 146.789 170.649 146.416C171.982 145.236 173.097 143.858 174.327 142.576C180.523 136.86 187.097 131.189 194.536 127.194C198.204 125.067 202.268 123.829 206.162 122.196C208.123 121.402 210.179 120.895 212.265 120.564C212.881 120.444 213.62 120.395 214.049 120.94C214.705 121.699 213.788 122.9 212.876 122.484C209.218 122.879 205.952 124.393 202.605 125.736C196.043 127.953 190.237 131.844 184.825 136.056C181.444 139.174 177.56 141.764 174.558 145.238C173.626 146.02 171.965 148.879 170.685 147.814Z" fill="#3B080F"/>
</g>
<g id="Group_94">
<path id="vec93" d="M121.349 234.11C121.329 234.034 121.312 233.961 121.324 234.017C121.194 232.687 118.98 229.573 120.895 228.959C121.425 228.849 121.96 229.206 122.065 229.74C122.334 231.106 122.936 232.375 123.271 233.726C123.518 234.973 121.632 235.37 121.349 234.11Z" fill="#3B080F"/>
</g>
<g id="Group_95">
<path id="vec94" d="M191.351 233.288C190.816 231.982 190.432 230.618 189.688 229.404C189.368 228.488 188.103 227.157 189.331 226.435C189.859 226.18 190.488 226.412 190.664 226.876C191.568 228.674 192.479 230.455 193.103 232.375C193.7 233.533 191.967 234.447 191.351 233.288Z" fill="#3B080F"/>
</g>
<g id="Group_96">
<path id="vec95" d="M300.023 231.867C298.665 227.427 296.315 223.328 294.785 218.935C291.349 209.355 287.788 199.811 284.263 190.267C284.117 189.757 284.429 189.203 284.943 189.06C285.949 188.783 286.238 189.923 286.416 190.632C290.685 201.32 294.174 212.261 298.526 222.908C299.474 225.14 300.509 227.326 301.386 229.587C301.746 230.547 302.662 232.356 301.148 232.718C300.61 232.796 300.109 232.406 300.023 231.867Z" fill="#3B080F"/>
</g>
<g id="Group_97">
<path id="vec96" d="M288.226 202.249C287.287 200.693 285.86 199.52 284.737 198.106C282.923 195.542 280.877 193.163 278.905 190.722C278.122 189.728 279.664 188.503 280.443 189.511C282.715 192.18 284.868 195.044 287.052 197.765C288.091 198.954 289.344 200.029 290.051 201.459C290.55 202.651 288.766 203.436 288.226 202.249Z" fill="#3B080F"/>
</g>
<g id="Group_98">
<path id="vec97" d="M200.736 232.81C200.246 232.519 200.133 231.919 200.384 231.433C200.903 230.449 201.309 229.41 201.74 228.388C202.979 225.281 204.18 222.16 205.439 219.06C208.722 210.626 211.538 201.999 214.848 193.601C215.663 191.587 216.421 189.551 217.281 187.554C217.697 186.651 218.124 184.756 219.47 185.399C219.916 185.663 220.109 186.294 219.814 186.74C218.341 189.708 217.327 192.884 216.018 195.929C212.325 205.845 208.925 215.848 204.941 225.65C204.167 227.687 203.39 229.72 202.488 231.701C202.233 232.447 201.606 233.315 200.736 232.81Z" fill="#3B080F"/>
</g>
<g id="Group_99">
<path id="vec98" d="M214.033 198.019C213.826 197.715 213.782 197.371 213.915 197.031C214.527 196.104 215.329 195.308 216.056 194.462C218.421 191.324 221.214 188.626 223.992 185.876C224.321 185.511 224.932 185.516 225.3 185.808C226.828 187.105 222.86 189.544 222.037 190.546C219.789 192.824 217.904 195.446 215.769 197.832C215.432 198.46 214.475 198.647 214.033 198.019Z" fill="#3B080F"/>
</g>
<g id="Group_100">
<path id="vec99" d="M123.342 235.735C122.429 235.589 121.301 236.052 120.564 235.397C120.271 235.105 120.208 234.544 120.453 234.201C121.029 233.369 122.254 233.847 123.115 233.725C141.385 233.749 159.662 233.73 177.934 233.736C240.695 233.74 303.453 233.749 366.217 233.744C366.751 233.744 367.18 234.242 367.164 234.76C367.144 235.312 366.682 235.708 366.144 235.708C285.208 235.72 204.274 235.687 123.342 235.735Z" fill="#3B080F"/>
</g>
<g id="Group_101">
<path id="vec100" d="M301.383 234.786C301.091 233.733 300.602 232.728 300.151 231.736C299.14 230.62 301.015 229.298 301.735 230.535C302.352 231.647 302.896 232.946 303.246 234.155C303.633 235.378 301.799 236 301.383 234.786Z" fill="#3B080F"/>
</g>
<g id="Group_102">
<path id="vec101" d="M199.493 234.95C198.426 234.039 199.91 232.939 200.176 231.973C200.423 231.651 200.449 231.251 200.654 230.916C201.1 230.289 202.116 230.452 202.382 231.155C202.719 231.957 201.968 232.653 201.698 233.358C201.288 234.177 200.608 235.692 199.493 234.95Z" fill="#3B080F"/>
</g>
<g id="Group_103">
<path id="vec102" d="M191.823 234.804C191.844 234.076 191.37 233.569 191.139 232.949C191.013 232.158 191.894 231.575 192.596 231.893C193.519 232.364 194.491 235.438 192.928 235.639C192.416 235.712 191.879 235.335 191.823 234.804Z" fill="#3B080F"/>
</g>
<g id="Group_104">
<path id="vec103" d="M278.115 127.026C277.06 126.821 277.335 125.652 277.467 124.896C277.552 124.111 277.637 123.328 277.746 122.551C277.965 120.972 278.271 119.367 277.998 117.778C277.835 117.492 277.806 117.143 277.961 116.828C278.179 116.382 278.701 116.152 279.179 116.305C281.048 117.414 279.61 122.219 279.531 124.033C279.309 125.053 279.68 127.16 278.115 127.026Z" fill="#3B080F"/>
</g>
<g id="Group_105">
<path id="vec104" d="M282.604 122.114C282.629 121.553 282.205 121.078 281.657 121.054C281.108 121.029 280.644 121.464 280.618 122.025C280.593 122.586 281.017 123.061 281.565 123.086C282.114 123.11 282.579 122.675 282.604 122.114Z" fill="#3B080F"/>
</g>
<g id="Group_106">
<path id="vec105" d="M279.087 126.224C278.461 125.472 277.253 124.327 278.658 123.621C278.589 123.517 278.532 123.407 278.492 123.288C278.364 122.91 278.475 122.508 278.742 122.25C277.75 121.434 278.539 119.522 279.872 119.93C280.894 120.303 283.356 121.019 282.247 122.473C282.602 123.114 282.271 123.993 281.568 124.208C281.747 124.733 281.411 125.379 280.911 125.608C280.968 126.557 279.621 127.032 279.087 126.224Z" fill="#3B080F"/>
</g>
<g id="Group_107">
<path id="vec106" d="M272.944 126.949C272.872 125.269 275.442 125.815 276.543 125.41C277.69 125.182 278.808 124.939 279.938 124.652C280.464 124.522 281.014 124.822 281.16 125.357C281.416 127.087 278.726 126.778 277.628 127.214C276.432 127.277 273.24 128.673 272.944 126.949Z" fill="#3B080F"/>
</g>
<g id="Group_108">
<path id="vec107" d="M219.576 118.112C219.062 118.018 218.665 117.492 218.779 116.969C219.016 115.694 219.243 114.419 219.475 113.142C219.723 111.681 219.983 110.22 220.195 108.753C220.21 108.361 220.464 107.989 220.847 107.848C221.402 107.641 222.029 107.986 222.162 108.561C222.106 110.124 221.687 111.688 221.453 113.247C221.223 114.604 220.948 115.953 220.718 117.313C220.63 117.842 220.094 118.206 219.576 118.112Z" fill="#3B080F"/>
</g>
<g id="Group_109">
<path id="vec108" d="M218.105 116.075C217.381 115.976 217.028 115.016 217.401 114.424C217.032 113.98 217.154 113.302 217.615 112.977C218.01 112.695 218.991 112.741 219.517 112.701C220.519 112.829 220.585 114.37 219.614 114.6C219.591 114.635 219.566 114.669 219.538 114.703C219.48 114.771 219.413 114.83 219.34 114.879C219.324 115.533 218.816 116.224 218.105 116.075Z" fill="#3B080F"/>
</g>
</g>
</g>
</g>
</g>
</g>
</g>
</g>
<defs>
<linearGradient id="paint0_linear_2419_311" x1="253.682" y1="56.7219" x2="213.754" y2="46.3138" gradientUnits="userSpaceOnUse">
<stop style="stop-color: var(--tertiary-fixed);"/>
<stop offset="1" style="stop-color: var(--secondary-fixed);"/>
</linearGradient>
<linearGradient id="paint1_linear_2419_311" x1="253.682" y1="56.7219" x2="213.754" y2="46.3137" gradientUnits="userSpaceOnUse">
<stop style="stop-color: var(--tertiary-fixed);"/>
<stop offset="1" style="stop-color: var(--secondary-fixed);"/>
</linearGradient>
<linearGradient id="paint2_linear_2419_311" x1="326.588" y1="175.594" x2="170.609" y2="182.78" gradientUnits="userSpaceOnUse">
<stop style="stop-color: var(--secondary-fixed-dim);"/>
<stop offset="1" style="stop-color: var(--primary-fixed-dim);"/>
</linearGradient>
<linearGradient id="paint3_linear_2419_311" x1="176.065" y1="201.652" x2="126.217" y2="214.29" gradientUnits="userSpaceOnUse">
<stop style="stop-color: var(--secondary-fixed-dim);"/>
<stop offset="1" style="stop-color: var(--primary-fixed-dim);"/>
</linearGradient>
<linearGradient id="paint4_linear_2419_311" x1="91.752" y1="131.172" x2="115.335" y2="95.9489" gradientUnits="userSpaceOnUse">
<stop style="stop-color: var(--tertiary-fixed);"/>
<stop offset="1" style="stop-color: var(--secondary-fixed);"/>
</linearGradient>
<linearGradient id="paint5_linear_2419_311" x1="253.682" y1="56.7218" x2="213.754" y2="46.3137" gradientUnits="userSpaceOnUse">
<stop style="stop-color: var(--tertiary-fixed);"/>
<stop offset="1" style="stop-color: var(--secondary-fixed);"/>
</linearGradient>
<linearGradient id="paint6_linear_2419_311" x1="253.682" y1="56.7219" x2="213.754" y2="46.3137" gradientUnits="userSpaceOnUse">
<stop style="stop-color: var(--tertiary-fixed);"/>
<stop offset="1" style="stop-color: var(--secondary-fixed);"/>
</linearGradient>
<linearGradient id="paint7_linear_2419_311" x1="253.682" y1="56.7219" x2="213.754" y2="46.3137" gradientUnits="userSpaceOnUse">
<stop style="stop-color: var(--tertiary-fixed);"/>
<stop offset="1" style="stop-color: var(--secondary-fixed);"/>
</linearGradient>
<linearGradient id="paint8_linear_2419_311" x1="253.682" y1="56.7219" x2="213.754" y2="46.3137" gradientUnits="userSpaceOnUse">
<stop style="stop-color: var(--tertiary-fixed);"/>
<stop offset="1" style="stop-color: var(--secondary-fixed);"/>
</linearGradient>
</defs>
</svg>