<svg xmlns="http://www.w3.org/2000/svg" width="226" height="127" viewBox="0 0 226 127" fill="none">
<g id="cake">
<g id="Group">
<path id="vec0" d="M133.137 47.0801C131.347 46.8884 129.595 46.6954 127.913 46.1632C127.409 46.0071 127.126 45.4478 127.284 44.9488C127.592 44.006 128.602 44.3152 129.306 44.5481C132.166 45.1276 134.985 45.5154 137.826 44.8523C138.47 44.0773 139.769 44.7841 139.583 45.7385C139.255 47.3456 134.357 47.2098 133.01 47.066L133.137 47.0801Z" style="fill: var(--il-outline);"/>
<path id="vec1" d="M132.463 14.9525C130.605 13.271 131.276 10.3494 132.458 8.46333C135.21 4.03909 143.766 4.27876 147.558 7.16475C148.035 7.4075 148.196 8.04357 147.945 8.50204C147.2 9.68569 146.045 8.3865 145.084 8.32689C143.556 8.22733 142.026 8.83391 140.829 9.76128C139.707 10.8294 139.173 12.3338 138.245 13.5507C137.085 15.411 134.29 16.5209 132.463 14.9525ZM134.624 13.7277C135.815 13.6834 136.624 12.5176 137.158 11.6468C138.186 9.7367 139.426 7.82111 141.567 7.0486C138.74 7.03324 135.138 7.16844 133.808 10.0759C133.243 11.2067 132.716 13.7326 134.624 13.7277Z" style="fill: var(--il-outline);"/>
<path id="vec2" d="M131.901 18.2079C130.483 17.9043 127.942 17.2357 128.571 15.2961C129.055 13.8814 130.812 13.8193 132.076 13.6731C132.58 13.7087 133.074 13.5575 133.569 13.6417C134.441 13.7923 134.712 15.0669 133.9 15.4879C132.896 15.7896 131.775 15.459 130.761 15.8591C133.049 16.7619 135.786 16.6193 138.093 16.0232C137.183 15.2648 135.134 16.3274 134.992 14.6951C135.061 13.3394 136.737 13.7272 137.655 13.7923C138.869 13.9914 140.428 14.9145 140.339 16.3059C139.82 18.7518 133.857 18.5767 131.9 18.2067L131.901 18.2079Z" style="fill: var(--il-outline);"/>
<path id="vec3" d="M128.209 46.3253C127.681 46.318 127.254 45.8761 127.256 45.3506C127.271 43.4965 127.136 41.643 127.287 39.7907C127.77 31.9501 128.233 24.0997 128.418 16.2456C128.133 15.1922 129.72 14.561 130.224 15.5493C130.555 16.5344 130.262 17.64 130.296 18.6675C130.165 22.7175 129.974 26.7632 129.722 30.8076C129.642 34.2971 129.318 37.7737 129.148 41.2577C129.134 42.6294 129.195 44.0004 129.185 45.3721C129.185 45.8982 128.73 46.3327 128.21 46.3253H128.209Z" style="fill: var(--il-outline);"/>
<path id="vec4" d="M138.413 46.3315C137.9 46.3242 137.439 45.8804 137.46 45.3568C137.589 43.5715 137.592 41.785 137.595 39.9935C137.658 33.8872 137.576 27.7773 137.796 21.674C137.89 20.185 138.086 18.6983 138.073 17.2043C137.9 16.7231 138.143 16.146 138.635 15.9654C140.972 15.3778 139.7 19.6251 139.8 20.8573C139.442 27.1498 139.623 33.4626 139.532 39.7655C139.505 41.6086 139.538 43.448 139.393 45.2868C139.409 45.8423 138.986 46.3426 138.413 46.3309V46.3315Z" style="fill: var(--il-outline);"/>
<path id="vec5" d="M118.325 80.2553C116.148 79.948 115.139 77.9268 114.926 75.9343C114.496 74.1072 115.394 72.038 114.529 70.3338C113.022 69.0445 111.25 70.3338 110.628 71.904C109.646 74.0095 108.751 76.3885 106.689 77.6754C105.155 78.5566 103.145 77.5383 102.313 76.1316C101.523 74.6265 101.559 72.8523 101.504 71.1911C101.49 70.5237 101.485 69.7051 100.913 69.2565C100.932 69.2755 100.954 69.2946 100.975 69.3142C100.978 69.3167 100.978 69.3167 101.012 69.348C99.9674 68.5823 98.4525 68.5559 97.4059 69.3315C96.4503 70.3615 96.2007 71.8475 95.6821 73.1172C94.7817 75.1262 94.2944 77.6883 92.3548 78.9672C89.8148 80.4151 86.1852 78.7779 85.5252 75.9497C84.8602 73.7121 86.3604 71.4099 85.739 69.2233C85.4152 69.3886 85.1558 69.6529 85.0047 69.9841C84.1166 71.7897 83.4301 73.717 82.1838 75.3253C80.1072 78.1916 76.6669 79.0391 75.3947 75.0057C74.2449 71.4935 75.8704 67.9309 76.917 64.6036C77.9206 61.9463 78.3262 59.1518 78.5376 56.3721C78.6458 53.6091 78.7631 50.8436 78.7226 48.078C78.6845 47.6552 78.7853 47.1851 79.1522 46.9257C79.87 46.3665 80.9983 47.1273 80.691 48.0037C80.6572 52.0321 80.6431 56.0821 80.0765 60.0792C79.5535 63.8287 77.8438 67.1467 77.0639 70.8076C76.7855 72.4928 76.826 74.4397 78.0502 75.7383C79.296 76.0265 80.2541 74.5331 80.9553 73.6832C82.2901 71.8776 82.5826 69.4292 84.2155 67.8712C85.8263 66.4166 87.8046 67.5978 87.8402 69.624C88.1285 71.7104 86.8778 73.7821 87.5379 75.844C88.3903 77.6926 91.4944 78.3262 92.2866 76.1058C93.187 74.2959 93.8494 72.3846 94.5334 70.4838C94.9366 69.4058 95.4338 68.3254 96.387 67.6291C98.6197 66.0521 102.734 66.7048 103.332 69.6891C103.88 71.684 102.657 75.5969 105.5 76.0363C107.927 74.7205 108.188 71.4775 109.833 69.4562C111.237 67.6174 114.384 67.2524 115.99 69.0144C117.599 70.9588 116.43 73.6574 116.924 75.914C117.148 78.3532 119.063 79.0876 120.797 77.3306C122.192 75.4027 122.614 72.9156 123.644 70.7769C124.562 68.0894 127.005 66.947 128.947 67.3311C128.844 67.4318 128.758 67.5511 128.698 67.685C128.565 67.9776 128.53 68.2756 128.539 68.578C128.525 68.7968 128.509 69.0156 128.493 69.2344C127.961 69.1452 127.354 69.3001 126.918 69.5791C126.373 69.9344 125.97 70.4481 125.697 71.0313C124.866 72.8437 124.237 74.7451 123.481 76.5864C122.802 78.5923 120.911 80.2787 118.752 80.2787C118.611 80.2787 118.469 80.2713 118.326 80.2572L118.325 80.2553Z" style="fill: var(--il-outline);"/>
<path id="vec6" d="M79.4129 49.8369C78.8801 49.7361 78.5199 49.2107 78.6182 48.6772L78.6207 48.6748C78.6133 48.7203 78.609 48.7639 78.6041 48.8094C80.5406 40.0371 94.2865 38.2002 101.744 37.3416C107.876 36.5863 114.053 35.9712 120.238 35.9828C122.265 36.0068 124.288 36.0646 126.298 36.0363C127.159 36.0228 128.505 35.7948 128.499 37.0343C128.47 37.7651 127.723 38.0348 127.105 37.9445C124.313 38.0164 121.518 37.9119 118.728 37.9255C113.104 38.0361 107.484 38.5591 101.905 39.2652C96.0632 39.913 90.1056 40.7592 84.979 43.7399C83.3049 44.7397 81.6677 46.0518 80.905 47.8967C80.5517 48.6852 80.634 50.0195 79.4141 49.8375L79.4129 49.8369Z" style="fill: var(--il-outline);"/>
<path id="vec7" d="M187.938 47.887C186.103 44.5499 175.085 42.5864 171.218 41.6141C164.518 40.2074 157.747 39.1584 150.897 38.9131C147.365 38.9291 143.827 38.4264 140.301 38.7761C139.754 38.8013 139.335 39.3009 138.769 38.9973C138.286 38.762 138.087 38.1714 138.317 37.6889C138.608 37.0793 139.326 36.9588 139.931 36.8605C153.812 36.3197 167.808 38.2224 181.138 42.1371C184.163 43.1948 188.003 44.0232 189.667 47.0297C190.199 48.1623 188.512 49.0141 187.939 47.8864L187.938 47.887Z" style="fill: var(--il-outline);"/>
<path id="vec8" d="M188.782 72.03C187.563 71.193 188.884 69.5355 190.009 70.4776C190.958 69.4298 190.799 67.6463 190.729 66.3103C190.649 64.0966 189.835 62.2947 189.359 60.212C188.964 57.9215 188.801 55.6206 188.718 53.3006C188.583 51.5208 188.797 49.3102 187.628 47.8629C187.227 47.5895 187.145 46.9915 187.38 46.5883C188.288 45.3254 189.584 46.7979 189.896 47.8052C191.088 51.1748 190.37 54.9151 191.056 58.3462C191.152 59.7984 191.575 61.1633 192.035 62.5307C192.493 64.1581 192.677 65.8537 192.724 67.5407C192.885 69.6996 191.571 73.8024 188.782 72.03H188.782Z" style="fill: var(--il-outline);"/>
<path id="vec9" d="M148.705 84.692C145.744 83.509 143.931 80.406 144.417 77.238C144.698 75.2308 145.416 73.2218 145.074 71.1771C144.966 69.6524 143.32 69.9867 142.767 71.053C141.917 72.5709 142.178 74.3876 141.962 76.0524C141.695 78.0436 141.155 80.5283 139.085 81.3629C136.756 82.388 133.438 80.7613 132.155 78.7387C131.402 76.5558 131.361 74.2131 131.048 71.9423C130.97 71.1605 130.589 70.4808 130.021 69.9474C129.51 69.5338 129.056 68.8412 128.339 68.8547C127.283 69.9511 125.937 68.2131 127.044 67.29C128.622 66.2403 130.431 67.4775 131.502 68.6918C132.936 69.9775 133.01 71.9392 133.203 73.7239C133.4 75.1853 133.404 76.8256 134.078 78.1389C135.335 79.2279 137.604 80.5842 139.009 79.0435C140.743 76.3923 139.46 72.8967 140.999 70.1803C141.996 68.1184 145.188 67.2439 146.513 69.4551C148.902 73.9998 143.074 80.1153 149.554 82.9343C153.163 83.3879 152.482 72.1764 154.778 69.527C157.397 64.5067 164.287 66.3239 165.274 71.5532C165.429 72.5439 166.417 74.4079 165.002 74.8252C164.479 74.9382 163.97 74.5947 163.85 74.0809C163.502 72.5464 163.283 70.7986 162.142 69.6247C159.493 67.2759 156.83 68.8805 155.798 71.8759C154.21 75.6204 155.063 86.2929 148.704 84.692H148.705Z" style="fill: var(--il-outline);"/>
<path id="vec10" d="M168.816 80.7673C166.444 80.8952 164.41 78.8351 164.096 76.5613C163.983 75.4157 164.006 74.2554 163.606 73.1713C163.57 72.0504 165.16 71.7708 165.553 72.8014C166.19 74.3015 165.6 76.0764 166.456 77.5003C167.178 78.687 168.609 79.1406 169.907 78.6784C170.925 78.1978 171.484 77.1052 171.97 76.1428C173.603 73.4129 171.598 68.3409 175.154 67.0564C176.816 66.5801 178.726 67.3637 179.122 69.1447C179.54 70.8262 179.242 72.6834 180.127 74.2523C180.806 75.4747 181.916 75.5565 182.388 74.135C183.138 72.6729 182.946 70.9897 183.426 69.4545C184.011 68.1055 185.689 67.3139 187.077 67.9015C187.787 68.1374 188.066 68.8774 188.517 69.3979C188.819 69.9676 189.319 70.4458 190.011 70.3653C190.486 70.0832 191.134 70.3265 191.362 70.8133C191.899 72.4947 189.469 72.5814 188.462 72.0043C187.462 71.5686 186.958 70.5269 186.349 69.712C184.999 69.3936 185.095 71.1746 184.969 72.0664C184.853 73.1173 184.569 74.151 184.095 75.098C183.383 77.0769 181.078 77.8285 179.443 76.4254C177.943 75.1428 177.57 73.0411 177.431 71.1654C177.397 70.4931 177.413 69.7648 177.027 69.181C176.942 69.0759 176.839 68.9788 176.704 68.9413C174.189 68.3925 174.972 72.024 174.683 73.5278C174.304 76.6449 172.519 80.9056 168.816 80.7655V80.7673Z" style="fill: var(--il-outline);"/>
<path id="vec11" d="M148.282 56.4552C143.613 56.1424 139.017 56.1074 134.361 55.8357C133.113 55.6624 133.311 53.7788 134.603 53.9005C136.502 54.0879 138.407 54.0701 140.312 54.1021C154.295 55.0042 168.517 54.8033 181.939 50.403C182.872 50.084 183.82 49.8063 184.739 49.4566C185.112 49.1155 185.73 49.1591 186.08 49.51C187.334 51.3863 183.964 51.6235 182.862 52.1582C171.749 55.845 159.929 56.7644 148.281 56.4559L148.282 56.4552Z" style="fill: var(--il-outline);"/>
<path id="vec12" d="M113.679 53.2731C105.09 53.015 96.5183 51.6089 88.1504 49.7467C87.6391 49.6195 87.3342 49.0652 87.4688 48.5631C87.9771 47.109 89.8908 48.3879 90.9577 48.4076C97.9557 49.7314 104.913 50.9746 112.037 51.2352C112.872 51.2475 113.705 51.3464 114.539 51.3225C115.049 51.2131 115.572 51.5087 115.712 52.02C115.974 53.2639 114.58 53.4058 113.679 53.2731H113.679Z" style="fill: var(--il-outline);"/>
<path id="vec13" d="M79.8117 90.8702C78.2538 90.6785 79.0546 88.648 78.9525 87.5934C79.0072 85.5801 79.057 83.5631 79.1136 81.5485C79.1529 79.896 79.1658 78.2293 79.0533 76.589C79.1609 75.862 80.0956 75.4552 80.6666 75.9671C80.5922 75.9087 80.5264 75.87 80.441 75.8276C81.5374 76.4907 80.9099 78.0609 81.0986 79.126C81.1097 81.1675 80.9984 83.2109 80.94 85.2501C80.9523 86.808 80.8306 88.3616 80.7913 89.9195C80.7846 90.4456 80.3341 90.8776 79.8117 90.8702Z" style="fill: var(--il-outline);"/>
<path id="vec14" d="M186.959 93.4722C187.437 86.0974 187.372 78.6477 187.869 71.2975C188.111 70.2871 189.709 70.3855 189.792 71.4413C189.376 77.319 189.451 83.3946 189.105 89.247C189.043 90.6255 188.926 92.0021 188.899 93.3836C188.937 93.9097 188.577 94.3915 188.041 94.4542C187.475 94.5206 186.951 94.0511 186.959 93.4722Z" style="fill: var(--il-outline);"/>
<path id="vec15" d="M141.858 106.204C133.861 106.129 125.924 105.121 118.041 103.854C108.847 102.659 99.8679 100.256 91.1632 97.1086C88.1863 95.8622 80.2621 93.3899 79.489 90.2617C79.1841 89.0351 80.9971 88.4973 81.3658 89.7264C81.541 90.6348 82.662 90.9752 83.3042 91.5406C90.556 95.3472 98.5484 97.6451 106.433 99.7494C110.932 100.789 115.303 101.497 119.829 102.131C123.995 102.769 128.145 103.512 132.362 103.727C144.225 104.851 156.301 104.335 167.868 101.372C173.544 99.9073 179.647 98.9885 184.595 95.6601C185.47 94.9386 186.752 94.308 187.112 93.2129C187.174 93.0021 187.214 92.8908 187.33 92.728C187.987 91.8289 189.504 92.6419 189.025 93.7193L189.018 93.7199C188.68 95.3024 186.861 96.3527 185.719 97.2389C180.801 100.639 174.724 101.632 169.039 103.104C160.167 105.364 151.009 106.428 141.857 106.205L141.858 106.204Z" style="fill: var(--il-outline);"/>
<path id="vec16" d="M187.85 71.6195C187.375 78.8646 187.43 86.2056 186.96 93.4728C186.96 93.5017 186.96 93.5281 186.962 93.5545C186.477 94.445 185.375 95.0166 184.595 95.66C179.647 98.9873 173.545 99.9066 167.87 101.371C156.304 104.333 144.226 104.85 132.364 103.726C128.146 103.51 123.995 102.768 119.83 102.13C115.303 101.496 110.933 100.787 106.435 99.7481C98.5488 97.645 90.557 95.3478 83.3045 91.5406C82.6635 90.9764 81.5426 90.6353 81.3674 89.7258C81.2666 89.3896 81.0601 89.188 80.8174 89.0922C80.8702 87.8102 80.9495 86.5331 80.9397 85.2512C80.9975 83.2108 81.1099 81.168 81.0983 79.127C80.9637 78.3711 81.2421 77.3602 81.0214 76.5993C81.4369 76.2417 81.8302 75.8121 82.1836 75.3247C83.4293 73.7164 84.1158 71.7885 85.0044 69.9836C85.1556 69.6523 85.4149 69.3881 85.7388 69.2227C86.3607 71.41 84.86 73.7121 85.525 75.9491C86.185 78.7767 89.8152 80.4145 92.3546 78.9666C94.2941 77.6871 94.7815 75.1256 95.6818 73.1166C96.2005 71.8469 96.45 70.3609 97.4057 69.3309C98.4523 68.5553 99.9647 68.5818 101.009 69.3475C101.485 69.806 101.489 70.5668 101.504 71.1912C101.559 72.8523 101.523 74.6266 102.312 76.1317C103.145 77.5384 105.155 78.5561 106.689 77.6754C108.751 76.3885 109.646 74.0096 110.628 71.9041C111.25 70.3339 113.021 69.0451 114.529 70.3339C115.393 72.038 114.495 74.1079 114.925 75.9344C115.139 77.9268 116.147 79.9481 118.324 80.2554C118.466 80.2695 118.607 80.2769 118.749 80.2769C120.907 80.2769 122.799 78.5918 123.478 76.5846C124.234 74.7434 124.863 72.8419 125.694 71.0296C125.968 70.4463 126.371 69.9325 126.916 69.5773C127.35 69.2989 127.957 69.1453 128.49 69.2338C128.498 69.1115 128.507 68.9892 128.517 68.8663C129.134 68.9579 129.554 69.57 130.019 69.9467C130.588 70.4795 130.97 71.1617 131.047 71.9416C131.359 74.2124 131.4 76.5557 132.154 78.738C133.438 80.7618 136.756 82.3873 139.084 81.3622C141.153 80.5288 141.694 78.0442 141.96 76.0518C142.177 74.3881 141.915 72.5709 142.765 71.0535C143.319 69.9879 144.964 69.6517 145.074 71.1783C145.415 73.2211 144.698 75.2307 144.417 77.2373C143.929 80.406 145.742 83.5076 148.705 84.6913C155.064 86.2928 154.212 75.6216 155.798 71.877C156.831 68.881 159.493 67.2776 162.143 69.6253C163.019 70.5256 163.351 71.7664 163.614 72.9863C163.607 73.0465 163.603 73.1086 163.605 73.1738C163.662 73.3299 163.71 73.486 163.753 73.6445C163.756 73.6562 163.758 73.6685 163.761 73.6783C163.79 73.8154 163.818 73.9493 163.849 74.0815C163.849 74.0839 163.849 74.0839 163.852 74.0864C164.003 74.8952 164.013 75.7334 164.094 76.5637C164.409 78.837 166.442 80.897 168.814 80.7673C172.518 80.9093 174.302 76.6479 174.681 73.532C174.972 72.027 174.187 68.3968 176.703 68.9443C176.837 68.9824 176.941 69.0789 177.027 69.1846C177.411 69.7678 177.397 70.498 177.43 71.1672C177.569 73.0447 177.944 75.1453 179.441 76.4291C181.076 77.8309 183.381 77.0799 184.093 75.0992C184.569 74.1534 184.852 73.1185 184.967 72.0694C185.095 71.1764 184.999 69.3948 186.348 69.7144C186.818 70.3437 187.227 71.107 187.848 71.6207L187.85 71.6195Z" fill="url(#paint0_linear_5002_654)"/>
<path id="vec17" d="M113.678 53.2742C114.581 53.4064 115.973 53.2644 115.712 52.0211C115.572 51.5098 115.049 51.2124 114.54 51.3224C113.705 51.3463 112.872 51.248 112.036 51.2357C104.914 50.9739 97.9568 49.7307 90.9588 48.4075C89.8907 48.3885 87.9775 47.1089 87.468 48.5636C87.3335 49.0651 87.6383 49.62 88.1496 49.7473C96.5181 51.6075 105.091 53.0149 113.678 53.2742ZM182.864 52.1582C183.966 51.6229 187.335 51.3851 186.081 49.51C185.731 49.1597 185.111 49.1142 184.739 49.4572C183.819 49.805 182.871 50.084 181.939 50.403C168.517 54.8033 154.294 55.0048 140.312 54.1027C138.407 54.0713 136.5 54.0879 134.604 53.9011C133.31 53.7788 133.113 55.663 134.362 55.8363C139.016 56.1074 143.614 56.1436 148.283 56.4558C159.928 56.7656 171.749 55.8456 182.864 52.1582ZM190.729 66.3097C190.794 67.577 190.94 69.2437 190.148 70.3044C190.103 70.3191 190.055 70.3407 190.011 70.3671C189.963 70.372 189.918 70.3769 189.872 70.3769C189.656 70.2356 189.435 70.1852 189.231 70.1993C188.929 70.0217 188.691 69.7261 188.518 69.3997C188.067 68.8786 187.788 68.1393 187.078 67.9039C185.69 67.3158 184.012 68.1079 183.426 69.4569C182.947 70.9908 183.138 72.6735 182.389 74.1356C181.916 75.5589 180.807 75.4753 180.128 74.253C179.242 72.6852 179.542 70.8274 179.121 69.1447C178.725 67.3662 176.814 66.5808 175.153 67.0589C171.598 68.3433 173.602 73.4135 171.97 76.1427C171.482 77.1052 170.926 78.2003 169.907 78.6803C168.609 79.1412 167.178 78.6877 166.455 77.5015C165.675 76.203 166.098 74.6088 165.692 73.202V73.1971C165.579 72.6139 165.344 71.9969 165.274 71.5526C164.288 66.3239 157.398 64.5066 154.779 69.5264C152.484 72.1764 153.163 83.3878 149.555 82.9337C143.073 80.1153 148.902 73.9985 146.513 69.4538C145.188 67.2426 141.998 68.119 140.999 70.179C139.46 72.8966 140.744 76.3916 139.009 79.0422C137.605 80.5836 135.336 79.2272 134.078 78.1394C133.403 76.8237 133.401 75.184 133.204 73.722C133.01 71.9385 132.935 69.9768 131.502 68.6899C130.432 67.4756 128.623 66.2391 127.044 67.2881C126.977 67.3459 126.917 67.4055 126.869 67.4682C125.517 67.9027 124.247 69.0021 123.642 70.7739C122.612 72.9126 122.19 75.3997 120.795 77.3276C119.062 79.0846 117.146 78.3503 116.923 75.911C116.428 73.6544 117.598 70.9564 115.989 69.012C114.383 67.25 111.236 67.6144 109.832 69.4538C108.187 71.4751 107.926 74.7182 105.499 76.034C102.656 75.5946 103.878 71.6816 103.331 69.6868C102.733 66.7031 98.6187 66.0498 96.386 67.6274C95.4328 68.3237 94.9362 69.404 94.5324 70.4814C93.8484 72.3828 93.1853 74.2935 92.2856 76.1034C91.4934 78.3238 88.3893 77.6902 87.5369 75.8416C86.8768 73.7791 88.1275 71.7074 87.8392 69.6216C87.803 67.5954 85.8253 66.4142 84.2145 67.8689C82.5823 69.4268 82.2891 71.8752 80.9543 73.6808C80.2531 74.5307 79.2956 76.0235 78.0492 75.7359C76.825 74.4373 76.7839 72.4904 77.0629 70.8046C77.8434 67.1437 79.5524 63.8263 80.0754 60.0762C80.6156 56.2733 80.6537 52.4206 80.6851 48.587C80.7478 48.3448 80.8123 48.0996 80.9033 47.8956C81.6666 46.0494 83.3013 44.7386 84.9772 43.7374C90.1051 40.758 96.0609 39.9106 101.904 39.2628C107.483 38.5573 113.101 38.0337 118.725 37.9231C121.515 37.9114 124.312 38.0146 127.104 37.9421C127.2 37.9562 127.3 37.9612 127.399 37.9562C127.361 38.5659 127.324 39.178 127.286 39.7883C127.142 41.5502 127.257 43.3122 127.254 45.0747C127.233 45.1903 127.235 45.3027 127.257 45.4158C127.29 45.913 127.703 46.3161 128.207 46.3235C128.273 46.3235 128.337 46.3186 128.399 46.3069C129.89 46.7224 131.434 46.8975 133.008 47.0653C133.035 47.0678 133.059 47.0702 133.083 47.0727C134.528 47.214 139.257 47.3148 139.581 45.7378C139.636 45.457 139.562 45.1952 139.411 44.9887C139.533 43.2482 139.507 41.5103 139.531 39.7649C139.536 39.5129 139.538 39.2634 139.541 39.0115C139.785 38.9199 140.025 38.7884 140.299 38.7761C143.825 38.4258 147.362 38.9297 150.895 38.9131C157.744 39.1577 164.516 40.2074 171.216 41.6135C174.743 42.4991 184.218 44.2113 187.25 47.0364C187.231 47.3535 187.359 47.6799 187.625 47.8624C188.794 49.3103 188.58 51.5209 188.715 53.3C188.799 55.6188 188.962 57.9209 189.356 60.2114C189.833 62.2954 190.648 64.0954 190.726 66.3091L190.729 66.3097Z" fill="url(#paint1_linear_5002_654)"/>
<path id="vec18" d="M138.059 18.0543C138.015 19.2619 137.874 20.4695 137.797 21.6747C137.576 27.7773 137.658 33.8867 137.595 39.9942C137.593 41.6412 137.588 43.2858 137.489 44.9273C134.762 45.4841 132.052 45.1024 129.306 44.5481C129.265 44.5334 129.224 44.5217 129.181 44.5076C129.171 43.4247 129.136 42.3418 129.147 41.2571C129.318 37.7738 129.642 34.2978 129.721 30.8071C129.973 26.7645 130.166 22.717 130.295 18.667C130.286 18.3739 130.303 18.074 130.324 17.7716C130.872 17.9756 131.445 18.1102 131.901 18.2086C133.144 18.4439 136.006 18.6 138.059 18.0549V18.0543Z" style="fill: var(--on-primary);"/>
<path id="vec19" d="M135.543 15.553C136.248 15.8578 137.452 15.4903 138.092 16.0237C135.785 16.6193 133.048 16.7631 130.76 15.8603C131.666 15.5026 132.654 15.7281 133.571 15.5647C134.21 15.7564 134.889 15.7349 135.543 15.553Z" style="fill: var(--on-primary);"/>
<path id="vec20" d="M133.81 10.0771C135.14 7.16963 138.74 7.0332 141.569 7.0498C139.427 7.82046 138.186 9.73606 137.158 11.6474C136.623 12.5188 135.814 13.6828 134.623 13.7289C132.718 13.7338 133.243 11.2079 133.81 10.0777V10.0771Z" style="fill: var(--secondary-fixed-dim);"/>
<path id="vec21" d="M147.406 14.1408C146.481 13.5397 145.502 12.9891 144.451 12.6621C143.575 12.2528 143.849 10.8608 144.816 10.8086C146.147 10.9585 147.352 11.8656 148.489 12.5374C149.524 13.2607 148.457 14.8383 147.406 14.1408Z" style="fill: var(--il-ne-outline);"/>
<path id="vec22" d="M157.515 10.022C156.402 9.71841 155.271 9.41113 154.119 9.32263C153.696 9.52114 153.16 9.37118 152.896 8.97786C152.589 8.5194 152.733 7.93126 153.163 7.6166C153.619 7.2829 154.241 7.35234 154.766 7.41994C155.911 7.57911 157.036 7.8655 158.144 8.1906C159.337 8.61158 158.712 10.4172 157.515 10.022Z" style="fill: var(--il-ne-outline);"/>
<path id="vec23" d="M145.817 2.58745C145.081 2.57147 144.617 1.6736 145.046 1.0701C145.291 0.705049 145.721 0.563704 146.124 0.448166C147.706 0.0179719 149.362 -0.067456 150.993 0.045009C152.263 0.133506 152.15 2.05094 150.878 1.99194C149.155 1.84076 147.422 2.04111 145.817 2.58745Z" style="fill: var(--il-ne-outline);"/>
</g>
<g id="ribbon-S">
<path id="vec24" d="M125.127 121.68C112.112 121.218 99.0905 121.484 86.0718 121.317C80.3785 121.111 74.8574 120.92 69.2583 120.866C63.3318 121.088 57.4046 121.237 51.4725 121.088C44.9004 120.702 38.324 120.284 31.7794 119.556C26.5876 119.2 21.6091 119.247 16.4547 118.9C13.086 118.798 9.58202 118.107 6.34121 117.524C5.42497 117.284 4.2 117.516 3.40539 117.007C3.03989 116.676 2.98625 116.101 3.2663 115.701C3.78086 114.533 10.4047 116.407 11.7756 116.478C20.7708 117.519 29.8671 117.077 38.8498 118.296C43.207 118.504 47.5462 118.974 51.9054 119.145C57.8712 119.284 63.832 119.077 69.7916 118.905C76.605 118.983 83.2201 119.354 89.9993 119.4C98.2304 119.456 106.456 119.354 114.685 119.507C120.461 119.5 126.226 119.856 132.005 119.705C141.301 119.731 150.586 119.13 159.867 118.65C166.909 118.267 173.949 117.848 180.993 117.517C188.176 117.487 195.365 117.398 202.525 116.768C206.698 116.632 210.76 115.736 214.812 114.817C216.493 114.532 218.35 114.637 219.974 114.237C221.293 113.826 223.067 113.859 223.787 112.517C224.089 112.064 224.744 111.966 225.18 112.273C225.986 112.878 225.419 113.872 224.871 114.459C222.432 116.326 218.881 116.432 215.918 116.655C213.876 116.907 212.121 117.463 210.16 117.857C198.095 119.857 185.8 119.014 173.646 119.87C157.479 120.643 141.323 121.915 125.126 121.68H125.127Z" style="fill: var(--il-outline);"/>
<path id="vec25" d="M224.814 113.341C224.259 113.297 223.906 112.82 223.916 112.286C223.939 111.029 224.018 109.773 224.035 108.598C224.11 104.457 223.84 100.324 223.645 96.1915C223.603 92.6475 223.83 89.2919 223.497 85.854C223.733 85.1804 224.632 84.9858 225.134 85.4692C225.691 86.0069 225.566 86.8856 225.633 87.5936C225.698 89.7628 225.688 92.1467 225.594 94.2767C225.609 98.4231 226.058 102.551 225.991 106.702C226.031 108.614 225.925 110.529 225.867 112.44C225.857 112.976 225.323 113.38 224.814 113.341Z" style="fill: var(--il-outline);"/>
<path id="vec26" d="M135.419 94.3839C119.853 93.5862 104.264 93.0642 88.7089 92.1698C81.4164 91.5604 74.1577 91.2348 66.8671 91.0783C60.8657 90.9691 54.8943 90.4246 48.9085 90.4153C43.3892 90.3105 37.8058 90.0261 32.3189 89.6026C22.5778 89.3481 12.6632 89.8165 3.13352 87.4701C2.60212 87.3846 2.19545 86.9412 2.25658 86.3836C2.31022 85.8696 2.80981 85.4262 3.34059 85.5067C12.0364 87.6635 21.0865 87.4595 29.9894 87.5992C33.9181 87.6204 37.8712 88.125 41.785 88.2341C48.7395 88.5036 55.7026 88.4917 62.6445 89.0094C73.8084 89.1441 84.9323 89.96 96.07 90.6117C106.382 91.019 116.672 91.7288 126.984 91.9696C131.726 92.1779 136.462 92.6101 141.212 92.5833C144.69 92.539 148.169 92.4111 151.649 92.4273C160.969 92.6718 170.286 92.3862 179.606 92.3619C184.281 92.2178 188.925 91.5747 193.599 91.3895C197.735 91.2248 201.867 90.9616 205.976 90.4271C210.574 89.3942 221.971 90.0635 223.135 84.6746C223.389 84.2455 223.913 84.0459 224.38 84.2287C225.701 84.8929 224.599 86.58 224.017 87.4326C223.269 88.463 222.185 89.1822 221.025 89.6793C216.91 91.5205 212.338 91.4438 207.957 92.128C203.546 92.7791 199.093 93.1078 194.644 93.3118C189.926 93.434 185.241 94.0752 180.528 94.291C175.93 94.4557 171.33 94.2617 166.73 94.4295C162.016 94.639 157.298 94.4544 152.582 94.3858C146.86 94.3035 141.135 94.7619 135.418 94.3833L135.419 94.3839Z" style="fill: var(--il-outline);"/>
<path id="vec27" d="M222.829 88.4082C222.34 88.367 221.95 87.9404 221.935 87.4533C221.92 86.9986 222.257 86.5377 222.707 86.446C223.314 83.333 219.943 80.6093 218.146 78.4387C211.387 71.5642 202.048 68.2335 194.793 62.0444C186.735 54.379 188.361 51.7238 192.824 57.0154C195.087 60.0928 198.17 62.4461 201.409 64.4195C207.424 68.3601 213.916 71.5542 219.095 76.5963C221.553 79.3263 225.099 82.3419 224.745 86.3543C224.612 87.3503 224.04 88.6046 222.83 88.4082H222.829Z" style="fill: var(--il-outline);"/>
<path id="vec28" d="M189.036 79.7522C188.857 73.4795 188.727 67.2043 188.646 60.9285C188.568 57.7831 188.387 57.6977 188.717 54.5722C189.188 53.2275 191.013 53.8993 190.663 55.2471C190.286 59.7653 190.73 61.1817 190.69 65.7068C190.727 68.894 190.751 72.0799 190.887 75.2621C190.928 76.7565 190.945 78.2565 190.992 79.7522C191.006 80.2861 190.539 80.7314 190.015 80.7314C189.472 80.7314 189.05 80.2855 189.036 79.7522Z" style="fill: var(--il-outline);"/>
<path id="vec29" d="M201.518 92.9443C199.239 89.628 195.619 87.6732 192.596 85.1503C190.992 83.9696 190.01 82.3174 189.021 80.6752C188.687 79.9635 189.332 79.1571 190.098 79.25C190.811 79.3161 191.067 80.0409 191.323 80.6022C191.662 81.3881 192.19 82.0336 192.763 82.6555C196.12 85.8408 200.58 87.9752 203.179 91.9045C203.84 92.9929 202.209 94.0239 201.517 92.9449L201.518 92.9443Z" style="fill: var(--il-outline);"/>
<path id="vec30" d="M4.58321 117.046C3.42996 116.882 2.3054 116.49 1.14343 116.42C0.206607 116.397 -0.128327 115.083 0.65381 114.585C0.968162 114.348 1.3848 114.412 1.74281 114.466C2.83182 114.626 3.88652 114.946 4.97365 115.116C6.23417 115.396 5.84997 117.264 4.58321 117.046Z" style="fill: var(--il-outline);"/>
<path id="vec31" d="M13.4481 101.748C9.83555 97.114 5.92674 92.7024 2.58925 87.863C2.13331 87.132 2.87054 86.1447 3.70507 86.3892C4.33377 86.5676 4.72796 87.4445 5.0473 87.8587C8.06108 92.3251 11.7441 96.2432 14.9849 100.533C15.7558 101.544 14.2533 102.749 13.4481 101.748Z" style="fill: var(--il-outline);"/>
<path id="vec32" d="M15.2734 103.932C14.6915 103.276 14.2075 102.536 13.6112 101.895C13.1809 101.711 12.9413 101.24 13.0293 100.769C13.1621 99.9724 14.2112 99.6942 14.7638 100.258C15.5347 100.97 16.073 101.89 16.7716 102.665C17.1246 103.067 17.0591 103.708 16.6568 104.046C16.2433 104.396 15.6308 104.333 15.2728 103.932H15.2734Z" style="fill: var(--il-outline);"/>
<path id="vec33" d="M0.794726 116.049C0.3101 115.957 -0.033565 115.477 0.00261035 114.992C0.0387857 114.536 0.418003 114.117 0.874561 114.063C1.28122 113.811 1.6698 113.534 2.05775 113.255C6.15929 110.051 10.3313 106.928 14.7266 104.138C13.8428 103.78 14.0056 102.396 14.9374 102.245C15.4851 102.142 15.9117 102.568 16.3526 102.825C17.2682 103.264 17.9419 104.506 16.8179 105.139C13.1648 107.33 9.78743 109.921 6.33954 112.41C4.97984 113.439 3.68876 114.571 2.2748 115.525C1.84257 115.828 1.3542 116.195 0.793479 116.049H0.794726Z" style="fill: var(--il-outline);"/>
<path id="vec34" d="M223.645 96.1914C223.84 100.323 224.11 104.456 224.035 108.598C224.018 109.772 223.94 111.03 223.916 112.286C223.916 112.313 223.916 112.337 223.918 112.364C223.869 112.408 223.826 112.459 223.789 112.515C223.068 113.857 221.294 113.824 219.976 114.235C218.351 114.635 216.495 114.53 214.814 114.815C210.76 115.736 206.698 116.63 202.527 116.767C195.367 117.398 188.177 117.486 180.995 117.515C173.949 117.846 166.91 118.265 159.869 118.648C150.586 119.13 141.301 119.729 132.006 119.702C126.227 119.856 120.46 119.5 114.687 119.505C106.457 119.352 98.2311 119.456 90.0012 119.398C83.2208 119.354 76.6057 118.981 69.7935 118.903C63.8314 119.076 57.8724 119.283 51.9054 119.145C47.5469 118.974 43.2077 118.504 38.851 118.295C29.8683 117.076 20.7708 117.52 11.7756 116.477C10.8719 116.431 7.68471 115.6 5.47052 115.376C5.3489 115.256 5.18549 115.163 4.97342 115.117C4.41769 115.029 3.86945 114.903 3.31934 114.779C4.34036 114.011 5.32208 113.18 6.3406 112.41C9.78787 109.921 13.1671 107.331 16.8196 105.138C17.6454 104.675 17.4995 103.879 17.0024 103.315C17.0098 103.084 16.9344 102.85 16.7735 102.665C16.0843 101.902 15.5529 100.996 14.8 100.289C11.6178 96.1084 8.03149 92.2689 5.08133 87.9072C14.0104 89.754 23.242 89.3642 32.3201 89.6031C37.807 90.0247 43.3911 90.3097 48.9097 90.4145C54.8961 90.4245 60.8675 90.9678 66.8683 91.0769C74.1601 91.2328 81.4183 91.5591 88.7107 92.1684C104.267 93.0628 119.855 93.5861 135.421 94.3832C141.139 94.7631 146.865 94.3028 152.585 94.3857C157.302 94.4562 162.019 94.6389 166.734 94.4294C171.333 94.2616 175.933 94.4562 180.531 94.2903C185.245 94.0757 189.93 93.4327 194.647 93.3111C196.923 93.2063 199.201 93.0697 201.471 92.8726C201.488 92.8944 201.503 92.9187 201.52 92.9431C202.031 93.7421 203.06 93.384 203.286 92.7017C204.848 92.5458 206.407 92.3555 207.959 92.1266C212.342 91.4418 216.913 91.5198 221.028 89.6779C221.771 89.3586 222.482 88.9494 223.094 88.4255C223.301 88.423 223.488 88.3744 223.651 88.2914C223.739 90.8935 223.614 93.4882 223.646 96.1901L223.645 96.1914Z" fill="url(#paint2_linear_5002_654)"/>
<path id="vec35" d="M218.146 78.4374C219.791 80.4234 222.754 82.8739 222.778 85.6588C220.507 89.9836 210.274 89.4622 205.976 90.4271C204.783 90.583 203.586 90.7146 202.39 90.8288C199.742 87.5568 195.8 85.5372 192.764 82.6544C192.188 82.0332 191.662 81.3876 191.323 80.6005C191.221 80.3741 191.116 80.1227 190.982 79.8963C190.99 79.8477 190.994 79.799 190.992 79.7504C190.946 78.2541 190.927 76.7559 190.887 75.2603C190.751 72.0781 190.727 68.8915 190.69 65.705C190.715 62.9032 190.554 60.099 190.518 57.2948C191.824 59.1316 193.468 60.7814 194.794 62.0432C199.177 65.7829 204.322 68.4799 209.198 71.5448C209.254 71.7107 209.354 71.8616 209.493 71.9808C209.727 72.1953 209.972 72.234 210.221 72.1953C213.047 74.0228 215.759 76.0081 218.147 78.4374H218.146Z" style="fill: var(--secondary-fixed-dim);"/>
</g>
</g>
<defs>
<linearGradient id="paint0_linear_5002_654" x1="81.0073" y1="86.4242" x2="185.176" y2="84.5805" gradientUnits="userSpaceOnUse">
<stop style="stop-color: var(--primary-fixed-dim);"/>
<stop offset="1" style="stop-color: var(--primary-fixed);"/>
</linearGradient>
<linearGradient id="paint1_linear_5002_654" x1="188.249" y1="53.5452" x2="78.5496" y2="53.2379" gradientUnits="userSpaceOnUse">
<stop style="stop-color: var(--tertiary-fixed);"/>
<stop offset="1" style="stop-color: var(--tertiary-fixed-dim);"/>
</linearGradient>
<linearGradient id="paint2_linear_5002_654" x1="3.31934" y1="103.824" x2="224.048" y2="103.824" gradientUnits="userSpaceOnUse">
<stop style="stop-color: var(--secondary-fixed);"/>
<stop offset="1" style="stop-color: var(--secondary-fixed-dim);"/>
</linearGradient>
</defs>
</svg>