<svg xmlns="http://www.w3.org/2000/svg" width="368" height="237" viewBox="0 0 368 237" fill="none">
<g id="unlock-method" clip-path="url(#clip0_2417_323)">
<g id="Group">
<g id="unlock_method">
<g id="FL">
<g id="Group_2">
<g id="Group_3">
<path id="vec1" d="M336.502 148.395C337.291 156.193 338.584 163.995 338.203 171.858C337.898 181.843 335.87 191.566 332.332 200.922C331.675 202.707 330.932 204.46 330.188 206.208C330.094 206.427 330.097 206.667 330.176 206.882C329.713 207.725 329.259 208.575 328.851 209.444C327.013 213.332 324.523 216.861 321.794 220.204C319.077 223.378 316.24 226.514 312.288 228.118C305.025 231.891 296.386 232.953 288.33 231.78C282.395 230.961 276.474 229.857 271.069 227.139C263.843 224.126 258.396 218.353 254.894 211.443C251.641 205.427 248.825 198.815 248.729 191.876C248.927 187.182 249.117 182.537 250.484 177.987C252.404 172.784 253.961 167.466 255.729 162.213C255.952 161.548 255.555 161.06 255.059 160.924C254.663 159.804 254.295 158.676 253.974 157.531C253.891 157.3 253.755 157.134 253.597 157.027C253.565 156.787 253.441 156.585 253.272 156.44H253.268C252.107 152.675 251.351 148.775 250.191 145.01C249.361 142.191 248.019 139.551 247.276 136.712C246.392 133.431 245.818 130.079 244.963 126.794C243.786 122.554 243.435 118.273 245.062 114.054C245.81 112.207 246.429 110.276 247.66 108.665C248.845 107.52 250.248 106.421 251.851 105.962C256.827 105.292 261.493 107.834 264.991 111.264C263.859 111.962 263.07 113.313 262.446 114.429C260.923 117.575 262.171 121.26 263.256 124.364C264.504 128.393 267.175 132.043 271.312 133.398C273.84 134.092 276.325 133.183 276.953 130.964C280.129 138.092 282.73 145.523 285.464 152.755C286.537 156.449 288.081 160.119 288.734 163.879C288.734 164.375 289.118 164.834 289.617 164.895C292.45 165.09 289.155 158.721 288.969 157.102C286.55 149.373 283.717 141.766 280.459 134.356C279.084 131.046 277.659 127.712 276.065 124.463C277.432 122.579 277.271 117.057 277.011 115.624C275.97 103.512 259.912 96.9326 248.539 98.9987C249.241 97.834 250.047 96.7348 250.822 95.6229C253.68 91.2633 257.306 87.5849 262.472 86.2043C269.132 83.9605 276.218 87.3617 281.52 91.3415C282.234 91.8832 282.899 92.4651 283.532 93.0808C283.63 93.3907 283.853 93.6552 284.188 93.7462C286.922 96.61 288.945 100.074 290.984 103.486C296.844 112.793 302.187 122.488 306.082 132.802C306.494 134.063 308.328 133.435 307.985 132.216C305.45 125.459 302.241 118.93 298.793 112.595C295.283 106.69 291.848 100.718 287.999 95.0442C287.458 94.3577 286.88 93.6848 286.265 93.0321C286.298 93.0194 286.331 93.0067 286.364 92.994C294.189 90.7385 302.699 95.5605 306.99 102.107C307.811 103.388 308.597 104.693 309.34 106.024C309.331 106.074 309.331 106.124 309.331 106.177C309.344 106.562 309.574 106.875 309.901 107.028C313.7 113.996 316.57 121.521 319.155 129.001C319.32 129.526 319.89 129.823 320.402 129.662C320.914 129.501 321.228 128.93 321.059 128.414C319.762 124.079 317.957 119.925 316.211 115.76C314.617 112.149 313.027 108.351 311.058 104.813C314.803 104.867 318.35 106.458 320.91 109.264C330.482 119.574 334.669 134.708 336.502 148.395Z" fill="url(#paint0_linear_2417_323)"/>
</g>
<g id="Group_4">
<path id="vec2" d="M275.041 129.021C275.156 130.091 275.045 131.401 273.724 131.53C270.821 131.968 268.15 129.46 266.647 127.212C265.164 123.496 262.603 119.087 264.367 115.094C264.867 114.231 265.486 113.31 266.361 112.814C266.378 112.805 266.394 112.798 266.407 112.785C270.098 117.52 273.068 122.707 275.635 128.112C275.285 128.273 275.021 128.625 275.041 129.021Z" style="fill: var(--primary-fixed);"/>
</g>
<g id="Group_5">
<path id="vec3" d="M273.951 111.694C275.24 114.901 275.602 118.62 274.822 122.021C272.61 117.835 270.053 113.855 266.874 110.347C262.711 106.016 256.166 102.343 250.097 104.466C246.02 106.181 244.096 110.247 242.899 114.264C242.602 115.066 242.383 115.868 242.23 116.677C241.115 116.591 239.48 117.302 238.567 117.219C233.008 117.521 227.525 118.645 221.958 118.715C220.654 118.876 216.83 118.008 217.132 120.161C217.387 121.046 218.321 120.885 219.006 120.719C226.708 120.757 234.342 119.662 241.982 118.748C241.746 122.897 242.981 127.092 243.956 131.145C244.27 132.893 244.662 134.616 245.128 136.32C245.1 136.311 245.067 136.307 245.037 136.299C244.905 136.27 244.773 136.274 244.645 136.303C244.534 136.142 244.369 136.006 244.133 135.923C241.726 135.071 239.814 133.075 238.646 130.844C238.451 130.463 238.356 129.943 238.166 129.517C238.191 128.951 237.877 128.41 237.691 127.885C237.287 126.947 237.015 125.943 236.486 125.067C235.239 123.749 234.091 126.257 233.149 126.947C232.753 127.513 231.349 129.025 230.337 130.472C230.226 130.29 230.114 130.109 230.027 129.927C229.384 128.939 227.653 126.285 226.312 127.245C225.576 128.34 225.473 129.799 224.998 131.046C224.28 129.745 223.569 128.435 222.925 127.096C222.521 126.025 221.022 125.281 220.464 126.641C220.162 127.443 218.304 129.873 217.598 131.65C217.454 129.662 217.441 127.67 217.297 125.691C217.103 122.327 216.042 119.038 216.322 115.653C216.813 115.632 217.181 115.508 217.446 115.331C217.495 115.359 217.549 115.385 217.602 115.409C217.966 115.57 218.386 115.442 218.659 115.17C222.504 114.876 226.468 114.599 230.329 114.281C231.283 114.045 234.161 114.182 235.408 113.475C235.437 113.492 235.462 113.499 235.49 113.508C236.259 113.583 236.775 112.702 236.469 112.033C236.337 111 236.894 109.996 237.353 109.098C239.079 106.098 241.391 103.553 244.69 102.255C253.767 97.9661 269.566 102.417 273.951 111.694Z" style="fill: var(--secondary-fixed);"/>
</g>
<g id="Group_6">
<path id="vec4" d="M247.817 144.163C249.183 148.477 250.195 152.974 251.447 157.337C250.054 161.032 246.297 167.47 242.152 168.123C242.147 168.11 242.139 168.102 242.126 168.094C241.718 167.755 241.144 167.718 240.748 168.094C236.518 167.044 233.459 163.202 232.596 159.003C234.053 158.461 235.012 156.713 235.809 155.457C237.733 151.126 239.104 145.965 237.258 141.389C236.795 140.572 236.242 139.542 235.461 138.915C235.816 137.48 236.151 136.043 236.531 134.612C236.589 134.1 236.923 133.233 237.187 132.344C238.6 134.799 240.826 136.886 243.501 137.816C243.703 137.881 243.885 137.89 244.051 137.849C244.331 138.196 244.893 138.348 245.36 138.419C245.496 138.443 245.624 138.443 245.739 138.423C246.339 140.365 247.036 142.278 247.817 144.163Z" style="fill: var(--primary-fixed-dim);"/>
</g>
<g id="Group_7">
<path id="vec5" d="M253.408 162.358C253.436 162.445 253.473 162.523 253.527 162.598C251.727 168.28 249.662 173.884 248.003 179.62C247.882 180.285 247.767 180.954 247.656 181.628C247.255 181.124 246.883 180.595 246.458 179.995C245.81 179.284 245.587 177.429 244.674 177.057C244.063 175.718 243.58 174.305 243.105 172.954C242.902 172.061 242.684 171.086 242.594 170.119C246.818 169.392 250.418 164.375 252.437 160.159C252.541 160.313 252.66 160.445 252.792 160.539C252.994 161.148 253.202 161.755 253.408 162.358Z" style="fill: var(--primary-fixed-dim);"/>
</g>
<g id="Group_8">
<path id="vec6" d="M234.78 141.241C237.679 145.349 235.454 153.056 232.567 156.556C232.501 156.672 232.422 156.763 232.339 156.833C232.072 151.597 233.541 146.345 234.78 141.241Z" style="fill: var(--primary-fixed);"/>
</g>
<g id="Group_9">
<path id="vec7" d="M212.412 172.863C212.68 174.685 212.308 176.689 212.969 178.413C212.738 178.421 212.498 178.45 212.288 178.479C208.406 178.578 204.533 178.752 200.656 178.95C186.707 179.466 172.816 180.719 158.924 182.033C148.362 182.711 137.691 183.537 127.104 184.165C126.331 184.215 125.58 184.281 124.812 184.335C128.202 167.734 127.31 152.998 119.523 137.001C119.406 136.761 119.287 136.525 119.163 136.291C119.432 136.414 119.709 136.522 119.993 136.596C120.394 136.703 120.803 136.787 121.212 136.869C121.273 136.881 121.331 136.885 121.389 136.885C121.699 136.885 121.992 136.729 122.178 136.484C122.834 136.605 123.478 135.864 123.998 135.447C124.477 135.116 124.907 134.72 125.278 134.282C125.902 137.667 127.698 141.381 131.072 142.344C132.62 142.741 133.941 142.526 135.024 141.91C134.97 142.113 134.92 142.315 134.871 142.519C134.743 143.059 134.656 143.605 134.574 144.151C134.52 144.494 134.5 144.836 134.495 145.183C133.991 144.927 133.426 144.787 132.884 144.791C132.401 144.812 132.104 145.092 131.993 145.439C129.871 145.163 130.126 150.25 130.577 151.585C131.014 153.804 132.555 156.003 134.669 156.87C135.499 157.007 136.391 156.788 137.097 156.341C137.242 156.242 137.374 156.105 137.481 155.953C137.931 156.532 138.427 157.076 138.967 157.577C139.818 158.358 140.723 159.09 141.635 159.792C142.532 160.486 143.452 161.13 144.464 161.644C144.98 161.908 145.5 162.164 146.037 162.391C146.582 162.622 147.135 162.825 147.692 163.011C148.766 163.37 149.882 163.532 151.009 163.586C151.219 163.593 151.433 163.602 151.645 163.602C152.57 163.602 153.486 163.502 154.394 163.313C155.568 163.061 156.736 162.812 157.901 162.519C158.12 162.466 158.309 162.35 158.454 162.193H158.458C160.15 162.362 163.458 159.379 164.309 158.548C164.474 158.366 164.553 158.171 164.573 157.982C164.792 157.948 164.995 157.846 165.135 157.664C165.481 157.23 165.832 156.8 166.183 156.37C166.555 155.916 166.886 155.436 167.199 154.936C167.497 154.461 167.762 153.948 168.013 153.445C168.286 152.903 168.559 152.361 168.826 151.821C168.914 151.643 168.942 151.448 168.917 151.262C169.553 150.523 169.558 148.845 169.863 148.043C169.904 147.477 170.152 146.51 170.186 145.647C170.375 145.047 170.491 144.457 170.206 144.026C170.76 143.005 169.64 141.018 169.425 140.009C168.802 138.038 167.868 136.092 166.663 134.331C169.974 134.088 172.258 130.617 172.848 126.956C173.799 127.869 175.103 128.472 176.329 128.625C177.791 128.894 182.966 127.422 183.792 125.513C183.948 125.385 184.064 125.203 184.126 124.992C184.361 124.186 184.589 123.381 184.807 122.575C185.046 121.703 185.22 120.814 185.245 119.909C185.265 119.037 185.215 118.116 184.903 117.294C184.576 116.446 183.969 115.67 183.185 115.194C182.531 114.797 181.809 114.619 181.074 114.446C180.715 114.363 180.352 114.289 179.984 114.252C179.587 114.211 179.178 114.227 178.857 114.491C178.775 114.558 178.708 114.632 178.654 114.714C178.039 114.818 177.419 114.996 176.999 115.07C174.434 115.954 172.519 118.046 171.758 120.541C171.015 119.446 169.913 118.64 168.414 118.339C164.168 117.719 161.03 121.116 160.672 125.174C160.589 126.286 160.581 127.53 160.754 128.736C158.582 127.509 156.125 126.839 153.469 127.004C151.875 127.145 150.038 127.17 148.506 127.786C148.127 127.761 147.718 127.873 147.387 128.001C147.07 128.12 146.759 128.253 146.458 128.402C145.933 128.653 145.43 128.947 144.93 129.236C143.964 129.794 143.039 130.398 142.176 131.104C141.271 131.844 140.421 132.638 139.632 133.497C139.302 133.856 138.992 134.233 138.703 134.625C138.774 133.518 138.691 132.43 138.451 131.468C137.576 129.17 136.568 126.215 134.086 125.278C130.911 124.211 127.905 125.662 126.29 128.166C126.274 128.141 126.257 128.116 126.236 128.092C126.233 128.079 126.225 128.066 126.216 128.055C126.166 127.968 126.108 127.885 126.051 127.81C126.047 127.802 126.043 127.798 126.034 127.79C125.122 126.438 123.487 124.327 122.215 124.571C121.158 123.65 117.772 125.17 117.891 126.555C116.62 126.596 115.988 128.988 115.877 130.873C113.729 127.852 111.198 125.108 108.345 122.711C105.21 120.108 101.089 116.834 96.7905 115.516C96.8148 114.194 96.7862 112.872 96.7535 111.545C96.505 108.525 96.8729 105.487 96.8232 102.479C96.9184 102.516 97.0178 102.537 97.1245 102.537C98.558 102.533 99.9745 102.83 101.407 102.85C122.144 102.702 142.878 102.152 163.631 101.507C174.599 101.445 185.641 101.863 196.613 102.028C198.905 102.032 201.208 102.218 203.463 102.412C203.604 102.42 203.736 102.403 203.847 102.371C204.351 111.248 206.838 119.917 207.911 128.736C209.038 134.724 209.212 140.799 209.806 146.849C211.008 155.32 211.734 163.846 212.304 172.383C212.317 172.544 212.354 172.689 212.412 172.805V172.863Z" fill="url(#paint1_linear_2417_323)"/>
</g>
<g id="Group_10">
<path id="vec8" d="M156.695 156.408C157.735 155.821 160.692 154.54 158.895 153.189C158.458 152.965 157.921 153.098 157.632 153.477C155.7 155.097 153.235 155.424 150.856 154.672C149.464 154.382 148.84 153.386 147.837 152.622C147.213 152.387 146.553 152.866 146.503 153.502C146.821 155.184 148.866 156.114 150.356 156.61C152.408 157.13 154.745 157.416 156.695 156.408ZM160.378 148.37C161.976 148.539 163.438 147.064 163.306 145.469C163.115 143.803 161.121 142.989 159.634 143.365C158.111 143.588 156.81 147.576 158.809 147.795C159.272 148.105 159.829 148.341 160.378 148.37ZM168.372 143.758C168.393 143.886 168.442 144.006 168.513 144.11C168.154 144.398 168.121 144.915 168.121 145.461C167.881 146.146 167.658 146.857 167.959 147.357C167.774 148.361 167.534 149.341 167.229 150.336C167.187 150.464 167.175 150.597 167.183 150.722C167.125 150.783 167.075 150.854 167.038 150.932C166.56 151.912 166.068 152.883 165.535 153.833C165.271 154.25 164.995 154.646 164.697 155.036C164.346 155.465 163.995 155.895 163.648 156.324C163.52 156.49 163.438 156.68 163.413 156.874C163.206 156.899 162.996 156.998 162.81 157.197C161.989 158.028 160.89 158.891 159.833 159.532C159.32 159.866 158.421 160.085 157.929 160.527C157.797 160.495 157.657 160.49 157.52 160.527C156.719 160.729 155.914 160.916 155.105 161.089C154.42 161.238 153.742 161.391 153.049 161.503C152.607 161.548 152.165 161.581 151.719 161.594C151.067 161.581 150.426 161.54 149.782 161.466C149.472 161.408 149.167 161.342 148.861 161.271C148.262 161.093 147.672 160.896 147.085 160.672C146.334 160.354 145.496 159.936 144.666 159.486C144.339 159.279 144.018 159.077 143.704 158.858C143.398 158.639 143.101 158.412 142.803 158.184C142.357 157.829 141.891 157.466 141.441 157.089C140.974 156.701 140.524 156.304 140.082 155.895C139.905 155.713 139.632 155.437 139.384 155.143C139.141 154.854 138.914 154.56 138.691 154.258C138.555 154.052 138.418 153.846 138.282 153.634C138.113 153.328 137.948 153.023 137.799 152.701C137.662 152.42 137.547 152.134 137.431 151.849C137.249 151.353 137.076 150.861 136.939 150.353C136.878 150.06 136.824 149.77 136.779 149.469C136.688 148.725 136.651 147.977 136.597 147.229C136.551 146.564 136.49 145.894 136.486 145.22C136.486 145.064 136.502 144.778 136.536 144.498C136.622 143.919 136.733 143.357 136.857 142.79C139.595 145.2 143.526 145.333 146.995 145.621C153.548 145.696 160.399 142.233 164.235 136.923C164.536 136.638 164.907 136.195 165.168 135.725C166.737 138.079 167.844 140.861 168.372 143.758Z" style="fill: var(--secondary-fixed);"/>
</g>
<g id="Group_11">
<path id="vec9" d="M191.893 92.9702C192.69 92.1101 192.76 90.7962 192.062 89.8578C189.601 86.5888 184.993 86.5106 181.281 85.9118C180.698 85.2167 179.633 85.5108 178.844 85.5479C176.453 85.734 174.022 85.9033 171.754 86.7422C168.253 87.7261 166.118 91.0353 169.893 93.4039C172.581 95.5071 176.186 95.1188 179.394 95.3992C183.51 95.433 188.73 96.1016 191.893 92.9702ZM211.656 83.8161C212.065 83.7589 212.73 83.833 213.44 83.8901C209.992 88.6719 207.382 93.9699 204.537 99.1146C203.885 99.3092 203.744 99.945 203.946 100.458C203.868 100.424 203.781 100.396 203.686 100.383C178.175 98.8871 152.656 99.7059 127.124 100.541C117.148 100.391 107.171 101.243 97.2164 100.545C97.0261 100.545 96.8485 100.59 96.691 100.677C96.691 100.636 96.6878 100.595 96.6836 100.556C96.7037 100.515 96.7248 100.474 96.7491 100.433C96.9806 100.012 97.2122 99.5938 97.4426 99.177C97.9056 98.3465 98.3803 97.5192 98.8179 96.6761C99.2725 95.8001 99.7059 94.9157 100.165 94.0397C100.618 93.1638 101.085 92.2963 101.552 91.432C101.601 91.3378 101.634 91.2384 101.647 91.1347C102.539 90.3085 103.22 88.3291 103.819 87.6637C104 87.1548 104.599 86.4407 105.099 85.7129C105.421 85.7869 105.739 85.6674 106.023 85.4897C106.527 85.3416 107.275 85.3987 107.894 85.3003C107.972 85.9361 108.055 86.5772 108.15 87.213C108.291 88.1429 108.431 89.0728 108.559 90.007C108.67 90.8247 108.799 91.651 108.832 92.4783V92.4899C108.832 92.4941 108.828 92.4984 108.828 92.5068C108.795 92.6433 108.811 92.7882 108.836 92.9247C108.919 93.3669 109.348 93.697 109.79 93.7181C110.834 95.5028 116.174 96.218 117.635 96.3375C121.212 96.6845 129.012 95.6721 129.264 91.122C129.247 91.0279 129.218 90.9411 129.185 90.866C129.37 89.6642 128.937 87.8372 128.941 86.9856C128.826 86.1223 128.702 85.258 128.574 84.3947C129.491 84.527 130.518 84.345 131.428 84.4402C144.65 83.7875 157.86 82.9983 171.089 82.4281C184.642 82.6058 198.116 83.2088 211.656 83.8161Z" fill="url(#paint2_linear_2417_323)"/>
</g>
<g id="Group_12">
<path id="vec10" d="M182.767 62.4512C182.771 62.9632 182.763 63.4636 182.739 63.9724C182.717 64.4221 182.672 64.877 182.631 65.3276C182.561 65.9306 182.486 66.5337 182.383 67.1377C182.293 67.6783 182.18 68.2115 182.053 68.7447C181.946 69.1171 181.838 69.4852 181.719 69.8566C181.537 70.2903 181.351 70.7167 181.14 71.1335C180.967 71.4106 180.794 71.6836 180.603 71.9523C180.397 72.2083 180.178 72.4516 179.959 72.6918C179.765 72.8737 179.576 73.0557 179.377 73.225C179.282 73.2906 179.191 73.353 179.096 73.4143C179.002 73.4641 178.911 73.5138 178.816 73.5593L178.811 73.5635C178.786 73.572 178.766 73.5847 178.741 73.5963C178.551 73.6714 178.303 73.7656 178.051 73.8491C177.982 73.8692 177.907 73.8862 177.837 73.902C177.733 73.9147 177.626 73.9232 177.523 73.9317C177.341 73.9274 177.163 73.9147 176.986 73.8978C176.801 73.8735 176.487 73.8238 176.169 73.7656C175.995 73.737 175.826 73.7539 175.673 73.8068C175.537 73.683 175.359 73.5804 175.136 73.5138C174.128 72.7034 173.905 71.3027 173.476 70.1422C172.96 68.5712 172.514 66.9801 172.246 65.352C176.982 59.5292 180.36 57.4631 169.595 56.3057C167.654 47.0701 164.508 38.0736 159.895 29.842C156.034 24.8455 150.731 20.9947 145.253 17.9405C138.141 14.1637 128.846 13.4898 123.99 21.0317C121.141 26.4863 119.935 32.9904 120.117 39.1231C120.864 45.8557 121.298 52.6369 122.28 59.3356C123.156 64.9436 124.758 70.4596 125.353 76.1215C125.861 81.0884 127.124 85.9654 127.15 90.9778C127.15 91.1429 127.187 91.3005 127.252 91.4401C127.252 91.4486 127.256 91.4571 127.256 91.4655C123.937 95.5068 116.719 94.6932 112.246 93.1518C111.8 92.9202 111.343 92.3997 110.867 92.1807C110.851 91.7882 110.793 91.3947 110.743 91.0191C110.673 90.432 110.603 89.8416 110.516 89.2587C110.347 88.1056 110.153 86.9567 110.009 85.7993C109.864 84.6589 109.736 83.5185 109.582 82.378C109.43 81.2207 109.211 80.0718 109.001 78.9229C108.881 78.1009 108.737 77.1509 108.637 76.1956C108.518 75.0552 108.386 73.919 108.258 72.7828C108.117 71.5714 107.994 70.3612 107.862 69.1499C107.745 68.0793 107.568 67.0182 107.345 65.9634C107.114 64.86 106.903 63.7566 106.718 62.6416C106.482 61.0251 106.263 59.4012 105.995 57.79C105.821 56.6654 105.672 55.5462 105.565 54.4131C105.47 53.3848 105.412 52.347 105.33 51.3187C105.235 50.1487 105.135 48.9839 105.057 47.8139C104.983 46.7686 104.938 45.7107 104.901 44.6613C104.842 42.6237 104.773 40.5777 104.826 38.5402C104.884 36.4624 105 34.3879 105.202 32.3218C105.313 31.5484 105.449 30.6968 105.623 29.8505C105.793 28.9988 105.974 28.1599 106.16 27.3125C106.511 25.8579 106.928 24.4075 107.366 22.9571C107.791 21.5691 108.278 20.2086 108.79 18.8492C109.22 17.7543 109.666 16.6678 110.186 15.6099C110.665 14.6302 111.177 13.6549 111.697 12.6964C111.709 12.671 111.722 12.6467 111.735 12.6255C111.879 12.4023 112.06 12.1219 112.251 11.8363C112.767 11.209 113.325 10.6218 113.882 10.0304C114.419 9.46022 114.943 8.88155 115.476 8.3071C115.794 7.98126 116.115 7.66283 116.451 7.35709C116.78 7.05981 117.127 6.78264 117.474 6.50124C118.114 6.04316 118.862 5.5343 119.629 5.04237C120.121 4.75356 120.621 4.48486 121.128 4.22884C121.414 4.10083 121.702 3.96436 122 3.86491C122.317 3.75806 122.636 3.64593 122.954 3.53908C123.424 3.40684 123.892 3.28201 124.366 3.17938C124.795 3.07994 125.229 3.00589 125.662 2.92654H125.679C125.7 2.92337 125.725 2.91914 125.746 2.91491C126.613 2.79113 127.533 2.67053 128.467 2.6134C129.453 2.55099 130.44 2.50127 131.428 2.43568C132.353 2.37326 133.273 2.27381 134.198 2.1786C135.082 2.08762 135.969 2.05482 136.861 2.02626C137.398 2.03896 137.944 2.02626 138.48 2.05905C139.017 2.09185 139.558 2.12147 140.095 2.15427C140.883 2.23678 141.668 2.31931 142.448 2.43568C143.27 2.55099 144.088 2.70015 144.91 2.85249C146.429 3.12543 147.937 3.48089 149.435 3.81519C150.224 4.00984 151.037 4.20768 151.851 4.43513C152.594 4.64249 153.325 4.89426 154.06 5.14182C154.741 5.41476 155.427 5.68771 156.099 5.99344C156.79 6.30341 157.459 6.64194 158.135 6.98893C158.33 7.1053 158.523 7.22485 158.718 7.3444C158.937 7.47664 159.168 7.59724 159.374 7.74112C159.775 8.02252 160.171 8.30392 160.568 8.58427C160.94 8.88155 161.324 9.16718 161.679 9.48138C162.063 9.81568 162.446 10.151 162.831 10.4896C163.141 10.7868 163.451 11.0884 163.756 11.3899C164.02 11.6427 164.255 11.9273 164.499 12.2002C165.002 12.762 165.486 13.3407 165.964 13.9278C166.427 14.5435 166.886 15.155 167.324 15.7918C167.74 16.3906 168.128 17.0106 168.521 17.6305C169.434 19.2343 170.309 20.8624 171.126 22.5191C171.949 24.1684 172.729 25.8378 173.493 27.5114C173.539 27.6267 173.587 27.742 173.637 27.8584C174.079 28.8994 174.521 29.9415 174.913 30.9994C175.309 32.0816 175.701 33.1649 176.106 34.2387C176.515 35.3379 176.933 36.4328 177.312 37.5405C177.688 38.6312 178.047 39.7187 178.39 40.8179C178.914 42.6523 179.385 44.5036 179.873 46.3508C180.161 47.4499 180.43 48.5618 180.624 49.6821C180.818 50.7972 181.012 51.9175 181.227 53.0294C181.656 55.2404 182.082 57.4546 182.457 59.6699C182.527 60.129 182.602 60.5829 182.652 61.0463C182.705 61.5128 182.739 61.9804 182.767 62.4512Z" fill="url(#paint3_radial_2417_323)"/>
</g>
<g id="Group_13">
<path id="vec11" d="M211.21 53.476C212.358 52.7312 213.498 51.9791 214.663 51.2607C212.027 55.2734 208.955 59.1866 205.92 62.9306C204.954 64.0255 204.001 65.1787 203.001 66.2609C202.799 66.3519 202.621 66.5011 202.51 66.683C201.828 68.0139 203.546 68.4677 204.545 68.4603C207.168 68.7407 209.789 69.0718 212.362 69.6378C204.772 71.2532 197.125 72.3439 189.47 73.5383C188.734 73.5923 188.003 73.679 187.269 73.733C187.867 72.0223 188.54 70.2778 189.225 68.5545C192.496 60.2234 196.311 51.9547 198.772 43.3349C198.768 43.9918 198.768 44.6403 198.772 45.2772C198.785 48.7355 198.661 52.2023 198.458 55.6617C198.401 56.5588 198.425 57.4675 198.373 58.3689C198.124 58.4884 197.926 58.7159 197.84 58.9962C197.674 59.5336 197.972 60.088 198.475 60.3027C199.776 60.6085 200.903 59.3771 202.039 58.8809C205.066 57.0338 208.184 55.3274 211.21 53.476Z" style="fill: var(--secondary-fixed);"/>
</g>
<g id="Group_14">
<path id="vec12" d="M73.9099 88.4691C75.9829 84.7833 75.6943 78.3575 73.9426 74.5797C73.0716 73.2457 72.4394 71.4398 70.8083 70.8897C67.5915 69.6826 64.1729 71.4144 62.8969 74.53C60.8408 78.4771 61.4931 83.0684 62.2944 87.2673C62.8684 91.1435 65.0978 95.2514 68.8019 96.8869C69.0377 96.9863 69.3019 96.9694 69.5324 96.871C69.6857 97.0075 69.876 97.09 70.0863 97.1027C86.0952 97.4328 84.1797 69.8815 73.6287 63.7319C72.2375 63.022 70.3834 62.4507 68.9711 63.3933C68.4922 63.6747 68.3643 64.3402 68.6529 64.7982C69.0292 65.4097 69.8009 65.3568 70.3178 64.9633C71.3749 64.7866 72.4151 65.3399 73.2989 65.8604C81.1733 71.5795 83.6924 94.2506 70.8379 95.1022C70.4944 95.0567 70.1064 95.0609 69.7893 95.1763C69.4415 94.8948 68.9383 94.7055 68.5747 94.4865C65.7913 92.4659 64.4456 88.9938 64.0735 85.6423C63.2722 81.4942 62.9836 76.4522 66.304 73.2912C66.6095 73.0013 67.0017 72.8109 67.4066 72.7125C68.4013 72.4808 69.5409 72.4935 70.4616 72.9643C71.4532 74.1915 72.32 75.5551 72.783 77.0849C73.319 80.8775 74.0632 85.527 71.2756 88.6267C70.6931 89.0023 70.0451 88.3125 69.785 87.8163C68.8474 86.312 68.9753 84.4035 69.6772 82.8082C69.8051 83.1509 69.8633 83.5307 69.9087 83.8989C69.9912 85.2255 71.9944 85.1303 71.9405 83.8037C71.8908 82.2951 70.9901 80.047 69.1444 80.4776C68.0133 80.8574 67.7406 82.2041 67.3854 83.2091C66.6634 85.6381 67.1835 88.6553 69.285 90.2421C71.1519 91.5603 73.0219 90.2421 73.9099 88.4691ZM100.626 141.295C100.94 140.17 100.899 136.687 99.3587 136.534C99.2266 136.249 99.0532 135.973 98.901 135.712C98.6938 135.353 98.4707 135.01 98.2276 134.675C97.938 134.269 97.5912 133.89 97.2244 133.551C96.8238 133.179 96.4062 132.799 95.9231 132.543C94.5404 131.807 92.8839 131.885 91.3976 132.22C90.4811 132.431 89.6016 132.778 88.7591 133.191C86.6945 134.187 84.8192 135.572 83.2463 137.241C82.8255 137.687 82.4249 138.137 82.0486 138.617C81.6817 139.084 81.3551 139.572 81.0369 140.072C80.5453 140.844 80.1288 141.663 79.7567 142.505C78.799 142.741 78.8402 144.217 78.9481 145.171C78.8233 145.44 78.7948 145.77 78.8645 146.076C79.0591 148.295 80.2694 150.452 82.2515 151.543C89.4483 155.172 98.5574 148.262 100.626 141.295ZM101.44 132.96C103.624 137.778 102.25 143.559 98.475 147.188C98.3555 147.324 98.2318 147.456 98.1039 147.589C97.6737 147.667 97.3354 148.018 97.2773 148.453C92.6651 153.155 86.9546 156.808 81.149 159.887C75.0864 162.73 68.8188 165.867 62.0132 166.206C57.8672 165.879 53.7424 165.796 49.5879 165.779C44.2326 165.118 38.3773 163.11 35.4037 158.391C35.5442 157.845 35.4946 157.337 34.8793 157.036C34.8011 157.015 34.7229 156.999 34.652 156.99C30.8739 146.808 29.3464 132.806 39.723 126.013C42.2918 124.208 45.0455 122.608 47.8543 121.19C49.386 120.43 50.9093 119.649 52.4538 118.918C52.8755 118.756 53.366 118.467 53.5891 118.071C54.2043 117.839 54.7826 117.434 55.365 117.067C55.4517 119.021 55.5638 120.967 55.6874 122.909C55.642 123.406 55.9845 123.889 56.476 123.992C59.0649 124.245 57.1071 118.83 57.3143 117.161C57.0585 111.632 57.0913 106.102 57.0871 100.57C57.475 95.8173 56.9919 90.8039 57.6442 86.039C58.2805 78.9108 58.6685 71.6207 60.8155 64.7485C62.6823 60.2069 67.8114 57.7811 72.56 58.7449C74.5991 59.2283 77.0727 59.7234 78.5548 61.3812C82.4037 65.2775 84.6046 70.4729 85.9345 75.7244C88.6893 83.5265 89.2506 91.829 89.4441 100.082C89.5561 105.296 89.9272 110.458 90.4272 115.636C90.0477 116.144 90.1587 116.822 90.572 117.136C90.72 118.615 90.8775 120.1 91.0424 121.587C91.0424 121.698 91.0509 121.815 91.0667 121.934C87.6396 122.186 84.0306 124.24 81.1976 125.753C75.3592 128.843 69.7681 132.394 63.8758 135.373C63.8631 135.381 63.8504 135.39 63.8346 135.398C63.7849 135.332 63.7268 135.27 63.6612 135.208C60.0977 131.261 53.9897 130.116 48.9484 131.245C48.4071 131.352 48.0763 131.943 48.201 132.464C48.4896 133.571 49.7074 133.154 50.5171 133.001C54.3988 132.443 59.0406 133.376 61.881 136.241C60.6421 136.741 59.4486 137.382 59.9116 138.448C60.1717 138.919 60.8038 139.112 61.2743 138.841C62.5745 138.072 63.9953 137.551 65.3452 136.89C70.2301 134.434 74.8306 131.447 79.6785 128.927C83.131 127.029 86.5328 124.798 90.4769 124.112C93.4791 123.422 95.2127 124.876 96.9601 127.117C98.5616 128.964 100.218 130.835 101.44 132.96Z" fill="url(#paint4_linear_2417_323)"/>
</g>
<g id="Group_15">
<path id="vec13" d="M98.4587 138.274C99.8668 142.75 94.817 147.142 91.3105 149.184C87.4457 151.337 81.2765 151.225 80.8716 145.766C80.9509 145.625 80.9921 145.452 80.9794 145.254C80.9128 145.043 80.9086 144.808 80.9255 144.56C81.0819 144.448 81.2067 144.291 81.2765 144.101C81.3758 143.849 81.4826 143.6 81.582 143.357L81.5862 143.349C81.5904 143.34 81.5946 143.328 81.5989 143.316C81.9245 142.613 82.2966 141.903 82.7057 141.204C83.064 140.646 83.4361 140.117 83.841 139.592C84.3283 139.035 84.8273 138.497 85.3601 137.981C85.9013 137.485 86.4584 137.018 87.0324 136.563C87.376 136.323 87.7269 136.067 88.098 135.844C88.4743 135.625 88.8538 135.41 89.2375 135.2C89.6794 134.985 90.1171 134.782 90.5674 134.588C90.9226 134.46 91.2735 134.344 91.6372 134.233C92.1034 134.125 92.5664 134.051 93.0452 134.001C93.2387 133.993 93.4374 133.988 93.6277 133.993C93.7884 133.997 93.9417 134.014 94.0981 134.034C94.2503 134.059 94.4036 134.092 94.5527 134.133C94.6267 134.154 94.6964 134.179 94.763 134.207C94.854 134.249 94.9449 134.294 95.0315 134.344C95.1637 134.43 95.2831 134.521 95.4068 134.617C95.6669 134.836 95.9111 135.072 96.1542 135.315C96.299 135.477 96.4354 135.638 96.5718 135.803C96.9016 136.266 97.187 136.745 97.4555 137.245L97.5464 137.456C97.5707 137.567 97.6119 137.675 97.6743 137.778C97.6785 137.786 97.687 137.795 97.6902 137.803C97.8762 138.063 98.132 138.241 98.4545 138.274H98.4587Z" style="fill: var(--primary-fixed);"/>
</g>
<g id="Group_16">
<path id="vec14" d="M121.054 146.113C125.564 157.775 125.551 170.627 123.015 182.747C122.211 187.686 120.901 192.533 118.68 197.033C116.876 200.191 115.208 203.534 112.676 206.171C111.755 204.319 110.384 202.72 108.592 201.642C108.98 201.195 109.352 200.732 109.695 200.248C110.38 199.273 111.012 198.273 111.586 197.232C112.16 196.19 112.701 195.117 113.15 194.017C113.44 193.315 113.672 192.595 113.828 191.848C113.906 191.471 113.964 191.095 114.018 190.716C114.097 190.202 114.146 189.686 114.187 189.166C114.278 187.98 114.283 186.797 114.196 185.611C114.109 184.471 113.936 183.322 113.535 182.248C113.332 181.698 113.109 181.165 112.862 180.636C112.498 179.855 111.991 179.165 111.458 178.491C110.776 177.627 110.017 176.842 109.186 176.12C108.547 175.565 107.903 174.979 107.156 174.578C106.453 174.206 105.702 173.924 104.925 173.759C104.652 173.701 104.372 173.652 104.095 173.611C107.993 169.519 110.479 164.631 109.294 158.366C108.406 153.171 105.603 148.824 100.618 147.799C101.357 146.906 102.048 145.973 102.679 144.989C104.116 143.022 104.153 140.53 104.537 138.204C104.814 132.067 100.152 127.443 96.1753 123.356C95.2049 122.616 94.1637 122.199 93.0822 122.017C93.1192 121.314 92.8306 120.426 92.8306 119.806C92.7524 118.864 92.6657 117.917 92.5748 116.97C98.1077 116.706 103.918 121.537 107.886 124.993C114.378 130.472 118.44 138.133 121.054 146.113Z" style="fill: var(--primary-fixed-dim);"/>
</g>
<g id="Group_17">
<path id="vec15" d="M104.241 162.49C105.099 167.741 97.4335 173.643 92.68 174.106C88.7159 172.917 90.9348 167.433 92.5245 164.983C94.2802 162.781 99.7903 158.565 102.581 160.387C103.225 161.01 103.688 161.738 104.241 162.49Z" style="fill: var(--primary-fixed);"/>
</g>
<g id="Group_18">
<path id="vec16" d="M92.7024 176.099C98.8178 175.685 108.609 167.731 105.817 161.002C104.512 159.424 102.992 157.507 100.659 157.915C96.3114 158.705 91.9921 161.482 89.9444 165.47C88.9941 167.59 88.1019 170.04 88.6019 172.383C89.1389 174.21 90.6622 176.078 92.7024 176.099ZM104.723 152.465C107.106 155.667 107.878 159.892 107.341 163.816C106.705 167.635 104.417 170.669 101.622 173.272C101.584 173.268 101.551 173.268 101.514 173.268C100.957 173.268 100.519 173.723 100.499 174.276C98.7681 175.763 96.9108 177.111 95.1718 178.401C91.5544 180.694 88.2636 183.558 84.3365 185.314C74.4303 189.637 63.5125 189.67 52.9002 189.074C50.6242 189.1 48.3451 188.905 46.0903 188.566C45.7848 188.512 45.5332 188.575 45.3429 188.703C44.8683 188.525 44.3228 188.285 43.7826 188.037C43.3862 187.831 43.0014 187.616 42.6135 187.389C41.7625 186.81 40.9496 186.19 40.161 185.529C39.8925 185.281 39.6409 185.029 39.3924 184.76C38.7275 184.016 38.0468 183.12 37.3861 182.21C37.2412 181.991 37.0848 181.781 36.96 181.553C36.8205 181.306 36.6841 181.053 36.5478 180.81C36.2877 180.272 36.0393 179.735 35.8004 179.19C35.5731 178.681 35.3828 178.161 35.1936 177.644C34.9822 176.987 34.7676 176.326 34.5985 175.657C34.4336 175.004 34.2803 174.354 34.128 173.706V173.693C34.1196 173.665 34.1111 173.636 34.1069 173.611C33.8469 172.272 33.6196 170.879 33.3965 169.487C33.3923 169.466 33.3891 169.45 33.3849 169.429C33.4092 169.342 33.4219 169.251 33.4177 169.156C33.3437 167.449 33.3024 165.726 33.6196 164.04C33.905 162.933 34.2232 161.825 34.5615 160.73C37.6831 164.676 42.8281 166.701 47.7584 167.598C50.7109 168.164 53.693 167.623 56.6571 167.863C63.5283 169.04 70.2759 167.069 76.5075 164.251C80.8226 162.437 84.9845 160.3 88.8831 157.696C92.4625 155.346 96.0017 152.754 98.9753 149.647C101.201 149.903 103.34 150.531 104.723 152.465Z" fill="url(#paint5_linear_2417_323)"/>
</g>
<g id="Group_19">
<path id="vec17" d="M108.394 188.389C108.349 189.104 108.869 190.078 108.79 190.893C107.675 195.236 103.315 202.381 97.9878 200.831C95.6759 199.179 96.4603 195.496 97.9053 193.393C98.2436 193.022 98.5533 192.604 98.8557 192.36C99.0819 192.187 99.2637 191.955 99.38 191.703C99.5079 191.571 99.6274 191.446 99.7426 191.344C101.943 189.645 105.066 186.991 107.993 187.921C108.105 188.136 108.245 188.289 108.394 188.389Z" style="fill: var(--primary-fixed);"/>
</g>
<g id="Group_20">
<path id="vec18" d="M110.347 192.769C110.9 191.881 111.016 188.571 109.934 187.715C110.017 187.388 109.942 187.008 109.608 186.653C106.709 184.116 102.617 186.868 99.9662 188.575C99.3467 189.198 97.6204 190.182 97.1743 191.203V191.207C97.0792 191.318 96.9809 191.418 96.8688 191.5C96.4439 191.979 95.6754 192.579 95.6669 193.228C95.6553 193.248 95.6468 193.269 95.6341 193.29C94.1024 196.203 93.8666 200.989 97.2367 202.682C103.632 204.708 108.315 197.951 110.347 192.769ZM112.221 186.099C112.251 186.859 112.255 187.611 112.242 188.368C112.173 189.306 112.082 190.384 111.87 191.446C111.788 191.814 111.688 192.182 111.569 192.545C111.259 193.43 110.851 194.273 110.442 195.112C110.152 195.678 109.864 196.252 109.546 196.798C109.203 197.368 108.856 197.926 108.497 198.484C108.22 198.881 107.944 199.265 107.65 199.645C107.374 200.005 107.076 200.347 106.779 200.691C106.114 201.402 105.445 202.105 104.76 202.794C104.091 203.473 103.393 204.121 102.691 204.761C101.866 205.48 100.982 206.241 100.069 206.968C99.111 207.724 98.1405 208.448 97.1416 209.146C95.7663 210.059 94.3667 210.939 92.9174 211.75C92.207 212.151 91.4839 212.522 90.7619 212.907C90.0262 213.299 89.2957 213.7 88.5568 214.084C88.0695 214.319 87.5864 214.543 87.0821 214.741C86.636 214.886 86.1899 215.01 85.7364 215.117C84.5303 215.357 83.2046 215.65 81.879 215.932C80.5492 216.175 79.2162 216.382 77.8652 216.502C75.6315 216.643 73.3154 216.771 71.0024 216.877C69.8671 216.931 68.7275 216.964 67.5922 216.964C66.5309 216.964 65.4695 216.936 64.4124 216.874C64.404 216.874 64.3913 216.87 64.3839 216.87C63.8215 216.829 63.2517 216.791 62.6777 216.754C61.443 216.667 60.1924 216.572 58.9408 216.448C58.3171 216.386 57.6977 216.307 57.0708 216.262C56.5253 216.225 55.9841 216.188 55.4397 216.155L55.4355 216.151C55.1331 215.767 54.6543 215.684 54.2378 215.858C54.2335 215.858 54.2335 215.858 54.2293 215.861H54.2251C54.1923 215.865 54.1595 215.865 54.1215 215.865C53.9777 215.853 53.8371 215.836 53.6923 215.812C53.3286 215.733 52.9703 215.634 52.6151 215.514C52.1605 215.349 51.6986 215.162 51.2483 214.948C50.8064 214.725 50.3846 214.481 49.9681 214.217C49.5918 213.956 49.2249 213.696 48.8613 213.419C48.4977 213.133 48.1425 212.84 47.7915 212.547C47.5315 212.307 47.2799 212.064 47.0357 211.804C46.1858 210.84 45.4627 209.766 44.728 208.712C44.1995 207.915 43.6825 207.109 43.192 206.291C42.7248 205.513 42.2914 204.716 41.878 203.906C41.6888 203.484 41.4742 202.985 41.2713 202.472C40.9827 201.633 40.656 200.666 40.3791 199.686C40.0862 198.654 39.8262 197.612 39.5788 196.571C39.5535 196.475 39.5165 196.385 39.4626 196.306C39.5408 196.063 39.5492 195.777 39.4583 195.455C39.397 193.687 39.4752 191.632 39.6285 189.765C39.6317 189.703 39.6317 189.64 39.6285 189.583C39.8093 189.293 39.9213 188.922 39.9837 188.595C40.0662 188.446 40.1359 188.285 40.1814 188.12C41.0524 188.794 41.9859 189.421 42.9848 189.885C43.5018 190.12 44.0176 190.343 44.542 190.554C45.0536 190.752 45.5822 190.913 46.1319 190.913H46.2312C46.4997 190.906 46.7555 190.826 47.024 190.802C47.115 190.789 47.209 190.769 47.3084 190.728C51.392 191.19 55.5221 191.166 59.6301 191.294C66.5922 191.381 73.6294 191.186 80.2437 188.818C83.4858 187.947 86.673 186.707 89.4194 184.747C93.4205 181.946 98.2769 178.987 102.224 175.425C102.274 175.429 102.319 175.434 102.369 175.438C102.98 175.499 103.588 175.562 104.199 175.657C104.595 175.744 104.975 175.842 105.358 175.963C105.586 176.049 105.809 176.144 106.032 176.247C106.209 176.342 106.383 176.446 106.552 176.557C107.068 176.917 107.539 177.335 108.01 177.747C108.538 178.231 109.038 178.731 109.509 179.268C109.881 179.718 110.243 180.173 110.574 180.652C110.731 180.897 110.876 181.144 111.008 181.4C111.252 181.929 111.474 182.462 111.677 183.008C111.792 183.368 111.887 183.727 111.978 184.095C112.036 184.437 112.098 184.784 112.139 185.133C112.176 185.454 112.197 185.777 112.221 186.099Z" fill="url(#paint6_linear_2417_323)"/>
</g>
<g id="Group_21">
<path id="vec19" d="M108.398 213.663C109.018 217.382 105.037 220.526 101.655 220.895C101.428 220.895 101.28 220.812 101.304 220.568C101.386 219.572 101.535 218.494 101.811 217.51C101.828 217.456 101.837 217.402 101.845 217.35C101.956 217.283 102.055 217.196 102.134 217.085C102.406 216.704 102.824 216.246 102.98 215.787C103.108 215.758 103.228 215.696 103.331 215.605C104.686 214.395 106.297 213.138 108.192 213.134C108.221 213.27 108.266 213.394 108.328 213.493V213.498C108.344 213.552 108.37 213.605 108.398 213.663Z" style="fill: var(--primary-fixed);"/>
</g>
<g id="Group_22">
<path id="vec20" d="M110.364 213.341C110.905 212.647 110.388 211.6 109.542 211.366C107.547 210.655 105.409 211.551 103.744 212.68C103.178 213.187 101.993 213.779 101.762 214.564C101.564 214.626 101.382 214.75 101.242 214.923C100.919 215.336 100.441 215.878 100.354 216.402C100.131 216.53 99.9574 216.749 99.8792 217.014C99.5525 218.808 98.4627 221.564 100.544 222.639C104.933 223.965 111.598 218.064 110.364 213.341ZM111.392 208.097C115.038 219.481 101.837 228.061 92.5122 231.015C87.3715 232.321 82.1642 233.218 76.8416 233.404C76.6852 233.412 76.5319 233.453 76.3997 233.524C76.2306 233.45 76.0403 233.416 75.8426 233.433C68.575 234.213 60.0558 233.792 54.4732 228.42C51.8928 225.887 49.5629 222.771 49.1295 219.084C49.1507 218.411 49.4604 217.192 49.4107 216.229C50.2775 216.745 51.2152 217.176 52.1772 217.486C52.4171 217.564 52.6645 217.638 52.9118 217.7C53.0894 217.853 53.3167 217.948 53.5683 217.948C53.7047 217.948 53.8368 217.919 53.9573 217.865C54.0229 217.874 54.0852 217.874 54.1508 217.874C54.192 217.874 54.2332 217.874 54.2745 217.87C54.4521 218.015 54.6751 218.101 54.9193 218.117C55.3696 218.147 55.8189 218.175 56.2692 218.204C57.3179 218.283 58.4004 218.411 59.4902 218.502C60.6425 218.601 61.799 218.696 62.9586 218.771C64.4121 218.869 65.8614 218.956 67.3234 218.956H67.5179C69 218.952 70.482 218.906 71.9652 218.828C73.0963 218.767 74.2316 218.696 75.3669 218.639C76.553 218.572 77.738 218.514 78.9231 218.407C80.0341 218.308 81.1398 218.093 82.235 217.891C83.3037 217.692 84.3693 217.432 85.4348 217.208C86.4423 217.006 87.4624 216.787 88.4244 216.353C89.4117 215.91 90.361 215.39 91.3113 214.874C92.2564 214.366 93.2141 213.878 94.1518 213.349C95.1306 212.795 96.0884 212.216 97.0303 211.605C98.9214 210.39 100.722 209.051 102.439 207.601C104.108 206.187 105.73 204.716 107.229 203.126C109.083 204.273 110.496 206.014 111.392 208.097Z" fill="url(#paint7_linear_2417_323)"/>
</g>
</g>
<g id="Group_23">
<path id="vec21" fill-rule="evenodd" clip-rule="evenodd" d="M135.644 147.66L133.412 145.922L131.677 147.411L131.924 151.879L134.156 155.353H137.38L135.644 147.66Z" style="fill: var(--secondary-fixed);"/>
</g>
</g>
<g id="Outlines">
<g id="Group_24">
<g id="Group_25">
<path id="vec22" d="M73.6292 63.7318C84.1802 69.8815 86.0957 97.4328 70.0858 97.1017C69.8754 97.09 69.6851 97.0064 69.5329 96.871C69.2856 96.6637 69.1365 96.3336 69.165 96.0025C69.2031 95.5518 69.4589 95.3043 69.7887 95.1762C70.1069 95.0609 70.4949 95.0567 70.8374 95.1022C83.6929 94.2506 81.1738 71.5795 73.2994 65.8604C72.4157 65.3399 71.3744 64.7855 70.3173 64.9643C69.8014 65.3568 69.0287 65.4097 68.6534 64.7982C68.3638 64.3402 68.4927 63.6747 68.9716 63.3933C70.3839 62.4518 72.2381 63.0209 73.6292 63.7318Z" style="fill: var(--il-outline);"/>
</g>
<g id="Group_26">
<path id="vec23" d="M73.9429 74.5798C75.6935 78.3566 75.9831 84.7834 73.9102 88.4692C73.0222 90.2423 71.1511 91.5604 69.2853 90.2423C67.1838 88.6554 66.6626 85.6382 67.3857 83.2082C67.7409 82.2042 68.0136 80.8575 69.1447 80.4766C70.9904 80.0471 71.8911 82.2952 71.9397 83.8038C71.9936 85.1304 69.9915 85.2256 69.909 83.899C69.8635 83.5308 69.8054 83.1511 69.6775 82.8072C68.9756 84.4026 68.8477 86.3121 69.7843 87.8165C70.0443 88.3126 70.6934 89.0024 71.2758 88.6258C74.0624 85.5271 73.3192 80.8776 72.7822 77.0839C72.3203 75.5552 71.4534 74.1916 70.4619 72.9644C69.5411 72.4926 68.4016 72.4809 67.4058 72.7126C67.002 72.811 66.6087 73.0014 66.3032 73.2902C62.9839 76.4523 63.2725 81.4933 64.0738 85.6424C64.4459 88.9939 65.7916 92.4649 68.5749 94.4866C68.9386 94.7056 69.4418 94.895 69.7885 95.1764C70.1151 95.4366 70.3012 95.7751 70.1109 96.2925C70.0115 96.5569 69.7927 96.7675 69.5327 96.8701C69.3012 96.9695 69.0369 96.9865 68.8022 96.887C65.0981 95.2504 62.8676 91.1425 62.2936 87.2663C61.4934 83.0685 60.8401 78.4772 62.8972 74.5301C64.1731 71.4146 67.5918 69.6827 70.8086 70.8898C72.4397 71.4389 73.0719 73.2447 73.9429 74.5798Z" style="fill: var(--il-outline);"/>
</g>
<g id="Group_27">
<path id="vec24" d="M99.5242 136.968C99.6278 137.377 99.5073 137.753 99.2017 138.038V138.042C99.0083 138.224 98.7144 138.299 98.4586 138.274H98.4544C98.133 138.241 97.8761 138.063 97.6911 137.803C97.6869 137.795 97.6785 137.786 97.6742 137.778C97.6119 137.675 97.5706 137.567 97.5463 137.456L97.4554 137.245C97.1869 136.745 96.9015 136.266 96.5717 135.803C96.4353 135.638 96.2989 135.477 96.1541 135.315C95.911 135.072 95.6678 134.836 95.4078 134.617C95.283 134.521 95.1636 134.43 95.0315 134.344C94.9448 134.294 94.8539 134.249 94.7629 134.207C94.6974 134.179 94.6266 134.154 94.5526 134.133C94.4035 134.092 94.2513 134.059 94.098 134.034C93.9416 134.014 93.7883 133.997 93.6276 133.993C93.4373 133.988 93.2397 133.993 93.0451 134.001C92.5663 134.051 92.1043 134.125 91.6371 134.233C91.2734 134.344 90.9225 134.46 90.5673 134.588C90.118 134.782 89.6793 134.985 89.2385 135.2C88.8537 135.41 88.4742 135.625 88.0979 135.844C87.7268 136.067 87.3759 136.323 87.0334 136.563C86.4594 137.018 85.9012 137.485 85.361 137.981C84.8282 138.497 84.3282 139.035 83.8409 139.592C83.436 140.117 83.065 140.646 82.7056 141.204C82.2965 141.903 81.9254 142.613 81.5988 143.316C81.5945 143.328 81.5903 143.34 81.5861 143.349L81.5819 143.357C81.4836 143.6 81.3757 143.849 81.2764 144.101C81.2066 144.291 81.0829 144.448 80.9254 144.56C80.7774 144.675 80.5956 144.741 80.4095 144.754C80.381 144.762 80.3556 144.762 80.3271 144.762C80.2119 144.762 80.0998 144.741 79.9846 144.7C79.9095 144.671 79.8355 144.634 79.7732 144.589C79.4021 144.337 79.2161 143.841 79.3852 143.407C79.5046 143.105 79.6294 142.803 79.7573 142.506C80.1283 141.662 80.5459 140.845 81.0375 140.071C81.3546 139.572 81.6812 139.084 82.0491 138.617C82.4244 138.137 82.825 137.687 83.2468 137.241C84.8198 135.571 86.694 134.187 88.7586 133.191C89.6011 132.778 90.4806 132.431 91.3982 132.219C92.8845 131.885 94.5399 131.807 95.9237 132.542C96.4068 132.798 96.8233 133.179 97.2239 133.55C97.5918 133.89 97.9385 134.27 98.2271 134.675C98.4713 135.009 98.6943 135.352 98.9005 135.712C99.0538 135.972 99.2271 136.249 99.3593 136.535C99.429 136.674 99.4872 136.819 99.5242 136.968Z" style="fill: var(--il-outline);"/>
</g>
<g id="Group_28">
<path id="vec25" d="M99.359 136.534C100.899 136.687 100.94 140.171 100.626 141.294C98.5577 148.262 89.4486 155.172 82.2507 151.543C80.2686 150.453 79.0593 148.296 78.8648 146.076C78.795 145.77 78.8236 145.439 78.9472 145.171C79.0921 144.849 79.369 144.613 79.7739 144.589C79.7855 144.584 79.8024 144.584 79.8151 144.584C80.034 144.576 80.2401 144.643 80.4092 144.754C80.6693 144.936 80.8426 145.229 80.8596 145.564C80.8638 145.634 80.868 145.7 80.8722 145.766C81.2771 151.225 87.4453 151.337 91.3112 149.183C94.8166 147.142 99.8674 142.749 98.4583 138.274C98.4255 138.163 98.3885 138.051 98.3431 137.94C98.0999 137.439 98.36 136.819 98.8473 136.596C99.0323 136.538 99.2025 136.522 99.359 136.534Z" style="fill: var(--il-outline);"/>
</g>
<g id="Group_29">
<path id="vec26" d="M80.9792 145.254C80.9919 145.452 80.9507 145.625 80.8714 145.766C80.475 146.494 79.1092 146.456 78.9845 145.448C78.9728 145.361 78.9602 145.27 78.9475 145.172C78.8407 144.216 78.7995 142.742 79.7572 142.506C79.8978 142.469 80.0585 142.46 80.2446 142.485C81.2604 142.762 80.9666 143.713 80.9253 144.56C80.9095 144.808 80.9137 145.044 80.9792 145.254Z" style="fill: var(--il-outline);"/>
</g>
<g id="Group_30">
<path id="vec27" d="M92.6819 174.107C97.4346 173.644 105.099 167.743 104.24 162.49C103.686 161.738 103.224 161.011 102.58 160.387C99.7888 158.564 94.2802 162.78 92.5254 164.983C90.9355 167.433 88.7177 172.917 92.6819 174.107ZM105.818 161.003C108.608 167.73 98.8184 175.686 92.702 176.098C90.6628 176.078 89.1384 174.21 88.6025 172.384C88.1025 170.041 88.9947 167.589 89.944 165.469C91.9926 161.482 96.312 158.705 100.66 157.916C102.993 157.506 104.512 159.424 105.818 161.003Z" style="fill: var(--il-outline);"/>
</g>
<g id="Group_31">
<path id="vec28" d="M109.608 186.653C109.942 187.008 110.017 187.388 109.935 187.715C109.773 188.363 108.989 188.797 108.394 188.389C108.245 188.289 108.105 188.136 107.994 187.921C105.066 186.991 101.944 189.644 99.7431 191.343C99.6278 191.446 99.5073 191.571 99.3794 191.703C99.0496 192.054 98.6817 192.443 98.2853 192.579C97.9883 192.682 97.6743 192.649 97.3434 192.352C97.1204 192.096 97.0464 191.831 97.0749 191.571C97.0834 191.45 97.1204 191.327 97.1743 191.207V191.203C97.6204 190.182 99.3467 189.198 99.9661 188.575C102.617 186.867 106.709 184.116 109.608 186.653Z" style="fill: var(--il-outline);"/>
</g>
<g id="Group_32">
<path id="vec29" d="M109.934 187.715C111.015 188.57 110.9 191.88 110.347 192.769C108.316 197.951 103.633 204.708 97.236 202.683C93.867 200.988 94.1017 196.203 95.6345 193.29C95.6461 193.269 95.6546 193.248 95.6673 193.227C95.9897 192.641 96.439 191.748 97.0754 191.57C97.3185 191.496 97.587 191.529 97.8883 191.731C98.1568 191.934 98.3016 192.257 98.2847 192.579C98.2815 192.769 98.2192 192.963 98.0997 193.129C98.0331 193.211 97.9718 193.302 97.9052 193.393C96.4601 195.496 95.6757 199.178 97.9876 200.831C103.314 202.381 107.675 195.236 108.79 190.892C108.868 190.079 108.348 189.103 108.394 188.388C108.415 188.05 108.563 187.764 108.964 187.583C109.36 187.451 109.678 187.517 109.934 187.715Z" style="fill: var(--il-outline);"/>
</g>
<g id="Group_33">
<path id="vec30" d="M98.6528 190.083C99.5693 190.244 99.6972 191.037 99.379 191.703C99.2638 191.955 99.082 192.186 98.8547 192.36C98.5534 192.603 98.2437 193.021 97.9054 193.393C97.3483 194.016 96.7246 194.521 95.9772 193.914C95.75 193.682 95.6633 193.45 95.6675 193.227C95.676 192.579 96.4434 191.98 96.8684 191.501C96.9804 191.417 97.0798 191.319 97.1749 191.207V191.202C97.6041 190.695 97.9012 189.996 98.6528 190.083Z" style="fill: var(--il-outline);"/>
</g>
<g id="Group_34">
<path id="vec31" d="M109.542 211.365C110.389 211.6 110.904 212.647 110.363 213.341C110.306 213.419 110.235 213.489 110.149 213.555C109.624 214.072 108.704 214.097 108.328 213.497V213.493C108.266 213.395 108.22 213.27 108.192 213.134C106.297 213.137 104.685 214.394 103.331 215.605C103.228 215.695 103.108 215.758 102.98 215.786C102.605 215.894 102.162 215.754 101.919 215.444C101.713 215.125 101.679 214.832 101.763 214.564C101.993 213.779 103.179 213.187 103.745 212.679C105.409 211.551 107.547 210.655 109.542 211.365Z" style="fill: var(--il-outline);"/>
</g>
<g id="Group_35">
<path id="vec32" d="M102.642 214.712C103.067 215.044 103.108 215.415 102.98 215.787C102.823 216.245 102.406 216.705 102.133 217.084C102.055 217.196 101.957 217.283 101.845 217.349C101.511 217.548 101.06 217.535 100.738 217.295C100.387 217.023 100.3 216.717 100.354 216.403C100.441 215.878 100.92 215.337 101.242 214.923C101.383 214.75 101.564 214.626 101.762 214.563C102.051 214.477 102.377 214.515 102.642 214.712Z" style="fill: var(--il-outline);"/>
</g>
<g id="Group_36">
<path id="vec33" d="M110.364 213.34C111.598 218.064 104.933 223.965 100.544 222.638C98.4627 221.564 99.5525 218.807 99.8792 217.014C99.9574 216.75 100.131 216.531 100.354 216.403C100.568 216.275 100.828 216.229 101.093 216.295C101.556 216.416 101.89 216.874 101.844 217.349C101.837 217.403 101.828 217.457 101.812 217.51C101.535 218.493 101.387 219.572 101.304 220.568C101.279 220.812 101.428 220.895 101.655 220.895C105.037 220.527 109.018 217.382 108.398 213.663C108.369 213.605 108.345 213.551 108.328 213.498V213.494C107.998 212.468 109.562 211.679 110.149 212.709C110.24 212.915 110.31 213.125 110.364 213.34Z" style="fill: var(--il-outline);"/>
</g>
<g id="Group_37">
<path id="vec34" d="M200.152 36.1727C200.255 36.2848 200.334 36.4213 200.375 36.5905C199.953 38.8672 199.409 41.111 198.772 43.3348C196.311 51.9546 192.496 60.2244 189.225 68.5554C188.54 70.2788 187.867 72.0222 187.268 73.7329C187.169 74.0143 187.074 74.2914 186.979 74.5676C186.925 75.361 186.149 75.6424 185.575 75.4107C185.237 75.2743 184.968 74.9643 184.956 74.4808C188.816 62.5253 195.035 51.2977 197.847 38.9582C198.07 38.1235 198.236 37.2803 198.488 36.4583C198.772 35.7516 199.701 35.6807 200.152 36.1727Z" style="fill: var(--il-outline);"/>
</g>
<g id="Group_38">
<path id="vec35" d="M200.779 37.3632C200.821 43.3182 200.849 49.2891 200.482 55.2399C200.362 55.7233 200.424 56.5834 200.437 57.4509C200.461 58.9299 200.359 60.4469 199.029 60.2237C198.496 60.0788 198.219 59.554 198.31 59.0663C198.338 58.8357 198.355 58.604 198.372 58.3681C198.425 57.4678 198.401 56.558 198.459 55.662C198.661 52.2026 198.785 48.7358 198.773 45.2764C198.769 44.6406 198.769 43.9911 198.773 43.3341C198.776 41.3547 198.81 39.3257 198.764 37.4457C198.591 37.0406 198.748 36.5243 199.099 36.264C199.454 35.9996 199.842 36.0038 200.151 36.1731C200.544 36.3836 200.825 36.8544 200.779 37.3632Z" style="fill: var(--il-outline);"/>
</g>
<g id="Group_39">
<path id="vec36" d="M217.631 48.3758C217.796 48.6572 217.8 49.0042 217.668 49.293C217.59 49.4792 217.454 49.6369 217.268 49.7395C216.38 50.2187 215.517 50.7276 214.662 51.2608C213.498 51.9791 212.358 52.7313 211.21 53.475C208.183 55.3263 205.065 57.0338 202.039 58.8809C200.903 59.3771 199.776 60.6085 198.475 60.3028C197.971 60.0869 197.674 59.5337 197.839 58.9962C197.926 58.7159 198.124 58.4884 198.372 58.3678C198.558 58.2694 198.768 58.2356 198.987 58.2737C199.47 58.0007 199.953 57.7236 200.436 57.4506C204.004 55.4173 207.568 53.3554 211.061 51.1983C212.766 50.0907 214.468 48.9672 216.269 48.0077C216.743 47.7474 217.354 47.8966 217.631 48.3758Z" style="fill: var(--il-outline);"/>
</g>
<g id="Group_40">
<path id="vec37" d="M217.668 49.2937C218.044 50.8848 214.394 55.054 213.82 56.0051C211.177 59.5047 208.579 63.0296 205.644 66.2901C205.566 66.3652 205.491 66.4477 205.408 66.5387C204.732 67.3279 203.955 68.6588 202.91 67.8029C202.518 67.4263 202.51 66.7863 202.882 66.3938C202.923 66.3483 202.96 66.307 203.001 66.2616C204 65.1782 204.955 64.0262 205.921 62.9302C208.956 59.1862 212.028 55.273 214.662 51.2603C215.224 50.4098 215.765 49.5497 216.282 48.6906C217.157 48.6113 217.569 48.8515 217.668 49.2937Z" style="fill: var(--il-outline);"/>
</g>
<g id="Group_41">
<path id="vec38" d="M217.078 69.4265C217.375 70.2125 216.673 70.8526 215.938 70.9351C211.755 71.7867 207.584 72.6997 203.372 73.3905C200.188 73.9607 196.906 74.167 193.78 74.9393C191.339 75.4524 188.825 75.6301 186.335 75.7867C186.03 75.7994 185.757 75.6418 185.575 75.4111C185.43 75.2292 185.348 75.006 185.352 74.7743C185.36 74.2083 185.823 73.8116 186.364 73.7904C186.666 73.7788 186.967 73.7619 187.268 73.7333C188.003 73.6793 188.735 73.5926 189.469 73.5386C197.125 72.3442 204.772 71.2535 212.362 69.6381C209.79 69.0721 207.168 68.741 204.545 68.4596C203.546 68.468 201.828 68.0142 202.51 66.6833C202.621 66.5014 202.798 66.3522 203.001 66.2612C203.175 66.1872 203.364 66.1586 203.546 66.1956C204.157 66.3438 204.781 66.4517 205.408 66.5384C207.237 66.8029 209.104 66.8981 210.913 67.2948C212.854 67.6831 214.856 68.084 216.649 68.9103C216.838 69.0425 216.991 69.2044 217.078 69.4265Z" style="fill: var(--il-outline);"/>
</g>
<g id="Group_42">
<path id="vec39" d="M229.771 56.2903C229.973 56.777 229.747 57.4054 229.234 57.5958C227.071 58.4093 224.94 59.3022 222.805 60.1866C220.253 61.2244 217.767 62.4104 215.178 63.3604C214.513 63.6005 213.729 63.8809 213.04 63.5296C212.024 62.9848 212.717 61.327 213.82 61.6539C216.099 60.9674 218.243 59.8936 220.439 58.9965C222.591 58.0962 224.738 57.1864 226.91 56.3432C227.814 56.0713 229.177 55.0705 229.771 56.2903Z" style="fill: var(--il-outline);"/>
</g>
<g id="Group_43">
<path id="vec40" d="M211.359 35.7468C212.032 34.6275 213.737 35.6188 213.085 36.7634C211.123 40.3011 209.228 43.8843 206.944 47.2315C206.957 47.2103 206.965 47.1945 206.974 47.1733C206.978 47.1617 206.978 47.1532 206.981 47.1447C206.974 47.1733 206.961 47.2029 206.944 47.2315C206.944 47.2357 206.944 47.24 206.94 47.2442C206.936 47.2442 206.936 47.2484 206.936 47.2516L206.933 47.2558C206.933 47.2558 206.933 47.2601 206.928 47.2601C206.556 48.0376 205.252 47.9297 205.062 47.0294C204.912 46.3344 205.499 45.8266 205.817 45.2722C207.878 42.2233 209.53 38.9332 211.359 35.7468Z" style="fill: var(--il-outline);"/>
</g>
<g id="Group_44">
<path id="vec41" d="M192.062 89.8575C192.76 90.7959 192.69 92.1098 191.893 92.9699C188.73 96.1024 183.51 95.4327 179.394 95.3999C176.185 95.1185 172.58 95.5068 169.892 93.4037C166.118 91.036 168.253 87.7258 171.754 86.742C174.022 85.903 176.453 85.7338 178.844 85.5476C179.633 85.5106 180.698 85.2175 181.281 85.9115C184.993 86.5103 189.601 86.5896 192.062 89.8575Z" style="fill: var(--il-outline);"/>
</g>
<g id="Group_45">
<path id="vec42" d="M160.379 148.37C159.83 148.342 159.27 148.106 158.807 147.797C156.811 147.575 158.111 143.588 159.636 143.367C161.123 142.99 163.118 143.803 163.308 145.47C163.439 147.063 161.974 148.539 160.379 148.37Z" style="fill: var(--il-outline);"/>
</g>
<g id="Group_46">
<path id="vec43" d="M150.357 156.61C148.868 156.114 146.822 155.183 146.505 153.503C146.554 152.866 147.216 152.387 147.839 152.622C148.841 153.387 149.463 154.383 150.857 154.673C153.236 155.425 155.699 155.097 157.63 153.477C157.922 153.099 158.458 152.966 158.897 153.189C160.692 154.539 157.735 155.819 156.696 156.408C154.747 157.414 152.41 157.132 150.357 156.61Z" style="fill: var(--il-outline);"/>
</g>
<g id="Group_47">
<path id="vec44" d="M98.4753 147.188C102.249 143.56 103.625 137.779 101.441 132.96C100.217 130.835 98.562 128.964 96.9595 127.117C95.2131 124.876 93.4784 123.422 90.4773 124.112C86.5332 124.798 83.1304 127.03 79.6789 128.927C74.831 131.447 70.2305 134.436 65.3456 136.89C63.9956 137.551 62.5749 138.072 61.2746 138.841C60.8032 139.113 60.1721 138.919 59.912 138.448C59.449 137.382 60.6425 136.741 61.8814 136.241C59.0399 133.378 54.3992 132.443 50.5175 133.001C49.7078 133.154 48.49 133.571 48.2003 132.464C48.0766 131.943 48.4075 131.352 48.9477 131.245C53.9901 130.117 60.097 131.262 63.6605 135.208C63.7271 135.27 63.7853 135.332 63.8339 135.398C63.8508 135.39 63.8635 135.381 63.8751 135.373C69.7685 132.394 75.3596 128.843 81.198 125.753C84.031 124.24 87.64 122.186 91.0671 121.934C91.0513 121.815 91.0428 121.698 91.0428 121.587C90.8779 120.1 90.7204 118.615 90.5713 117.136C90.1591 116.822 90.047 116.144 90.4276 115.636C89.9276 110.458 89.5555 105.297 89.4445 100.082C89.25 91.8291 88.6886 83.5265 85.9349 75.7244C84.605 70.4729 82.4041 65.2775 78.5552 61.3812C77.0731 59.7235 74.5995 59.2284 72.5593 58.7449C67.8107 57.7822 62.6827 60.2069 60.8159 64.7486C58.6689 71.6218 58.2809 78.9109 57.6445 86.0391C56.9923 90.8039 57.4754 95.8174 57.0874 100.57C57.0917 106.102 57.0578 111.632 57.3137 117.161C57.1075 118.831 59.0653 124.245 56.4754 123.992C55.9849 123.889 55.6413 123.406 55.6868 122.91C55.5631 120.967 55.4521 119.021 55.3654 117.067C54.7829 117.434 54.2047 117.839 53.5895 118.071C53.3664 118.467 52.8749 118.756 52.4541 118.918C50.9097 119.649 49.3853 120.43 47.8536 121.19C45.0459 122.608 42.2922 124.208 39.7234 126.013C29.3457 132.806 30.8743 146.808 34.6524 156.99C34.7222 156.999 34.8015 157.015 34.8797 157.036C35.4949 157.337 35.5446 157.845 35.404 158.391C38.3766 163.11 44.233 165.118 49.5883 165.779C53.7427 165.796 57.8676 165.879 62.0136 166.206C68.8182 165.867 75.0868 162.73 81.1483 159.887C86.955 156.808 92.6655 153.155 97.2776 148.453C97.3358 148.018 97.6741 147.667 98.1032 147.589C98.2312 147.456 98.3559 147.324 98.4753 147.188ZM107.341 163.817C107.878 159.891 107.106 155.668 104.723 152.466C103.34 150.531 101.201 149.903 98.9754 149.646C96.0017 152.754 92.4636 155.345 88.8831 157.697C84.9845 160.3 80.8227 162.436 76.5076 164.251C70.2759 167.069 63.5284 169.041 56.6572 167.862C53.6931 167.623 50.711 168.164 47.7585 167.598C42.8281 166.702 37.6832 164.677 34.5615 160.73C34.2232 161.825 33.905 162.933 33.6196 164.04C33.3025 165.727 33.3437 167.45 33.4177 169.156C33.422 169.251 33.4093 169.342 33.385 169.429C33.3892 169.449 33.3934 169.466 33.3966 169.486C33.6196 170.88 33.8469 172.272 34.107 173.611C34.1112 173.635 34.1196 173.665 34.1281 173.694V173.706C34.2803 174.355 34.4336 175.003 34.5985 175.656C34.7677 176.326 34.9822 176.987 35.1937 177.644C35.3829 178.161 35.5732 178.682 35.8004 179.19C36.0394 179.735 36.2878 180.273 36.5478 180.81C36.6842 181.054 36.8206 181.305 36.9611 181.554C37.0848 181.78 37.2413 181.992 37.3861 182.211C38.0468 183.12 38.7276 184.017 39.3925 184.76C39.6409 185.029 39.8925 185.281 40.161 185.529C40.9496 186.19 41.7636 186.81 42.6135 187.388C43.0015 187.616 43.3863 187.831 43.7827 188.038C44.3229 188.285 44.8683 188.525 45.343 188.702C45.5332 188.574 45.7848 188.513 46.0903 188.567C48.3452 188.905 50.6243 189.099 52.9002 189.075C63.5125 189.67 74.4304 189.636 84.3365 185.314C88.2637 183.558 91.5545 180.694 95.1719 178.4C96.9108 177.111 98.7682 175.764 100.499 174.277C100.52 173.722 100.957 173.268 101.515 173.268C101.552 173.268 101.584 173.268 101.622 173.273C104.417 170.669 106.705 167.635 107.341 163.817ZM92.5122 231.015C101.837 228.061 115.038 219.481 111.392 208.096C110.496 206.014 109.083 204.274 107.229 203.125C105.73 204.716 104.108 206.187 102.439 207.601C100.722 209.051 98.9214 210.39 97.0303 211.605C96.0884 212.217 95.1307 212.795 94.1518 213.349C93.2141 213.877 92.2564 214.365 91.3113 214.874C90.361 215.39 89.4117 215.911 88.4244 216.353C87.4624 216.787 86.4423 217.006 85.4349 217.209C84.3693 217.432 83.3037 217.692 82.235 217.89C81.1409 218.093 80.0341 218.308 78.9231 218.407C77.7381 218.514 76.553 218.573 75.368 218.638C74.2316 218.696 73.0963 218.766 71.9652 218.829C70.4831 218.907 69 218.952 67.5179 218.957H67.3234C65.8614 218.957 64.4121 218.87 62.9586 218.77C61.799 218.696 60.6425 218.601 59.4902 218.502C58.4004 218.411 57.3179 218.283 56.2692 218.204C55.8189 218.176 55.3696 218.146 54.9193 218.118C54.6751 218.102 54.4521 218.014 54.2755 217.87C54.2332 217.874 54.192 217.874 54.1508 217.874C54.0852 217.874 54.0229 217.874 53.9573 217.866C53.8368 217.92 53.7047 217.948 53.5694 217.948C53.3167 217.948 53.0895 217.853 52.9119 217.7C52.6645 217.638 52.4171 217.564 52.1772 217.485C51.2152 217.175 50.2775 216.745 49.4107 216.229C49.4604 217.192 49.1507 218.411 49.1295 219.085C49.5629 222.771 51.8928 225.887 54.4732 228.42C60.0558 233.792 68.575 234.214 75.8427 233.433C76.0403 233.416 76.2306 233.449 76.3997 233.524C76.5319 233.453 76.6852 233.412 76.8416 233.403C82.1642 233.217 87.3715 232.321 92.5122 231.015ZM112.242 188.368C112.255 187.612 112.251 186.859 112.222 186.1C112.198 185.777 112.177 185.454 112.14 185.132C112.098 184.785 112.036 184.438 111.978 184.095C111.888 183.727 111.793 183.367 111.677 183.009C111.475 182.463 111.252 181.93 111.008 181.401C110.875 181.145 110.731 180.897 110.574 180.653C110.244 180.173 109.88 179.718 109.509 179.268C109.038 178.731 108.539 178.231 108.01 177.748C107.539 177.334 107.069 176.917 106.553 176.557C106.384 176.446 106.209 176.343 106.032 176.247C105.81 176.144 105.587 176.05 105.359 175.962C104.974 175.842 104.595 175.743 104.199 175.656C103.588 175.562 102.981 175.5 102.37 175.437C102.32 175.433 102.275 175.43 102.225 175.425C98.2766 178.987 93.4213 181.946 89.4202 184.748C86.6738 186.707 83.4855 187.947 80.2445 188.819C73.6291 191.186 66.593 191.381 59.6308 191.294C55.5219 191.166 51.3928 191.191 47.3092 190.728C47.2098 190.769 47.1147 190.79 47.0238 190.802C46.7553 190.827 46.4994 190.905 46.2309 190.913H46.1316C45.5829 190.913 45.0544 190.753 44.5417 190.554C44.0173 190.343 43.5015 190.12 42.9856 189.885C41.9856 189.422 41.0532 188.793 40.1811 188.12C40.1356 188.285 40.0659 188.446 39.9834 188.595C39.9211 188.921 39.8101 189.294 39.6282 189.582C39.6325 189.641 39.6325 189.703 39.6282 189.764C39.476 191.633 39.3967 193.686 39.4591 195.455C39.55 195.778 39.5416 196.062 39.4633 196.307C39.5172 196.385 39.5542 196.476 39.5786 196.571C39.827 197.612 40.087 198.654 40.3798 199.687C40.6568 200.666 40.9824 201.633 41.272 202.472C41.4739 202.984 41.6885 203.485 41.8788 203.907C42.2921 204.716 42.7256 205.514 43.1917 206.29C43.6833 207.109 44.1992 207.915 44.7277 208.713C45.4635 209.766 46.1855 210.84 47.0365 211.803C47.2796 212.063 47.5322 212.308 47.7923 212.548C48.1432 212.841 48.4984 213.134 48.861 213.419C49.2247 213.696 49.5925 213.957 49.9678 214.217C50.3854 214.482 50.8061 214.725 51.248 214.948C51.6983 215.163 52.1613 215.349 52.6148 215.514C52.97 215.634 53.3294 215.733 53.6931 215.811C53.8368 215.837 53.9774 215.854 54.1222 215.865C54.1592 215.865 54.192 215.865 54.2258 215.861H54.2301C54.2332 215.857 54.2332 215.857 54.2375 215.857C54.655 215.683 55.1339 215.766 55.4352 216.151L55.4394 216.155C55.9849 216.188 56.5251 216.225 57.0705 216.262C57.6984 216.308 58.3179 216.386 58.9416 216.448C60.1922 216.572 61.4438 216.667 62.6785 216.754C63.2525 216.791 63.8223 216.828 64.3836 216.869C64.3921 216.869 64.4037 216.873 64.4121 216.873C65.4692 216.936 66.5306 216.964 67.5919 216.964C68.7273 216.964 69.8679 216.932 71.0032 216.878C73.3151 216.771 75.6323 216.642 77.866 216.502C79.2159 216.383 80.55 216.175 81.8798 215.932C83.2054 215.651 84.531 215.357 85.7361 215.117C86.1907 215.01 86.6368 214.886 87.0829 214.742C87.5861 214.543 88.0692 214.32 88.5565 214.085C89.2954 213.7 90.0269 213.299 90.7616 212.906C91.4847 212.522 92.2067 212.151 92.9171 211.75C94.3664 210.94 95.767 210.059 97.1413 209.146C98.1413 208.448 99.1117 207.725 100.069 206.968C100.982 206.241 101.865 205.481 102.691 204.761C103.393 204.121 104.091 203.472 104.76 202.795C105.446 202.104 106.115 201.401 106.779 200.691C107.077 200.348 107.374 200.005 107.651 199.645C107.944 199.266 108.221 198.882 108.498 198.485C108.856 197.926 109.203 197.369 109.546 196.799C109.864 196.253 110.153 195.678 110.442 195.112C110.851 194.273 111.26 193.43 111.57 192.546C111.689 192.183 111.789 191.815 111.871 191.447C112.081 190.384 112.172 189.306 112.242 188.368ZM123.016 182.748C125.551 170.628 125.564 157.775 121.054 146.114C118.441 138.134 114.377 130.471 107.886 124.993C103.917 121.537 98.1075 116.707 92.5746 116.971C92.6655 117.917 92.7522 118.864 92.8304 119.806C92.8304 120.426 93.12 121.314 93.082 122.017C94.1645 122.199 95.2047 122.616 96.1751 123.356C100.152 127.443 104.814 132.067 104.537 138.204C104.153 140.53 104.116 143.023 102.679 144.989C102.047 145.973 101.358 146.907 100.618 147.799C105.602 148.824 108.407 153.171 109.294 158.367C110.48 164.632 107.994 169.52 104.095 173.611C104.372 173.652 104.653 173.702 104.926 173.759C105.702 173.925 106.453 174.206 107.155 174.578C107.903 174.979 108.546 175.565 109.187 176.119C110.017 176.843 110.777 177.628 111.458 178.491C111.99 179.165 112.499 179.855 112.862 180.636C113.11 181.165 113.333 181.698 113.535 182.248C113.936 183.323 114.109 184.471 114.196 185.612C114.282 186.798 114.278 187.98 114.187 189.166C114.146 189.686 114.096 190.202 114.018 190.715C113.964 191.095 113.907 191.472 113.828 191.847C113.671 192.595 113.44 193.315 113.151 194.017C112.701 195.116 112.16 196.191 111.586 197.232C111.012 198.273 110.381 199.274 109.694 200.249C109.352 200.733 108.981 201.195 108.592 201.642C110.385 202.72 111.756 204.319 112.677 206.171C115.207 203.534 116.875 200.191 118.68 197.033C120.902 192.534 122.211 187.687 123.016 182.748ZM135.849 154.742C135.895 154.473 136.052 154.242 136.263 154.094C135.866 153.341 135.565 152.54 135.275 151.742C134.863 150.606 134.735 149.39 134.657 148.184C134.272 148.039 134.025 147.688 133.984 147.296C133.752 146.986 133.319 146.799 132.951 146.795C132.885 146.795 132.819 146.791 132.762 146.779C132.74 146.836 132.712 146.895 132.675 146.953C131.997 148.25 132.233 149.837 132.543 151.213C132.766 152.291 133.298 153.292 134.038 154.019C134.644 154.552 135.061 155.18 135.849 154.742ZM168.513 144.109C168.443 144.005 168.394 143.886 168.372 143.758C167.844 140.861 166.737 138.08 165.168 135.724C164.908 136.196 164.536 136.638 164.235 136.923C160.399 142.233 153.549 145.696 146.995 145.622C143.526 145.332 139.595 145.2 136.858 142.791C136.733 143.357 136.622 143.919 136.535 144.497C136.503 144.779 136.486 145.063 136.486 145.221C136.49 145.895 136.552 146.563 136.598 147.229C136.651 147.977 136.688 148.725 136.779 149.468C136.824 149.771 136.878 150.06 136.94 150.353C137.077 150.862 137.25 151.354 137.432 151.849C137.547 152.134 137.662 152.42 137.799 152.7C137.948 153.023 138.113 153.329 138.282 153.635C138.418 153.845 138.555 154.052 138.691 154.259C138.914 154.56 139.141 154.853 139.384 155.143C139.633 155.436 139.904 155.713 140.082 155.895C140.524 156.304 140.974 156.7 141.442 157.09C141.891 157.465 142.358 157.829 142.804 158.185C143.101 158.412 143.398 158.638 143.704 158.857C144.018 159.078 144.34 159.28 144.666 159.486C145.496 159.937 146.334 160.354 147.085 160.672C147.672 160.895 148.263 161.094 148.861 161.272C149.167 161.341 149.472 161.408 149.782 161.465C150.427 161.54 151.066 161.582 151.719 161.593C152.165 161.582 152.607 161.548 153.049 161.502C153.742 161.391 154.42 161.238 155.105 161.09C155.914 160.916 156.72 160.73 157.52 160.528C157.657 160.49 157.797 160.494 157.929 160.528C158.421 160.086 159.321 159.867 159.833 159.531C160.89 158.891 161.989 158.027 162.81 157.197C162.996 156.999 163.206 156.899 163.414 156.874C163.438 156.68 163.52 156.49 163.648 156.325C163.995 155.895 164.346 155.465 164.698 155.035C164.995 154.647 165.272 154.25 165.536 153.832C166.068 152.882 166.559 151.911 167.038 150.932C167.076 150.853 167.125 150.783 167.183 150.721C167.175 150.597 167.187 150.465 167.229 150.337C167.534 149.34 167.774 148.362 167.96 147.357C167.658 146.858 167.881 146.147 168.121 145.46C168.121 144.915 168.154 144.399 168.513 144.109ZM182.739 63.9721C182.763 63.4643 182.771 62.9639 182.767 62.4518C182.739 61.98 182.706 61.5135 182.652 61.0459C182.602 60.5835 182.528 60.1286 182.457 59.6706C182.082 57.4553 181.657 55.24 181.227 53.029C181.012 51.9182 180.819 50.7978 180.624 49.6817C180.43 48.5625 180.161 47.4506 179.873 46.3514C179.385 44.5043 178.915 42.653 178.391 40.8175C178.047 39.7183 177.689 38.6318 177.312 37.5411C176.933 36.4335 176.515 35.3385 176.107 34.2394C175.702 33.1645 175.31 32.0823 174.914 30.999C174.522 29.9411 174.08 28.9001 173.638 27.858C173.588 27.7427 173.538 27.6274 173.493 27.511C172.729 25.8374 171.949 24.168 171.127 22.5187C170.309 20.862 169.434 19.2339 168.521 17.6301C168.129 17.0102 167.74 16.3913 167.324 15.7915C166.886 15.1557 166.427 14.5431 165.965 13.9274C165.487 13.3413 165.003 12.7626 164.499 12.2009C164.256 11.9279 164.02 11.6423 163.756 11.3905C163.451 11.089 163.141 10.7875 162.831 10.4892C162.447 10.1507 162.063 9.81635 161.679 9.48099C161.324 9.16678 160.94 8.8822 160.568 8.58493C160.171 8.30353 159.775 8.02213 159.374 7.74178C159.168 7.59685 158.937 7.47729 158.718 7.34506C158.524 7.22446 158.33 7.10492 158.136 6.98959C157.459 6.64261 156.79 6.30301 156.1 5.99304C155.427 5.6873 154.742 5.41542 154.06 5.14249C153.326 4.89388 152.594 4.64209 151.851 4.43579C151.038 4.20834 150.224 4.00946 149.435 3.81586C147.936 3.4805 146.429 3.12503 144.91 2.85315C144.087 2.69975 143.27 2.55165 142.449 2.43529C141.668 2.31998 140.883 2.23746 140.095 2.15494C139.558 2.12109 139.018 2.09251 138.481 2.05972C137.944 2.02586 137.398 2.03856 136.861 2.02586C135.97 2.05548 135.082 2.08829 134.198 2.17926C133.273 2.27448 132.353 2.37286 131.428 2.43529C130.44 2.50194 129.454 2.55165 128.467 2.61302C127.533 2.6712 126.612 2.79073 125.746 2.91451C125.724 2.91875 125.7 2.92299 125.679 2.92722H125.663C125.23 3.00549 124.795 3.0806 124.366 3.17899C123.891 3.28267 123.425 3.40645 122.954 3.5387C122.636 3.64659 122.318 3.75768 122 3.86557C121.703 3.96396 121.414 4.10043 121.129 4.22844C120.621 4.48552 120.122 4.75423 119.63 5.04305C118.862 5.53497 118.114 6.04277 117.475 6.50191C117.128 6.78331 116.78 7.05942 116.45 7.3567C116.116 7.66243 115.794 7.98087 115.476 8.30777C114.943 8.88222 114.419 9.46089 113.882 10.0311C113.325 10.6214 112.767 11.2086 112.251 11.837C112.061 12.1216 111.879 12.403 111.735 12.6262C111.722 12.6463 111.71 12.6717 111.698 12.696C111.178 13.6555 110.665 14.6299 110.186 15.6095C109.666 16.6674 109.22 17.7549 108.791 18.8499C108.278 20.2093 107.792 21.5687 107.366 22.9578C106.928 24.4082 106.511 25.8586 106.159 27.3132C105.974 28.1606 105.793 28.9985 105.624 29.8501C105.45 30.6975 105.314 31.5491 105.202 32.3214C105 34.3875 104.884 36.4621 104.826 38.5408C104.773 40.5784 104.842 42.6233 104.9 44.6609C104.937 45.7103 104.983 46.7682 105.058 47.8145C105.136 48.9835 105.234 50.1494 105.33 51.3183C105.412 52.3477 105.47 53.3844 105.565 54.4138C105.673 55.5458 105.821 56.6661 105.995 57.7896C106.263 59.4019 106.482 61.0258 106.718 62.6412C106.904 63.7573 107.114 64.8607 107.346 65.9641C107.569 67.0178 107.746 68.0799 107.861 69.1505C107.994 70.3608 108.117 71.5721 108.258 72.7823C108.386 73.9185 108.518 75.0558 108.637 76.1962C108.737 77.1505 108.882 78.1016 109.001 78.9236C109.211 80.0724 109.43 81.2214 109.583 82.3787C109.736 83.5191 109.864 84.6596 110.008 85.8C110.153 86.9574 110.347 88.1062 110.517 89.2583C110.604 89.8412 110.673 90.4326 110.744 91.0187C110.793 91.3953 110.851 91.7878 110.868 92.1803C111.342 92.3993 111.801 92.9198 112.246 93.1515C116.719 94.6928 123.937 95.5074 127.257 91.4651C127.257 91.4577 127.253 91.4493 127.253 91.4408C127.186 91.3001 127.149 91.1435 127.149 90.9774C127.125 85.965 125.861 81.0891 125.353 76.1211C124.758 70.4602 123.157 64.9432 122.281 59.3352C121.298 52.6365 120.865 45.8553 120.118 39.1237C119.936 32.991 121.141 26.4859 123.991 21.0313C128.846 13.4894 138.141 14.1633 145.252 17.9401C150.732 20.9943 156.034 24.8461 159.895 29.8416C164.508 38.0743 167.654 47.0708 169.594 56.3064C180.36 57.4638 176.983 59.5299 172.246 65.3526C172.514 66.9808 172.96 68.5719 173.476 70.1418C173.905 71.3034 174.128 72.7041 175.137 73.5144C175.36 73.58 175.536 73.6837 175.673 73.8075C175.826 73.7535 175.995 73.7377 176.169 73.7662C176.487 73.8244 176.801 73.8731 176.987 73.8985C177.164 73.9154 177.341 73.927 177.523 73.9313C177.626 73.9228 177.734 73.9154 177.837 73.9027C177.908 73.8858 177.982 73.8699 178.051 73.8487C178.304 73.7662 178.551 73.671 178.742 73.597C178.766 73.5843 178.787 73.5716 178.811 73.5631L178.816 73.5599C178.911 73.5144 179.002 73.4647 179.097 73.415C179.191 73.3526 179.282 73.2912 179.377 73.2246C179.576 73.0553 179.765 72.8733 179.959 72.6914C180.178 72.4523 180.397 72.2079 180.603 71.9519C180.793 71.6832 180.967 71.4102 181.14 71.1341C181.351 70.7162 181.537 70.291 181.718 69.8572C181.838 69.4848 181.946 69.1167 182.052 68.7454C182.181 68.2122 182.292 67.679 182.383 67.1373C182.487 66.5343 182.561 65.9313 182.631 65.3272C182.672 64.8776 182.717 64.4227 182.739 63.9721ZM213.44 83.8905C212.73 83.8333 212.065 83.7582 211.656 83.8164C198.116 83.2092 184.642 82.6051 171.089 82.4274C157.859 82.9976 144.65 83.7878 131.428 84.4406C130.518 84.3454 129.491 84.5273 128.574 84.3951C128.702 85.2583 128.826 86.1227 128.941 86.9859C128.937 87.8375 129.371 89.6635 129.185 90.8663C129.218 90.9404 129.247 91.0272 129.264 91.1224C129.012 95.6725 121.212 96.6849 117.635 96.3379C116.173 96.2183 110.834 95.5032 109.79 93.7174C109.348 93.6973 108.919 93.3662 108.836 92.924C108.811 92.7875 108.795 92.6436 108.828 92.5072C108.828 92.4987 108.832 92.4945 108.832 92.4903V92.4776C108.799 91.6513 108.67 90.8251 108.559 90.0063C108.431 89.0732 108.291 88.1433 108.15 87.2134C108.056 86.5765 107.972 85.9365 107.894 85.2996C107.275 85.399 106.527 85.3409 106.024 85.49C105.739 85.6678 105.421 85.7873 105.099 85.7133C104.599 86.44 104.001 87.1552 103.819 87.664C103.22 88.3295 102.539 90.3088 101.647 91.1351C101.634 91.2387 101.601 91.3371 101.552 91.4323C101.085 92.2967 100.618 93.1641 100.165 94.0401C99.7058 94.916 99.2724 95.8005 98.8178 96.6764C98.3802 97.5196 97.9056 98.3458 97.4426 99.1763C97.2121 99.5941 96.9806 100.011 96.7491 100.433C96.7248 100.474 96.7036 100.516 96.6835 100.557C96.6878 100.594 96.6909 100.635 96.6909 100.676C96.8485 100.59 97.0261 100.544 97.2163 100.544C107.172 101.243 117.148 100.392 127.125 100.54C152.656 99.7052 178.176 98.8875 203.686 100.383C203.781 100.396 203.868 100.425 203.946 100.457C203.744 99.9454 203.885 99.3085 204.537 99.1149C207.382 93.9703 209.992 88.6722 213.44 83.8905ZM212.97 178.413C212.309 176.69 212.68 174.685 212.412 172.863V172.805C212.354 172.69 212.316 172.545 212.305 172.384C211.735 163.846 211.008 155.321 209.806 146.849C209.212 140.799 209.038 134.724 207.91 128.737C206.837 119.918 204.351 111.248 203.848 102.371C203.736 102.404 203.604 102.421 203.463 102.412C201.209 102.218 198.905 102.033 196.613 102.028C185.641 101.862 174.6 101.445 163.632 101.508C142.878 102.152 122.145 102.701 101.407 102.85C99.9743 102.83 98.5578 102.532 97.1254 102.536C97.0176 102.536 96.9182 102.516 96.8241 102.479C96.8728 105.487 96.506 108.524 96.7533 111.545C96.7861 112.872 96.8157 114.194 96.7903 115.517C101.09 116.835 105.21 120.108 108.345 122.712C111.198 125.108 113.729 127.852 115.876 130.872C115.987 128.988 116.62 126.595 117.891 126.554C117.772 125.17 121.158 123.649 122.215 124.57C123.487 124.327 125.122 126.439 126.034 127.79C126.043 127.798 126.047 127.802 126.051 127.811C126.109 127.885 126.166 127.967 126.216 128.054C126.224 128.067 126.233 128.08 126.237 128.091C126.257 128.117 126.274 128.141 126.29 128.166C127.905 125.662 130.912 124.211 134.087 125.277C136.568 126.216 137.576 129.17 138.451 131.468C138.691 132.431 138.773 133.517 138.704 134.625C138.992 134.232 139.302 133.857 139.633 133.497C140.421 132.637 141.271 131.844 142.176 131.104C143.039 130.397 143.964 129.794 144.93 129.236C145.43 128.947 145.934 128.654 146.459 128.401C146.76 128.253 147.07 128.121 147.388 128.001C147.718 127.872 148.127 127.761 148.506 127.785C150.038 127.17 151.876 127.145 153.469 127.005C156.125 126.84 158.581 127.509 160.754 128.737C160.58 127.529 160.589 126.285 160.671 125.175C161.031 121.116 164.169 117.719 168.414 118.339C169.913 118.641 171.015 119.447 171.758 120.542C172.518 118.045 174.434 115.955 176.998 115.07C177.42 114.996 178.04 114.819 178.655 114.715C178.708 114.632 178.774 114.557 178.857 114.492C179.179 114.227 179.588 114.21 179.984 114.252C180.352 114.29 180.715 114.364 181.075 114.446C181.809 114.62 182.532 114.797 183.185 115.194C183.969 115.669 184.576 116.447 184.902 117.293C185.216 118.116 185.266 119.038 185.245 119.909C185.221 120.815 185.047 121.702 184.807 122.575C184.588 123.38 184.361 124.186 184.125 124.993C184.064 125.203 183.948 125.385 183.791 125.513C182.966 127.423 177.791 128.893 176.329 128.624C175.103 128.472 173.799 127.869 172.848 126.955C172.258 130.616 169.975 134.087 166.663 134.332C167.869 136.092 168.802 138.039 169.425 140.01C169.64 141.018 170.759 143.006 170.205 144.027C170.491 144.456 170.376 145.047 170.185 145.646C170.153 146.511 169.904 147.477 169.863 148.043C169.557 148.845 169.553 150.523 168.918 151.263C168.942 151.449 168.914 151.642 168.827 151.82C168.558 152.362 168.286 152.904 168.013 153.444C167.761 153.949 167.497 154.461 167.2 154.936C166.886 155.436 166.555 155.915 166.184 156.37C165.833 156.8 165.482 157.229 165.136 157.664C164.995 157.845 164.792 157.949 164.573 157.982C164.553 158.172 164.475 158.367 164.309 158.549C163.459 159.379 160.151 162.362 158.458 162.193H158.454C158.31 162.35 158.12 162.466 157.901 162.519C156.736 162.813 155.568 163.061 154.394 163.312C153.486 163.503 152.57 163.602 151.645 163.602C151.434 163.602 151.22 163.594 151.008 163.585C149.881 163.531 148.766 163.371 147.693 163.011C147.135 162.825 146.582 162.623 146.037 162.391C145.5 162.163 144.98 161.907 144.464 161.643C143.452 161.131 142.531 160.487 141.635 159.792C140.723 159.089 139.818 158.358 138.968 157.577C138.427 157.077 137.931 156.531 137.481 155.952C137.374 156.106 137.242 156.242 137.097 156.342C136.391 156.787 135.498 157.006 134.669 156.871C132.554 156.002 131.014 153.804 130.577 151.584C130.126 150.25 129.87 145.163 131.993 145.44C132.104 145.093 132.402 144.812 132.885 144.791C133.427 144.787 133.992 144.928 134.495 145.184C134.499 144.837 134.521 144.493 134.573 144.15C134.657 143.606 134.744 143.06 134.872 142.518C134.921 142.316 134.97 142.113 135.024 141.911C133.942 142.526 132.621 142.741 131.072 142.344C127.699 141.382 125.902 137.666 125.278 134.282C124.907 134.72 124.478 135.117 123.999 135.448C123.478 135.865 122.834 136.604 122.178 136.485C121.992 136.729 121.699 136.886 121.389 136.886C121.331 136.886 121.273 136.881 121.212 136.869C120.803 136.786 120.393 136.704 119.993 136.597C119.708 136.522 119.431 136.415 119.163 136.29C119.288 136.526 119.407 136.762 119.522 137.001C127.31 152.998 128.202 167.734 124.812 184.335C125.581 184.281 126.332 184.215 127.104 184.165C137.692 183.538 148.361 182.71 158.925 182.033C172.815 180.719 186.707 179.467 200.655 178.95C204.533 178.752 208.406 178.578 212.288 178.479C212.498 178.45 212.738 178.421 212.97 178.413ZM232.567 156.557C235.453 153.056 237.68 145.349 234.78 141.241C233.542 146.344 232.072 151.597 232.34 156.833C232.423 156.763 232.501 156.672 232.567 156.557ZM251.446 157.337C250.195 152.973 249.183 148.477 247.816 144.163C247.036 142.279 246.338 140.365 245.74 138.423C245.624 138.444 245.496 138.444 245.36 138.419C244.893 138.349 244.332 138.195 244.051 137.848C243.886 137.89 243.704 137.881 243.501 137.816C240.826 136.886 238.6 134.798 237.188 132.344C236.924 133.233 236.589 134.1 236.532 134.613C236.151 136.042 235.817 137.48 235.462 138.915C236.242 139.543 236.796 140.571 237.258 141.39C239.104 145.965 237.732 151.126 235.809 155.457C235.011 156.713 234.054 158.461 232.596 159.002C233.459 163.201 236.519 167.045 240.747 168.094C241.144 167.719 241.718 167.756 242.127 168.094C242.139 168.103 242.147 168.111 242.151 168.123C246.297 167.47 250.055 161.031 251.446 157.337ZM253.528 162.598C253.474 162.523 253.437 162.445 253.407 162.358C253.201 161.755 252.995 161.148 252.793 160.54C252.661 160.444 252.54 160.312 252.437 160.16C250.418 164.374 246.817 169.392 242.593 170.119C242.684 171.086 242.903 172.061 243.105 172.954C243.58 174.305 244.063 175.718 244.674 177.058C245.587 177.429 245.81 179.285 246.458 179.996C246.884 180.594 247.255 181.123 247.656 181.628C247.768 180.954 247.883 180.284 248.002 179.62C249.662 173.884 251.728 168.28 253.528 162.598ZM274.822 122.021C275.603 118.62 275.24 114.901 273.951 111.694C269.566 102.417 253.767 97.966 244.69 102.256C241.391 103.553 239.079 106.098 237.353 109.098C236.894 109.996 236.337 111 236.469 112.033C236.775 112.703 236.259 113.583 235.49 113.508C235.462 113.499 235.436 113.492 235.408 113.475C234.162 114.182 231.283 114.045 230.33 114.281C226.468 114.6 222.504 114.876 218.659 115.17C218.387 115.442 217.966 115.571 217.602 115.409C217.549 115.385 217.495 115.359 217.445 115.331C217.181 115.508 216.813 115.632 216.323 115.653C216.042 119.038 217.103 122.327 217.296 125.691C217.441 127.67 217.454 129.662 217.599 131.65C218.304 129.873 220.162 127.443 220.464 126.641C221.022 125.281 222.521 126.025 222.926 127.096C223.569 128.435 224.28 129.745 224.999 131.046C225.473 129.799 225.576 128.34 226.311 127.245C227.653 126.285 229.383 128.939 230.027 129.927C230.114 130.109 230.226 130.291 230.337 130.471C231.349 129.025 232.752 127.514 233.149 126.947C234.091 126.257 235.239 123.748 236.486 125.067C237.015 125.943 237.286 126.947 237.691 127.885C237.877 128.41 238.191 128.951 238.166 129.517C238.356 129.943 238.451 130.464 238.646 130.844C239.814 133.075 241.726 135.071 244.133 135.923C244.369 136.005 244.534 136.142 244.645 136.303C244.773 136.274 244.905 136.27 245.037 136.298C245.067 136.307 245.099 136.311 245.128 136.32C244.662 134.616 244.27 132.894 243.956 131.145C242.981 127.091 241.746 122.897 241.982 118.748C234.342 119.662 226.708 120.757 219.007 120.72C218.321 120.885 217.387 121.045 217.132 120.161C216.83 118.008 220.654 118.877 221.958 118.715C227.525 118.645 233.009 117.521 238.567 117.219C239.48 117.302 241.115 116.591 242.229 116.677C242.383 115.868 242.602 115.066 242.899 114.264C244.096 110.247 246.02 106.182 250.096 104.466C256.166 102.343 262.711 106.016 266.874 110.347C270.054 113.855 272.61 117.835 274.822 122.021ZM273.724 131.529C275.045 131.401 275.157 130.092 275.041 129.021C275.021 128.624 275.285 128.273 275.636 128.112C273.067 122.707 270.099 117.521 266.407 112.785C266.395 112.797 266.378 112.805 266.361 112.814C265.486 113.31 264.866 114.231 264.367 115.095C262.604 119.087 265.164 123.497 266.646 127.211C268.15 129.459 270.821 131.968 273.724 131.529ZM338.203 171.859C338.584 163.995 337.291 156.193 336.502 148.395C334.669 134.707 330.482 119.575 320.91 109.265C318.35 106.458 314.803 104.867 311.058 104.814C313.027 108.351 314.617 112.148 316.211 115.76C317.957 119.926 319.762 124.079 321.059 128.414C321.228 128.93 320.914 129.5 320.403 129.662C319.89 129.823 319.32 129.526 319.155 129.001C316.569 121.522 313.701 113.996 309.901 107.028C309.575 106.876 309.344 106.562 309.331 106.178C309.331 106.124 309.331 106.074 309.34 106.024C308.596 104.693 307.811 103.388 306.99 102.107C302.699 95.5603 294.189 90.7383 286.364 92.9949C286.331 93.0065 286.298 93.0192 286.264 93.0319C286.881 93.6846 287.458 94.3585 287.999 95.0441C291.848 100.718 295.284 106.69 298.793 112.595C302.241 118.93 305.45 125.459 307.985 132.216C308.328 133.435 306.494 134.063 306.082 132.803C302.188 122.488 296.844 112.794 290.984 103.487C288.945 100.073 286.922 96.6108 284.188 93.7471C283.853 93.6561 283.63 93.3916 283.532 93.0816C282.9 92.4659 282.235 91.883 281.52 91.3414C276.219 87.3615 269.133 83.9613 262.472 86.2052C257.306 87.5847 253.68 91.2631 250.823 95.6227C250.047 96.7346 249.241 97.8338 248.539 98.9985C259.912 96.9324 275.97 103.512 277.011 115.624C277.271 117.058 277.432 122.579 276.065 124.464C277.659 127.711 279.084 131.046 280.459 134.356C283.717 141.766 286.55 149.374 288.969 157.101C289.156 158.722 292.451 165.09 289.617 164.896C289.118 164.834 288.735 164.374 288.735 163.879C288.081 160.118 286.537 156.449 285.464 152.754C282.73 145.522 280.129 138.093 276.953 130.963C276.325 133.183 273.84 134.092 271.313 133.398C267.175 132.042 264.504 128.394 263.256 124.364C262.171 121.26 260.923 117.574 262.447 114.429C263.07 113.314 263.859 111.962 264.99 111.264C261.493 107.834 256.827 105.293 251.851 105.962C250.249 106.421 248.845 107.52 247.66 108.665C246.429 110.277 245.81 112.207 245.062 114.054C243.436 118.273 243.787 122.554 244.963 126.794C245.818 130.079 246.392 133.43 247.276 136.712C248.019 139.552 249.361 142.192 250.19 145.01C251.351 148.774 252.107 152.676 253.268 156.44H253.272C253.441 156.585 253.565 156.787 253.598 157.027C253.755 157.135 253.89 157.3 253.974 157.532C254.295 158.677 254.663 159.804 255.06 160.925C255.555 161.061 255.952 161.548 255.729 162.213C253.961 167.466 252.404 172.785 250.484 177.988C249.118 182.537 248.927 187.182 248.73 191.876C248.825 198.815 251.641 205.427 254.895 211.444C258.396 218.354 263.843 224.127 271.068 227.138C276.474 229.858 282.395 230.962 288.33 231.78C296.386 232.953 305.025 231.892 312.288 228.118C316.24 226.515 319.077 223.379 321.794 220.205C324.523 216.862 327.013 213.333 328.851 209.444C329.259 208.576 329.714 207.725 330.177 206.881C330.097 206.667 330.093 206.427 330.188 206.208C330.931 204.46 331.676 202.708 332.332 200.922C335.87 191.566 337.898 181.843 338.203 171.859ZM338.872 151.688C340.599 164.276 340.999 177.197 337.873 189.608C336.771 194.17 335.363 198.663 333.653 203.03C333.364 203.774 333.062 204.514 332.757 205.249C332.959 205.551 332.98 205.947 332.819 206.299C329.689 212.295 326.497 218.328 321.757 223.251C315.117 231.251 304.124 234.147 294.082 234.259C280.595 233.573 265.635 230.003 257.079 218.733C252.475 212.043 248.734 204.655 247.194 196.637C246.45 192.571 246.689 188.344 247.263 184.206C247.189 184.161 247.119 184.099 247.053 184.025L247.114 184.082C246.71 183.636 245.661 182.417 244.785 181.112C244.744 181.082 244.703 181.045 244.662 181.004C242.84 178.512 241.705 175.43 240.938 172.45C240.756 171.677 240.64 170.888 240.578 170.099C236.614 169.395 233.406 166.135 231.642 162.648C229.239 157.085 230.482 150.886 231.766 145.2C232.13 143.56 232.509 141.915 232.955 140.291C233.001 140.125 233.083 139.977 233.191 139.853C232.96 139.407 233.062 138.774 233.492 138.489C233.81 137.204 234.099 135.91 234.437 134.638C234.788 133.224 235.313 131.836 235.486 130.389C235.482 129.964 235.73 129.58 236.101 129.422C235.891 128.778 235.611 128.154 235.375 127.517C233.848 129.059 232.41 130.976 231.296 132.741C231.023 133.423 230.3 133.972 229.602 133.489C229.358 133.348 229.251 133.125 229.243 132.849C229.032 132.678 228.888 132.431 228.872 132.129C228.868 132.092 228.872 132.051 228.875 132.013C228.434 131.195 228.091 130.46 227.471 129.786C227.265 130.464 227.046 131.141 226.84 131.819C226.803 131.923 226.753 132.01 226.699 132.088C226.695 132.179 226.674 132.277 226.641 132.381C226.563 132.964 226.125 133.406 225.651 133.551C225.696 133.877 225.725 134.212 225.787 134.53C226.414 139.071 227.72 143.502 228.318 148.056C228.339 148.188 228.335 148.308 228.309 148.419C228.673 149.06 228.38 150.179 228.628 150.886C228.66 151.118 228.628 151.317 228.545 151.482C229.115 151.605 229.594 152.197 229.264 152.895C227.724 155.915 225.931 158.796 224.337 161.801C223.325 163.648 222.43 165.56 221.278 167.333C221.133 167.561 220.901 167.697 220.65 167.743C220.773 168.007 220.777 168.322 220.637 168.595C219.96 169.896 219.283 171.198 218.61 172.499C218.54 172.636 218.44 172.751 218.325 172.838C218.325 172.987 218.292 173.144 218.21 173.31C217.417 174.847 216.64 176.388 215.819 177.908C215.682 178.305 215.381 178.649 215.03 178.83C214.906 179.14 214.617 179.359 214.298 179.438C214.163 181.145 211.07 180.36 209.872 180.59C206.507 180.67 203.146 180.893 199.784 181.029C180.026 181.727 160.403 184.293 140.669 185.236C135.788 185.678 130.878 185.971 125.984 186.248C125.535 186.224 124.94 186.343 124.37 186.393C124.147 187.397 123.908 188.409 123.656 189.43C122.466 193.881 120.575 198.137 118.097 202.017C117.434 203.079 115.274 206.84 113.485 208.225C114.353 211.113 114.25 214.328 113.08 217.081C109.872 224.337 102.844 229.061 95.7543 232.036C89.7045 234.143 83.2509 235.09 76.8702 235.395C76.7264 235.404 76.59 235.375 76.4664 235.317C76.367 235.371 76.2549 235.404 76.1397 235.417C73.8236 235.614 71.5022 235.788 69.1818 235.755C60.7989 235.693 52.2057 231.643 48.5227 223.812C47.4244 221.651 46.8462 219.299 47.3747 216.903C47.3874 216.292 47.2183 215.444 47.6675 215.026C47.6644 215.022 47.6601 215.018 47.6559 215.015C47.1062 214.588 46.5692 214.15 46.066 213.671C45.4508 213.084 44.9465 212.407 44.4264 211.742C44.0882 211.304 43.7784 210.84 43.4645 210.386C42.8122 209.44 42.1801 208.477 41.5902 207.489C41.0944 206.671 40.6314 205.841 40.198 204.985C39.7688 204.15 39.4464 203.278 39.1409 202.394C38.5468 200.662 38.088 198.889 37.6631 197.108C37.6176 196.927 37.6218 196.74 37.6747 196.571C37.6134 196.467 37.5637 196.348 37.5267 196.211C37.365 193.976 37.4855 191.741 37.6546 189.504C37.6673 189.339 37.7244 189.19 37.8195 189.066C37.8195 188.979 37.828 188.888 37.8523 188.802C38.0183 188.211 38.2075 187.293 38.699 186.896C38.5796 186.79 38.4633 186.677 38.3481 186.566C37.7741 185.996 37.254 185.351 36.7582 184.707C36.0235 183.752 35.2846 182.781 34.756 181.69C34.3342 180.822 33.9177 179.95 33.5826 179.046C33.2274 178.078 32.9019 177.103 32.6492 176.103C32.3934 175.082 32.146 174.062 31.9642 173.028C31.7739 171.942 31.5963 170.85 31.423 169.764C31.3986 169.614 31.4145 169.47 31.4568 169.334C31.4399 169.276 31.4356 169.218 31.4314 169.16C31.1587 166.135 31.6132 163.16 32.6048 160.305C32.8226 159.883 32.9632 159.197 33.1577 158.56C32.9716 158.205 32.8025 157.833 32.6492 157.453C29.5772 148.225 27.5 136.597 34.1979 128.464C38.1747 123.625 44.0882 120.909 49.5429 118.086C50.1581 117.773 50.7902 117.488 51.4097 117.178C51.4097 117.161 51.4055 117.141 51.4055 117.124C51.3801 116.591 51.8178 116.066 52.3717 116.066C52.545 116.066 52.71 116.103 52.8548 116.174C53.7258 115.764 54.4489 115.289 55.266 114.843C55.0927 110.401 55.0187 105.942 55.0842 101.499C55.2745 93.3577 55.4267 85.2382 56.4141 77.1463C57.2608 72.5263 57.3633 67.642 59.2672 63.2939C62.781 56.1001 71.6882 54.9967 78.2581 58.5502C82.5859 61.7737 85.2403 66.9226 86.9169 71.9604C87.9698 75.7583 89.3081 79.4811 90.0269 83.37C91.7405 92.3866 91.1707 101.648 91.9636 110.765C92.0872 112.157 92.2321 113.558 92.3727 114.954C93.1729 114.893 93.9784 114.934 94.7797 115.053C94.8167 112.298 94.5894 109.541 94.6719 106.785C94.7057 105.161 94.8949 103.544 94.8336 101.921C94.8336 101.905 94.8378 101.888 94.841 101.871C94.8294 101.821 94.8209 101.772 94.8167 101.723C94.7628 101.689 94.7131 101.656 94.6676 101.615C94.2755 101.272 94.2184 100.702 94.4943 100.284C94.5112 100.26 94.5281 100.234 94.5482 100.21C94.6676 100.041 94.7712 99.8502 94.8622 99.7021C95.2797 98.9499 95.6962 98.2019 96.1053 97.4699C96.7036 96.3961 97.2819 95.3043 97.8358 94.2051C98.451 92.9864 99.099 91.7793 99.7513 90.5775C99.801 90.4823 99.8623 90.3998 99.9331 90.3289C99.9532 90.2094 99.9986 90.093 100.069 89.9862C100.788 88.8828 101.441 87.7423 102.121 86.6178C102.951 85.6879 103.93 82.366 105.458 83.2377C105.557 83.3076 105.635 83.3827 105.693 83.4652C105.821 83.4366 105.953 83.4239 106.081 83.4281C106.523 83.4197 107.11 83.2832 107.647 83.2705C107.597 82.8622 107.543 82.4485 107.489 82.0391C107.3 80.9241 107.089 79.808 106.92 78.6876C106.742 77.5186 106.614 76.3486 106.495 75.1711C106.384 74.072 106.23 72.977 106.119 71.8778C105.999 70.6835 105.879 69.4933 105.719 68.3031C105.702 68.1709 105.685 68.0387 105.665 67.9064C105.409 66.5015 105.091 65.1082 104.859 63.6991C104.616 62.2286 104.434 60.7528 104.211 59.2812C104.021 58.1292 103.839 56.9761 103.691 55.8187C103.559 54.7439 103.497 53.6616 103.418 52.5868C103.245 50.289 103.026 47.9922 102.935 45.6902C102.881 44.4673 102.856 43.239 102.832 42.0161C102.815 40.9423 102.782 39.8632 102.812 38.7926C102.844 37.5527 102.898 36.3171 102.964 35.0815C103.026 33.995 103.096 32.8958 103.249 31.8178C103.579 29.5116 104.091 27.2222 104.69 24.9742C105.277 22.7673 106.003 20.5975 106.809 18.4648C107.196 17.4365 107.584 16.3913 108.068 15.4032C108.563 14.3781 109.071 13.3572 109.608 12.3575C109.897 11.82 110.186 11.2953 110.537 10.7949C110.838 10.3569 111.193 9.95705 111.557 9.57196C112.35 8.72458 113.138 7.86978 113.927 7.01393C115.504 5.30328 117.421 3.98935 119.427 2.82776C119.944 2.52626 120.501 2.29881 121.054 2.06712C121.558 1.86082 122.078 1.68733 122.603 1.5424C123.164 1.38159 123.726 1.22502 124.301 1.12135C124.92 1.00922 125.535 0.906601 126.155 0.815613C128.393 0.497177 130.663 0.514114 132.91 0.278198C133.513 0.212601 134.116 0.154419 134.718 0.104691C135.338 0.0507507 135.957 0.0306549 136.577 0.00949097C137.742 -0.0275421 138.906 0.0507355 140.07 0.121613C141.23 0.191437 142.391 0.37764 143.539 0.542679C144.1 0.620956 144.654 0.741547 145.211 0.844162C145.748 0.939377 146.285 1.05893 146.825 1.17107C147.912 1.39006 149.006 1.62915 150.083 1.89046C151.19 2.15811 152.305 2.41095 153.387 2.7738C153.949 2.96423 154.515 3.14197 155.063 3.36519C155.609 3.57994 156.158 3.79469 156.695 4.03485C157.232 4.27817 157.76 4.52254 158.284 4.79124C158.536 4.91927 158.789 5.04727 159.04 5.17528C159.337 5.32867 159.618 5.52228 159.903 5.69579C160.102 5.81532 160.312 5.92746 160.498 6.05969C160.804 6.27869 161.109 6.49344 161.415 6.70819C161.902 7.05095 162.361 7.43181 162.827 7.80736C163.723 8.52675 164.54 9.34029 165.366 10.138C165.515 10.2871 165.651 10.4564 165.788 10.614C166.027 10.8785 166.267 11.1472 166.506 11.4117C166.858 11.8074 167.179 12.2337 167.514 12.6431C167.707 12.8779 167.885 13.1297 168.071 13.3741C168.224 13.5762 168.385 13.7793 168.53 13.9856C168.851 14.4564 169.191 14.9197 169.496 15.4032C169.813 15.911 170.144 16.4156 170.441 16.9361C170.738 17.4524 171.032 17.9697 171.312 18.4944C171.882 19.5439 172.427 20.606 172.956 21.6766C173.996 23.7798 174.984 25.9041 175.9 28.0654C176.771 30.1188 177.494 32.2304 178.27 34.3219C179.071 36.4663 179.853 38.6276 180.467 40.8344C180.785 41.9579 181.075 43.0909 181.372 44.2187C181.673 45.3591 181.97 46.4995 182.243 47.6484C182.491 48.6947 182.656 49.7569 182.845 50.8148C183.057 52.0081 183.288 53.1951 183.514 54.3852C183.722 55.4632 183.915 56.5381 184.118 57.6161C184.328 58.7565 184.526 59.898 184.654 61.0501C184.907 63.3024 184.662 65.5758 184.296 67.7985C184.201 68.3571 184.068 68.9189 183.919 69.4679C183.759 70.0466 183.56 70.601 183.337 71.1585C183.126 71.6832 182.842 72.1709 182.544 72.6501C182.231 73.159 181.83 73.6054 181.426 74.0349C181.186 74.291 180.926 74.5269 180.657 74.7458C180.199 75.1256 179.671 75.3658 179.125 75.5848C178.551 75.808 177.982 75.9233 177.366 75.9191C176.855 75.9191 176.338 75.8196 175.839 75.7287C175.673 75.7001 175.521 75.6303 175.397 75.5266C175.181 75.6006 174.925 75.6006 174.624 75.4938C172.085 74.2994 171.8 71.0178 170.953 68.6914C170.879 68.191 170.557 67.1955 170.33 66.1831C169.95 65.8773 169.917 65.4552 170.103 64.9644C170.045 64.8808 169.995 64.7909 169.958 64.6914C169.583 63.2527 169.269 61.8107 168.753 60.41C168.62 59.7658 168.121 58.8316 168.1 58.0795C168.026 57.9927 167.968 57.889 167.922 57.778C166.51 51.5458 164.837 45.4173 162.447 39.5078C160.42 35.5448 159.023 31.1312 155.712 28.0157C150.732 23.5439 145.232 19.2254 138.624 17.5888C132.253 15.7132 125.506 19.3905 124.011 25.9495C122.917 29.8829 122.041 33.8299 122.033 37.9124C122.36 41.3052 122.624 44.7064 123.008 48.0906C123.573 52.0504 123.64 56.0832 124.407 60.0133C125.262 64.555 126.294 69.067 127.087 73.6255C127.401 76.5475 127.843 79.4525 128.276 82.3618H128.281C141.887 82.1883 155.522 80.9812 169.12 80.4565C184.502 80.2787 199.895 81.4647 215.245 81.8455C215.348 81.7291 215.447 81.6138 215.55 81.5017C217.355 80.2745 217.565 82.767 217.627 84.01C217.825 86.2792 218.338 88.503 218.775 90.7383C219.791 97.7513 221.661 104.636 222.335 111.686C222.623 112.128 222.562 112.566 222.335 112.876C225.816 112.632 229.317 112.397 232.737 112.003C233.207 112.003 233.818 111.797 234.392 111.698C234.446 110.065 235.685 107.855 236.333 106.958C238.336 103.64 241.437 101.194 245.095 99.9496C245.487 99.7962 245.888 99.6597 246.301 99.5359C246.074 99.0366 246.239 98.3585 246.722 98.0898C247.235 97.2466 247.775 96.4331 248.349 95.6354C251.004 91.9327 253.71 87.8576 257.95 85.8539C267.043 80.7707 277.614 84.7791 284.778 91.536C290.663 88.7675 297.563 91.3128 302.696 94.677C305.644 96.8711 307.939 99.6809 309.864 102.776C310.603 102.718 311.487 102.904 312.102 102.883C316.157 103.078 319.993 105.181 322.648 108.21C333.021 119.529 337.353 136.721 338.872 151.688Z" style="fill: var(--il-outline);"/>
</g>
</g>
</g>
<g id="Dark-Outlines">
<g id="Group_48">
<g id="Group_49">
<path id="vec45" d="M220.596 111.815C218.965 102.219 216.941 92.557 215.826 82.9416C216.175 81.9525 217.641 82.1588 217.858 83.1437C218.843 89.7091 219.692 96.3084 221.062 102.815C221.538 105.119 221.857 107.462 222.314 109.77C222.435 110.771 223.161 112.587 221.641 112.778C221.081 112.8 220.644 112.362 220.596 111.815Z" style="fill: var(--il-ne-outline);"/>
</g>
<g id="Group_50">
<path id="vec46" d="M227.465 152.99C226.259 147.05 225.211 140.944 224.56 134.94C224.273 134.46 224.394 133.808 224.88 133.51C226.249 132.817 226.692 134.618 226.705 135.638C227.26 141.4 228.395 146.988 229.443 152.652C229.643 153.933 227.72 154.285 227.465 152.99Z" style="fill: var(--il-ne-outline);"/>
</g>
<g id="Group_51">
<path id="vec47" d="M214.625 178.097C212.836 177.3 215.905 174.091 216.281 172.84C219.647 166.142 223.715 159.737 227.05 153.033C227.137 152.484 227.657 152.092 228.211 152.174C229.175 152.327 229.249 153.444 228.792 154.136C227.215 157.436 225.205 160.487 223.552 163.744C221.908 166.99 219.834 170.073 218.299 173.313C217.695 174.528 216.896 175.812 216.256 176.972C215.972 177.639 215.472 178.465 214.625 178.097Z" style="fill: var(--il-ne-outline);"/>
</g>
</g>
</g>
</g>
</g>
</g>
<defs>
<linearGradient id="paint0_linear_2417_323" x1="336.507" y1="191.585" x2="234.579" y2="167.052" gradientUnits="userSpaceOnUse">
<stop style="stop-color: var(--secondary-fixed);"/>
<stop offset="1" style="stop-color: var(--primary-fixed-dim);"/>
</linearGradient>
<linearGradient id="paint1_linear_2417_323" x1="145.315" y1="110.186" x2="145.067" y2="182.899" gradientUnits="userSpaceOnUse">
<stop style="stop-color: var(--tertiary-fixed);"/>
<stop offset="1" style="stop-color: var(--primary-fixed);"/>
</linearGradient>
<linearGradient id="paint2_linear_2417_323" x1="148.787" y1="104.975" x2="148.539" y2="79.4136" gradientUnits="userSpaceOnUse">
<stop style="stop-color: var(--tertiary-fixed-dim);"/>
<stop offset="1" style="stop-color: var(--primary-fixed);"/>
</linearGradient>
<radialGradient id="paint3_radial_2417_323" cx="0" cy="0" r="1" gradientTransform="matrix(33.4771 -8.18953 16.2612 66.5737 147.547 67.5016)" gradientUnits="userSpaceOnUse">
<stop style="stop-color: var(--primary-fixed-dim);"/>
<stop offset="0.52" style="stop-color: var(--primary-fixed);"/>
<stop offset="1" style="stop-color: var(--il-highlight);"/>
</radialGradient>
<linearGradient id="paint4_linear_2417_323" x1="65.4664" y1="102.99" x2="76.392" y2="132.268" gradientUnits="userSpaceOnUse">
<stop style="stop-color: var(--secondary-fixed);"/>
<stop offset="1" style="stop-color: var(--primary-fixed-dim);"/>
</linearGradient>
<linearGradient id="paint5_linear_2417_323" x1="63.4826" y1="161.557" x2="69.6911" y2="191.087" gradientUnits="userSpaceOnUse">
<stop style="stop-color: var(--secondary-fixed);"/>
<stop offset="1" style="stop-color: var(--primary-fixed-dim);"/>
</linearGradient>
<linearGradient id="paint6_linear_2417_323" x1="67.6981" y1="190.841" x2="75.6444" y2="216.15" gradientUnits="userSpaceOnUse">
<stop style="stop-color: var(--secondary-fixed);"/>
<stop offset="1" style="stop-color: var(--primary-fixed-dim);"/>
</linearGradient>
<linearGradient id="paint7_linear_2417_323" x1="76.3774" y1="214.417" x2="84.8201" y2="238.733" gradientUnits="userSpaceOnUse">
<stop style="stop-color: var(--secondary-fixed);"/>
<stop offset="1" style="stop-color: var(--primary-fixed-dim);"/>
</linearGradient>
<clipPath id="clip0_2417_323">
<rect width="368" height="237" fill="white"/>
</clipPath>
</defs>
</svg>