<svg xmlns="http://www.w3.org/2000/svg" width="369" height="238" viewBox="0 0 369 238" fill="none">
<g id="welcome">
<g id="Group">
<g id="welcome_2">
<mask id="mask0_2429_5" style="mask-type:luminance" maskUnits="userSpaceOnUse" x="0" y="0" width="369" height="238">
<g id="_clip1">
<path id="vec1" d="M369 0H0V237.362H369V0Z" fill="white"/>
</g>
</mask>
<g mask="url(#mask0_2429_5)">
<g id="Group_2">
<g id="FL">
<g id="Group_3">
<g id="Group_4">
<path id="vec2" d="M86.4422 103.349C91.4077 104.147 95.2946 108.619 94.6529 113.752C94.0767 116.727 91.9881 119.056 90.5049 121.627C88.0814 125.036 85.4489 128.449 83.2626 132.066C80.1641 136.342 76.7879 140.355 73.9109 144.809C73.0975 145.811 72.2967 146.862 71.3075 147.704C70.8821 147.883 70.6491 148.366 70.7271 148.816C70.4692 149.293 70.6491 149.886 71.1068 150.164C73.8787 151.595 74.4747 155.118 74.6754 157.959C74.7857 160.807 74.3935 163.644 73.8818 166.48C73.6415 171.209 72.1573 175.717 70.0074 179.931C67.5225 184.415 64.9399 189.217 60.8814 192.536C56.0948 197.13 50.5447 201.147 43.8911 202.439C38.8466 203.858 33.6522 204.074 28.4579 203.865C28.4412 203.739 28.4048 203.608 28.3393 203.473C27.7673 202.488 25.9439 202.946 26.1603 204.152C25.4 204.892 24.6479 205.64 23.9043 206.396C21.8771 204.765 20.1567 202.549 19.1957 200.138C18.1576 196.084 16.6536 191.759 17.0832 187.48C18.1171 181.128 19.0365 174.663 21.1168 168.56C26.3319 152.845 36.0518 139.084 47.2746 127.031C49.0033 124.726 50.888 122.596 52.8787 120.577C52.8174 122.127 53.6349 123.692 55.3261 123.908C55.5269 123.925 55.7235 123.928 55.9232 123.928C58.9561 123.928 61.6948 122.159 64.2202 120.627C68.3889 118.297 71.9243 115.063 74.3935 110.952C76.1388 108.59 75.7384 105.315 72.7377 104.69C77.0458 102.879 81.7867 102.233 86.4422 103.349Z" fill="url(#paint0_linear_2429_5)"/>
</g>
<g id="Group_5">
<path id="vec3" d="M73.4166 107.441C73.7598 108.631 72.7467 109.762 72.1778 110.747C70.5146 113.036 68.7121 115.403 66.2845 116.943C64.3717 118.051 56.1808 124.206 54.8734 121.096C54.7548 119.891 55.6129 118.873 56.1891 117.86C56.3732 117.642 56.4877 117.364 56.5043 117.091C58.6417 115.129 60.8603 113.236 63.1007 111.332C63.8361 110.571 64.6172 109.844 65.4389 109.158C65.6833 109.26 65.9777 109.256 66.272 109.08C67.6658 108.029 72.1622 105.193 73.4166 107.441Z" style="fill: var(--primary-fixed-dim);"/>
</g>
<g id="Group_6">
<path id="vec4" d="M225.055 189.152C225.243 189.226 225.43 189.294 225.618 189.351C218.082 191.469 210.668 193.929 203.041 195.801C202.42 195.932 201.799 196.063 201.178 196.202C200.818 196.047 200.388 196.08 200.078 196.422C200.037 196.439 199.996 196.455 199.951 196.468C188.507 198.981 177.181 201.986 165.558 203.559C165.022 203.636 164.47 203.698 163.906 203.727C163.825 203.653 163.735 203.587 163.649 203.53C159.684 200.073 155.994 196.333 152.34 192.556C152.091 192.323 151.841 192.086 151.595 191.849C153.349 191.497 155.103 191.183 156.807 190.66C163.203 188.841 169.604 187.014 176.033 185.33C179.208 184.529 182.372 183.723 185.573 183.021C186.194 182.89 186.88 182.588 187.073 181.925C187.526 180.81 185.883 180.008 185.27 181.022C174.905 183.38 164.589 186.43 154.33 189.27C153.362 189.679 150.737 189.495 150.267 190.574C142.796 183.319 135.815 175.57 127.335 169.448C125.716 168.442 123.926 168.27 122.086 167.866C120.877 167.542 119.671 167.093 118.396 167.191C115.048 167.616 112.682 169.133 111.108 171.274C110.111 170.613 108.889 170.035 108.407 169.558C106.04 167.771 103.2 166.921 100.417 166.027C98.5319 165.576 96.5463 165.515 94.6699 166.059C92.6344 166.39 90.5168 166.775 88.9722 168.266C85.7593 171.143 83.5074 175.022 83.3889 179.4C83.4014 180.524 83.5241 181.619 83.7404 182.681C83.1559 182.539 82.3467 182.706 81.7954 182.719C71.8998 181.448 66.2145 187.775 67.2244 197.445C67.2817 197.714 67.3472 197.98 67.4169 198.241C65.7246 197.853 64.0531 197.313 62.3078 197.297C60.8766 197.191 59.434 197.305 58.061 197.648C61.4737 195.045 64.543 191.98 67.1423 188.616C70.1628 183.941 72.996 179.08 74.6717 173.739C75.7794 169.423 76.1466 164.907 76.6375 160.476C76.833 156.455 76.3598 151.627 72.9877 148.954C73.2696 148.696 73.5192 148.415 73.7023 148.186C76.2121 145.533 77.8222 142.316 80.1073 139.463C84.3083 134.596 87.3985 128.948 91.3426 123.896C91.4082 123.79 91.4737 123.68 91.5434 123.572H91.5517C91.9105 123.572 92.2662 123.381 92.4545 123.049C94.5639 120.541 96.5619 117.941 98.4747 115.28C104.454 106.946 110.303 98.5878 117.186 90.9409C117.865 90.1681 118.515 89.3755 119.189 88.6027C119.214 88.8201 119.258 89.0365 119.324 89.257C119.703 93.328 121.122 97.166 123.145 100.706C125.27 105.008 127.637 109.194 130.408 113.118C134.287 119.265 138.742 124.995 143.908 130.117C149.553 136.44 155.7 142.251 161.998 147.916C171.828 157.038 182.339 165.548 193.58 172.884C203.352 179.547 213.758 185.424 225.055 189.152Z" fill="url(#paint1_linear_2429_5)"/>
</g>
<g id="Group_7">
<path id="vec5" d="M193.718 200.004C193.93 201.798 193.902 203.624 193.579 205.402C191.409 213.634 183.945 219.155 176.749 223.042C172.011 225.63 166.539 226.3 161.201 226.418C159.28 226.496 157.346 226.344 155.516 225.797C154.44 225.364 153.377 224.91 152.311 224.457C152.111 224.236 151.824 224.118 151.53 224.126C150.905 223.86 150.28 223.599 149.651 223.341C149.486 223.264 149.323 223.181 149.16 223.103C148.539 222.724 147.852 222.283 147.251 222.135C140.189 218.449 133.735 213.756 127.657 208.602C128.16 208.721 128.655 208.778 129.136 208.778C132.893 208.778 135.795 205.337 134.699 201.229C132.28 193.198 125.414 185.461 117.071 183.54C114.762 183.05 112.248 184.378 111.288 186.426C110.928 185.044 110.68 183.626 110.561 182.171C110.209 179.523 110.606 176.502 111.79 174.045C111.987 174.021 112.184 173.918 112.383 173.702C112.604 173.371 112.637 173.052 112.531 172.745C114.046 170.469 116.401 168.965 119.642 169.243C121.674 169.938 123.815 170.008 125.81 170.862C127.817 171.933 129.382 173.645 131.156 175.043C137.789 180.283 143.286 186.814 149.507 192.527C153.328 196.329 157.016 200.281 161.041 203.886C161.16 204.344 161.5 204.821 161.854 205.136C161.867 205.149 161.879 205.166 161.896 205.173C161.932 205.214 161.973 205.247 162.014 205.28C164.004 207.437 166.22 209.453 167.74 211.983C167.94 212.334 168.243 212.478 168.55 212.478C169.228 212.478 169.91 211.766 169.469 211.002C168.713 209.718 167.785 208.566 166.796 207.462C169.179 208.354 171.615 209.117 174.047 209.869C174.366 209.972 174.713 210.127 175.061 210.127C175.146 210.127 175.236 210.114 175.322 210.091C176.188 209.886 176.319 208.623 175.522 208.235C172.591 207.344 169.636 206.441 166.768 205.333C174.402 204.389 181.926 202.684 189.427 200.915C189.52 200.927 189.623 200.931 189.725 200.931C190.874 200.931 192.533 200.326 193.718 200.004Z" fill="url(#paint2_linear_2429_5)"/>
</g>
<g id="Group_8">
<path id="vec6" d="M124.825 189.789C128.214 192.712 134.16 199.913 132.595 204.667C131.16 207.916 127.248 206.603 124.755 205.472C123.869 204.993 123.071 204.237 122.348 203.53C122.188 203.183 121.866 202.945 121.498 202.917C118.494 199.831 115.751 196.402 113.753 192.642C114.096 192.368 114.247 191.865 114.043 191.457C112.379 188.816 112.285 185.775 116.066 185.425C119.451 185.645 122.205 187.848 124.825 189.789Z" style="fill: var(--primary-fixed-dim);"/>
</g>
<g id="Group_9">
<path id="vec7" d="M149.487 225.499C149.65 225.589 149.818 225.675 149.985 225.753C147.562 228.712 143.132 228.899 139.514 229.386C130.073 230.763 120.643 226.459 114.174 219.683C110.217 215.641 106.122 211.667 102.235 207.515C102.293 207.536 102.35 207.552 102.407 207.568C102.513 207.568 102.615 207.572 102.713 207.572C109.976 207.572 107.573 200.694 105.46 196.263C103.674 192.867 100.976 190.051 98.1073 187.549C95.3562 185.003 90.0755 179.387 86.8428 184.353C86.6879 184.664 86.5807 184.983 86.5162 185.31C84.6357 180.037 85.032 174.405 89.8883 170.11C91.1302 168.712 92.9535 168.328 94.7186 168.07C99.2306 166.811 104.026 169.006 107.737 171.495C108.48 172.109 109.256 172.402 110.046 172.971C110.054 172.978 110.062 172.982 110.07 172.991C107.218 178.79 108.607 187.529 111.689 192.973C115.282 199.652 120.595 205.435 126.481 210.205C133.081 215.865 140.279 220.938 148.085 224.763C148.551 225.012 149.017 225.258 149.487 225.499Z" fill="url(#paint3_linear_2429_5)"/>
</g>
<g id="Group_10">
<path id="vec8" d="M104.663 199.521C105.349 201.405 106.87 204.896 103.911 205.48C102.517 206.093 101.327 204.773 100.286 204.021C98.8633 202.831 97.404 201.606 96.0757 200.265C95.7939 199.95 95.5078 199.484 95.1313 199.263H95.1272C93.722 197.444 92.3854 195.573 91.1466 193.631C91.4285 193.313 91.4816 192.83 91.2486 192.458C90.2147 190.737 88.9759 189.058 88.5099 187.075C88.0731 185.302 88.8865 184.222 90.7337 184.406C91.907 184.709 92.8306 185.603 93.7865 186.307C97.9844 190.112 102.832 193.921 104.663 199.521Z" style="fill: var(--primary-fixed-dim);"/>
</g>
<g id="Group_11">
<path id="vec9" d="M121.719 227.877C117.746 230.575 112.4 230.497 107.728 230.162C104.822 230.097 102.023 229.381 99.3541 228.25C98.0623 227.792 96.7996 227.297 95.5691 226.75C95.5358 226.68 95.4953 226.615 95.4464 226.549C95.2009 226.246 94.8213 226.161 94.478 226.242C92.1482 225.123 89.941 223.778 87.8608 222.082C85.8378 220.504 83.8064 218.866 81.8937 217.104C81.9134 217.108 81.9342 217.112 81.954 217.112C82.0809 217.125 82.2078 217.133 82.3305 217.133C85.0567 217.129 87.7006 214.558 87.685 211.815C87.5789 209.065 86.3891 206.485 84.9215 204.204C82.7923 200.306 79.7635 196.95 75.9099 194.702C72.9175 193.414 69.5538 195.25 70.1799 198.76C70.3016 199.582 70.4493 200.412 70.6209 201.238C68.6749 197.028 68.0664 192.867 71.3854 187.807C73.1921 185.35 76.4206 184.684 79.3225 184.528C79.6782 184.5 80.2253 184.558 80.8348 184.619C82.0403 184.733 83.4788 184.852 84.1289 184.297C85.739 189.904 89.6592 194.788 92.8471 199.611C98.2089 206.494 104.402 212.751 110.634 218.845C113.777 222.393 117.529 225.585 121.719 227.877Z" fill="url(#paint4_linear_2429_5)"/>
</g>
<g id="Group_12">
<path id="vec10" d="M82.5758 204.152C84.6436 207.217 88.3391 213.94 82.478 215.142C81.1207 215.137 80.0421 214.186 79.0405 213.381C79.0935 213.082 79.0113 212.763 78.7908 212.53C77.2868 210.952 75.7547 209.354 74.7697 207.384C73.4613 204.813 72.7384 201.964 72.2069 199.14C71.8221 197.302 72.4024 196.279 73.9148 196.279C74.1966 196.279 74.5076 196.317 74.8509 196.386C78.0388 198.253 80.7244 200.922 82.5758 204.152Z" style="fill: var(--primary-fixed-dim);"/>
</g>
<g id="Group_13">
<path id="vec11" d="M87.2516 224.093C89.0666 225.551 91.0407 226.754 93.1126 227.775C89.4504 231.781 84.1084 231.126 79.1054 230.412C75.2071 229.68 71.2016 229.103 67.4041 227.91C70.0939 227.587 72.5464 225.973 71.9733 222.825C69.9056 216.949 63.4766 212.894 57.7664 211.063C53.6268 209.984 51.636 213.429 52.5274 216.691C51.636 215.51 50.8715 214.239 50.2994 212.853C48.5708 207.919 52.7801 202.819 56.692 200.179C60.3501 198.695 64.3961 199.268 68.0334 200.558C68.0906 200.592 68.1478 200.616 68.205 200.637C69.6684 204.339 72.043 207.667 74.038 211.136C77.4256 216.364 82.4119 220.275 87.2516 224.093Z" fill="url(#paint5_linear_2429_5)"/>
</g>
<g id="Group_14">
<path id="vec12" d="M54.6155 213.597C58.363 209.579 77.8714 225.454 66.5581 225.953C62.5526 226.484 52.4697 217.831 54.6155 213.597Z" style="fill: var(--primary-fixed-dim);"/>
</g>
<g id="Group_15">
<path id="vec13" d="M57.0228 224.33C57.0187 224.33 57.0187 224.334 57.0145 224.334C51.1493 225.278 45.1946 225.879 39.4116 227.354C32.8516 228.756 26.1969 229.705 19.6827 231.335C16.2243 232.116 12.7139 232.643 9.21081 233.171C6.87367 233.567 4.55942 234.359 2.17651 234.348C3.35392 233.641 4.59686 231.176 5.35718 230.498C10.2863 224.412 15.2435 218.354 20.676 212.698C22.596 210.671 24.4152 208.553 26.4549 206.64C26.6962 206.367 27.0311 206.085 27.366 205.782C27.3827 205.786 27.3993 205.791 27.4149 205.791C29.0749 205.893 30.7422 205.823 32.4054 205.893C32.7611 205.901 33.121 205.909 33.4767 205.909C38.8801 205.909 44.2876 204.601 49.3884 202.889C50.287 202.476 51.1742 202.031 52.0448 201.556C49.9802 203.906 48.0518 206.649 47.9332 209.866C47.7408 212.62 48.861 215.064 50.4503 217.255C48.3576 217.803 46.241 218.224 44.115 218.686C38.5816 219.589 33.2967 221.395 27.7956 222.466C26.7451 222.916 24.436 222.401 24.5099 224.044C24.6118 224.719 25.3191 225.009 25.9234 224.84C27.9994 224.486 30.0641 224.056 32.1152 223.582C38.516 221.661 45.1166 220.656 51.5913 219.041C51.6766 219.033 51.763 219.017 51.8482 218.996C52.854 220.157 53.9368 221.244 54.9509 222.266C55.6051 222.997 56.2958 223.688 57.0228 224.33Z" fill="url(#paint6_linear_2429_5)"/>
</g>
<g id="Group_16">
<path id="vec14" d="M122.973 72.9493C123.01 73.5048 123.055 74.0768 122.948 74.6291C121.698 74.8049 120.459 75.197 119.25 75.6547C119.328 74.6572 119.16 73.5089 119.18 72.7819C118.805 66.3613 115.6 60.1154 110.577 56.0943C110.164 55.8155 109.731 55.5014 109.281 55.2154C117.48 56.1099 122.099 65.3721 122.973 72.9493Z" style="fill: var(--primary-fixed);"/>
</g>
<g id="Group_17">
<path id="vec15" d="M190.82 13.403C192.43 25.9592 192.341 40.1454 184.62 50.8253C183.125 52.9304 181.681 55.1417 179.981 57.0992C176.491 60.4224 172.33 63.1153 168.108 65.4534C161.458 69.1646 155.29 74.6293 153.141 82.1702C152.998 82.7869 152.687 84.7736 152.847 86.1996C150.149 85.7866 147.464 85.4112 144.73 85.4195C144.709 85.2843 144.652 85.1449 144.558 85.0107C144.239 84.1932 144.214 83.515 144.463 82.6278C144.726 81.2382 144.533 79.8361 144.848 78.3727C146.225 74.1342 148.8 70.2515 152.017 67.1696C154.571 65.106 157.158 63.3888 160.081 61.7548C163.125 60.4713 166.22 59.1628 168.582 56.7685C174.427 51.4836 178.35 44.2652 180.488 36.7411C183.129 29.2044 183.243 21.1154 181.902 13.2927C181.727 11.9364 180.655 8.02868 179.102 5.97653C179.564 5.73939 180.005 5.48248 180.361 5.35974C182.262 4.33003 184.375 3.55306 186.169 2.33925C186.177 2.34341 186.186 2.35173 186.194 2.35589C188.891 5.43359 190.13 9.36939 190.82 13.403Z" style="fill: var(--tertiary-fixed-dim);"/>
</g>
<g id="Group_18">
<path id="vec16" d="M169.906 93.3405C171.451 93.9656 172.825 95.0483 174.166 96.0458C171.594 101.171 168.705 107.134 162.975 109.259C158.838 110.404 154.967 111.218 152.651 115.268C152.643 115.281 152.63 115.292 152.626 115.309C152.303 114.936 151.939 114.597 151.571 114.271C150.26 113.106 148.686 112.325 147.087 111.618C147.149 111.553 147.206 111.492 147.267 111.43C148.551 110.118 149.798 108.925 151.363 107.838C160.126 102.573 165.337 104.731 169.906 93.3405Z" style="fill: var(--secondary-fixed);"/>
</g>
<g id="Group_19">
<path id="vec17" d="M138.574 38.9153C139.335 42.4143 141.01 45.9818 140.928 49.6316C139.813 49.6358 138.697 49.7751 137.585 49.8282C137.504 47.0282 137.148 44.2085 136.35 41.5146C136.138 40.8042 135.905 40.0927 135.721 39.3688C136.694 39.3282 137.602 39.0547 138.574 38.9153Z" style="fill: var(--secondary-fixed-dim);"/>
</g>
<g id="Group_20">
<path id="vec18" d="M217.734 38.4249C214.17 45.2137 219.496 53.0489 212.65 59.4332C212.621 59.4581 212.593 59.482 212.564 59.507C211.134 59.143 209.695 58.7956 208.252 58.4648C208.448 58.0269 208.628 57.5984 208.84 57.3124C210.553 53.5721 210.533 49.2972 210.84 45.2626C210.52 41.3799 211.988 36.8231 215.642 34.9832C216.317 36.1689 217.08 37.2069 217.734 38.4249Z" style="fill: var(--primary-fixed-dim);"/>
</g>
<g id="Group_21">
<path id="vec19" d="M203.544 104.924C208.024 107.69 211.212 113.314 210.055 118.722C209.801 119.829 209.356 120.859 208.767 121.84C206.204 120.279 204.042 118.051 201.782 116.045C198.598 112.999 195.954 109.44 194.556 105.214C195.035 105.009 195.513 104.739 195.901 104.633C198.341 103.791 201.222 103.534 203.544 104.924Z" style="fill: var(--tertiary-fixed-dim);"/>
</g>
<g id="Group_22">
<path id="vec20" d="M190.763 119.629C192.006 119.629 193.347 118.86 193.154 117.475C193.023 115.996 191.348 115.448 190.085 115.836C187.927 116.326 187.665 119.367 190.13 119.555C190.329 119.604 190.547 119.629 190.763 119.629ZM198.88 124.693C199.346 122.658 196.514 121.819 195.05 122.686C193.804 123.291 193.775 125.06 194.789 125.886C195.194 126.259 195.946 126.458 196.698 126.458C197.927 126.458 199.166 125.919 198.88 124.693ZM210.128 126.001C211.31 125.67 215.773 125.698 213.962 127.786C210.312 130.464 205.669 131.269 201.173 131.294C200.882 131.163 200.515 131.13 200.139 131.13C199.988 131.13 199.837 131.135 199.694 131.139C199.408 131.146 199.134 131.159 198.905 131.135C191.708 131.837 186.565 127.742 184.195 121.101C182.544 115.856 183.148 110.237 184.546 105.001C185.046 103.276 186.312 100.864 188.446 101.253C188.732 101.416 188.965 101.637 189.145 101.895C189.161 102.173 189.263 102.422 189.496 102.598C189.602 102.929 189.655 103.289 189.655 103.647C189.655 104.155 189.553 104.657 189.365 105.091C188.213 105.687 188.99 107.195 190.015 107.02C190.465 107.073 190.975 106.824 191.311 106.452C191.736 106.149 192.169 105.859 192.61 105.581C195.263 113.617 201.975 119.911 209.041 124.276C208.992 124.444 208.984 124.615 209.033 124.783C208.902 125.392 209.319 126.123 210.128 126.001Z" fill="url(#paint7_linear_2429_5)"/>
</g>
<g id="Group_23">
<path id="vec21" d="M233.891 145.243C232.885 147.376 233.433 149.731 232.931 151.958C232.927 152.036 232.919 152.114 232.906 152.199C223.003 149.335 211.714 149.812 202.821 155.339C202.023 155.784 199.686 157.19 198.729 158.522C197.041 156.732 195.41 154.84 193.637 153.148C194.99 151.831 196.518 150.732 198.121 149.702C200.323 148.329 202.677 147.27 205.117 146.457C205.204 146.563 205.281 146.669 205.359 146.776C206.078 147.736 207.475 146.796 207.124 145.844C210.61 144.887 214.244 144.377 217.865 144.144C223.256 143.277 228.619 143.886 233.891 145.243Z" style="fill: var(--primary-fixed-dim);"/>
</g>
<g id="Group_24">
<path id="vec22" d="M246.925 175.926C247.452 176.858 247.951 177.847 248.315 178.873C247.031 177.724 245.495 176.82 244.019 176.003C242.14 174.908 240.181 174.054 237.986 173.952C238.007 173.833 238.027 173.719 238.048 173.616C238.191 172.296 238.403 170.98 238.526 169.652C242.274 169.97 245.229 172.677 246.925 175.926Z" style="fill: var(--tertiary-fixed-dim);"/>
</g>
<g id="Group_25">
<path id="vec23" d="M299.057 174.813C299.102 175.766 299.057 176.719 299.008 177.671C294.532 178.329 289.476 179.522 285.263 177.361C285.602 176.535 285.977 175.709 286.419 174.879C289.513 176.497 296.886 175.362 299.036 174.478C299.04 174.589 299.049 174.703 299.057 174.813Z" style="fill: var(--secondary-fixed);"/>
</g>
<g id="Group_26">
<path id="vec24" d="M350.715 137.163C350.367 138.132 350.032 139.117 349.66 140.073C348.859 142.292 348.148 144.533 346.974 146.596C346.815 146.874 346.84 147.209 346.987 147.479C346.955 147.528 346.921 147.581 346.893 147.643C333.409 140.151 319.779 141.373 305.956 147.193C298.935 150.16 292.264 153.998 284.887 156.082C278.503 157.929 271.57 159.503 264.95 157.946C264.128 157.787 263.298 157.333 262.461 157.104C262.399 156.961 262.292 156.823 262.142 156.692C261.864 154.279 261.574 151.873 261.148 149.486C263.809 150.034 266.323 150.487 269.09 150.733C270.144 150.822 271.191 150.863 272.225 150.863C286.154 150.863 298.55 143.061 310.934 137.454C317.662 134.976 324.847 134.122 332 133.586C334.828 133.398 337.546 133.125 340.395 133.57C343.951 134.207 347.363 135.72 350.715 137.163Z" style="fill: var(--tertiary-fixed-dim);"/>
</g>
<g id="Group_27">
<path id="vec25" d="M262.886 121.831C266.229 120.984 269.499 119.497 272.72 118.259C281.442 114.883 288.459 108.437 294.708 101.632C298.11 97.7241 301.743 93.6011 302.475 88.283C303.258 86.183 302.976 83.5276 301.79 81.5597C301.953 81.3486 302.125 81.1437 302.303 80.9429C302.376 80.8649 302.454 80.7838 302.532 80.7099C302.7 80.5477 302.794 80.3365 302.818 80.1181C303.716 79.2101 304.795 78.7317 306.165 79.2631C306.263 79.4753 306.358 79.6917 306.455 79.9049C306.533 80.0765 306.659 80.2076 306.811 80.3012C308.744 85.5652 307.547 91.7456 305.136 96.7433C305.009 96.9565 304.878 97.1687 304.742 97.3767C304.665 97.4631 304.608 97.5567 304.567 97.6597C301.698 102.204 298.33 106.472 294.795 110.469C291.251 114.216 287.707 118.197 283.175 120.993C279.202 123.167 275.172 125.64 270.656 126.438C269.781 126.727 266.606 126.58 264.839 127.132C263.994 125.587 263.528 123.6 262.886 121.831Z" style="fill: var(--secondary-fixed-dim);"/>
</g>
<g id="Group_28">
<path id="vec26" d="M252.471 24.2462C252.476 24.8026 252.602 25.4236 252.541 25.8812C250.947 25.9551 249.737 27.2469 248.887 28.4805C248.707 28.7623 248.449 29.1514 248.229 29.5601C247.445 29.2616 246.639 29.0245 245.801 28.9381C246.606 26.1184 249.41 23.3069 252.471 24.2462Z" style="fill: var(--secondary-fixed);"/>
</g>
<g id="Group_29">
<path id="vec27" d="M327.332 109.326C327.3 109.403 327.275 109.485 327.262 109.57C326.837 109.504 326.425 109.497 326.118 109.529C325.165 109.456 322.583 110.146 321.091 111.177C320.645 110.421 320.081 109.676 319.836 109.235C321.401 108.291 323.216 107.678 325.059 107.989C325.885 108.193 326.731 108.68 327.332 109.326Z" style="fill: var(--primary-fixed-dim);"/>
</g>
</g>
</g>
<g id="Outlines">
<g id="Group_30">
<g id="Group_31">
<path id="vec28" d="M193.155 117.475C193.347 118.861 192.006 119.629 190.763 119.629C190.546 119.629 190.33 119.605 190.13 119.556C187.665 119.368 187.927 116.327 190.085 115.836C191.347 115.447 193.023 115.995 193.155 117.475Z" style="fill: var(--il-outline);"/>
</g>
<g id="Group_32">
<path id="vec29" d="M195.051 122.686C196.514 121.819 199.346 122.658 198.881 124.693C199.167 125.919 197.928 126.459 196.697 126.458C195.946 126.458 195.194 126.258 194.789 125.886C193.776 125.061 193.804 123.291 195.051 122.686Z" style="fill: var(--il-outline);"/>
</g>
<g id="Group_33">
<path id="vec30" d="M176.633 5.76295C176.359 4.45136 178.088 4.39832 178.884 3.86682C181.075 2.78406 183.123 1.84796 185.207 0.621662C185.882 -0.84178 187.914 0.581097 186.924 1.78659C184.991 3.33116 182.534 4.18198 180.36 5.35835C179.619 5.61525 178.48 6.48063 177.609 6.48063C177.202 6.48063 176.854 6.29133 176.633 5.76295Z" style="fill: var(--il-outline);"/>
</g>
<g id="Group_34">
<path id="vec31" d="M155.09 86.5273C156.177 87.4094 155.425 88.436 154.334 88.436C154.154 88.436 153.962 88.4068 153.77 88.3413C150.57 87.8712 147.414 87.3522 144.177 87.3854C143.72 87.3241 143.368 86.9517 143.319 86.5107C143.307 86.4369 143.311 86.3588 143.319 86.2819C143.385 85.7504 143.887 85.3499 144.423 85.4238C144.525 85.4196 144.627 85.4196 144.73 85.4196C147.464 85.4113 150.149 85.7868 152.847 86.1997C153.076 86.2371 153.3 86.2694 153.525 86.3058C153.987 85.9709 154.444 86.1872 154.874 86.4129C154.947 86.4535 155.017 86.4899 155.09 86.5273Z" style="fill: var(--il-outline);"/>
</g>
<g id="Group_35">
<path id="vec32" d="M181.902 13.2933C183.243 21.116 183.129 29.2039 180.488 36.7416C178.35 44.2658 174.427 51.4832 168.583 56.768C166.219 59.1634 163.126 60.4708 160.081 61.7543C157.159 63.3894 154.571 65.1056 152.017 67.1702C148.801 70.2521 146.225 74.1348 144.848 78.3733C144.533 79.8367 144.725 81.2377 144.463 82.6273C144.215 83.5146 144.239 84.1927 144.558 85.0102C144.652 85.1455 144.709 85.2848 144.73 85.419C144.827 86.0244 144.268 86.5923 143.683 86.5923C143.56 86.5923 143.438 86.5673 143.319 86.5101C143.217 86.4695 143.115 86.3957 143.021 86.3021C141.852 84.8761 142.436 82.9061 142.608 81.2419C142.596 79.0722 142.94 76.9181 144.051 75.0293C147.971 65.7234 156.121 61.3986 164.74 57.3328C176.025 49.0764 181.877 32.4335 180.57 18.8309C180.169 15.1364 179.85 8.19256 176.242 6.35675C175.882 6.00935 175.837 5.42481 176.135 5.02437C179.193 2.90774 181.629 11.1798 181.902 13.2933Z" style="fill: var(--il-outline);"/>
</g>
<g id="Group_36">
<path id="vec33" d="M191.814 8.79749C193.269 14.1426 193.678 19.779 193.604 25.3093C193.371 30.8188 193.191 36.4177 191.315 41.662C189.86 47.0207 186.66 51.5524 183.394 55.9553C181.608 58.7386 178.935 60.6795 176.323 62.6255C172.199 65.8051 167.278 67.7335 163.26 71.0775C161.335 72.6553 159.439 74.5431 157.931 76.6608C157.763 76.8969 157.6 77.1382 157.444 77.3795C155.675 80.0932 154.584 83.1553 154.874 86.4119C154.882 86.5305 154.894 86.649 154.91 86.7676C154.931 87.3116 154.42 87.7568 153.897 87.7484C153.872 87.7526 153.847 87.7526 153.823 87.7526C153.218 87.7526 152.945 87.0828 152.847 86.1997C152.688 84.7737 152.998 82.7871 153.141 82.1703C155.291 74.6295 161.458 69.1647 168.108 65.4536C172.33 63.1154 176.491 60.4225 179.981 57.0994C181.682 55.1419 183.125 52.9306 184.62 50.8254C192.341 40.1455 192.43 25.9594 190.82 13.4031C190.13 9.36954 188.891 5.43375 186.194 2.35605C185.654 2.02425 185.409 1.29721 185.834 0.782356C187.98 -1.33948 191.384 7.2394 191.814 8.79749Z" style="fill: var(--il-outline);"/>
</g>
<g id="Group_37">
<path id="vec34" d="M263.482 128.671C262.09 126.358 261.423 123.641 260.508 121.117C260.912 120.954 261.304 120.76 261.696 120.566C261.876 120.477 262.058 120.388 262.236 120.292C263.29 122.377 263.748 125.188 264.884 127.216C265.542 127.977 264.946 128.969 264.181 128.969C263.952 128.969 263.711 128.884 263.482 128.671Z" style="fill: var(--il-outline);"/>
</g>
<g id="Group_38">
<path id="vec35" d="M307.05 93.5432C307.047 93.5547 307.043 93.5651 307.037 93.5755C307.041 93.563 307.047 93.5536 307.05 93.5432Z" style="fill: var(--il-outline);"/>
</g>
<g id="Group_39">
<path id="vec36" d="M263.881 128.992C262.193 126.27 269.272 126.895 270.654 126.437C275.17 125.64 279.2 123.167 283.172 120.993C287.705 118.198 291.249 114.216 294.793 110.468C294.788 110.468 294.788 110.473 294.784 110.477C294.78 110.481 294.776 110.485 294.772 110.489C298.729 106.024 302.476 101.215 305.554 96.0619C306.141 96.3323 306.721 96.6152 307.292 96.9127C303.024 104.267 297.431 110.889 291.421 116.824C288.273 120.016 284.673 122.701 280.635 124.663C277.328 126.266 274.038 128.121 270.31 128.488C268.41 128.734 266.436 128.755 264.601 129.298C264.339 129.298 264.082 129.2 263.881 128.992Z" style="fill: var(--il-outline);"/>
</g>
<g id="Group_40">
<path id="vec37" d="M261.089 120.86C261.292 120.764 261.494 120.664 261.696 120.564C262.084 120.372 262.482 120.18 262.836 119.925C263.046 120.161 263.284 120.373 263.535 120.569C262.986 120.72 262.443 120.871 261.899 121.027C261.899 121.023 261.899 121.023 261.895 121.019C261.818 121.035 261.74 121.043 261.662 121.043C261.46 121.043 261.262 120.984 261.089 120.86Z" style="fill: var(--il-outline);"/>
</g>
<g id="Group_41">
<path id="vec38" d="M158.002 76.6372C157.94 76.7146 157.879 76.7964 157.822 76.882C157.801 76.9145 157.776 76.9469 157.757 76.98C157.654 77.1276 157.539 77.2787 157.441 77.4374C157.425 77.0905 157.666 76.7349 158.002 76.6372Z" style="fill: var(--il-outline);"/>
</g>
<g id="Group_42">
<path id="vec39" d="M135.548 52.2763C134.338 52.0318 134.51 50.4706 135.609 50.1804C135.605 46.7345 134.935 43.3417 133.864 40.0809C133.705 39.3206 133.214 38.2825 133.987 37.7022C134.641 37.2892 135.63 37.4848 136.317 37.3215C137.514 37.256 139.181 36.2876 140.085 37.4245C141.037 39.5047 141.315 42.0706 142.017 44.2008C142.794 46.125 143.019 48.173 142.86 50.2335C143.518 51.1155 142.303 52.3376 141.426 51.6355C139.807 51.7 138.009 51.5409 136.501 52.1213C136.277 52.2055 136.01 52.2971 135.75 52.2971C135.682 52.2971 135.614 52.2908 135.548 52.2763ZM135.72 39.3695C135.904 40.0934 136.137 40.8038 136.349 41.5152C137.146 44.2091 137.501 47.0289 137.583 49.8289C138.695 49.7758 139.81 49.6364 140.926 49.6323C141.009 45.9825 139.333 42.4139 138.573 38.916C137.6 39.0543 136.692 39.3289 135.72 39.3695Z" style="fill: var(--il-outline);"/>
</g>
<g id="Group_43">
<path id="vec40" d="M347.424 147.912C346.962 147.687 346.704 147.058 346.975 146.596C348.147 144.531 348.858 142.292 349.66 140.072C350.317 138.376 350.866 136.582 351.573 134.959C352.096 134.256 353.338 134.616 353.367 135.503C352.897 137.657 351.773 139.664 351.156 141.797C350.565 142.933 349.364 148.012 347.802 148.013C347.679 148.013 347.553 147.98 347.424 147.912Z" style="fill: var(--il-outline);"/>
</g>
<g id="Group_44">
<path id="vec41" d="M269.089 150.73C266.142 150.469 263.486 149.971 260.633 149.378C259.5 149.391 259.252 147.616 260.347 147.396C262.427 147.485 264.594 148.222 266.674 148.421C271.333 149.039 276.05 149.014 280.606 147.94C291.14 145.659 300.405 139.974 310.108 135.661C316.41 133.312 323.117 132.314 329.8 131.799C334.141 131.435 338.6 130.896 342.858 132.085C345.438 132.837 347.959 133.79 350.407 134.89C351.372 135.322 352.896 135.608 352.352 136.908C352.038 137.48 351.327 137.546 350.812 137.203C347.427 135.748 343.987 134.215 340.394 133.569C337.545 133.123 334.828 133.397 331.998 133.585C324.847 134.121 317.661 134.975 310.934 137.451C298.551 143.059 286.155 150.865 272.225 150.865C271.188 150.865 270.144 150.822 269.089 150.73Z" style="fill: var(--il-outline);"/>
</g>
<g id="Group_45">
<path id="vec42" d="M266.178 160.275C264.42 159.969 262.752 159.314 261.052 158.812C260.346 158.444 260.37 157.328 261.117 157.009C262.409 156.76 263.689 157.7 264.951 157.945C271.573 159.503 278.505 157.929 284.888 156.082C292.266 153.997 298.936 150.159 305.958 147.192C319.781 141.371 333.412 140.15 346.895 147.641C347.451 146.448 349.294 147.335 348.665 148.52C348.313 149.085 348.109 149.905 347.361 150.049C346.945 150.123 346.597 149.901 346.311 149.628C345.697 149.158 345.023 148.843 344.34 148.5C326.697 139.941 313.155 146.179 299.268 152.411C290.249 156.46 281.077 160.508 270.544 160.508C269.114 160.508 267.661 160.434 266.178 160.275Z" style="fill: var(--il-outline);"/>
</g>
<g id="Group_46">
<path id="vec43" d="M260.621 158.088C260.07 157.393 260.07 156.442 259.967 155.595C259.926 153.311 259.264 151.104 259.072 148.843C259.068 148.304 259.57 147.87 260.089 147.891C260.646 147.907 261.042 148.373 261.046 148.908C261.528 151.483 261.843 154.087 262.142 156.69C263.029 157.45 262.286 158.506 261.448 158.506C261.163 158.506 260.867 158.384 260.621 158.088Z" style="fill: var(--il-outline);"/>
</g>
<g id="Group_47">
<path id="vec44" d="M236.589 175.88C235.621 175.692 235.731 174.654 235.964 173.927C236.155 172.902 236.217 171.924 236.356 170.902C236.434 170.155 236.564 169.435 236.581 168.695C236.663 167.384 238.653 167.486 238.599 168.806C238.493 170.42 238.224 172.014 238.048 173.616C237.87 174.443 237.853 175.895 236.784 175.895C236.723 175.896 236.658 175.891 236.589 175.88Z" style="fill: var(--il-outline);"/>
</g>
<g id="Group_48">
<path id="vec45" d="M243.664 191.987C243.422 191.496 243.635 190.903 244.117 190.659C246.377 189.015 247.788 186.302 248.728 183.726C249.39 180.985 248.25 178.266 246.926 175.925C245.208 172.638 242.204 169.907 238.396 169.638C236.896 169.839 236.487 167.865 237.97 167.623C243.848 167.685 248.012 172.601 249.995 177.706C251.753 181.438 250.718 185.611 248.392 188.844C247.724 189.754 245.988 192.505 244.583 192.505C244.252 192.505 243.939 192.352 243.664 191.987Z" style="fill: var(--il-outline);"/>
</g>
<g id="Group_49">
<path id="vec46" d="M248.933 183.018V183.055C247.469 179.585 243.538 178.073 240.403 176.418C239.176 175.899 237.848 176.238 236.683 175.686C235.617 175.007 236.63 173.315 237.734 173.94C240.03 173.989 242.066 174.868 244.02 176.005C246.484 177.37 249.138 178.984 250.458 181.559C251.042 182.364 251.242 184.012 249.873 184.016C249.325 183.983 248.962 183.537 248.933 183.018Z" style="fill: var(--il-outline);"/>
</g>
<g id="Group_50">
<path id="vec47" d="M243.616 191.586C243.203 191.279 243.057 190.764 242.721 190.387C242.32 189.902 241.724 189.407 241.957 188.704C243.951 186.456 246.302 183.983 246.734 180.84C246.293 180.529 246.171 179.904 246.473 179.451C247.352 178.282 248.795 179.626 248.738 180.758C251.991 181.45 246.408 188.913 245.516 190.425C245.285 191.036 244.797 191.757 244.16 191.758C243.989 191.758 243.807 191.705 243.616 191.586Z" style="fill: var(--il-outline);"/>
</g>
<g id="Group_51">
<path id="vec48" d="M283.912 179.07C283.458 179.062 283.143 178.793 282.902 178.437C282.611 177.999 282.804 177.374 283.225 177.105C283.842 176.046 284.713 172.114 286.335 173.017C286.793 173.283 286.985 173.925 286.695 174.383C285.907 175.78 285.322 177.17 284.795 178.551C284.63 178.856 284.28 179.07 283.931 179.07C283.925 179.07 283.918 179.07 283.912 179.07Z" style="fill: var(--il-outline);"/>
</g>
<g id="Group_52">
<path id="vec49" d="M283.595 177.047C284.008 176.733 284.612 176.794 284.948 177.19C289.223 179.586 294.421 178.347 299.007 177.673C299.056 176.72 299.102 175.767 299.056 174.816C299.049 174.706 299.04 174.591 299.036 174.481C296.384 175.568 285.774 177.047 285.071 173.25C285.058 172.151 286.693 171.889 287.011 172.935C290.756 174.424 295.022 173.655 298.758 172.498C299.424 172.196 300.295 172.065 300.728 172.797C301.206 174.689 301.198 177.031 300.793 178.927C300.577 179.3 300.18 179.446 299.784 179.54C296.649 180.178 293.44 180.529 290.244 180.562C290.199 180.564 290.149 180.566 290.095 180.566C288.34 180.566 281.66 179.362 283.595 177.047Z" style="fill: var(--il-outline);"/>
</g>
<g id="Group_53">
<path id="vec50" d="M319.998 113.571C319.568 113.346 319.364 112.844 319.487 112.394C319.049 111.279 316.674 109.165 317.848 108.131C320.357 106.46 323.586 105.185 326.553 106.39C329.067 107.441 330.726 109.722 328.56 112.084C327.665 112.893 326.337 111.52 327.174 110.649C327.367 110.338 327.591 109.95 327.551 109.578C326.941 108.805 325.99 108.217 325.058 107.988C323.214 107.678 321.4 108.29 319.834 109.235C320.476 110.396 323.333 113.637 320.431 113.73C320.284 113.698 320.129 113.637 319.998 113.571Z" style="fill: var(--il-outline);"/>
</g>
<g id="Group_54">
<path id="vec51" d="M320.401 113.601C318.37 111.418 324.525 109.407 326.119 109.53C327.279 109.403 329.953 109.901 329.124 111.553C328.808 112.019 328.15 112.104 327.697 111.798C325.866 111.087 323.585 111.867 322.085 112.975C321.979 113.463 321.478 113.788 320.988 113.788C320.78 113.788 320.574 113.73 320.401 113.601Z" style="fill: var(--il-outline);"/>
</g>
<g id="Group_55">
<path id="vec52" d="M324.662 115.295C324.183 115.054 324.085 114.551 323.984 114.134C323.812 113.255 323.399 112.397 323.362 111.502C323.476 110.411 324.736 110.566 325.545 110.525C326.076 110.493 326.661 110.411 327.053 110.868C327.356 110.256 327.02 109.43 327.6 108.956C328.083 108.587 328.782 108.653 329.121 109.189C329.624 110.926 328.504 112.843 327.257 114.016C326.709 114.571 325.997 115.402 325.169 115.402C325.005 115.402 324.835 115.37 324.662 115.295Z" style="fill: var(--il-outline);"/>
</g>
<g id="Group_56">
<path id="vec53" d="M212.66 61.5755C210.883 61.1262 209.104 60.7174 207.322 60.292C206.697 60.0954 205.929 60.1734 205.459 59.6627C204.808 58.8982 205.671 57.7135 206.6 58.089C208.769 58.5758 210.944 59.0907 213.098 59.6419C213.616 59.7938 213.968 60.2753 213.846 60.8277C213.748 61.2635 213.326 61.6067 212.887 61.6067C212.811 61.6067 212.735 61.5973 212.66 61.5755Z" style="fill: var(--il-outline);"/>
</g>
<g id="Group_57">
<path id="vec54" d="M212.742 61.0847C212.149 60.7331 212.113 59.8542 212.649 59.434C219.785 52.7794 213.698 44.5521 218.231 37.5718C219.036 36.5827 220.557 37.7965 219.777 38.8013C216.478 44.2619 220.243 51.2556 216.952 56.8223C216.188 58.2524 215.24 59.5765 214.124 60.7539C213.942 61.0597 213.598 61.2303 213.256 61.2303C213.077 61.2303 212.898 61.1835 212.742 61.0847Z" style="fill: var(--il-outline);"/>
</g>
<g id="Group_58">
<path id="vec55" d="M206.396 59.9428C205.758 59.6568 205.631 58.8809 206.004 58.3286C206.817 56.9598 207.569 55.5452 207.921 53.9757C208.823 49.7622 208.689 45.4416 209.06 41.1875C209.694 38.3553 211.293 35.6697 213.573 33.863C214.558 33.0496 216.421 32.4328 217.231 33.7808C218.012 35.2609 219.185 36.5611 219.757 38.1348C220.026 39.4016 218.118 39.8426 217.819 38.5841C217.145 37.2964 216.344 36.2209 215.641 34.9832C211.987 36.8221 210.52 41.3789 210.838 45.2627C210.532 49.2962 210.552 53.5711 208.84 57.3114C208.248 58.1008 207.914 60.0209 206.804 60.0219C206.679 60.0219 206.542 59.9969 206.396 59.9428Z" style="fill: var(--il-outline);"/>
</g>
<g id="Group_59">
<path id="vec56" d="M248.202 31.6792C247.05 31.2298 245.844 30.8128 244.61 30.8492C244.099 31.0374 243.506 30.7389 243.33 30.2324C243.993 26.6721 246.588 22.4835 250.622 22.132C251.954 22.0207 254.824 22.2297 254.815 24.0073C254.782 25.0006 253.381 25.2908 252.939 24.416C249.698 23.0181 246.645 25.9731 245.799 28.9364C246.808 29.0394 247.773 29.3618 248.709 29.7456C249.994 29.9713 249.68 31.7426 248.579 31.7437C248.462 31.7437 248.336 31.7229 248.202 31.6792Z" style="fill: var(--il-outline);"/>
</g>
<g id="Group_60">
<path id="vec57" d="M248.74 31.7573C246.88 31.4182 248.299 29.4066 248.888 28.4788C249.737 27.2453 250.947 25.9534 252.542 25.8796C252.667 24.9029 251.953 23.1701 253.379 22.9579C255.112 23.0266 254.355 25.6144 254.487 26.7668C254.58 28.1314 253.44 29.0395 252.545 27.8621C251.114 28.2916 250.35 29.804 249.753 31.0334C249.631 31.4515 249.233 31.7583 248.791 31.7583C248.773 31.7583 248.757 31.7583 248.74 31.7573Z" style="fill: var(--il-outline);"/>
</g>
<g id="Group_61">
<path id="vec58" d="M122.91 76.3603C122.51 75.9848 122.475 75.2994 122.881 74.9114C123.07 74.2759 123.016 73.5999 122.972 72.9487C122.052 64.9471 116.947 55.0546 107.856 55.143C106.654 54.9922 104.618 56.5222 104.039 55.0005C103.884 54.469 104.204 53.9458 104.71 53.7753C109.492 51.9779 114.538 54.184 118.083 57.4854C121.359 60.5683 123.086 64.9981 124.344 69.2283C124.749 70.7697 126.158 77.8622 122.91 76.3603Z" style="fill: var(--il-outline);"/>
</g>
<g id="Group_62">
<path id="vec59" d="M116.055 77.6589C115.956 77.0276 116.495 76.4909 117.118 76.5231C118.996 75.7316 120.976 74.9037 122.99 74.6228C124.12 74.7487 124.146 76.4545 123.021 76.5855C121.319 76.9912 119.685 77.5466 118.107 78.2393C117.411 78.6564 116.215 78.647 116.055 77.6589Z" style="fill: var(--il-outline);"/>
</g>
<g id="Group_63">
<path id="vec60" d="M119.181 72.7815C119.16 73.5096 119.328 74.6579 119.25 75.6553C119.168 76.6975 118.821 77.5764 117.713 77.6336C117.223 77.5962 116.838 77.1427 116.83 76.6643C116.83 76.6278 116.83 76.5873 116.838 76.5498C116.859 76.2929 116.99 76.0516 117.186 75.8883C117.697 69.9451 115.469 63.9988 111.476 59.6417C111.21 59.3921 110.932 59.1102 110.638 58.8242C109.403 57.6145 107.912 56.2572 106.318 56.3019C105.766 56.3841 105.399 56.0689 105.26 55.6643C105.084 55.137 105.304 54.4672 106.028 54.3486C106.334 54.2747 106.637 54.255 106.931 54.2831C107.765 54.3444 108.545 54.7449 109.282 55.215C109.731 55.501 110.164 55.8162 110.577 56.0939C115.6 60.116 118.805 66.3609 119.181 72.7815Z" style="fill: var(--il-outline);"/>
</g>
<g id="Group_64">
<path id="vec61" d="M109.224 56.6946C110.569 56.6666 110.785 57.6391 110.639 58.8238C110.487 60.0989 109.911 61.6237 109.862 62.4246C109.711 63.2505 110.066 64.3208 108.856 64.4113V64.4154C108.542 64.4196 108.227 64.3665 107.921 64.3249C106.191 63.99 104.356 64.0431 102.7 63.4221C101.834 63.0009 101.9 61.8734 101.724 61.0558C101.687 59.0609 101.594 56.4492 103.359 55.1293C103.535 54.9941 103.755 54.8349 104.005 54.6758C104.99 54.034 106.379 53.3756 106.931 54.2837C107.034 54.447 107.107 54.6633 107.144 54.9368C107.229 55.0107 107.315 55.0845 107.401 55.1542C108.023 55.693 108.578 56.2203 109.224 56.6946Z" style="fill: var(--il-outline);"/>
</g>
<g id="Group_65">
<path id="vec62" d="M57.0147 224.334C57.0189 224.334 57.0189 224.33 57.023 224.33C56.2949 223.688 55.6043 222.998 54.9511 222.266C51.6519 218.935 47.5777 214.925 47.9334 209.865C48.052 206.649 49.9804 203.906 52.045 201.556C51.1744 202.03 50.2872 202.476 49.3886 202.888C44.2868 204.601 38.8803 205.909 33.4769 205.909C33.1212 205.909 32.7613 205.901 32.4056 205.893C30.7424 205.823 29.0751 205.893 27.4151 205.79C27.3995 205.79 27.3829 205.786 27.3662 205.783C27.0313 206.084 26.6964 206.366 26.4551 206.641C24.4154 208.554 22.5963 210.67 20.6752 212.698C15.2437 218.355 10.2865 224.411 5.35739 230.497C4.59706 231.176 3.35413 233.64 2.17672 234.348C4.55962 234.36 6.87284 233.566 9.21102 233.17C12.7141 232.643 16.2245 232.115 19.6829 231.335C26.1971 229.704 32.8518 228.756 39.4118 227.355C45.1948 225.879 51.1495 225.278 57.0147 224.334ZM66.5588 225.953C77.8711 225.454 58.3637 209.579 54.6151 213.597C52.4694 217.832 62.5523 226.484 66.5588 225.953ZM72.1785 110.748C72.7464 109.763 73.7595 108.63 73.4163 107.441C72.1619 105.193 67.6655 108.03 66.2717 109.08C65.9774 109.256 65.6841 109.26 65.4386 109.157C64.6169 109.844 63.8358 110.572 63.1004 111.332C60.861 113.237 58.6414 115.129 56.504 117.091C56.4874 117.365 56.3729 117.642 56.1888 117.859C55.6126 118.873 54.7545 119.89 54.8731 121.096C56.1805 124.207 64.3714 118.051 66.2842 116.944C68.7118 115.403 70.5144 113.036 72.1785 110.748ZM82.4778 215.142C88.3388 213.94 84.6443 207.217 82.5755 204.152C80.7241 200.922 78.0385 198.253 74.8506 196.385C74.5074 196.317 74.1974 196.279 73.9155 196.279C72.4032 196.279 71.8228 197.302 72.2066 199.141C72.7381 201.965 73.462 204.813 74.7695 207.385C75.7544 209.355 77.2865 210.952 78.7916 212.53C79.0121 212.763 79.0932 213.082 79.0402 213.381C80.0418 214.186 81.1204 215.138 82.4778 215.142ZM93.1129 227.775C91.04 226.754 89.0658 225.552 87.2519 224.093C82.4122 220.276 77.4259 216.364 74.0372 211.136C72.0433 207.667 69.6687 204.339 68.2053 200.636C68.1481 200.617 68.0909 200.592 68.0337 200.559C64.3964 199.268 60.3503 198.696 56.6923 200.179C52.7804 202.82 48.571 207.92 50.2997 212.854C50.8718 214.239 51.6363 215.51 52.5266 216.692C51.6363 213.43 53.626 209.984 57.7667 211.064C63.4769 212.894 69.9059 216.948 71.9736 222.826C72.5457 225.973 70.0941 227.588 67.4044 227.91C71.2008 229.104 75.2063 229.681 79.1057 230.412C84.1087 231.127 89.4507 231.781 93.1129 227.775ZM94.6533 113.751C95.2951 108.618 91.4082 104.147 86.4427 103.349C81.7871 102.234 77.0463 102.88 72.7381 104.69C75.7378 105.316 76.1383 108.589 74.3929 110.951C71.9247 115.063 68.3894 118.297 64.2206 120.627C61.6942 122.159 58.9566 123.929 55.9236 123.929C55.7229 123.929 55.5273 123.925 55.3266 123.908C53.6343 123.692 52.8168 122.126 52.8782 120.577C50.8884 122.597 49.0037 124.726 47.2751 127.031C36.0512 139.083 26.3323 152.845 21.1172 168.56C19.037 174.663 18.1175 181.129 17.0826 187.48C16.6541 191.759 18.1581 196.084 19.1961 200.138C20.1561 202.549 21.8775 204.765 23.9047 206.395C24.6484 205.639 25.4004 204.891 26.1607 204.152C25.9444 202.945 27.7667 202.488 28.3387 203.473C28.4043 203.608 28.4417 203.739 28.4573 203.866C33.6527 204.074 38.847 203.858 43.8905 202.439C50.5452 201.147 56.0952 197.13 60.8808 192.536C64.9393 189.217 67.523 184.415 70.0078 179.931C72.1577 175.717 73.6409 171.209 73.8822 166.48C74.3929 163.644 74.7861 160.807 74.6748 157.958C74.4751 155.118 73.8781 151.595 71.1072 150.164C70.6496 149.886 70.4696 149.293 70.7276 148.816C70.6496 148.365 70.8825 147.884 71.308 147.704C72.2971 146.861 73.098 145.811 73.9114 144.81C76.7883 140.354 80.1645 136.342 83.262 132.066C85.4494 128.449 88.0808 125.037 90.5054 121.627C91.9886 119.057 94.0771 116.727 94.6533 113.751ZM103.91 205.48C106.871 204.896 105.35 201.405 104.662 199.52C102.832 193.921 97.9848 190.112 93.7869 186.307C92.83 185.604 91.9074 184.709 90.7342 184.406C88.8859 184.222 88.0725 185.302 88.5104 187.075C88.9764 189.058 90.2152 190.738 91.249 192.458C91.482 192.83 91.429 193.312 91.1471 193.631C92.3848 195.573 93.7214 197.444 95.1276 199.263H95.1318C95.5073 199.484 95.7933 199.95 96.0762 200.265C97.4044 201.605 98.8637 202.831 100.286 204.021C101.328 204.773 102.518 206.093 103.91 205.48ZM107.729 230.162C112.4 230.497 117.746 230.575 121.719 227.878C117.53 225.585 113.777 222.392 110.635 218.845C104.401 212.751 98.2095 206.493 92.8466 199.611C89.6587 194.788 85.7395 189.903 84.1294 184.296C83.4794 184.852 82.0409 184.733 80.8344 184.619C80.2259 184.557 79.6778 184.5 79.322 184.529C76.4201 184.684 73.1916 185.351 71.3849 187.807C68.067 192.867 68.6754 197.028 70.6204 201.238C70.4488 200.412 70.3022 199.582 70.1794 198.761C69.5543 195.25 72.9181 193.415 75.9094 194.701C79.7641 196.95 82.7929 200.306 84.922 204.205C86.3896 206.485 87.5785 209.064 87.6846 211.814C87.7012 214.557 85.0562 217.128 82.3311 217.133C82.2084 217.133 82.0815 217.124 81.9546 217.112C81.9338 217.112 81.914 217.108 81.8932 217.103C83.806 218.865 85.8373 220.505 87.8603 222.081C89.9406 223.778 92.1477 225.123 94.4776 226.243C94.8208 226.161 95.2015 226.247 95.4459 226.549C95.4958 226.614 95.5364 226.68 95.5686 226.749C96.7991 227.298 98.0618 227.792 99.3536 228.249C102.023 229.382 104.823 230.097 107.729 230.162ZM132.595 204.667C134.16 199.913 128.214 192.712 124.825 189.789C122.205 187.848 119.451 185.645 116.066 185.424C112.285 185.775 112.38 188.817 114.043 191.456C114.247 191.865 114.096 192.368 113.753 192.642C115.751 196.402 118.494 199.831 121.498 202.917C121.866 202.945 122.188 203.183 122.348 203.53C123.071 204.237 123.868 204.993 124.755 205.472C127.248 206.604 131.16 207.916 132.595 204.667ZM149.985 225.752C149.818 225.675 149.65 225.589 149.487 225.499C149.017 225.258 148.551 225.013 148.085 224.763C140.278 220.937 133.081 215.866 126.48 210.204C120.595 205.435 115.282 199.651 111.688 192.973C108.608 187.529 107.218 178.791 110.07 172.991C110.063 172.983 110.054 172.979 110.046 172.97C109.257 172.402 108.481 172.108 107.737 171.495C104.026 169.005 99.2309 166.811 94.7189 168.07C92.9527 168.327 91.1305 168.712 89.8875 170.109C85.0323 174.406 84.636 180.037 86.5155 185.309C86.581 184.983 86.6871 184.664 86.8431 184.353C90.0758 179.388 95.3564 185.003 98.1076 187.55C100.976 190.051 103.674 192.867 105.46 196.264C107.573 200.694 109.976 207.573 102.713 207.573C102.615 207.573 102.513 207.569 102.406 207.569C102.349 207.552 102.292 207.535 102.235 207.516C106.122 211.668 110.218 215.641 114.174 219.683C120.644 226.459 130.073 230.763 139.515 229.386C143.131 228.899 147.562 228.711 149.985 225.752ZM174.165 96.0455C172.824 95.0491 171.451 93.9653 169.907 93.3402C165.337 104.732 160.125 102.573 151.362 107.837C149.797 108.924 148.551 110.118 147.268 111.43C147.206 111.491 147.149 111.553 147.088 111.618C148.686 112.325 150.259 113.105 151.572 114.27C151.94 114.597 152.303 114.937 152.626 115.308C152.63 115.293 152.642 115.28 152.65 115.268C154.968 111.218 158.839 110.404 162.974 109.26C168.704 107.134 171.595 101.171 174.165 96.0455ZM191.168 96.6998C191.172 96.6914 191.176 96.6873 191.184 96.679C191.18 96.679 191.18 96.6748 191.176 96.6748C191.172 96.6831 191.168 96.6914 191.168 96.6998ZM193.58 205.402C193.902 203.625 193.931 201.797 193.718 200.003C192.533 200.326 190.873 200.931 189.725 200.931C189.623 200.931 189.521 200.927 189.427 200.914C181.927 202.684 174.402 204.389 166.768 205.332C169.636 206.44 172.592 207.344 175.522 208.234C176.319 208.623 176.189 209.886 175.322 210.09C175.236 210.115 175.146 210.127 175.06 210.127C174.713 210.127 174.366 209.971 174.046 209.869C171.615 209.117 169.179 208.353 166.796 207.463C167.785 208.565 168.713 209.719 169.469 211.002C169.911 211.766 169.227 212.477 168.549 212.477C168.242 212.477 167.941 212.335 167.74 211.983C166.219 209.452 164.005 207.438 162.014 205.279C161.974 205.247 161.932 205.214 161.896 205.173C161.879 205.165 161.867 205.148 161.855 205.137C161.499 204.822 161.159 204.343 161.042 203.886C157.015 200.281 153.329 196.329 149.507 192.528C143.287 186.813 137.789 180.282 131.156 175.043C129.382 173.645 127.816 171.932 125.81 170.862C123.815 170.007 121.673 169.937 119.642 169.243C116.401 168.965 114.047 170.469 112.531 172.746C112.637 173.053 112.605 173.371 112.383 173.703C112.183 173.919 111.987 174.021 111.791 174.046C110.606 176.502 110.209 179.522 110.561 182.171C110.679 183.625 110.928 185.044 111.288 186.425C112.249 184.377 114.762 183.049 117.072 183.54C125.414 185.461 132.279 193.197 134.7 201.229C135.795 205.337 132.893 208.778 129.137 208.778C128.655 208.778 128.161 208.721 127.657 208.603C133.735 213.756 140.189 218.448 147.251 222.136C147.852 222.282 148.539 222.723 149.16 223.104C149.324 223.182 149.487 223.263 149.65 223.341C150.28 223.598 150.905 223.86 151.531 224.125C151.824 224.117 152.11 224.236 152.311 224.457C153.378 224.911 154.44 225.364 155.516 225.797C157.346 226.345 159.28 226.496 161.201 226.419C166.539 226.3 172.012 225.629 176.749 223.043C183.946 219.156 191.409 213.634 193.58 205.402ZM210.055 118.721C211.212 113.315 208.024 107.691 203.544 104.923C201.222 103.533 198.34 103.791 195.901 104.633C195.512 104.739 195.034 105.009 194.556 105.213C195.954 109.439 198.598 112.999 201.782 116.045C204.042 118.051 206.205 120.279 208.767 121.84C209.356 120.86 209.801 119.829 210.055 118.721ZM213.962 127.787C215.773 125.698 211.309 125.67 210.128 126.001C209.319 126.124 208.902 125.391 209.033 124.783C208.984 124.615 208.992 124.444 209.041 124.276C201.974 119.911 195.264 113.616 192.61 105.581C192.169 105.859 191.736 106.149 191.311 106.452C190.975 106.824 190.465 107.073 190.015 107.02C188.99 107.196 188.213 105.687 189.365 105.09C189.553 104.658 189.655 104.155 189.655 103.648C189.655 103.288 189.602 102.929 189.496 102.597C189.263 102.421 189.161 102.173 189.145 101.894C188.965 101.637 188.732 101.417 188.446 101.253C186.312 100.864 185.046 103.276 184.546 105.001C183.149 110.237 182.544 115.857 184.195 121.1C186.566 127.742 191.707 131.837 198.905 131.134C199.134 131.159 199.407 131.146 199.693 131.138C199.837 131.134 199.988 131.13 200.139 131.13C200.515 131.13 200.883 131.163 201.174 131.294C205.669 131.269 210.312 130.464 213.962 127.787ZM225.618 189.352C225.431 189.295 225.243 189.225 225.055 189.151C213.758 185.424 203.352 179.547 193.58 172.885C182.339 165.548 171.828 157.039 161.998 147.916C155.7 142.252 149.553 136.439 143.908 130.117C138.742 124.995 134.287 119.265 130.408 113.118C127.636 109.195 125.27 105.009 123.145 100.705C121.122 97.1657 119.703 93.3277 119.324 89.2567C119.258 89.0362 119.214 88.8199 119.189 88.6035C118.515 89.3753 117.865 90.1689 117.186 90.9406C110.303 98.5886 104.454 106.946 98.4747 115.28C96.5619 117.941 94.5639 120.54 92.4545 123.05C92.2663 123.381 91.9106 123.573 91.5517 123.573H91.5434C91.4737 123.679 91.4082 123.79 91.3426 123.896C87.3985 128.947 84.3083 134.596 80.1073 139.464C77.8222 142.317 76.2121 145.533 73.7023 148.185C73.5192 148.415 73.2696 148.697 72.9877 148.954C76.3588 151.627 76.833 156.454 76.6375 160.476C76.1466 164.906 75.7784 169.423 74.6717 173.739C72.9961 179.081 70.1628 183.94 67.1423 188.616C64.543 191.979 61.4737 195.046 58.061 197.649C59.434 197.306 60.8766 197.192 62.3078 197.298C64.0532 197.314 65.7246 197.853 67.4169 198.242C67.3472 197.98 67.2817 197.715 67.2245 197.444C66.2145 187.774 71.8998 181.447 81.7954 182.718C82.3467 182.706 83.1559 182.538 83.7404 182.682C83.5241 181.619 83.4014 180.524 83.3889 179.399C83.5075 175.022 85.7593 171.144 88.9722 168.266C90.5168 166.774 92.6345 166.391 94.67 166.059C96.5463 165.516 98.5319 165.577 100.417 166.027C103.2 166.921 106.041 167.772 108.407 169.558C108.889 170.036 110.112 170.612 111.108 171.274C112.682 169.132 115.049 167.616 118.396 167.191C119.671 167.094 120.877 167.543 122.086 167.865C123.926 168.27 125.716 168.442 127.335 169.447C136.592 176.13 144.063 184.754 152.34 192.556C155.994 196.332 159.684 200.073 163.649 203.53C163.735 203.587 163.825 203.653 163.906 203.727C164.471 203.697 165.022 203.636 165.558 203.559C177.181 201.985 188.507 198.982 199.951 196.468C199.996 196.455 200.037 196.439 200.078 196.423C200.388 196.08 200.818 196.046 201.178 196.202C201.799 196.063 202.42 195.932 203.041 195.802C210.668 193.93 218.082 191.469 225.618 189.352ZM232.93 151.958C233.433 149.731 232.886 147.376 233.891 145.243C228.619 143.887 223.256 143.277 217.865 144.144C214.244 144.377 210.611 144.887 207.124 145.844C207.476 146.796 206.078 147.736 205.359 146.776C205.281 146.67 205.203 146.563 205.118 146.457C202.678 147.27 200.323 148.329 198.12 149.702C196.518 150.733 194.989 151.832 193.637 153.148C195.41 154.84 197.041 156.732 198.729 158.522C199.685 157.19 202.023 155.783 202.82 155.338C211.714 149.812 223.002 149.335 232.906 152.199C232.918 152.114 232.926 152.036 232.93 151.958ZM285.246 84.026C285.291 84.2132 285.275 84.4014 285.218 84.5731C285.479 85.1743 285.165 86.0979 284.911 86.6824C283.374 90.925 280.632 94.3616 277.387 97.354C277.762 97.4029 278.135 97.5703 278.491 97.6764C279.173 97.9469 280.003 98.1299 280.476 98.7311C280.975 99.5122 280.264 100.235 279.626 100.631C278.364 101.604 277.035 102.504 275.682 103.349C270.145 107.11 263.928 109.615 257.417 111.107C254.458 111.79 251.425 112.533 248.38 112.819C242.867 113.98 237.12 114.487 230.871 114.941C228.88 115.374 227.016 116.171 225.283 117.206C226.305 116.793 227.368 116.465 228.496 116.265C231.144 115.607 234.104 115.247 236.666 116.351C236.981 116.338 237.296 116.473 237.495 116.715C237.741 116.837 237.937 117.062 238.019 117.323C238.17 118.083 237.786 118.492 237.262 118.583C237.054 118.893 236.802 119.18 236.56 119.42C235.146 120.434 232.964 119.392 231.32 119.792C226.764 120.14 222.659 121.684 218.675 123.716C217.759 124.059 216.692 124.787 215.667 125.147C216.459 125.944 216.696 127.125 215.846 128.727C211.746 132.426 205.927 133.247 200.581 133.313C200.49 133.325 200.401 133.329 200.307 133.329C199.992 133.329 199.657 133.275 199.371 133.15C198.05 133.268 196.783 133.256 195.574 133.12C198.954 136.857 202.845 140.195 205.927 144.164C210.704 142.79 215.764 142.207 220.681 141.883C225.77 141.458 231.096 142.207 235.877 143.906C236.323 144.287 236.29 144.929 235.987 145.387C235.718 145.978 235.546 146.486 235.4 147.045C234.925 148.403 235.608 154.734 233.572 154.734C233.479 154.734 233.376 154.717 233.265 154.688C232.979 154.578 232.803 154.423 232.71 154.231C232.273 154.092 231.831 153.985 231.463 153.892C225.582 152.314 219.219 151.958 213.25 153.266C218.016 158.363 222.627 164.016 226.584 169.869C229.166 173.703 232.142 177.429 233.593 181.881C234.938 185.478 233.769 188.064 231.463 189.196C231.443 189.258 231.418 189.319 231.386 189.38C230.932 190.178 229.869 190.292 229.068 190.562C225.855 191.42 222.639 192.262 219.439 193.157C213.14 195.078 206.879 197.101 200.429 198.429L200.426 198.421C198.893 198.855 197.221 199.223 195.684 199.582C197.446 210.99 187.228 219.707 178.068 224.595C172.571 227.677 166.208 228.397 160 228.397H159.415C158.973 228.389 158.136 228.315 157.175 228.168L157.195 228.389L157.216 228.548C156.594 228.336 155.973 228.118 155.357 227.889C154.162 227.538 152.986 227.118 151.841 226.623C149.389 230.78 140.458 231.556 135.636 231.556C135.223 231.556 134.842 231.548 134.495 231.539C130.707 231.421 127.089 230.456 123.721 228.895C123.541 229.084 123.342 229.251 123.158 229.382C119.794 231.662 115.592 232.312 111.517 232.312C110.487 232.312 109.47 232.271 108.472 232.206C105.141 232.096 101.887 231.499 98.8221 230.154C97.5345 229.692 96.2561 229.202 95.0007 228.654H94.9966C94.6981 228.982 94.3673 229.279 94.1104 229.529C91.8825 231.732 88.8661 232.966 85.7562 232.966C85.4535 232.966 85.1508 232.958 84.8482 232.933C80.357 232.778 75.95 231.899 71.569 230.988C67.2817 230.31 63.1576 228.764 59.6098 226.345C59.487 226.271 59.3768 226.198 59.2832 226.116C59.2749 226.112 59.2665 226.104 59.2582 226.095C58.9847 225.908 58.7111 225.707 58.4449 225.508C58.1432 226.786 55.3963 226.537 54.3208 226.803C50.7896 227.179 47.2875 227.768 43.8011 228.433C37.2047 230.015 30.4928 230.956 23.8798 232.435C19.3553 233.506 14.7902 234.43 10.1794 235.038C7.69037 235.349 5.20137 236.326 2.68429 236.326C2.27553 236.326 1.86676 236.301 1.45384 236.244C0.129772 235.868 -0.532781 234.135 0.521896 233.13C0.668552 232.95 0.840171 232.848 1.02011 232.807C2.36498 231.164 3.61624 229.439 4.97255 227.8C10.5517 220.929 16.3108 214.19 22.486 207.842C19.1795 205.182 17.0056 201.299 16.3348 197.113C15.5786 194.134 14.7819 191.151 15.0637 188.052C16.0779 180.168 17.4872 172.19 20.385 164.751C25.8705 149.956 35.295 137.032 45.9624 125.543C49.4988 120.998 53.4221 116.833 57.9342 113.245C62.2829 109.578 66.2072 105.193 71.5565 102.97C78.4109 100.223 87.2633 99.5039 93.2273 104.56C95.8141 107.007 97.2287 111.042 96.4808 114.561C100.008 109.754 103.384 104.85 107.132 100.211C110.43 95.2738 114.607 90.9531 118.441 86.4817C118.763 86.1343 119.315 86.1145 119.695 86.3673C120.125 85.6444 120.795 85.0515 121.608 84.6875C121.906 84.5523 122.181 84.5564 122.406 84.6469C123.832 84.3162 125.499 84.6022 126.926 84.7447C130.911 85.039 134.728 86.8707 138.329 88.3258C141.476 89.5188 144.689 90.6141 147.517 92.4904C152.152 95.1916 156.685 98.1913 160.996 101.364C161.54 101.097 162.067 100.799 162.574 100.46C165.668 98.2651 167.127 94.6071 168.664 91.3453C170.164 90.3114 175.338 94.1983 176.356 95.4246C176.564 95.8781 176.401 96.4054 176.062 96.7486C174.129 100.583 172.142 104.421 169.11 107.543C168.93 107.74 168.746 107.931 168.553 108.107C168.807 108.181 169.049 108.324 169.227 108.532C173.29 112.3 177.872 115.525 181.743 119.49C180.635 114.295 181.375 108.74 182.904 103.701C183.619 100.975 186.194 99.0338 188.388 99.2501C189.59 93.4057 192.979 88.2062 197.086 83.9646C200.662 80.6123 205.992 79.7625 209.045 75.8143C210.128 74.4611 210.922 72.9123 211.509 71.2898C212.208 69.8346 213.868 71.0162 214.71 71.7152C217.069 73.4771 215.421 76.5496 214.068 78.4218C213.737 78.9492 213.386 79.4599 213.01 79.955C214.044 79.7948 215.065 79.5628 216.079 79.2841C216.516 79.1458 216.958 79.0188 217.395 78.8836C224.004 76.2636 229.583 71.3875 234.026 65.9072C235.481 63.3776 236.385 64.9835 238.088 66.1682C241.78 61.6364 246.021 57.0911 247.8 51.4142C247.652 50.9077 247.893 50.4989 248.262 50.294C248.384 49.8405 248.76 49.4525 249.336 49.4848C249.823 49.4525 250.334 49.9955 250.615 50.241C254.352 53.7274 257.858 57.4552 261.659 60.8876C264.86 63.9008 268.178 66.7902 271.424 69.7493C274.595 72.6627 277.162 76.1617 280.448 78.9575C281.867 80.3304 283.24 81.7658 284.6 83.2001C284.943 83.3312 285.206 83.6453 285.246 84.026Z" style="fill: var(--il-outline);"/>
</g>
<g id="Group_66">
<path id="vec63" d="M150.204 191.078C150.015 189.438 153.231 189.732 154.332 189.269C164.588 186.43 174.904 183.38 185.272 181.022C185.882 180.008 187.527 180.812 187.074 181.927C186.88 182.589 186.193 182.89 185.57 183.022C182.373 183.724 179.211 184.53 176.035 185.331C169.603 187.013 163.203 188.84 156.809 190.66C155.016 191.208 153.174 191.53 151.337 191.899C150.817 191.998 150.284 191.599 150.204 191.078Z" style="fill: var(--il-outline);"/>
</g>
<g id="Group_67">
<path id="vec64" d="M24.5112 224.044C24.4363 222.402 26.7433 222.916 27.7969 222.467C33.2981 221.396 38.5829 219.589 44.1173 218.686C46.6563 218.133 49.1941 217.636 51.6852 216.916C52.042 216.626 52.5433 216.58 52.9334 216.871C54.0577 217.888 52.6671 218.924 51.5927 219.042C45.119 220.657 38.5153 221.661 32.1175 223.583C30.0654 224.058 27.9987 224.485 25.9257 224.841C25.3173 225.008 24.61 224.718 24.5112 224.044Z" style="fill: var(--il-outline);"/>
</g>
<g id="Group_68">
<path id="vec65" d="M304.746 98.7183C304.374 98.2711 304.406 97.5981 304.892 97.2403C307.462 92.1552 308.809 85.7439 306.811 80.3031C306.658 80.2095 306.531 80.0753 306.455 79.9047C306.359 79.6925 306.263 79.4783 306.163 79.2661C302.638 77.8952 301.043 83.2248 299.495 85.3362C299.143 85.59 298.689 85.5328 298.326 85.3445C297.416 84.8317 296.52 84.2763 295.542 83.8956C294.488 83.2778 292.524 83.6096 291.995 82.427C292.192 78.6035 295.227 74.596 299.151 73.999C310.829 73.1814 311.145 87.0274 308.045 95.0852C307.432 96.2356 306.568 100.265 304.746 98.7183ZM294.283 81.4379C295.782 81.7561 297.192 82.375 298.506 83.1572C299.721 80.7191 301.332 77.967 304.089 77.1193C299.921 74.2548 295.324 76.8478 294.12 81.3994C294.175 81.4118 294.229 81.4254 294.283 81.4379Z" style="fill: var(--il-outline);"/>
</g>
<g id="Group_69">
<path id="vec66" d="M260.542 121.384C260.53 121.284 260.529 121.19 260.537 121.104C260.93 120.945 261.313 120.756 261.695 120.566C262.132 120.35 262.582 120.134 262.966 119.827C262.989 119.807 263.013 119.787 263.035 119.766C263.235 119.72 263.413 119.669 263.554 119.602C270.18 117.354 276.833 114.779 282.417 110.504C288.38 105.641 294.044 100.159 298.373 93.7999C300.02 90.4518 302.264 85.6787 299.841 82.2578C299.019 81.9998 298.986 80.786 299.742 80.4303C300.424 80.0465 301.177 80.6883 301.557 81.199C302.934 83.1939 303.306 86.0542 302.472 88.2863C301.741 93.6034 298.107 97.7274 294.707 101.635C288.458 108.44 281.44 114.885 272.718 118.261C269.371 119.549 265.965 121.106 262.484 121.936C262.199 122.058 261.861 122.147 261.546 122.147C261.082 122.147 260.666 121.954 260.542 121.384Z" style="fill: var(--il-outline);"/>
</g>
<g id="Group_70">
<path id="vec67" d="M295.682 83.7735C295.441 83.6144 295.261 83.4386 295.089 83.2056C295.002 83.0881 294.937 82.9539 294.885 82.8156C293.497 83.4532 293.272 81.6007 293.021 80.6678C292.651 79.404 293.869 78.1465 295.136 78.5906C295.389 77.4507 296.153 76.3991 297.291 76.0413C297.818 75.5649 298.594 75.2384 299.284 75.5452C299.83 75.1479 300.6 75.0428 301.179 75.4225C301.773 75.2061 302.476 75.4266 302.763 76.0153C306.381 75.5119 305.044 79.1253 302.259 79.0306C301.205 81.2211 298.448 84.926 295.682 83.7735Z" style="fill: var(--il-outline);"/>
</g>
</g>
</g>
<g id="Dark-Outlines">
<g id="Group_71">
<g id="Group_72">
<path id="vec68" d="M292.848 82.8367C291.201 82.2563 292.37 80.123 292.783 79.007C293.939 77.0048 295.542 74.859 297.83 74.1351C300.574 73.5329 303.848 73.9833 305.884 76.0354C305.807 76.0468 305.731 76.0624 305.653 76.0812C305.412 76.1384 305.171 76.2164 304.938 76.31C304.53 76.4722 304.123 76.6615 303.731 76.8748C303.199 76.544 302.614 76.2819 302.041 76.1217C300.577 75.8118 298.934 75.713 297.622 76.3922C296.248 77.3439 295.202 78.6149 294.492 80.0378C294.307 80.536 294.049 81.03 294.005 81.5615C294.239 82.196 293.68 82.8586 293.044 82.8586C292.979 82.8586 292.914 82.8513 292.848 82.8367Z" style="fill: var(--il-ne-outline);"/>
</g>
<g id="Group_73">
<path id="vec69" d="M324.289 114.912C323.99 114.143 323.301 113.173 323.611 112.349C324.089 111.346 325.554 111.807 325.572 112.851C325.813 112.633 326.017 112.377 326.259 112.161C327.151 111.339 328.493 112.675 327.678 113.571C326.872 114.371 325.404 116.211 324.289 114.912Z" style="fill: var(--il-ne-outline);"/>
</g>
<g id="Group_74">
<path id="vec70" d="M107.159 63.8963C105.789 63.7247 104.551 63.4563 103.233 63.2774C102.421 63.2722 101.97 62.2332 102.494 61.6247C101.926 58.8081 101.642 53.5617 106.007 56.1318C107.446 56.7746 109.455 57.6494 110.335 58.9755C110.497 59.8991 109.983 60.8196 109.828 61.7266C109.737 63.552 108.865 64.3893 107.032 63.8755L107.159 63.8963Z" style="fill: var(--il-ne-outline);"/>
</g>
<g id="Group_75">
<path id="vec71" d="M248.173 181.983C248.167 181.972 248.162 181.962 248.157 181.951C248.165 181.968 248.178 181.989 248.185 182.004C248.182 181.997 248.177 181.99 248.173 181.983Z" style="fill: var(--il-ne-outline);"/>
</g>
<g id="Group_76">
<path id="vec72" d="M248.419 182.504C248.42 182.506 248.421 182.509 248.422 182.511C248.421 182.509 248.419 182.506 248.419 182.504Z" style="fill: var(--il-ne-outline);"/>
</g>
<g id="Group_77">
<path id="vec73" d="M248.999 185.691V185.618C248.999 185.651 249.002 185.682 249.003 185.712C249.002 185.706 249.002 185.699 248.999 185.691Z" style="fill: var(--il-ne-outline);"/>
</g>
<g id="Group_78">
<path id="vec74" d="M244.237 191.495C243.751 190.616 242.733 190.146 242.276 189.264C241.932 187.915 243.939 186.738 244.462 185.663C245.423 184.261 246.436 182.81 246.885 181.15C246.849 180.844 246.969 180.58 247.166 180.393C247.219 180.458 247.27 180.523 247.319 180.591C247.622 181.028 247.9 181.482 248.153 181.948C248.145 181.927 248.133 181.911 248.124 181.891C248.137 181.911 248.145 181.931 248.157 181.951C248.162 181.963 248.167 181.973 248.173 181.982C248.261 182.152 248.337 182.317 248.41 182.487C248.398 182.459 248.386 182.425 248.378 182.397C248.389 182.434 248.406 182.467 248.419 182.503C248.419 182.507 248.42 182.509 248.422 182.512C248.422 182.512 248.422 182.513 248.422 182.514C248.784 183.504 248.954 184.559 248.999 185.61V185.691C249.001 185.709 249.002 185.726 249.002 185.742C249.002 185.74 249.001 185.738 249 185.735C249 185.725 249 185.714 248.999 185.704V185.667V185.716V185.704V185.732C249 185.734 249 185.734 249 185.735C249.003 185.799 249.003 185.861 249.003 185.92V185.965C249.003 185.99 249.003 186.015 248.999 186.039V186.072V186.055V186.117C248.999 186.092 248.999 186.064 249.003 186.039C248.988 186.519 248.961 186.993 248.919 187.47C248.176 189.041 247.227 190.417 246.485 191.038C246.152 191.496 245.579 191.944 245.037 191.944C244.748 191.944 244.467 191.817 244.237 191.495Z" style="fill: var(--il-ne-outline);"/>
</g>
<g id="Group_79">
<path id="vec75" d="M304.093 76.6164C304.26 76.5082 304.431 76.4583 304.593 76.4541C304.164 76.6414 303.741 76.8567 303.338 77.1C303.588 76.9336 303.84 76.7724 304.093 76.6164Z" style="fill: var(--il-ne-outline);"/>
</g>
<g id="Group_80">
<path id="vec76" d="M293.511 82.988C292.98 83.0494 292.51 82.6614 292.395 82.1299C292.272 80.654 293.818 80.8298 294.738 81.3166C295.869 81.8606 297.112 82.1341 298.207 82.7467C299.049 80.7435 300.54 79.1677 302.244 77.8759C301.785 78.2534 301.354 78.6726 300.938 79.0886C300.578 79.4527 300.288 79.8615 299.993 80.2744C299.711 80.6665 299.421 81.0472 299.197 81.4757C299.012 81.8273 298.837 82.183 298.669 82.5429C298.498 82.9027 298.33 83.2657 298.134 83.609C298.057 83.7484 297.979 83.8836 297.905 84.0219C297.803 84.1654 297.741 84.3329 297.725 84.5128C297.72 84.568 297.72 84.6231 297.724 84.6772C296.356 84.0313 294.896 83.5435 293.511 82.988Z" style="fill: var(--il-ne-outline);"/>
</g>
<g id="Group_81">
<path id="vec77" d="M297.068 83.1168C296.913 83.121 296.757 83.1085 296.623 83.0679C296.185 82.9337 295.871 82.5614 295.871 82.1079C295.049 81.9363 293.844 81.4329 293.88 80.4364C294.223 79.492 294.852 78.5965 295.666 77.9838C295.629 77.7675 295.666 77.5345 295.772 77.3379C295.829 77.236 295.903 77.1413 295.993 77.0644C295.449 76.018 296.68 75.2411 297.587 75.7934C297.846 73.5966 303.186 75.2889 304.681 76.4153C303.887 76.7534 303.113 77.1871 302.438 77.7176C301.908 78.1347 301.412 78.6131 300.938 79.0874C300.578 79.4514 300.288 79.8602 299.994 80.2721C299.712 80.6653 299.422 81.0449 299.197 81.4745C299.014 81.826 298.837 82.1807 298.67 82.5406C298.575 82.7392 298.481 82.9389 298.384 83.1366C298.233 83.1501 298.079 83.1563 297.927 83.1563C297.622 83.1563 297.324 83.1345 297.068 83.1168Z" style="fill: var(--il-ne-outline);"/>
</g>
<g id="Group_82">
<path id="vec78" d="M326.331 114.191C325.536 114.056 324.441 114.022 324.087 113.141C323.766 111.929 325.286 111.609 326.15 112.009C327.906 111.513 328.364 114.466 326.331 114.191Z" style="fill: var(--il-ne-outline);"/>
</g>
<g id="Group_83">
<path id="vec79" d="M158.039 101.849C151.87 97.1873 145.501 92.5962 138.119 90.179C135.065 88.961 132.103 88.2225 128.955 87.5756C126.851 87.2906 124.701 86.5302 122.587 87.0212C120.728 87.82 120.405 85.124 122.424 84.9919C131.115 84.787 139.67 88.3588 147.368 92.1084C151.657 94.4039 155.364 97.5742 159.319 100.344C160.287 101.158 159.013 102.688 158.039 101.849Z" style="fill: var(--il-ne-outline);"/>
</g>
<g id="Group_84">
<path id="vec80" d="M179.174 120.738C175.539 117.055 171.605 113.68 167.697 110.325C167.19 109.613 167.878 108.596 168.731 108.772C169.483 108.973 169.992 109.683 170.591 110.145C173.958 113.207 177.506 116.128 180.661 119.406C181.533 120.359 180.03 121.714 179.174 120.738Z" style="fill: var(--il-ne-outline);"/>
</g>
<g id="Group_85">
<path id="vec81" d="M203.181 145.199C200.264 141.545 197.2 137.781 193.687 134.729C192.766 133.918 193.981 132.406 194.966 133.158C198.595 136.365 201.727 140.15 204.71 143.932C205.526 144.922 203.99 146.2 203.181 145.199Z" style="fill: var(--il-ne-outline);"/>
</g>
<g id="Group_86">
<path id="vec82" d="M227.984 188.556C226.78 188.487 226.822 186.575 228.029 186.569C233.997 187.264 229.596 178.338 228.248 175.783C224.249 169.128 218.93 163.48 214.071 157.465C213.559 156.805 213.059 156.126 212.519 155.495C212.02 155.204 211.879 154.512 212.208 154.048C212.819 153.212 213.821 153.745 214.284 154.457C220.329 162.484 228.004 169.5 231.911 178.897C233.578 182.816 233.956 189.225 227.984 188.556Z" style="fill: var(--il-ne-outline);"/>
</g>
<g id="Group_87">
<path id="vec83" d="M244.643 71.4239C244.639 71.4271 244.637 71.4291 244.634 71.4323C244.631 71.4343 244.628 71.4364 244.626 71.4385C244.631 71.4333 244.637 71.4291 244.643 71.4239Z" style="fill: var(--il-ne-outline);"/>
</g>
<g id="Group_88">
<path id="vec84" d="M244.632 71.4316L244.623 71.4403L244.632 71.4316Z" style="fill: var(--il-ne-outline);"/>
</g>
<g id="Group_89">
<path id="vec87" d="M244.62 71.4442C244.616 71.4473 244.615 71.4505 244.611 71.4536C244.614 71.4494 244.616 71.4463 244.62 71.4442Z" style="fill: var(--il-ne-outline);"/>
</g>
<g id="Group_90">
<path id="vec89" d="M244.611 71.4519C244.611 71.455 244.611 71.4561 244.609 71.4561C244.609 71.4561 244.611 71.454 244.611 71.4519Z" style="fill: var(--il-ne-outline);"/>
</g>
<g id="Group_91">
<path id="vec90" d="M275.657 85.7528C275.657 85.7569 275.657 85.7652 275.653 85.7694C275.657 85.7611 275.657 85.7569 275.657 85.7528Z" style="fill: var(--il-ne-outline);"/>
</g>
<g id="Group_92">
<path id="vec91" d="M274.157 87.4694H274.158L274.156 87.4714L274.157 87.4694Z" style="fill: var(--il-ne-outline);"/>
</g>
<g id="Group_93">
<path id="vec92" d="M274.155 87.4726C274.154 87.4747 274.153 87.4757 274.152 87.4778C274.152 87.4747 274.154 87.4747 274.155 87.4726Z" style="fill: var(--il-ne-outline);"/>
</g>
<g id="Group_94">
<path id="vec94" d="M268.455 94.3408C268.452 94.3429 268.449 94.3439 268.447 94.3449C268.449 94.3429 268.452 94.3418 268.455 94.3408Z" style="fill: var(--il-ne-outline);"/>
</g>
<g id="Group_95">
<path id="vec96" d="M252.17 103.823H252.166C252.206 103.802 252.244 103.778 252.284 103.753C252.28 103.758 252.276 103.758 252.272 103.762C252.293 103.753 252.312 103.744 252.332 103.736C252.261 103.769 252.193 103.811 252.129 103.859C252.145 103.847 252.157 103.836 252.17 103.823Z" style="fill: var(--il-ne-outline);"/>
</g>
<g id="Group_96">
<path id="vec97" d="M214.736 124.275C213.979 123.785 213.138 123.454 212.242 123.347C212.03 123.323 211.81 123.302 211.588 123.294C211.515 123.257 211.441 123.221 211.368 123.184C211.221 123.114 211.065 123.086 210.91 123.094C210.889 123.078 210.869 123.061 210.849 123.045C210.959 122.82 211.065 122.595 211.16 122.362C211.327 121.946 211.474 121.52 211.596 121.087C211.719 120.654 211.785 120.212 211.825 119.767C211.862 119.62 211.895 119.477 211.923 119.33C212.217 117.92 212.492 116.501 212.508 115.054C212.516 114.408 212.418 113.8 212.255 113.179C212.046 112.365 211.813 111.544 211.495 110.767C211.511 110.808 211.527 110.849 211.543 110.889C211.298 110.277 211.016 109.676 210.677 109.104C210.616 108.997 210.554 108.896 210.489 108.793C210.359 108.536 210.158 108.294 209.995 108.078C209.778 107.792 209.553 107.509 209.328 107.236C208.981 106.814 208.593 106.435 208.22 106.038C207.832 105.621 207.436 105.212 207.015 104.825C206.618 104.46 206.185 104.141 205.731 103.851C204.955 103.344 204.146 102.85 203.251 102.576C202.687 102.404 202.086 102.331 201.497 102.294C200.855 102.249 200.205 102.237 199.56 102.258C198.861 102.281 198.166 102.359 197.472 102.474C197.296 102.474 197.116 102.482 196.936 102.495C196.527 102.523 196.127 102.584 195.718 102.625C195.485 102.65 195.26 102.707 195.032 102.768C194.814 102.825 194.594 102.87 194.377 102.936C193.96 103.054 193.532 103.194 193.131 103.361C192.714 103.541 192.305 103.745 191.872 103.884C191.916 103.872 191.958 103.855 192.003 103.844C191.863 103.888 191.745 103.937 191.635 104.007C191.676 103.594 191.676 103.173 191.619 102.76C191.471 101.685 191.001 100.647 190.164 99.9401C189.738 99.5844 189.268 99.3109 188.713 99.237C188.643 99.2287 188.569 99.2204 188.5 99.2162C188.431 97.5167 189.48 95.8442 190.102 94.3038C192.276 89.9228 195.473 86.1701 199.319 83.162C199.912 82.823 201.141 81.8016 202.294 81.1921C202.609 80.7791 203.255 80.5139 203.643 80.3173C204.677 79.7245 205.711 79.2387 206.623 78.5356C209.14 76.6676 210.681 73.8437 211.287 70.8232C212.115 69.5355 214.09 70.8024 214.956 71.493C217.637 74.0392 214.56 77.3416 213.145 79.843C214.212 79.6101 215.308 79.2429 216.219 78.9194C221.234 76.6801 226.274 74.1786 230.368 70.4914C232.306 68.7388 233.598 66.6866 235.237 64.8311C235.65 64.6428 236.128 64.7655 236.402 65.089H236.405C236.925 65.375 237.443 65.8733 237.812 66.1843C241.711 61.8844 246.174 57.646 248.034 52.0709C247.78 51.5925 247.964 51.0371 248.389 50.751C248.398 50.7261 248.413 50.7063 248.43 50.6855C250.269 48.6542 253.956 54.5807 255.337 55.6593C257.765 58.2097 260.345 60.6134 262.846 63.0941C269.283 69.3316 276.002 75.2499 282.517 81.3928C283.319 82.332 286.085 83.9588 285.035 85.2672C284.749 87.9975 280.335 93.3926 279.379 94.8883C278.557 95.865 277.568 96.6742 276.595 97.5C277.576 97.8516 278.573 97.9577 279.521 98.4195C279.913 98.5994 280.093 98.9146 280.106 99.237C280.15 99.315 280.184 99.3962 280.212 99.4867C280.396 100.263 279.726 100.79 279.182 101.211C273.876 105.045 268.073 108.229 261.872 110.379C252.906 112.709 243.505 114.045 234.284 114.658C231.656 114.993 228.919 114.973 226.478 116.117C225.881 116.321 225.223 116.954 224.594 117.016C224.655 117.151 224.712 117.286 224.774 117.417C228.423 116.628 233.969 114.327 237.043 117.343C237.665 117.977 237.419 118.953 236.663 119.341C235.151 120.216 233.361 120.188 231.583 120.163C230.602 120.151 229.625 120.135 228.701 120.273C227.009 120.384 225.235 120.936 223.662 121.3C220.752 122.137 218.124 123.372 215.483 124.732C215.458 124.757 215.43 124.778 215.401 124.798C215.197 124.602 214.977 124.427 214.736 124.275ZM229.993 118.14C229.785 118.181 229.576 118.222 229.368 118.267C230.205 118.23 231.043 118.197 231.885 118.161C232.785 118.128 233.683 118.108 234.579 118.046C234.206 117.943 233.692 117.903 233.382 117.895H233.111C231.991 117.895 231.06 117.968 229.993 118.14ZM229.351 106.324C228.419 106.753 227.491 107.182 226.58 107.648C225.648 108.123 224.733 108.629 223.825 109.148C222.942 109.651 222.064 110.158 221.226 110.726C220.384 111.298 219.554 111.887 218.753 112.512C218.328 112.843 218.226 113.456 218.553 113.893C218.741 114.151 219.048 114.29 219.354 114.29C219.559 114.29 219.762 114.229 219.934 114.094C221.058 113.215 222.227 112.377 223.458 111.646C224.753 110.869 226.081 110.137 227.426 109.443C227.385 109.463 227.349 109.479 227.307 109.5C227.86 109.222 228.411 108.949 228.972 108.686C229.245 108.56 229.523 108.433 229.801 108.315C229.989 108.229 230.197 108.155 230.373 108.045C230.835 107.759 231.006 107.15 230.724 106.676C230.438 106.193 229.834 106.062 229.355 106.324C229.347 106.329 229.339 106.333 229.33 106.337C229.368 106.316 229.408 106.295 229.449 106.275C229.417 106.291 229.385 106.308 229.351 106.324ZM247.756 104.706C246.317 104.98 244.878 105.241 243.431 105.49C242.9 105.581 242.524 106.087 242.61 106.627C242.688 107.1 243.117 107.46 243.59 107.46C243.644 107.46 243.693 107.456 243.746 107.448C245.344 107.174 246.939 106.884 248.532 106.581C249.354 106.426 250.18 106.271 250.997 106.1C251.41 106.009 251.819 105.924 252.223 105.825C252.505 105.761 252.808 105.707 253.073 105.596C253.041 105.605 253.008 105.613 252.975 105.621C253.314 105.519 253.592 105.302 253.702 104.95C253.793 104.657 253.747 104.329 253.572 104.077C253.392 103.823 253.106 103.66 252.795 103.643C252.635 103.635 252.486 103.666 252.348 103.727C252.363 103.721 252.377 103.715 252.391 103.708C252.338 103.729 252.281 103.749 252.223 103.766C252.251 103.757 252.281 103.749 252.309 103.745C250.813 104.154 249.277 104.42 247.756 104.706ZM225.905 96.384C224.655 97.3243 223.441 98.3176 222.232 99.3067C221.815 99.65 221.762 100.283 222.101 100.696C222.293 100.929 222.575 101.048 222.861 101.048C223.081 101.048 223.306 100.974 223.49 100.826C224.7 99.8341 225.918 98.8449 227.169 97.9005C228.326 97.0549 229.519 96.2737 230.757 95.5498C230.717 95.5706 230.679 95.5956 230.639 95.6153C232.446 94.5773 234.289 93.609 236.157 92.6895C239.904 90.8464 243.706 89.0969 247.731 87.9487C247.714 87.9528 247.695 87.9559 247.678 87.9601C247.707 87.9528 247.739 87.9445 247.767 87.9362C247.78 87.932 247.788 87.932 247.801 87.9279C247.792 87.932 247.784 87.932 247.776 87.9362C248.176 87.8301 248.578 87.7313 248.982 87.6418C249.403 87.5441 249.906 87.4941 250.286 87.2778C250.903 86.9179 250.866 85.986 250.302 85.6022C250.02 85.4139 249.644 85.3817 249.338 85.5169C248.794 85.651 248.25 85.7655 247.703 85.9048C247.057 86.064 246.415 86.2564 245.782 86.4644C244.596 86.8565 243.423 87.2861 242.262 87.7438C242.279 87.7354 242.295 87.7313 242.312 87.723C242.27 87.7396 242.23 87.7562 242.189 87.7729C242.213 87.7646 242.238 87.7521 242.262 87.7438C242.222 87.7604 242.185 87.777 242.145 87.7926C242.169 87.7812 242.194 87.7729 242.222 87.7604C241.037 88.2305 239.868 88.7329 238.711 89.2727C238.249 89.4891 237.788 89.7054 237.329 89.9301C237.273 89.9592 237.216 89.9842 237.157 90.0122C237.146 90.0164 237.133 90.0247 237.121 90.0289C236.606 90.2775 236.091 90.5271 235.576 90.7767C233.577 91.7534 231.611 92.7831 229.682 93.895C229.724 93.87 229.76 93.8503 229.801 93.8253C228.453 94.6023 227.152 95.4479 225.905 96.384ZM263.736 94.4962C262.482 95.0152 261.207 95.4853 259.932 95.9471C259.425 96.1302 259.151 96.6991 259.335 97.2098C259.478 97.6061 259.866 97.8641 260.271 97.8641C260.381 97.8641 260.487 97.8433 260.593 97.8069C261.955 97.3159 263.323 96.8302 264.652 96.2571C265.935 95.7017 267.186 95.0838 268.396 94.3776C268.409 94.3693 268.424 94.361 268.437 94.3485H268.441C269.434 93.7639 270.391 93.1347 271.322 92.469C272.201 91.8428 273.06 91.1897 273.868 90.4824C274.69 89.7668 275.467 89.0065 276.19 88.1931C276.513 87.8301 276.824 87.4494 277.114 87.0573C277.335 86.7588 277.588 86.4478 277.657 86.0723C277.752 85.5283 277.355 84.9968 276.816 84.9115C276.333 84.8335 275.88 85.1195 275.712 85.5616C275.663 85.6354 275.613 85.7083 275.56 85.7821C275.59 85.7457 275.613 85.7083 275.643 85.6718C275.193 86.3011 274.686 86.894 274.164 87.4619C274.183 87.4411 274.204 87.4213 274.224 87.4005C274.208 87.4213 274.183 87.4411 274.164 87.4619C274.164 87.4619 274.164 87.466 274.159 87.466C274.159 87.466 274.159 87.4702 274.155 87.4702C274.155 87.4744 274.151 87.4785 274.147 87.4827L274.151 87.4785C273.48 88.165 272.777 88.8068 272.042 89.4235C272.078 89.3955 272.111 89.3705 272.148 89.3424C270.775 90.4491 269.336 91.484 267.832 92.4118C267.816 92.4201 267.799 92.4316 267.782 92.4399C267.714 92.4804 267.64 92.5262 267.57 92.5668C267.566 92.5709 267.558 92.5751 267.55 92.5793C267.546 92.5834 267.542 92.5834 267.538 92.5876C267.456 92.6323 267.378 92.6812 267.305 92.7259C267.309 92.7217 267.313 92.7176 267.316 92.7134C266.157 93.3677 264.975 93.9844 263.736 94.4962ZM208.061 82.7335C208.053 82.7335 208.049 82.7366 208.044 82.7408C208.025 82.7533 208.008 82.7658 207.996 82.7782C207.987 82.7824 207.98 82.7907 207.972 82.7938C207.967 82.798 207.967 82.798 207.963 82.798C207.681 82.9988 207.379 83.1662 207.097 83.3586C206.25 83.9307 205.417 84.535 204.644 85.2059C203.859 85.8882 203.132 86.6319 202.425 87.4005C201.101 88.8348 199.862 90.3513 198.656 91.8886C198.321 92.313 198.326 92.9142 198.747 93.2824C198.927 93.4415 199.171 93.5237 199.413 93.5237C199.69 93.5237 199.961 93.4165 200.141 93.1919C201.656 91.2666 203.234 89.3747 204.959 87.6377C204.935 87.6585 204.914 87.6782 204.89 87.699C205.49 87.1186 206.116 86.5705 206.778 86.0598V86.064C206.778 86.0598 206.778 86.0598 206.782 86.0598C206.79 86.0515 206.798 86.0473 206.803 86.0432C206.815 86.0359 206.826 86.0276 206.835 86.0192C206.822 86.0276 206.815 86.0359 206.803 86.0432C206.831 86.0192 206.856 86.0026 206.884 85.9828C206.868 85.9943 206.851 86.0068 206.835 86.0192C207.55 85.4836 208.282 84.9604 209.059 84.5069C209.099 84.4861 209.137 84.4622 209.181 84.4372C209.66 84.1554 209.77 83.473 209.476 83.0237C209.279 82.7294 208.948 82.565 208.613 82.565C208.421 82.565 208.229 82.6191 208.061 82.7335ZM238.805 73.6388C237.546 74.5998 236.242 75.5068 234.926 76.3899C234.893 76.4138 234.857 76.4387 234.82 76.4637C234.174 76.8922 233.524 77.3135 232.862 77.7222C232.408 78.0041 232.285 78.6417 232.571 79.0827C232.76 79.3729 233.075 79.5248 233.397 79.5248C233.581 79.5248 233.77 79.4759 233.937 79.3729C237.428 77.2116 240.754 74.7798 243.865 72.1025C243.832 72.1306 243.799 72.1597 243.767 72.1878C244.041 71.9548 244.31 71.7177 244.581 71.4774C244.584 71.4774 244.584 71.4732 244.584 71.4732C244.592 71.4691 244.596 71.4608 244.605 71.4566C244.609 71.4524 244.613 71.4483 244.621 71.44C244.617 71.4441 244.613 71.4483 244.605 71.4566H244.609C244.605 71.4566 244.605 71.4566 244.605 71.4608C244.634 71.4316 244.666 71.4036 244.698 71.3744C244.698 71.3744 244.702 71.3703 244.706 71.3703H244.702C245.982 70.2428 247.248 69.1028 248.356 67.8068C248.913 67.1568 249.423 66.4703 249.926 65.7755C250.351 65.1868 250.813 64.6022 251.148 63.9522C251.397 63.4664 251.111 62.8372 250.633 62.6281C250.2 62.4326 249.603 62.5875 249.37 63.0244C249.178 63.3801 248.937 63.7109 248.704 64.0427C248.704 64.0385 248.708 64.0385 248.708 64.0343C248.704 64.0427 248.696 64.051 248.692 64.0583C248.671 64.0832 248.655 64.1082 248.639 64.1321C248.643 64.1238 248.651 64.1123 248.655 64.104C247.89 65.1868 247.102 66.2539 246.199 67.2306C246.231 67.1973 246.259 67.1651 246.293 67.1318C245.348 68.1418 244.314 69.0487 243.285 69.9734C243.014 70.2095 242.745 70.4466 242.475 70.6838C242.491 70.6682 242.512 70.6474 242.533 70.6307C241.315 71.6605 240.076 72.6704 238.805 73.6388Z" style="fill: var(--il-ne-outline);"/>
</g>
<g id="Group_97">
<path id="vec98" d="M214.739 124.27C214.611 124.187 214.48 124.109 214.347 124.035C214.175 123.229 215.194 122.773 215.846 122.432C218.323 121.271 220.93 120.396 223.514 119.497C222.958 119.051 223.097 118.07 223.771 117.809C224.531 117.703 225.308 117.765 226.077 117.555C228.746 117.139 231.386 116.53 234.055 116.138C235.256 116.125 236.793 115.799 237.725 116.718C238.301 117.695 237.929 119.269 237.026 119.934C236.237 120.213 235.383 120.131 234.533 120.053C233.993 120.004 233.453 119.955 232.934 119.996C229.776 119.775 226.71 120.552 223.784 121.476C221.487 122.293 219.124 123.111 216.917 124.103C216.483 124.336 215.937 124.736 215.43 124.821C215.219 124.615 214.988 124.43 214.739 124.27ZM234.758 118.066C234.885 118.07 235.015 118.079 235.142 118.083C235.404 118.099 235.669 118.12 235.931 118.123C235.931 118.12 235.935 118.116 235.935 118.112C235.938 118.099 235.942 118.087 235.947 118.074C235.894 118.066 235.836 118.062 235.779 118.059C235.65 118.053 235.519 118.05 235.389 118.05C235.179 118.05 234.967 118.057 234.758 118.066Z" style="fill: var(--il-ne-outline);"/>
</g>
<g id="Group_98">
<path id="vec99" d="M223.785 119.636C222.471 119.6 222.463 117.652 223.785 117.617C225.879 116.956 235.865 114.424 236.823 116.75C237.022 117.577 236.228 118.192 235.45 117.973C233.28 117.755 230.961 118.016 228.869 118.397C227.744 118.521 226.653 119.31 225.538 119.185C224.968 119.349 224.39 119.641 223.785 119.636Z" style="fill: var(--il-ne-outline);"/>
</g>
<g id="Group_99">
<path id="vec100" d="M212.246 123.341C211.833 123.293 211.396 123.269 210.979 123.284C210.895 123.289 210.809 123.295 210.725 123.303C210.88 122.994 211.032 122.684 211.163 122.361C211.273 122.086 211.374 121.807 211.466 121.525C211.65 121.383 211.857 121.271 212.087 121.204C212.892 120.979 213.713 121.92 213.316 122.672C213.353 122.721 213.39 122.769 213.419 122.822C213.832 123.125 213.955 123.485 213.893 123.807C213.374 123.57 212.822 123.411 212.246 123.341Z" style="fill: var(--il-ne-outline);"/>
</g>
</g>
</g>
</g>
</g>
</g>
</g>
</g>
<defs>
<linearGradient id="paint0_linear_2429_5" x1="38.4962" y1="147.517" x2="72.0793" y2="173.14" gradientUnits="userSpaceOnUse">
<stop style="stop-color: var(--primary-fixed);"/>
<stop offset="1" style="stop-color: var(--primary-fixed-dim);"/>
</linearGradient>
<linearGradient id="paint1_linear_2429_5" x1="91.483" y1="139.308" x2="112.877" y2="216.922" gradientUnits="userSpaceOnUse">
<stop style="stop-color: var(--secondary-fixed);"/>
<stop offset="1" style="stop-color: var(--tertiary-fixed-dim);"/>
</linearGradient>
<linearGradient id="paint2_linear_2429_5" x1="141.733" y1="209.708" x2="153.923" y2="191.051" gradientUnits="userSpaceOnUse">
<stop style="stop-color: var(--primary-fixed);"/>
<stop offset="1" style="stop-color: var(--primary-fixed-dim);"/>
</linearGradient>
<linearGradient id="paint3_linear_2429_5" x1="110.14" y1="209.459" x2="123.574" y2="194.782" gradientUnits="userSpaceOnUse">
<stop style="stop-color: var(--primary-fixed);"/>
<stop offset="1" style="stop-color: var(--primary-fixed-dim);"/>
</linearGradient>
<linearGradient id="paint4_linear_2429_5" x1="90.7367" y1="215.678" x2="108.648" y2="197.767" gradientUnits="userSpaceOnUse">
<stop style="stop-color: var(--primary-fixed);"/>
<stop offset="1" style="stop-color: var(--primary-fixed-dim);"/>
</linearGradient>
<linearGradient id="paint5_linear_2429_5" x1="63.8702" y1="218.415" x2="84.2688" y2="203.738" gradientUnits="userSpaceOnUse">
<stop style="stop-color: var(--primary-fixed);"/>
<stop offset="1" style="stop-color: var(--primary-fixed-dim);"/>
</linearGradient>
<linearGradient id="paint6_linear_2429_5" x1="91.4829" y1="139.308" x2="112.877" y2="216.922" gradientUnits="userSpaceOnUse">
<stop style="stop-color: var(--secondary-fixed);"/>
<stop offset="1" style="stop-color: var(--tertiary-fixed-dim);"/>
</linearGradient>
<linearGradient id="paint7_linear_2429_5" x1="199.198" y1="114.929" x2="183.277" y2="128.86" gradientUnits="userSpaceOnUse">
<stop style="stop-color: var(--primary-fixed);"/>
<stop offset="1" style="stop-color: var(--primary-fixed-dim);"/>
</linearGradient>
</defs>
</svg>