<svg width="32" height="32" viewBox="0 0 32 32" fill="none" xmlns="http://www.w3.org/2000/svg">
<rect width="32" height="32" rx="8" fill="#013E85"/>
<path d="M19.0942 11.498H11.4765C11.4265 11.498 11.3836 11.5266 11.3693 11.5767L10.5618 14.2493C10.5332 14.335 10.6047 14.4351 10.6976 14.4351H14.0062C14.1277 14.4351 14.2063 14.5923 14.1205 14.6709L10.9048 17.6079C10.8691 17.6436 10.8548 17.7008 10.8834 17.7508L11.7337 19.5445C11.7695 19.6231 11.8552 19.6517 11.9267 19.6231C12.2483 19.4659 12.5913 19.3873 12.9414 19.3873C13.2701 19.3873 13.5417 19.4445 13.7704 19.5731C13.9919 19.6946 14.1705 19.8589 14.2992 20.059C14.4278 20.2662 14.4993 20.5021 14.5135 20.7808C14.5278 21.0595 14.4921 21.3524 14.3921 21.6597C14.2992 21.9599 14.1562 22.2457 13.9562 22.5173C13.7632 22.7959 13.5488 23.0461 13.2844 23.239C10.3474 25.3256 8.66094 23.1961 8.0964 22.7959C8.01779 22.7388 7.92489 22.7674 7.90346 22.846L7.2889 24.754C7.2889 24.754 7.28175 24.8183 7.29604 24.854C7.47469 25.2328 7.71766 25.5686 8.01779 25.8545C8.35366 26.1689 8.74669 26.4118 9.20404 26.5905C9.65424 26.7692 10.1688 26.8549 10.7333 26.8549C11.455 26.8549 12.1768 26.712 12.8985 26.4404C13.6131 26.1617 14.2849 25.783 14.9066 25.3042C15.5283 24.8183 16.0785 24.268 16.5502 23.632C17.0218 23.0032 17.3791 22.3243 17.6078 21.6026C17.8865 20.7236 17.9579 19.9089 17.8079 19.1515C17.665 18.394 17.3219 17.7651 16.786 17.2721C16.443 16.9648 16.0142 16.7432 15.4997 16.6075C15.3925 16.5789 15.3496 16.4503 15.414 16.3859L18.8226 12.9987C18.8226 12.9987 18.8441 12.9701 18.8512 12.9487L19.2514 11.691C19.28 11.5981 19.2014 11.498 19.1085 11.498H19.0942Z" fill="white"/>
<path d="M26.6832 11.4979H21.9811C21.9239 11.4979 21.8739 11.5336 21.8596 11.5836L21.0521 14.2277C21.0235 14.3277 21.1093 14.4349 21.2165 14.4349H22.5457C22.6528 14.4349 22.7386 14.5421 22.71 14.6421L19.1013 26.3759C19.0727 26.476 19.1584 26.5832 19.2656 26.5832H22.1812C22.2384 26.5832 22.2884 26.5474 22.3027 26.4974L26.8619 11.698C26.8905 11.5979 26.8047 11.4907 26.6904 11.4907L26.6832 11.4979Z" fill="white"/>
<path d="M9.30415 10.5261L5.8812 7.1246C5.83832 7.08887 5.7883 7.08887 5.78115 7.08887C5.71684 7.08887 5.65967 7.14604 5.65967 7.21035V22.1956C5.65967 22.2599 5.71684 22.3171 5.78115 22.3171C5.83117 22.3171 5.8812 22.2814 5.89549 22.2385C5.89549 22.2385 5.89549 22.2242 5.90263 22.217L5.90978 22.1813L9.36847 10.8405C9.41134 10.7191 9.41134 10.6333 9.30415 10.5261Z" fill="white"/>
<path d="M7.34628 5.6311L10.955 9.28273C11.0408 9.36848 11.1265 9.38992 11.2552 9.38992H26.7407C26.8478 9.38992 26.905 9.25415 26.805 9.1541L23.2248 5.53105C23.0676 5.38099 23.0533 5.40243 22.8889 5.40243H7.43203C7.36772 5.40243 7.31055 5.45959 7.31055 5.52391C7.31055 5.52391 7.31055 5.58108 7.35342 5.6311H7.34628Z" fill="white"/>
</svg>
