<svg width="119" height="80" viewBox="0 0 119 80" fill="none" xmlns="http://www.w3.org/2000/svg">
<path d="M62.4392 2.88546L30.0303 59.0573C27.8121 62.9014 30.5873 67.7065 35.0254 67.7065H99.8431C104.281 67.7065 107.056 62.9014 104.838 59.0573L72.4293 2.88546C70.2094 -0.96182 64.6574 -0.96182 62.4392 2.88546Z" fill="#A1C1FF"/>
<path d="M64.9891 7.61323L35.4005 58.8979C34.3139 60.7813 35.6725 63.1332 37.8473 63.1332H97.0261C99.1993 63.1332 100.56 60.7797 99.4729 58.8979L69.8843 7.61323C68.7977 5.72983 66.0789 5.72983 64.9907 7.61323H64.9891Z" fill="white"/>
<path d="M82.4407 42.9335L80.4344 42.6073C80.3049 42.5853 80.1857 42.522 80.0944 42.4267C80.003 42.3313 79.9443 42.209 79.9267 42.0776C79.8882 41.829 79.8498 41.5797 79.7959 41.3389C79.7699 41.2096 79.7849 41.0753 79.8387 40.9551C79.8926 40.8349 79.9826 40.7349 80.0959 40.6693L81.8722 39.6735C82.0067 39.6041 82.1114 39.4875 82.1666 39.3456C82.2219 39.2037 82.2239 39.0463 82.1722 38.903L81.8645 38.0486C81.8131 37.9049 81.7106 37.7856 81.577 37.7139C81.4434 37.6421 81.2882 37.623 81.1414 37.6602L79.1497 38.0486C79.0202 38.0739 78.8861 38.0565 78.7672 37.9991C78.6482 37.9416 78.5506 37.847 78.4889 37.7294C78.3735 37.5119 78.2504 37.2941 78.1197 37.0761C78.0506 36.9628 78.0187 36.8303 78.0283 36.6976C78.038 36.5649 78.0888 36.4386 78.1735 36.3367L79.5036 34.7878C79.6068 34.677 79.6661 34.5318 79.6703 34.3798C79.6746 34.2278 79.6235 34.0795 79.5267 33.9629L78.9505 33.2639C78.8545 33.1463 78.7185 33.0691 78.5691 33.0474C78.4197 33.0257 78.2677 33.0611 78.1427 33.1466L76.3972 34.2053C76.285 34.2724 76.1546 34.3018 76.0248 34.2893C75.8949 34.2767 75.7724 34.2228 75.6749 34.1354C75.4902 33.9715 75.2979 33.8084 75.1056 33.6522C75.0033 33.5702 74.9295 33.4574 74.8949 33.3301C74.8604 33.2029 74.8668 33.0679 74.9133 32.9446L75.6364 31.0222C75.6979 30.8827 75.7065 30.7252 75.6603 30.5798C75.6142 30.4344 75.5167 30.3112 75.3864 30.2338L74.6017 29.7747C74.4708 29.6996 74.3171 29.6757 74.1698 29.7073C74.0225 29.7389 73.8918 29.824 73.8024 29.9464L72.5223 31.5651C72.4508 31.667 72.3474 31.7416 72.2288 31.7768C72.1101 31.812 71.9832 31.8059 71.8684 31.7593C71.8684 31.7593 71.4376 31.5807 71.1145 31.4711C70.9906 31.4294 70.883 31.349 70.8074 31.2415C70.7318 31.134 70.6919 31.0049 70.6937 30.873L70.7245 28.8186C70.7336 28.6658 70.6869 28.5149 70.5934 28.3944C70.4999 28.2739 70.3659 28.1922 70.2168 28.1645L69.3252 28.0092C69.1759 27.9831 69.0224 28.013 68.8935 28.0932C68.7645 28.1735 68.6691 28.2986 68.6251 28.4449L67.9636 30.3907C67.9211 30.5161 67.8401 30.6245 67.7322 30.7001C67.6244 30.7757 67.4955 30.8145 67.3643 30.8109H66.6104C66.4793 30.8137 66.3508 30.7746 66.2432 30.6991C66.1355 30.6236 66.0543 30.5156 66.0111 30.3907L65.3495 28.4449C65.3056 28.2986 65.2101 28.1735 65.0812 28.0932C64.9523 28.013 64.7987 27.9831 64.6495 28.0092L63.7579 28.1645C63.6087 28.1922 63.4748 28.2739 63.3812 28.3944C63.2877 28.5149 63.2411 28.6658 63.2501 28.8186L63.2809 30.873C63.2828 31.0053 63.2428 31.1346 63.1669 31.2423C63.0909 31.35 62.9829 31.4304 62.8586 31.4719C62.6816 31.5418 62.297 31.6902 62.1124 31.7601C61.897 31.8378 61.6431 31.7756 61.4354 31.5341L60.1653 29.9542C60.0755 29.8323 59.9446 29.7478 59.7973 29.7168C59.6501 29.6857 59.4966 29.7102 59.366 29.7856L58.5814 30.2447C58.4507 30.3206 58.3525 30.4427 58.3056 30.5874C58.2588 30.7321 58.2665 30.8892 58.3275 31.0284L59.0506 32.9508C59.0964 33.0742 59.1024 33.209 59.0679 33.3361C59.0334 33.4631 58.96 33.5759 58.8583 33.6584C58.666 33.8138 58.4737 33.9777 58.289 34.1416C58.1915 34.229 58.069 34.2829 57.9391 34.2955C57.8093 34.308 57.6789 34.2786 57.5667 34.2115L55.8465 33.1365C55.721 33.053 55.5695 33.0189 55.4206 33.0405C55.2718 33.0621 55.136 33.138 55.0388 33.2538L54.4626 33.9528C54.3658 34.0694 54.3147 34.2177 54.3189 34.3697C54.3232 34.5217 54.3825 34.6669 54.4857 34.7777L55.8158 36.3266C55.9023 36.4276 55.9542 36.5541 55.9639 36.6873C55.9736 36.8205 55.9405 36.9533 55.8696 37.066C55.7388 37.2731 55.6158 37.4909 55.5004 37.7193C55.4376 37.836 55.3399 37.9298 55.2212 37.9871C55.1026 38.0445 54.969 38.0624 54.8395 38.0385L52.8479 37.6501C52.7011 37.614 52.5464 37.6336 52.413 37.7052C52.2797 37.7768 52.1771 37.8955 52.1247 38.0385L51.817 38.8929C51.7654 39.0362 51.7674 39.1936 51.8226 39.3355C51.8779 39.4774 51.9826 39.594 52.117 39.6634L53.891 40.66C54.0056 40.7243 54.0966 40.8242 54.1506 40.9447C54.2046 41.0653 54.2188 41.2002 54.191 41.3296C54.1449 41.5781 54.0987 41.8197 54.0603 42.0682C54.0418 42.1993 53.9827 42.3212 53.8915 42.4163C53.8003 42.5115 53.6817 42.575 53.5525 42.598L51.5462 42.9242C51.3969 42.9428 51.2594 43.0153 51.1589 43.1284C51.0585 43.2415 51.0021 43.3875 51 43.5394V44.4497C50.9982 44.6027 51.0533 44.7509 51.1544 44.8648C51.2556 44.9787 51.3954 45.0501 51.5462 45.0649L53.5525 45.3911C53.6821 45.4132 53.8012 45.4765 53.8926 45.5718C53.984 45.6671 54.0427 45.7894 54.0603 45.9209C54.0987 46.1694 54.1372 46.4188 54.191 46.6596C54.2171 46.7888 54.2021 46.9231 54.1482 47.0433C54.0944 47.1635 54.0044 47.2635 53.891 47.3291L52.1147 48.3265C51.9803 48.3959 51.8756 48.5125 51.8203 48.6544C51.7651 48.7963 51.7631 48.9537 51.8147 49.097L52.1224 49.9514C52.1739 50.0951 52.2764 50.2143 52.41 50.2861C52.5436 50.3579 52.6988 50.377 52.8456 50.3398L54.8372 49.9514C54.9667 49.9261 55.1008 49.9435 55.2198 50.0009C55.3388 50.0584 55.4363 50.153 55.4981 50.2706C55.6134 50.4881 55.7365 50.7059 55.8673 50.9239C55.9364 51.0372 55.9683 51.1697 55.9586 51.3024C55.949 51.4351 55.8982 51.5614 55.8135 51.6633L54.4834 53.2137C54.3802 53.3245 54.3209 53.4697 54.3166 53.6217C54.3124 53.7738 54.3635 53.9221 54.4603 54.0386L55.0365 54.7377C55.1325 54.8553 55.2685 54.9324 55.4179 54.9541C55.5673 54.9758 55.7193 54.9405 55.8442 54.855L57.5897 53.7963C57.7019 53.7291 57.8324 53.6997 57.9622 53.7123C58.092 53.7249 58.2146 53.7787 58.3121 53.8662C58.4967 54.0301 58.6891 54.1932 58.8814 54.3493C58.9837 54.4314 59.0574 54.5442 59.092 54.6714C59.1266 54.7986 59.1202 54.9336 59.0737 55.0569L58.3506 56.9794C58.29 57.119 58.2824 57.2763 58.3292 57.4212C58.376 57.5662 58.474 57.6887 58.6044 57.7654L59.3891 58.2245C59.5201 58.2996 59.6737 58.3236 59.821 58.2919C59.9683 58.2603 60.099 58.1752 60.1884 58.0528L61.48 56.4496C61.6416 56.2477 61.9031 56.1622 62.1108 56.2477C62.3724 56.3564 62.5493 56.4186 62.8724 56.5281C62.9968 56.5696 63.1048 56.65 63.1807 56.7577C63.2567 56.8654 63.2966 56.9947 63.2948 57.127L63.264 59.1814C63.2549 59.3342 63.3016 59.4851 63.3951 59.6056C63.4886 59.7261 63.6226 59.8078 63.7717 59.8355L64.6633 59.9908C64.8126 60.0169 64.9661 59.987 65.0951 59.9068C65.224 59.8265 65.3194 59.7014 65.3634 59.5551L66.025 57.6132C66.0674 57.4878 66.1485 57.3794 66.2563 57.3037C66.3641 57.2281 66.493 57.1893 66.6242 57.193H67.3781C67.5092 57.1902 67.6377 57.2293 67.7454 57.3048C67.853 57.3803 67.9342 57.4882 67.9774 57.6132L68.639 59.5551C68.6829 59.7014 68.7784 59.8265 68.9073 59.9068C69.0362 59.987 69.1898 60.0169 69.339 59.9908L70.2306 59.8355C70.3798 59.8078 70.5137 59.7261 70.6073 59.6056C70.7008 59.4851 70.7474 59.3342 70.7384 59.1814L70.7076 57.127C70.7057 56.9947 70.7457 56.8654 70.8216 56.7577C70.8976 56.65 71.0056 56.5696 71.1299 56.5281C71.453 56.4186 71.6684 56.3331 71.8684 56.2554C72.0685 56.1778 72.3146 56.1778 72.507 56.4186L73.8147 58.0451C73.9045 58.1679 74.0359 58.253 74.1839 58.2842C74.3319 58.3155 74.4861 58.2906 74.6171 58.2144L75.4018 57.7553C75.5331 57.6794 75.6318 57.557 75.6787 57.4117C75.7256 57.2664 75.7174 57.1088 75.6556 56.9693L74.9325 55.0468C74.8868 54.9233 74.8808 54.7884 74.9153 54.6613C74.9498 54.5341 75.0231 54.4212 75.1248 54.3384C75.3172 54.1831 75.5095 54.02 75.6941 53.8561C75.7916 53.7687 75.9142 53.7148 76.044 53.7022C76.1738 53.6896 76.3043 53.719 76.4165 53.7862L78.1558 54.848C78.2814 54.9314 78.4329 54.9656 78.5817 54.944C78.7305 54.9224 78.8663 54.8465 78.9636 54.7307L79.5398 54.0316C79.6366 53.9151 79.6877 53.7668 79.6834 53.6148C79.6792 53.4627 79.6198 53.3176 79.5167 53.2067L78.1866 51.6579C78.1001 51.5569 78.0482 51.4304 78.0385 51.2972C78.0288 51.164 78.0618 51.0312 78.1327 50.9184C78.2635 50.7087 78.3866 50.491 78.502 50.2652C78.5647 50.1484 78.6624 50.0547 78.7811 49.9973C78.8998 49.94 79.0334 49.922 79.1628 49.946L81.1545 50.3343C81.3012 50.3705 81.456 50.3509 81.5893 50.2793C81.7227 50.2076 81.8253 50.089 81.8776 49.946L82.1853 49.0915C82.237 48.9483 82.235 48.7909 82.1797 48.649C82.1245 48.5071 82.0198 48.3904 81.8853 48.321L80.109 47.3252C79.9945 47.2609 79.9035 47.1611 79.8495 47.0405C79.7954 46.9199 79.7812 46.785 79.809 46.6557C79.8552 46.4071 79.9013 46.1656 79.9398 45.917C79.9583 45.7859 80.0173 45.6641 80.1085 45.5689C80.1997 45.4738 80.3184 45.4102 80.4475 45.3873L82.4538 45.061C82.6031 45.0425 82.7407 44.9699 82.8411 44.8568C82.9415 44.7437 82.998 44.5977 83 44.4459V43.534C82.9916 43.3834 82.9309 43.2407 82.8287 43.1309C82.7264 43.0211 82.589 42.9512 82.4407 42.9335ZM67.0012 32.8149C69.4583 32.8138 71.8458 33.6387 73.7872 35.1593C75.7287 36.6799 77.1136 38.8098 77.7235 41.213C77.7688 41.3963 77.7722 41.5876 77.7334 41.7724C77.6946 41.9572 77.6145 42.1306 77.4993 42.2795C77.3842 42.4284 77.2369 42.5488 77.0687 42.6315C76.9005 42.7143 76.7159 42.7573 76.5288 42.7572H68.4328C68.2154 42.7572 68.0018 42.6991 67.8138 42.5887C67.6259 42.4784 67.4702 42.3197 67.3627 42.1288L63.3548 35.0053C63.2614 34.8397 63.2071 34.6546 63.1959 34.4644C63.1847 34.2742 63.2169 34.084 63.2902 33.9084C63.3634 33.7328 63.4757 33.5765 63.6183 33.4517C63.7609 33.3269 63.93 33.2368 64.1125 33.1885C65.0554 32.9387 66.0264 32.8132 67.0012 32.8149ZM55.9235 44C55.9221 42.5023 56.2186 41.0197 56.7954 39.6399C57.3722 38.2601 58.2176 37.0114 59.2814 35.9677C59.4157 35.8334 59.5789 35.7322 59.7582 35.6719C59.9375 35.6115 60.1282 35.5937 60.3155 35.6198C60.5027 35.6458 60.6815 35.7151 60.838 35.8222C60.9944 35.9292 61.1244 36.0713 61.2177 36.2372L65.2364 43.3786C65.3426 43.5663 65.3985 43.7788 65.3985 43.995C65.3985 44.2111 65.3426 44.4236 65.2364 44.6113L61.1846 51.734C61.0905 51.8995 60.96 52.0409 60.8031 52.1472C60.6462 52.2536 60.4672 52.322 60.2799 52.3473C60.0926 52.3725 59.902 52.3539 59.723 52.2928C59.544 52.2317 59.3813 52.1298 59.2476 51.995C58.1941 50.953 57.3575 49.709 56.7866 48.3361C56.2158 46.9632 55.9224 45.489 55.9235 44ZM67.0012 55.1851C66.0094 55.1877 65.0216 55.0584 64.0633 54.8006C63.8808 54.7516 63.7119 54.6609 63.5697 54.5355C63.4275 54.41 63.3157 54.2533 63.2431 54.0772C63.1706 53.9012 63.1391 53.7107 63.1511 53.5204C63.1631 53.3301 63.2183 53.1452 63.3125 52.9799L67.3574 45.8688C67.4655 45.6796 67.6212 45.5226 67.8087 45.4135C67.9961 45.3044 68.2088 45.2471 68.4251 45.2474H76.5326C76.7197 45.2475 76.9042 45.2905 77.0723 45.3734C77.2404 45.4562 77.3876 45.5766 77.5026 45.7255C77.6177 45.8743 77.6977 46.0477 77.7365 46.2324C77.7753 46.4172 77.7719 46.6084 77.7266 46.7916C77.1154 49.1944 75.7296 51.3235 73.7877 52.8432C71.8457 54.3629 69.4581 55.1868 67.0012 55.1851Z" fill="#001641"/>
<path d="M103.408 16.0002C103.408 24.3717 96.6215 31.1581 88.25 31.1581C79.8785 31.1581 73.0921 24.3717 73.0921 16.0002C73.0921 7.62871 79.8785 0.842285 88.25 0.842285C96.6215 0.842285 103.408 7.62871 103.408 16.0002Z" fill="white"/>
<path fill-rule="evenodd" clip-rule="evenodd" d="M104.225 16.8976L103.384 16.8511C103.4 16.5695 103.408 16.2857 103.408 16C103.408 15.7143 103.4 15.4305 103.384 15.1489L104.225 15.1024C104.242 15.3995 104.25 15.6988 104.25 16C104.25 16.3012 104.242 16.6005 104.225 16.8976ZM104.026 13.3186L103.196 13.4587C103.101 12.8951 102.975 12.3421 102.819 11.8016L103.628 11.5688C103.793 12.1396 103.926 12.7235 104.026 13.3186ZM103.036 9.87539L102.258 10.198C102.04 9.67219 101.793 9.16128 101.52 8.66721L102.256 8.25921C102.545 8.78079 102.806 9.3202 103.036 9.87539ZM101.3 6.74063L100.614 7.22851C100.285 6.7657 99.9304 6.3221 99.5527 5.89976L100.18 5.33841C100.579 5.78407 100.953 6.25218 101.3 6.74063ZM98.9116 4.06955L98.3502 4.69727C97.9279 4.31959 97.4843 3.96525 97.0215 3.63628L97.5094 2.9499C97.9978 3.29709 98.4659 3.67102 98.9116 4.06955ZM95.9908 1.99378L95.5828 2.73044C95.0887 2.4568 94.5778 2.20999 94.052 1.99196L94.3746 1.21409C94.9298 1.44432 95.4692 1.7049 95.9908 1.99378ZM92.6812 0.621537L92.4484 1.43083C91.9079 1.27537 91.3549 1.14917 90.7913 1.05407L90.9314 0.223704C91.5265 0.324109 92.1104 0.457363 92.6812 0.621537ZM89.1476 0.0247546L89.1011 0.865575C88.8195 0.85 88.5357 0.842105 88.25 0.842105C87.9643 0.842105 87.6805 0.85 87.3989 0.865575L87.3524 0.0247545C87.6495 0.008324 87.9488 0 88.25 0C88.5512 0 88.8505 0.00832402 89.1476 0.0247546ZM85.5686 0.223705L85.7087 1.05407C85.1451 1.14917 84.5921 1.27537 84.0516 1.43083L83.8188 0.621537C84.3896 0.457363 84.9735 0.324109 85.5686 0.223705ZM82.1254 1.21409L82.448 1.99196C81.9222 2.20999 81.4113 2.4568 80.9172 2.73044L80.5092 1.99378C81.0308 1.7049 81.5702 1.44432 82.1254 1.21409ZM78.9906 2.9499L79.4785 3.63628C79.0157 3.96525 78.5721 4.31959 78.1498 4.69727L77.5884 4.06955C78.0341 3.67102 78.5022 3.29709 78.9906 2.9499ZM76.3196 5.33842L76.9473 5.89976C76.5696 6.3221 76.2153 6.7657 75.8863 7.22851L75.1999 6.74063C75.5471 6.25219 75.921 5.78407 76.3196 5.33842ZM74.2438 8.25921L74.9804 8.66721C74.7068 9.16128 74.46 9.67219 74.242 10.198L73.4641 9.8754C73.6943 9.32021 73.9549 8.78079 74.2438 8.25921ZM72.8715 11.5688L73.6808 11.8016C73.5254 12.3421 73.3992 12.8951 73.3041 13.4587L72.4737 13.3186C72.5741 12.7235 72.7074 12.1396 72.8715 11.5688ZM72.2748 15.1024C72.2583 15.3995 72.25 15.6988 72.25 16C72.25 16.3012 72.2583 16.6005 72.2748 16.8976L73.1156 16.8511C73.1 16.5695 73.0921 16.2857 73.0921 16C73.0921 15.7143 73.1 15.4305 73.1156 15.1489L72.2748 15.1024ZM72.4737 18.6814L73.3041 18.5413C73.3992 19.1049 73.5254 19.6579 73.6808 20.1984L72.8715 20.4312C72.7074 19.8604 72.5741 19.2765 72.4737 18.6814ZM73.4641 22.1246L74.242 21.802C74.46 22.3278 74.7068 22.8387 74.9804 23.3328L74.2438 23.7408C73.9549 23.2192 73.6943 22.6798 73.4641 22.1246ZM75.1999 25.2594L75.8863 24.7715C76.2153 25.2343 76.5696 25.6779 76.9473 26.1002L76.3196 26.6616C75.921 26.2159 75.5471 25.7478 75.1999 25.2594ZM77.5884 27.9304L78.1498 27.3027C78.5721 27.6804 79.0157 28.0347 79.4785 28.3637L78.9906 29.0501C78.5022 28.7029 78.0341 28.329 77.5884 27.9304ZM80.5092 30.0062L80.9172 29.2696C81.4113 29.5432 81.9222 29.79 82.448 30.008L82.1254 30.7859C81.5702 30.5557 81.0308 30.2951 80.5092 30.0062ZM83.8188 31.3785L84.0516 30.5692C84.5921 30.7246 85.1451 30.8508 85.7087 30.9459L85.5686 31.7763C84.9735 31.6759 84.3896 31.5426 83.8188 31.3785ZM87.3524 31.9752L87.3989 31.1344C87.6805 31.15 87.9643 31.1579 88.25 31.1579C88.5357 31.1579 88.8195 31.15 89.1011 31.1344L89.1476 31.9752C88.8505 31.9917 88.5512 32 88.25 32C87.9488 32 87.6495 31.9917 87.3524 31.9752ZM90.9314 31.7763L90.7913 30.9459C91.3549 30.8508 91.9079 30.7246 92.4484 30.5692L92.6812 31.3785C92.1104 31.5426 91.5265 31.6759 90.9314 31.7763ZM94.3746 30.7859L94.052 30.008C94.5778 29.79 95.0887 29.5432 95.5828 29.2696L95.9908 30.0062C95.4692 30.2951 94.9298 30.5557 94.3746 30.7859ZM97.5094 29.0501L97.0215 28.3637C97.4843 28.0347 97.9279 27.6804 98.3502 27.3027L98.9116 27.9304C98.4659 28.329 97.9978 28.7029 97.5094 29.0501ZM100.18 26.6616L99.5527 26.1002C99.9304 25.6779 100.285 25.2343 100.614 24.7715L101.3 25.2594C100.953 25.7478 100.579 26.2159 100.18 26.6616ZM102.256 23.7408L101.52 23.3328C101.793 22.8387 102.04 22.3278 102.258 21.802L103.036 22.1246C102.806 22.6798 102.545 23.2192 102.256 23.7408ZM103.628 20.4312L102.819 20.1984C102.975 19.6579 103.101 19.1049 103.196 18.5413L104.026 18.6814C103.926 19.2765 103.793 19.8604 103.628 20.4312Z" fill="#001641"/>
<path d="M88.75 12.2979C89.3598 12.36 89.8358 12.8748 89.8359 13.501V22.9385H92.5586L92.6816 22.9454C93.2917 23.0072 93.7684 23.5221 93.7686 24.1485C93.7686 24.775 93.2918 25.2907 92.6816 25.3526L92.5586 25.3584H84.21C83.5418 25.3584 83 24.8167 83 24.1485C83.0002 23.4804 83.5419 22.9385 84.21 22.9385H87.416V14.711H84.7539C84.0859 14.7108 83.5449 14.1691 83.5449 13.501C83.5451 12.833 84.086 12.2913 84.7539 12.2911H88.626L88.75 12.2979ZM88.0059 6.03715C88.3814 5.96245 88.7713 6.00098 89.125 6.1475C89.4786 6.29404 89.7805 6.54215 89.9932 6.86039C90.2058 7.17872 90.3193 7.55274 90.3193 7.93559C90.3193 8.44901 90.116 8.94168 89.7529 9.30473C89.3899 9.66777 88.8972 9.87113 88.3838 9.87113C88.001 9.87111 87.6269 9.75766 87.3086 9.54496C86.9904 9.33232 86.7422 9.03037 86.5957 8.6768C86.4492 8.32306 86.4107 7.93318 86.4854 7.55766C86.5601 7.18228 86.744 6.8371 87.0146 6.56645C87.2853 6.29581 87.6305 6.1119 88.0059 6.03715Z" fill="#001641"/>
<path d="M41.9453 79.6167H7.26347C7.26347 79.6167 -4.65178 75.2302 3.48528 63.0358C3.94123 62.3538 5.01487 62.7237 4.93303 63.5367C4.54722 67.4146 4.70505 73.8567 9.45751 76.1877V74.9008C9.45751 71.9379 10.3577 69.0444 12.0413 66.5959L23.485 49.9475C23.485 49.9475 14.2645 46.6976 29.882 36.4758C29.882 36.4758 29.4436 31.2205 35.864 33.5033C35.864 33.5033 46.6647 26.7839 48.7243 27.4177C50.7838 28.0515 53.806 31.7791 44.2621 43.5921L42.45 47.5009C42.1343 48.1809 41.9707 48.9207 41.9707 49.6682V73.8856C41.9707 74.9297 42.6273 75.8428 43.6016 76.2416C44.3966 76.5672 45.0415 77.1836 44.3167 78.3395C43.812 79.1448 42.9021 79.6129 41.9434 79.6129L41.9453 79.6167Z" fill="#515976"/>
<path d="M43.7536 75.889C42.9098 75.5441 42.3643 74.7581 42.3643 73.8893V49.6719C42.3643 48.9745 42.5143 48.2983 42.8066 47.6645L44.5973 43.7982C51.1209 35.7129 51.7016 31.4747 51.0391 29.3402C50.5403 27.7316 49.3361 27.2037 48.8412 27.0515C46.7679 26.4158 37.8086 31.8484 35.8172 33.0794C33.6056 32.3262 31.9221 32.3685 30.8134 33.2085C29.6053 34.1235 29.4845 35.6743 29.4864 36.2754C23.1167 40.475 20.0653 44.0659 20.4219 46.9518C20.644 48.753 22.0976 49.7143 22.9024 50.115L11.7198 66.3819C9.98557 68.9056 9.06781 71.8531 9.06781 74.9045V75.5364C5.03046 73.0513 4.9798 67.01 5.32079 63.577C5.37535 63.0338 5.06163 62.5464 4.54333 62.3653C4.02112 62.1823 3.46579 62.3672 3.15987 62.8257C0.478696 66.8404 -0.355274 70.4679 0.681343 73.6061C2.16612 78.1044 7.07836 79.9595 7.12707 79.9769C7.16994 79.9923 7.21671 80 7.26152 80H41.9434C43.0482 80 44.0848 79.4413 44.6479 78.5436C45.0026 77.9792 45.1058 77.4571 44.9558 76.9967C44.8019 76.5247 44.3966 76.151 43.7516 75.887L43.7536 75.889ZM42.1343 79.2198C42.2493 78.2701 41.5205 77.3858 40.6866 77.0468C39.8351 76.7 38.9076 76.7809 38.0327 76.9196L37.7307 76.9678C37.3975 77.0217 37.0584 77.0776 36.7213 77.1084C38.8179 75.3226 40.3436 72.8221 40.9399 70.1674C41.2224 68.9114 41.2575 67.8248 41.049 66.8443C40.7918 65.6325 40.1254 64.5846 39.2193 63.97C38.6582 63.5886 38.0424 63.3805 37.413 63.29L39.5467 58.3775C39.5876 58.2831 39.5896 58.1791 39.5506 58.0828C39.5116 57.9865 39.4376 57.9113 39.3421 57.8709C39.1453 57.788 38.9154 57.8786 38.8316 58.0732L36.5888 63.236C35.5464 63.2437 34.5136 63.5134 33.6719 63.8236C31.0219 64.8022 28.6836 66.4744 26.9144 68.659C26.8501 68.7399 26.8189 68.8401 26.8306 68.9422C26.8423 69.0443 26.8929 69.1368 26.9748 69.2003C27.0566 69.2658 27.1579 69.2947 27.2612 69.2832C27.3645 69.2716 27.458 69.2215 27.5223 69.1406C29.2039 67.0639 31.4252 65.4746 33.9447 64.546C35.3476 64.0278 37.3254 63.6175 38.779 64.6038C39.5214 65.1085 40.0708 65.9812 40.2871 67.0003C40.4722 67.8711 40.4372 68.8536 40.178 69.9998C39.5389 72.8452 37.7989 75.4536 35.4061 77.1508C35.2775 77.2413 35.219 77.3993 35.2541 77.5515C35.2892 77.7037 35.4119 77.8173 35.5678 77.8443C36.3472 77.9753 37.1149 77.8482 37.8573 77.7268L38.1554 77.6786C38.9193 77.5592 39.7182 77.4841 40.3904 77.7576C40.9652 77.9926 41.4835 78.638 41.3413 79.2294H7.33751C6.72763 78.9848 2.70197 77.2375 1.42178 73.3653C0.463108 70.4622 1.2659 67.0581 3.81068 63.2457C3.9763 62.9952 4.23351 63.0704 4.28417 63.0877C4.33288 63.105 4.5745 63.2052 4.54527 63.498C4.16726 67.3124 4.27833 74.0762 9.28409 76.5324C9.4049 76.5921 9.54715 76.5863 9.66211 76.5151C9.77512 76.4457 9.84722 76.3205 9.84722 76.1876V74.9007C9.84722 72.0033 10.7182 69.208 12.3647 66.8115L23.8084 50.1632C23.8513 50.1015 23.8708 50.0302 23.8727 49.957C23.9526 49.9339 24.0247 49.8857 24.0754 49.8183L28.6252 43.7346C28.6875 43.6518 28.7129 43.5496 28.6973 43.4475C28.6817 43.3454 28.6271 43.2549 28.5433 43.1952C28.4596 43.1335 28.3563 43.1085 28.255 43.1239C28.1517 43.1393 28.0601 43.1933 27.9997 43.2761L23.4499 49.3598C23.4207 49.3983 23.4012 49.4407 23.3895 49.485C22.8225 49.2192 21.3864 48.4024 21.1954 46.8554C20.9792 45.0985 22.3003 41.9777 29.7203 37.0479L29.919 37.4004C29.2273 37.491 28.5901 37.8493 28.1673 38.3964C27.5964 39.1362 27.4717 40.1649 27.8497 41.0183C28.2277 41.8717 29.0792 42.4766 30.0145 42.5595H30.0515C30.2542 42.5595 30.4217 42.4111 30.4393 42.2108C30.4587 41.9989 30.3009 41.812 30.0866 41.7927C29.4377 41.7349 28.8259 41.2996 28.5648 40.7101C28.3017 40.1206 28.3914 39.3789 28.7889 38.8665C29.1844 38.354 29.882 38.0728 30.5308 38.171C30.6789 38.1922 30.8231 38.1286 30.905 38.0092C30.9907 37.8878 30.9985 37.7318 30.9244 37.6027L30.3847 36.6453C30.3555 36.5932 30.3146 36.5528 30.2697 36.52C30.2717 36.495 30.2756 36.4719 30.2736 36.4468C30.2736 36.4295 30.1528 34.6783 31.2908 33.8192C32.2066 33.1276 33.7011 33.143 35.7354 33.8673C35.7743 33.8808 35.8153 33.8866 35.8562 33.8866C35.8776 33.9405 35.9107 33.9906 35.9575 34.0311C37.8164 35.657 38.8179 38.1845 38.5705 40.6272C38.5607 40.7293 38.59 40.8295 38.6562 40.9104C38.7225 40.9894 38.816 41.0395 38.9212 41.0491H38.9582C39.1589 41.0491 39.3265 40.9008 39.346 40.7043C39.6129 38.0573 38.5451 35.3218 36.5576 33.5321C39.7415 31.5787 44.3264 29.0165 46.9024 28.1014C46.8985 28.1207 46.8946 28.1381 46.8946 28.1573C46.8498 29.0762 47.1654 30.0067 47.7597 30.7137C48.354 31.4207 49.2231 31.8966 50.1467 32.0198C50.1642 32.0218 50.1818 32.0237 50.1973 32.0237C50.2655 32.0237 50.3298 32.0044 50.3863 31.9736C50.0044 34.3123 48.3696 37.8994 43.962 43.3551C43.9426 43.3782 43.927 43.4052 43.9114 43.436L42.0993 47.3448C41.7583 48.0807 41.5848 48.8647 41.5848 49.6738V73.8912C41.5848 75.0741 42.3194 76.1375 43.4554 76.6037C43.8802 76.7771 44.1355 76.9909 44.2154 77.2375C44.2933 77.4744 44.2154 77.7788 43.9874 78.1429C43.5977 78.7651 42.9001 79.1639 42.1343 79.2217V79.2198ZM50.4584 31.3552C50.4019 31.3032 50.3279 31.2647 50.2461 31.255C49.5173 31.1587 48.8275 30.7811 48.356 30.2205C47.8844 29.6599 47.635 28.9221 47.6701 28.1939C47.6759 28.0764 47.6253 27.9685 47.5454 27.8953C48.0228 27.7643 48.3891 27.72 48.6093 27.7874C48.9854 27.903 49.9051 28.3095 50.2948 29.5656C50.4409 30.0356 50.515 30.6251 50.4584 31.3552Z" fill="#001641"/>
<path d="M42.111 44.3856C42.0506 44.3009 41.9609 44.245 41.8576 44.2277C41.6472 44.193 41.4446 44.3336 41.4075 44.5417C41.1464 46.027 40.8775 47.5604 40.3553 48.9918C39.7786 50.5715 38.9641 51.8083 37.9333 52.6713C36.7447 53.6634 35.2385 54.12 33.9038 53.8907C32.4599 53.6442 31.2401 52.523 31.0024 51.2245C30.792 50.0725 31.2986 48.8531 31.7643 47.9188C32.873 45.6956 34.3441 43.6863 36.1348 41.9525C36.2089 41.8813 36.2498 41.7849 36.2517 41.6809C36.2537 41.5769 36.2128 41.4806 36.1407 41.4074C35.9906 41.2552 35.7432 41.2532 35.5892 41.4016C33.7362 43.197 32.2144 45.2757 31.0648 47.5778C30.5464 48.6181 29.9814 49.9897 30.2347 51.3613C30.5328 52.993 31.9884 54.3454 33.7713 54.6498C34.0382 54.696 34.3149 54.7191 34.5935 54.7191C35.9263 54.7191 37.3273 54.1874 38.436 53.2589C39.572 52.3091 40.4645 50.9606 41.088 49.2519C41.6336 47.7569 41.9083 46.1888 42.1753 44.6727C42.1928 44.5706 42.1694 44.4685 42.109 44.3856H42.111Z" fill="#001641"/>
<path d="M37.0409 52.7812H37.0487C37.263 52.7773 37.4345 52.6001 37.4306 52.3882C37.3663 49.3849 38.6426 46.3565 40.8444 44.2894C40.9204 44.2181 40.9633 44.1237 40.9652 44.0197C40.9672 43.9176 40.9302 43.8193 40.8581 43.7442C40.786 43.6691 40.6885 43.6267 40.5853 43.6248C40.4801 43.6209 40.3826 43.6595 40.3066 43.7307C37.9489 45.9461 36.581 49.1884 36.6512 52.4055C36.6551 52.6136 36.8305 52.7831 37.0409 52.7831V52.7812Z" fill="#001641"/>
<path d="M16.25 79.6035L117.75 79.6033" stroke="#001641" stroke-width="0.8" stroke-linecap="round"/>
</svg>
