<svg width="477" height="319" viewBox="0 0 477 319" fill="none" xmlns="http://www.w3.org/2000/svg">
<g clip-path="url(#clip0_72_1941)">
<path d="M141.092 317.873H287.887C295.442 317.873 300.472 311.691 299.068 304.14L245.175 14.1151C243.771 6.56036 236.442 0.38269 228.891 0.38269H82.0963C74.5415 0.38269 69.5114 6.56418 70.9153 14.1151L124.808 304.14C126.212 311.695 133.541 317.873 141.092 317.873Z" fill="#232323"/>
<path d="M287.887 318.255H141.092C133.346 318.255 125.872 311.955 124.43 304.209L70.5367 14.1839C69.829 10.374 70.6744 6.78599 72.9197 4.08924C75.1116 1.45369 78.3706 0.00012207 82.0963 0.00012207H228.891C236.637 0.00012207 244.112 6.30019 245.554 14.0462L299.447 304.071C300.155 307.881 299.309 311.469 297.064 314.166C294.872 316.802 291.613 318.255 287.887 318.255ZM82.0963 0.765158C78.604 0.765158 75.5553 2.11927 73.5088 4.57886C71.4126 7.09966 70.6246 10.462 71.2902 14.0462L125.183 304.071C126.556 311.473 133.694 317.49 141.092 317.49H287.887C291.38 317.49 294.428 316.136 296.475 313.676C298.571 311.156 299.359 307.793 298.693 304.209L244.8 14.1839C243.427 6.78217 236.289 0.765158 228.891 0.765158H82.0963Z" fill="white"/>
<path d="M146.673 307.793H278.558C285.508 307.793 290.14 302.105 288.847 295.155L238.133 22.2245C236.84 15.2741 230.096 9.58606 223.146 9.58606H91.2614C84.311 9.58606 79.6787 15.2741 80.9717 22.2245L131.686 295.155C132.979 302.105 139.723 307.793 146.673 307.793Z" fill="#232323"/>
<path d="M116.263 212.542C116.083 212.542 115.922 212.412 115.888 212.229L80.5928 22.2933C79.9387 18.778 80.7191 15.4692 82.7923 12.9752C84.8158 10.5423 87.8224 9.19971 91.2613 9.19971H223.146C230.291 9.19971 237.184 15.0102 238.512 22.1518L245.156 57.9095C245.194 58.1161 245.056 58.3188 244.85 58.3571C244.643 58.3953 244.444 58.2576 244.402 58.0511L237.758 22.2933C236.496 15.496 229.939 9.96474 223.146 9.96474H91.2613C88.0558 9.96474 85.2557 11.2079 83.3814 13.4648C81.4573 15.779 80.7344 18.8659 81.3464 22.1556L116.641 212.087C116.68 212.294 116.542 212.493 116.335 212.535C116.312 212.539 116.289 212.542 116.266 212.542H116.263Z" fill="white"/>
<path d="M278.557 308.176H146.673C139.527 308.176 132.634 302.365 131.307 295.224L129.36 284.743C129.322 284.536 129.46 284.337 129.666 284.295C129.873 284.257 130.072 284.395 130.114 284.601L132.061 295.082C133.323 301.88 139.879 307.411 146.673 307.411H278.557C281.763 307.411 284.563 306.168 286.437 303.911C288.361 301.597 289.084 298.51 288.472 295.22L255.438 117.452C255.4 117.246 255.538 117.043 255.744 117.005C255.951 116.967 256.15 117.104 256.192 117.311L289.226 295.078C289.88 298.594 289.1 301.903 287.026 304.397C285.003 306.829 281.996 308.172 278.557 308.172V308.176Z" fill="white"/>
<path d="M175.201 18.9501H140.568C140.357 18.9501 140.185 18.778 140.185 18.5676C140.185 18.3572 140.357 18.1851 140.568 18.1851H175.201C175.411 18.1851 175.584 18.3572 175.584 18.5676C175.584 18.778 175.411 18.9501 175.201 18.9501Z" fill="white"/>
<path d="M234.009 75.4097H104.86L97.5461 36.0563H226.696L234.009 75.4097Z" fill="#FFCCCC"/>
<path d="M265.196 243.247H136.047L128.733 203.894H257.886L265.196 243.247Z" fill="#FFCCCC"/>
<path d="M244.284 130.201H7.73123L0.383057 90.653H236.936L244.284 130.201Z" fill="#232323"/>
<path d="M244.284 130.584H7.73097C7.54736 130.584 7.3867 130.454 7.3561 130.27L0.00792997 90.7219C-0.0111959 90.6109 0.0155803 90.4962 0.0882588 90.4082C0.160937 90.3202 0.268042 90.2705 0.382798 90.2705H236.936C237.119 90.2705 237.28 90.4006 237.311 90.5842L244.659 130.133C244.678 130.244 244.651 130.358 244.578 130.446C244.506 130.534 244.399 130.584 244.284 130.584ZM8.04846 129.819H243.825L236.618 91.0355H0.841819L8.04846 129.819Z" fill="#FFCCCC"/>
<path d="M27.4078 99.7263C21.4979 99.7263 17.5962 104.519 18.694 110.429C19.1301 112.778 20.2929 114.947 21.8995 116.71L20.6793 121.132L24.8525 119.177C26.8225 120.409 29.0832 121.132 31.3821 121.132C37.292 121.132 41.1937 116.339 40.0959 110.429C38.9981 104.519 33.3138 99.7263 27.4039 99.7263H27.4078Z" fill="#FFCCCC"/>
<path d="M225.529 102.182H167.306C167.096 102.182 166.924 102.01 166.924 101.8C166.924 101.589 167.096 101.417 167.306 101.417H225.529C225.74 101.417 225.912 101.589 225.912 101.8C225.912 102.01 225.74 102.182 225.529 102.182Z" fill="white"/>
<path d="M152.881 102.182H54.383C54.1726 102.182 54.0005 102.01 54.0005 101.8C54.0005 101.589 54.1726 101.417 54.383 101.417H152.881C153.092 101.417 153.264 101.589 153.264 101.8C153.264 102.01 153.092 102.182 152.881 102.182Z" fill="white"/>
<path d="M227.132 110.812H102.309C102.098 110.812 101.926 110.64 101.926 110.429C101.926 110.219 102.098 110.047 102.309 110.047H227.132C227.342 110.047 227.515 110.219 227.515 110.429C227.515 110.64 227.342 110.812 227.132 110.812Z" fill="white"/>
<path d="M88.1403 110.812H55.9858C55.7754 110.812 55.6033 110.64 55.6033 110.429C55.6033 110.219 55.7754 110.047 55.9858 110.047H88.1403C88.3506 110.047 88.5228 110.219 88.5228 110.429C88.5228 110.64 88.3506 110.812 88.1403 110.812Z" fill="white"/>
<path d="M228.735 119.438H152.545C152.334 119.438 152.162 119.265 152.162 119.055C152.162 118.845 152.334 118.672 152.545 118.672H228.735C228.945 118.672 229.117 118.845 229.117 119.055C229.117 119.265 228.945 119.438 228.735 119.438Z" fill="white"/>
<path d="M133.3 119.438H57.5925C57.3821 119.438 57.21 119.265 57.21 119.055C57.21 118.845 57.3821 118.672 57.5925 118.672H133.3C133.511 118.672 133.683 118.845 133.683 119.055C133.683 119.265 133.511 119.438 133.3 119.438Z" fill="white"/>
<path d="M241.725 276.14C240.256 268.233 232.655 261.826 224.753 261.826H183.399C175.492 261.826 170.274 268.233 171.743 276.14C173.212 284.047 180.813 290.454 188.716 290.454H230.07C237.976 290.454 243.194 284.047 241.725 276.14Z" fill="#FFCCCC"/>
<path d="M247.991 188.413H201.431C197.452 188.413 193.627 185.189 192.885 181.207L187.61 152.816C186.872 148.838 189.496 145.609 193.478 145.609H240.038C244.016 145.609 247.841 148.834 248.584 152.816L253.859 181.207C254.597 185.185 251.973 188.413 247.991 188.413Z" fill="#FFCCCC"/>
<path d="M179.436 188.413H132.876C128.897 188.413 125.072 185.189 124.33 181.207L119.055 152.816C118.317 148.838 120.941 145.609 124.923 145.609H171.483C175.461 145.609 179.287 148.834 180.029 152.816L185.304 181.207C186.042 185.185 183.418 188.413 179.436 188.413Z" fill="#FFCCCC"/>
<path d="M476.618 318.255H316.488C316.278 318.255 316.105 318.083 316.105 317.873C316.105 317.662 316.278 317.49 316.488 317.49H476.235L476.044 215.928H415.354C415.25 215.928 415.155 215.886 415.082 215.817C415.009 215.744 414.971 215.648 414.971 215.545L415.227 152.17C415.227 151.959 415.4 151.787 415.61 151.787C415.82 151.787 415.992 151.959 415.992 152.17L415.736 215.159H476.426C476.637 215.159 476.809 215.331 476.809 215.541L477 317.869C477 317.972 476.962 318.068 476.889 318.14C476.817 318.213 476.721 318.251 476.618 318.251V318.255Z" fill="white"/>
<circle cx="415" cy="47.7915" r="48" fill="#FF4D59"/>
<path d="M404.018 34.7029L404.014 34.7728C403.897 36.4726 402.444 37.778 400.732 37.7033C398.993 37.6274 397.644 36.1559 397.72 34.4166L400.87 34.5541C397.72 34.4167 397.72 34.4152 397.72 34.4137C397.721 34.4132 397.721 34.4117 397.721 34.4106C397.721 34.4086 397.721 34.4064 397.721 34.4042C397.721 34.3997 397.721 34.3949 397.722 34.3897C397.722 34.3794 397.723 34.3677 397.724 34.3548C397.725 34.3289 397.727 34.2978 397.73 34.2618C397.735 34.1898 397.743 34.0976 397.755 33.9871C397.779 33.7662 397.818 33.4706 397.883 33.1133C398.012 32.4002 398.245 31.4315 398.667 30.3168C399.514 28.0786 401.124 25.2452 404.151 22.7503C407.912 19.65 412.327 18.8431 415.957 18.7936H415.961C419.188 18.754 422.369 19.2816 424.549 20.3446L424.555 20.347C427.427 21.754 434.283 25.7565 434.283 34.5541C434.283 43.5824 428.192 47.6983 423.09 51.2068C420.765 52.805 419.525 54.2373 418.837 55.5166C418.16 56.7747 417.891 58.1181 417.891 59.7714C417.891 61.5123 416.48 62.9236 414.739 62.9236C412.998 62.9236 411.587 61.5123 411.587 59.7714C411.587 57.3836 411.986 54.9436 413.285 52.5299C414.572 50.1373 416.614 48.0091 419.517 46.0122C424.871 42.3307 427.978 39.9217 427.978 34.5541C427.978 29.6747 424.307 27.2467 421.787 26.0114L421.692 25.9668C420.681 25.5073 418.635 25.0658 416.043 25.0971L416.043 25.0973C413.208 25.136 410.407 25.7634 408.161 27.6152L408.16 27.615C406.128 29.2903 405.095 31.1428 404.564 32.5477C404.296 33.2545 404.157 33.8468 404.086 34.2392C404.05 34.4346 404.032 34.578 404.023 34.6578C404.019 34.6976 404.017 34.7214 404.017 34.7276C404.017 34.7306 404.017 34.7293 404.017 34.7234C404.017 34.7204 404.018 34.7162 404.018 34.7109C404.018 34.7085 404.018 34.7058 404.018 34.7029Z" fill="#FFCCCC"/>
<path d="M414.739 76.7915C417.524 76.7915 419.782 74.5335 419.782 71.7481C419.782 68.9626 417.524 66.7046 414.739 66.7046C411.954 66.7046 409.696 68.9626 409.696 71.7481C409.696 74.5335 411.954 76.7915 414.739 76.7915Z" fill="#FFCCCC"/>
<path d="M133.216 256.788C133.943 253.552 131.904 250.339 128.668 249.612C128.427 249.559 128.186 249.524 127.945 249.501C127.887 247.019 127.459 244.594 126.69 242.299C126.908 242.195 127.122 242.081 127.333 241.951C130.136 240.176 130.967 236.465 129.192 233.661C127.417 230.858 123.703 230.027 120.903 231.802C120.692 231.936 120.501 232.082 120.313 232.235C118.565 230.563 116.557 229.14 114.335 228.027C114.415 227.801 114.488 227.568 114.541 227.327C115.268 224.091 113.229 220.878 109.993 220.151C106.757 219.424 103.544 221.459 102.817 224.695C102.764 224.936 102.729 225.177 102.706 225.418C100.224 225.476 97.7984 225.904 95.5033 226.669C95.4 226.451 95.2853 226.237 95.1552 226.026C93.3803 223.222 89.6661 222.392 86.866 224.167C84.0622 225.942 83.2321 229.653 85.007 232.456C85.1409 232.667 85.2863 232.858 85.4393 233.046C83.7677 234.794 82.3409 236.802 81.2316 239.024C81.0059 238.944 80.7725 238.871 80.5316 238.818C77.2954 238.091 74.0823 240.126 73.3555 243.362C72.6287 246.598 74.6676 249.811 77.9037 250.538C78.1446 250.592 78.3856 250.626 78.6266 250.649C78.684 253.132 79.1124 255.557 79.8813 257.852C79.6632 257.955 79.449 258.07 79.2386 258.2C76.4348 259.975 75.6047 263.685 77.3796 266.489C79.1545 269.293 82.8687 270.123 85.6688 268.348C85.8792 268.214 86.0704 268.069 86.2578 267.916C88.006 269.588 90.0142 271.01 92.2366 272.124C92.1563 272.349 92.0836 272.583 92.03 272.824C91.3033 276.06 93.3421 279.273 96.5782 280C99.8143 280.726 103.027 278.691 103.754 275.455C103.808 275.214 103.842 274.973 103.865 274.732C106.348 274.675 108.773 274.247 111.068 273.482C111.171 273.7 111.286 273.914 111.416 274.124C113.191 276.928 116.905 277.758 119.705 275.983C122.509 274.208 123.339 270.498 121.564 267.694C121.43 267.484 121.285 267.292 121.132 267.105C122.804 265.357 124.23 263.349 125.34 261.126C125.565 261.207 125.799 261.279 126.04 261.333C129.276 262.06 132.489 260.025 133.216 256.788ZM114.166 252.516C112.82 258.525 106.853 262.304 100.839 260.958C94.8263 259.611 91.0431 253.644 92.3934 247.635C93.7399 241.625 99.7072 237.846 105.72 239.193C111.734 240.539 115.517 246.506 114.166 252.516Z" fill="#232323"/>
<path d="M97.8866 280.527C97.4238 280.527 96.9571 280.478 96.4866 280.371C93.0478 279.598 90.8789 276.174 91.6478 272.739C91.6784 272.602 91.7166 272.46 91.7625 272.315C89.7467 271.271 87.8838 269.962 86.2237 268.421C86.1013 268.513 85.9789 268.597 85.8603 268.669C82.8843 270.555 78.929 269.668 77.0432 266.692C76.129 265.25 75.8306 263.54 76.2055 261.876C76.5804 260.212 77.5788 258.793 79.0209 257.879C79.1394 257.802 79.2657 257.729 79.4034 257.657C78.7148 255.495 78.3247 253.258 78.2443 250.989C78.0913 250.966 77.9498 250.94 77.8121 250.909C74.3733 250.136 72.2044 246.713 72.9732 243.278C73.7421 239.843 77.1695 237.67 80.6083 238.443C80.746 238.473 80.8837 238.512 81.0329 238.558C82.0772 236.542 83.3854 234.683 84.9308 233.023C84.8389 232.9 84.7548 232.778 84.6821 232.659C83.7679 231.217 83.4695 229.507 83.8444 227.843C84.2193 226.179 85.2176 224.76 86.6597 223.846C89.6357 221.96 93.591 222.848 95.4768 225.824C95.5533 225.942 95.626 226.068 95.6986 226.206C97.8599 225.518 100.098 225.127 102.37 225.047C102.393 224.894 102.419 224.753 102.45 224.615C103.223 221.176 106.646 219.007 110.085 219.78C113.524 220.552 115.693 223.976 114.924 227.411C114.893 227.549 114.855 227.69 114.809 227.836C116.825 228.88 118.688 230.188 120.348 231.73C120.471 231.638 120.593 231.554 120.711 231.481C123.687 229.595 127.643 230.483 129.529 233.459C130.443 234.901 130.741 236.611 130.366 238.275C129.991 239.938 128.993 241.361 127.551 242.272C127.432 242.348 127.306 242.421 127.168 242.494C127.857 244.655 128.247 246.893 128.327 249.161C128.48 249.184 128.626 249.211 128.76 249.241C132.199 250.014 134.367 253.438 133.599 256.873C132.826 260.311 129.402 262.476 125.963 261.708C125.826 261.677 125.684 261.639 125.539 261.593C124.495 263.609 123.186 265.468 121.641 267.128C121.733 267.25 121.817 267.373 121.89 267.491C122.804 268.933 123.102 270.643 122.727 272.307C122.352 273.971 121.354 275.394 119.912 276.304C116.936 278.19 112.981 277.303 111.095 274.327C111.018 274.208 110.946 274.082 110.873 273.944C108.712 274.633 106.47 275.023 104.202 275.103C104.179 275.256 104.152 275.398 104.122 275.536C103.456 278.504 100.813 280.527 97.8866 280.527ZM86.2504 267.533C86.3461 267.533 86.4417 267.568 86.5144 267.64C88.2587 269.308 90.2401 270.701 92.4013 271.783C92.5735 271.871 92.6538 272.07 92.5926 272.254C92.5084 272.495 92.4434 272.709 92.3975 272.912C91.7204 275.937 93.6292 278.952 96.6549 279.629C99.6845 280.306 102.695 278.397 103.376 275.371C103.422 275.172 103.456 274.95 103.479 274.694C103.498 274.503 103.659 274.354 103.85 274.35C106.268 274.296 108.655 273.879 110.942 273.118C111.126 273.057 111.325 273.141 111.409 273.317C111.52 273.547 111.627 273.745 111.734 273.918C113.394 276.538 116.875 277.318 119.495 275.658C120.765 274.855 121.645 273.604 121.974 272.139C122.303 270.674 122.039 269.167 121.236 267.897C121.125 267.721 120.991 267.541 120.83 267.346C120.708 267.197 120.715 266.979 120.849 266.837C122.517 265.093 123.909 263.115 124.992 260.954C125.08 260.782 125.279 260.702 125.462 260.763C125.707 260.851 125.918 260.912 126.12 260.958C129.146 261.635 132.16 259.726 132.841 256.7C133.518 253.675 131.609 250.66 128.584 249.983C128.381 249.938 128.167 249.903 127.907 249.88C127.715 249.861 127.566 249.7 127.562 249.509C127.509 247.092 127.092 244.708 126.331 242.417C126.269 242.234 126.354 242.035 126.53 241.951C126.759 241.84 126.958 241.736 127.13 241.625C128.4 240.822 129.28 239.571 129.609 238.106C129.938 236.641 129.674 235.134 128.871 233.864C127.21 231.244 123.73 230.464 121.109 232.124C120.933 232.235 120.754 232.365 120.558 232.529C120.409 232.652 120.191 232.644 120.054 232.51C118.309 230.842 116.328 229.45 114.167 228.367C113.994 228.279 113.914 228.08 113.975 227.897C114.06 227.656 114.125 227.442 114.17 227.239C114.847 224.213 112.939 221.199 109.913 220.522C106.887 219.845 103.873 221.754 103.192 224.779C103.146 224.982 103.112 225.196 103.089 225.456C103.07 225.648 102.909 225.797 102.718 225.801C100.3 225.854 97.9134 226.271 95.626 227.032C95.4424 227.094 95.2434 227.009 95.1593 226.833C95.0484 226.604 94.9413 226.405 94.8303 226.233C93.1702 223.613 89.6893 222.832 87.069 224.492C85.7991 225.296 84.9193 226.547 84.5903 228.012C84.2613 229.477 84.5253 230.984 85.3286 232.254C85.4395 232.43 85.5696 232.609 85.734 232.805C85.8564 232.954 85.8488 233.172 85.7149 233.313C84.0471 235.058 82.6548 237.035 81.5722 239.196C81.4843 239.369 81.2854 239.449 81.1017 239.388C80.8569 239.3 80.6504 239.238 80.4438 239.193C77.4181 238.516 74.4039 240.424 73.723 243.45C73.0459 246.476 74.9547 249.49 77.9804 250.167C78.1831 250.213 78.3973 250.247 78.6575 250.27C78.8487 250.289 78.9979 250.45 79.0017 250.641C79.0553 253.059 79.4722 255.442 80.2334 257.733C80.2946 257.917 80.2105 258.116 80.0345 258.2C79.805 258.307 79.6099 258.414 79.434 258.525C78.164 259.328 77.2842 260.579 76.9552 262.044C76.6263 263.509 76.8902 265.016 77.6935 266.282C79.3536 268.903 82.8346 269.683 85.4548 268.023C85.6308 267.912 85.8105 267.782 86.0056 267.617C86.0745 267.56 86.1625 267.53 86.2466 267.53L86.2504 267.533ZM103.284 261.612C102.45 261.612 101.605 261.52 100.756 261.333C94.5473 259.94 90.6264 253.759 92.0188 247.551C93.4112 241.342 99.5927 237.425 105.805 238.818C108.811 239.491 111.378 241.296 113.027 243.901C114.675 246.502 115.215 249.593 114.541 252.6C113.34 257.959 108.563 261.612 103.284 261.612ZM103.276 239.303C98.3457 239.303 93.8893 242.712 92.7647 247.719C91.4642 253.514 95.1249 259.286 100.924 260.587C101.716 260.763 102.504 260.851 103.284 260.851C108.215 260.851 112.671 257.443 113.796 252.435C114.427 249.628 113.922 246.743 112.384 244.314C110.843 241.885 108.448 240.199 105.64 239.567C104.848 239.391 104.06 239.303 103.28 239.303H103.276Z" fill="white"/>
<path d="M88.1973 297.595C88.5148 295.109 86.7591 292.833 84.2689 292.516C84.0814 292.493 83.9016 292.485 83.718 292.481C83.5 290.614 83.0066 288.82 82.2683 287.149C82.4251 287.057 82.5781 286.954 82.7273 286.843C84.7126 285.309 85.076 282.459 83.5421 280.474C82.0082 278.489 79.1546 278.125 77.1693 279.655C77.0201 279.77 76.8863 279.892 76.7562 280.023C75.3218 278.886 73.7114 277.957 71.9594 277.276C72.0053 277.1 72.0436 276.92 72.0665 276.733C72.384 274.247 70.6283 271.971 68.1381 271.653C65.6517 271.336 63.3757 273.091 63.0544 275.578C63.0315 275.761 63.02 275.945 63.02 276.129C61.1533 276.347 59.3593 276.84 57.6839 277.578C57.5921 277.421 57.4888 277.268 57.374 277.119C55.8401 275.134 52.9865 274.771 51.0013 276.301C49.016 277.835 48.6526 280.684 50.1865 282.67C50.3013 282.819 50.4237 282.953 50.5537 283.083C49.4176 284.517 48.4881 286.128 47.8072 287.879C47.6313 287.834 47.4515 287.795 47.2641 287.772C44.7777 287.455 42.5017 289.211 42.1804 291.697C41.8629 294.183 43.6187 296.459 46.1089 296.777C46.2963 296.8 46.4761 296.807 46.6597 296.811C46.8777 298.678 47.3712 300.472 48.1094 302.144C47.9526 302.235 47.7996 302.339 47.6504 302.45C45.6651 303.983 45.3017 306.833 46.8356 308.819C48.3695 310.804 51.2231 311.167 53.2084 309.637C53.3576 309.522 53.4915 309.4 53.6215 309.27C55.056 310.406 56.6664 311.335 58.4183 312.016C58.3724 312.192 58.3341 312.372 58.3112 312.56C57.9937 315.046 59.7495 317.322 62.2396 317.639C64.726 317.957 67.002 316.201 67.3233 313.715C67.3463 313.531 67.3539 313.348 67.3577 313.164C69.2244 312.946 71.0184 312.452 72.6939 311.714C72.7857 311.871 72.889 312.024 73.0037 312.173C74.5376 314.158 77.3912 314.522 79.3765 312.992C81.3617 311.458 81.7251 308.608 80.1912 306.623C80.0765 306.474 79.9541 306.34 79.824 306.21C80.9601 304.775 81.8896 303.165 82.5705 301.413C82.7464 301.459 82.9262 301.497 83.1137 301.52C85.6 301.838 87.876 300.082 88.1973 297.595ZM73.5622 295.721C72.9693 300.342 68.7425 303.605 64.1255 303.012C59.5046 302.419 56.2379 298.196 56.8308 293.575C57.4237 288.954 61.6506 285.691 66.2714 286.284C70.8922 286.877 74.1589 291.1 73.566 295.721H73.5622Z" fill="#232323"/>
<path d="M62.8289 318.064C62.6223 318.064 62.4119 318.052 62.1977 318.022C60.8933 317.854 59.7305 317.188 58.9272 316.147C58.1239 315.107 57.772 313.814 57.9403 312.51C57.9518 312.426 57.9632 312.341 57.9824 312.25C56.4332 311.615 54.9796 310.785 53.6523 309.771C53.5834 309.832 53.5184 309.886 53.4495 309.939C51.2998 311.599 48.2014 311.202 46.5413 309.052C45.738 308.011 45.386 306.718 45.5544 305.414C45.7227 304.11 46.3882 302.947 47.4287 302.144C47.4937 302.094 47.5664 302.04 47.6391 301.99C46.9926 300.449 46.5527 298.835 46.3309 297.175C46.2391 297.167 46.1549 297.159 46.0708 297.148C43.3778 296.804 41.4691 294.332 41.8133 291.64C42.1576 288.947 44.6325 287.034 47.3254 287.382C47.4096 287.394 47.4937 287.405 47.5855 287.424C48.2167 285.875 49.0506 284.421 50.0642 283.094C50.003 283.025 49.9495 282.96 49.8998 282.891C49.0965 281.851 48.7446 280.558 48.9129 279.254C49.0812 277.949 49.7468 276.786 50.7872 275.983C52.937 274.323 56.0353 274.721 57.6955 276.871C57.749 276.936 57.7988 277.008 57.8485 277.085C59.39 276.438 61.0043 275.998 62.6644 275.777C62.672 275.685 62.6797 275.601 62.6912 275.516C63.0354 272.824 65.5103 270.915 68.2032 271.259C70.8962 271.603 72.8049 274.074 72.4607 276.767C72.4492 276.851 72.4377 276.936 72.4186 277.027C73.9678 277.662 75.4214 278.492 76.7487 279.506C76.8176 279.445 76.8826 279.391 76.9514 279.338C79.1012 277.678 82.1996 278.075 83.8597 280.225C84.663 281.266 85.0149 282.559 84.8466 283.863C84.6783 285.167 84.0127 286.326 82.9723 287.134C82.9072 287.183 82.8346 287.237 82.7619 287.286C83.4083 288.828 83.8482 290.442 84.0701 292.102C84.1619 292.11 84.2461 292.118 84.3302 292.129C85.6346 292.297 86.7974 292.963 87.6007 294.004C88.404 295.044 88.7559 296.337 88.5876 297.641C88.4193 298.946 87.7537 300.105 86.7133 300.912C85.6728 301.715 84.3799 302.067 83.0755 301.899C82.9914 301.887 82.9072 301.876 82.8154 301.857C82.1843 303.406 81.3504 304.859 80.3367 306.187C80.3979 306.256 80.4515 306.321 80.505 306.389C81.3083 307.43 81.6602 308.723 81.4919 310.027C81.3236 311.332 80.658 312.494 79.6176 313.298C77.4678 314.958 74.3694 314.56 72.7093 312.41C72.6558 312.345 72.606 312.273 72.5563 312.2C71.0148 312.846 69.4005 313.286 67.7404 313.508C67.7327 313.6 67.7251 313.684 67.7136 313.768C67.3961 316.251 65.2732 318.064 62.8327 318.064H62.8289ZM53.6293 308.891C53.7135 308.891 53.7976 308.918 53.8665 308.975C55.2894 310.1 56.8692 311.006 58.5638 311.664C58.7436 311.733 58.843 311.928 58.7971 312.116C58.7512 312.299 58.7168 312.46 58.6977 312.613C58.5561 313.715 58.8545 314.805 59.5316 315.685C60.2124 316.564 61.1917 317.127 62.2933 317.268C64.5693 317.559 66.6579 315.949 66.9486 313.673C66.9677 313.52 66.9792 313.355 66.9792 313.168C66.9792 312.976 67.1245 312.812 67.3158 312.789C69.1213 312.579 70.8809 312.1 72.541 311.37C72.717 311.293 72.9235 311.358 73.023 311.523C73.1186 311.684 73.2104 311.821 73.306 311.944C74.7099 313.757 77.3263 314.093 79.1394 312.693C80.0192 312.016 80.5815 311.033 80.7231 309.932C80.8646 308.83 80.5662 307.74 79.8892 306.86C79.7974 306.741 79.6864 306.615 79.5526 306.481C79.4187 306.344 79.4034 306.126 79.5258 305.976C80.6542 304.553 81.5569 302.974 82.2187 301.279C82.2876 301.099 82.4826 301 82.6701 301.046C82.8575 301.092 83.0143 301.122 83.1674 301.145C84.269 301.287 85.3592 300.992 86.239 300.311C87.1188 299.634 87.6811 298.651 87.8226 297.549C87.9641 296.448 87.6658 295.358 86.9887 294.478C86.3078 293.598 85.3286 293.036 84.2269 292.894C84.0739 292.875 83.9133 292.864 83.722 292.864C83.5307 292.864 83.3663 292.718 83.3433 292.527C83.1329 290.722 82.6548 288.966 81.9242 287.302C81.8477 287.126 81.9127 286.919 82.0772 286.82C82.2378 286.724 82.3755 286.632 82.4979 286.537C83.3777 285.86 83.94 284.877 84.0816 283.775C84.2231 282.673 83.9247 281.583 83.2477 280.703C81.8438 278.89 79.2274 278.554 77.4143 279.954C77.2919 280.049 77.1733 280.153 77.0356 280.29C76.8979 280.424 76.6798 280.439 76.5307 280.317C75.1077 279.192 73.5279 278.286 71.8333 277.628C71.6536 277.559 71.5541 277.364 71.6 277.177C71.6459 276.993 71.6803 276.832 71.6995 276.679C71.9902 274.407 70.3759 272.319 68.1038 272.028C65.8278 271.737 63.7393 273.348 63.4485 275.624C63.4294 275.777 63.4179 275.941 63.4179 276.128C63.4179 276.324 63.2726 276.484 63.0813 276.507C61.2758 276.718 59.5163 277.192 57.8561 277.926C57.6802 278.003 57.4736 277.938 57.3742 277.773C57.2785 277.613 57.1867 277.475 57.0911 277.353C55.6873 275.539 53.0708 275.203 51.2577 276.603C50.3779 277.284 49.8156 278.263 49.6741 279.365C49.5325 280.466 49.8309 281.556 50.508 282.436C50.5998 282.555 50.7107 282.681 50.8446 282.815C50.9785 282.953 50.9938 283.171 50.8714 283.32C49.7429 284.743 48.8402 286.323 48.1823 288.017C48.1134 288.197 47.9183 288.296 47.7309 288.25C47.5473 288.205 47.3866 288.174 47.2336 288.151C44.9576 287.86 42.8691 289.471 42.5784 291.747C42.2876 294.019 43.9019 296.107 46.174 296.398C46.327 296.417 46.4877 296.429 46.679 296.429C46.8702 296.429 47.0347 296.574 47.0576 296.765C47.268 298.571 47.7462 300.327 48.4768 301.99C48.5533 302.166 48.4883 302.373 48.3238 302.472C48.1631 302.568 48.0254 302.66 47.903 302.756C47.0232 303.433 46.4609 304.416 46.3194 305.517C46.1779 306.619 46.4762 307.709 47.1533 308.589C48.5571 310.402 51.1735 310.739 52.9867 309.339C53.1091 309.243 53.2277 309.14 53.3654 309.002C53.438 308.929 53.5375 308.891 53.6331 308.891H53.6293ZM65.212 303.463C64.8333 303.463 64.4546 303.44 64.0721 303.391C61.7349 303.092 59.6578 301.899 58.2157 300.036C56.7736 298.173 56.1463 295.859 56.4485 293.525C57.0681 288.706 61.4939 285.282 66.3136 285.906C68.6508 286.204 70.7279 287.397 72.17 289.26C73.6121 291.123 74.2394 293.437 73.9372 295.771C73.6388 298.108 72.4454 300.185 70.5825 301.623C69.0218 302.828 67.1475 303.463 65.212 303.463ZM65.189 286.598C61.1993 286.598 57.7299 289.566 57.2097 293.625C56.9381 295.759 57.5119 297.871 58.8239 299.569C60.1398 301.271 62.0371 302.358 64.1715 302.633C66.306 302.909 68.4175 302.335 70.1197 301.019C71.8219 299.703 72.9082 297.806 73.1836 295.675C73.4552 293.541 72.8814 291.429 71.5694 289.731C70.2535 288.029 68.3563 286.942 66.2218 286.667C65.8775 286.621 65.5333 286.602 65.1928 286.602L65.189 286.598Z" fill="white"/>
<path d="M415.468 136.287C413.07 136.287 411.123 138.231 411.123 140.633C411.123 143.035 413.066 144.978 415.468 144.978C417.87 144.978 419.814 143.035 419.814 140.633C419.814 138.231 417.87 136.287 415.468 136.287Z" fill="#FFCCCC"/>
<path d="M415.468 123.611C413.07 123.611 411.123 125.554 411.123 127.956C411.123 130.358 413.066 132.302 415.468 132.302C417.87 132.302 419.814 130.358 419.814 127.956C419.814 125.554 417.87 123.611 415.468 123.611Z" fill="#FFCCCC"/>
<path d="M415.468 119.621C417.868 119.621 419.814 117.676 419.814 115.276C419.814 112.876 417.868 110.93 415.468 110.93C413.069 110.93 411.123 112.876 411.123 115.276C411.123 117.676 413.069 119.621 415.468 119.621Z" fill="#FFCCCC"/>
</g>
<defs>
<clipPath id="clip0_72_1941">
<rect width="477" height="318.255" fill="white"/>
</clipPath>
</defs>
</svg>
