<svg width="477" height="319" viewBox="0 0 477 319" fill="none" xmlns="http://www.w3.org/2000/svg">
<g clip-path="url(#clip0_70_488)">
<path d="M141.092 317.873H287.887C295.442 317.873 300.472 311.691 299.068 304.14L245.175 14.1151C243.771 6.56037 236.442 0.382698 228.891 0.382698H82.0963C74.5415 0.382698 69.5114 6.56419 70.9153 14.1151L124.808 304.14C126.212 311.695 133.541 317.873 141.092 317.873Z" fill="#232323"/>
<path d="M287.887 318.255H141.092C133.346 318.255 125.872 311.955 124.43 304.209L70.5367 14.1839C69.829 10.374 70.6744 6.78599 72.9197 4.08924C75.1116 1.45369 78.3706 0.00012207 82.0963 0.00012207H228.891C236.637 0.00012207 244.112 6.30019 245.554 14.0462L299.447 304.071C300.155 307.881 299.309 311.469 297.064 314.166C294.872 316.802 291.613 318.255 287.887 318.255ZM82.0963 0.765158C78.604 0.765158 75.5553 2.11927 73.5088 4.57886C71.4126 7.09966 70.6246 10.462 71.2902 14.0462L125.183 304.071C126.556 311.473 133.694 317.49 141.092 317.49H287.887C291.38 317.49 294.428 316.136 296.475 313.676C298.571 311.156 299.359 307.793 298.693 304.209L244.8 14.1839C243.427 6.78217 236.289 0.765158 228.891 0.765158H82.0963Z" fill="white"/>
<path d="M146.673 307.793H278.558C285.508 307.793 290.14 302.105 288.847 295.155L238.133 22.2245C236.84 15.2741 230.096 9.58611 223.146 9.58611H91.2614C84.311 9.58611 79.6787 15.2741 80.9717 22.2245L131.686 295.155C132.979 302.105 139.723 307.793 146.673 307.793Z" fill="#232323"/>
<path d="M116.263 212.543C116.083 212.543 115.922 212.412 115.888 212.229L80.5928 22.2934C79.9387 18.778 80.7191 15.4692 82.7923 12.9752C84.8158 10.5424 87.8224 9.19976 91.2613 9.19976H223.146C230.291 9.19976 237.184 15.0102 238.512 22.1518L245.156 57.9096C245.194 58.1162 245.056 58.3189 244.85 58.3572C244.643 58.3954 244.444 58.2577 244.402 58.0511L237.758 22.2934C236.496 15.496 229.939 9.9648 223.146 9.9648H91.2613C88.0558 9.9648 85.2557 11.208 83.3814 13.4648C81.4573 15.7791 80.7344 18.866 81.3464 22.1556L116.641 212.087C116.68 212.294 116.542 212.493 116.335 212.535C116.312 212.539 116.289 212.543 116.266 212.543H116.263Z" fill="white"/>
<path d="M278.557 308.176H146.673C139.527 308.176 132.634 302.365 131.307 295.224L129.36 284.743C129.322 284.536 129.46 284.337 129.666 284.295C129.873 284.257 130.072 284.395 130.114 284.601L132.061 295.082C133.323 301.88 139.879 307.411 146.673 307.411H278.557C281.763 307.411 284.563 306.168 286.437 303.911C288.361 301.597 289.084 298.51 288.472 295.22L255.438 117.452C255.4 117.246 255.538 117.043 255.744 117.005C255.951 116.967 256.15 117.104 256.192 117.311L289.226 295.078C289.88 298.594 289.1 301.903 287.026 304.397C285.003 306.829 281.996 308.172 278.557 308.172V308.176Z" fill="white"/>
<path d="M175.201 18.9501H140.568C140.357 18.9501 140.185 18.778 140.185 18.5676C140.185 18.3572 140.357 18.1851 140.568 18.1851H175.201C175.411 18.1851 175.584 18.3572 175.584 18.5676C175.584 18.778 175.411 18.9501 175.201 18.9501Z" fill="white"/>
<path d="M234.009 75.4097H104.86L97.5461 36.0563H226.696L234.009 75.4097Z" fill="#FFCCCC"/>
<path d="M265.196 243.247H136.047L128.733 203.894H257.886L265.196 243.247Z" fill="#FFCCCC"/>
<path d="M244.284 130.202H7.73123L0.383057 90.653H236.936L244.284 130.202Z" fill="#232323"/>
<path d="M244.284 130.584H7.73097C7.54736 130.584 7.3867 130.454 7.3561 130.27L0.00792997 90.7219C-0.0111959 90.611 0.0155803 90.4962 0.0882588 90.4082C0.160937 90.3203 0.268042 90.2705 0.382798 90.2705H236.936C237.119 90.2705 237.28 90.4006 237.311 90.5842L244.659 130.133C244.678 130.244 244.651 130.358 244.578 130.446C244.506 130.534 244.399 130.584 244.284 130.584ZM8.04846 129.819H243.825L236.618 91.0356H0.841819L8.04846 129.819Z" fill="#FFCCCC"/>
<path d="M27.4078 99.7263C21.4979 99.7263 17.5962 104.519 18.694 110.429C19.1301 112.778 20.2929 114.947 21.8995 116.71L20.6793 121.132L24.8525 119.177C26.8225 120.409 29.0832 121.132 31.3821 121.132C37.292 121.132 41.1937 116.339 40.0959 110.429C38.9981 104.519 33.3138 99.7263 27.4039 99.7263H27.4078Z" fill="#FFCCCC"/>
<path d="M225.529 102.182H167.306C167.096 102.182 166.924 102.01 166.924 101.8C166.924 101.589 167.096 101.417 167.306 101.417H225.529C225.74 101.417 225.912 101.589 225.912 101.8C225.912 102.01 225.74 102.182 225.529 102.182Z" fill="white"/>
<path d="M152.881 102.182H54.383C54.1726 102.182 54.0005 102.01 54.0005 101.8C54.0005 101.589 54.1726 101.417 54.383 101.417H152.881C153.092 101.417 153.264 101.589 153.264 101.8C153.264 102.01 153.092 102.182 152.881 102.182Z" fill="white"/>
<path d="M227.132 110.812H102.309C102.098 110.812 101.926 110.64 101.926 110.429C101.926 110.219 102.098 110.047 102.309 110.047H227.132C227.342 110.047 227.515 110.219 227.515 110.429C227.515 110.64 227.342 110.812 227.132 110.812Z" fill="white"/>
<path d="M88.1403 110.812H55.9858C55.7754 110.812 55.6033 110.64 55.6033 110.429C55.6033 110.219 55.7754 110.047 55.9858 110.047H88.1403C88.3506 110.047 88.5228 110.219 88.5228 110.429C88.5228 110.64 88.3506 110.812 88.1403 110.812Z" fill="white"/>
<path d="M228.735 119.437H152.545C152.334 119.437 152.162 119.265 152.162 119.055C152.162 118.845 152.334 118.672 152.545 118.672H228.735C228.945 118.672 229.117 118.845 229.117 119.055C229.117 119.265 228.945 119.437 228.735 119.437Z" fill="white"/>
<path d="M133.3 119.437H57.5925C57.3821 119.437 57.21 119.265 57.21 119.055C57.21 118.845 57.3821 118.672 57.5925 118.672H133.3C133.511 118.672 133.683 118.845 133.683 119.055C133.683 119.265 133.511 119.437 133.3 119.437Z" fill="white"/>
<path d="M241.725 276.14C240.256 268.233 232.655 261.826 224.753 261.826H183.399C175.492 261.826 170.274 268.233 171.743 276.14C173.212 284.047 180.813 290.454 188.716 290.454H230.07C237.976 290.454 243.194 284.047 241.725 276.14Z" fill="#FFCCCC"/>
<path d="M247.991 188.413H201.431C197.452 188.413 193.627 185.189 192.885 181.207L187.61 152.816C186.872 148.838 189.496 145.609 193.478 145.609H240.038C244.016 145.609 247.841 148.834 248.584 152.816L253.859 181.207C254.597 185.185 251.973 188.413 247.991 188.413Z" fill="#FFCCCC"/>
<path d="M179.436 188.413H132.876C128.897 188.413 125.072 185.189 124.33 181.207L119.055 152.816C118.317 148.838 120.941 145.609 124.923 145.609H171.483C175.461 145.609 179.287 148.834 180.029 152.816L185.304 181.207C186.042 185.185 183.418 188.413 179.436 188.413Z" fill="#FFCCCC"/>
<path d="M476.618 318.255H316.488C316.278 318.255 316.105 318.083 316.105 317.873C316.105 317.662 316.278 317.49 316.488 317.49H476.235L476.044 215.928H415.354C415.25 215.928 415.155 215.886 415.082 215.817C415.009 215.744 414.971 215.648 414.971 215.545L415.227 152.17C415.227 151.959 415.4 151.787 415.61 151.787C415.82 151.787 415.992 151.959 415.992 152.17L415.736 215.159H476.426C476.637 215.159 476.809 215.331 476.809 215.541L477 317.869C477 317.972 476.962 318.068 476.889 318.14C476.817 318.213 476.721 318.251 476.618 318.251V318.255Z" fill="white"/>
<path d="M287.96 51.9997C286.927 61.773 288.449 65.2922 293.246 68.4862C306.336 77.2 317.134 89.1192 330.905 96.9914C341.75 103.188 353.076 109.125 365.469 111.076C370.702 111.898 376.455 111.879 380.831 108.949C386.022 105.472 387.942 98.51 386.653 92.4777C385.364 86.4454 381.401 81.27 376.842 77.024C366.804 67.6714 305.12 13.4457 288.105 35.7886C284.896 42.5285 288.381 47.9909 287.956 52.0035L287.96 51.9997Z" fill="white"/>
<path d="M211.441 53.0287C212.233 51.7549 218.67 47.6505 238.508 63.6933C239.552 64.5386 240.57 65.3457 241.564 66.1261C240.78 72.1431 238.267 80.5853 230.708 86.0629C225.72 80.3596 218.529 71.8639 215.966 70.154C212.879 68.0922 214.379 65.231 214.379 65.231C212.611 63.2687 214.665 61.0271 214.665 61.0271C213.021 57.179 218.797 57.8407 218.797 57.8407C218.341 55.6451 210.645 54.3063 211.437 53.0287H211.441Z" fill="#232323"/>
<path d="M230.708 86.4454C230.601 86.4454 230.494 86.3995 230.422 86.3154C229.676 85.4624 228.88 84.5482 228.058 83.5995C223.529 78.3858 217.894 71.8983 215.756 70.4715C212.96 68.6048 213.637 66.084 213.939 65.296C212.684 63.6971 213.495 61.8687 214.23 60.9544C213.87 59.9943 213.92 59.2025 214.375 58.5943C215.186 57.508 217.102 57.3932 218.143 57.4162C217.431 56.632 215.595 55.8861 214.187 55.3123C212.317 54.5511 211.25 54.0882 211.039 53.4418C210.971 53.2314 210.997 53.0172 211.12 52.8259C211.46 52.2789 212.378 51.6019 213.939 51.3418C217.003 50.8254 224.297 51.7052 238.753 63.3949C239.701 64.1638 240.7 64.9594 241.805 65.8239C241.97 65.954 242 66.1949 241.87 66.3594C241.74 66.5239 241.499 66.5545 241.335 66.4244C240.229 65.5561 239.227 64.7605 238.275 63.9878C224.053 52.4855 217.003 51.5981 214.069 52.0953C212.665 52.3325 211.965 52.9216 211.774 53.2314C211.866 53.5412 213.442 54.18 214.482 54.6046C216.655 55.4883 218.9 56.4025 219.183 57.7642C219.21 57.8828 219.176 58.0091 219.091 58.1009C219.007 58.1927 218.889 58.2347 218.766 58.2233C217.959 58.1315 215.706 58.1009 214.995 59.0533C214.681 59.4741 214.692 60.0899 215.029 60.8779C215.086 61.0156 215.06 61.1763 214.96 61.2872C214.888 61.3676 213.162 63.3031 214.673 64.9785C214.78 65.0971 214.803 65.2692 214.727 65.4108C214.673 65.5141 213.434 68.0004 216.188 69.8365C218.41 71.3207 223.846 77.5787 228.643 83.0984C229.465 84.0432 230.261 84.9574 231.003 85.8105C231.141 85.9711 231.125 86.2121 230.969 86.3498C230.896 86.4148 230.808 86.4454 230.716 86.4454H230.708Z" fill="white"/>
<path d="M241.564 66.1261C259.432 80.1569 268.968 83.9132 268.968 83.9132C268.968 83.9132 278.538 73.9983 287.727 68.9797C296.915 63.9611 330.576 63.7851 330.576 63.7851C330.576 63.7851 335.113 109.431 292.887 111.81C250.661 114.19 238.015 94.1494 233.44 89.1422C232.659 88.2892 231.73 87.2335 230.705 86.0668C238.263 80.5891 240.776 72.1431 241.56 66.1299L241.564 66.1261Z" fill="#232323"/>
<path d="M286.143 112.388C272.456 112.388 260.755 109.886 251.28 104.929C242.218 100.185 237.391 94.4209 234.507 90.9745C233.99 90.3548 233.543 89.8193 233.156 89.3985C232.468 88.6411 231.596 87.6618 230.418 86.3154C230.345 86.2351 230.314 86.128 230.326 86.0208C230.337 85.9137 230.395 85.8181 230.483 85.7531C237.907 80.371 240.398 72.0819 241.186 66.0764C241.205 65.9386 241.293 65.8239 241.419 65.7703C241.545 65.7168 241.69 65.7397 241.801 65.8239C257.902 78.4661 267.315 82.7847 268.88 83.458C270.257 82.0618 279.108 73.2524 287.547 68.643C296.716 63.6359 329.199 63.4064 330.58 63.3987C330.775 63.3987 330.94 63.5479 330.962 63.743C330.985 63.9572 332.963 85.4547 320.799 99.6691C314.269 107.3 304.89 111.512 292.913 112.185C290.607 112.315 288.35 112.38 286.143 112.38V112.388ZM231.271 86.1241C232.307 87.3099 233.091 88.1897 233.726 88.8821C234.124 89.3143 234.576 89.8575 235.1 90.481C240.887 97.3969 254.44 113.593 292.871 111.428C304.63 110.766 313.83 106.646 320.214 99.1833C331.322 86.2045 330.427 66.9906 330.228 64.1714C326.602 64.2097 296.41 64.6763 287.914 69.3163C278.879 74.2508 269.343 84.0815 269.247 84.1771C269.14 84.288 268.975 84.3263 268.83 84.2689C268.734 84.2307 259.225 80.4093 241.851 66.8376C240.964 72.8354 238.385 80.7803 231.271 86.1241Z" fill="white"/>
<path d="M230.464 69.1441C230.349 69.1441 230.238 69.0944 230.161 68.995C229.274 67.8474 227.656 67.5223 226.191 67.3578L225.835 67.3195C224.32 67.1512 222.752 66.9791 221.516 66.0228C220.881 65.5294 220.281 64.6763 220.491 63.7506C220.69 62.8785 221.509 62.2779 222.92 61.9681C224.634 61.5894 226.39 61.4173 228.142 61.4441C228.352 61.4441 228.52 61.62 228.517 61.8342C228.517 62.0446 228.333 62.2091 228.126 62.2091C226.432 62.1747 224.733 62.3506 223.081 62.714C221.983 62.955 221.363 63.3605 221.233 63.919C221.103 64.4927 221.555 65.0856 221.979 65.4184C223.043 66.2447 224.5 66.4053 225.912 66.5583L226.267 66.5966C227.889 66.7802 229.695 67.1551 230.754 68.5283C230.884 68.6966 230.854 68.9338 230.685 69.0638C230.617 69.1174 230.532 69.1441 230.452 69.1441H230.464Z" fill="white"/>
<path d="M221.352 62.9474C221.214 62.9474 221.08 62.8747 221.011 62.7408C220.495 61.7539 219.814 60.8741 218.995 60.1206C218.839 59.979 218.831 59.7342 218.973 59.5812C219.114 59.4244 219.355 59.4167 219.512 59.5583C220.399 60.3692 221.13 61.3217 221.688 62.3889C221.788 62.5763 221.715 62.8058 221.528 62.9053C221.47 62.9359 221.409 62.9474 221.352 62.9474Z" fill="white"/>
<path d="M220.633 64.902H220.625C218.506 64.8485 216.456 63.8233 215.144 62.1594C215.014 61.9949 215.04 61.7539 215.209 61.6239C215.377 61.4938 215.614 61.5206 215.744 61.6889C216.919 63.1769 218.747 64.0949 220.644 64.1408C220.855 64.1446 221.023 64.3206 221.019 64.531C221.015 64.7375 220.843 64.9059 220.637 64.9059L220.633 64.902Z" fill="white"/>
<path d="M219.294 68.8649C218.655 68.8649 217.986 68.7158 217.343 68.4174C216.288 67.9278 215.446 67.1283 214.834 66.4857C214.689 66.3327 214.692 66.0917 214.845 65.9463C214.998 65.801 215.239 65.8048 215.385 65.9578C215.951 66.5507 216.724 67.2851 217.665 67.725C218.579 68.1496 219.543 68.2185 220.319 67.9201C221.165 67.5911 221.761 66.7726 221.735 65.9693C221.727 65.7589 221.891 65.5791 222.102 65.5753C222.312 65.5638 222.492 65.7321 222.496 65.9425C222.534 67.0786 221.754 68.1841 220.591 68.6316C220.189 68.7884 219.746 68.8649 219.29 68.8649H219.294Z" fill="white"/>
<path d="M219.023 71.0797C218.46 71.0797 217.929 70.9037 217.473 70.7278C217.278 70.6513 217.179 70.4294 217.259 70.2305C217.336 70.0354 217.558 69.936 217.756 70.0163C218.2 70.1923 218.724 70.3606 219.229 70.307C219.692 70.2573 220.097 69.9742 220.208 69.6261C220.315 69.2933 220.201 68.8955 220.055 68.448C219.99 68.2491 220.097 68.031 220.3 67.966C220.503 67.901 220.717 68.0081 220.782 68.2108C220.927 68.6584 221.13 69.2666 220.935 69.8633C220.729 70.5021 220.078 70.9879 219.313 71.072C219.218 71.0835 219.118 71.0873 219.023 71.0873V71.0797Z" fill="white"/>
<path d="M272.816 86.9733C272.743 86.9733 272.667 86.9504 272.602 86.9083L269.603 84.8771C269.427 84.7585 269.381 84.5214 269.5 84.3454C269.618 84.1695 269.855 84.1235 270.031 84.2421L273.03 86.2733C273.206 86.3919 273.252 86.629 273.134 86.805C273.061 86.9159 272.939 86.9733 272.816 86.9733Z" fill="white"/>
<path d="M312.223 64.1752C333.525 63.6512 330.821 63.7851 330.821 63.7851C330.821 63.7851 372.994 123.576 381.765 154.182C385.915 168.66 385.288 177.202 383.429 182.201C381.83 186.505 377.289 188.956 372.81 187.947L309.748 173.736C306.129 172.921 303.345 170.033 302.656 166.388C299.183 147.924 288.744 92.8105 286.701 86.0629C284.242 77.9382 290.917 64.6993 312.219 64.1752H312.223Z" fill="#232323"/>
<path d="M374.573 188.551C373.881 188.551 373.181 188.475 372.485 188.318L309.423 174.107C305.651 173.258 302.755 170.255 302.04 166.457C298.819 149.335 288.147 92.9445 286.097 86.1701C286.036 85.9673 286.15 85.7531 286.353 85.6919C286.552 85.6307 286.77 85.7455 286.831 85.9482C288.893 92.757 299.573 149.182 302.794 166.315C303.452 169.811 306.122 172.577 309.591 173.357L372.653 187.568C376.93 188.532 381.302 186.164 382.828 182.06C385.184 175.721 384.622 166.376 381.153 154.281C378.502 145.024 372.504 132.149 363.335 116.006C363.232 115.823 363.297 115.59 363.48 115.486C363.664 115.383 363.897 115.448 364 115.632C373.2 131.827 379.221 144.76 381.887 154.075C385.398 166.331 385.957 175.84 383.543 182.331C382.132 186.122 378.486 188.551 374.569 188.551H374.573Z" fill="white"/>
<path d="M366.923 308.941C367.577 313.661 363.909 317.873 359.143 317.873H315.953C313.841 317.873 312.674 315.425 314.006 313.784L321.966 303.976L321.947 303.788H366.212L366.927 308.941H366.923Z" fill="#232323"/>
<path d="M311.653 130.427L350.429 122.364L353.741 134.413L345.498 154.27L366.208 303.785H321.943L304.006 140.954C303.459 136.001 306.772 131.441 311.653 130.427Z" fill="#850122"/>
<path d="M359.143 318.255H315.952C314.828 318.255 313.826 317.624 313.344 316.607C312.858 315.589 312.999 314.415 313.711 313.543L321.671 303.735C321.805 303.57 322.046 303.547 322.21 303.677C322.375 303.811 322.398 304.052 322.268 304.217L314.308 314.025C313.78 314.679 313.676 315.52 314.04 316.278C314.399 317.035 315.119 317.49 315.96 317.49H359.15C361.311 317.49 363.366 316.557 364.785 314.927C366.204 313.298 366.846 311.137 366.552 308.994L365.837 303.842C365.806 303.632 365.955 303.44 366.162 303.41C366.368 303.379 366.563 303.528 366.594 303.735L367.309 308.887C367.634 311.247 366.927 313.631 365.362 315.428C363.798 317.226 361.533 318.255 359.15 318.255H359.143Z" fill="white"/>
<path d="M411.858 288.679C417.427 281.652 422.802 272.743 424.584 263.433C425.468 264.106 426.367 264.775 427.285 265.441C431.921 268.796 433.864 274.763 432.028 280.183C429.595 287.359 425.686 297.324 420.491 305.533C415.614 313.244 407.084 317.877 397.957 317.877H391.546C390.215 317.877 389.458 316.347 390.269 315.291L396.4 303.792C396.4 303.792 396.362 303.754 396.293 303.685C401.744 299.175 408.633 292.745 411.85 288.683L411.858 288.679Z" fill="#232323"/>
<path d="M347.17 134.555L350.429 122.368C350.429 122.368 372.55 143.36 376.876 175.446C380.843 204.846 389.281 236.634 424.584 263.433C422.801 272.743 417.427 281.652 411.858 288.679C408.641 292.737 401.751 299.168 396.301 303.681C394.346 301.658 364.965 271.068 349.997 242.662C334.512 213.269 335.821 160.75 320.906 159.858L347.17 134.559V134.555Z" fill="#850122"/>
<path d="M360.21 259.864C360.088 259.864 359.965 259.806 359.892 259.696C355.857 253.744 352.414 248.071 349.656 242.838C342.717 229.672 339.141 211.892 335.985 196.209C332.152 177.163 328.843 160.715 320.879 160.237C320.669 160.226 320.508 160.042 320.52 159.832C320.531 159.621 320.719 159.457 320.925 159.472C329.478 159.985 332.68 175.901 336.735 196.056C339.879 211.69 343.444 229.412 350.329 242.478C353.076 247.688 356.503 253.334 360.524 259.263C360.642 259.439 360.596 259.676 360.42 259.795C360.355 259.841 360.279 259.86 360.206 259.86L360.21 259.864Z" fill="white"/>
<path d="M397.961 318.255H391.55C390.784 318.255 390.104 317.831 389.763 317.146C389.43 316.473 389.503 315.685 389.951 315.08L396.067 303.609C396.167 303.421 396.4 303.352 396.583 303.452C396.771 303.551 396.84 303.785 396.74 303.968L390.609 315.467C390.609 315.467 390.586 315.505 390.574 315.52C390.283 315.899 390.237 316.381 390.448 316.809C390.658 317.238 391.071 317.494 391.546 317.494H397.957C407.045 317.494 415.35 312.946 420.166 305.33C425.379 297.087 429.296 287.038 431.664 280.061C433.451 274.79 431.603 269.04 427.059 265.751C426.887 265.628 426.848 265.387 426.975 265.215C427.097 265.043 427.338 265.005 427.51 265.131C432.326 268.616 434.284 274.717 432.391 280.306C430.012 287.321 426.072 297.431 420.816 305.739C415.859 313.581 407.313 318.259 397.961 318.259V318.255Z" fill="white"/>
<path d="M296.154 51.6095L303.724 64.8752L300.216 66.7725C300.216 66.7725 310.973 75.0655 323.978 63.9304L318.73 63.7889L306.845 47.4439L296.154 51.6133V51.6095Z" fill="#232323"/>
<path d="M309.974 70.0928C304.007 70.0928 300.044 67.1244 299.983 67.0747C299.814 66.9447 299.784 66.7075 299.914 66.5392C300.044 66.3709 300.281 66.3403 300.449 66.4703C300.862 66.7878 310.724 74.136 323.003 64.2441C323.167 64.1102 323.408 64.137 323.542 64.3015C323.676 64.4659 323.649 64.7069 323.485 64.8408C318.489 68.8649 313.818 70.0966 309.978 70.0966L309.974 70.0928Z" fill="white"/>
<path d="M306.922 50.416C306.922 50.416 302.84 56.7352 296.291 54.5128C289.743 52.2904 290.638 44.8045 291.625 42.2569C292.615 39.7094 293.683 38.7607 293.683 38.7607C293.683 38.7607 300.35 45.4127 304.493 42.6356C304.73 42.4788 306.918 50.4122 306.918 50.4122L306.922 50.416Z" fill="#232323"/>
<path d="M299.038 55.3658C298.139 55.3658 297.182 55.2205 296.169 54.8762C293.962 54.1265 292.374 52.7417 291.449 50.7603C290.033 47.7231 290.565 43.9285 291.269 42.1192C292.279 39.5181 293.384 38.5159 293.43 38.4776C293.583 38.3438 293.812 38.3514 293.954 38.4929C294.019 38.558 300.445 44.8925 304.282 42.322C304.385 42.2531 304.527 42.2378 304.642 42.2799C304.867 42.364 305.12 42.4597 307.289 50.3166C307.319 50.4199 307.3 50.5346 307.243 50.6264C307.208 50.6838 304.11 55.3696 299.038 55.3696V55.3658ZM293.698 39.3077C293.342 39.7285 292.642 40.6924 291.98 42.3985C291.326 44.0854 290.825 47.6198 292.141 50.439C292.975 52.2215 294.409 53.4724 296.414 54.1532C302.079 56.0735 305.866 51.2384 306.504 50.3472C305.686 47.3903 304.737 44.1657 304.355 43.1711C300.468 45.2788 295.017 40.5432 293.698 39.3077Z" fill="white"/>
<path d="M299.478 38.7607C299.478 38.7607 307.32 67.2201 322.138 63.3298L313.26 43.5078L299.474 38.7607H299.478Z" fill="white"/>
<path d="M286.888 109.603H313.565C315.088 109.603 316.151 108.1 315.646 106.665L304.687 75.4137C304.377 74.53 303.543 73.9371 302.606 73.9371H275.929C274.407 73.9371 273.344 75.4404 273.848 76.8749L284.808 108.127C285.117 109.01 285.951 109.603 286.888 109.603Z" fill="white"/>
<path d="M289.853 79.8088C289.344 80.3175 289.344 81.1399 289.853 81.6487C290.362 82.1574 291.184 82.1574 291.693 81.6487C292.201 81.1399 292.201 80.3175 291.693 79.8088C291.184 79.3 290.362 79.3 289.853 79.8088Z" fill="#FF4D59"/>
<path d="M303.471 92.7532C303.471 92.7532 301.639 92.3554 302.369 90.5499C303.027 88.9242 312.494 85.0149 328.755 93.4303C330.415 94.2871 331.911 95.0789 333.257 95.8019C332.045 99.956 329.241 107.893 324.333 113.134C320.516 108.796 316.362 104.791 311.435 104.076C302.733 102.813 310.115 100.974 310.115 100.974C310.115 100.974 303.616 100.905 303.616 99.409C303.616 97.4199 308.868 97.2631 311.094 97.2822C311.699 97.3013 312.077 97.3052 312.077 97.3052C312.077 97.3052 311.695 97.286 311.094 97.2822C308.623 97.1981 302.296 96.8347 301.7 95.3122C300.954 93.415 303.471 92.7494 303.471 92.7494V92.7532Z" fill="#232323"/>
<path d="M324.333 113.516H324.326C324.219 113.516 324.115 113.467 324.043 113.386C320.328 109.163 316.224 105.158 311.377 104.454C307.403 103.877 306.837 103.188 306.81 102.595C306.783 102.056 307.361 101.612 308.065 101.276C305.858 101.115 303.234 100.66 303.234 99.409C303.234 98.9997 303.394 98.6363 303.712 98.3188C304.209 97.8254 305.089 97.5002 306.106 97.286C303.693 96.9609 301.715 96.4024 301.344 95.45C301.114 94.8609 301.122 94.3139 301.375 93.8166C301.635 93.304 302.109 92.9521 302.53 92.7226C302.331 92.5772 302.14 92.3783 302.002 92.122C301.746 91.6324 301.746 91.0548 302.01 90.4007C302.243 89.8269 303.111 89.2226 304.389 88.7482C306.6 87.9296 314.897 85.8258 328.924 93.0822C330.511 93.9046 332.026 94.704 333.433 95.4576C333.594 95.5418 333.671 95.7292 333.621 95.9013C332.378 100.166 329.551 108.107 324.609 113.386C324.536 113.463 324.437 113.509 324.329 113.509L324.333 113.516ZM310.719 97.6647C307.422 97.6647 305.016 98.1084 304.251 98.8658C304.083 99.0341 303.999 99.2101 303.999 99.409C303.999 99.9943 306.917 100.557 310.119 100.591C310.31 100.591 310.471 100.736 310.494 100.928C310.517 101.119 310.394 101.295 310.207 101.345C308.772 101.704 307.594 102.301 307.575 102.553C307.575 102.557 307.728 103.146 311.488 103.693C316.453 104.416 320.6 108.345 324.337 112.556C328.889 107.518 331.559 100.163 332.802 95.9855C331.479 95.2778 330.06 94.5281 328.579 93.763C314.832 86.6482 306.795 88.6756 304.66 89.4635C303.318 89.9608 302.809 90.4772 302.725 90.6838C302.549 91.116 302.534 91.4794 302.679 91.7587C302.924 92.2253 303.547 92.3707 303.555 92.3745C303.727 92.4128 303.849 92.5658 303.853 92.7417C303.853 92.9177 303.739 93.0745 303.57 93.1204C303.559 93.1204 302.426 93.4341 302.059 94.1647C301.91 94.4631 301.91 94.792 302.059 95.1707C302.404 96.0467 305.957 96.7237 311.113 96.8997C311.714 96.9073 312.104 96.9265 312.104 96.9265C312.311 96.9379 312.475 97.1101 312.468 97.3205C312.46 97.527 312.299 97.6915 312.081 97.6915C312.081 97.6915 311.699 97.6877 311.091 97.6647C310.968 97.6647 310.846 97.6647 310.727 97.6647H310.719Z" fill="white"/>
<path d="M313.022 93.4226C312.999 93.4226 312.976 93.4226 312.954 93.415C310.452 92.9521 307.373 92.8603 304.037 93.1472C303.827 93.1701 303.639 93.0095 303.624 92.7991C303.605 92.5887 303.762 92.4051 303.972 92.386C306.344 92.1832 309.847 92.0647 313.091 92.6652C313.298 92.7035 313.435 92.9024 313.397 93.1128C313.363 93.2964 313.202 93.4264 313.022 93.4264V93.4226Z" fill="white"/>
<path d="M345.548 103.429L322.141 67.1742L330.584 63.7851C330.584 63.7851 344.618 62.9053 361.139 86.0744C377.66 109.244 383.44 122.597 371.238 132.218C359.035 141.838 338.972 127.865 332.707 122.364C329.987 119.977 327.263 116.454 324.337 113.13C329.245 107.889 332.049 99.956 333.261 95.798C344.534 101.857 345.548 103.425 345.548 103.425V103.429Z" fill="#232323"/>
<path d="M361.189 135.874C350.677 135.874 338.678 128.121 332.45 122.651C330.465 120.907 328.507 118.6 326.43 116.159C325.653 115.245 324.854 114.304 324.043 113.382C323.913 113.233 323.916 113.011 324.05 112.87C328.885 107.706 331.662 99.891 332.887 95.6909C332.944 95.4882 333.158 95.3696 333.361 95.4308C333.564 95.4882 333.678 95.7024 333.621 95.9051C332.397 100.101 329.643 107.859 324.842 113.138C325.577 113.979 326.303 114.836 327.007 115.666C329.061 118.087 331.005 120.371 332.948 122.081C339.079 127.467 350.892 135.125 361.147 135.129C364.72 135.129 368.101 134.199 370.989 131.923C377.507 126.782 378.953 120.482 375.679 111.493C375.606 111.294 375.709 111.076 375.908 111.003C376.107 110.93 376.325 111.034 376.398 111.233C379.802 120.581 378.284 127.149 371.463 132.524C368.438 134.91 364.903 135.882 361.185 135.882L361.189 135.874Z" fill="white"/>
<path d="M354.177 109.97C354.101 109.97 354.024 109.947 353.955 109.898L353.795 109.783C345.238 103.678 338.265 99.0839 333.07 96.1308C332.886 96.0275 332.821 95.7942 332.925 95.6106C333.028 95.427 333.261 95.362 333.445 95.4652C338.662 98.4336 345.659 103.039 354.235 109.159L354.395 109.274C354.567 109.397 354.606 109.634 354.483 109.806C354.411 109.909 354.292 109.967 354.173 109.967L354.177 109.97Z" fill="white"/>
<path d="M432.965 4.78544C417.067 -3.85564 397.322 1.6794 388.864 17.1484C385.012 24.1906 384.167 32.0781 385.888 39.3995L376.318 52.6691L392.1 52.21C394.805 55.6259 398.244 58.5713 402.337 60.7976C418.234 69.4386 437.98 63.9036 446.437 48.4346C454.894 32.9694 448.866 13.4265 432.969 4.78544H432.965Z" fill="#FF4D59"/>
<path d="M133.216 256.788C133.943 253.552 131.904 250.339 128.668 249.612C128.427 249.559 128.186 249.524 127.945 249.501C127.887 247.019 127.459 244.594 126.69 242.299C126.908 242.195 127.122 242.081 127.333 241.95C130.136 240.176 130.967 236.465 129.192 233.661C127.417 230.857 123.703 230.027 120.903 231.802C120.692 231.936 120.501 232.082 120.313 232.235C118.565 230.563 116.557 229.14 114.335 228.027C114.415 227.801 114.488 227.568 114.541 227.327C115.268 224.091 113.229 220.878 109.993 220.151C106.757 219.424 103.544 221.459 102.817 224.695C102.764 224.936 102.729 225.177 102.706 225.418C100.224 225.475 97.7984 225.904 95.5033 226.669C95.4 226.451 95.2853 226.237 95.1552 226.026C93.3803 223.222 89.6661 222.392 86.866 224.167C84.0622 225.942 83.2321 229.653 85.007 232.456C85.1409 232.667 85.2863 232.858 85.4393 233.045C83.7677 234.794 82.3409 236.802 81.2316 239.024C81.0059 238.944 80.7725 238.871 80.5316 238.818C77.2954 238.091 74.0823 240.126 73.3555 243.362C72.6287 246.598 74.6676 249.811 77.9037 250.538C78.1446 250.592 78.3856 250.626 78.6266 250.649C78.684 253.131 79.1124 255.557 79.8813 257.852C79.6632 257.955 79.449 258.07 79.2386 258.2C76.4348 259.975 75.6047 263.685 77.3796 266.489C79.1545 269.293 82.8687 270.123 85.6688 268.348C85.8792 268.214 86.0704 268.069 86.2578 267.916C88.006 269.587 90.0142 271.01 92.2366 272.124C92.1563 272.349 92.0836 272.583 92.03 272.824C91.3033 276.06 93.3421 279.273 96.5782 280C99.8143 280.726 103.027 278.691 103.754 275.455C103.808 275.214 103.842 274.973 103.865 274.732C106.348 274.675 108.773 274.246 111.068 273.481C111.171 273.699 111.286 273.914 111.416 274.124C113.191 276.928 116.905 277.758 119.705 275.983C122.509 274.208 123.339 270.498 121.564 267.694C121.43 267.484 121.285 267.292 121.132 267.105C122.804 265.357 124.23 263.349 125.34 261.126C125.565 261.206 125.799 261.279 126.04 261.333C129.276 262.059 132.489 260.024 133.216 256.788ZM114.166 252.516C112.82 258.525 106.853 262.304 100.839 260.958C94.8263 259.611 91.0431 253.644 92.3934 247.635C93.7399 241.625 99.7072 237.846 105.72 239.193C111.734 240.539 115.517 246.506 114.166 252.516Z" fill="#232323"/>
<path d="M97.8866 280.527C97.4238 280.527 96.9571 280.478 96.4866 280.371C93.0478 279.598 90.8789 276.174 91.6478 272.739C91.6784 272.602 91.7166 272.46 91.7625 272.315C89.7467 271.27 87.8838 269.962 86.2237 268.421C86.1013 268.513 85.9789 268.597 85.8603 268.669C82.8843 270.555 78.929 269.668 77.0432 266.692C76.129 265.25 75.8306 263.54 76.2055 261.876C76.5804 260.212 77.5788 258.793 79.0209 257.879C79.1394 257.802 79.2657 257.729 79.4034 257.657C78.7148 255.495 78.3247 253.258 78.2443 250.989C78.0913 250.966 77.9498 250.94 77.8121 250.909C74.3733 250.136 72.2044 246.713 72.9732 243.278C73.7421 239.843 77.1695 237.67 80.6083 238.443C80.746 238.473 80.8837 238.512 81.0329 238.558C82.0772 236.542 83.3854 234.683 84.9308 233.022C84.8389 232.9 84.7548 232.778 84.6821 232.659C83.7679 231.217 83.4695 229.507 83.8444 227.843C84.2193 226.179 85.2176 224.76 86.6597 223.846C89.6357 221.96 93.591 222.848 95.4768 225.823C95.5533 225.942 95.626 226.068 95.6986 226.206C97.8599 225.517 100.098 225.127 102.37 225.047C102.393 224.894 102.419 224.752 102.45 224.615C103.223 221.176 106.646 219.007 110.085 219.78C113.524 220.552 115.693 223.976 114.924 227.411C114.893 227.549 114.855 227.69 114.809 227.836C116.825 228.88 118.688 230.188 120.348 231.73C120.471 231.638 120.593 231.554 120.711 231.481C123.687 229.595 127.643 230.483 129.529 233.459C130.443 234.901 130.741 236.611 130.366 238.274C129.991 239.938 128.993 241.361 127.551 242.272C127.432 242.348 127.306 242.421 127.168 242.494C127.857 244.655 128.247 246.893 128.327 249.161C128.48 249.184 128.626 249.211 128.76 249.241C132.199 250.014 134.367 253.437 133.599 256.873C132.826 260.311 129.402 262.476 125.963 261.708C125.826 261.677 125.684 261.639 125.539 261.593C124.495 263.609 123.186 265.468 121.641 267.128C121.733 267.25 121.817 267.373 121.89 267.491C122.804 268.933 123.102 270.643 122.727 272.307C122.352 273.971 121.354 275.394 119.912 276.304C116.936 278.19 112.981 277.303 111.095 274.327C111.018 274.208 110.946 274.082 110.873 273.944C108.712 274.633 106.47 275.023 104.202 275.103C104.179 275.256 104.152 275.398 104.122 275.536C103.456 278.504 100.813 280.527 97.8866 280.527ZM86.2504 267.533C86.3461 267.533 86.4417 267.568 86.5144 267.64C88.2587 269.308 90.2401 270.701 92.4013 271.783C92.5735 271.871 92.6538 272.07 92.5926 272.254C92.5084 272.495 92.4434 272.709 92.3975 272.911C91.7204 275.937 93.6292 278.951 96.6549 279.629C99.6845 280.306 102.695 278.397 103.376 275.371C103.422 275.172 103.456 274.95 103.479 274.694C103.498 274.503 103.659 274.354 103.85 274.35C106.268 274.296 108.655 273.879 110.942 273.118C111.126 273.057 111.325 273.141 111.409 273.317C111.52 273.546 111.627 273.745 111.734 273.918C113.394 276.538 116.875 277.318 119.495 275.658C120.765 274.855 121.645 273.604 121.974 272.139C122.303 270.674 122.039 269.167 121.236 267.897C121.125 267.721 120.991 267.541 120.83 267.346C120.708 267.197 120.715 266.979 120.849 266.837C122.517 265.093 123.909 263.115 124.992 260.954C125.08 260.782 125.279 260.702 125.462 260.763C125.707 260.851 125.918 260.912 126.12 260.958C129.146 261.635 132.16 259.726 132.841 256.7C133.518 253.675 131.609 250.66 128.584 249.983C128.381 249.937 128.167 249.903 127.907 249.88C127.715 249.861 127.566 249.7 127.562 249.509C127.509 247.092 127.092 244.708 126.331 242.417C126.269 242.234 126.354 242.035 126.53 241.95C126.759 241.84 126.958 241.736 127.13 241.625C128.4 240.822 129.28 239.571 129.609 238.106C129.938 236.641 129.674 235.134 128.871 233.864C127.21 231.244 123.73 230.463 121.109 232.124C120.933 232.235 120.754 232.365 120.558 232.529C120.409 232.651 120.191 232.644 120.054 232.51C118.309 230.842 116.328 229.45 114.167 228.367C113.994 228.279 113.914 228.08 113.975 227.897C114.06 227.656 114.125 227.442 114.17 227.239C114.847 224.213 112.939 221.199 109.913 220.522C106.887 219.845 103.873 221.754 103.192 224.779C103.146 224.982 103.112 225.196 103.089 225.456C103.07 225.648 102.909 225.797 102.718 225.801C100.3 225.854 97.9134 226.271 95.626 227.032C95.4424 227.093 95.2434 227.009 95.1593 226.833C95.0484 226.604 94.9413 226.405 94.8303 226.233C93.1702 223.613 89.6893 222.832 87.069 224.492C85.7991 225.296 84.9193 226.546 84.5903 228.012C84.2613 229.477 84.5253 230.984 85.3286 232.254C85.4395 232.43 85.5696 232.609 85.734 232.804C85.8564 232.954 85.8488 233.172 85.7149 233.313C84.0471 235.057 82.6548 237.035 81.5722 239.196C81.4843 239.368 81.2854 239.449 81.1017 239.388C80.8569 239.3 80.6504 239.238 80.4438 239.193C77.4181 238.515 74.4039 240.424 73.723 243.45C73.0459 246.476 74.9547 249.49 77.9804 250.167C78.1831 250.213 78.3973 250.247 78.6575 250.27C78.8487 250.289 78.9979 250.45 79.0017 250.641C79.0553 253.059 79.4722 255.442 80.2334 257.733C80.2946 257.917 80.2105 258.116 80.0345 258.2C79.805 258.307 79.6099 258.414 79.434 258.525C78.164 259.328 77.2842 260.579 76.9552 262.044C76.6263 263.509 76.8902 265.016 77.6935 266.282C79.3536 268.903 82.8346 269.683 85.4548 268.023C85.6308 267.912 85.8105 267.782 86.0056 267.617C86.0745 267.56 86.1625 267.529 86.2466 267.529L86.2504 267.533ZM103.284 261.612C102.45 261.612 101.605 261.52 100.756 261.333C94.5473 259.94 90.6264 253.759 92.0188 247.551C93.4112 241.342 99.5927 237.425 105.805 238.818C108.811 239.491 111.378 241.296 113.027 243.901C114.675 246.502 115.215 249.593 114.541 252.6C113.34 257.959 108.563 261.612 103.284 261.612ZM103.276 239.303C98.3457 239.303 93.8893 242.712 92.7647 247.719C91.4642 253.514 95.1249 259.286 100.924 260.587C101.716 260.763 102.504 260.851 103.284 260.851C108.215 260.851 112.671 257.442 113.796 252.435C114.427 249.628 113.922 246.743 112.384 244.314C110.843 241.885 108.448 240.199 105.64 239.567C104.848 239.391 104.06 239.303 103.28 239.303H103.276Z" fill="white"/>
<path d="M88.1973 297.595C88.5148 295.109 86.7591 292.833 84.2689 292.516C84.0814 292.493 83.9016 292.485 83.718 292.481C83.5 290.614 83.0066 288.82 82.2683 287.149C82.4251 287.057 82.5781 286.954 82.7273 286.843C84.7126 285.309 85.076 282.459 83.5421 280.474C82.0082 278.489 79.1546 278.125 77.1693 279.655C77.0201 279.77 76.8863 279.892 76.7562 280.022C75.3218 278.886 73.7114 277.957 71.9594 277.276C72.0053 277.1 72.0436 276.92 72.0665 276.733C72.384 274.246 70.6283 271.97 68.1381 271.653C65.6517 271.336 63.3757 273.091 63.0544 275.578C63.0315 275.761 63.02 275.945 63.02 276.128C61.1533 276.346 59.3593 276.84 57.6839 277.578C57.5921 277.421 57.4888 277.268 57.374 277.119C55.8401 275.134 52.9865 274.771 51.0013 276.301C49.016 277.834 48.6526 280.684 50.1865 282.67C50.3013 282.819 50.4237 282.953 50.5537 283.083C49.4176 284.517 48.4881 286.127 47.8072 287.879C47.6313 287.834 47.4515 287.795 47.2641 287.772C44.7777 287.455 42.5017 289.211 42.1804 291.697C41.8629 294.183 43.6187 296.459 46.1089 296.777C46.2963 296.8 46.4761 296.807 46.6597 296.811C46.8777 298.678 47.3712 300.472 48.1094 302.144C47.9526 302.235 47.7996 302.339 47.6504 302.45C45.6651 303.983 45.3017 306.833 46.8356 308.818C48.3695 310.804 51.2231 311.167 53.2084 309.637C53.3576 309.522 53.4915 309.4 53.6215 309.27C55.056 310.406 56.6664 311.335 58.4183 312.016C58.3724 312.192 58.3341 312.372 58.3112 312.559C57.9937 315.046 59.7495 317.322 62.2396 317.639C64.726 317.957 67.002 316.201 67.3233 313.715C67.3463 313.531 67.3539 313.347 67.3577 313.164C69.2244 312.946 71.0184 312.452 72.6939 311.714C72.7857 311.871 72.889 312.024 73.0037 312.173C74.5376 314.158 77.3912 314.522 79.3765 312.992C81.3617 311.458 81.7251 308.608 80.1912 306.623C80.0765 306.474 79.9541 306.34 79.824 306.21C80.9601 304.775 81.8896 303.165 82.5705 301.413C82.7464 301.459 82.9262 301.497 83.1137 301.52C85.6 301.837 87.876 300.082 88.1973 297.595ZM73.5622 295.721C72.9693 300.342 68.7425 303.605 64.1255 303.012C59.5046 302.419 56.2379 298.196 56.8308 293.575C57.4237 288.954 61.6506 285.691 66.2714 286.284C70.8922 286.877 74.1589 291.1 73.566 295.721H73.5622Z" fill="#232323"/>
<path d="M62.8289 318.064C62.6223 318.064 62.4119 318.052 62.1977 318.022C60.8933 317.854 59.7305 317.188 58.9272 316.147C58.1239 315.107 57.772 313.814 57.9403 312.51C57.9518 312.426 57.9632 312.341 57.9824 312.25C56.4332 311.615 54.9796 310.785 53.6523 309.771C53.5834 309.832 53.5184 309.886 53.4495 309.939C51.2998 311.599 48.2014 311.202 46.5413 309.052C45.738 308.011 45.386 306.718 45.5544 305.414C45.7227 304.11 46.3882 302.947 47.4287 302.144C47.4937 302.094 47.5664 302.04 47.6391 301.99C46.9926 300.449 46.5527 298.835 46.3309 297.175C46.2391 297.167 46.1549 297.159 46.0708 297.148C43.3778 296.804 41.4691 294.332 41.8133 291.64C42.1576 288.947 44.6325 287.034 47.3254 287.382C47.4096 287.394 47.4937 287.405 47.5855 287.424C48.2167 285.875 49.0506 284.421 50.0642 283.094C50.003 283.025 49.9495 282.96 49.8998 282.891C49.0965 281.851 48.7446 280.558 48.9129 279.254C49.0812 277.949 49.7468 276.786 50.7872 275.983C52.937 274.323 56.0353 274.721 57.6955 276.871C57.749 276.936 57.7988 277.008 57.8485 277.085C59.39 276.438 61.0043 275.998 62.6644 275.777C62.672 275.685 62.6797 275.601 62.6912 275.516C63.0354 272.824 65.5103 270.915 68.2032 271.259C70.8962 271.603 72.8049 274.074 72.4607 276.767C72.4492 276.851 72.4377 276.936 72.4186 277.027C73.9678 277.662 75.4214 278.492 76.7487 279.506C76.8176 279.445 76.8826 279.391 76.9514 279.338C79.1012 277.678 82.1996 278.075 83.8597 280.225C84.663 281.266 85.0149 282.559 84.8466 283.863C84.6783 285.167 84.0127 286.326 82.9723 287.134C82.9072 287.183 82.8346 287.237 82.7619 287.286C83.4083 288.828 83.8482 290.442 84.0701 292.102C84.1619 292.11 84.2461 292.118 84.3302 292.129C85.6346 292.297 86.7974 292.963 87.6007 294.004C88.404 295.044 88.7559 296.337 88.5876 297.641C88.4193 298.946 87.7537 300.105 86.7133 300.912C85.6728 301.715 84.3799 302.067 83.0755 301.899C82.9914 301.887 82.9072 301.876 82.8154 301.857C82.1843 303.406 81.3504 304.859 80.3367 306.187C80.3979 306.256 80.4515 306.321 80.505 306.389C81.3083 307.43 81.6602 308.723 81.4919 310.027C81.3236 311.332 80.658 312.494 79.6176 313.298C77.4678 314.958 74.3694 314.56 72.7093 312.41C72.6558 312.345 72.606 312.273 72.5563 312.2C71.0148 312.846 69.4005 313.286 67.7404 313.508C67.7327 313.6 67.7251 313.684 67.7136 313.768C67.3961 316.251 65.2732 318.064 62.8327 318.064H62.8289ZM53.6293 308.891C53.7135 308.891 53.7976 308.918 53.8665 308.975C55.2894 310.1 56.8692 311.006 58.5638 311.664C58.7436 311.733 58.843 311.928 58.7971 312.116C58.7512 312.299 58.7168 312.46 58.6977 312.613C58.5561 313.715 58.8545 314.805 59.5316 315.685C60.2124 316.564 61.1917 317.127 62.2933 317.268C64.5693 317.559 66.6579 315.949 66.9486 313.673C66.9677 313.52 66.9792 313.355 66.9792 313.168C66.9792 312.976 67.1245 312.812 67.3158 312.789C69.1213 312.579 70.8809 312.1 72.541 311.37C72.717 311.293 72.9235 311.358 73.023 311.523C73.1186 311.684 73.2104 311.821 73.306 311.944C74.7099 313.757 77.3263 314.093 79.1394 312.693C80.0192 312.016 80.5815 311.033 80.7231 309.932C80.8646 308.83 80.5662 307.74 79.8892 306.86C79.7974 306.741 79.6864 306.615 79.5526 306.481C79.4187 306.344 79.4034 306.126 79.5258 305.976C80.6542 304.553 81.5569 302.974 82.2187 301.279C82.2876 301.099 82.4826 301 82.6701 301.046C82.8575 301.092 83.0143 301.122 83.1674 301.145C84.269 301.287 85.3592 300.992 86.239 300.311C87.1188 299.634 87.6811 298.651 87.8226 297.549C87.9641 296.448 87.6658 295.358 86.9887 294.478C86.3078 293.598 85.3286 293.036 84.2269 292.894C84.0739 292.875 83.9133 292.864 83.722 292.864C83.5307 292.864 83.3663 292.718 83.3433 292.527C83.1329 290.722 82.6548 288.966 81.9242 287.302C81.8477 287.126 81.9127 286.919 82.0772 286.82C82.2378 286.724 82.3755 286.632 82.4979 286.537C83.3777 285.86 83.94 284.877 84.0816 283.775C84.2231 282.673 83.9247 281.583 83.2477 280.703C81.8438 278.89 79.2274 278.554 77.4143 279.954C77.2919 280.049 77.1733 280.153 77.0356 280.29C76.8979 280.424 76.6798 280.439 76.5307 280.317C75.1077 279.192 73.5279 278.286 71.8333 277.628C71.6536 277.559 71.5541 277.364 71.6 277.177C71.6459 276.993 71.6803 276.832 71.6995 276.679C71.9902 274.407 70.3759 272.319 68.1038 272.028C65.8278 271.737 63.7393 273.348 63.4485 275.624C63.4294 275.777 63.4179 275.941 63.4179 276.128C63.4179 276.324 63.2726 276.484 63.0813 276.507C61.2758 276.718 59.5163 277.192 57.8561 277.926C57.6802 278.003 57.4736 277.938 57.3742 277.773C57.2785 277.613 57.1867 277.475 57.0911 277.353C55.6873 275.539 53.0708 275.203 51.2577 276.603C50.3779 277.284 49.8156 278.263 49.6741 279.365C49.5325 280.466 49.8309 281.556 50.508 282.436C50.5998 282.555 50.7107 282.681 50.8446 282.815C50.9785 282.953 50.9938 283.171 50.8714 283.32C49.7429 284.743 48.8402 286.323 48.1823 288.017C48.1134 288.197 47.9183 288.296 47.7309 288.25C47.5473 288.205 47.3866 288.174 47.2336 288.151C44.9576 287.86 42.8691 289.471 42.5784 291.747C42.2876 294.019 43.9019 296.107 46.174 296.398C46.327 296.417 46.4877 296.429 46.679 296.429C46.8702 296.429 47.0347 296.574 47.0576 296.765C47.268 298.571 47.7462 300.327 48.4768 301.99C48.5533 302.166 48.4883 302.373 48.3238 302.472C48.1631 302.568 48.0254 302.66 47.903 302.756C47.0232 303.433 46.4609 304.416 46.3194 305.517C46.1779 306.619 46.4762 307.709 47.1533 308.589C48.5571 310.402 51.1735 310.739 52.9867 309.339C53.1091 309.243 53.2277 309.14 53.3654 309.002C53.438 308.929 53.5375 308.891 53.6331 308.891H53.6293ZM65.212 303.463C64.8333 303.463 64.4546 303.44 64.0721 303.391C61.7349 303.092 59.6578 301.899 58.2157 300.036C56.7736 298.173 56.1463 295.859 56.4485 293.525C57.0681 288.706 61.4939 285.282 66.3136 285.906C68.6508 286.204 70.7279 287.397 72.17 289.26C73.6121 291.123 74.2394 293.437 73.9372 295.771C73.6388 298.108 72.4454 300.185 70.5825 301.623C69.0218 302.828 67.1475 303.463 65.212 303.463ZM65.189 286.598C61.1993 286.598 57.7299 289.566 57.2097 293.625C56.9381 295.759 57.5119 297.871 58.8239 299.569C60.1398 301.271 62.0371 302.358 64.1715 302.633C66.306 302.909 68.4175 302.335 70.1197 301.019C71.8219 299.703 72.9082 297.806 73.1836 295.675C73.4552 293.541 72.8814 291.429 71.5694 289.731C70.2535 288.029 68.3563 286.942 66.2218 286.667C65.8775 286.621 65.5333 286.602 65.1928 286.602L65.189 286.598Z" fill="white"/>
<path d="M415.468 136.287C413.07 136.287 411.123 138.231 411.123 140.633C411.123 143.035 413.066 144.978 415.468 144.978C417.87 144.978 419.814 143.035 419.814 140.633C419.814 138.231 417.87 136.287 415.468 136.287Z" fill="#FFCCCC"/>
<path d="M415.468 123.611C413.07 123.611 411.123 125.554 411.123 127.956C411.123 130.358 413.066 132.302 415.468 132.302C417.87 132.302 419.814 130.358 419.814 127.956C419.814 125.554 417.87 123.611 415.468 123.611Z" fill="#FFCCCC"/>
<path d="M415.468 119.621C417.868 119.621 419.814 117.676 419.814 115.276C419.814 112.876 417.868 110.93 415.468 110.93C413.069 110.93 411.123 112.876 411.123 115.276C411.123 117.676 413.069 119.621 415.468 119.621Z" fill="#FFCCCC"/>
<path d="M433.005 29.3084C431.792 28.6194 430.278 29.1303 429.621 30.3771L426.389 36.9714C426.328 37.0963 426.222 37.1934 426.093 37.2432C425.963 37.2929 425.82 37.2916 425.691 37.2394C425.589 37.1988 425.502 37.1286 425.44 37.0377C425.379 36.9469 425.346 36.8397 425.347 36.73V18.415C425.347 17.3283 424.343 16.5401 423.255 16.5401C422.168 16.5401 421.224 17.3283 421.224 18.415V30.6521C421.227 30.8806 421.14 31.1012 420.983 31.2669C420.825 31.4326 420.61 31.5304 420.381 31.5396C420.267 31.5418 420.153 31.5211 420.047 31.4789C419.941 31.4367 419.844 31.3738 419.763 31.2938C419.681 31.2137 419.617 31.1183 419.572 31.0129C419.528 30.9076 419.505 30.7945 419.505 30.6802V14.6652C419.505 13.5785 418.651 12.7902 417.563 12.7902C416.476 12.7902 415.599 13.5785 415.599 14.6652V30.6521C415.602 30.8806 415.515 31.1012 415.358 31.2669C415.201 31.4326 414.985 31.5304 414.756 31.5396C414.642 31.5418 414.529 31.5211 414.422 31.4789C414.316 31.4367 414.22 31.3738 414.138 31.2938C414.057 31.2137 413.992 31.1183 413.948 31.0129C413.903 30.9076 413.881 30.7945 413.881 30.6802V17.1651C413.881 16.0784 412.937 15.2901 411.849 15.2901C410.762 15.2901 409.818 16.1565 409.818 17.2432V31.9021C409.821 32.1306 409.734 32.3512 409.577 32.5169C409.419 32.6826 409.204 32.7804 408.975 32.7895C408.861 32.7917 408.748 32.7711 408.641 32.7289C408.535 32.6867 408.439 32.6237 408.357 32.5437C408.275 32.4637 408.211 32.3682 408.166 32.2629C408.122 32.1575 408.1 32.0444 408.1 31.9302V22.1649C408.1 21.0782 407.234 20.29 406.146 20.29C405.059 20.29 404.184 21.0884 404.193 22.1649V39.0393C404.193 48.2117 409.818 52.7889 416.693 52.7889H417.943C424.818 52.7889 426.982 49.6952 428.568 45.9141L433.935 32.7114C434.453 31.3052 434.217 29.9967 433.005 29.3084Z" fill="#FFCCCC"/>
</g>
<defs>
<clipPath id="clip0_70_488">
<rect width="477" height="318.255" fill="white"/>
</clipPath>
</defs>
</svg>
