<svg width="112" height="80" viewBox="0 0 112 80" fill="none" xmlns="http://www.w3.org/2000/svg">
<path d="M55.4392 2.88546L23.0303 59.0573C20.8121 62.9014 23.5873 67.7065 28.0254 67.7065H92.8431C97.2812 67.7065 100.056 62.9014 97.8382 59.0573L65.4293 2.88546C63.2094 -0.96182 57.6574 -0.96182 55.4392 2.88546Z" fill="#A1C1FF"/>
<path d="M57.9891 7.61323L28.4005 58.8979C27.3139 60.7813 28.6725 63.1332 30.8473 63.1332H90.0261C92.1993 63.1332 93.5595 60.7797 92.4729 58.8979L62.8843 7.61323C61.7977 5.72983 59.0789 5.72983 57.9907 7.61323H57.9891Z" fill="#D7E3FF"/>
<path d="M57.0398 44.342L56.5795 21.1145H63.7386L63.2784 44.342H57.0398ZM60.1591 57.1145C56.7841 57.1145 55.25 55.7239 55.25 52.8398C55.25 49.9042 56.7841 48.4621 60.1591 48.4621C63.5341 48.4621 65.0682 49.9042 65.0682 52.8398C65.0682 55.7239 63.5341 57.1145 60.1591 57.1145Z" fill="#001641"/>
<path d="M96.4079 16.0002C96.4079 24.3717 89.6215 31.1581 81.25 31.1581C72.8785 31.1581 66.0921 24.3717 66.0921 16.0002C66.0921 7.62871 72.8785 0.842285 81.25 0.842285C89.6215 0.842285 96.4079 7.62871 96.4079 16.0002Z" fill="white"/>
<path fill-rule="evenodd" clip-rule="evenodd" d="M97.2252 16.8976L96.3844 16.8511C96.4 16.5695 96.4079 16.2857 96.4079 16C96.4079 15.7143 96.4 15.4305 96.3844 15.1489L97.2252 15.1024C97.2417 15.3995 97.25 15.6988 97.25 16C97.25 16.3012 97.2417 16.6005 97.2252 16.8976ZM97.0263 13.3186L96.1959 13.4587C96.1008 12.8951 95.9746 12.3421 95.8192 11.8016L96.6285 11.5688C96.7926 12.1396 96.9259 12.7235 97.0263 13.3186ZM96.0359 9.87539L95.258 10.198C95.04 9.67219 94.7932 9.16128 94.5196 8.66721L95.2562 8.25921C95.5451 8.78079 95.8057 9.3202 96.0359 9.87539ZM94.3001 6.74063L93.6137 7.22851C93.2847 6.7657 92.9304 6.3221 92.5527 5.89976L93.1804 5.33841C93.579 5.78407 93.9529 6.25218 94.3001 6.74063ZM91.9116 4.06955L91.3502 4.69727C90.9279 4.31959 90.4843 3.96525 90.0215 3.63628L90.5094 2.9499C90.9978 3.29709 91.4659 3.67102 91.9116 4.06955ZM88.9908 1.99378L88.5828 2.73044C88.0887 2.4568 87.5778 2.20999 87.052 1.99196L87.3746 1.21409C87.9298 1.44432 88.4692 1.7049 88.9908 1.99378ZM85.6812 0.621537L85.4484 1.43083C84.9079 1.27537 84.3549 1.14917 83.7913 1.05407L83.9314 0.223704C84.5265 0.324109 85.1104 0.457363 85.6812 0.621537ZM82.1476 0.0247546L82.1011 0.865575C81.8195 0.85 81.5357 0.842105 81.25 0.842105C80.9643 0.842105 80.6805 0.85 80.3989 0.865575L80.3524 0.0247545C80.6495 0.008324 80.9488 0 81.25 0C81.5512 0 81.8505 0.00832402 82.1476 0.0247546ZM78.5686 0.223705L78.7087 1.05407C78.1451 1.14917 77.5921 1.27537 77.0516 1.43083L76.8188 0.621537C77.3896 0.457363 77.9735 0.324109 78.5686 0.223705ZM75.1254 1.21409L75.448 1.99196C74.9222 2.20999 74.4113 2.4568 73.9172 2.73044L73.5092 1.99378C74.0308 1.7049 74.5702 1.44432 75.1254 1.21409ZM71.9906 2.9499L72.4785 3.63628C72.0157 3.96525 71.5721 4.31959 71.1498 4.69727L70.5884 4.06955C71.0341 3.67102 71.5022 3.29709 71.9906 2.9499ZM69.3196 5.33842L69.9473 5.89976C69.5696 6.3221 69.2153 6.7657 68.8863 7.22851L68.1999 6.74063C68.5471 6.25219 68.921 5.78407 69.3196 5.33842ZM67.2438 8.25921L67.9804 8.66721C67.7068 9.16128 67.46 9.67219 67.242 10.198L66.4641 9.8754C66.6943 9.32021 66.9549 8.78079 67.2438 8.25921ZM65.8715 11.5688L66.6808 11.8016C66.5254 12.3421 66.3992 12.8951 66.3041 13.4587L65.4737 13.3186C65.5741 12.7235 65.7074 12.1396 65.8715 11.5688ZM65.2748 15.1024C65.2583 15.3995 65.25 15.6988 65.25 16C65.25 16.3012 65.2583 16.6005 65.2748 16.8976L66.1156 16.8511C66.1 16.5695 66.0921 16.2857 66.0921 16C66.0921 15.7143 66.1 15.4305 66.1156 15.1489L65.2748 15.1024ZM65.4737 18.6814L66.3041 18.5413C66.3992 19.1049 66.5254 19.6579 66.6808 20.1984L65.8715 20.4312C65.7074 19.8604 65.5741 19.2765 65.4737 18.6814ZM66.4641 22.1246L67.242 21.802C67.46 22.3278 67.7068 22.8387 67.9804 23.3328L67.2438 23.7408C66.9549 23.2192 66.6943 22.6798 66.4641 22.1246ZM68.1999 25.2594L68.8863 24.7715C69.2153 25.2343 69.5696 25.6779 69.9473 26.1002L69.3196 26.6616C68.921 26.2159 68.5471 25.7478 68.1999 25.2594ZM70.5884 27.9304L71.1498 27.3027C71.5721 27.6804 72.0157 28.0347 72.4785 28.3637L71.9906 29.0501C71.5022 28.7029 71.0341 28.329 70.5884 27.9304ZM73.5092 30.0062L73.9172 29.2696C74.4113 29.5432 74.9222 29.79 75.448 30.008L75.1254 30.7859C74.5702 30.5557 74.0308 30.2951 73.5092 30.0062ZM76.8188 31.3785L77.0516 30.5692C77.5921 30.7246 78.1451 30.8508 78.7087 30.9459L78.5686 31.7763C77.9735 31.6759 77.3896 31.5426 76.8188 31.3785ZM80.3524 31.9752L80.3989 31.1344C80.6805 31.15 80.9643 31.1579 81.25 31.1579C81.5357 31.1579 81.8195 31.15 82.1011 31.1344L82.1476 31.9752C81.8505 31.9917 81.5512 32 81.25 32C80.9488 32 80.6495 31.9917 80.3524 31.9752ZM83.9314 31.7763L83.7913 30.9459C84.3549 30.8508 84.9079 30.7246 85.4484 30.5692L85.6812 31.3785C85.1104 31.5426 84.5265 31.6759 83.9314 31.7763ZM87.3746 30.7859L87.052 30.008C87.5778 29.79 88.0887 29.5432 88.5828 29.2696L88.9908 30.0062C88.4692 30.2951 87.9298 30.5557 87.3746 30.7859ZM90.5094 29.0501L90.0215 28.3637C90.4843 28.0347 90.9279 27.6804 91.3502 27.3027L91.9116 27.9304C91.4659 28.329 90.9978 28.7029 90.5094 29.0501ZM93.1804 26.6616L92.5527 26.1002C92.9304 25.6779 93.2847 25.2343 93.6137 24.7715L94.3001 25.2594C93.9529 25.7478 93.579 26.2159 93.1804 26.6616ZM95.2562 23.7408L94.5196 23.3328C94.7932 22.8387 95.04 22.3278 95.258 21.802L96.0359 22.1246C95.8057 22.6798 95.5451 23.2192 95.2562 23.7408ZM96.6285 20.4312L95.8192 20.1984C95.9746 19.6579 96.1008 19.1049 96.1959 18.5413L97.0263 18.6814C96.9259 19.2765 96.7926 19.8604 96.6285 20.4312Z" fill="#013E85"/>
<path fill-rule="evenodd" clip-rule="evenodd" d="M75.0186 20.3975C74.4372 20.979 74.4372 21.9217 75.0186 22.5032C75.6001 23.0847 76.5429 23.0847 77.1243 22.5032L80.9806 18.6469L84.837 22.5033C85.4184 23.0848 86.3612 23.0848 86.9427 22.5033C87.5241 21.9218 87.5241 20.9791 86.9427 20.3976L83.0863 16.5412L87.2317 12.3958C87.8132 11.8143 87.8132 10.8716 87.2317 10.2901C86.6502 9.70864 85.7075 9.70864 85.126 10.2901L80.9806 14.4355L76.8353 10.2902C76.2538 9.70874 75.3111 9.70874 74.7296 10.2902C74.1481 10.8717 74.1481 11.8144 74.7296 12.3959L78.8749 16.5412L75.0186 20.3975Z" fill="#001641"/>
<path d="M41.9453 79.6167H7.26347C7.26347 79.6167 -4.65178 75.2302 3.48528 63.0358C3.94123 62.3538 5.01487 62.7237 4.93303 63.5367C4.54722 67.4146 4.70505 73.8567 9.45751 76.1877V74.9008C9.45751 71.9379 10.3577 69.0444 12.0413 66.5959L23.485 49.9475C23.485 49.9475 14.2645 46.6976 29.882 36.4758C29.882 36.4758 29.4436 31.2205 35.864 33.5033C35.864 33.5033 46.6647 26.7839 48.7243 27.4177C50.7838 28.0515 53.806 31.7791 44.2621 43.5921L42.45 47.5009C42.1343 48.1809 41.9707 48.9207 41.9707 49.6682V73.8856C41.9707 74.9297 42.6273 75.8428 43.6016 76.2416C44.3966 76.5672 45.0415 77.1836 44.3167 78.3395C43.812 79.1448 42.9021 79.6129 41.9434 79.6129L41.9453 79.6167Z" fill="#233052"/>
<path d="M43.7536 75.889C42.9098 75.5441 42.3643 74.7581 42.3643 73.8893V49.6719C42.3643 48.9745 42.5143 48.2983 42.8066 47.6645L44.5973 43.7982C51.1209 35.7129 51.7016 31.4747 51.0391 29.3402C50.5403 27.7316 49.3361 27.2037 48.8412 27.0515C46.7679 26.4158 37.8086 31.8484 35.8172 33.0794C33.6056 32.3262 31.9221 32.3685 30.8134 33.2085C29.6053 34.1235 29.4845 35.6743 29.4864 36.2754C23.1167 40.475 20.0653 44.0659 20.4219 46.9518C20.644 48.753 22.0976 49.7143 22.9024 50.115L11.7198 66.3819C9.98557 68.9056 9.06781 71.8531 9.06781 74.9045V75.5364C5.03046 73.0513 4.9798 67.01 5.32079 63.577C5.37535 63.0338 5.06163 62.5464 4.54333 62.3653C4.02112 62.1823 3.46579 62.3672 3.15987 62.8257C0.478696 66.8404 -0.355274 70.4679 0.681343 73.6061C2.16612 78.1044 7.07836 79.9595 7.12707 79.9769C7.16994 79.9923 7.21671 80 7.26152 80H41.9434C43.0482 80 44.0848 79.4413 44.6479 78.5436C45.0026 77.9792 45.1058 77.4571 44.9558 76.9967C44.8019 76.5247 44.3966 76.151 43.7516 75.887L43.7536 75.889ZM42.1343 79.2198C42.2493 78.2701 41.5205 77.3858 40.6866 77.0468C39.8351 76.7 38.9076 76.7809 38.0327 76.9196L37.7307 76.9678C37.3975 77.0217 37.0584 77.0776 36.7213 77.1084C38.8179 75.3226 40.3436 72.8221 40.9399 70.1674C41.2224 68.9114 41.2575 67.8248 41.049 66.8443C40.7918 65.6325 40.1254 64.5846 39.2193 63.97C38.6582 63.5886 38.0424 63.3805 37.413 63.29L39.5467 58.3775C39.5876 58.2831 39.5896 58.1791 39.5506 58.0828C39.5116 57.9865 39.4376 57.9113 39.3421 57.8709C39.1453 57.788 38.9154 57.8786 38.8316 58.0732L36.5888 63.236C35.5464 63.2437 34.5136 63.5134 33.6719 63.8236C31.0219 64.8022 28.6836 66.4744 26.9144 68.659C26.8501 68.7399 26.8189 68.8401 26.8306 68.9422C26.8423 69.0443 26.8929 69.1368 26.9748 69.2003C27.0566 69.2658 27.1579 69.2947 27.2612 69.2832C27.3645 69.2716 27.458 69.2215 27.5223 69.1406C29.2039 67.0639 31.4252 65.4746 33.9447 64.546C35.3476 64.0278 37.3254 63.6175 38.779 64.6038C39.5214 65.1085 40.0708 65.9812 40.2871 67.0003C40.4722 67.8711 40.4372 68.8536 40.178 69.9998C39.5389 72.8452 37.7989 75.4536 35.4061 77.1508C35.2775 77.2413 35.219 77.3993 35.2541 77.5515C35.2892 77.7037 35.4119 77.8173 35.5678 77.8443C36.3472 77.9753 37.1149 77.8482 37.8573 77.7268L38.1554 77.6786C38.9193 77.5592 39.7182 77.4841 40.3904 77.7576C40.9652 77.9926 41.4835 78.638 41.3413 79.2294H7.33751C6.72763 78.9848 2.70197 77.2375 1.42178 73.3653C0.463108 70.4622 1.2659 67.0581 3.81068 63.2457C3.9763 62.9952 4.23351 63.0704 4.28417 63.0877C4.33288 63.105 4.5745 63.2052 4.54527 63.498C4.16726 67.3124 4.27833 74.0762 9.28409 76.5324C9.4049 76.5921 9.54715 76.5863 9.66211 76.5151C9.77512 76.4457 9.84722 76.3205 9.84722 76.1876V74.9007C9.84722 72.0033 10.7182 69.208 12.3647 66.8115L23.8084 50.1632C23.8513 50.1015 23.8708 50.0302 23.8727 49.957C23.9526 49.9339 24.0247 49.8857 24.0754 49.8183L28.6252 43.7346C28.6875 43.6518 28.7129 43.5496 28.6973 43.4475C28.6817 43.3454 28.6271 43.2549 28.5433 43.1952C28.4596 43.1335 28.3563 43.1085 28.255 43.1239C28.1517 43.1393 28.0601 43.1933 27.9997 43.2761L23.4499 49.3598C23.4207 49.3983 23.4012 49.4407 23.3895 49.485C22.8225 49.2192 21.3864 48.4024 21.1954 46.8554C20.9792 45.0985 22.3003 41.9777 29.7203 37.0479L29.919 37.4004C29.2273 37.491 28.5901 37.8493 28.1673 38.3964C27.5964 39.1362 27.4717 40.1649 27.8497 41.0183C28.2277 41.8717 29.0792 42.4766 30.0145 42.5595H30.0515C30.2542 42.5595 30.4217 42.4111 30.4393 42.2108C30.4587 41.9989 30.3009 41.812 30.0866 41.7927C29.4377 41.7349 28.8259 41.2996 28.5648 40.7101C28.3017 40.1206 28.3914 39.3789 28.7889 38.8665C29.1844 38.354 29.882 38.0728 30.5308 38.171C30.6789 38.1922 30.8231 38.1286 30.905 38.0092C30.9907 37.8878 30.9985 37.7318 30.9244 37.6027L30.3847 36.6453C30.3555 36.5932 30.3146 36.5528 30.2697 36.52C30.2717 36.495 30.2756 36.4719 30.2736 36.4468C30.2736 36.4295 30.1528 34.6783 31.2908 33.8192C32.2066 33.1276 33.7011 33.143 35.7354 33.8673C35.7743 33.8808 35.8153 33.8866 35.8562 33.8866C35.8776 33.9405 35.9107 33.9906 35.9575 34.0311C37.8164 35.657 38.8179 38.1845 38.5705 40.6272C38.5607 40.7293 38.59 40.8295 38.6562 40.9104C38.7225 40.9894 38.816 41.0395 38.9212 41.0491H38.9582C39.1589 41.0491 39.3265 40.9008 39.346 40.7043C39.6129 38.0573 38.5451 35.3218 36.5576 33.5321C39.7415 31.5787 44.3264 29.0165 46.9024 28.1014C46.8985 28.1207 46.8946 28.1381 46.8946 28.1573C46.8498 29.0762 47.1654 30.0067 47.7597 30.7137C48.354 31.4207 49.2231 31.8966 50.1467 32.0198C50.1642 32.0218 50.1818 32.0237 50.1973 32.0237C50.2655 32.0237 50.3298 32.0044 50.3863 31.9736C50.0044 34.3123 48.3696 37.8994 43.962 43.3551C43.9426 43.3782 43.927 43.4052 43.9114 43.436L42.0993 47.3448C41.7583 48.0807 41.5848 48.8647 41.5848 49.6738V73.8912C41.5848 75.0741 42.3194 76.1375 43.4554 76.6037C43.8802 76.7771 44.1355 76.9909 44.2154 77.2375C44.2933 77.4744 44.2154 77.7788 43.9874 78.1429C43.5977 78.7651 42.9001 79.1639 42.1343 79.2217V79.2198ZM50.4584 31.3552C50.4019 31.3032 50.3279 31.2647 50.2461 31.255C49.5173 31.1587 48.8275 30.7811 48.356 30.2205C47.8844 29.6599 47.635 28.9221 47.6701 28.1939C47.6759 28.0764 47.6253 27.9685 47.5454 27.8953C48.0228 27.7643 48.3891 27.72 48.6093 27.7874C48.9854 27.903 49.9051 28.3095 50.2948 29.5656C50.4409 30.0356 50.515 30.6251 50.4584 31.3552Z" fill="#D7E3FF"/>
<path d="M42.1109 44.3856C42.0505 44.3009 41.9609 44.245 41.8576 44.2277C41.6472 44.193 41.4446 44.3336 41.4075 44.5417C41.1464 46.027 40.8775 47.5604 40.3553 48.9918C39.7786 50.5715 38.9641 51.8083 37.9333 52.6713C36.7447 53.6634 35.2385 54.12 33.9038 53.8907C32.4599 53.6442 31.2401 52.523 31.0024 51.2245C30.792 50.0725 31.2986 48.8531 31.7643 47.9188C32.873 45.6956 34.3441 43.6863 36.1348 41.9525C36.2089 41.8813 36.2498 41.7849 36.2517 41.6809C36.2537 41.5769 36.2128 41.4806 36.1407 41.4074C35.9906 41.2552 35.7432 41.2532 35.5892 41.4016C33.7362 43.197 32.2144 45.2757 31.0647 47.5778C30.5464 48.6181 29.9814 49.9897 30.2347 51.3613C30.5328 52.993 31.9883 54.3454 33.7712 54.6498C34.0382 54.696 34.3149 54.7191 34.5935 54.7191C35.9263 54.7191 37.3273 54.1874 38.436 53.2589C39.572 52.3091 40.4644 50.9606 41.088 49.2519C41.6336 47.7569 41.9083 46.1888 42.1753 44.6727C42.1928 44.5706 42.1694 44.4685 42.109 44.3856H42.1109Z" fill="#D7E3FF"/>
<path d="M37.0409 52.7812H37.0487C37.263 52.7773 37.4345 52.6001 37.4306 52.3882C37.3663 49.3849 38.6426 46.3565 40.8444 44.2894C40.9204 44.2181 40.9633 44.1237 40.9652 44.0197C40.9672 43.9176 40.9301 43.8193 40.8581 43.7442C40.786 43.6691 40.6885 43.6267 40.5853 43.6248C40.48 43.6209 40.3826 43.6595 40.3066 43.7307C37.9489 45.9461 36.581 49.1884 36.6512 52.4055C36.6551 52.6136 36.8304 52.7831 37.0409 52.7831V52.7812Z" fill="#D7E3FF"/>
<path d="M9.25 79.6035L110.75 79.6033" stroke="#D7E3FF" stroke-width="0.8" stroke-linecap="round"/>
</svg>
