<svg width="169" height="130" viewBox="0 0 169 130" fill="none" xmlns="http://www.w3.org/2000/svg">
<g filter="url(#filter0_f_4234_3743)">
<ellipse cx="84.5" cy="96.5" rx="76.5" ry="25.5" fill="#A1C1FF" fill-opacity="0.3"/>
</g>
<path d="M58.1739 25.134L14.1758 25.5879C14.1758 25.5879 9.9546 62.9496 44.7311 73.9645L58.1739 61.0219V25.134Z" fill="#001641"/>
<path d="M39.0696 18.606C39.0166 18.8619 36.6177 25.5072 36.6177 25.5072C36.6177 25.5072 38.4629 28.1894 42.0317 30.2409C43.2936 30.9658 44.9263 30.1444 45.0206 28.6946C45.0697 27.9412 44.6252 27.4684 43.1938 25.5875L44.3403 22.1709L39.069 18.606H39.0696Z" fill="#D7E3FF"/>
<path d="M43.1943 25.7105C43.1815 25.7105 43.1681 25.7083 43.1553 25.7044C43.0912 25.6826 43.0566 25.6129 43.0778 25.5488L44.1947 22.2208L39.1376 18.8009C38.7997 19.8225 36.9595 24.9237 36.7331 25.5499C36.7102 25.6135 36.64 25.6469 36.5758 25.6235C36.5123 25.6006 36.4788 25.5298 36.5022 25.4662C37.463 22.8047 38.9078 18.7747 38.9491 18.5818C38.9575 18.5416 38.9859 18.5082 39.0238 18.4931C39.0618 18.478 39.1047 18.4819 39.1387 18.5048L44.41 22.0697C44.4557 22.1004 44.4752 22.1584 44.4574 22.2103L43.3109 25.6268C43.2936 25.6781 43.2456 25.7105 43.1943 25.7105Z" fill="#001641" stroke="#001641" stroke-width="0.167289" stroke-miterlimit="10"/>
<path d="M39.1772 18.2551L38.8064 20.3217C38.8064 20.3217 36.6026 20.1059 36.4493 18.2434C36.3088 16.5348 38.111 15.7285 39.0261 17.3489C39.1811 17.6233 39.233 17.945 39.1772 18.2551Z" fill="#D7E3FF"/>
<path d="M38.8064 20.4444C38.8025 20.4444 38.7986 20.4444 38.7941 20.4439C38.7712 20.4416 36.4866 20.1957 36.3266 18.2535C36.2547 17.3775 36.6902 16.6163 37.3861 16.4027C37.8997 16.2449 38.6285 16.3949 39.1331 17.2888C39.3004 17.5855 39.359 17.9362 39.2982 18.2769L38.9268 20.3435C38.9162 20.4026 38.8649 20.4444 38.8058 20.4444H38.8064ZM37.7558 16.5923C37.6565 16.5923 37.5573 16.6074 37.458 16.6375C36.9801 16.7841 36.4983 17.3462 36.5714 18.2334C36.6969 19.7569 38.2643 20.1137 38.7054 20.184L39.0556 18.2334C39.1069 17.949 39.0579 17.6563 38.9184 17.4092C38.6223 16.8851 38.1952 16.5918 37.7552 16.5918L37.7558 16.5923Z" fill="#001641"/>
<path d="M39.1772 18.2552H39.1783M38.8064 20.4444C38.8025 20.4444 38.7986 20.4444 38.7941 20.4439C38.7712 20.4416 36.4866 20.1957 36.3266 18.2535C36.2547 17.3775 36.6902 16.6163 37.3861 16.4027C37.8997 16.2449 38.6285 16.3949 39.1331 17.2888C39.3004 17.5855 39.359 17.9362 39.2982 18.2769L38.9268 20.3435C38.9162 20.4026 38.8649 20.4444 38.8058 20.4444H38.8064ZM37.7558 16.5923C37.6565 16.5923 37.5573 16.6074 37.458 16.6375C36.9801 16.7841 36.4983 17.3462 36.5714 18.2334C36.6969 19.7569 38.2643 20.1137 38.7054 20.184L39.0556 18.2334C39.1069 17.949 39.0579 17.6563 38.9184 17.4092C38.6223 16.8851 38.1952 16.5918 37.7552 16.5918L37.7558 16.5923Z" stroke="#001641" stroke-width="0.167289" stroke-miterlimit="10"/>
<path d="M38.5086 19.5623C38.4495 19.5623 38.397 19.5193 38.3876 19.4591C38.3073 18.9611 37.9532 18.5156 37.4853 18.3238C37.4229 18.2981 37.3927 18.2262 37.4184 18.1637C37.444 18.1013 37.516 18.0712 37.5784 18.0968C38.1238 18.3204 38.5364 18.8396 38.6301 19.4201C38.6407 19.487 38.5956 19.55 38.5286 19.5606C38.5219 19.5617 38.5153 19.5623 38.5091 19.5623H38.5086Z" fill="#001641" stroke="#001641" stroke-width="0.167289" stroke-miterlimit="10"/>
<path d="M51.8421 9.00354C57.3107 9.89352 60.3186 10.8588 60.3186 10.8588C60.3186 10.8588 43.4308 19.9665 41.0475 23.808C41.0475 23.808 51.5922 29.9269 63.5668 21.2658C75.5413 12.6047 72.2022 7.25315 68.2146 4.91222C64.6893 2.84286 57.6013 1.83411 51.0229 1.68689C51.0229 1.68689 44.6431 1.25083 42.5029 1.13707C38.8839 0.944133 38.8159 2.50605 39.8424 2.71795C39.8424 2.71795 37.4552 3.22874 38.7233 4.49957C38.7233 4.49957 36.422 5.32375 38.5956 6.40555C38.5956 6.40555 36.7175 7.48624 39.3445 8.15204C40.3928 8.41803 41.5733 8.55298 41.5733 8.55298C41.5733 8.55298 41.3692 9.22158 42.4304 9.51266C43.4916 9.80374 45.2905 10.1233 46.839 10.0642C47.5913 10.0357 48.5944 9.57232 49.1838 9.26451C49.5257 9.08607 50.2456 8.92548 50.6136 8.90875C50.8757 8.89704 51.5382 8.95336 51.8421 9.00299V9.00354Z" fill="#D7E3FF"/>
<path d="M50.0203 26.0262C49.2228 26.0262 48.4806 25.9804 47.8037 25.9074C43.6923 25.4624 41.0129 23.93 40.9861 23.9144C40.9577 23.8977 40.9365 23.8704 40.9287 23.838C40.9203 23.8057 40.9259 23.7717 40.9432 23.7438C43.1826 20.1337 57.7841 12.0977 60.0013 10.8916C59.1353 10.6373 56.288 9.85214 51.8225 9.12555C51.5203 9.07592 50.8701 9.02072 50.6191 9.03298C50.2623 9.04916 49.5563 9.21031 49.2407 9.37481C48.5604 9.73002 47.5923 10.16 46.8434 10.1884C45.2754 10.2481 43.4692 9.92631 42.3975 9.63243C41.9675 9.51478 41.6759 9.32128 41.5315 9.05863C41.4478 8.9064 41.4322 8.76253 41.4356 8.66105C41.1038 8.61867 40.1619 8.48707 39.3143 8.27238C38.3714 8.03316 37.8846 7.71587 37.8277 7.3021C37.7747 6.91846 38.1299 6.58778 38.3563 6.41938C37.7942 6.10599 37.5193 5.77309 37.54 5.42847C37.569 4.93608 38.2024 4.5937 38.5136 4.45429C38.2638 4.15819 38.1779 3.87157 38.2576 3.60112C38.4004 3.11989 39.0489 2.83438 39.4638 2.69776C39.2424 2.55278 39.1214 2.32805 39.1532 2.08214C39.2268 1.51169 40.1502 0.891045 42.509 1.01595C44.6252 1.12859 50.9671 1.56187 51.0312 1.56578C58.6602 1.73641 65.1091 2.94814 68.277 4.80783C69.6114 5.5913 71.8704 7.32274 72.0037 10.1204C72.1626 13.4533 69.3488 17.2368 63.6392 21.3666C58.5325 25.0604 53.6895 26.0267 50.0208 26.0267L50.0203 26.0262ZM41.2225 23.7639C41.769 24.0538 44.251 25.2778 47.8416 25.6643C51.5883 26.0685 57.3453 25.6146 63.4954 21.167C69.133 17.089 71.9133 13.3764 71.7583 10.1315C71.63 7.44932 69.4441 5.77699 68.1527 5.01861C65.0194 3.17955 58.6144 1.98009 51.0201 1.81057C50.9504 1.80611 44.6107 1.37284 42.4962 1.26075C40.1469 1.13529 39.442 1.76373 39.3969 2.11337C39.3679 2.33642 39.5614 2.53605 39.8669 2.59906C39.9238 2.61077 39.9645 2.66096 39.9651 2.71895C39.9656 2.77695 39.9249 2.82713 39.8681 2.8394C39.5329 2.91133 38.6324 3.2013 38.4929 3.67082C38.4288 3.88886 38.5348 4.13868 38.8097 4.41414C38.8392 4.4437 38.8515 4.48664 38.8426 4.5279C38.8331 4.56916 38.8041 4.60262 38.7645 4.61656C38.4996 4.71192 37.8076 5.04538 37.7848 5.44297C37.7691 5.71175 38.068 6.00729 38.6502 6.2967C38.6909 6.31677 38.7166 6.35748 38.7182 6.40265C38.7199 6.44782 38.6959 6.4902 38.6569 6.51306C38.479 6.61566 38.0273 6.95191 38.0714 7.2692C38.0998 7.47497 38.3491 7.77442 39.3751 8.03427C40.4034 8.29468 41.5755 8.4313 41.5878 8.43242C41.624 8.43632 41.6564 8.4564 41.6765 8.48706C41.6965 8.51773 41.7021 8.5551 41.6909 8.59023C41.6893 8.5958 41.6447 8.75919 41.7495 8.94488C41.8621 9.14507 42.1025 9.29674 42.4627 9.39544C43.5177 9.68485 45.2955 10.0021 46.8345 9.94303C47.575 9.91459 48.5888 9.43838 49.1275 9.15678C49.4844 8.97053 50.2171 8.80491 50.6086 8.78707C50.8773 8.77424 51.5426 8.83056 51.8621 8.88242C57.2772 9.76404 60.3258 10.7321 60.3565 10.7421C60.4033 10.7572 60.4368 10.799 60.4412 10.8475C60.4457 10.8966 60.4206 10.9434 60.3771 10.9668C60.2104 11.0572 43.8077 19.9313 41.2225 23.7633V23.7639Z" fill="#001641" stroke="#001641" stroke-width="0.167289" stroke-miterlimit="10"/>
<path d="M42.8553 8.27401C42.5653 8.27401 42.2921 8.24279 42.0634 8.20989C41.9965 8.20041 41.9497 8.13795 41.9597 8.07048C41.9692 8.00356 42.0317 7.95561 42.0991 7.96676C42.6183 8.0426 43.3806 8.10672 43.9979 7.7872C44.4328 7.56248 44.7534 7.18329 45.0925 6.78236C45.4494 6.35967 45.8191 5.92305 46.3343 5.68494C46.3962 5.6565 46.4687 5.68327 46.4972 5.74517C46.5256 5.80706 46.4988 5.87955 46.4369 5.90799C45.9708 6.12324 45.6351 6.52083 45.2793 6.94128C44.9397 7.34333 44.5884 7.75876 44.1099 8.00635C43.7112 8.21267 43.2663 8.27513 42.8547 8.27513L42.8553 8.27401Z" fill="#001641" stroke="#001641" stroke-width="0.167289" stroke-miterlimit="10"/>
<path d="M42.4705 6.96756H42.4677C41.7004 6.9486 40.8696 6.84489 40.066 6.74451C39.5575 6.68094 39.0774 6.62128 38.6112 6.58057C38.5437 6.57444 38.4935 6.51533 38.4997 6.44785C38.5052 6.38038 38.5632 6.32796 38.6324 6.33633C39.1036 6.37703 39.6082 6.44005 40.0967 6.50083C40.8941 6.60064 41.7194 6.70325 42.4744 6.72221C42.5425 6.72388 42.596 6.7802 42.5943 6.84823C42.5926 6.91515 42.538 6.96812 42.4716 6.96812L42.4705 6.96756Z" fill="#001641" stroke="#001641" stroke-width="0.167289" stroke-miterlimit="10"/>
<path d="M42.6378 4.87862C42.6378 4.87862 42.6345 4.87862 42.6328 4.87862C41.9876 4.8513 41.3424 4.80167 40.7184 4.75315C40.0967 4.7052 39.4537 4.65557 38.813 4.62825C38.745 4.62546 38.6926 4.56802 38.6954 4.50055C38.6981 4.43252 38.7589 4.37787 38.8231 4.38289C39.4682 4.41021 40.1134 4.45984 40.7374 4.50836C41.3592 4.55631 42.0021 4.60594 42.6428 4.63326C42.7108 4.63605 42.7633 4.69349 42.7605 4.76096C42.7577 4.82732 42.703 4.87862 42.6378 4.87862Z" fill="#001641" stroke="#001641" stroke-width="0.167289" stroke-miterlimit="10"/>
<path d="M42.964 2.96817C42.964 2.96817 40.399 2.85218 39.7214 2.81984C39.6534 2.81649 39.6015 2.75906 39.6049 2.69103C39.6082 2.62299 39.6679 2.57002 39.7337 2.57448C40.4112 2.60682 42.9758 2.72281 42.9758 2.72281L42.9646 2.96817H42.964Z" fill="#001641" stroke="#001641" stroke-width="0.167289" stroke-miterlimit="10"/>
<path d="M26.9996 15.7842C22.4494 18.9403 20.1849 20.3188 20.1849 20.3188C20.1849 20.3188 39.2625 22.4021 43.1346 24.4982C43.1346 24.4982 36.2429 34.1725 21.6971 31.5098C7.15084 28.8466 6.75715 22.2337 9.34455 18.4061C11.6314 15.0224 19.2625 10.5703 24.2215 8.3978C24.2215 8.3978 30.1475 5.69219 32.0289 4.66894C35.2113 2.93806 35.9468 4.31819 35.112 4.9511C35.112 4.9511 37.487 4.3851 36.8914 6.07695C36.8914 6.07695 39.3238 5.83048 37.8299 7.74147C37.8299 7.74147 39.9913 7.90876 37.9085 9.63964C37.0771 10.3305 36.0711 10.9607 36.0711 10.9607C36.0711 10.9607 36.544 11.4765 35.7126 12.1953C34.8806 12.914 33.3956 13.9769 31.9726 14.5897C31.2811 14.8875 30.1759 14.9014 29.5112 14.8769C29.1259 14.863 28.4065 15.028 28.0675 15.1713C27.826 15.2734 27.2528 15.6091 26.9996 15.7847V15.7842Z" fill="#D7E3FF"/>
<path d="M26.6021 32.0916C25.0736 32.0916 23.4309 31.9528 21.6749 31.631C12.5398 29.9587 9.44385 26.8019 8.45517 24.4476C7.64103 22.5099 7.92821 20.2827 9.2431 18.3371C11.569 14.8966 19.3735 10.3876 24.1725 8.28476C24.2299 8.25856 30.114 5.57023 31.9704 4.56036C34.0453 3.43172 35.1466 3.59566 35.4589 4.07913C35.5933 4.28712 35.5816 4.5414 35.4444 4.7678C35.8777 4.71259 36.587 4.69085 36.9232 5.06446C37.1117 5.27413 37.158 5.56911 37.0604 5.94384C37.4017 5.93547 38.1216 5.97172 38.3603 6.40444C38.527 6.70667 38.4227 7.1249 38.0513 7.64962C38.3285 7.70427 38.7924 7.85037 38.9101 8.21952C39.0367 8.61711 38.735 9.11229 37.9872 9.73404C37.3158 10.2922 36.5229 10.8158 36.2413 10.9971C36.2881 11.0868 36.3361 11.224 36.326 11.3974C36.3087 11.6969 36.1292 11.9963 35.7924 12.2874C34.9526 13.0135 33.4609 14.0813 32.0206 14.702C31.3325 14.9986 30.273 15.0271 29.5062 14.9992C29.1393 14.9852 28.4456 15.1442 28.1144 15.2836C27.8835 15.3812 27.3209 15.7102 27.0688 15.8847C23.4939 18.3645 21.3091 19.7597 20.5501 20.2353C23.2502 20.5387 39.587 22.4385 43.1921 24.3902C43.2228 24.4069 43.2451 24.4359 43.2534 24.4705C43.2613 24.5051 43.254 24.5408 43.2339 24.5692C43.2166 24.5937 41.4551 27.0334 37.932 29.1083C35.4388 30.5765 31.6442 32.0905 26.6015 32.0911L26.6021 32.0916ZM34.5344 3.95645C34.0258 3.95645 33.2356 4.15218 32.0875 4.77672C30.2239 5.79049 24.332 8.48272 24.2723 8.50949C19.4985 10.6012 11.7441 15.075 9.44608 18.4749C8.17859 20.3502 7.89977 22.4926 8.68101 24.3528C9.64627 26.6508 12.6915 29.7367 21.7184 31.3896C29.1962 32.7585 34.5946 30.7901 37.8076 28.8975C40.8545 27.1031 42.5609 25.041 42.9484 24.5408C38.8666 22.5015 20.3594 20.4617 20.171 20.4411C20.1185 20.4355 20.0756 20.397 20.0644 20.3457C20.0533 20.2944 20.0756 20.2414 20.1208 20.2141C20.1431 20.2002 22.4355 18.8011 26.9294 15.6839C27.1954 15.4994 27.772 15.1626 28.0196 15.0583C28.3809 14.906 29.1131 14.7388 29.5157 14.7544C30.123 14.7767 31.2438 14.77 31.9241 14.4772C33.3382 13.8677 34.8054 12.8172 35.6323 12.1023C35.9173 11.8564 36.0684 11.6144 36.0818 11.3841C36.094 11.1733 35.982 11.045 35.9809 11.0439C35.9563 11.0171 35.9446 10.9803 35.9496 10.9447C35.9546 10.9084 35.9753 10.8761 36.0065 10.8571C36.0165 10.851 37.0158 10.2236 37.8311 9.54612C38.6435 8.87083 38.7394 8.49332 38.677 8.29536C38.58 7.98978 38.0262 7.88104 37.8216 7.86431C37.7764 7.86097 37.7368 7.83253 37.719 7.79126C37.7006 7.75 37.7067 7.70204 37.7346 7.66635C38.1344 7.15501 38.2766 6.76021 38.1467 6.52433C37.9543 6.1747 37.1848 6.17135 36.9048 6.19923C36.863 6.20258 36.8218 6.18585 36.7961 6.15295C36.7705 6.12005 36.7626 6.076 36.7766 6.0364C36.9054 5.67004 36.8937 5.39903 36.7415 5.23007C36.4136 4.86538 35.4751 4.99141 35.1411 5.07059C35.0847 5.08397 35.0262 5.05609 35.0017 5.00368C34.9771 4.95126 34.9922 4.8888 35.0385 4.85367C35.2866 4.66575 35.3747 4.40255 35.2531 4.21352C35.1684 4.08192 34.9414 3.95701 34.5355 3.95701L34.5344 3.95645Z" fill="#001641" stroke="#001641" stroke-width="0.167289" stroke-miterlimit="10"/>
<path d="M33.6103 11.5585C33.5886 11.5585 33.5668 11.5585 33.5445 11.5573C33.0064 11.5401 32.5096 11.3164 32.0295 11.0995C31.527 10.8731 31.0542 10.6551 30.5389 10.6651H30.5372C30.4703 10.6651 30.4151 10.611 30.4146 10.5441C30.4135 10.4761 30.4681 10.4203 30.5356 10.4198C31.106 10.4142 31.6257 10.6484 32.1304 10.8759C32.61 11.0923 33.0627 11.2964 33.5523 11.312C34.2438 11.3343 34.9068 10.949 35.3429 10.6568C35.3992 10.6188 35.4756 10.6339 35.5135 10.6902C35.5514 10.7465 35.5364 10.8229 35.4801 10.8609C35.0295 11.1625 34.3509 11.5585 33.6109 11.5585H33.6103Z" fill="#001641" stroke="#001641" stroke-width="0.167289" stroke-miterlimit="10"/>
<path d="M34.5232 9.92735C34.4786 9.92735 34.4351 9.90282 34.4134 9.85988C34.3827 9.79965 34.4067 9.72549 34.4674 9.69482C35.1411 9.35299 35.8409 8.90522 36.5178 8.47194C36.9322 8.20707 37.3604 7.93327 37.7675 7.69349C37.826 7.65892 37.9013 7.67899 37.9359 7.73699C37.9705 7.79554 37.9504 7.87082 37.8924 7.90539C37.4892 8.14238 37.0816 8.40279 36.6506 8.67882C35.9686 9.11489 35.2637 9.56657 34.579 9.91397C34.5611 9.92289 34.5422 9.92735 34.5238 9.92735H34.5232Z" fill="#001641" stroke="#001641" stroke-width="0.167289" stroke-miterlimit="10"/>
<path d="M33.4704 8.11474C33.4264 8.11474 33.384 8.09076 33.3617 8.04949C33.3299 7.98983 33.3528 7.9151 33.413 7.88332C33.9795 7.58332 34.5383 7.26156 35.0786 6.95041C35.6206 6.63869 36.181 6.31583 36.7521 6.01359C36.8117 5.98181 36.8859 6.00467 36.9182 6.06489C36.95 6.12456 36.9272 6.19928 36.8669 6.23107C36.3004 6.53107 35.7416 6.85282 35.2013 7.16398C34.6593 7.47569 34.0989 7.79856 33.5278 8.1008C33.5094 8.11028 33.4899 8.11529 33.4704 8.11529V8.11474Z" fill="#001641" stroke="#001641" stroke-width="0.167289" stroke-miterlimit="10"/>
<path d="M32.3457 6.53306C32.3022 6.53306 32.2592 6.50964 32.2375 6.46838C32.2051 6.40871 32.228 6.33399 32.2877 6.30221C32.5866 6.14161 33.1526 5.83993 33.7186 5.5377C34.2845 5.23546 34.8505 4.93378 35.1494 4.77374C35.2091 4.7414 35.2838 4.76426 35.3156 4.82393C35.3479 4.8836 35.3251 4.95832 35.2654 4.9901C34.9665 5.1507 34.4005 5.45238 33.8345 5.75461C33.2685 6.05685 32.7026 6.35853 32.4037 6.51857C32.3853 6.5286 32.3652 6.53306 32.3457 6.53306Z" fill="#001641" stroke="#001641" stroke-width="0.167289" stroke-miterlimit="10"/>
<path d="M60.472 41.9313L36.7883 51.0792C36.7883 51.0792 33.2234 40.6828 31.2076 33.1582C21.9108 33.1258 13.8018 30.1442 13.8018 30.1442L20.1855 20.3188L35.2599 20.4966C35.2599 20.4966 41.3743 18.8115 44.187 18.449C44.1936 18.4479 58.9217 11.4519 58.9217 11.4519L67.9821 17.912C67.9821 17.912 61.2928 23.4933 54.8801 27.4849C59.2664 38.9101 60.4731 41.9313 60.4731 41.9313H60.472Z" fill="#515976"/>
<path d="M41.2164 49.4919C41.1674 49.4919 41.1205 49.4618 41.1021 49.4132C41.0776 49.3497 41.1088 49.2789 41.1724 49.2543L60.3119 41.8618C60.1435 41.4369 59.4894 39.7791 57.9815 35.8824C57.957 35.8188 57.9882 35.748 58.0518 35.7235C58.1148 35.6989 58.1862 35.7301 58.2107 35.7937C59.9901 40.393 60.5801 41.8713 60.5857 41.8858C60.5979 41.9165 60.5974 41.9505 60.584 41.9806C60.5706 42.0107 60.5461 42.0341 60.5154 42.0458L41.2605 49.4829C41.246 49.4885 41.2309 49.4913 41.2164 49.4913V49.4919Z" fill="#001641" stroke="#001641" stroke-width="0.167289" stroke-miterlimit="10"/>
<path d="M14.0214 30.3451C14.008 30.3451 13.9946 30.3429 13.9812 30.3384C13.8351 30.2877 13.7587 30.2598 13.7587 30.2598C13.7236 30.247 13.6963 30.2185 13.6846 30.1834C13.6729 30.1477 13.6779 30.1087 13.6979 30.0774L20.0817 20.252C20.1045 20.2169 20.1464 20.1946 20.186 20.1963L35.2431 20.3741C35.6005 20.276 41.4266 18.6856 44.1512 18.3304C44.6971 18.0734 58.7237 11.4103 58.8676 11.3417C58.9077 11.3227 58.9551 11.3266 58.9914 11.3528L68.0517 17.8129C68.0824 17.8353 68.1013 17.8698 68.103 17.9083C68.1047 17.9462 68.0885 17.9825 68.0595 18.007C68.0149 18.0444 63.5572 21.7911 58.325 25.3683C58.2692 25.4067 58.1923 25.3922 58.1544 25.3365C58.1159 25.2807 58.1304 25.2043 58.1861 25.1658C62.9271 21.9243 67.0301 18.5446 67.779 17.9211L58.9072 11.5954C49.1197 16.2445 44.2175 18.5702 44.2008 18.5724C41.4288 18.9299 35.3518 20.5994 35.291 20.6167C35.2799 20.6201 35.2693 20.6223 35.257 20.6212L20.2501 20.4444L13.9879 30.0825C14.0097 30.0903 14.0342 30.0986 14.061 30.1081C14.1251 30.1304 14.1591 30.2001 14.1368 30.2642C14.119 30.315 14.0716 30.3468 14.0208 30.3468L14.0214 30.3451Z" fill="#001641" stroke="#001641" stroke-width="0.167289" stroke-miterlimit="10"/>
<path d="M50.5439 43.7733C50.4937 43.7733 50.4469 43.7426 50.4285 43.6924L42.3741 21.6722C42.3506 21.6086 42.3835 21.5378 42.4471 21.5144C42.5107 21.4915 42.5815 21.5239 42.6049 21.5875L50.6593 43.6077C50.6827 43.6712 50.6498 43.7421 50.5863 43.7655C50.5723 43.7705 50.5578 43.7727 50.5439 43.7727V43.7733Z" fill="#001641" stroke="#001641" stroke-width="0.167289" stroke-miterlimit="10"/>
<path d="M41.4936 29.008C42.0559 29.008 42.5118 28.5528 42.5118 27.9914C42.5118 27.43 42.0559 26.9749 41.4936 26.9749C40.9312 26.9749 40.4753 27.43 40.4753 27.9914C40.4753 28.5528 40.9312 29.008 41.4936 29.008Z" fill="#D7E3FF"/>
<path d="M41.4935 29.1304C41.4289 29.1304 41.3636 29.1249 41.2978 29.1137C40.9973 29.0619 40.7357 28.8962 40.5601 28.6475C40.3844 28.3988 40.3164 28.0966 40.3688 27.7966C40.4764 27.1776 41.0681 26.7622 41.6882 26.8687C41.9887 26.9206 42.2502 27.0862 42.4259 27.3349C42.6016 27.5836 42.6696 27.8858 42.6172 28.1858C42.5213 28.739 42.0378 29.1304 41.4935 29.1304ZM41.493 27.0973C41.0658 27.0973 40.6867 27.404 40.6114 27.8384C40.5707 28.0737 40.6236 28.3107 40.7614 28.5059C40.8991 28.7011 41.1049 28.831 41.3408 28.8717C41.827 28.9559 42.2921 28.6297 42.3763 28.144C42.417 27.9087 42.364 27.6722 42.2263 27.4771C42.0885 27.2819 41.8828 27.152 41.6469 27.1113C41.5956 27.1024 41.5437 27.0979 41.4935 27.0979L41.493 27.0973Z" fill="#001641"/>
<path d="M40.4898 27.8172H40.4909M41.4935 29.1304C41.4289 29.1304 41.3636 29.1249 41.2978 29.1137C40.9973 29.0619 40.7357 28.8962 40.5601 28.6475C40.3844 28.3988 40.3164 28.0966 40.3688 27.7966C40.4764 27.1776 41.0681 26.7622 41.6882 26.8687C41.9887 26.9206 42.2502 27.0862 42.4259 27.3349C42.6016 27.5836 42.6696 27.8858 42.6172 28.1858C42.5213 28.739 42.0378 29.1304 41.4935 29.1304ZM41.493 27.0973C41.0658 27.0973 40.6867 27.404 40.6114 27.8384C40.5707 28.0737 40.6236 28.3107 40.7614 28.5059C40.8991 28.7011 41.1049 28.831 41.3408 28.8717C41.827 28.9559 42.2921 28.6297 42.3763 28.144C42.417 27.9087 42.364 27.6722 42.2263 27.4771C42.0885 27.2819 41.8828 27.152 41.6469 27.1113C41.5956 27.1024 41.5437 27.0979 41.4935 27.0979L41.493 27.0973Z" stroke="#001641" stroke-width="0.167289" stroke-miterlimit="10"/>
<path d="M44.9726 39.1579C45.535 39.1579 45.9909 38.7027 45.9909 38.1413C45.9909 37.5799 45.535 37.1248 44.9726 37.1248C44.4103 37.1248 43.9544 37.5799 43.9544 38.1413C43.9544 38.7027 44.4103 39.1579 44.9726 39.1579Z" fill="#D7E3FF"/>
<path d="M44.9732 39.2806C44.9085 39.2806 44.8432 39.275 44.7774 39.2639C44.4769 39.212 44.2153 39.0464 44.0397 38.7977C43.864 38.549 43.796 38.2468 43.8484 37.9467C43.956 37.3278 44.5477 36.9123 45.1678 37.0189C45.4683 37.0707 45.7299 37.2363 45.9055 37.485C46.0812 37.7337 46.1492 38.036 46.0968 38.336C46.0009 38.8891 45.5174 39.2806 44.9732 39.2806ZM44.0904 37.9886C44.0497 38.2239 44.1027 38.4609 44.2404 38.6555C44.3782 38.8507 44.5839 38.9806 44.8198 39.0213C45.3066 39.1055 45.7711 38.7793 45.8553 38.2936C45.896 38.0583 45.8431 37.8218 45.7053 37.6267C45.5676 37.4315 45.3618 37.3016 45.1259 37.2609C44.6391 37.1767 44.1752 37.5029 44.0904 37.9886Z" fill="#001641" stroke="#001641" stroke-width="0.167289" stroke-miterlimit="10"/>
<path d="M40.303 3.30403C40.303 3.30403 37.4034 1.63226 35.0925 3.25217C32.7823 4.87208 29.688 14.6568 32.3596 15.9076C34.9191 17.1059 36.6996 14.2949 36.6996 14.2949L44.5778 13.3659C44.5778 13.3659 45.5737 6.75575 43.6271 4.70591C41.754 2.73357 40.3025 3.30458 40.3025 3.30458L40.303 3.30403Z" fill="#001641" stroke="#001641" stroke-width="0.167289" stroke-miterlimit="10"/>
<path d="M43.2601 18.6465L42.3373 18.8445L41.7936 13.6674C41.7936 13.6674 39.5067 7.73147 35.5593 13.1332L35.9257 20.3512L35.2587 20.4973C35.2587 20.4973 37.908 25.0291 42.4889 21.6309C43.1475 21.1424 43.046 19.8766 43.2596 18.6476L43.2601 18.6465Z" fill="#D7E3FF"/>
<path d="M39.3456 23.093C37.5606 23.093 35.8298 22.2024 35.31 20.9138C35.285 20.8507 35.3151 20.7794 35.3781 20.7537C35.4411 20.7286 35.5125 20.7587 35.5381 20.8217C36.0952 22.203 38.2755 23.1136 40.2044 22.7729C42.0691 22.4422 43.1765 21.0766 43.2429 19.0267C43.2451 18.9604 43.2997 18.908 43.3655 18.908C43.3672 18.908 43.3683 18.908 43.3695 18.908C43.4375 18.9102 43.4905 18.9671 43.4882 19.0345C43.418 21.211 42.2369 22.6619 40.2473 23.0149C39.949 23.0679 39.6467 23.093 39.3462 23.093H39.3456Z" fill="#001641" stroke="#001641" stroke-width="0.167289" stroke-miterlimit="10"/>
<path d="M35.2587 20.6195C35.2024 20.6195 35.1517 20.5805 35.1389 20.523C35.1244 20.4567 35.1662 20.3914 35.2325 20.3769L35.798 20.2531L35.4366 13.1395C35.435 13.111 35.4433 13.0837 35.4601 13.0608C36.6868 11.3818 37.8908 10.6084 39.0389 10.7595C40.878 11.0032 41.8667 13.5164 41.9079 13.6235C41.9118 13.6335 41.914 13.6441 41.9152 13.6547L42.4444 18.6957L43.1743 18.539C43.2401 18.5245 43.3059 18.5669 43.3204 18.6332C43.3349 18.6996 43.2925 18.7648 43.2261 18.7793L42.3629 18.9645C42.3295 18.9717 42.2932 18.9645 42.2654 18.9438C42.2369 18.9232 42.2191 18.892 42.2152 18.8574L41.6737 13.6971C41.5912 13.493 40.6337 11.2179 39.0071 11.0026C37.9638 10.866 36.8452 11.5937 35.6848 13.1701L36.0489 20.344C36.0517 20.4043 36.011 20.4572 35.9524 20.4701L35.2855 20.6162C35.2766 20.6178 35.2677 20.6189 35.2593 20.6189L35.2587 20.6195Z" fill="#001641" stroke="#001641" stroke-width="0.167289" stroke-miterlimit="10"/>
<path d="M47.5475 17.0756C48.0632 16.4769 47.7789 15.3865 46.9125 14.6402C46.0461 13.894 44.9257 13.7744 44.41 14.3731C43.8942 14.9719 44.1785 16.0623 45.0449 16.8085C45.9113 17.5548 47.0317 17.6744 47.5475 17.0756Z" fill="#001641" stroke="#001641" stroke-width="0.167289" stroke-miterlimit="10"/>
<path d="M45.2268 14.7874C45.8464 14.2964 45.7734 13.1723 45.0636 12.2765C44.3539 11.3807 43.2762 11.0525 42.6566 11.5434C42.0369 12.0344 42.11 13.1586 42.8197 14.0543C43.5294 14.9501 44.6071 15.2783 45.2268 14.7874Z" fill="#001641" stroke="#001641" stroke-width="0.167289" stroke-miterlimit="10"/>
<path d="M49.0021 19.3191C49.5846 18.8576 49.516 17.801 48.8489 16.959C48.1818 16.117 47.1689 15.8086 46.5864 16.2701C46.0039 16.7316 46.0725 17.7883 46.7396 18.6302C47.4067 19.4722 48.4197 19.7806 49.0021 19.3191Z" fill="#001641" stroke="#001641" stroke-width="0.167289" stroke-miterlimit="10"/>
<path d="M56.3683 21.7619C55.3462 21.7514 54.1054 21.5127 52.8274 21.0315C50.6348 20.2056 48.9853 18.9192 48.5615 17.824C48.4438 17.8981 48.3429 17.989 48.2643 18.0989C47.5159 19.1405 48.905 21.4112 51.3658 23.17C52.6266 24.0711 53.9242 24.6627 54.991 24.8858L56.3689 21.7625L56.3683 21.7619Z" fill="#001641" stroke="#001641" stroke-width="0.167289" stroke-miterlimit="10"/>
<path d="M37.308 13.7527C37.8445 14.5334 38.5493 15.2142 39.4042 15.6247C40.259 16.0345 41.2705 16.1555 42.1694 15.8533C43.6734 15.3475 44.5957 13.7544 44.7752 12.1807C44.9542 10.6071 44.531 9.03349 44.0983 7.50949C44.0983 7.50949 42.9418 5.32693 41.0503 4.92822C41.3748 7.79778 37.0292 7.40856 37.0331 9.74892C37.0342 10.325 36.5324 10.7488 35.9602 10.6768C35.8443 10.6623 35.7366 10.6668 35.6424 10.698C34.9314 10.9311 34.4591 11.7174 34.5745 12.4557C34.69 13.194 35.3385 13.8012 36.0773 13.9222C36.4945 13.9902 36.8887 14.0109 37.308 13.7533V13.7527Z" fill="#D7E3FF"/>
<path d="M41.1093 16.1451C40.5222 16.1451 39.9166 16.0068 39.3511 15.7358C38.5705 15.3616 37.8534 14.7331 37.2717 13.9151C36.8334 14.1437 36.4175 14.1025 36.0572 14.0434C35.2492 13.9112 34.5745 13.2515 34.4529 12.4747C34.3286 11.6796 34.8449 10.8303 35.6039 10.5816C35.7104 10.5465 35.8353 10.5381 35.9753 10.5554C36.2201 10.5861 36.4621 10.513 36.6405 10.3552C36.8145 10.2013 36.9104 9.98605 36.9104 9.74961C36.9087 8.58138 37.9214 8.04996 38.9006 7.53638C40.0275 6.9453 41.0915 6.38711 40.9281 4.94229C40.9237 4.90326 40.9387 4.86423 40.9677 4.83746C40.9967 4.81069 41.0369 4.8001 41.0759 4.80846C43.0019 5.21442 44.159 7.36129 44.207 7.45218C44.2109 7.45999 44.2142 7.46779 44.2165 7.47616C44.604 8.84012 45.0858 10.5381 44.8973 12.1948C44.691 14.0082 43.6354 15.4898 42.209 15.97C41.8616 16.0871 41.4896 16.1445 41.1093 16.1445V16.1451ZM37.308 13.6302C37.347 13.6302 37.3855 13.6491 37.4095 13.6831C37.9783 14.5112 38.6864 15.1441 39.4577 15.5138C40.3315 15.9332 41.3056 16.014 42.1304 15.7369C43.6505 15.2255 44.4925 13.5755 44.6531 12.1669C44.8354 10.5632 44.3642 8.897 43.9839 7.55646C43.8958 7.39642 42.8391 5.53784 41.1869 5.08783C41.2644 6.57447 40.0716 7.19958 39.0149 7.75386C38.058 8.25572 37.1546 8.72971 37.1558 9.74905C37.1558 10.0569 37.0308 10.3379 36.8028 10.5392C36.5714 10.7439 36.2585 10.8387 35.9446 10.7991C35.8409 10.7862 35.7522 10.7913 35.6803 10.8147C35.0306 11.0277 34.589 11.7554 34.6955 12.4363C34.8009 13.111 35.3903 13.6848 36.0968 13.8002C36.5351 13.8722 36.8797 13.8716 37.2439 13.648C37.2639 13.6357 37.2862 13.6296 37.308 13.6296V13.6302Z" fill="#001641" stroke="#001641" stroke-width="0.167289" stroke-miterlimit="10"/>
<path d="M36.9477 12.9159C36.9282 12.9159 36.9087 12.9115 36.8903 12.9014C36.5518 12.7224 36.2462 12.4916 35.9814 12.2155C35.9345 12.1665 35.9362 12.089 35.9847 12.0421C36.0338 11.9953 36.1113 11.9964 36.1581 12.0455C36.4046 12.302 36.6896 12.5172 37.0046 12.684C37.0649 12.7157 37.0877 12.7899 37.0559 12.8501C37.0336 12.892 36.9912 12.9154 36.9472 12.9154L36.9477 12.9159Z" fill="#001641" stroke="#001641" stroke-width="0.167289" stroke-miterlimit="10"/>
<path d="M35.1109 16.7219C35.3106 15.3985 34.7294 14.2135 33.8128 14.0752C32.8962 13.9369 31.9912 14.8976 31.7915 16.2211C31.5919 17.5446 32.1731 18.7295 33.0897 18.8678C34.0063 19.0061 34.9112 18.0454 35.1109 16.7219Z" fill="#001641" stroke="#001641" stroke-width="0.167289" stroke-miterlimit="10"/>
<path d="M34.0593 20.0727C34.3392 18.9484 33.935 17.8799 33.1565 17.6861C32.378 17.4923 31.52 18.2466 31.2401 19.3708C30.9602 20.4951 31.3644 21.5636 32.1429 21.7574C32.9214 21.9512 33.7794 21.197 34.0593 20.0727Z" fill="#001641" stroke="#001641" stroke-width="0.167289" stroke-miterlimit="10"/>
<path d="M32.8485 22.8895C33.307 21.9013 33.1243 20.8431 32.4404 20.5258C31.7565 20.2085 30.8304 20.7523 30.372 21.7404C29.9135 22.7285 30.0963 23.7868 30.7802 24.1041C31.464 24.4214 32.3901 23.8776 32.8485 22.8895Z" fill="#001641" stroke="#001641" stroke-width="0.167289" stroke-miterlimit="10"/>
<path d="M31.9726 31.8708C31.5109 30.9446 31.1557 29.7161 31.0018 28.3416C30.7386 25.9845 31.1429 23.9034 31.9392 23.0162C31.8176 22.9443 31.6888 22.8952 31.5533 22.8751C30.2652 22.6816 28.8499 24.9807 28.3921 28.0109C28.1573 29.5633 28.2198 31.0059 28.5098 32.0699L31.9726 31.8708Z" fill="#001641" stroke="#001641" stroke-width="0.167289" stroke-miterlimit="10"/>
<path d="M62.9946 48.3788L40.1954 57.776L37.2377 50.6294L58.2799 42.8003L62.9946 48.3788Z" fill="#515976"/>
<path d="M40.1954 57.8985C40.1475 57.8985 40.1017 57.8701 40.0822 57.8227L37.1251 50.6761C37.1123 50.6454 37.1129 50.6109 37.1262 50.5802C37.1396 50.5495 37.1647 50.5255 37.1959 50.5138L58.2375 42.6842C58.2855 42.6663 58.3407 42.6803 58.3741 42.7199L63.0889 48.2984C63.114 48.3285 63.1235 48.3686 63.1145 48.4066C63.1051 48.4445 63.0783 48.4763 63.042 48.4913L40.2428 57.8885C40.2278 57.8946 40.2116 57.898 40.196 57.898L40.1954 57.8985ZM37.4 50.7001L40.2618 57.6158L62.7922 48.329L58.242 42.9451L37.4006 50.7001H37.4Z" fill="#001641" stroke="#001641" stroke-width="0.167289" stroke-miterlimit="10"/>
<path d="M56.0488 51.1167C56.0488 51.1167 72.7727 18.8551 84.029 23.3479C97.2208 28.6136 78.2363 62.0161 78.2363 62.0161L56.0488 51.1167Z" fill="#515976"/>
<path d="M78.2363 62.1388C78.2179 62.1388 78.1995 62.1349 78.1822 62.126L55.9947 51.2266C55.9651 51.2121 55.9423 51.1865 55.9322 51.1547C55.9216 51.1234 55.9244 51.0889 55.94 51.0599C55.9819 50.979 60.1897 42.8995 65.7197 35.4736C68.9713 31.1074 72.0377 27.8168 74.8347 25.6928C78.3562 23.0184 81.4649 22.1914 84.0752 23.2331C86.0514 24.0221 87.4271 25.4881 88.1643 27.5915C90.0942 33.0975 87.3173 42.1858 84.6484 48.8405C81.7622 56.0373 78.3773 62.0162 78.3439 62.0758C78.3216 62.1154 78.2798 62.1377 78.2368 62.1377L78.2363 62.1388ZM56.2161 51.0621L78.1861 61.8545C78.6417 61.0403 81.7454 55.4177 84.4209 48.7468C88.2251 39.261 89.439 31.9739 87.9318 27.6729C87.2191 25.6398 85.8908 24.2229 83.9832 23.4611C81.4588 22.4535 78.4303 23.2704 74.9825 25.8885C72.2038 27.9986 69.1536 31.273 65.916 35.6202C60.7507 42.5566 56.7419 50.0634 56.2155 51.0615L56.2161 51.0621Z" fill="#001641" stroke="#001641" stroke-width="0.167289" stroke-miterlimit="10"/>
<path d="M65.8876 52.5125C65.8675 52.5125 65.8469 52.5075 65.8285 52.4969C65.7694 52.464 65.7476 52.3893 65.7805 52.3302L76.1446 33.6066C76.1775 33.547 76.2522 33.5258 76.3113 33.5587C76.3704 33.5916 76.3922 33.6663 76.3593 33.7254L65.9952 52.4489C65.9729 52.4896 65.9311 52.5125 65.8876 52.5125Z" fill="#001641" stroke="#001641" stroke-width="0.167289" stroke-miterlimit="10"/>
<path d="M65.4604 50.2114C70.3971 50.2114 75.07 52.4269 78.195 56.2411C84.4315 63.8538 95.0683 78.5585 104.186 99.6976C104.839 101.212 103.732 102.9 102.079 102.9H87.3752C85.7291 102.9 84.2101 102.015 83.3999 100.585L65.2257 68.4938C65.2257 68.4938 58.765 72.1318 50.8846 72.0922C50.3766 72.0894 49.6282 71.6054 49.2345 71.6037L35.8715 50.212L65.4604 50.2114Z" fill="#515976"/>
<path d="M102.079 103.023H87.3753C85.6879 103.023 84.1232 102.111 83.2929 100.645L65.1777 68.6592C64.3023 69.1254 58.2269 72.2146 51.0112 72.2152C50.9682 72.2152 50.9264 72.2152 50.8835 72.2152C50.5896 72.2135 50.2456 72.0736 49.9126 71.9386C49.6455 71.8299 49.3935 71.7273 49.2329 71.7267C49.1911 71.7267 49.1515 71.705 49.1292 71.6693L35.7662 50.277C35.7427 50.239 35.7411 50.1916 35.7628 50.1526C35.7846 50.1136 35.8258 50.0896 35.8704 50.0896H65.4599C70.4501 50.0896 75.1264 52.3039 78.2893 56.1644C84.01 63.147 94.9953 78.0815 104.298 99.65C104.621 100.4 104.547 101.254 104.099 101.936C103.651 102.617 102.896 103.023 102.079 103.023V103.023ZM65.2257 68.3704C65.2686 68.3704 65.3099 68.3927 65.3328 68.4328L83.507 100.524C84.2938 101.913 85.776 102.777 87.3758 102.777H102.08C102.814 102.777 103.492 102.411 103.894 101.8C104.297 101.187 104.363 100.42 104.073 99.7459C94.7828 78.2047 83.8126 63.2909 78.1002 56.3183C74.9842 52.5147 70.3771 50.3333 65.461 50.3333H36.0929L49.3048 71.4836C49.5022 71.5048 49.7476 71.6046 50.0058 71.7094C50.3169 71.836 50.6387 71.9665 50.8852 71.9682C58.6462 72.0055 65.1013 68.4222 65.1655 68.386C65.1844 68.3754 65.2051 68.3704 65.2257 68.3704Z" fill="#001641" stroke="#001641" stroke-width="0.167289" stroke-miterlimit="10"/>
<path d="M65.2257 68.6162C65.1816 68.6162 65.1393 68.5923 65.117 68.551L62.1877 63.011C62.1559 62.9507 62.1788 62.8766 62.239 62.8448C62.2992 62.813 62.3734 62.8364 62.4052 62.8961L65.3344 68.4361C65.3662 68.4964 65.3433 68.5705 65.2831 68.6023C65.2647 68.6118 65.2452 68.6168 65.2257 68.6168V68.6162Z" fill="#001641" stroke="#001641" stroke-width="0.167289" stroke-miterlimit="10"/>
<path d="M100.304 93.5796H81.0144C80.9464 93.5796 80.8917 93.5244 80.8917 93.4569C80.8917 93.3894 80.9464 93.3342 81.0144 93.3342H100.304C100.372 93.3342 100.427 93.3894 100.427 93.4569C100.427 93.5244 100.372 93.5796 100.304 93.5796Z" fill="#001641" stroke="#001641" stroke-width="0.167289" stroke-miterlimit="10"/>
<path d="M75.935 103.008C75.892 103.008 75.8502 102.986 75.8279 102.946L59.6672 74.106C59.6338 74.0469 59.655 73.9722 59.7141 73.9387C59.7738 73.9053 59.8485 73.9265 59.8814 73.9856L76.042 102.826C76.0755 102.885 76.0543 102.959 75.9952 102.993C75.9762 103.003 75.9556 103.008 75.935 103.008Z" fill="#001641" stroke="#001641" stroke-width="0.167289" stroke-miterlimit="10"/>
<path d="M47.2349 48.7898L63.3297 74.4949C59.6594 75.4657 55.7153 75.9096 51.5331 75.5794C27.0052 73.6439 18.2611 50.2698 17.7196 49.2437C18.2705 49.5203 31.207 33.1589 31.207 33.1589L36.094 48.8785L47.2349 48.7904V48.7898Z" fill="#001641"/>
<path d="M20.7916 79.4365C20.3344 78.9302 19.8732 78.3943 19.6786 77.7408C19.484 77.0872 19.6295 76.282 20.1955 75.9011C20.5965 75.6312 21.1323 75.6145 21.5171 75.3229C22.0418 74.9253 22.1087 74.1301 21.8628 73.5201C21.6169 72.9095 21.1318 72.4338 20.6812 71.9542C19.4583 70.6511 18.3888 69.1488 17.9042 67.4285C17.4196 65.7082 17.588 63.742 18.6514 62.3061C19.7154 60.8703 21.7602 60.1331 23.3985 60.8474C24.6075 61.3749 25.3999 62.5331 26.1259 63.6344C27.9572 66.4109 29.7962 69.2012 31.1853 72.223C32.5749 75.2448 33.5072 78.5326 33.423 81.8577C33.3924 83.0678 33.2173 84.3052 32.6362 85.3669C32.0552 86.4286 31.0085 87.2918 29.8029 87.3978C27.8529 87.569 27.1057 85.5236 25.8672 84.4379C24.0794 82.8715 22.3837 81.1997 20.7905 79.4359L20.7916 79.4365Z" fill="#D7E3FF"/>
<path d="M29.5748 87.5309C28.2867 87.5309 27.5272 86.5779 26.7911 85.6539C26.4744 85.2569 26.1471 84.8459 25.7868 84.5303C24.0075 82.9712 22.2961 81.2849 20.7002 79.5183C20.2122 78.978 19.7578 78.4382 19.5604 77.7752C19.3697 77.135 19.4656 76.2434 20.1264 75.799C20.3327 75.6601 20.5669 75.5854 20.7938 75.5123C21.0325 75.4359 21.2583 75.3634 21.4424 75.224C21.9325 74.8527 21.9671 74.1082 21.7485 73.5651C21.5349 73.0348 21.1212 72.5976 20.7213 72.1755L20.5909 72.0377C19.1327 70.4842 18.2154 68.987 17.7854 67.4613C17.2495 65.5587 17.5362 63.6042 18.5522 62.2324C19.712 60.6666 21.816 60.0231 23.447 60.734C24.7296 61.2939 25.5605 62.5536 26.2279 63.5662C28.0335 66.3036 29.9005 69.1347 31.2962 72.171C32.8654 75.5831 33.6221 78.8436 33.5451 81.8604C33.5072 83.3626 33.2524 84.4952 32.7433 85.4253C32.092 86.6158 30.9695 87.4183 29.8129 87.5197C29.731 87.527 29.6512 87.5303 29.5731 87.5303L29.5748 87.5309ZM20.8825 79.3538C22.4717 81.1137 24.1764 82.7933 25.9491 84.3457C26.3255 84.6758 26.6601 85.0952 26.9835 85.5011C27.7575 86.4725 28.4897 87.3909 29.7934 87.2755C30.8691 87.1807 31.9174 86.4268 32.5297 85.3082C33.0187 84.4138 33.2641 83.3163 33.3015 81.8548C33.3773 78.8759 32.6278 75.6523 31.0748 72.2747C29.6863 69.2552 27.825 66.4325 26.0244 63.7023C25.3748 62.717 24.5662 61.4908 23.35 60.9599C21.8472 60.3036 19.8264 60.927 18.7507 62.3791C17.7793 63.69 17.5077 65.5653 18.023 67.3949C18.4418 68.8816 19.3407 70.3453 20.771 71.8699L20.9003 72.0071C21.3158 72.4459 21.7457 72.9004 21.9766 73.4736C22.2303 74.1038 22.179 74.9742 21.5907 75.4203C21.3732 75.5854 21.1167 75.6673 20.8686 75.7465C20.6483 75.8168 20.4403 75.8837 20.2635 76.003C19.7304 76.3616 19.6245 77.1311 19.7957 77.7055C19.9786 78.3189 20.4141 78.8352 20.8825 79.3538Z" fill="#001641" stroke="#001641" stroke-width="0.167289" stroke-miterlimit="10"/>
<path d="M42.1315 81.0279C43.7035 78.6223 43.8384 75.0813 41.7663 73.0901C40.9187 72.2754 39.6579 71.5114 39.8001 70.3448C39.8558 69.8893 40.1341 69.4934 40.4352 69.1471C41.5125 67.9075 42.9618 67.0526 44.1479 65.9167C45.334 64.7808 46.2886 63.1587 45.9256 61.5572C45.6128 60.1776 44.3431 59.146 42.9618 58.841C41.5806 58.5359 40.1224 58.8644 38.8404 59.4611C34.99 61.2538 32.5933 65.3312 31.7847 69.5006C30.9761 73.67 31.526 77.9721 32.1706 82.1694C32.315 83.1118 32.4778 84.0887 33.0182 84.8744C35.2119 88.068 40.7926 83.0766 42.1315 81.0273V81.0279Z" fill="#D7E3FF"/>
<path d="M34.9916 86.0384C34.1133 86.0384 33.4152 85.6709 32.9172 84.9448C32.3445 84.1112 32.1811 83.045 32.0495 82.1885C31.386 77.8657 30.8573 73.6406 31.6648 69.4773C31.7668 68.9504 31.8945 68.424 32.0451 67.9115C32.064 67.8463 32.1326 67.8089 32.1973 67.8284C32.2626 67.8474 32.2999 67.916 32.2804 67.9807C32.1326 68.4859 32.0066 69.005 31.9057 69.5242C31.106 73.6484 31.6319 77.8501 32.2921 82.1511C32.4265 83.0266 32.5787 84.0186 33.1196 84.8054C33.5758 85.4696 34.2154 85.8014 35.0256 85.7919C37.5829 85.7623 41.0937 82.392 42.0294 80.9606C43.4118 78.8461 43.5813 76.0395 42.4426 74.1369C42.4081 74.0783 42.427 74.003 42.485 73.9685C42.543 73.9339 42.6188 73.9529 42.6534 74.0109C43.8384 75.9916 43.6666 78.9046 42.2346 81.0955C41.1489 82.7573 37.6208 86.0082 35.0284 86.0378C35.0161 86.0378 35.0039 86.0378 34.9916 86.0378V86.0384Z" fill="#001641" stroke="#001641" stroke-width="0.167289" stroke-miterlimit="10"/>
<path d="M36.2976 83.3544C36.2641 83.3544 36.2307 83.341 36.2067 83.3143C36.161 83.2641 36.1649 83.1866 36.215 83.1408C38.2247 81.3146 38.1907 78.1679 37.9911 76.4543C37.9002 75.6731 37.7591 74.8801 37.6231 74.1128C37.3375 72.5046 37.0426 70.8418 37.1864 69.1862C37.3994 66.7382 38.9363 64.0878 41.4618 63.7588C41.5292 63.7493 41.5906 63.7972 41.5995 63.8647C41.6084 63.9316 41.561 63.9935 41.4936 64.0024C39.0969 64.3147 37.6359 66.8575 37.4312 69.2079C37.2896 70.8312 37.5823 72.4779 37.8651 74.0704C38.0017 74.8411 38.1433 75.6385 38.2353 76.4264C38.44 78.1863 38.4712 81.4228 36.3807 83.3232C36.3572 83.3444 36.3277 83.355 36.2981 83.355L36.2976 83.3544Z" fill="#001641" stroke="#001641" stroke-width="0.167289" stroke-miterlimit="10"/>
<path d="M35.2163 74.4791C34.6096 73.0884 33.7007 71.7467 33.7029 70.23C33.7063 68.0335 35.5626 66.3695 36.873 64.6063C39.2218 61.4468 39.9796 57.0303 38.3541 53.4448C36.7286 49.8592 32.5659 47.4614 28.7199 48.3035C27.3259 48.6085 25.9524 49.3702 25.2939 50.636C24.5355 52.0925 24.8662 53.8652 25.3563 55.4322C25.847 56.9991 26.4883 58.5951 26.2959 60.2261C25.9547 63.1185 23.1269 65.1784 22.5347 68.0296C21.9197 70.9911 23.8574 73.8445 25.8699 76.1029C27.0036 77.3749 28.2019 78.6178 29.1298 80.0548C30.1932 81.7021 30.3187 83.1725 30.6901 85.025C31.086 86.9979 32.412 87.2254 33.7057 85.809C34.9303 84.4685 35.6267 82.5592 35.9295 80.7959C36.2925 78.6792 36.0773 76.4531 35.2158 74.4786L35.2163 74.4791Z" fill="#D7E3FF"/>
<path d="M32.1143 86.8401C32.0022 86.8401 31.8924 86.8256 31.7859 86.7955C31.1953 86.6316 30.7637 86.0115 30.5708 85.0496C30.51 84.7479 30.4565 84.4563 30.4035 84.1724C30.1358 82.7282 29.905 81.4808 29.0273 80.1218C28.2622 78.9369 27.2953 77.8662 26.3601 76.8313C26.1655 76.616 25.9715 76.4008 25.7791 76.185C24.0164 74.2071 21.7502 71.207 22.4149 68.0051C22.7015 66.6239 23.509 65.4183 24.2891 64.2523C24.651 63.7114 25.0252 63.1526 25.338 62.5877C25.3709 62.5286 25.4456 62.5069 25.5053 62.5398C25.5644 62.5727 25.5861 62.6474 25.5532 62.7071C25.2354 63.2803 24.8579 63.8441 24.4932 64.3889C23.7259 65.5354 22.9324 66.7209 22.6552 68.0553C22.0129 71.149 24.235 74.0838 25.962 76.0221C26.1538 76.2374 26.3479 76.4521 26.5419 76.6673C27.4832 77.7095 28.4568 78.7874 29.233 79.9891C30.137 81.3888 30.3723 82.6585 30.6444 84.1284C30.6968 84.4111 30.7503 84.7016 30.8106 85.0022C30.9845 85.8687 31.3537 86.4219 31.8505 86.5597C32.3675 86.7041 32.9937 86.4074 33.6149 85.7277C35.0541 84.1524 35.6067 81.9497 35.808 80.777C36.1755 78.6341 35.9251 76.4153 35.1026 74.5294C34.9543 74.1892 34.7837 73.8446 34.6192 73.5111C34.1067 72.4745 33.577 71.4027 33.5792 70.2306C33.582 68.4624 34.7502 67.0371 35.88 65.6592C36.1817 65.2911 36.4934 64.9108 36.7733 64.5339C37.8718 63.0562 38.6185 61.308 38.9324 59.4784C38.9436 59.4115 39.0072 59.3674 39.0741 59.378C39.141 59.3892 39.1856 59.4528 39.1744 59.5197C38.8538 61.3872 38.0921 63.1716 36.9707 64.68C36.6874 65.0614 36.3735 65.4439 36.0701 65.8142C34.9677 67.1592 33.8273 68.5499 33.8251 70.2306C33.8234 71.3448 34.3404 72.3903 34.84 73.4018C35.0062 73.7375 35.1774 74.0849 35.3285 74.4307C36.1699 76.3595 36.4259 78.6279 36.0506 80.8178C35.8448 82.0172 35.2783 84.2711 33.7967 85.8927C33.2296 86.5134 32.6441 86.8401 32.1137 86.8401H32.1143Z" fill="#001641" stroke="#001641" stroke-width="0.167289" stroke-miterlimit="10"/>
<path d="M32.0674 84.9865C32.039 84.9865 32.01 84.9765 31.9865 84.9564C31.9352 84.9118 31.9297 84.8343 31.9743 84.783C33.452 83.0828 33.2875 80.5149 32.6418 78.6781C32.1767 77.3565 31.4523 76.1191 30.752 74.923C30.3638 74.2605 29.9629 73.5758 29.6083 72.8815C28.3558 70.4296 28.0173 68.2727 28.6017 66.4699C28.9848 65.2888 29.7571 64.2935 30.5038 63.331C30.9923 62.7014 31.4975 62.0507 31.8873 61.3553C33.3589 58.7311 33.1364 55.2097 31.3464 52.7913C31.3062 52.7366 31.3174 52.6602 31.372 52.6195C31.4261 52.5788 31.5031 52.5905 31.5438 52.6452C33.3895 55.1383 33.6187 58.7696 32.1014 61.4752C31.7022 62.1868 31.1919 62.8448 30.6979 63.481C29.964 64.4267 29.2051 65.4048 28.8354 66.5452C28.2716 68.2839 28.6051 70.3778 29.8269 72.7689C30.1782 73.457 30.5774 74.139 30.9639 74.7981C31.6704 76.0048 32.4009 77.2517 32.8737 78.5955C33.5429 80.4971 33.7068 83.1636 32.16 84.943C32.1354 84.9709 32.1014 84.9854 32.0674 84.9854V84.9865Z" fill="#001641" stroke="#001641" stroke-width="0.167289" stroke-miterlimit="10"/>
<path d="M19.2637 84.4028H43.4977L41.8465 102.93H20.9148L19.2637 84.4028Z" fill="#ECF6FF"/>
<path d="M88.4102 21.2624C88.3544 21.2624 88.2998 21.2568 88.2463 21.2451C87.9111 21.1721 87.6758 20.8392 87.7422 20.5336C87.7567 20.4672 87.8213 20.4249 87.8883 20.4399C87.9546 20.4544 87.9964 20.5196 87.9819 20.586C87.9407 20.7739 88.1186 20.9658 88.2987 21.0053C88.4883 21.0466 88.7163 20.9747 88.9098 20.8118C89.2048 20.5643 89.3911 20.1656 89.4334 19.6888C89.4691 19.2906 89.4072 18.8942 89.3269 18.4904C88.5792 18.6572 87.7918 18.6694 87.0451 18.5211C86.3548 18.3839 85.8618 18.1308 85.5384 17.7482C85.1269 17.2609 84.9947 16.5075 85.1943 15.782C85.3851 15.0872 85.8301 14.4956 86.1964 14.0573C86.4591 13.7439 86.7401 13.4389 87.0117 13.1444C87.3295 12.8004 87.6574 12.4452 87.9546 12.0749C87.8336 11.1247 87.789 10.1678 87.8771 9.20926C87.9039 8.91539 87.9658 8.59085 88.22 8.41074C88.3567 8.31371 88.5318 8.28081 88.7124 8.3165C88.9333 8.36055 89.1357 8.49996 89.2539 8.68899C89.4195 8.95387 89.4636 9.29904 89.3877 9.74514C89.2556 10.523 88.8708 11.3087 88.2122 12.1463C88.3254 12.9961 88.4989 13.8415 88.6918 14.6796C88.7598 14.674 88.8284 14.6701 88.897 14.6673C89.6777 14.635 90.3457 14.8062 90.8286 15.1608C91.4303 15.603 91.7208 16.3776 91.519 17.0038C91.3511 17.5246 90.8716 17.954 90.1322 18.2445C89.9476 18.317 89.7591 18.3795 89.5667 18.4313C89.6487 18.844 89.7173 19.2784 89.6794 19.71C89.6314 20.252 89.4145 20.7098 89.0693 20.9992C88.8652 21.1704 88.6333 21.2619 88.4119 21.2619L88.4102 21.2624ZM87.9998 12.4078C87.7383 12.7195 87.4611 13.0201 87.1918 13.3117C86.9219 13.6039 86.6431 13.9062 86.3843 14.2157C86.0341 14.6344 85.6087 15.1988 85.4302 15.8478C85.2523 16.4964 85.365 17.1638 85.7252 17.5904C86.0113 17.9295 86.4585 18.1553 87.0925 18.2813C87.808 18.4235 88.5613 18.4107 89.2773 18.2507C89.1262 17.5269 88.9466 16.793 88.7732 16.082C88.6812 15.7062 88.5892 15.3276 88.5 14.9473C87.5492 15.066 86.6431 15.4636 85.9126 16.0882C85.8613 16.1322 85.7838 16.1261 85.7397 16.0748C85.6957 16.0235 85.7018 15.946 85.7531 15.9019C86.5137 15.2517 87.4555 14.8363 88.4442 14.7075C88.2697 13.9474 88.1113 13.1807 87.9992 12.4089L87.9998 12.4078ZM88.7476 14.9227C88.834 15.2913 88.9238 15.6582 89.0124 16.0235C89.1859 16.7333 89.3643 17.4661 89.516 18.1915C89.6944 18.1425 89.8695 18.0845 90.0407 18.0176C90.5069 17.8341 91.1013 17.4962 91.2837 16.9296C91.4766 16.3313 91.1264 15.6872 90.6814 15.3599C90.1288 14.954 89.4106 14.8937 88.9054 14.9138C88.8524 14.916 88.7994 14.9188 88.7464 14.9227H88.7476ZM88.5697 8.54903C88.5039 8.54903 88.4297 8.56408 88.3617 8.6126C88.1888 8.73528 88.1431 8.99513 88.1213 9.23324C88.0427 10.0886 88.0723 10.9452 88.1687 11.7994C88.7102 11.069 89.0303 10.382 89.1451 9.70555C89.2104 9.3219 89.1775 9.03249 89.0453 8.82059C88.9634 8.68955 88.8173 8.58918 88.6639 8.55851C88.6366 8.55293 88.6043 8.54903 88.5702 8.54903H88.5697Z" fill="#A1C1FF" stroke="#A1C1FF" stroke-width="0.167289" stroke-miterlimit="10"/>
<path d="M97.0379 15.8249C97.667 15.8249 98.1771 15.4422 98.1771 14.9701C98.1771 14.498 97.667 14.1152 97.0379 14.1152C96.4087 14.1152 95.8986 14.498 95.8986 14.9701C95.8986 15.4422 96.4087 15.8249 97.0379 15.8249Z" fill="#A1C1FF"/>
<path d="M101.061 19.9753C101.69 19.9753 102.2 19.5926 102.2 19.1205C102.2 18.6484 101.69 18.2656 101.061 18.2656C100.432 18.2656 99.9219 18.6484 99.9219 19.1205C99.9219 19.5926 100.432 19.9753 101.061 19.9753Z" fill="#A1C1FF"/>
<path d="M107.629 18.2756C108.258 18.2756 108.768 17.8929 108.768 17.4208C108.768 16.9486 108.258 16.5659 107.629 16.5659C107 16.5659 106.49 16.9486 106.49 17.4208C106.49 17.8929 107 18.2756 107.629 18.2756Z" fill="#A1C1FF"/>
<path d="M148.771 8.46701C149.4 8.46701 149.911 8.08429 149.911 7.61217C149.911 7.14005 149.4 6.75732 148.771 6.75732C148.142 6.75732 147.632 7.14005 147.632 7.61217C147.632 8.08429 148.142 8.46701 148.771 8.46701Z" fill="#A1C1FF"/>
<path d="M141.542 9.48093C142.171 9.48093 142.681 9.0982 142.681 8.62609C142.681 8.15397 142.171 7.77124 141.542 7.77124C140.913 7.77124 140.403 8.15397 140.403 8.62609C140.403 9.0982 140.913 9.48093 141.542 9.48093Z" fill="#A1C1FF"/>
<path d="M136.208 17.2514C136.837 17.2514 137.347 16.8687 137.347 16.3966C137.347 15.9245 136.837 15.5417 136.208 15.5417C135.579 15.5417 135.069 15.9245 135.069 16.3966C135.069 16.8687 135.579 17.2514 136.208 17.2514Z" fill="#A1C1FF"/>
<path d="M124.554 14.9255C125.183 14.9255 125.693 14.5428 125.693 14.0707C125.693 13.5985 125.183 13.2158 124.554 13.2158C123.924 13.2158 123.414 13.5985 123.414 14.0707C123.414 14.5428 123.924 14.9255 124.554 14.9255Z" fill="#A1C1FF"/>
<path d="M119.761 20.1294C120.39 20.1294 120.9 19.7466 120.9 19.2745C120.9 18.8024 120.39 18.4197 119.761 18.4197C119.132 18.4197 118.621 18.8024 118.621 19.2745C118.621 19.7466 119.132 20.1294 119.761 20.1294Z" fill="#A1C1FF"/>
<path d="M111.381 24.3455C96.5327 24.3455 85.4041 19.396 83.1273 17.0066C83.1055 16.9837 83.0933 16.9536 83.0933 16.9218V6.96869C83.0933 6.92185 83.12 6.87947 83.1618 6.85884C83.2037 6.83821 83.2539 6.84323 83.2907 6.87111C83.3152 6.89007 85.7927 8.76259 90.2961 10.4539C94.4516 12.0147 101.231 13.7366 109.93 13.0736C117.327 12.5099 122.431 10.3602 127.835 8.08451C134.697 5.19432 141.793 2.20654 154.269 2.20654C154.342 2.20654 154.414 2.20654 154.487 2.20654C154.555 2.20654 154.61 2.26175 154.61 2.32978C154.61 2.39725 154.555 2.45246 154.487 2.45246C154.415 2.45246 154.342 2.45246 154.27 2.45246C141.842 2.45246 134.771 5.43075 127.931 8.31146C122.508 10.595 117.386 12.7524 109.949 13.319C101.201 13.9853 94.3808 12.2522 90.2002 10.6803C86.3872 9.24661 84.0128 7.68134 83.3397 7.20903V16.8727C86.013 19.6029 100.115 25.5879 118.094 23.7606C123.104 23.2515 127.915 21.6555 132.568 20.1115C135.721 19.0653 138.982 17.9835 142.284 17.2452C148.22 15.9175 154.485 15.937 160.903 17.3016C160.969 17.3155 161.011 17.3807 160.997 17.4471C160.983 17.5135 160.918 17.5553 160.852 17.5419C154.469 16.1846 148.24 16.1657 142.339 17.485C139.047 18.2211 135.793 19.3007 132.646 20.3451C127.981 21.8931 123.157 23.4935 118.12 24.0054C115.805 24.2407 113.554 24.3461 111.383 24.3461L111.381 24.3455Z" fill="#A1C1FF" stroke="#A1C1FF" stroke-width="0.167289" stroke-miterlimit="10"/>
<path d="M106.404 17.2899C99.4 17.2899 93.8633 15.7436 90.2616 14.3272C85.6963 12.5322 83.1646 10.5498 83.1395 10.5303C83.0866 10.4885 83.0771 10.411 83.1195 10.358C83.1613 10.305 83.2388 10.2955 83.2918 10.3379C83.3169 10.3574 85.8268 12.3214 90.3614 14.103C94.5458 15.7469 101.36 17.5676 110.058 16.9046C117.393 16.3458 122.442 14.4716 127.788 12.487C134.688 9.92639 141.829 7.27766 154.518 7.31334C154.586 7.31334 154.64 7.36855 154.64 7.43658C154.64 7.50405 154.585 7.55926 154.518 7.55926C154.435 7.55926 154.351 7.55926 154.268 7.55926C141.773 7.55926 134.708 10.1812 127.874 12.7179C122.511 14.7081 117.447 16.5884 110.077 17.1499C108.813 17.2464 107.587 17.2904 106.404 17.2904L106.404 17.2899Z" fill="#A1C1FF" stroke="#A1C1FF" stroke-width="0.167289" stroke-miterlimit="10"/>
<path d="M107.994 20.5982C100.46 20.5982 94.4187 18.9705 90.5298 17.519C85.8329 15.7658 83.1702 13.8804 83.144 13.862C83.0888 13.8224 83.0759 13.746 83.1155 13.6908C83.1551 13.6356 83.2321 13.6228 83.2867 13.6624C83.3129 13.6814 85.955 15.5505 90.6246 17.2926C94.9334 18.9002 101.898 20.7231 110.614 20.287C118.712 19.8811 124.082 18.1864 129.767 16.3925C136.327 14.3226 143.11 12.1824 154.523 12.0949C155.731 12.0843 157.502 12.2767 158.774 12.439C158.842 12.4473 158.889 12.5092 158.881 12.5761C158.872 12.6436 158.812 12.6916 158.743 12.6826C157.479 12.5215 155.723 12.3297 154.525 12.3408C143.149 12.4284 136.384 14.563 129.841 16.6273C124.141 18.4262 118.756 20.1248 110.627 20.5329C109.731 20.5776 108.852 20.5987 107.994 20.5987L107.994 20.5982Z" fill="#A1C1FF" stroke="#A1C1FF" stroke-width="0.167289" stroke-miterlimit="10"/>
<path d="M114.063 24.3533C113.995 24.3533 113.94 24.2986 113.94 24.2306V12.6893C113.94 12.6213 113.995 12.5667 114.063 12.5667C114.13 12.5667 114.185 12.6219 114.185 12.6893V24.2306C114.185 24.2986 114.131 24.3533 114.063 24.3533Z" fill="#A1C1FF" stroke="#A1C1FF" stroke-width="0.167289" stroke-miterlimit="10"/>
<path d="M132.945 20.4366C132.877 20.4366 132.823 20.382 132.823 20.314V6.29406C132.823 6.22603 132.878 6.17139 132.945 6.17139C133.013 6.17139 133.068 6.22603 133.068 6.29406V20.314C133.068 20.382 133.013 20.4366 132.945 20.4366Z" fill="#A1C1FF" stroke="#A1C1FF" stroke-width="0.167289" stroke-miterlimit="10"/>
<path d="M98.1765 15.0927C98.1085 15.0927 98.0538 15.0381 98.0538 14.97V10.4081C98.0538 10.34 98.109 10.2854 98.1765 10.2854C98.244 10.2854 98.2992 10.34 98.2992 10.4081V14.97C98.2992 15.0381 98.244 15.0927 98.1765 15.0927Z" fill="#A1C1FF" stroke="#A1C1FF" stroke-width="0.167289" stroke-miterlimit="10"/>
<path d="M102.2 19.2431C102.132 19.2431 102.078 19.1885 102.078 19.1204V14.5585C102.078 14.4904 102.133 14.4358 102.2 14.4358C102.268 14.4358 102.323 14.4904 102.323 14.5585V19.1204C102.323 19.1885 102.268 19.2431 102.2 19.2431Z" fill="#A1C1FF" stroke="#A1C1FF" stroke-width="0.167289" stroke-miterlimit="10"/>
<path d="M108.768 17.5441C108.7 17.5441 108.645 17.4895 108.645 17.4215V12.8595C108.645 12.7915 108.7 12.7368 108.768 12.7368C108.835 12.7368 108.89 12.7915 108.89 12.8595V17.4215C108.89 17.4895 108.835 17.5441 108.768 17.5441Z" fill="#A1C1FF" stroke="#A1C1FF" stroke-width="0.167289" stroke-miterlimit="10"/>
<path d="M149.911 7.73554C149.843 7.73554 149.788 7.68089 149.788 7.61286V3.0509C149.788 2.98287 149.843 2.92822 149.911 2.92822C149.978 2.92822 150.033 2.98343 150.033 3.0509V7.61286C150.033 7.68089 149.978 7.73554 149.911 7.73554Z" fill="#A1C1FF" stroke="#A1C1FF" stroke-width="0.167289" stroke-miterlimit="10"/>
<path d="M142.681 8.74928C142.613 8.74928 142.559 8.69463 142.559 8.6266V4.06408C142.559 3.99605 142.614 3.94141 142.681 3.94141C142.749 3.94141 142.804 3.99661 142.804 4.06408V8.62605C142.804 8.69408 142.749 8.74872 142.681 8.74872V8.74928Z" fill="#A1C1FF" stroke="#A1C1FF" stroke-width="0.167289" stroke-miterlimit="10"/>
<path d="M137.347 16.5192C137.279 16.5192 137.224 16.4646 137.224 16.3966V11.8346C137.224 11.7666 137.279 11.7119 137.347 11.7119C137.415 11.7119 137.47 11.7666 137.47 11.8346V16.3966C137.47 16.4646 137.415 16.5192 137.347 16.5192Z" fill="#A1C1FF" stroke="#A1C1FF" stroke-width="0.167289" stroke-miterlimit="10"/>
<path d="M125.693 14.1933C125.625 14.1933 125.57 14.1387 125.57 14.0706V9.50866C125.57 9.44063 125.625 9.38599 125.693 9.38599C125.76 9.38599 125.815 9.44119 125.815 9.50866V14.0706C125.815 14.1387 125.761 14.1933 125.693 14.1933Z" fill="#A1C1FF" stroke="#A1C1FF" stroke-width="0.167289" stroke-miterlimit="10"/>
<path d="M120.899 19.3977C120.831 19.3977 120.777 19.343 120.777 19.275V14.713C120.777 14.645 120.831 14.5903 120.899 14.5903C120.967 14.5903 121.022 14.645 121.022 14.713V19.275C121.022 19.343 120.967 19.3977 120.899 19.3977Z" fill="#A1C1FF" stroke="#A1C1FF" stroke-width="0.167289" stroke-miterlimit="10"/>
<path d="M150.301 91.7104L154.163 102.922H152.488L146.487 91.7104H150.301Z" fill="#D7E3FF"/>
<path d="M154.162 103.045H152.488C152.443 103.045 152.401 103.02 152.38 102.98L146.379 91.7691C146.358 91.7311 146.36 91.6848 146.382 91.648C146.404 91.6112 146.444 91.5884 146.487 91.5884H150.301C150.354 91.5884 150.401 91.6218 150.417 91.6715L154.278 102.883C154.291 102.92 154.285 102.962 154.262 102.994C154.239 103.026 154.202 103.045 154.162 103.045V103.045ZM152.562 102.8H153.99L150.214 91.8337H146.692L152.562 102.8Z" fill="#001641" stroke="#001641" stroke-width="0.167289" stroke-miterlimit="10"/>
<path d="M114.076 91.7104L110.215 102.922H111.89L117.89 91.7104H114.076Z" fill="#D7E3FF"/>
<path d="M111.89 103.045H110.215C110.176 103.045 110.138 103.026 110.115 102.993C110.092 102.961 110.086 102.92 110.099 102.882L113.96 91.6707C113.977 91.6211 114.024 91.5876 114.076 91.5876H117.89C117.933 91.5876 117.973 91.6105 117.996 91.6473C118.018 91.6841 118.019 91.7304 117.999 91.7683L111.998 102.979C111.977 103.02 111.935 103.044 111.89 103.044V103.045ZM110.387 102.799H111.816L117.685 91.8336H114.163L110.387 102.799Z" fill="#001641" stroke="#001641" stroke-width="0.167289" stroke-miterlimit="10"/>
<path d="M156.749 66.3786H107.629L112.176 61.1631H153.388L156.749 66.3786Z" fill="#D7E3FF"/>
<path d="M156.749 66.5011H107.629C107.581 66.5011 107.537 66.4727 107.517 66.4292C107.498 66.3857 107.505 66.3339 107.536 66.2976L112.083 61.0821C112.107 61.0553 112.14 61.0403 112.176 61.0403H153.389C153.43 61.0403 153.469 61.0615 153.492 61.0966L156.852 66.3121C156.877 66.35 156.879 66.398 156.857 66.4376C156.836 66.4772 156.794 66.5017 156.749 66.5017L156.749 66.5011ZM107.899 66.2558H156.523L153.321 61.2856H112.232L107.899 66.2558Z" fill="#001641" stroke="#001641" stroke-width="0.167289" stroke-miterlimit="10"/>
<path d="M156.749 66.3728H141.637V91.7109H156.749V66.3728Z" fill="#D7E3FF"/>
<path d="M143.666 90.6553H145.459C145.722 90.6553 145.935 90.4423 145.935 90.1796V72.4442C145.935 72.1815 145.722 71.9686 145.459 71.9686H143.666C143.403 71.9686 143.191 72.1815 143.191 72.4442V90.1796C143.191 90.4423 143.403 90.6553 143.666 90.6553Z" fill="#D7E3FF"/>
<path d="M145.459 90.7786H143.666C143.336 90.7786 143.068 90.5098 143.068 90.1802V72.4443C143.068 72.1142 143.337 71.8459 143.666 71.8459H145.459C145.789 71.8459 146.057 72.1147 146.057 72.4443V90.1802C146.057 90.5103 145.789 90.7786 145.459 90.7786ZM143.667 72.0913C143.472 72.0913 143.314 72.2497 143.314 72.4443V90.1802C143.314 90.3748 143.472 90.5332 143.667 90.5332H145.46C145.654 90.5332 145.813 90.3748 145.813 90.1802V72.4443C145.813 72.2497 145.654 72.0913 145.46 72.0913H143.667Z" fill="#001641" stroke="#001641" stroke-width="0.167289" stroke-miterlimit="10"/>
<path d="M146.413 90.6526H148.449C148.721 90.6526 148.943 90.4314 148.943 90.1585V69.3155C148.943 69.0426 148.721 68.8214 148.449 68.8214H146.413C146.14 68.8214 145.919 69.0426 145.919 69.3155V90.1585C145.919 90.4314 146.14 90.6526 146.413 90.6526Z" fill="#D7E3FF"/>
<path d="M146.411 90.7787C146.071 90.7787 145.794 90.5022 145.794 90.162V69.3184C145.794 68.9782 146.071 68.7017 146.411 68.7017H148.447C148.787 68.7017 149.064 68.9782 149.064 69.3184V90.162C149.064 90.5022 148.786 90.7787 148.446 90.7787H146.411ZM148.447 68.947H146.411C146.207 68.947 146.041 69.1138 146.041 69.3178V90.1614C146.041 90.3661 146.207 90.5323 146.411 90.5323H148.447C148.651 90.5323 148.818 90.3655 148.818 90.1614V69.3178C148.818 69.1132 148.651 68.947 148.447 68.947Z" fill="#001641" stroke="#001641" stroke-width="0.167289" stroke-miterlimit="10"/>
<path d="M153.491 90.6532L151.923 90.4942C151.669 90.4686 151.484 90.2416 151.51 89.9879L153.621 69.1861C153.647 68.9324 153.873 68.7473 154.127 68.7735L155.695 68.9324C155.949 68.958 156.134 69.1844 156.108 69.4387L153.997 90.2405C153.972 90.4942 153.745 90.6794 153.491 90.6532Z" fill="#D7E3FF"/>
<path d="M153.538 90.7787C153.518 90.7787 153.498 90.7776 153.479 90.7759L151.911 90.617C151.755 90.6014 151.615 90.5261 151.517 90.4051C151.418 90.2841 151.372 90.1319 151.388 89.9763L153.498 69.1745C153.514 69.0189 153.589 68.8795 153.71 68.7803C153.831 68.6816 153.983 68.6358 154.138 68.6514L155.707 68.8104C156.027 68.8427 156.262 69.1304 156.229 69.4511L154.118 90.2529C154.088 90.5534 153.833 90.7787 153.537 90.7787H153.538ZM153.503 90.5311C153.688 90.5501 153.856 90.414 153.875 90.2278L155.985 69.426C156.004 69.2397 155.868 69.073 155.682 69.0546L154.114 68.8957C154.024 68.8856 153.936 68.913 153.865 68.9704C153.795 69.0278 153.752 69.1087 153.743 69.199L151.632 90.0008C151.622 90.0912 151.649 90.1793 151.707 90.2495C151.764 90.3198 151.845 90.3633 151.935 90.3728L153.503 90.5317V90.5311Z" fill="#001641" stroke="#001641" stroke-width="0.167289" stroke-miterlimit="10"/>
<path d="M154.245 72.3173L152.758 86.9902L153.431 87.0585L154.919 72.3856L154.245 72.3173Z" fill="#ECF6FF"/>
<path d="M150.951 90.6529L149.382 90.494C149.129 90.4683 148.944 90.2414 148.97 89.9877L151.08 69.1859C151.106 68.9322 151.332 68.747 151.587 68.7732L153.155 68.9321C153.409 68.9578 153.594 69.1842 153.567 69.4385L151.457 90.2403C151.431 90.494 151.205 90.6791 150.951 90.6529Z" fill="#D7E3FF"/>
<path d="M150.997 90.7786C150.978 90.7786 150.958 90.7775 150.938 90.7758L149.37 90.6169C149.215 90.6013 149.075 90.526 148.976 90.405C148.877 90.284 148.832 90.1318 148.847 89.9762L150.958 69.1744C150.973 69.0188 151.049 68.8794 151.17 68.7802C151.291 68.6815 151.443 68.6352 151.598 68.6514L153.166 68.8103C153.487 68.8426 153.721 69.1304 153.689 69.451L151.578 90.2528C151.547 90.5533 151.292 90.7786 150.996 90.7786H150.997ZM150.963 90.531C151.147 90.55 151.315 90.4139 151.334 90.2277L153.445 69.4259C153.454 69.3356 153.428 69.2475 153.37 69.1772C153.313 69.1069 153.232 69.0634 153.141 69.0545L151.573 68.8956C151.388 68.875 151.22 69.0127 151.202 69.1984L149.091 90.0002C149.082 90.0905 149.109 90.1786 149.166 90.2489C149.224 90.3191 149.304 90.3626 149.395 90.3716L150.963 90.5305V90.531Z" fill="#001641" stroke="#001641" stroke-width="0.167289" stroke-miterlimit="10"/>
<path d="M151.705 72.3171L150.217 86.99L150.89 87.0583L152.378 72.3854L151.705 72.3171Z" fill="#ECF6FF"/>
<path d="M144.966 66.3857H107.629V91.7105H144.966V66.3857Z" fill="#D7E3FF"/>
<path d="M144.966 91.8336C144.897 91.8336 144.843 91.7784 144.843 91.711V66.5284C144.843 66.4604 144.897 66.4058 144.966 66.4058C145.034 66.4058 145.088 66.461 145.088 66.5284V91.711C145.088 91.779 145.033 91.8336 144.966 91.8336Z" fill="#001641" stroke="#001641" stroke-width="0.167289" stroke-miterlimit="10"/>
<path d="M142.479 78.6276C142.483 77.6908 141.727 76.9283 140.79 76.9245C139.853 76.9208 139.09 77.6772 139.087 78.614C139.083 79.5509 139.839 80.3134 140.776 80.3171C141.713 80.3209 142.475 79.5645 142.479 78.6276Z" fill="#D7E3FF"/>
<path d="M140.785 80.4414C139.782 80.4414 138.966 79.6256 138.966 78.6225C138.966 77.6193 139.782 76.8035 140.785 76.8035C141.789 76.8035 142.604 77.6193 142.604 78.6225C142.604 79.6256 141.788 80.4414 140.785 80.4414ZM140.785 77.0488C139.918 77.0488 139.212 77.7548 139.212 78.6225C139.212 79.4901 139.918 80.1961 140.785 80.1961C141.653 80.1961 142.359 79.4901 142.359 78.6225C142.359 77.7548 141.653 77.0488 140.785 77.0488Z" fill="#001641" stroke="#001641" stroke-width="0.167289" stroke-miterlimit="10"/>
<path d="M156.749 91.8337H107.629C107.561 91.8337 107.506 91.7785 107.506 91.7111V66.3863C107.506 66.3183 107.561 66.2637 107.629 66.2637H156.749C156.817 66.2637 156.871 66.3189 156.871 66.3863V91.7111C156.871 91.7791 156.817 91.8337 156.749 91.8337ZM107.752 91.5878H156.626V66.5085H107.752V91.5878Z" fill="#001641" stroke="#001641" stroke-width="0.167289" stroke-miterlimit="10"/>
<path d="M156.749 91.8336C156.724 91.8336 156.7 91.8264 156.678 91.8113L154.092 89.9873C154.036 89.9483 154.023 89.8713 154.062 89.8161C154.101 89.7609 154.178 89.7475 154.233 89.7865L156.82 91.6105C156.875 91.6496 156.888 91.7265 156.849 91.7817C156.825 91.8158 156.787 91.8336 156.749 91.8336Z" fill="#001641" stroke="#001641" stroke-width="0.167289" stroke-miterlimit="10"/>
<path d="M150.396 50.0912H115.128L114.479 29.0719C114.459 28.4083 114.991 27.8596 115.655 27.8596H149.869C150.532 27.8596 151.065 28.4083 151.044 29.0719L150.396 50.0912Z" fill="#D7E3FF"/>
<path d="M150.396 50.2145H115.128C115.062 50.2145 115.007 50.162 115.005 50.0957L114.357 29.0764C114.346 28.7218 114.475 28.3866 114.722 28.1323C114.97 27.8775 115.301 27.7375 115.655 27.7375H149.869C150.224 27.7375 150.555 27.8775 150.802 28.1323C151.049 28.3866 151.179 28.7223 151.168 29.0764L150.519 50.0957C150.517 50.162 150.463 50.2145 150.397 50.2145H150.396ZM115.247 49.9685H150.276L150.921 29.0681C150.93 28.7809 150.824 28.5087 150.624 28.3024C150.424 28.0961 150.155 27.9823 149.868 27.9823H115.654C115.367 27.9823 115.098 28.0961 114.898 28.3024C114.698 28.5087 114.593 28.7809 114.601 29.0681L115.246 49.9685H115.247Z" fill="#001641" stroke="#001641" stroke-width="0.167289" stroke-miterlimit="10"/>
<path d="M148.47 50.0911H117.521L116.957 30.041H149.035L148.47 50.0911Z" fill="#D7E3FF"/>
<path d="M150.974 63.0027H152.938V64.5228C152.938 64.6566 152.83 64.7648 152.696 64.7648H151.216C151.082 64.7648 150.974 64.6566 150.974 64.5228V63.0027Z" fill="#D7E3FF"/>
<path d="M152.696 64.8873H151.216C151.015 64.8873 150.851 64.7234 150.851 64.5227V63.0026C150.851 62.9345 150.907 62.8799 150.974 62.8799H152.938C153.006 62.8799 153.061 62.9351 153.061 63.0026V64.5227C153.061 64.724 152.897 64.8873 152.696 64.8873ZM151.097 63.1252V64.5227C151.097 64.5885 151.15 64.642 151.216 64.642H152.696C152.762 64.642 152.815 64.5885 152.815 64.5227V63.1252H151.097H151.097Z" fill="#001641" stroke="#001641" stroke-width="0.167289" stroke-miterlimit="10"/>
<path d="M111.671 63.0027H113.635V64.5228C113.635 64.6566 113.527 64.7648 113.393 64.7648H111.913C111.779 64.7648 111.671 64.6566 111.671 64.5228V63.0027Z" fill="#D7E3FF"/>
<path d="M113.393 64.8873H111.913C111.711 64.8873 111.548 64.7234 111.548 64.5227V63.0026C111.548 62.9345 111.603 62.8799 111.671 62.8799H113.635C113.703 62.8799 113.757 62.9351 113.757 63.0026V64.5227C113.757 64.724 113.593 64.8873 113.393 64.8873ZM111.794 63.1252V64.5227C111.794 64.5885 111.847 64.642 111.913 64.642H113.393C113.459 64.642 113.512 64.5885 113.512 64.5227V63.1252H111.794H111.794Z" fill="#001641" stroke="#001641" stroke-width="0.167289" stroke-miterlimit="10"/>
<path d="M153.731 55.8208H110.904V63.5813H153.731V55.8208Z" fill="#D7E3FF"/>
<path d="M153.731 63.7041H110.904C110.836 63.7041 110.782 63.6489 110.782 63.5814V55.8209C110.782 55.7529 110.837 55.6982 110.904 55.6982H153.731C153.799 55.6982 153.854 55.7529 153.854 55.8209V63.5814C153.854 63.6495 153.799 63.7041 153.731 63.7041ZM111.027 63.4582H153.609V55.9436H111.027V63.4582Z" fill="#001641" stroke="#001641" stroke-width="0.167289" stroke-miterlimit="10"/>
<path d="M117.779 60.7347C117.259 60.7347 116.835 60.3109 116.835 59.7901C116.835 59.2693 117.259 58.8455 117.779 58.8455C118.3 58.8455 118.725 59.2693 118.725 59.7901C118.725 60.3109 118.301 60.7347 117.779 60.7347ZM117.779 59.0908C117.394 59.0908 117.08 59.4048 117.08 59.7901C117.08 60.1754 117.394 60.4893 117.779 60.4893C118.165 60.4893 118.479 60.1754 118.479 59.7901C118.479 59.4048 118.165 59.0908 117.779 59.0908Z" fill="#001641" stroke="#001641" stroke-width="0.167289" stroke-miterlimit="10"/>
<path d="M120.393 60.7347C119.872 60.7347 119.448 60.3109 119.448 59.7901C119.448 59.2693 119.872 58.8455 120.393 58.8455C120.914 58.8455 121.338 59.2693 121.338 59.7901C121.338 60.3109 120.914 60.7347 120.393 60.7347ZM120.393 59.0908C120.007 59.0908 119.694 59.4048 119.694 59.7901C119.694 60.1754 120.008 60.4893 120.393 60.4893C120.778 60.4893 121.092 60.1754 121.092 59.7901C121.092 59.4048 120.778 59.0908 120.393 59.0908Z" fill="#001641" stroke="#001641" stroke-width="0.167289" stroke-miterlimit="10"/>
<path d="M123.007 60.7347C122.486 60.7347 122.061 60.3109 122.061 59.7901C122.061 59.2693 122.485 58.8455 123.007 58.8455C123.528 58.8455 123.952 59.2693 123.952 59.7901C123.952 60.3109 123.528 60.7347 123.007 60.7347ZM123.007 59.0908C122.621 59.0908 122.307 59.4048 122.307 59.7901C122.307 60.1754 122.621 60.4893 123.007 60.4893C123.392 60.4893 123.706 60.1754 123.706 59.7901C123.706 59.4048 123.392 59.0908 123.007 59.0908Z" fill="#001641" stroke="#001641" stroke-width="0.167289" stroke-miterlimit="10"/>
<path d="M137.59 58.968H127.233V61.2409H137.59V58.968Z" fill="#A1C1FF"/>
<path d="M110.904 55.821L115.429 49.5354L149.812 49.604L153.731 55.821H110.904Z" fill="#D7E3FF"/>
<path d="M153.731 55.9436H110.904C110.858 55.9436 110.816 55.918 110.795 55.8767C110.774 55.8354 110.778 55.7864 110.805 55.749L115.329 49.4634C115.352 49.4311 115.389 49.4121 115.429 49.4121L149.812 49.4807C149.854 49.4807 149.893 49.5024 149.916 49.5381L153.835 55.7551C153.859 55.7931 153.86 55.841 153.839 55.88C153.817 55.9191 153.776 55.9436 153.731 55.9436ZM111.144 55.6983H153.509L149.744 49.7272L115.492 49.6586L111.144 55.6983Z" fill="#001641" stroke="#001641" stroke-width="0.167289" stroke-miterlimit="10"/>
<path d="M144.965 52.2165C144.965 54.3489 136.909 56.0775 126.747 56.0775C116.585 56.0775 109.593 54.3879 109.593 52.2555C109.593 50.1232 116.585 48.3555 126.747 48.3555C136.909 48.3555 144.965 50.0841 144.965 52.2165Z" fill="#001641" stroke="#001641" stroke-width="0.167289" stroke-miterlimit="10"/>
<path d="M127.233 53.0679C131.015 53.0679 134.081 52.4548 134.081 51.6984C134.081 50.942 131.015 50.3289 127.233 50.3289C123.452 50.3289 120.386 50.942 120.386 51.6984C120.386 52.4548 123.452 53.0679 127.233 53.0679Z" fill="#A1C1FF"/>
<path d="M127.027 49.407H127.44C127.583 49.407 127.7 49.5235 127.7 49.6668V51.6615H126.767V49.6668C126.767 49.5235 126.883 49.407 127.027 49.407H127.027Z" fill="#D7E3FF"/>
<path d="M147.931 49.2554H148.994C149.235 49.2554 149.431 49.4511 149.431 49.6926V51.69H147.494V49.6926C147.494 49.4511 147.69 49.2554 147.932 49.2554H147.931Z" fill="#D7E3FF"/>
<path d="M149.431 51.8125H147.494C147.426 51.8125 147.371 51.7573 147.371 51.6899V49.6924C147.371 49.3835 147.622 49.1326 147.931 49.1326H148.994C149.303 49.1326 149.554 49.3835 149.554 49.6924V51.6899C149.554 51.7579 149.499 51.8125 149.431 51.8125ZM147.617 51.5666H149.308V49.6919C149.308 49.5184 149.167 49.3779 148.994 49.3779H147.931C147.758 49.3779 147.617 49.519 147.617 49.6919V51.5666H147.617Z" fill="#001641" stroke="#001641" stroke-width="0.167289" stroke-miterlimit="10"/>
<path d="M135.136 53.5552C135.068 53.5552 135.013 53.5 135.013 53.4325V52.678C135.013 52.6156 135.06 52.5632 135.122 52.5559L142.451 51.6983L144.076 51.0832C144.139 51.0598 144.21 51.091 144.234 51.1546C144.258 51.2182 144.226 51.289 144.163 51.3129L142.524 51.9336C142.514 51.9369 142.505 51.9397 142.495 51.9408L135.259 52.7873V53.4325C135.259 53.5005 135.204 53.5552 135.136 53.5552H135.136Z" fill="#D7E3FF"/>
<path d="M144.118 51.3214C144.069 51.3214 144.022 51.2913 144.004 51.2417C143.98 51.1781 144.012 51.1073 144.076 51.0833L147.451 49.8158C147.514 49.7924 147.585 49.8242 147.609 49.8877C147.633 49.9513 147.601 50.0221 147.537 50.0461L144.162 51.3136C144.147 51.3186 144.133 51.3214 144.119 51.3214H144.118Z" fill="#001641" stroke="#001641" stroke-width="0.167289" stroke-miterlimit="10"/>
<path d="M147.619 54.5061C147.619 54.6751 147.199 54.8122 146.681 54.8122C146.163 54.8122 145.743 54.6751 145.743 54.5061C145.743 54.3371 146.163 54.2 146.681 54.2C147.199 54.2 147.619 54.3371 147.619 54.5061Z" fill="#D7E3FF"/>
<path d="M146.681 54.9348C146.153 54.9348 145.62 54.8021 145.62 54.506C145.62 54.2099 146.153 54.0771 146.681 54.0771C147.209 54.0771 147.741 54.2099 147.741 54.506C147.741 54.8021 147.192 54.9348 146.681 54.9348ZM146.681 54.3225C146.162 54.3225 145.887 54.4575 145.865 54.5115C145.887 54.5539 146.162 54.6894 146.681 54.6894C147.199 54.6894 147.456 54.5628 147.494 54.506C147.456 54.4491 147.183 54.3225 146.681 54.3225Z" fill="#001641"/>
<path d="M147.497 54.5115H147.498M146.681 54.9348C146.153 54.9348 145.62 54.8021 145.62 54.506C145.62 54.2099 146.153 54.0771 146.681 54.0771C147.209 54.0771 147.741 54.2099 147.741 54.506C147.741 54.8021 147.192 54.9348 146.681 54.9348ZM146.681 54.3225C146.162 54.3225 145.887 54.4575 145.865 54.5115C145.887 54.5539 146.162 54.6894 146.681 54.6894C147.199 54.6894 147.456 54.5628 147.494 54.506C147.456 54.4491 147.183 54.3225 146.681 54.3225Z" stroke="#001641" stroke-width="0.167289" stroke-miterlimit="10"/>
<path d="M150.566 54.5061C150.566 54.6751 150.146 54.8122 149.628 54.8122C149.11 54.8122 148.69 54.6751 148.69 54.5061C148.69 54.3371 149.11 54.2 149.628 54.2C150.146 54.2 150.566 54.3371 150.566 54.5061Z" fill="#D7E3FF"/>
<path d="M149.628 54.9348C149.1 54.9348 148.568 54.8021 148.568 54.506C148.568 54.2099 149.1 54.0771 149.628 54.0771C150.156 54.0771 150.689 54.2099 150.689 54.506C150.689 54.8021 150.139 54.9348 149.628 54.9348ZM149.628 54.3225C149.109 54.3225 148.834 54.4575 148.813 54.5115C148.835 54.5539 149.11 54.6894 149.628 54.6894C150.147 54.6894 150.404 54.5628 150.441 54.506C150.404 54.4491 150.13 54.3225 149.628 54.3225Z" fill="#001641"/>
<path d="M150.444 54.5115H150.445M149.628 54.9348C149.1 54.9348 148.568 54.8021 148.568 54.506C148.568 54.2099 149.1 54.0771 149.628 54.0771C150.156 54.0771 150.689 54.2099 150.689 54.506C150.689 54.8021 150.139 54.9348 149.628 54.9348ZM149.628 54.3225C149.109 54.3225 148.834 54.4575 148.813 54.5115C148.835 54.5539 149.11 54.6894 149.628 54.6894C150.147 54.6894 150.404 54.5628 150.441 54.506C150.404 54.4491 150.13 54.3225 149.628 54.3225Z" stroke="#001641" stroke-width="0.167289" stroke-miterlimit="10"/>
<defs>
<filter id="filter0_f_4234_3743" x="0.153846" y="63.1538" width="168.692" height="66.6923" filterUnits="userSpaceOnUse" color-interpolation-filters="sRGB">
<feFlood flood-opacity="0" result="BackgroundImageFix"/>
<feBlend mode="normal" in="SourceGraphic" in2="BackgroundImageFix" result="shape"/>
<feGaussianBlur stdDeviation="3.92308" result="effect1_foregroundBlur_4234_3743"/>
</filter>
</defs>
</svg>
