<?xml version="1.0" encoding="UTF-8" standalone="no"?>
<svg
   xml:space="preserve"
   preserveAspectRatio="xMinYMid"
   enable-background="new 0 0 1280 800"
   viewBox="0 0 646.473 236.49001"
   y="0px"
   x="0px"
   id="Ebene_1"
   version="1.1"
   inkscape:version="1.1.2 (0a00cf5339, 2022-02-04)"
   sodipodi:docname="logo-red.svg"
   width="646.47302"
   height="236.49001"
   xmlns:inkscape="http://www.inkscape.org/namespaces/inkscape"
   xmlns:sodipodi="http://sodipodi.sourceforge.net/DTD/sodipodi-0.dtd"
   xmlns="http://www.w3.org/2000/svg"
   xmlns:svg="http://www.w3.org/2000/svg"
   xmlns:rdf="http://www.w3.org/1999/02/22-rdf-syntax-ns#"
   xmlns:cc="http://creativecommons.org/ns#"
   xmlns:dc="http://purl.org/dc/elements/1.1/"><metadata
   id="metadata27"><rdf:RDF><cc:Work
       rdf:about=""><dc:format>image/svg+xml</dc:format><dc:type
         rdf:resource="http://purl.org/dc/dcmitype/StillImage" /></cc:Work></rdf:RDF></metadata><defs
   id="defs25" /><sodipodi:namedview
   pagecolor="#ffffff"
   bordercolor="#666666"
   borderopacity="1"
   objecttolerance="10"
   gridtolerance="10"
   guidetolerance="10"
   inkscape:pageopacity="0"
   inkscape:pageshadow="2"
   inkscape:window-width="1850"
   inkscape:window-height="1016"
   id="namedview42"
   showgrid="false"
   inkscape:zoom="1.9375"
   inkscape:cx="500.90323"
   inkscape:cy="85.419355"
   inkscape:window-x="70"
   inkscape:window-y="27"
   inkscape:window-maximized="1"
   inkscape:current-layer="Ebene_1"
   fit-margin-top="0"
   fit-margin-left="0"
   fit-margin-right="0"
   fit-margin-bottom="0"
   inkscape:pagecheckerboard="0" />
    <g
   style="fill:#4a4a4a;fill-opacity:1"
   id="g9"
   transform="translate(-132.628,-222.799)">
        <path
   style="fill:#4a4a4a;fill-opacity:1"
   id="path11"
   d="M 494.016,299.858 H 451.32 v -8.082 h 94.178 v 8.082 h -42.696 v 121.939 h -8.785 V 299.858 Z"
   inkscape:connector-curvature="0" />
        <path
   style="fill:#4a4a4a;fill-opacity:1"
   id="path13"
   d="m 543.209,396.496 v -66.943 h 8.434 v 65.889 c 0,14.057 6.15,20.908 20.206,20.908 12.827,0 23.544,-6.676 34.965,-17.57 v -69.228 h 8.434 v 92.245 h -8.434 v -15.285 c -10.191,9.662 -22.139,17.219 -35.668,17.219 -19.152,-10e-4 -27.937,-10.543 -27.937,-27.235 z"
   inkscape:connector-curvature="0" />
        <path
   style="fill:#4a4a4a;fill-opacity:1"
   id="path15"
   d="m 652.319,401.24 v -64.133 h -16.165 v -7.555 h 16.165 v -33.56 h 8.434 v 33.56 h 24.071 v 7.555 h -24.071 v 62.902 c 0,9.84 3.339,15.463 14.935,15.463 3.515,0 7.028,-0.352 9.664,-1.23 v 7.906 c -2.987,0.527 -6.501,0.879 -10.366,0.879 -15.287,0 -22.667,-6.15 -22.667,-21.787 z"
   inkscape:connector-curvature="0" />
        <path
   style="fill:#4a4a4a;fill-opacity:1"
   id="path17"
   d="m 703.27,400.537 c 0,-17.57 14.935,-30.749 63.43,-38.831 v -5.623 c 0,-14.056 -7.38,-21.084 -20.03,-21.084 -15.287,0 -25.478,5.974 -35.845,15.287 l -4.919,-5.271 c 11.421,-10.542 23.192,-17.395 40.938,-17.395 19.152,0 28.289,10.894 28.289,27.937 v 43.399 c 0,11.246 0.703,18.097 2.636,22.841 h -8.961 c -1.23,-3.865 -2.108,-8.434 -2.108,-13.705 -11.245,9.664 -23.545,15.287 -37.426,15.287 -16.868,0 -26.004,-8.785 -26.004,-22.842 z m 63.429,-0.703 v -31.803 c -44.98,7.907 -54.996,18.976 -54.996,31.978 0,10.367 6.853,15.99 18.273,15.99 13.706,10e-4 26.18,-5.974 36.723,-16.165 z"
   inkscape:connector-curvature="0" />
    </g>
    
    
    <g
   id="g33"
   style="fill:#840010"
   transform="translate(-132.62802,-222.799)">
      <path
   d="m 155.503,222.799 c -12.64,0 -22.875,10.246 -22.875,22.872 v 211.23 c 0,0.801 0.046,1.608 0.123,2.388 8.5,-3.167 17.524,-6.629 27.054,-10.436 66.336,-26.48 120.569,-48.994 120.618,-74.415 0,-0.814 -0.056,-1.636 -0.172,-2.458 -3.43,-25.098 -63.407,-32.879 -63.324,-44.381 0.007,-0.611 0.18,-1.25 0.548,-1.889 7.205,-12.619 35.743,-12.015 46.253,-12.907 10.519,-0.913 35.206,-0.724 36.399,-8.244 0.035,-0.232 0.057,-0.463 0.057,-0.695 0.028,-6.987 -16.977,-9.726 -16.977,-9.726 0,0 20.635,3.083 20.579,11.11 0,0.393 -0.048,0.8 -0.158,1.214 -2.222,8.624 -20.379,10.246 -32.386,10.835 -11.356,0.569 -28.648,1.861 -28.707,7.408 -0.007,0.323 0.049,0.66 0.165,1.004 2.71,8.11 66.09,12.015 106.64,33.061 23.335,12.099 34.94,32.422 40.263,53.418 v -166.52 c 0,-12.626 -10.243,-22.872 -22.869,-22.872 H 155.503 Z"
   id="a"
   inkscape:connector-curvature="0" />
    </g>
</svg>
