<?xml version="1.0" encoding="UTF-8" standalone="no"?>
<!-- Generator: Adobe Illustrator 27.8.0, SVG Export Plug-In . SVG Version: 6.00 Build 0)  -->

<svg
		version="1.1"
		id="Layer_2_00000109733484558031751480000005632669012941692061_"
		x="0px"
		y="0px"
		viewBox="0 0 300 300"
		style="enable-background:new 0 0 300 300;"
		xml:space="preserve"
		sodipodi:docname="tuta_switch_favicon.svg"
		inkscape:version="1.1.2 (0a00cf5339, 2022-02-04)"
		xmlns:inkscape="http://www.inkscape.org/namespaces/inkscape"
		xmlns:sodipodi="http://sodipodi.sourceforge.net/DTD/sodipodi-0.dtd"
		xmlns="http://www.w3.org/2000/svg"
><defs
   id="defs15" />
	<sodipodi:namedview
			id="namedview13"
			pagecolor="#ffffff"
			bordercolor="#666666"
			borderopacity="1.0"
			inkscape:pageshadow="2"
			inkscape:pageopacity="0.0"
			inkscape:pagecheckerboard="0"
			showgrid="false"
			inkscape:zoom="0.873"
			inkscape:cx="135.16609"
			inkscape:cy="225.08591"
			inkscape:window-width="1920"
			inkscape:window-height="992"
			inkscape:window-x="0"
			inkscape:window-y="258"
			inkscape:window-maximized="1"
			inkscape:current-layer="Layer_2_00000109733484558031751480000005632669012941692061_"/>
	<g
			style="fill:#840010"
			id="g10"
			transform="matrix(0.59994803,0,0,0.599955,0,-0.01500168)">
	<g
			id="g4">
		<path
				class="st0"
				d="m 496.3,141.9 c 0,0 -357.5,0 -359,0 0,0 0,0 0,0 -1.2,0 -2.2,0.8 -2.6,1.9 -0.2,0.5 -0.4,1.1 -0.5,1.6 L 27,496 c 0,0 -0.1,0.2 -0.1,0.4 -0.1,0.2 -0.1,0.5 -0.1,0.7 0,1.6 1.3,2.9 2.9,2.9 0,0 358.9,0 358.9,0 0,0 0.4,0 0.6,0 1.1,-0.2 1.9,-0.9 2.3,-1.9 0,0 0,0 0,0 0.2,-0.6 0.5,-1.4 0.9,-2.5 L 499.9,146.5 c 0.6,-2.8 -0.7,-4.6 -3.6,-4.6 z"
				id="path2"/>
	</g>
		<path
				class="st0"
				d="M 86,120.9 5.2,40.6 C 4.2,39.7 3,39.8 2.9,39.8 1.3,39.8 0,41.1 0,42.7 c 0,0 0,353.7 0,353.7 0,0 0,0 0,0 0,1.6 1.3,2.9 2.9,2.9 1.2,0 2.3,-0.8 2.7,-1.9 0.1,-0.1 0.1,-0.3 0.2,-0.5 0,-0.1 0.2,-0.8 0.2,-0.9 L 87.5,128.4 c 1,-3 1,-5 -1.5,-7.5 z"
				id="path6"/>
		<path
				class="st0"
				d="M 498.8,88.5 414.3,3 c -3.7,-3.6 -4,-3 -8,-3 0,0 -364.4,0 -364.5,0 -1.6,0 -2.9,1.3 -2.9,2.9 0,0.1 -0.1,1.3 0.9,2.4 0,0 0.1,0.1 0.1,0.1 L 125,91.5 c 2,2 4,2.5 7,2.5 h 365.3 c 2.5,0 3.8,-3.2 1.5,-5.5 z"
				id="path8"/>
</g>
</svg>
