<?xml version="1.0" encoding="utf-8"?>
<!-- Generator: Adobe Illustrator 27.8.0, SVG Export Plug-In . SVG Version: 6.00 Build 0)  -->
<svg version="1.1" id="Layer_2_00000109733484558031751480000005632669012941692061_"
	 xmlns="http://www.w3.org/2000/svg" xmlns:xlink="http://www.w3.org/1999/xlink" x="0px" y="0px" viewBox="0 0 500 500"
	 style="enable-background:new 0 0 500 500;" xml:space="preserve">
<g style="fill: ${highlightColor};">
	<g>
		<path class="st0" d="M496.3,141.9c0,0-357.5,0-359,0c0,0,0,0,0,0c-1.2,0-2.2,0.8-2.6,1.9c-0.2,0.5-0.4,1.1-0.5,1.6L27,496
			c0,0-0.1,0.2-0.1,0.4c-0.1,0.2-0.1,0.5-0.1,0.7c0,1.6,1.3,2.9,2.9,2.9c0,0,358.9,0,358.9,0c0,0,0.4,0,0.6,0
			c1.1-0.2,1.9-0.9,2.3-1.9c0,0,0,0,0,0c0.2-0.6,0.5-1.4,0.9-2.5l107.5-349.1C500.5,143.7,499.2,141.9,496.3,141.9z"/>
	</g>
	<path class="st0" d="M86,120.9L5.2,40.6c-1-0.9-2.2-0.8-2.3-0.8c-1.6,0-2.9,1.3-2.9,2.9c0,0,0,353.7,0,353.7c0,0,0,0,0,0
		c0,1.6,1.3,2.9,2.9,2.9c1.2,0,2.3-0.8,2.7-1.9c0.1-0.1,0.1-0.3,0.2-0.5c0-0.1,0.2-0.8,0.2-0.9l81.5-267.6
		C88.5,125.4,88.5,123.4,86,120.9z"/>
	<path class="st0" d="M498.8,88.5L414.3,3c-3.7-3.6-4-3-8-3c0,0-364.4,0-364.5,0c-1.6,0-2.9,1.3-2.9,2.9c0,0.1-0.1,1.3,0.9,2.4
		c0,0,0.1,0.1,0.1,0.1L125,91.5c2,2,4,2.5,7,2.5h365.3C499.8,94,501.1,90.8,498.8,88.5z"/>
</g>
</svg>
