<?xml version="1.0" encoding="utf-8"?>
<!-- Generator: Adobe Illustrator 27.8.0, SVG Export Plug-In . SVG Version: 6.00 Build 0)  -->
<svg version="1.1" id="Layer_2_00000083781204163641012700000017867733999449875135_"
	 xmlns="http://www.w3.org/2000/svg" xmlns:xlink="http://www.w3.org/1999/xlink" x="0px" y="0px" viewBox="0 0 500 500"
	 style="enable-background:new 0 0 500 500;" xml:space="preserve">
<style type="text/css">
	.st0{opacity:0.61;}
</style>
<g>
	<path class="st0" d="M496.9,143.8h-66.5l0,0c-0.8,0-1.6,0.3-2.2,0.9L262.9,304.9c-1.6,1.5-4.2,1-5.1-1l-48.1-158.3
		c-0.5-1.2-1.6-1.9-2.9-1.9h-68.1c-1.4,0-2.6,0.9-3,2.2L28.6,496c-0.6,2,0.9,4,3,4h69.8c1.4,0,2.6-0.9,3-2.2l67.8-221.4
		c0.9-2.8,4.7-3,5.9-0.3l46.3,106c0.5,1.1,1.6,1.9,2.9,1.9H265c0.8,0,1.6-0.3,2.2-0.9l111.7-109.6c2.3-2.3,6.1,0.1,5.2,3.1
		L316.9,496c-0.6,2,0.9,4,3,4h69.9c1.4,0,2.6-0.9,3-2.2l107.1-350C500.5,145.8,499,143.8,496.9,143.8z"/>
	<path class="st0" d="M86,121L5.2,40.6c-1-0.9-2.2-0.8-2.3-0.8c-1.6,0-2.9,1.3-2.9,2.9c0,0,0,353.7,0,353.7c0,0,0,0,0,0
		c0,1.6,1.3,2.9,2.9,2.9c1.2,0,2.3-0.8,2.7-1.9c0.1-0.1,0.1-0.3,0.2-0.5c0-0.1,0.2-0.8,0.2-0.9l81.5-267.6
		C88.5,125.5,88.5,123.5,86,121z"/>
	<path class="st0" d="M39.9,5.4L125,91.5c2,2,4,2.5,7,2.5h365.3c2.5,0,3.9-3.2,1.5-5.5L414.3,3c-3.7-3.6-4-3-8-3
		c0,0-364.4,0-364.5,0c-1.6,0-2.9,1.3-2.9,2.9C38.9,3,38.8,4.3,39.9,5.4C39.8,5.3,39.8,5.4,39.9,5.4z"/>
</g>
</svg>
